<?xml version="1.0" standalone="no"?>
<!DOCTYPE svg PUBLIC "-//W3C//DTD SVG 1.1//EN" "http://www.w3.org/Graphics/SVG/1.1/DTD/svg11.dtd">
<svg xmlns="http://www.w3.org/2000/svg"><metadata>This SVG WebFont was generated by YouWorkForThem.
© 2016 Connary Fagen</metadata><defs><font horiz-adv-x="342" id="ywftsvg"><font-face ascent="1638" bbox="-389 -440 2263 1935" cap-height="1434" descent="-410" font-family="" font-stretch="normal" font-weight="300" panose-1="0 0 4 0 0 0 0 0 0 0" underline-position="0" underline-thickness="0" unicode-range="U+0020-FB01" units-per-em="2048" x-height="1065"/><missing-glyph d="M831 1638v-2027h-643v2027h643zM676 1503h-336v-67h133v-76h-135v-66h338v66h-135v76h135v67zM541 1241h-203v-211h338v70h-135v141zM473 1171v-71h-67v71h67zM676 975h-338v-66h135v-75h-135v-68h203v143h135v66zM676 854h-68v-133h-270v-70h338v203zM676 606h-203v-112 h68v45h67v-95h-202v162h-68v-229h338v229zM676 256h-338v-229h338v229zM608 188v-94h-202v94h202zM676 -20h-338v-66h143l-143 -96v-68h338v68h-207l141 96h66v66z" horiz-adv-x="1013"/><glyph d="M240 1065h600v-1065h-95v981h-505v-981h-97v981h-102v84h102v100q0 307 283 308q84 0 152 -29v-84q-72 27 -146 26q-193 0 -192 -223v-98zM745 1448h95v-98h-95v98z" glyph-name="uniFB01" horiz-adv-x="964" unicode="fi"/><glyph d="M1061 1384q-92 0 -143.5 -49t-51.5 -172v-98h330v-84h-330v-981h-96v981h-530v-981h-97v981h-102v84h102v100q0 307 281 308q113 0 209 -60l-37 -67q-68 39 -162 38q-92 0 -143 -49t-51 -172v-98h530v100q0 307 281 308q113 0 209 -60l-37 -67q-68 38 -162 38z" glyph-name="f_f.liga" horiz-adv-x="1312" unicode="ff"/><glyph d="M831 1638v-2027h-643v2027h643zM676 1503h-336v-67h133v-76h-135v-66h338v66h-135v76h135v67zM541 1241h-203v-211h338v70h-135v141zM473 1171v-71h-67v71h67zM676 975h-338v-66h135v-75h-135v-68h203v143h135v66zM676 854h-68v-133h-270v-70h338v203zM676 606h-203v-112 h68v45h67v-95h-202v162h-68v-229h338v229zM676 256h-338v-229h338v229zM608 188v-94h-202v94h202zM676 -20h-338v-66h143l-143 -96v-68h338v68h-207l141 96h66v66z" glyph-name=".notdef" horiz-adv-x="1013"/><glyph glyph-name="glyph1" horiz-adv-x="0"/><glyph glyph-name="glyph2" horiz-adv-x="681"/><glyph glyph-name="space" horiz-adv-x="512" unicode=" "/><glyph d="M238 1434v-1067h-105v1067h105zM184.5 -20q-28.5 0 -45 17t-16.5 44t16.5 45t45 18t46 -18t17.5 -45t-17.5 -44t-46 -17z" glyph-name="exclam" horiz-adv-x="370" unicode="!"/><glyph d="M168 1434l-8 -410h-78l-10 410h96zM410 1434l-9 -410h-77l-11 410h97z" glyph-name="quotedbl" horiz-adv-x="481" unicode="&quot;"/><glyph d="M1034 979h-192l-37 -522h229v-88h-235l-27 -369h-96l26 369h-337l-27 -369h-96l26 369h-176v88h182l37 522h-219v86h225l27 369h96l-26 -369h338l26 369h96l-26 -369h186v-86zM709 457l36 522h-337l-37 -522h338z" glyph-name="numbersign" horiz-adv-x="1126" unicode="#"/><glyph d="M1010 377q0 -166 -123 -275.5t-301 -119.5v-166h-88v166q-156 16 -275 111t-151 237l84 35q37 -133 144.5 -214t250.5 -81q150 0 256 85t106 220q0 53 -18 96t-42 69.5t-75 55.5t-85 43t-103 41l-123 47q-336 133 -336 377q0 143 103.5 239.5t263.5 108.5v166h88v-166 q141 -14 244.5 -98t142.5 -203l-74 -37q-49 115 -140 183.5t-218 68.5q-137 0 -225.5 -71.5t-88.5 -190.5q0 -190 271 -293l106 -41q104 -41 161.5 -68.5t122 -73.5t93.5 -107.5t29 -143.5z" glyph-name="dollar" horiz-adv-x="1081" unicode="$"/><glyph d="M325.5 1444q104.5 0 179.5 -74t75 -178.5t-75 -178t-179.5 -73.5t-179 73.5t-74.5 178t74.5 178.5t179 74zM1143 1436l71 -52l-929 -1384l-74 51zM325.5 1368q-73.5 0 -126 -50t-52.5 -126t52.5 -126t126 -50t126 50t52.5 126t-52.5 126t-126 50zM1103.5 494 q104.5 0 179.5 -74t75 -178.5t-75 -178t-179.5 -73.5t-179 73.5t-74.5 178t74.5 178.5t179 74zM1104 418q-74 0 -126 -50.5t-52 -126t52 -125.5t126 -50t126 50t52 125.5t-52 126t-126 50.5z" glyph-name="percent" horiz-adv-x="1429" unicode="%"/><glyph d="M1245 82q61 0 127 41v-82q-61 -47 -135 -47q-166 0 -166 182v82q-53 -133 -171 -205.5t-275 -72.5q-211 0 -356.5 124.5t-145.5 333.5q0 195 130 319t327 134l-320 543h809v-86h-666l310 -531h-82q-176 0 -294 -104.5t-118 -274.5q0 -174 121 -272t291 -98 q193 0 310.5 118.5t117.5 270.5v354h246v-84h-160v-537q0 -108 100 -108z" glyph-name="ampersand" horiz-adv-x="1443" unicode="&amp;"/><glyph d="M168 1434l-8 -410h-78l-10 410h96z" glyph-name="quotesingle" horiz-adv-x="239" unicode="'"/><glyph d="M397 1526q-207 -375 -207 -871q0 -524 207 -921h-88q-217 387 -217 921q0 508 217 871h88z" glyph-name="parenleft" horiz-adv-x="468" unicode="("/><glyph d="M92 1526h88q217 -362 217 -871q0 -535 -217 -921h-88q207 397 207 921q0 496 -207 871z" glyph-name="parenright" horiz-adv-x="468" unicode=")"/><glyph d="M494 1432l-5 -240h-77l-6 240h88zM174 1260l232 -72l-19 -72l-233 62zM725 1260l20 -82l-233 -62l-18 72zM389 1108l57 -49l-135 -195l-71 47zM510 1108l149 -197l-71 -47l-135 195z" glyph-name="asterisk" horiz-adv-x="899" unicode="*"/><glyph d="M745 616v-77h-305v-303h-75v303h-304v77h304v302h75v-302h305z" glyph-name="plus" horiz-adv-x="806" unicode="+"/><glyph d="M51 -291l142 404h92l-144 -404h-90z" glyph-name="comma" horiz-adv-x="356" unicode=","/><glyph d="M727 616v-75h-635v75h635z" glyph-name="hyphen" horiz-adv-x="819" unicode="-"/><glyph d="M133 -20q-29 0 -45 17t-16 44t16 45t45 18t46.5 -18t17.5 -45t-17.5 -44t-46.5 -17z" glyph-name="period" horiz-adv-x="268" unicode="."/><glyph d="M872 1526l-696 -1792h-94l696 1792h94z" glyph-name="slash" horiz-adv-x="954" unicode="/"/><glyph d="M815 1454q283 0 503 -212t220 -525.5t-220 -525t-503 -211.5q-285 0 -504 211.5t-219 525t219 525.5t504 212zM815 70q240 0 434.5 186t194.5 460.5t-194.5 461t-434.5 186.5t-434.5 -186.5t-194.5 -461t194.5 -460.5t434.5 -186z" glyph-name="zero" horiz-adv-x="1630" unicode="0"/><glyph d="M401 1434v-1434h-94v1341h-184v93h278z" glyph-name="one" horiz-adv-x="567" unicode="1"/><glyph d="M520 1454q180 0 303 -114.5t123 -288.5q0 -47 -15.5 -97.5t-33.5 -88.5t-63.5 -99t-74 -96t-99 -117t-105.5 -123l-293 -344h682v-86h-844v31l381 446q29 35 83 95.5t77 87t60.5 72.5t54 70.5t39 61.5t32 63.5t16.5 58.5t7 65q0 141 -95.5 228t-234.5 87t-235.5 -92 t-96.5 -250v-33h-96v33q0 190 123 310t305 120z" glyph-name="two" horiz-adv-x="1038" unicode="2"/><glyph d="M162 319q45 -113 145.5 -182t241.5 -69q160 0 273.5 96t113.5 264q0 199 -141.5 290t-345.5 58l370 572h-672v86h824l-383 -580q180 4 312 -110.5t132 -315.5q0 -203 -139 -325.5t-342 -122.5q-172 0 -297 85t-172 222z" glyph-name="three" horiz-adv-x="1114" unicode="3"/><glyph d="M975 494v-88h-154v-406h-96v406h-643v88l643 940h96v-940h154zM182 494h543v796z" glyph-name="four" horiz-adv-x="1046" unicode="4"/><glyph d="M913 1434v-86h-606l-76 -529q131 145 349 146q190 0 334.5 -138.5t144.5 -353.5t-143.5 -354t-352.5 -139q-176 0 -296 81.5t-175 210.5l82 43q41 -104 141.5 -175.5t243.5 -71.5q170 0 288 113.5t118 291.5q0 176 -117 291t-281 115q-205 0 -346 -170l-88 20l98 705h682 z" glyph-name="five" horiz-adv-x="1140" unicode="5"/><glyph d="M754 1434l-455 -633q113 78 244 78q186 0 323.5 -129t137.5 -320q0 -193 -133.5 -321.5t-325.5 -128.5q-195 0 -329 130t-134 326q0 49 7 97.5t26.5 96.5t32 79.5t44 81t43 66.5t48 67.5t39.5 54.5l323 455h109zM545 788q-164 0 -267.5 -95t-103.5 -263 q0 -160 109.5 -260t261.5 -100q145 0 255.5 100t110.5 260q0 162 -111.5 260t-254.5 98z" glyph-name="six" horiz-adv-x="1085" unicode="6"/><glyph d="M885 1434l-555 -1434h-97l525 1348h-697v86h824z" glyph-name="seven" horiz-adv-x="946" unicode="7"/><glyph d="M717 797q121 -51 194.5 -153.5t73.5 -237.5q0 -188 -134 -307t-322.5 -119t-322.5 118.5t-134 307.5q0 135 73.5 237t196.5 154q-188 109 -188 309q0 145 102 246.5t272 101.5t272.5 -101.5t102.5 -246.5q0 -200 -186 -309zM244 1106q0 -115 82 -195t202.5 -80t202.5 80 t82 195q0 104 -77 183t-208 79q-129 0 -206.5 -79t-77.5 -183zM528.5 70q147.5 0 253 93t105.5 242.5t-103.5 244.5t-255 95t-255 -95t-103.5 -244.5t105.5 -242.5t253 -93z" glyph-name="eight" horiz-adv-x="1056" unicode="8"/><glyph d="M332 0l454 633q-113 -78 -243 -78q-186 0 -323.5 129t-137.5 320q0 193 133 321.5t326 128.5q195 0 329 -130t134 -327q0 -49 -7.5 -97t-27 -96t-31.5 -80t-44 -81t-43 -66.5t-48 -67.5t-39 -54l-324 -455h-108zM541 645q164 0 267 95.5t103 263.5q0 160 -109.5 260 t-260.5 100q-145 0 -256 -100.5t-111 -259.5q0 -162 112 -260.5t255 -98.5z" glyph-name="nine" horiz-adv-x="1085" unicode="9"/><glyph d="M164 897q-29 0 -45.5 17.5t-16.5 44t16.5 45t45.5 18.5t46 -18.5t17 -45t-17 -44t-46 -17.5zM164 -20q-29 0 -45.5 17t-16.5 44t16.5 45t45.5 18t46 -18t17 -45t-17 -44t-46 -17z" glyph-name="colon" horiz-adv-x="329" unicode=":"/><glyph d="M237.5 897q-28.5 0 -45 17.5t-16.5 44t16.5 45t45 18.5t46 -18.5t17.5 -45t-17.5 -44t-46 -17.5zM51 -291l142 404h92l-144 -404h-90z" glyph-name="semicolon" horiz-adv-x="372" unicode=";"/><glyph d="M946 985v-96l-725 -397l725 -394v-98l-854 469v47z" glyph-name="less" horiz-adv-x="1017" unicode="&lt;"/><glyph d="M780 780v-75h-686v75h686zM780 453v-76h-686v76h686z" glyph-name="equal" horiz-adv-x="872" unicode="="/><glyph d="M72 985l854 -469v-47l-854 -469v98l725 394l-725 397v96z" glyph-name="greater" horiz-adv-x="1017" unicode=">"/><glyph d="M506 1454q186 0 304 -108.5t118 -278.5q0 -96 -40 -170t-97.5 -122t-115 -93t-97 -106.5t-39.5 -137.5v-71h-99v61q0 92 40 163t97.5 117t116 91t98 112.5t39.5 155.5q0 141 -90 220t-235 79q-147 0 -237.5 -89t-90.5 -271h-96q0 213 114.5 330.5t309.5 117.5zM487.5 -20 q-28.5 0 -45 17t-16.5 44t16.5 45t45 18t46 -18t17.5 -45t-17.5 -44t-46 -17z" glyph-name="question" horiz-adv-x="1009" unicode="?"/><glyph d="M807 1454q295 0 504 -211t209 -559q0 -186 -65.5 -282.5t-180.5 -96.5q-88 0 -141.5 59.5t-53.5 172.5q-37 -121 -121 -178.5t-182 -57.5q-141 0 -249.5 105.5t-108.5 306.5q0 184 109.5 289.5t248.5 105.5q94 0 171 -48t110 -138l14 165h68v-446q0 -258 137 -258 q72 0 115 74.5t43 226.5q0 311 -183.5 498.5t-443.5 187.5q-246 0 -437.5 -187.5t-191.5 -469.5q0 -184 95.5 -336t238.5 -233t297 -81q223 0 367 113l84 -31q-162 -166 -453 -165q-178 0 -341 92t-268.5 263t-105.5 378q0 317 217 529t498 212zM776 1026q-106 0 -191 -81 t-85 -232q0 -162 84 -246t192 -84q106 0 188.5 90t82.5 240q0 145 -81 229t-190 84z" glyph-name="at" horiz-adv-x="1611" unicode="@"/><glyph d="M1266 0l-168 385h-787l-168 -385h-102l625 1434h75l627 -1434h-102zM346 469h717l-358 823z" glyph-name="A" horiz-adv-x="1409" unicode="A"/><glyph d="M748 782q156 -33 240.5 -136t84.5 -255q0 -184 -127 -287.5t-385 -103.5h-438v1434h461q201 0 302 -96.5t101 -241.5q0 -109 -59 -192t-180 -122zM582 1346h-363v-531h354q150 0 235 76t85 199q0 119 -78.5 187.5t-232.5 68.5zM561 88q416 0 416 311q0 156 -104.5 245 t-301.5 89h-352v-645h342z" glyph-name="B" horiz-adv-x="1144" unicode="B"/><glyph d="M1294 154q-209 -174 -475 -174q-135 0 -266 55t-232.5 150.5t-165 234.5t-63.5 296.5t63.5 297t165 234.5t232.5 150.5t266 55.5q262 0 471 -170l-63 -72q-172 147 -400 148q-246 0 -441.5 -184.5t-195.5 -459t196 -458.5t441 -184q229 0 402 147z" glyph-name="C" horiz-adv-x="1366" unicode="C"/><glyph d="M500 1434q315 0 519 -207t204 -514q0 -301 -205 -507t-518 -206h-377v1434h377zM498 92q281 0 454.5 178.5t173.5 442.5q0 270 -174 449t-454 179h-279v-1249h279z" glyph-name="D" horiz-adv-x="1304" unicode="D"/><glyph d="M219 92h725v-92h-821v1434h803v-93h-707v-575h559v-92h-559v-582z" glyph-name="E" horiz-adv-x="1036" unicode="E"/><glyph d="M934 1348h-715v-584h590v-84h-590v-680h-96v1434h811v-86z" glyph-name="F" horiz-adv-x="1005" unicode="F"/><glyph d="M1485 698q10 -322 -185.5 -520t-480.5 -198q-186 0 -352 92t-270.5 264t-104.5 381q0 158 63.5 297t165 234t232.5 150.5t266 55.5q260 0 469 -170l-63 -72q-172 147 -398 148q-246 0 -441.5 -184.5t-195.5 -458.5q0 -276 191.5 -459.5t441.5 -183.5q225 0 386 140 t184 396h-463v88h555z" glyph-name="G" horiz-adv-x="1576" unicode="G"/><glyph d="M1034 1434h96v-1434h-96v653h-815v-653h-96v1434h96v-689h815v689z" glyph-name="H" horiz-adv-x="1253" unicode="H"/><glyph d="M219 1434v-1434h-96v1434h96z" glyph-name="I" unicode="I"/><glyph d="M823 1434v-979q0 -246 -107.5 -360.5t-295.5 -114.5q-252 0 -359 194l66 55q98 -158 293 -157q150 0 228.5 90t78.5 297v975h96z" glyph-name="J" horiz-adv-x="946" unicode="J"/><glyph d="M1065 0l-619 698l-227 -241v-457h-96v1434h96v-848l795 848h123l-629 -670l676 -764h-119z" glyph-name="K" horiz-adv-x="1234" unicode="K"/><glyph d="M219 92h688v-92h-784v1434h96v-1342z" glyph-name="L" horiz-adv-x="989" unicode="L"/><glyph d="M1608 1434v-1434h-97v1231h-10l-600 -1231h-74l-598 1231h-10v-1231h-96v1434h108l633 -1307l635 1307h109z" glyph-name="M" horiz-adv-x="1730" unicode="M"/><glyph d="M123 0v1434h96l926 -1262h14v1262h96v-1434h-96l-926 1262h-14v-1262h-96z" glyph-name="N" horiz-adv-x="1378" unicode="N"/><glyph d="M819 1454q180 0 346 -91t273.5 -264t107.5 -382t-107.5 -382t-273.5 -264t-346 -91q-182 0 -347 91t-272.5 263t-107.5 383t107.5 383t272.5 263t347 91zM819.5 74q241.5 0 435 183t193.5 459.5t-193.5 460t-435 183.5t-435.5 -183.5t-194 -460t194 -459.5t435.5 -183z " glyph-name="O" horiz-adv-x="1638" unicode="O"/><glyph d="M569 1434q233 0 365.5 -127t132.5 -320q0 -199 -131 -323.5t-367 -124.5h-350v-539h-96v1434h446zM573 629q182 0 290 96t108 262t-107.5 260t-290.5 94h-354v-712h354z" glyph-name="P" horiz-adv-x="1138" unicode="P"/><glyph d="M1546 717q0 -340 -264 -563l129 -154h-115l-84 100q-184 -121 -393 -120q-182 0 -347 91t-272.5 263t-107.5 383t107.5 383t272.5 263t347 91q180 0 346 -91t273.5 -264t107.5 -382zM819 74q176 0 330 100l-340 406h115l297 -353q227 193 227 490q0 276 -193.5 459.5 t-435 183.5t-435.5 -183.5t-194 -460t193.5 -459.5t435.5 -183z" glyph-name="Q" horiz-adv-x="1638" unicode="Q"/><glyph d="M1133 0h-111l-399 541q-16 -2 -54 -2h-350v-539h-96v1434h446q233 0 365.5 -127t132.5 -320q0 -164 -90 -279.5t-256 -152.5zM219 629h354q182 0 290 96t108 262t-107.5 260t-290.5 94h-354v-712z" glyph-name="R" horiz-adv-x="1193" unicode="R"/><glyph d="M541 1454q158 0 273.5 -87t158.5 -216l-74 -37q-49 115 -140 183.5t-218 68.5q-137 0 -225.5 -71.5t-88.5 -190.5q0 -190 271 -293l106 -41q104 -41 161.5 -68.5t122 -73.5t93.5 -107.5t29 -143.5q0 -176 -134.5 -286.5t-324.5 -110.5q-172 0 -307 98t-172 252l84 35 q37 -133 144.5 -214t250.5 -81q150 0 256 85t106 220q0 53 -18 96t-42 69.5t-75 55.5t-85 43t-103 41l-123 47q-336 133 -336 377q0 154 117 252t293 98z" glyph-name="S" horiz-adv-x="1081" unicode="S"/><glyph d="M1022 1434v-93h-422v-1341h-96v1341h-422v93h940z" glyph-name="T" horiz-adv-x="1103" unicode="T"/><glyph d="M1026 1434h96v-908q0 -260 -139 -403t-360.5 -143t-360.5 143t-139 403v908h96v-906q0 -219 111.5 -336.5t292.5 -117.5q182 0 292.5 117.5t110.5 336.5v906z" glyph-name="U" horiz-adv-x="1245" unicode="U"/><glyph d="M1266 1434h102l-627 -1434h-75l-625 1434h102l562 -1293z" glyph-name="V" horiz-adv-x="1409" unicode="V"/><glyph d="M1931 1434l-461 -1434h-51l-428 1247l-430 -1247h-49l-461 1434h96l392 -1225l426 1225h51l426 -1225l393 1225h96z" glyph-name="W" horiz-adv-x="1982" unicode="W"/><glyph d="M1227 0h-117l-471 659l-471 -659h-117l531 741l-496 693h117l436 -611l436 611h115l-494 -693z" glyph-name="X" horiz-adv-x="1277" unicode="X"/><glyph d="M1204 1434l-528 -777v-657h-96v657l-529 777h113l463 -684l465 684h112z" glyph-name="Y" horiz-adv-x="1255" unicode="Y"/><glyph d="M1122 1434l-905 -1346h913v-88h-1079l905 1348h-852v86h1018z" glyph-name="Z" horiz-adv-x="1181" unicode="Z"/><glyph d="M375 1526v-86h-187v-1620h187v-86h-283v1792h283z" glyph-name="bracketleft" horiz-adv-x="466" unicode="["/><glyph d="M82 1526h94l696 -1792h-94z" glyph-name="backslash" horiz-adv-x="954" unicode="\"/><glyph d="M92 1526h283v-1792h-283v86h187v1620h-187v86z" glyph-name="bracketright" horiz-adv-x="466" unicode="]"/><glyph d="M524 1434l342 -461h-96l-289 362l-293 -362h-96l342 461h90z" glyph-name="asciicircum" horiz-adv-x="958" unicode="^"/><glyph d="M1116 0v-88h-1024v88h1024z" glyph-name="underscore" horiz-adv-x="1208" unicode="_"/><glyph d="M0 1516h113l135 -326h-66z" glyph-name="grave" horiz-adv-x="247" unicode="`"/><glyph d="M608 -20q-205 0 -370.5 148t-165.5 404t165.5 404.5t370.5 148.5q143 0 262 -73.5t170 -190.5h11v244h94v-1065h-94v244h-11q-51 -117 -170 -190.5t-262 -73.5zM612 66q170 0 306.5 123.5t136.5 343t-136.5 343t-306.5 123.5q-172 0 -309 -123.5t-137 -343t137 -343 t309 -123.5z" glyph-name="a" horiz-adv-x="1269" unicode="a"/><glyph d="M662 1085q205 0 370.5 -148.5t165.5 -404.5t-166 -404t-370 -148q-143 0 -262 73.5t-171 190.5h-10v-244h-94v764h-2v684h94v-383h2v-244h10q51 117 170.5 190.5t262.5 73.5zM657 66q172 0 309.5 123.5t137.5 343t-137.5 343t-309.5 123.5q-170 0 -306 -123.5t-136 -343 t136 -343t306 -123.5z" glyph-name="b" horiz-adv-x="1269" unicode="b"/><glyph d="M614 1085q145 0 265 -67.5t186 -194.5l-82 -30q-55 100 -152.5 153t-216.5 53q-170 0 -309 -123.5t-139 -345.5q0 -217 139 -340.5t309 -123.5q119 0 216.5 53t152.5 153l82 -30q-66 -127 -185.5 -194.5t-265.5 -67.5q-205 0 -373.5 148t-168.5 402q0 174 86 305.5 t206.5 190.5t249.5 59z" glyph-name="c" horiz-adv-x="1126" unicode="c"/><glyph d="M1141 1448v-684h-2v-764h-95v244h-10q-51 -117 -170 -190.5t-262 -73.5q-205 0 -370.5 148t-165.5 404t165.5 404.5t370.5 148.5q143 0 262 -73.5t170 -190.5h10v244h3v383h94zM606 66q170 0 306.5 123.5t136.5 343t-136.5 343t-306.5 123.5q-172 0 -309 -123.5 t-137 -343t137 -343t309 -123.5z" glyph-name="d" horiz-adv-x="1263" unicode="d"/><glyph d="M604 1085q94 0 188.5 -36.5t176.5 -106.5t127 -187.5t34 -262.5h-962q12 -203 146.5 -314.5t312.5 -111.5q236 0 354 145l61 -53q-137 -178 -415 -178q-223 0 -389 146t-166 406q0 174 85 304.5t202.5 189.5t244.5 59zM604 999q-156 0 -290 -112.5t-146 -313.5h876 q-4 135 -76.5 235.5t-168 145.5t-195.5 45z" glyph-name="e" horiz-adv-x="1204" unicode="e"/><glyph d="M434 1384q-92 0 -143 -49t-51 -172v-98h329v-84h-329v-981h-97v981h-102v84h102v100q0 307 281 308q113 0 209 -60l-37 -67q-68 38 -162 38z" glyph-name="f" horiz-adv-x="684" unicode="f"/><glyph d="M1051 1065h94v-1065q0 -115 -43 -200t-112.5 -132t-143.5 -68.5t-152 -21.5q-233 0 -336 92v88q104 -94 336 -94q150 0 253.5 86t103.5 250v244h-11q-51 -117 -169.5 -190.5t-262.5 -73.5q-205 0 -370.5 148t-165.5 404t165.5 404.5t370.5 148.5q143 0 262 -73.5 t170 -190.5h11v244zM612 66q170 0 306.5 123.5t136.5 343t-136.5 343t-306.5 123.5q-172 0 -309 -123.5t-137 -343t137 -343t309 -123.5z" glyph-name="g" horiz-adv-x="1269" unicode="g"/><glyph d="M627 1085q174 0 291.5 -116.5t117.5 -345.5v-623h-96v627q0 180 -93 276t-235 96q-166 0 -267 -106.5t-128 -230.5v-662h-94v1448h94v-641q10 31 36 72t73 90t127 82.5t174 33.5z" glyph-name="h" horiz-adv-x="1138" unicode="h"/><glyph d="M217 1448v-98h-94v98h94zM217 1065v-1065h-94v1065h94z" glyph-name="i" unicode="i"/><glyph d="M293 1448v-98h-96v98h96zM-90 -395h-33v88h39q135 0 208 64.5t73 234.5v1073h96v-1075q0 -217 -100.5 -301t-282.5 -84z" glyph-name="j" horiz-adv-x="415" unicode="j"/><glyph d="M911 0l-510 504l-184 -193v-311h-94v1448h94v-1016l598 633h119l-473 -496l571 -569h-121z" glyph-name="k" horiz-adv-x="1073" unicode="k"/><glyph d="M217 1448v-1448h-94v1448h94z" glyph-name="l" unicode="l"/><glyph d="M1325 1085q72 0 136.5 -22.5t121.5 -71.5t91 -137t34 -207v-647h-94v657q0 172 -84 257t-213 85q-145 0 -238.5 -100t-115.5 -244v-655h-95v657q0 170 -88 256t-215 86q-147 0 -236 -105.5t-112 -238.5v-655h-94v1065h94v-260q14 86 107.5 183t250.5 97 q121 0 224.5 -69.5t144.5 -210.5q35 111 136.5 195.5t244.5 84.5z" glyph-name="m" horiz-adv-x="1810" unicode="m"/><glyph d="M627 1085q174 0 291.5 -116.5t117.5 -345.5v-623h-96v627q0 180 -93 276t-235 96q-166 0 -267 -106.5t-128 -230.5v-662h-94v1065h94v-258q10 31 36 72t73 90t127 82.5t174 33.5z" glyph-name="n" horiz-adv-x="1138" unicode="n"/><glyph d="M612 1085q129 0 249 -59t206 -189t86 -304.5t-86 -304.5t-206 -189t-249 -59t-248.5 59t-205.5 189t-86 304.5t86 304.5t205.5 189t248.5 59zM612 999q-168 0 -307 -123.5t-139 -343t139 -343t307 -123.5t306.5 123.5t138.5 343t-138.5 343t-306.5 123.5z" glyph-name="o" horiz-adv-x="1224" unicode="o"/><glyph d="M662 1085q205 0 370.5 -148.5t165.5 -404.5t-166 -404t-370 -148q-143 0 -262 73.5t-171 190.5h-10v-244h-2v-389h-94v690h2v764h94v-244h10q51 117 170.5 190.5t262.5 73.5zM657 66q172 0 309.5 123.5t137.5 343t-137.5 343t-309.5 123.5q-170 0 -306 -123.5t-136 -343 t136 -343t306 -123.5z" glyph-name="p" horiz-adv-x="1269" unicode="p"/><glyph d="M1139 301h2v-690h-94v389h-3v244h-10q-51 -117 -170 -190.5t-262 -73.5q-205 0 -370.5 148t-165.5 404t165.5 404.5t370.5 148.5q143 0 262 -73.5t170 -190.5h10v244h95v-764zM606 66q170 0 306.5 123.5t136.5 343t-136.5 343t-306.5 123.5q-172 0 -309 -123.5t-137 -343 t137 -343t309 -123.5z" glyph-name="q" horiz-adv-x="1263" unicode="q"/><glyph d="M629 1081q27 0 37 -2v-88q-12 2 -37 2q-158 0 -271.5 -108.5t-140.5 -298.5v-586h-94v1065h94v-303q20 127 135 223t277 96z" glyph-name="r" horiz-adv-x="727" unicode="r"/><glyph d="M645 844q-76 160 -246 160q-96 0 -155.5 -51.5t-59.5 -133.5q0 -137 185 -203l92 -32q158 -53 233.5 -121t75.5 -187q0 -141 -106.5 -218.5t-247.5 -77.5q-139 0 -238.5 73.5t-126.5 202.5l80 20q27 -102 105.5 -158.5t181.5 -56.5q104 0 183 54.5t79 156.5 q0 86 -56.5 137.5t-168.5 90.5l-117 41q-244 86 -244 278q0 115 87 190.5t218 75.5q115 0 199 -57t125 -156z" glyph-name="s" horiz-adv-x="831" unicode="s"/><glyph d="M524 981h-223v-807q0 -100 98 -100q59 0 121 30v-84q-72 -33 -139 -32q-78 0 -126 40t-48 119v834h-146v84h146v272h94v-272h223v-84z" glyph-name="t" horiz-adv-x="606" unicode="t"/><glyph d="M500 -20q-174 0 -292 116.5t-118 345.5v623h96v-627q0 -180 93.5 -276t234.5 -96q166 0 267.5 106.5t127.5 230.5v662h95v-1065h-95v258q-10 -31 -35.5 -72t-72.5 -90t-127 -82.5t-174 -33.5z" glyph-name="u" horiz-adv-x="1126" unicode="u"/><glyph d="M1057 1065l-469 -1065h-68l-469 1065h101l403 -926l401 926h101z" glyph-name="v" horiz-adv-x="1107" unicode="v"/><glyph d="M1733 1065h96l-422 -1065h-68l-399 956l-399 -956h-66l-424 1065h96l363 -922l385 922h90l385 -922z" glyph-name="w" horiz-adv-x="1880" unicode="w"/><glyph d="M887 0l-355 471l-356 -471h-115l416 543l-397 522h110l342 -449l342 449h109l-397 -522l415 -543h-114z" glyph-name="x" horiz-adv-x="1062" unicode="x"/><glyph d="M956 1065h101l-641 -1454h-97l187 420l-455 1034h101l403 -926z" glyph-name="y" horiz-adv-x="1107" unicode="y"/><glyph d="M967 1065l-746 -977h731v-88h-901l746 979h-684v86h854z" glyph-name="z" horiz-adv-x="1017" unicode="z"/><glyph d="M424 1526v-86h-72q-33 0 -52 -20.5t-19 -53.5v-600l-80 -139l80 -135v-598q0 -33 19 -53.5t52 -20.5h72v-86h-92q-63 0 -105.5 43t-42.5 108v596l-92 146l92 149v598q0 66 42 109t106 43h92z" glyph-name="braceleft" horiz-adv-x="516" unicode="{"/><glyph d="M242 1638v-2027h-88v2027h88z" glyph-name="bar" horiz-adv-x="395" unicode="|"/><glyph d="M92 1526h92q63 0 105.5 -43t42.5 -109v-598l92 -149l-92 -146v-596q0 -66 -42 -108.5t-106 -42.5h-92v86h72q33 0 52.5 20.5t19.5 53.5v598l79 135l-79 139v600q0 33 -19.5 53.5t-52.5 20.5h-72v86z" glyph-name="braceright" horiz-adv-x="516" unicode="}"/><glyph d="M295 702q76 0 135 -35.5t113.5 -70.5t115.5 -35q66 0 99 30t33 68h59q0 -90 -54.5 -135t-140.5 -45q-94 0 -196.5 73t-177.5 73q-68 0 -101 -36t-30 -75h-58q0 90 58.5 139t144.5 49z" glyph-name="asciitilde" horiz-adv-x="942" unicode="~"/><glyph d="M184.5 1085q28.5 0 46 -17t17.5 -44t-17.5 -45t-46 -18t-45 18t-16.5 45t16.5 44t45 17zM238 -369h-105v1067h105v-1067z" glyph-name="exclamdown" horiz-adv-x="313" unicode="¡"/><glyph d="M629 217q113 4 207 56.5t147 146.5l82 -29q-66 -123 -180.5 -188.5t-255.5 -69.5v-215h-68v217q-195 20 -342 162.5t-147 376t147.5 377t341.5 163.5v220h68v-217q141 -4 255.5 -70t180.5 -186l-82 -31q-53 94 -146.5 146t-207.5 57v-916zM166 674q0 -197 118.5 -315.5 t276.5 -137.5v907q-158 -18 -276.5 -136.5t-118.5 -317.5z" glyph-name="cent" horiz-adv-x="1126" unicode="¢"/><glyph d="M1024 979h-94v37q0 170 -99.5 261t-238.5 91q-135 0 -233.5 -83t-98.5 -232q0 -43 12.5 -95.5t22.5 -80t38.5 -95t35.5 -84.5h362v-77h-334q27 -84 27 -156q0 -219 -201 -379h785v-86h-916v86q238 176 238 381q0 74 -27 154h-184v77h153q-6 12 -28.5 64.5t-30.5 75 t-22.5 65.5t-19.5 79t-5 75q0 176 118.5 286.5t307.5 110.5q193 0 312.5 -118.5t119.5 -319.5v-37z" glyph-name="sterling" horiz-adv-x="1116" unicode="£"/><glyph d="M1038 975q0 -156 -94 -279l96 -96l-86 -84l-94 94q-123 -94 -280.5 -94t-280.5 96l-96 -96l-84 84l96 96q-94 123 -94 279q0 158 94 280l-96 97l84 84l96 -97q123 94 281 95q156 0 278 -95l96 97l86 -84l-96 -97q94 -122 94 -280zM215 975q0 -150 108.5 -257.5 t256 -107.5t257 107.5t109.5 257.5q0 147 -109.5 255.5t-257 108.5t-256 -108.5t-108.5 -255.5z" glyph-name="currency" horiz-adv-x="1153" unicode="¤"/><glyph d="M676 657v-118h278v-74h-278v-143h278v-74h-278v-248h-96v248h-279v74h279v143h-279v74h279v118l-529 777h113l463 -684l465 684h112z" glyph-name="yen" horiz-adv-x="1255" unicode="¥"/><glyph d="M242 1638v-573h-88v573h88zM242 184v-573h-88v573h88z" glyph-name="brokenbar" horiz-adv-x="395" unicode="¦"/><glyph d="M831 266q135 -104 136 -276q0 -176 -136.5 -277.5t-349.5 -101.5q-147 0 -265 57.5t-144 114.5v258h90v-211q18 -39 111.5 -85t209.5 -46q164 0 274.5 78t110.5 219q0 55 -19.5 101t-45 75t-75.5 58.5t-87 45t-104 41.5l-121 43q-336 121 -336 379q0 170 147 271 q-147 104 -147 282q0 154 119.5 250t306.5 96q135 0 244.5 -52t144.5 -105v-262h-90v215q-23 35 -105 75.5t-192 40.5q-147 0 -239.5 -69.5t-92.5 -188.5q0 -197 264 -293l125 -47q94 -35 153.5 -64.5t123 -76.5t94.5 -113.5t31 -152.5q-1 -179 -136 -279zM440 446l125 -47 q119 -45 180 -77q123 80 123 227q0 55 -19.5 101t-45 75t-75.5 58.5t-87 45t-104 41.5l-121 43q-80 31 -103 43q-137 -70 -137 -217q0 -197 264 -293z" glyph-name="section" horiz-adv-x="1038" unicode="§"/><glyph d="M94 1436v-97h-94v97h94zM530 1436v-97h-96v97h96z" glyph-name="dieresis" horiz-adv-x="530" unicode="¨"/><glyph d="M805 1448q178 0 340 -91t267.5 -261t105.5 -379t-105.5 -379t-267.5 -261t-340 -91t-340 91t-267.5 261t-105.5 379t105.5 379t267.5 261t340 91zM804.5 80q235.5 0 426 180t190.5 456.5t-190.5 457t-426 180.5t-426 -180.5t-190.5 -457t190.5 -456.5t426 -180zM821 352 q143 0 238 103l61 -72q-129 -123 -299 -123q-178 0 -312 131t-134 325.5t134 326t312 131.5q170 0 299 -123l-61 -72q-94 102 -238 102q-135 0 -244.5 -104.5t-109.5 -260t109.5 -260t244.5 -104.5z" glyph-name="copyright" horiz-adv-x="1609" unicode="©"/><glyph d="M352 1444q133 0 192.5 -73t61.5 -228v-197q0 -63 9.5 -90t35.5 -63h-96q-33 49 -31 104q-86 -111 -213 -111q-109 0 -174 51.5t-65 149.5q0 160 241 187l209 22q-6 168 -170 168q-127 0 -211 -88l-49 51q86 117 260 117zM522 1122l-205 -24q-160 -18 -159 -111 q0 -57 41 -89t112 -32q74 0 132.5 47.5t78.5 87.5v121z" glyph-name="ordfeminine" horiz-adv-x="774" unicode="ª"/><glyph d="M82 635l297 295l39 -41l-264 -287l264 -285l-39 -41l-297 295v64zM381 635l297 295l39 -41l-264 -287l264 -285l-39 -41l-297 295v64z" glyph-name="guillemotleft" horiz-adv-x="768" unicode="«"/><glyph d="M879 618v-313h-97v238h-690v75h787z" glyph-name="logicalnot" horiz-adv-x="970" unicode="¬"/><glyph d="M727 616v-75h-635v75h635z" glyph-name="uni00AD" horiz-adv-x="819" unicode="­"/><glyph d="M805 1448q178 0 340 -91t267.5 -261t105.5 -379t-105.5 -379t-267.5 -261t-340 -91t-340 91t-267.5 261t-105.5 379t105.5 379t267.5 261t340 91zM804.5 80q235.5 0 426 180t190.5 456.5t-190.5 457t-426 180.5t-426 -180.5t-190.5 -457t190.5 -456.5t426 -180zM801 1130 q133 0 214 -71.5t81 -181.5q0 -96 -56.5 -163t-146.5 -85l244 -310h-101l-237 306h-181v-306h-81v811h264zM803 1053h-185v-353h185q100 0 154.5 45.5t54.5 128.5q0 80 -55.5 129.5t-153.5 49.5z" glyph-name="registered" horiz-adv-x="1609" unicode="®"/><glyph d="M741 1434v-84h-741v84h741z" glyph-name="macron" horiz-adv-x="741" unicode="¯"/><glyph d="M391 1454q125 0 212 -87t87 -210q0 -125 -87 -213t-212 -88t-212 88t-87 213q0 123 87 210t212 87zM391 1374q-92 0 -154.5 -61.5t-62.5 -155.5t62.5 -156.5t154.5 -62.5q90 0 153.5 62.5t63.5 156.5t-63.5 155.5t-153.5 61.5z" glyph-name="degree" horiz-adv-x="782" unicode="°"/><glyph d="M365 229v303h-304v78h304v301h75v-301h305v-78h-305v-303h-75zM92 78h686v-76h-686v76z" glyph-name="plusminus" horiz-adv-x="837" unicode="±"/><glyph d="M264 1442q70 0 121 -46t51 -108q0 -53 -29.5 -96t-109.5 -125l-96 -100h241v-66h-344v66l140 141q57 59 74.5 78.5t31.5 46.5t14 55q0 37 -28.5 63.5t-65.5 26.5q-39 0 -67.5 -26.5t-28.5 -75.5v-29h-76v29q0 72 50 119t122 47z" glyph-name="uni00B2" horiz-adv-x="534" unicode="²"/><glyph d="M268 1440q66 0 115 -42t49 -98q0 -66 -61 -108q86 -37 86 -135q0 -70 -56.5 -117t-132.5 -47q-82 0 -136 55.5t-50 130.5h78q0 -49 29.5 -85t78.5 -36q45 0 78 28t33 71q0 98 -152 98v59q129 0 129 86q0 33 -25.5 54.5t-62.5 21.5q-45 0 -70.5 -29.5t-25.5 -82.5h-76 q-2 78 47 127t125 49z" glyph-name="uni00B3" horiz-adv-x="538" unicode="³"/><glyph d="M248 1516l-182 -326h-66l135 326h113z" glyph-name="acute" horiz-adv-x="247" unicode="´"/><glyph d="M909 1065h95v-1065h-95v258q-10 -31 -35.5 -72t-72.5 -90t-127 -82.5t-174 -33.5q-188 0 -303 129v-498h-95v700q-12 57 -12 131v623h107v-733q27 -131 112.5 -198.5t204.5 -67.5q166 0 267.5 106.5t127.5 230.5v662z" glyph-name="uni00B5" horiz-adv-x="1128" unicode="µ"/><glyph d="M152 987q0 193 132 320t365 127h447v-1434h-97v539h-350q-236 0 -366.5 124.5t-130.5 323.5zM1204 1434h96v-1434h-96v1434zM999 629v712h-354q-182 0 -289.5 -94t-107.5 -260t107.5 -262t289.5 -96h354z" glyph-name="paragraph" horiz-adv-x="1443" unicode="¶"/><glyph d="M133 494q-29 0 -45 17t-16 44t16 45t45 18t46.5 -18t17.5 -45t-17.5 -44t-46.5 -17z" glyph-name="periodcentered" horiz-adv-x="313" unicode="·"/><glyph d="M127 -96q72 2 125 -44t53 -122q0 -94 -90 -142.5t-215 -25.5l20 49q86 -12 140.5 26t54.5 93q0 59 -49 92t-109 2l-39 43l105 125h96z" glyph-name="cedilla" horiz-adv-x="305" unicode="¸"/><glyph d="M270 1436v-535h-75v453l-35 -23l-37 64l72 41h75z" glyph-name="uni00B9" horiz-adv-x="436" unicode="¹"/><glyph d="M387 1444q121 0 218 -89t97 -238.5t-97 -240t-218 -90.5t-218 90.5t-97 240t97 238.5t218 89zM387 1364q-92 0 -161.5 -65.5t-69.5 -182.5t69.5 -182.5t161.5 -65.5t161.5 65.5t69.5 182.5t-69.5 182.5t-161.5 65.5z" glyph-name="ordmasculine" horiz-adv-x="774" unicode="º"/><glyph d="M387 635v-64l-297 -295l-39 41l264 285l-264 287l39 41zM686 635v-64l-297 -295l-39 41l264 285l-264 287l39 41z" glyph-name="guillemotright" horiz-adv-x="768" unicode="»"/><glyph d="M205 1436v-535h-76v453l-35 -23l-37 64l72 41h76zM1030 1434l-880 -1434h-99l893 1434h86zM1059 535v-316h55v-63h-55v-156h-76v156h-270l270 379h76zM983 414l-133 -195h133v195z" glyph-name="onequarter" horiz-adv-x="1165" unicode="¼"/><glyph d="M205 1436v-535h-76v453l-35 -23l-37 64l72 41h76zM1030 1434l-880 -1434h-99l893 1434h86zM885 541q70 0 121 -46t51 -108q0 -53 -30 -96t-109 -125l-97 -100h242v-66h-344v66l139 141q57 59 74.5 78.5t32 46t14.5 55.5q0 37 -28.5 63.5t-65.5 26.5q-39 0 -68 -26.5 t-29 -75.5v-29h-75v29q0 72 50 119t122 47z" glyph-name="onehalf" horiz-adv-x="1114" unicode="½"/><glyph d="M238 1440q66 0 114.5 -42t48.5 -98q0 -66 -61 -108q86 -37 86 -135q0 -70 -56.5 -117t-131.5 -47q-82 0 -136.5 55.5t-50.5 130.5h78q0 -49 29.5 -85t79.5 -36q45 0 77.5 28t32.5 71q0 98 -151 98v59q129 0 129 86q0 33 -26 54.5t-62 21.5q-45 0 -71 -29.5t-26 -82.5h-75 q-2 78 47 127t125 49zM1087 1434l-880 -1434h-98l892 1434h86zM1096 535v-316h55v-63h-55v-156h-76v156h-270l270 379h76zM1020 414l-133 -195h133v195z" glyph-name="threequarters" horiz-adv-x="1202" unicode="¾"/><glyph d="M522.5 1085q28.5 0 45 -17t16.5 -44t-16.5 -45t-45 -18t-46 18t-17.5 45t17.5 44t46 17zM504 -389q-186 0 -304 108.5t-118 278.5q0 96 40 170t97 122t114.5 93t97.5 106.5t40 137.5v71h98v-61q0 -92 -40 -163t-97 -117t-115.5 -91t-98.5 -112.5t-40 -155.5 q0 -141 90 -220t236 -79q147 0 237 89t90 271h97q0 -213 -114.5 -330.5t-309.5 -117.5z" glyph-name="questiondown" horiz-adv-x="1009" unicode="¿"/><glyph d="M745 1559h-65l-182 325h112zM1266 0l-168 385h-787l-168 -385h-102l625 1434h75l627 -1434h-102zM346 469h717l-358 823z" glyph-name="Agrave" horiz-adv-x="1409" unicode="À"/><glyph d="M922 1884l-183 -325h-65l135 325h113zM1266 0l-168 385h-787l-168 -385h-102l625 1434h75l627 -1434h-102zM346 469h717l-358 823z" glyph-name="Aacute" horiz-adv-x="1409" unicode="Á"/><glyph d="M705 1853l-240 -264l-41 39l250 307h63l250 -307l-41 -39zM1266 0l-168 385h-787l-168 -385h-102l625 1434h75l627 -1434h-102zM346 469h717l-358 823z" glyph-name="Acircumflex" horiz-adv-x="1409" unicode="Â"/><glyph d="M547 1767q-61 0 -92 -35.5t-29 -74.5h-57q0 86 56 135t126 49q55 0 101 -21.5t74 -47t64.5 -47t71.5 -21.5q61 0 92 30.5t31 67.5h59q0 -88 -53 -134t-127 -46q-53 0 -98 22.5t-71.5 50t-65.5 50t-82 22.5zM1266 0l-168 385h-787l-168 -385h-102l625 1434h75l627 -1434 h-102zM346 469h717l-358 823z" glyph-name="Atilde" horiz-adv-x="1409" unicode="Ã"/><glyph d="M535 1804v-96h-95v96h95zM971 1804v-96h-97v96h97zM1266 0l-168 385h-787l-168 -385h-102l625 1434h75l627 -1434h-102zM346 469h717l-358 823z" glyph-name="Adieresis" horiz-adv-x="1409" unicode="Ä"/><glyph d="M707 1602q-70 0 -117 47t-47 112.5t47 111.5t117 46q66 0 112.5 -47t46.5 -111q0 -66 -46.5 -112.5t-112.5 -46.5zM704.5 1847q-34.5 0 -61.5 -25.5t-27 -60.5q0 -37 27 -62.5t61.5 -25.5t60.5 25.5t26 62.5q0 35 -26 60.5t-60.5 25.5zM1266 0l-168 385h-787l-168 -385 h-102l625 1434h75l627 -1434h-102zM346 469h717l-358 823z" glyph-name="Aring" horiz-adv-x="1409" unicode="Å"/><glyph d="M1120 92h725v-92h-821v477h-545l-325 -477h-113l981 1434h805v-93h-707v-575h559v-92h-559v-582zM539 563h485v711z" glyph-name="AE" horiz-adv-x="1937" unicode="Æ"/><glyph d="M772 -96q72 2 125 -44t53 -122q0 -94 -90 -142.5t-215 -25.5l21 49q86 -12 140 26t54 93q0 59 -49 92t-109 2l-38 43l90 109q-264 27 -463 233.5t-199 499.5q0 158 63.5 297t165 234t232.5 150.5t266 55.5q262 0 471 -170l-63 -72q-172 147 -400 148 q-246 0 -441.5 -184.5t-195.5 -459t196 -458.5t441 -184q229 0 402 147l65 -67q-201 -166 -448 -174z" glyph-name="Ccedilla" horiz-adv-x="1366" unicode="Ç"/><glyph d="M580 1559h-66l-182 325h112zM219 92h725v-92h-821v1434h803v-93h-707v-575h559v-92h-559v-582z" glyph-name="Egrave" horiz-adv-x="1036" unicode="È"/><glyph d="M756 1884l-183 -325h-65l135 325h113zM219 92h725v-92h-821v1434h803v-93h-707v-575h559v-92h-559v-582z" glyph-name="Eacute" horiz-adv-x="1036" unicode="É"/><glyph d="M539 1853l-240 -264l-41 39l250 307h63l250 -307l-41 -39zM219 92h725v-92h-821v1434h803v-93h-707v-575h559v-92h-559v-582z" glyph-name="Ecircumflex" horiz-adv-x="1036" unicode="Ê"/><glyph d="M369 1804v-96h-95v96h95zM805 1804v-96h-96v96h96zM219 92h725v-92h-821v1434h803v-93h-707v-575h559v-92h-559v-582z" glyph-name="Edieresis" horiz-adv-x="1036" unicode="Ë"/><glyph d="M-35 1884h113l135 -325h-66zM219 1434v-1434h-96v1434h96z" glyph-name="Igrave" unicode="Ì"/><glyph d="M389 1884l-182 -325h-66l135 325h113zM219 1434v-1434h-96v1434h96z" glyph-name="Iacute" unicode="Í"/><glyph d="M205 1935l250 -307l-41 -39l-242 264l-240 -264l-41 39l250 307h64zM219 1434v-1434h-96v1434h96z" glyph-name="Icircumflex" unicode="Î"/><glyph d="M2 1804v-96h-94v96h94zM438 1804v-96h-96v96h96zM219 1434v-1434h-96v1434h96z" glyph-name="Idieresis" unicode="Ï"/><glyph d="M512 1434q315 0 519 -207t204 -514q0 -301 -205 -507t-518 -206h-377v680h-121v76h121v678h377zM510 92q281 0 455 178.5t174 442.5q0 270 -174 449t-455 179h-279v-585h418v-76h-418v-588h279z" glyph-name="Eth" horiz-adv-x="1314" unicode="Ð"/><glyph d="M537 1841q55 0 101 -21.5t73.5 -47t64.5 -47t72 -21.5q61 0 92 30.5t31 67.5h59q0 -88 -53 -134t-127 -46q-68 0 -120 37t-99 72.5t-99 35.5q-61 0 -91.5 -35.5t-28.5 -74.5h-58q0 86 56.5 135t126.5 49zM123 0v1434h96l926 -1262h14v1262h96v-1434h-96l-926 1262h-14 v-1262h-96z" glyph-name="Ntilde" horiz-adv-x="1378" unicode="Ñ"/><glyph d="M612 1884h113l135 -325h-65zM819 1454q180 0 346 -91t273.5 -264t107.5 -382t-107.5 -382t-273.5 -264t-346 -91q-182 0 -347 91t-272.5 263t-107.5 383t107.5 383t272.5 263t347 91zM819.5 74q241.5 0 435 183t193.5 459.5t-193.5 460t-435 183.5t-435.5 -183.5 t-194 -460t194 -459.5t435.5 -183z" glyph-name="Ograve" horiz-adv-x="1638" unicode="Ò"/><glyph d="M1036 1884l-182 -325h-66l136 325h112zM819 1454q180 0 346 -91t273.5 -264t107.5 -382t-107.5 -382t-273.5 -264t-346 -91q-182 0 -347 91t-272.5 263t-107.5 383t107.5 383t272.5 263t347 91zM819.5 74q241.5 0 435 183t193.5 459.5t-193.5 460t-435 183.5 t-435.5 -183.5t-194 -460t194 -459.5t435.5 -183z" glyph-name="Oacute" horiz-adv-x="1638" unicode="Ó"/><glyph d="M852 1935l250 -307l-41 -39l-242 264l-239 -264l-41 39l249 307h64zM819 1454q180 0 346 -91t273.5 -264t107.5 -382t-107.5 -382t-273.5 -264t-346 -91q-182 0 -347 91t-272.5 263t-107.5 383t107.5 383t272.5 263t347 91zM819.5 74q241.5 0 435 183t193.5 459.5 t-193.5 460t-435 183.5t-435.5 -183.5t-194 -460t194 -459.5t435.5 -183z" glyph-name="Ocircumflex" horiz-adv-x="1638" unicode="Ô"/><glyph d="M666 1841q55 0 101 -21.5t73.5 -47t64.5 -47t72 -21.5q61 0 92 30.5t31 67.5h59q0 -88 -53 -134t-127 -46q-53 0 -98 22.5t-72 50t-65.5 50t-81.5 22.5q-61 0 -92 -35.5t-29 -74.5h-58q0 86 56.5 135t126.5 49zM819 1454q180 0 346 -91t273.5 -264t107.5 -382 t-107.5 -382t-273.5 -264t-346 -91q-182 0 -347 91t-272.5 263t-107.5 383t107.5 383t272.5 263t347 91zM819.5 74q241.5 0 435 183t193.5 459.5t-193.5 460t-435 183.5t-435.5 -183.5t-194 -460t194 -459.5t435.5 -183z" glyph-name="Otilde" horiz-adv-x="1638" unicode="Õ"/><glyph d="M649 1804v-96h-94v96h94zM1085 1804v-96h-96v96h96zM819 1454q180 0 346 -91t273.5 -264t107.5 -382t-107.5 -382t-273.5 -264t-346 -91q-182 0 -347 91t-272.5 263t-107.5 383t107.5 383t272.5 263t347 91zM819.5 74q241.5 0 435 183t193.5 459.5t-193.5 460t-435 183.5 t-435.5 -183.5t-194 -460t194 -459.5t435.5 -183z" glyph-name="Odieresis" horiz-adv-x="1638" unicode="Ö"/><glyph d="M608 385l-55 -53l-215 215l-215 -215l-53 53l215 215l-215 215l55 55l215 -215l213 213l53 -53l-213 -213z" glyph-name="multiply" horiz-adv-x="722" unicode="×"/><glyph d="M1180 1352q164 -96 265 -263t101 -372q0 -209 -107.5 -382t-273.5 -264t-346 -91q-139 0 -268 55l-66 -137h-98l84 176q-170 94 -274.5 263t-104.5 380t107.5 383t272.5 263t347 91q141 0 283 -61l63 133h99zM190 717q0 -182 89.5 -327.5t232.5 -229.5l549 1147 q-119 53 -242 53q-242 0 -435.5 -183.5t-193.5 -459.5zM819 74q242 0 435.5 183t193.5 460q0 176 -85 319.5t-224 229.5l-547 -1145q112 -47 227 -47z" glyph-name="Oslash" horiz-adv-x="1638" unicode="Ø"/><glyph d="M416 1884h112l136 -325h-66zM1026 1434h96v-908q0 -260 -139 -403t-360.5 -143t-360.5 143t-139 403v908h96v-906q0 -219 111.5 -336.5t292.5 -117.5q182 0 292.5 117.5t110.5 336.5v906z" glyph-name="Ugrave" horiz-adv-x="1245" unicode="Ù"/><glyph d="M840 1884l-183 -325h-65l135 325h113zM1026 1434h96v-908q0 -260 -139 -403t-360.5 -143t-360.5 143t-139 403v908h96v-906q0 -219 111.5 -336.5t292.5 -117.5q182 0 292.5 117.5t110.5 336.5v906z" glyph-name="Uacute" horiz-adv-x="1245" unicode="Ú"/><glyph d="M655 1935l250 -307l-41 -39l-241 264l-240 -264l-41 39l250 307h63zM1026 1434h96v-908q0 -260 -139 -403t-360.5 -143t-360.5 143t-139 403v908h96v-906q0 -219 111.5 -336.5t292.5 -117.5q182 0 292.5 117.5t110.5 336.5v906z" glyph-name="Ucircumflex" horiz-adv-x="1245" unicode="Û"/><glyph d="M453 1804v-96h-95v96h95zM889 1804v-96h-96v96h96zM1026 1434h96v-908q0 -260 -139 -403t-360.5 -143t-360.5 143t-139 403v908h96v-906q0 -219 111.5 -336.5t292.5 -117.5q182 0 292.5 117.5t110.5 336.5v906z" glyph-name="Udieresis" horiz-adv-x="1245" unicode="Ü"/><glyph d="M844 1884l-182 -325h-66l135 325h113zM1204 1434l-528 -777v-657h-96v657l-529 777h113l463 -684l465 684h112z" glyph-name="Yacute" horiz-adv-x="1255" unicode="Ý"/><glyph d="M592 1157q236 0 375 -119.5t139 -316.5q0 -207 -137.5 -321.5t-376.5 -114.5h-373v-285h-96v1434h96v-277h373zM596 373q203 0 308.5 88t105.5 260q0 160 -108.5 255t-305.5 95h-377v-698h377z" glyph-name="Thorn" horiz-adv-x="1177" unicode="Þ"/><glyph d="M565 1434q207 0 332 -93.5t125 -250.5q0 -244 -223 -304q154 -35 229.5 -133t75.5 -237q0 -209 -136.5 -312.5t-389.5 -103.5h-197v88h201q426 0 426 328q0 156 -113 240.5t-332 84.5h-182v84h182q180 0 271.5 60.5t91.5 204.5q0 123 -97.5 190.5t-263.5 67.5 q-348 0 -348 -279v-1069h-94v1069q0 166 113.5 265.5t328.5 99.5z" glyph-name="germandbls" horiz-adv-x="1175" unicode="ß"/><glyph d="M408 1516h112l135 -326h-65zM608 -20q-205 0 -370.5 148t-165.5 404t165.5 404.5t370.5 148.5q143 0 262 -73.5t170 -190.5h11v244h94v-1065h-94v244h-11q-51 -117 -170 -190.5t-262 -73.5zM612 66q170 0 306.5 123.5t136.5 343t-136.5 343t-306.5 123.5 q-172 0 -309 -123.5t-137 -343t137 -343t309 -123.5z" glyph-name="agrave" horiz-adv-x="1269" unicode="à"/><glyph d="M831 1516l-182 -326h-65l135 326h112zM608 -20q-205 0 -370.5 148t-165.5 404t165.5 404.5t370.5 148.5q143 0 262 -73.5t170 -190.5h11v244h94v-1065h-94v244h-11q-51 -117 -170 -190.5t-262 -73.5zM612 66q170 0 306.5 123.5t136.5 343t-136.5 343t-306.5 123.5 q-172 0 -309 -123.5t-137 -343t137 -343t309 -123.5z" glyph-name="aacute" horiz-adv-x="1269" unicode="á"/><glyph d="M647 1567l250 -307l-41 -39l-242 264l-239 -264l-41 39l250 307h63zM608 -20q-205 0 -370.5 148t-165.5 404t165.5 404.5t370.5 148.5q143 0 262 -73.5t170 -190.5h11v244h94v-1065h-94v244h-11q-51 -117 -170 -190.5t-262 -73.5zM612 66q170 0 306.5 123.5t136.5 343 t-136.5 343t-306.5 123.5q-172 0 -309 -123.5t-137 -343t137 -343t309 -123.5z" glyph-name="acircumflex" horiz-adv-x="1269" unicode="â"/><glyph d="M461 1473q55 0 101 -21.5t74 -47.5t64.5 -47.5t71.5 -21.5q61 0 92 31t31 68h59q0 -88 -53 -134.5t-127 -46.5q-53 0 -98 22.5t-71.5 50.5t-65.5 50.5t-82 22.5q-61 0 -92 -36t-29 -75h-57q0 86 56 135.5t126 49.5zM608 -20q-205 0 -370.5 148t-165.5 404t165.5 404.5 t370.5 148.5q143 0 262 -73.5t170 -190.5h11v244h94v-1065h-94v244h-11q-51 -117 -170 -190.5t-262 -73.5zM612 66q170 0 306.5 123.5t136.5 343t-136.5 343t-306.5 123.5q-172 0 -309 -123.5t-137 -343t137 -343t309 -123.5z" glyph-name="atilde" horiz-adv-x="1269" unicode="ã"/><glyph d="M444 1436v-97h-94v97h94zM881 1436v-97h-97v97h97zM608 -20q-205 0 -370.5 148t-165.5 404t165.5 404.5t370.5 148.5q143 0 262 -73.5t170 -190.5h11v244h94v-1065h-94v244h-11q-51 -117 -170 -190.5t-262 -73.5zM612 66q170 0 306.5 123.5t136.5 343t-136.5 343 t-306.5 123.5q-172 0 -309 -123.5t-137 -343t137 -343t309 -123.5z" glyph-name="adieresis" horiz-adv-x="1269" unicode="ä"/><glyph d="M616 1550q66 0 113 -47t47 -110q0 -66 -47 -113t-113 -47q-70 0 -116.5 47t-46.5 112.5t46.5 111.5t116.5 46zM614.5 1479q-34.5 0 -61.5 -26t-27 -60q0 -37 27 -62.5t61.5 -25.5t60 25.5t25.5 62.5q0 35 -25.5 60.5t-60 25.5zM608 -20q-205 0 -370.5 148t-165.5 404 t165.5 404.5t370.5 148.5q143 0 262 -73.5t170 -190.5h11v244h94v-1065h-94v244h-11q-51 -117 -170 -190.5t-262 -73.5zM612 66q170 0 306.5 123.5t136.5 343t-136.5 343t-306.5 123.5q-172 0 -309 -123.5t-137 -343t137 -343t309 -123.5z" glyph-name="aring" horiz-adv-x="1269" unicode="å"/><glyph d="M1587 1085q94 0 188.5 -36.5t176.5 -106.5t127 -187.5t35 -262.5h-963q12 -203 146.5 -314.5t312.5 -111.5q236 0 354 145l61 -53q-137 -178 -415 -178q-139 0 -264 60t-201 175v-215h-94v244h-11q-51 -117 -169.5 -190.5t-262.5 -73.5q-205 0 -370.5 148t-165.5 404 t165.5 404.5t370.5 148.5q143 0 262 -73.5t170 -190.5h11v244h94v-217q76 115 196.5 176t245.5 61zM612 66q170 0 306.5 123.5t136.5 343t-136.5 343t-306.5 123.5q-172 0 -309 -123.5t-137 -343t137 -343t309 -123.5zM1587 999q-156 0 -290 -112.5t-146 -313.5h877 q-4 135 -77 235.5t-168.5 145.5t-195.5 45z" glyph-name="ae" horiz-adv-x="2187" unicode="æ"/><glyph d="M614 66q119 0 216.5 53t152.5 153l82 -30q-61 -119 -172 -186.5t-246 -75.5l-74 -76q72 2 125.5 -44t53.5 -122q0 -94 -90.5 -142.5t-215.5 -25.5l21 49q86 -12 140.5 26t54.5 93q0 59 -49.5 92t-108.5 2l-39 43l90 109q-193 23 -338 167t-145 379q0 174 86 305.5 t206.5 190.5t249.5 59q145 0 265 -67.5t186 -194.5l-82 -30q-55 100 -152.5 153t-216.5 53q-170 0 -309 -123.5t-139 -345.5q0 -217 139 -340.5t309 -123.5z" glyph-name="ccedilla" horiz-adv-x="1126" unicode="ç"/><glyph d="M645 1190h-65l-183 326h113zM604 1085q94 0 188.5 -36.5t176.5 -106.5t127 -187.5t34 -262.5h-962q12 -203 146.5 -314.5t312.5 -111.5q236 0 354 145l61 -53q-137 -178 -415 -178q-223 0 -389 146t-166 406q0 174 85 304.5t202.5 189.5t244.5 59zM604 999 q-156 0 -290 -112.5t-146 -313.5h876q-4 135 -76.5 235.5t-168 145.5t-195.5 45z" glyph-name="egrave" horiz-adv-x="1204" unicode="è"/><glyph d="M821 1516l-182 -326h-66l136 326h112zM604 1085q94 0 188.5 -36.5t176.5 -106.5t127 -187.5t34 -262.5h-962q12 -203 146.5 -314.5t312.5 -111.5q236 0 354 145l61 -53q-137 -178 -415 -178q-223 0 -389 146t-166 406q0 174 85 304.5t202.5 189.5t244.5 59zM604 999 q-156 0 -290 -112.5t-146 -313.5h876q-4 135 -76.5 235.5t-168 145.5t-195.5 45z" glyph-name="eacute" horiz-adv-x="1204" unicode="é"/><glyph d="M604 1485l-239 -264l-41 39l249 307h64l250 -307l-41 -39zM604 1085q94 0 188.5 -36.5t176.5 -106.5t127 -187.5t34 -262.5h-962q12 -203 146.5 -314.5t312.5 -111.5q236 0 354 145l61 -53q-137 -178 -415 -178q-223 0 -389 146t-166 406q0 174 85 304.5t202.5 189.5 t244.5 59zM604 999q-156 0 -290 -112.5t-146 -313.5h876q-4 135 -76.5 235.5t-168 145.5t-195.5 45z" glyph-name="ecircumflex" horiz-adv-x="1204" unicode="ê"/><glyph d="M434 1436v-97h-94v97h94zM870 1436v-97h-96v97h96zM604 1085q94 0 188.5 -36.5t176.5 -106.5t127 -187.5t34 -262.5h-962q12 -203 146.5 -314.5t312.5 -111.5q236 0 354 145l61 -53q-137 -178 -415 -178q-223 0 -389 146t-166 406q0 174 85 304.5t202.5 189.5t244.5 59z M604 999q-156 0 -290 -112.5t-146 -313.5h876q-4 135 -76.5 235.5t-168 145.5t-195.5 45z" glyph-name="edieresis" horiz-adv-x="1204" unicode="ë"/><glyph d="M-35 1516h113l135 -326h-66zM217 1065v-1065h-94v1065h94z" glyph-name="igrave" unicode="ì"/><glyph d="M389 1516l-182 -326h-66l135 326h113zM217 1065v-1065h-94v1065h94z" glyph-name="iacute" unicode="í"/><glyph d="M205 1567l250 -307l-41 -39l-242 264l-240 -264l-41 39l250 307h64zM217 1065v-1065h-94v1065h94z" glyph-name="icircumflex" unicode="î"/><glyph d="M2 1436v-97h-94v97h94zM438 1436v-97h-96v97h96zM217 1065v-1065h-94v1065h94z" glyph-name="idieresis" unicode="ï"/><glyph d="M782 1204q141 -184 215 -343t74 -345q0 -250 -145.5 -393t-364.5 -143q-205 0 -347 143t-142 393q0 258 131 403.5t358 145.5q195 0 293 -104l-174 229l-215 -29v62l172 24l-141 187h108l135 -174l174 24v-61zM561 68q174 0 294 115.5t120 332.5q0 233 -108.5 347 t-305.5 114q-186 0 -289.5 -113.5t-103.5 -347.5q0 -215 115.5 -331.5t277.5 -116.5z" glyph-name="eth" horiz-adv-x="1193" unicode="ð"/><glyph d="M436 1473q55 0 101.5 -21.5t74 -47.5t64.5 -47.5t72 -21.5q61 0 91.5 31t30.5 68h60q0 -88 -53.5 -134.5t-126.5 -46.5q-53 0 -98.5 22.5t-72 50.5t-65.5 50.5t-82 22.5q-61 0 -92 -36t-29 -75h-57q0 86 56 135.5t126 49.5zM627 1085q174 0 291.5 -116.5t117.5 -345.5 v-623h-96v627q0 180 -93 276t-235 96q-166 0 -267 -106.5t-128 -230.5v-662h-94v1065h94v-258q10 31 36 72t73 90t127 82.5t174 33.5z" glyph-name="ntilde" horiz-adv-x="1138" unicode="ñ"/><glyph d="M406 1516h112l135 -326h-65zM612 1085q129 0 249 -59t206 -189t86 -304.5t-86 -304.5t-206 -189t-249 -59t-248.5 59t-205.5 189t-86 304.5t86 304.5t205.5 189t248.5 59zM612 999q-168 0 -307 -123.5t-139 -343t139 -343t307 -123.5t306.5 123.5t138.5 343t-138.5 343 t-306.5 123.5z" glyph-name="ograve" horiz-adv-x="1224" unicode="ò"/><glyph d="M829 1516l-182 -326h-65l135 326h112zM612 1085q129 0 249 -59t206 -189t86 -304.5t-86 -304.5t-206 -189t-249 -59t-248.5 59t-205.5 189t-86 304.5t86 304.5t205.5 189t248.5 59zM612 999q-168 0 -307 -123.5t-139 -343t139 -343t307 -123.5t306.5 123.5t138.5 343 t-138.5 343t-306.5 123.5z" glyph-name="oacute" horiz-adv-x="1224" unicode="ó"/><glyph d="M645 1567l250 -307l-41 -39l-242 264l-239 -264l-41 39l250 307h63zM612 1085q129 0 249 -59t206 -189t86 -304.5t-86 -304.5t-206 -189t-249 -59t-248.5 59t-205.5 189t-86 304.5t86 304.5t205.5 189t248.5 59zM612 999q-168 0 -307 -123.5t-139 -343t139 -343 t307 -123.5t306.5 123.5t138.5 343t-138.5 343t-306.5 123.5z" glyph-name="ocircumflex" horiz-adv-x="1224" unicode="ô"/><glyph d="M459 1473q55 0 101 -21.5t74 -47.5t64.5 -47.5t71.5 -21.5q61 0 92 31t31 68h59q0 -88 -53 -134.5t-127 -46.5q-68 0 -120 37t-99 73t-98 36q-61 0 -92 -36t-29 -75h-58q0 86 56.5 135.5t126.5 49.5zM612 1085q129 0 249 -59t206 -189t86 -304.5t-86 -304.5t-206 -189 t-249 -59t-248.5 59t-205.5 189t-86 304.5t86 304.5t205.5 189t248.5 59zM612 999q-168 0 -307 -123.5t-139 -343t139 -343t307 -123.5t306.5 123.5t138.5 343t-138.5 343t-306.5 123.5z" glyph-name="otilde" horiz-adv-x="1224" unicode="õ"/><glyph d="M442 1436v-97h-94v97h94zM879 1436v-97h-97v97h97zM612 1085q129 0 249 -59t206 -189t86 -304.5t-86 -304.5t-206 -189t-249 -59t-248.5 59t-205.5 189t-86 304.5t86 304.5t205.5 189t248.5 59zM612 999q-168 0 -307 -123.5t-139 -343t139 -343t307 -123.5t306.5 123.5 t138.5 343t-138.5 343t-306.5 123.5z" glyph-name="odieresis" horiz-adv-x="1224" unicode="ö"/><glyph d="M409.5 784q-28.5 0 -45 17.5t-16.5 44t16.5 45t45 18.5t46 -18.5t17.5 -45t-17.5 -44t-46 -17.5zM778 616v-75h-686v75h686zM409.5 201q-28.5 0 -45 17.5t-16.5 44t16.5 45t45 18.5t46 -18.5t17.5 -45t-17.5 -44t-46 -17.5z" glyph-name="divide" horiz-adv-x="870" unicode="÷"/><glyph d="M883 1012q121 -70 195.5 -192t74.5 -288q0 -174 -86 -304t-206 -189t-249 -59q-100 0 -204 40l-60 -122h-92l78 161q-119 70 -190.5 190t-71.5 283q0 174 86 304.5t205.5 189.5t248.5 59q100 0 195 -36l65 135h93zM166 532q0 -264 205 -395l399 832q-80 31 -158 30 q-168 0 -307 -124t-139 -343zM612 66q168 0 306.5 123.5t138.5 342.5q0 270 -213 400l-400 -832q78 -34 168 -34z" glyph-name="oslash" horiz-adv-x="1224" unicode="ø"/><glyph d="M352 1516h113l135 -326h-65zM500 -20q-174 0 -292 116.5t-118 345.5v623h96v-627q0 -180 93.5 -276t234.5 -96q166 0 267.5 106.5t127.5 230.5v662h95v-1065h-95v258q-10 -31 -35.5 -72t-72.5 -90t-127 -82.5t-174 -33.5z" glyph-name="ugrave" horiz-adv-x="1126" unicode="ù"/><glyph d="M776 1516l-182 -326h-66l136 326h112zM500 -20q-174 0 -292 116.5t-118 345.5v623h96v-627q0 -180 93.5 -276t234.5 -96q166 0 267.5 106.5t127.5 230.5v662h95v-1065h-95v258q-10 -31 -35.5 -72t-72.5 -90t-127 -82.5t-174 -33.5z" glyph-name="uacute" horiz-adv-x="1126" unicode="ú"/><glyph d="M592 1567l250 -307l-41 -39l-242 264l-240 -264l-40 39l249 307h64zM500 -20q-174 0 -292 116.5t-118 345.5v623h96v-627q0 -180 93.5 -276t234.5 -96q166 0 267.5 106.5t127.5 230.5v662h95v-1065h-95v258q-10 -31 -35.5 -72t-72.5 -90t-127 -82.5t-174 -33.5z" glyph-name="ucircumflex" horiz-adv-x="1126" unicode="û"/><glyph d="M389 1436v-97h-94v97h94zM825 1436v-97h-96v97h96zM500 -20q-174 0 -292 116.5t-118 345.5v623h96v-627q0 -180 93.5 -276t234.5 -96q166 0 267.5 106.5t127.5 230.5v662h95v-1065h-95v258q-10 -31 -35.5 -72t-72.5 -90t-127 -82.5t-174 -33.5z" glyph-name="udieresis" horiz-adv-x="1126" unicode="ü"/><glyph d="M776 1516l-182 -326h-66l136 326h112zM956 1065h101l-641 -1454h-97l187 420l-455 1034h101l403 -926z" glyph-name="yacute" horiz-adv-x="1107" unicode="ý"/><glyph d="M662 1085q205 0 370.5 -148.5t165.5 -404.5t-166 -404t-370 -148q-143 0 -262 73.5t-171 190.5h-10v-244h-2v-389h-94v690h2v463h-2v684h94v-383h2v-244h10q51 117 170.5 190.5t262.5 73.5zM657 66q172 0 309.5 123.5t137.5 343t-137.5 343t-309.5 123.5 q-170 0 -306 -123.5t-136 -343t136 -343t306 -123.5z" glyph-name="thorn" horiz-adv-x="1263" unicode="þ"/><glyph d="M389 1436v-97h-94v97h94zM825 1436v-97h-96v97h96zM956 1065h101l-641 -1454h-97l187 420l-455 1034h101l403 -926z" glyph-name="ydieresis" horiz-adv-x="1107" unicode="ÿ"/><glyph d="M1075 1802v-84h-741v84h741zM1266 0l-168 385h-787l-168 -385h-102l625 1434h75l627 -1434h-102zM346 469h717l-358 823z" glyph-name="Amacron" horiz-adv-x="1409" unicode="Ā"/><glyph d="M985 1434v-84h-741v84h741zM608 -20q-205 0 -370.5 148t-165.5 404t165.5 404.5t370.5 148.5q143 0 262 -73.5t170 -190.5h11v244h94v-1065h-94v244h-11q-51 -117 -170 -190.5t-262 -73.5zM612 66q170 0 306.5 123.5t136.5 343t-136.5 343t-306.5 123.5 q-172 0 -309 -123.5t-137 -343t137 -343t309 -123.5z" glyph-name="amacron" horiz-adv-x="1269" unicode="ā"/><glyph d="M705 1593q-131 0 -203 82t-76 189h68q12 -78 65 -134.5t146 -56.5q94 0 146 55.5t64 135.5h70q-6 -109 -76.5 -190t-203.5 -81zM1266 0l-168 385h-787l-168 -385h-102l625 1434h75l627 -1434h-102zM346 469h717l-358 823z" glyph-name="Abreve" horiz-adv-x="1409" unicode="Ă"/><glyph d="M895 1495q-6 -109 -76.5 -189.5t-204.5 -80.5q-131 0 -202.5 82t-75.5 188h67q12 -78 65.5 -134t145.5 -56q94 0 146.5 55t64.5 135h70zM608 -20q-205 0 -370.5 148t-165.5 404t165.5 404.5t370.5 148.5q143 0 262 -73.5t170 -190.5h11v244h94v-1065h-94v244h-11 q-51 -117 -170 -190.5t-262 -73.5zM612 66q170 0 306.5 123.5t136.5 343t-136.5 343t-306.5 123.5q-172 0 -309 -123.5t-137 -343t137 -343t309 -123.5z" glyph-name="abreve" horiz-adv-x="1269" unicode="ă"/><glyph d="M1118 -250q0 -61 52.5 -90t119.5 -10l23 -56q-35 -16 -83 -17t-93 13.5t-77 55.5t-32 102q0 84 74 149.5t186 102.5h-22l-168 385h-787l-168 -385h-102l625 1434h75l627 -1434h23q-145 -59 -209 -117.5t-64 -132.5zM346 469h717l-358 823z" glyph-name="Aogonek" horiz-adv-x="1431" unicode="Ą"/><glyph d="M1051 1065h94v-1065h-6q-147 -55 -203.5 -110.5t-56.5 -127.5q0 -68 49 -97.5t119 -12.5l22 -58q-35 -16 -83 -17t-93 13.5t-77 55.5t-32 102q0 88 72 156.5t188 95.5h7v244h-11q-51 -117 -169.5 -190.5t-262.5 -73.5q-205 0 -370.5 148t-165.5 404t165.5 404.5 t370.5 148.5q143 0 262 -73.5t170 -190.5h11v244zM612 66q170 0 306.5 123.5t136.5 343t-136.5 343t-306.5 123.5q-172 0 -309 -123.5t-137 -343t137 -343t309 -123.5z" glyph-name="aogonek" horiz-adv-x="1263" unicode="ą"/><glyph d="M963 1884l-183 -325h-65l135 325h113zM1294 154q-209 -174 -475 -174q-135 0 -266 55t-232.5 150.5t-165 234.5t-63.5 296.5t63.5 297t165 234.5t232.5 150.5t266 55.5q262 0 471 -170l-63 -72q-172 147 -400 148q-246 0 -441.5 -184.5t-195.5 -459t196 -458.5t441 -184 q229 0 402 147z" glyph-name="Cacute" horiz-adv-x="1366" unicode="Ć"/><glyph d="M815 1516l-182 -326h-66l135 326h113zM614 1085q145 0 265 -67.5t186 -194.5l-82 -30q-55 100 -152.5 153t-216.5 53q-170 0 -309 -123.5t-139 -345.5q0 -217 139 -340.5t309 -123.5q119 0 216.5 53t152.5 153l82 -30q-66 -127 -185.5 -194.5t-265.5 -67.5 q-205 0 -373.5 148t-168.5 402q0 174 86 305.5t206.5 190.5t249.5 59z" glyph-name="cacute" horiz-adv-x="1126" unicode="ć"/><glyph d="M791 1804v-96h-95v96h95zM1294 154q-209 -174 -475 -174q-135 0 -266 55t-232.5 150.5t-165 234.5t-63.5 296.5t63.5 297t165 234.5t232.5 150.5t266 55.5q262 0 471 -170l-63 -72q-172 147 -400 148q-246 0 -441.5 -184.5t-195.5 -459t196 -458.5t441 -184 q229 0 402 147z" glyph-name="Cdotaccent" horiz-adv-x="1366" unicode="Ċ"/><glyph d="M643 1436v-97h-94v97h94zM614 1085q145 0 265 -67.5t186 -194.5l-82 -30q-55 100 -152.5 153t-216.5 53q-170 0 -309 -123.5t-139 -345.5q0 -217 139 -340.5t309 -123.5q119 0 216.5 53t152.5 153l82 -30q-66 -127 -185.5 -194.5t-265.5 -67.5q-205 0 -373.5 148 t-168.5 402q0 174 86 305.5t206.5 190.5t249.5 59z" glyph-name="cdotaccent" horiz-adv-x="1126" unicode="ċ"/><glyph d="M778 1589h-63l-250 307l41 39l239 -264l242 264l41 -39zM1294 154q-209 -174 -475 -174q-135 0 -266 55t-232.5 150.5t-165 234.5t-63.5 296.5t63.5 297t165 234.5t232.5 150.5t266 55.5q262 0 471 -170l-63 -72q-172 147 -400 148q-246 0 -441.5 -184.5t-195.5 -459 t196 -458.5t441 -184q229 0 402 147z" glyph-name="Ccaron" horiz-adv-x="1366" unicode="Č"/><glyph d="M631 1221h-64l-250 307l41 39l240 -264l242 264l41 -39zM614 1085q145 0 265 -67.5t186 -194.5l-82 -30q-55 100 -152.5 153t-216.5 53q-170 0 -309 -123.5t-139 -345.5q0 -217 139 -340.5t309 -123.5q119 0 216.5 53t152.5 153l82 -30q-66 -127 -185.5 -194.5 t-265.5 -67.5q-205 0 -373.5 148t-168.5 402q0 174 86 305.5t206.5 190.5t249.5 59z" glyph-name="ccaron" horiz-adv-x="1126" unicode="č"/><glyph d="M692 1589h-63l-250 307l41 39l239 -264l242 264l41 -39zM500 1434q315 0 519 -207t204 -514q0 -301 -205 -507t-518 -206h-377v1434h377zM498 92q281 0 454.5 178.5t173.5 442.5q0 270 -174 449t-454 179h-279v-1249h279z" glyph-name="Dcaron" horiz-adv-x="1304" unicode="Ď"/><glyph d="M1053 1065v383h94v-684h-2v-764h-94v244h-11q-51 -117 -169.5 -190.5t-262.5 -73.5q-205 0 -370.5 148t-165.5 404t165.5 404.5t370.5 148.5q143 0 262 -73.5t170 -190.5h11v244h2zM1327 1448h113l-183 -326h-65zM612 66q170 0 306.5 123.5t136.5 343t-136.5 343 t-306.5 123.5q-172 0 -309 -123.5t-137 -343t137 -343t309 -123.5z" glyph-name="dcaron" horiz-adv-x="1447" unicode="ď"/><glyph d="M512 1434q315 0 519 -207t204 -514q0 -301 -205 -507t-518 -206h-377v680h-121v76h121v678h377zM510 92q281 0 455 178.5t174 442.5q0 270 -174 449t-455 179h-279v-585h418v-76h-418v-588h279z" glyph-name="Dcroat" horiz-adv-x="1314" unicode="Đ"/><glyph d="M1262 1298v-79h-115v-455h-2v-764h-94v244h-11q-51 -117 -169.5 -190.5t-262.5 -73.5q-205 0 -370.5 148t-165.5 404t165.5 404.5t370.5 148.5q143 0 262 -73.5t170 -190.5h11v244h2v154h-428v79h428v150h94v-150h115zM612 66q170 0 306.5 123.5t136.5 343t-136.5 343 t-306.5 123.5q-172 0 -309 -123.5t-137 -343t137 -343t309 -123.5z" glyph-name="dcroat" horiz-adv-x="1271" unicode="đ"/><glyph d="M909 1802v-84h-741v84h741zM219 92h725v-92h-821v1434h803v-93h-707v-575h559v-92h-559v-582z" glyph-name="Emacron" horiz-adv-x="1036" unicode="Ē"/><glyph d="M975 1434v-84h-742v84h742zM604 1085q94 0 188.5 -36.5t176.5 -106.5t127 -187.5t34 -262.5h-962q12 -203 146.5 -314.5t312.5 -111.5q236 0 354 145l61 -53q-137 -178 -415 -178q-223 0 -389 146t-166 406q0 174 85 304.5t202.5 189.5t244.5 59zM604 999 q-156 0 -290 -112.5t-146 -313.5h876q-4 135 -76.5 235.5t-168 145.5t-195.5 45z" glyph-name="emacron" horiz-adv-x="1204" unicode="ē"/><glyph d="M584 1804v-96h-95v96h95zM219 92h725v-92h-821v1434h803v-93h-707v-575h559v-92h-559v-582z" glyph-name="Edotaccent" horiz-adv-x="1036" unicode="Ė"/><glyph d="M649 1436v-97h-94v97h94zM604 1085q94 0 188.5 -36.5t176.5 -106.5t127 -187.5t34 -262.5h-962q12 -203 146.5 -314.5t312.5 -111.5q236 0 354 145l61 -53q-137 -178 -415 -178q-223 0 -389 146t-166 406q0 174 85 304.5t202.5 189.5t244.5 59zM604 999 q-156 0 -290 -112.5t-146 -313.5h876q-4 135 -76.5 235.5t-168 145.5t-195.5 45z" glyph-name="edotaccent" horiz-adv-x="1204" unicode="ė"/><glyph d="M944 0q-145 -59 -207.5 -117.5t-62.5 -132.5q0 -61 52 -90t120 -10l24 -56q-37 -16 -85 -17t-93 13.5t-76.5 55.5t-31.5 102q0 84 76.5 149.5t191.5 102.5h-729v1434h803v-93h-707v-575h559v-92h-559v-582h725v-92z" glyph-name="Eogonek" horiz-adv-x="1036" unicode="Ę"/><glyph d="M604 1085q94 0 188.5 -36.5t176.5 -106.5t127 -187.5t34 -262.5h-962q12 -203 146.5 -314.5t312.5 -111.5q236 0 354 145l61 -53q-94 -121 -245 -158q-147 -55 -203.5 -110.5t-56.5 -127.5q0 -68 50 -98.5t118 -11.5l24 -58q-37 -16 -85 -17t-93 13.5t-77 55.5t-32 102 q0 74 52.5 135.5t142.5 96.5h-10q-223 0 -389 146t-166 406q0 174 85 304.5t202.5 189.5t244.5 59zM604 999q-156 0 -290 -112.5t-146 -313.5h876q-4 135 -76.5 235.5t-168 145.5t-195.5 45z" glyph-name="eogonek" horiz-adv-x="1204" unicode="ę"/><glyph d="M571 1589h-63l-250 307l41 39l240 -264l241 264l41 -39zM219 92h725v-92h-821v1434h803v-93h-707v-575h559v-92h-559v-582z" glyph-name="Ecaron" horiz-adv-x="1036" unicode="Ě"/><glyph d="M637 1221h-64l-249 307l41 39l239 -264l242 264l41 -39zM604 1085q94 0 188.5 -36.5t176.5 -106.5t127 -187.5t34 -262.5h-962q12 -203 146.5 -314.5t312.5 -111.5q236 0 354 145l61 -53q-137 -178 -415 -178q-223 0 -389 146t-166 406q0 174 85 304.5t202.5 189.5 t244.5 59zM604 999q-156 0 -290 -112.5t-146 -313.5h876q-4 135 -76.5 235.5t-168 145.5t-195.5 45z" glyph-name="ecaron" horiz-adv-x="1204" unicode="ě"/><glyph d="M834 1593q-131 0 -203 82t-76 189h68q12 -78 65 -134.5t146 -56.5q94 0 146 55.5t64 135.5h70q-6 -109 -76.5 -190t-203.5 -81zM1485 698q10 -322 -185.5 -520t-480.5 -198q-186 0 -352 92t-270.5 264t-104.5 381q0 158 63.5 297t165 234t232.5 150.5t266 55.5 q260 0 469 -170l-63 -72q-172 147 -398 148q-246 0 -441.5 -184.5t-195.5 -458.5q0 -276 191.5 -459.5t441.5 -183.5q225 0 386 140t184 396h-463v88h555z" glyph-name="Gbreve" horiz-adv-x="1576" unicode="Ğ"/><glyph d="M616 1225q-131 0 -202.5 82t-75.5 188h68q12 -78 65 -134t145 -56q94 0 146.5 55t64.5 135h70q-6 -109 -77 -189.5t-204 -80.5zM1051 1065h94v-1065q0 -115 -43 -200t-112.5 -132t-143.5 -68.5t-152 -21.5q-233 0 -336 92v88q104 -94 336 -94q150 0 253.5 86t103.5 250 v244h-11q-51 -117 -169.5 -190.5t-262.5 -73.5q-205 0 -370.5 148t-165.5 404t165.5 404.5t370.5 148.5q143 0 262 -73.5t170 -190.5h11v244zM612 66q170 0 306.5 123.5t136.5 343t-136.5 343t-306.5 123.5q-172 0 -309 -123.5t-137 -343t137 -343t309 -123.5z" glyph-name="gbreve" horiz-adv-x="1269" unicode="ğ"/><glyph d="M879 1804v-96h-95v96h95zM1485 698q10 -322 -185.5 -520t-480.5 -198q-186 0 -352 92t-270.5 264t-104.5 381q0 158 63.5 297t165 234t232.5 150.5t266 55.5q260 0 469 -170l-63 -72q-172 147 -398 148q-246 0 -441.5 -184.5t-195.5 -458.5q0 -276 191.5 -459.5 t441.5 -183.5q225 0 386 140t184 396h-463v88h555z" glyph-name="Gdotaccent" horiz-adv-x="1576" unicode="Ġ"/><glyph d="M662 1436v-97h-95v97h95zM1051 1065h94v-1065q0 -115 -43 -200t-112.5 -132t-143.5 -68.5t-152 -21.5q-233 0 -336 92v88q104 -94 336 -94q150 0 253.5 86t103.5 250v244h-11q-51 -117 -169.5 -190.5t-262.5 -73.5q-205 0 -370.5 148t-165.5 404t165.5 404.5t370.5 148.5 q143 0 262 -73.5t170 -190.5h11v244zM612 66q170 0 306.5 123.5t136.5 343t-136.5 343t-306.5 123.5q-172 0 -309 -123.5t-137 -343t137 -343t309 -123.5z" glyph-name="gdotaccent" horiz-adv-x="1269" unicode="ġ"/><glyph d="M1485 698q10 -322 -185.5 -520t-480.5 -198q-186 0 -352 92t-270.5 264t-104.5 381q0 158 63.5 297t165 234t232.5 150.5t266 55.5q260 0 469 -170l-63 -72q-172 147 -398 148q-246 0 -441.5 -184.5t-195.5 -458.5q0 -276 191.5 -459.5t441.5 -183.5q225 0 386 140 t184 396h-463v88h555zM596 -436l145 362h133l-198 -362h-80z" glyph-name="Gcommaaccent" horiz-adv-x="1576" unicode="Ģ"/><glyph d="M848 1638l-199 -362h-80l146 362h133zM1051 1065h94v-1065q0 -115 -43 -200t-112.5 -132t-143.5 -68.5t-152 -21.5q-233 0 -336 92v88q104 -94 336 -94q150 0 253.5 86t103.5 250v244h-11q-51 -117 -169.5 -190.5t-262.5 -73.5q-205 0 -370.5 148t-165.5 404t165.5 404.5 t370.5 148.5q143 0 262 -73.5t170 -190.5h11v244zM612 66q170 0 306.5 123.5t136.5 343t-136.5 343t-306.5 123.5q-172 0 -309 -123.5t-137 -343t137 -343t309 -123.5z" glyph-name="gcommaaccent" horiz-adv-x="1269" unicode="ģ"/><glyph d="M1034 1434h96v-1434h-96v653h-815v-653h-96v1434h96v-332h815v332zM219 745h815v263h-815v-263z" glyph-name="Hbar" horiz-adv-x="1253" unicode="Ħ"/><glyph d="M649 1085q174 0 292 -116.5t118 -345.5v-623h-96v627q0 180 -93.5 276t-234.5 96q-166 0 -267.5 -106.5t-127.5 -230.5v-662h-95v1190h-145v67h145v191h95v-191h245v-67h-245v-383q10 31 35.5 72t72.5 90t127 82.5t174 33.5z" glyph-name="hbar" horiz-adv-x="1161" unicode="ħ"/><glyph d="M543 1802v-84h-742v84h742zM219 1434v-1434h-96v1434h96z" glyph-name="Imacron" unicode="Ī"/><glyph d="M543 1434v-84h-742v84h742zM217 1065v-1065h-94v1065h94z" glyph-name="imacron" unicode="ī"/><glyph d="M217 0q-145 -59 -207.5 -117.5t-62.5 -132.5q0 -61 52 -90t122 -10l22 -56q-35 -16 -83 -17t-94 13.5t-77.5 55.5t-31.5 102q0 84 75.5 149.5t188.5 102.5v1434h96v-1434z" glyph-name="Iogonek" horiz-adv-x="339" unicode="Į"/><glyph d="M199 1436v-97h-95v97h95zM-51 -250q0 -61 52 -90t120 -10l24 -56q-37 -16 -85 -17t-93 13.5t-76.5 55.5t-31.5 102q0 84 76.5 149.5t191.5 102.5h-4v1065h94v-1065h2q-145 -59 -207.5 -117.5t-62.5 -132.5z" glyph-name="iogonek" unicode="į"/><glyph d="M217 1804v-96h-94v96h94zM219 1434v-1434h-96v1434h96z" glyph-name="Idotaccent" unicode="İ"/><glyph d="M217 1065v-1065h-94v1065h94z" glyph-name="dotlessi" unicode="ı"/><glyph d="M219 1434v-1434h-96v1434h96zM1165 1434v-979q0 -246 -107.5 -360.5t-295.5 -114.5q-252 0 -359 194l66 55q98 -158 293 -157q150 0 228.5 90t78.5 297v975h96z" glyph-name="IJ" horiz-adv-x="1288" unicode="Ĳ"/><glyph d="M217 1448v-98h-94v98h94zM635 1448v-98h-96v98h96zM217 1065v-1065h-94v1065h94zM252 -395h-33v88h39q135 0 208 64.5t73 234.5v1073h96v-1075q0 -217 -100.5 -301t-282.5 -84z" glyph-name="ij" horiz-adv-x="757" unicode="ĳ"/><glyph d="M508 764l676 -764h-119l-619 698l-227 -241v-457h-96v1434h96v-848l795 848h123zM446 -436l146 362h133l-199 -362h-80z" glyph-name="Kcommaaccent" horiz-adv-x="1234" unicode="Ķ"/><glyph d="M461 569l571 -569h-121l-510 504l-184 -193v-311h-94v1448h94v-1016l598 633h119zM324 -436l145 362h133l-199 -362h-79z" glyph-name="kcommaaccent" horiz-adv-x="1073" unicode="ķ"/><glyph d="M418 1880l-182 -326h-66l135 326h113zM219 92h688v-92h-784v1434h96v-1342z" glyph-name="Lacute" horiz-adv-x="989" unicode="Ĺ"/><glyph d="M387 1898l-182 -325h-66l135 325h113zM217 1448v-1448h-94v1448h94z" glyph-name="lacute" unicode="ĺ"/><glyph d="M219 92h688v-92h-784v1434h96v-1342zM305 -436l146 362h133l-199 -362h-80z" glyph-name="Lcommaaccent" horiz-adv-x="989" unicode="Ļ"/><glyph d="M217 1448v-1448h-94v1448h94zM-43 -436l145 362h134l-199 -362h-80z" glyph-name="lcommaaccent" unicode="ļ"/><glyph d="M219 92h688v-92h-784v1434h96v-1342zM690 1417l-143 -403h-90l141 403h92z" glyph-name="Lcaron" horiz-adv-x="989" unicode="Ľ"/><glyph d="M217 1448v-1448h-94v1448h94zM377 1030l141 404h92l-143 -404h-90z" glyph-name="lcaron" horiz-adv-x="688" unicode="ľ"/><glyph d="M219 92h688v-92h-784v1434h96v-1342zM592 672q-29 0 -45.5 17.5t-16.5 44t16.5 45t45.5 18.5t46 -18.5t17 -45t-17 -44t-46 -17.5z" glyph-name="Ldot" horiz-adv-x="989" unicode="Ŀ"/><glyph d="M217 1448v-1448h-94v1448h94zM424 668q-29 0 -45.5 17t-16.5 44t16.5 45.5t45.5 18.5t46 -18.5t17 -45.5t-17 -44t-46 -17z" glyph-name="ldot" horiz-adv-x="542" unicode="ŀ"/><glyph d="M334 92h688v-92h-784v504l-125 -131v129l125 131v801h96v-699l309 326h2v-127l-311 -328v-514z" glyph-name="Lslash" horiz-adv-x="1103" unicode="Ł"/><glyph d="M596 1063v-129l-221 -234v-700h-94v602l-220 -231v131l220 231v715h94v-617l219 232h2z" glyph-name="lslash" horiz-adv-x="657" unicode="ł"/><glyph d="M907 1884l-182 -325h-66l136 325h112zM123 0v1434h96l926 -1262h14v1262h96v-1434h-96l-926 1262h-14v-1262h-96z" glyph-name="Nacute" horiz-adv-x="1378" unicode="Ń"/><glyph d="M807 1516l-182 -326h-66l135 326h113zM627 1085q174 0 291.5 -116.5t117.5 -345.5v-623h-96v627q0 180 -93 276t-235 96q-166 0 -267 -106.5t-128 -230.5v-662h-94v1065h94v-258q10 31 36 72t73 90t127 82.5t174 33.5z" glyph-name="nacute" horiz-adv-x="1138" unicode="ń"/><glyph d="M123 0v1434h96l926 -1262h14v1262h96v-1434h-96l-926 1262h-14v-1262h-96zM477 -436l146 362h133l-199 -362h-80z" glyph-name="Ncommaaccent" horiz-adv-x="1378" unicode="Ņ"/><glyph d="M627 1085q174 0 291.5 -116.5t117.5 -345.5v-623h-96v627q0 180 -93 276t-235 96q-166 0 -267 -106.5t-128 -230.5v-662h-94v1065h94v-258q10 31 36 72t73 90t127 82.5t174 33.5zM377 -436l145 362h133l-198 -362h-80z" glyph-name="ncommaaccent" horiz-adv-x="1138" unicode="ņ"/><glyph d="M723 1589h-64l-249 307l41 39l239 -264l242 264l41 -39zM123 0v1434h96l926 -1262h14v1262h96v-1434h-96l-926 1262h-14v-1262h-96z" glyph-name="Ncaron" horiz-adv-x="1378" unicode="Ň"/><glyph d="M623 1221h-64l-250 307l41 39l240 -264l241 264l41 -39zM627 1085q174 0 291.5 -116.5t117.5 -345.5v-623h-96v627q0 180 -93 276t-235 96q-166 0 -267 -106.5t-128 -230.5v-662h-94v1065h94v-258q10 31 36 72t73 90t127 82.5t174 33.5z" glyph-name="ncaron" horiz-adv-x="1138" unicode="ň"/><glyph d="M1157 1434h94v-1385q0 -246 -107.5 -360.5t-295.5 -114.5q-252 0 -359 195l66 55q98 -158 293 -158q147 0 225 86t82 281l-936 1218v-1251h-96v1434h74l958 -1256v850h2v406z" glyph-name="Eng" horiz-adv-x="1374" unicode="Ŋ"/><glyph d="M627 1085q174 0 291.5 -116.5t117.5 -345.5v-633q0 -217 -100 -301t-283 -84h-32v88h38q135 0 208 64.5t73 234.5v635q0 180 -93 276t-235 96q-166 0 -267 -106.5t-128 -230.5v-662h-94v1065h94v-258q10 31 36 72t73 90t127 82.5t174 33.5z" glyph-name="eng" horiz-adv-x="1138" unicode="ŋ"/><glyph d="M1190 1802v-84h-741v84h741zM819 1454q180 0 346 -91t273.5 -264t107.5 -382t-107.5 -382t-273.5 -264t-346 -91q-182 0 -347 91t-272.5 263t-107.5 383t107.5 383t272.5 263t347 91zM819.5 74q241.5 0 435 183t193.5 459.5t-193.5 460t-435 183.5t-435.5 -183.5 t-194 -460t194 -459.5t435.5 -183z" glyph-name="Omacron" horiz-adv-x="1638" unicode="Ō"/><glyph d="M983 1434v-84h-741v84h741zM612 1085q129 0 249 -59t206 -189t86 -304.5t-86 -304.5t-206 -189t-249 -59t-248.5 59t-205.5 189t-86 304.5t86 304.5t205.5 189t248.5 59zM612 999q-168 0 -307 -123.5t-139 -343t139 -343t307 -123.5t306.5 123.5t138.5 343t-138.5 343 t-306.5 123.5z" glyph-name="omacron" horiz-adv-x="1224" unicode="ō"/><glyph d="M870 1884l-182 -325h-65l135 325h112zM1141 1884l-183 -325h-65l135 325h113zM819 1454q180 0 346 -91t273.5 -264t107.5 -382t-107.5 -382t-273.5 -264t-346 -91q-182 0 -347 91t-272.5 263t-107.5 383t107.5 383t272.5 263t347 91zM819.5 74q241.5 0 435 183 t193.5 459.5t-193.5 460t-435 183.5t-435.5 -183.5t-194 -460t194 -459.5t435.5 -183z" glyph-name="Ohungarumlaut" horiz-adv-x="1638" unicode="Ő"/><glyph d="M664 1516l-183 -326h-65l135 326h113zM934 1516l-182 -326h-66l135 326h113zM612 1085q129 0 249 -59t206 -189t86 -304.5t-86 -304.5t-206 -189t-249 -59t-248.5 59t-205.5 189t-86 304.5t86 304.5t205.5 189t248.5 59zM612 999q-168 0 -307 -123.5t-139 -343t139 -343 t307 -123.5t306.5 123.5t138.5 343t-138.5 343t-306.5 123.5z" glyph-name="ohungarumlaut" horiz-adv-x="1224" unicode="ő"/><glyph d="M1538 92h725v-92h-821v340q-100 -166 -270.5 -263t-352.5 -97t-347 91t-272.5 263t-107.5 383t107.5 383t272.5 263t347 91t352 -97t271 -263v340h803v-93h-707v-514q0 -6 2 -19t3 -23.5t1 -18.5h553v-92h-553q0 -35 -6 -68v-514zM819 74q219 0 404.5 154.5t218.5 398.5 v180q-33 244 -218.5 398.5t-404.5 154.5q-242 0 -435.5 -183.5t-193.5 -460t193.5 -459.5t435.5 -183z" glyph-name="OE" horiz-adv-x="2355" unicode="Œ"/><glyph d="M2114 492h-963v-11q18 -199 150.5 -307t308.5 -108q236 0 354 145l61 -53q-137 -178 -415 -178q-162 0 -301.5 80.5t-206.5 230.5q-68 -147 -206 -229t-284 -82q-129 0 -248.5 59t-205.5 189t-86 304.5t86 304.5t205.5 189t248.5 59q145 0 284.5 -81.5t207.5 -231.5 q66 150 202 231.5t281 81.5q94 0 188.5 -36.5t176.5 -106.5t127 -187.5t35 -262.5zM612 66q160 0 295 113.5t148 316.5v36v37q-12 203 -147.5 316.5t-295.5 113.5q-168 0 -307 -123.5t-139 -343t139 -343t307 -123.5zM1587 999q-154 0 -287 -109.5t-149 -305.5v-11h877 q-4 135 -77 235.5t-168.5 145.5t-195.5 45z" glyph-name="oe" horiz-adv-x="2189" unicode="œ"/><glyph d="M817 1884l-182 -325h-66l136 325h112zM1133 0h-111l-399 541q-16 -2 -54 -2h-350v-539h-96v1434h446q233 0 365.5 -127t132.5 -320q0 -164 -90 -279.5t-256 -152.5zM219 629h354q182 0 290 96t108 262t-107.5 260t-290.5 94h-354v-712z" glyph-name="Racute" horiz-adv-x="1193" unicode="Ŕ"/><glyph d="M584 1516l-183 -326h-65l135 326h113zM629 1081q27 0 37 -2v-88q-12 2 -37 2q-158 0 -271.5 -108.5t-140.5 -298.5v-586h-94v1065h94v-303q20 127 135 223t277 96z" glyph-name="racute" horiz-adv-x="727" unicode="ŕ"/><glyph d="M721 555l412 -555h-111l-399 541q-16 -2 -54 -2h-350v-539h-96v1434h446q233 0 365.5 -127t132.5 -320q0 -164 -90 -279.5t-256 -152.5zM219 629h354q182 0 290 96t108 262t-107.5 260t-290.5 94h-354v-712zM385 -436l145 362h134l-199 -362h-80z" glyph-name="Rcommaaccent" horiz-adv-x="1193" unicode="Ŗ"/><glyph d="M629 1081q27 0 37 -2v-88q-12 2 -37 2q-158 0 -271.5 -108.5t-140.5 -298.5v-586h-94v1065h94v-303q20 127 135 223t277 96zM-41 -436l145 362h134l-199 -362h-80z" glyph-name="rcommaaccent" horiz-adv-x="727" unicode="ŗ"/><glyph d="M633 1589h-64l-250 307l41 39l240 -264l242 264l41 -39zM1133 0h-111l-399 541q-16 -2 -54 -2h-350v-539h-96v1434h446q233 0 365.5 -127t132.5 -320q0 -164 -90 -279.5t-256 -152.5zM219 629h354q182 0 290 96t108 262t-107.5 260t-290.5 94h-354v-712z" glyph-name="Rcaron" horiz-adv-x="1193" unicode="Ř"/><glyph d="M399 1221h-63l-250 307l41 39l240 -264l241 264l41 -39zM629 1081q27 0 37 -2v-88q-12 2 -37 2q-158 0 -271.5 -108.5t-140.5 -298.5v-586h-94v1065h94v-303q20 127 135 223t277 96z" glyph-name="rcaron" horiz-adv-x="727" unicode="ř"/><glyph d="M762 1884l-182 -325h-66l135 325h113zM541 1454q158 0 273.5 -87t158.5 -216l-74 -37q-49 115 -140 183.5t-218 68.5q-137 0 -225.5 -71.5t-88.5 -190.5q0 -190 271 -293l106 -41q104 -41 161.5 -68.5t122 -73.5t93.5 -107.5t29 -143.5q0 -176 -134.5 -286.5 t-324.5 -110.5q-172 0 -307 98t-172 252l84 35q37 -133 144.5 -214t250.5 -81q150 0 256 85t106 220q0 53 -18 96t-42 69.5t-75 55.5t-85 43t-103 41l-123 47q-336 133 -336 377q0 154 117 252t293 98z" glyph-name="Sacute" horiz-adv-x="1081" unicode="Ś"/><glyph d="M623 1516l-183 -326h-65l135 326h113zM645 844q-76 160 -246 160q-96 0 -155.5 -51.5t-59.5 -133.5q0 -137 185 -203l92 -32q158 -53 233.5 -121t75.5 -187q0 -141 -106.5 -218.5t-247.5 -77.5q-139 0 -238.5 73.5t-126.5 202.5l80 20q27 -102 105.5 -158.5t181.5 -56.5 q104 0 183 54.5t79 156.5q0 86 -56.5 137.5t-168.5 90.5l-117 41q-244 86 -244 278q0 115 87 190.5t218 75.5q115 0 199 -57t125 -156z" glyph-name="sacute" horiz-adv-x="831" unicode="ś"/><glyph d="M1010 377q0 -164 -119 -272.5t-295 -122.5l-74 -78q72 2 125 -44t53 -122q0 -94 -90 -142.5t-215 -25.5l21 49q86 -12 140 26t54 93q0 59 -49 92t-108 2l-39 43l90 107q-158 14 -279 109t-153 239l84 35q37 -133 144.5 -214t250.5 -81q150 0 256 85t106 220q0 53 -18 96 t-42 69.5t-75 55.5t-85 43t-103 41l-123 47q-336 133 -336 377q0 154 117 252t293 98q158 0 273.5 -87t158.5 -216l-74 -37q-49 115 -140 183.5t-218 68.5q-137 0 -225.5 -71.5t-88.5 -190.5q0 -190 271 -293l106 -41q104 -41 161.5 -68.5t122 -73.5t93.5 -107.5t29 -143.5z " glyph-name="Scedilla" horiz-adv-x="1081" unicode="Ş"/><glyph d="M770 276q0 -135 -97.5 -211.5t-230.5 -84.5l-73 -76q72 2 125 -44t53 -122q0 -94 -90 -142.5t-215 -25.5l20 49q86 -12 140.5 26t54.5 93q0 59 -49.5 92t-108.5 2l-39 43l90 109q-115 16 -194.5 86.5t-104.5 185.5l80 20q27 -102 105.5 -158.5t181.5 -56.5 q104 0 183 54.5t79 156.5q0 86 -56.5 137.5t-168.5 90.5l-117 41q-244 86 -244 278q0 115 87 190.5t218 75.5q115 0 199 -57t125 -156l-78 -28q-76 160 -246 160q-96 0 -155.5 -51.5t-59.5 -133.5q0 -137 185 -203l92 -32q158 -53 233.5 -121t75.5 -187z" glyph-name="scedilla" horiz-adv-x="831" unicode="ş"/><glyph d="M578 1589h-64l-250 307l41 39l240 -264l241 264l41 -39zM541 1454q158 0 273.5 -87t158.5 -216l-74 -37q-49 115 -140 183.5t-218 68.5q-137 0 -225.5 -71.5t-88.5 -190.5q0 -190 271 -293l106 -41q104 -41 161.5 -68.5t122 -73.5t93.5 -107.5t29 -143.5 q0 -176 -134.5 -286.5t-324.5 -110.5q-172 0 -307 98t-172 252l84 35q37 -133 144.5 -214t250.5 -81q150 0 256 85t106 220q0 53 -18 96t-42 69.5t-75 55.5t-85 43t-103 41l-123 47q-336 133 -336 377q0 154 117 252t293 98z" glyph-name="Scaron" horiz-adv-x="1081" unicode="Š"/><glyph d="M438 1221h-63l-250 307l41 39l240 -264l241 264l41 -39zM645 844q-76 160 -246 160q-96 0 -155.5 -51.5t-59.5 -133.5q0 -137 185 -203l92 -32q158 -53 233.5 -121t75.5 -187q0 -141 -106.5 -218.5t-247.5 -77.5q-139 0 -238.5 73.5t-126.5 202.5l80 20 q27 -102 105.5 -158.5t181.5 -56.5q104 0 183 54.5t79 156.5q0 86 -56.5 137.5t-168.5 90.5l-117 41q-244 86 -244 278q0 115 87 190.5t218 75.5q115 0 199 -57t125 -156z" glyph-name="scaron" horiz-adv-x="831" unicode="š"/><glyph d="M600 0h-2l-92 -96q72 2 125 -44t53 -122q0 -94 -90 -142.5t-215 -25.5l20 49q86 -12 140.5 26t54.5 93q0 59 -49 92t-109 2l-39 43l105 125h2v1341h-422v93h940v-93h-422v-1341z" glyph-name="Tcommaaccent" horiz-adv-x="1103" unicode="Ţ"/><glyph d="M524 981h-223v-807q0 -100 98 -100q59 0 121 30v-84q-53 -25 -104 -30l-82 -86q72 2 125 -44t53 -122q0 -94 -90 -142.5t-215 -25.5l20 49q86 -12 140.5 26t54.5 93q0 59 -49 92t-109 2l-39 43l99 119q-117 29 -117 153v834h-146v84h146v272h94v-272h223v-84z" glyph-name="tcommaaccent" horiz-adv-x="606" unicode="ţ"/><glyph d="M584 1589h-64l-250 307l41 39l240 -264l242 264l41 -39zM1022 1434v-93h-422v-1341h-96v1341h-422v93h940z" glyph-name="Tcaron" horiz-adv-x="1103" unicode="Ť"/><glyph d="M647 1518l-182 -326h-66l136 326h112zM301 1337v-272h223v-84h-223v-807q0 -100 98 -100q59 0 121 30v-84q-72 -33 -139 -32q-78 0 -126 40t-48 119v834h-146v84h146v272h94z" glyph-name="tcaron" horiz-adv-x="729" unicode="ť"/><glyph d="M1022 1341h-422v-274h322v-94h-322v-973h-96v973h-322v94h322v274h-422v93h940v-93z" glyph-name="Tbar" horiz-adv-x="1103" unicode="Ŧ"/><glyph d="M524 981h-223v-170h223v-84h-223v-553q0 -100 98 -100q59 0 121 30v-84q-72 -33 -139 -32q-78 0 -126 40t-48 119v580h-146v84h146v170h-146v84h146v272h94v-272h223v-84z" glyph-name="tbar" horiz-adv-x="606" unicode="ŧ"/><glyph d="M469 1841q55 0 101 -21.5t74 -47t64.5 -47t71.5 -21.5q61 0 92 30.5t31 67.5h60q0 -88 -53.5 -134t-127.5 -46q-53 0 -98 22.5t-71.5 50t-65.5 50t-82 22.5q-61 0 -92 -35.5t-29 -74.5h-57q0 86 56 135t126 49zM1026 1434h96v-908q0 -260 -139 -403t-360.5 -143 t-360.5 143t-139 403v908h96v-906q0 -219 111.5 -336.5t292.5 -117.5q182 0 292.5 117.5t110.5 336.5v906z" glyph-name="Utilde" horiz-adv-x="1245" unicode="Ũ"/><glyph d="M406 1473q55 0 101 -21.5t73.5 -47.5t64.5 -47.5t72 -21.5q61 0 92 31t31 68h59q0 -88 -53 -134.5t-127 -46.5q-68 0 -120 37t-99 73t-99 36q-61 0 -91.5 -36t-28.5 -75h-58q0 86 56.5 135.5t126.5 49.5zM500 -20q-174 0 -292 116.5t-118 345.5v623h96v-627 q0 -180 93.5 -276t234.5 -96q166 0 267.5 106.5t127.5 230.5v662h95v-1065h-95v258q-10 -31 -35.5 -72t-72.5 -90t-127 -82.5t-174 -33.5z" glyph-name="utilde" horiz-adv-x="1126" unicode="ũ"/><glyph d="M993 1802v-84h-741v84h741zM1026 1434h96v-908q0 -260 -139 -403t-360.5 -143t-360.5 143t-139 403v908h96v-906q0 -219 111.5 -336.5t292.5 -117.5q182 0 292.5 117.5t110.5 336.5v906z" glyph-name="Umacron" horiz-adv-x="1245" unicode="Ū"/><glyph d="M930 1434v-84h-742v84h742zM500 -20q-174 0 -292 116.5t-118 345.5v623h96v-627q0 -180 93.5 -276t234.5 -96q166 0 267.5 106.5t127.5 230.5v662h95v-1065h-95v258q-10 -31 -35.5 -72t-72.5 -90t-127 -82.5t-174 -33.5z" glyph-name="umacron" horiz-adv-x="1126" unicode="ū"/><glyph d="M903 1864q-6 -109 -76.5 -190t-203.5 -81q-131 0 -203 82t-76 189h68q12 -78 65 -134.5t146 -56.5q94 0 146 55.5t65 135.5h69zM1026 1434h96v-908q0 -260 -139 -403t-360.5 -143t-360.5 143t-139 403v908h96v-906q0 -219 111.5 -336.5t292.5 -117.5q182 0 292.5 117.5 t110.5 336.5v906z" glyph-name="Ubreve" horiz-adv-x="1245" unicode="Ŭ"/><glyph d="M840 1495q-6 -109 -77 -189.5t-204 -80.5q-131 0 -202.5 82t-75.5 188h67q12 -78 65.5 -134t145.5 -56q94 0 146.5 55t64.5 135h70zM500 -20q-174 0 -292 116.5t-118 345.5v623h96v-627q0 -180 93.5 -276t234.5 -96q166 0 267.5 106.5t127.5 230.5v662h95v-1065h-95v258 q-10 -31 -35.5 -72t-72.5 -90t-127 -82.5t-174 -33.5z" glyph-name="ubreve" horiz-adv-x="1126" unicode="ŭ"/><glyph d="M625 1919q66 0 112.5 -47t46.5 -111q0 -66 -47 -112.5t-112 -46.5q-70 0 -117 47t-47 112.5t47 111.5t117 46zM622.5 1847q-34.5 0 -61 -25.5t-26.5 -60.5q0 -37 26.5 -62.5t61 -25.5t60.5 25.5t26 62.5q0 35 -26 60.5t-60.5 25.5zM1026 1434h96v-908q0 -260 -139 -403 t-360.5 -143t-360.5 143t-139 403v908h96v-906q0 -219 111.5 -336.5t292.5 -117.5q182 0 292.5 117.5t110.5 336.5v906z" glyph-name="Uring" horiz-adv-x="1245" unicode="Ů"/><glyph d="M561 1550q66 0 113 -47t47 -110q0 -66 -47 -113t-113 -47q-70 0 -117 47t-47 112.5t47 111.5t117 46zM559 1479q-35 0 -61.5 -26t-26.5 -60q0 -37 26.5 -62.5t61.5 -25.5t60.5 25.5t25.5 62.5q0 35 -25.5 60.5t-60.5 25.5zM500 -20q-174 0 -292 116.5t-118 345.5v623h96 v-627q0 -180 93.5 -276t234.5 -96q166 0 267.5 106.5t127.5 230.5v662h95v-1065h-95v258q-10 -31 -35.5 -72t-72.5 -90t-127 -82.5t-174 -33.5z" glyph-name="uring" horiz-adv-x="1126" unicode="ů"/><glyph d="M674 1884l-182 -325h-66l135 325h113zM944 1884l-182 -325h-66l135 325h113zM1026 1434h96v-908q0 -260 -139 -403t-360.5 -143t-360.5 143t-139 403v908h96v-906q0 -219 111.5 -336.5t292.5 -117.5q182 0 292.5 117.5t110.5 336.5v906z" glyph-name="Uhungarumlaut" horiz-adv-x="1245" unicode="Ű"/><glyph d="M610 1516l-182 -326h-66l136 326h112zM881 1516l-183 -326h-65l135 326h113zM500 -20q-174 0 -292 116.5t-118 345.5v623h96v-627q0 -180 93.5 -276t234.5 -96q166 0 267.5 106.5t127.5 230.5v662h95v-1065h-95v258q-10 -31 -35.5 -72t-72.5 -90t-127 -82.5t-174 -33.5z " glyph-name="uhungarumlaut" horiz-adv-x="1126" unicode="ű"/><glyph d="M1026 1434h96v-908q0 -211 -93 -346t-253 -180h33q-145 -59 -207.5 -117.5t-62.5 -132.5q0 -61 52 -90t120 -10l24 -56q-37 -16 -85 -17t-93 13.5t-76.5 55.5t-31.5 102q0 143 217 234q-14 -2 -43 -2q-221 0 -360.5 143t-139.5 403v908h96v-906q0 -219 111.5 -336.5 t292.5 -117.5q182 0 292.5 117.5t110.5 336.5v906z" glyph-name="Uogonek" horiz-adv-x="1245" unicode="Ų"/><glyph d="M745 -252q0 -68 53.5 -97.5t121.5 -10.5l22 -46q-37 -16 -84 -18t-92 12.5t-77 55.5t-32 102q0 84 72 150.5t189 103.5h-9v258q-10 -31 -35.5 -72t-72.5 -90t-127 -82.5t-174 -33.5q-174 0 -292 116.5t-118 345.5v623h96v-627q0 -180 93.5 -276t234.5 -96 q166 0 267.5 106.5t127.5 230.5v662h95v-1065h10q-154 -63 -211.5 -119.5t-57.5 -132.5z" glyph-name="uogonek" horiz-adv-x="1163" unicode="ų"/><glyph d="M1024 1935l250 -307l-41 -39l-242 264l-239 -264l-41 39l250 307h63zM1931 1434l-461 -1434h-51l-428 1247l-430 -1247h-49l-461 1434h96l392 -1225l426 1225h51l426 -1225l393 1225h96z" glyph-name="Wcircumflex" horiz-adv-x="1982" unicode="Ŵ"/><glyph d="M942 1485l-240 -264l-40 39l249 307h64l250 -307l-41 -39zM1733 1065h96l-422 -1065h-68l-399 956l-399 -956h-66l-424 1065h96l363 -922l385 922h90l385 -922z" glyph-name="wcircumflex" horiz-adv-x="1880" unicode="ŵ"/><glyph d="M659 1935l250 -307l-41 -39l-241 264l-240 -264l-41 39l250 307h63zM1204 1434l-528 -777v-657h-96v657l-529 777h113l463 -684l465 684h112z" glyph-name="Ycircumflex" horiz-adv-x="1255" unicode="Ŷ"/><glyph d="M559 1485l-240 -264l-40 39l249 307h64l250 -307l-41 -39zM956 1065h101l-641 -1454h-97l187 420l-455 1034h101l403 -926z" glyph-name="ycircumflex" horiz-adv-x="1107" unicode="ŷ"/><glyph d="M457 1804v-96h-95v96h95zM893 1804v-96h-96v96h96zM1204 1434l-528 -777v-657h-96v657l-529 777h113l463 -684l465 684h112z" glyph-name="Ydieresis" horiz-adv-x="1255" unicode="Ÿ"/><glyph d="M801 1884l-183 -325h-65l135 325h113zM1122 1434l-905 -1346h913v-88h-1079l905 1348h-852v86h1018z" glyph-name="Zacute" horiz-adv-x="1181" unicode="Ź"/><glyph d="M737 1516l-182 -326h-66l136 326h112zM967 1065l-746 -977h731v-88h-901l746 979h-684v86h854z" glyph-name="zacute" horiz-adv-x="1017" unicode="ź"/><glyph d="M629 1804v-96h-94v96h94zM1122 1434l-905 -1346h913v-88h-1079l905 1348h-852v86h1018z" glyph-name="Zdotaccent" horiz-adv-x="1181" unicode="Ż"/><glyph d="M565 1436v-97h-94v97h94zM967 1065l-746 -977h731v-88h-901l746 979h-684v86h854z" glyph-name="zdotaccent" horiz-adv-x="1017" unicode="ż"/><glyph d="M616 1589h-63l-250 307l41 39l240 -264l241 264l41 -39zM1122 1434l-905 -1346h913v-88h-1079l905 1348h-852v86h1018z" glyph-name="Zcaron" horiz-adv-x="1181" unicode="Ž"/><glyph d="M553 1221h-64l-249 307l41 39l239 -264l242 264l41 -39zM967 1065l-746 -977h731v-88h-901l746 979h-684v86h854z" glyph-name="zcaron" horiz-adv-x="1017" unicode="ž"/><glyph d="M530 1360q-106 0 -151 -48t-45 -179v-68h196v-88h-196v-1051q0 -184 -72 -249.5t-221 -65.5v86q106 0 151.5 48t45.5 179v1053h-172v88h172v65q0 184 71.5 250t220.5 66v-86z" glyph-name="florin" horiz-adv-x="581" unicode="ƒ"/><glyph d="M737 1589h-63l-250 307l41 39l240 -264l241 264l41 -39zM1266 0l-168 385h-787l-168 -385h-102l625 1434h75l627 -1434h-102zM346 469h717l-358 823z" glyph-name="uni01CD" horiz-adv-x="1409" unicode="Ǎ"/><glyph d="M647 1221h-63l-250 307l41 39l239 -264l242 264l41 -39zM608 -20q-205 0 -370.5 148t-165.5 404t165.5 404.5t370.5 148.5q143 0 262 -73.5t170 -190.5h11v244h94v-1065h-94v244h-11q-51 -117 -170 -190.5t-262 -73.5zM612 66q170 0 306.5 123.5t136.5 343t-136.5 343 t-306.5 123.5q-172 0 -309 -123.5t-137 -343t137 -343t309 -123.5z" glyph-name="uni01CE" horiz-adv-x="1269" unicode="ǎ"/><glyph d="M205 1589h-64l-250 307l41 39l240 -264l242 264l41 -39zM219 1434v-1434h-96v1434h96z" glyph-name="uni01CF" unicode="Ǐ"/><glyph d="M205 1221h-64l-250 307l41 39l240 -264l242 264l41 -39zM217 1065v-1065h-94v1065h94z" glyph-name="uni01D0" unicode="ǐ"/><glyph d="M852 1589h-64l-249 307l41 39l239 -264l242 264l41 -39zM819 1454q180 0 346 -91t273.5 -264t107.5 -382t-107.5 -382t-273.5 -264t-346 -91q-182 0 -347 91t-272.5 263t-107.5 383t107.5 383t272.5 263t347 91zM819.5 74q241.5 0 435 183t193.5 459.5t-193.5 460 t-435 183.5t-435.5 -183.5t-194 -460t194 -459.5t435.5 -183z" glyph-name="uni01D1" horiz-adv-x="1638" unicode="Ǒ"/><glyph d="M645 1221h-63l-250 307l41 39l239 -264l242 264l41 -39zM612 1085q129 0 249 -59t206 -189t86 -304.5t-86 -304.5t-206 -189t-249 -59t-248.5 59t-205.5 189t-86 304.5t86 304.5t205.5 189t248.5 59zM612 999q-168 0 -307 -123.5t-139 -343t139 -343t307 -123.5 t306.5 123.5t138.5 343t-138.5 343t-306.5 123.5z" glyph-name="uni01D2" horiz-adv-x="1224" unicode="ǒ"/><glyph d="M655 1589h-63l-250 307l41 39l240 -264l241 264l41 -39zM1026 1434h96v-908q0 -260 -139 -403t-360.5 -143t-360.5 143t-139 403v908h96v-906q0 -219 111.5 -336.5t292.5 -117.5q182 0 292.5 117.5t110.5 336.5v906z" glyph-name="uni01D3" horiz-adv-x="1245" unicode="Ǔ"/><glyph d="M592 1221h-64l-249 307l40 39l240 -264l242 264l41 -39zM500 -20q-174 0 -292 116.5t-118 345.5v623h96v-627q0 -180 93.5 -276t234.5 -96q166 0 267.5 106.5t127.5 230.5v662h95v-1065h-95v258q-10 -31 -35.5 -72t-72.5 -90t-127 -82.5t-174 -33.5z" glyph-name="uni01D4" horiz-adv-x="1126" unicode="ǔ"/><glyph d="M979 -2q-143 -57 -205.5 -115.5t-62.5 -132.5q0 -61 52 -90t120 -10l24 -56q-37 -16 -85 -17t-93 13.5t-76.5 55.5t-31.5 102q0 141 213 232h-15q-182 0 -347 91t-272.5 263t-107.5 383t107.5 383t272.5 263t347 91q180 0 346 -91t273.5 -264t107.5 -382 q0 -266 -165.5 -464t-401.5 -255zM190 716.5q0 -276.5 194 -459.5t435.5 -183t435 183t193.5 459.5t-193.5 460t-435 183.5t-435.5 -183.5t-194 -460z" glyph-name="uni01EA" horiz-adv-x="1638" unicode="Ǫ"/><glyph d="M743 -4q-141 -57 -201.5 -115.5t-60.5 -130.5q0 -61 52.5 -90t119.5 -10l25 -56q-37 -16 -85 -17t-93 13.5t-77 55.5t-32 102q0 141 213 232q-127 2 -245.5 62t-202.5 189t-84 301q0 174 86 304.5t205.5 189.5t248.5 59t249 -59t206 -189t86 -305q0 -213 -119 -352 t-291 -184zM166 532.5q0 -219.5 139 -343t307 -123.5t306.5 123.5t138.5 343t-138.5 343t-306.5 123.5t-307 -123.5t-139 -343z" glyph-name="uni01EB" horiz-adv-x="1224" unicode="ǫ"/><glyph d="M541 1454q158 0 273.5 -87t158.5 -216l-74 -37q-49 115 -140 183.5t-218 68.5q-137 0 -225.5 -71.5t-88.5 -190.5q0 -190 271 -293l106 -41q104 -41 161.5 -68.5t122 -73.5t93.5 -107.5t29 -143.5q0 -176 -134.5 -286.5t-324.5 -110.5q-172 0 -307 98t-172 252l84 35 q37 -133 144.5 -214t250.5 -81q150 0 256 85t106 220q0 53 -18 96t-42 69.5t-75 55.5t-85 43t-103 41l-123 47q-336 133 -336 377q0 154 117 252t293 98zM346 -436l146 362h133l-199 -362h-80z" glyph-name="Scommaaccent" horiz-adv-x="1081" unicode="Ș"/><glyph d="M645 844q-76 160 -246 160q-96 0 -155.5 -51.5t-59.5 -133.5q0 -137 185 -203l92 -32q158 -53 233.5 -121t75.5 -187q0 -141 -106.5 -218.5t-247.5 -77.5q-139 0 -238.5 73.5t-126.5 202.5l80 20q27 -102 105.5 -158.5t181.5 -56.5q104 0 183 54.5t79 156.5 q0 86 -56.5 137.5t-168.5 90.5l-117 41q-244 86 -244 278q0 115 87 190.5t218 75.5q115 0 199 -57t125 -156zM193 -436l145 362h133l-199 -362h-79z" glyph-name="scommaaccent" horiz-adv-x="831" unicode="ș"/><glyph d="M82 1434h940v-93h-422v-1341h-96v1341h-422v93zM338 -436l145 362h133l-198 -362h-80z" glyph-name="uni021A" horiz-adv-x="1103" unicode="Ț"/><glyph d="M524 981h-223v-807q0 -100 98 -100q59 0 121 30v-84q-72 -33 -139 -32q-78 0 -126 40t-48 119v834h-146v84h146v272h94v-272h223v-84zM158 -436l145 362h133l-198 -362h-80z" glyph-name="uni021B" horiz-adv-x="606" unicode="ț"/><glyph d="M-90 -395h-33v88h39q135 0 208 64.5t73 234.5v1073h96v-1075q0 -217 -100.5 -301t-282.5 -84z" glyph-name="uni0237" horiz-adv-x="415" unicode="ȷ"/><glyph d="M313 1567l250 -307l-41 -39l-241 264l-240 -264l-41 39l250 307h63z" glyph-name="circumflex" horiz-adv-x="563" unicode="ˆ"/><glyph d="M313 1221h-63l-250 307l41 39l240 -264l241 264l41 -39z" glyph-name="caron" horiz-adv-x="563" unicode="ˇ"/><glyph d="M559 1495q-6 -109 -76.5 -189.5t-203.5 -80.5q-131 0 -203 82t-76 188h68q12 -78 65 -134t146 -56q94 0 146 55t64 135h70z" glyph-name="breve" horiz-adv-x="559" unicode="˘"/><glyph d="M94 1436v-97h-94v97h94z" glyph-name="dotaccent" horiz-adv-x="94" unicode="˙"/><glyph d="M164 1550q66 0 113 -47t47 -110q0 -66 -47.5 -113t-112.5 -47q-70 0 -117 47t-47 112.5t47 111.5t117 46zM162 1479q-35 0 -61.5 -26t-26.5 -60q0 -37 26.5 -62.5t61.5 -25.5t60.5 25.5t25.5 62.5q0 35 -25.5 60.5t-60.5 25.5z" glyph-name="ring" horiz-adv-x="323" unicode="˚"/><glyph d="M360 0q-145 -59 -207.5 -117.5t-62.5 -132.5q0 -61 52.5 -90t119.5 -10l25 -56q-37 -16 -85 -17t-93.5 13.5t-77 55.5t-31.5 102q0 84 77 149.5t191 102.5h92z" glyph-name="ogonek" horiz-adv-x="360" unicode="˛"/><glyph d="M182 1473q55 0 101.5 -21.5t74 -47.5t64.5 -47.5t72 -21.5q61 0 91.5 31t30.5 68h60q0 -88 -53.5 -134.5t-126.5 -46.5q-53 0 -98.5 22.5t-72 50.5t-65.5 50.5t-82 22.5q-61 0 -92 -36t-29 -75h-57q0 86 56 135.5t126 49.5z" glyph-name="tilde" horiz-adv-x="675" unicode="˜"/><glyph d="M248 1516l-182 -326h-66l135 326h113zM518 1516l-182 -326h-66l136 326h112z" glyph-name="hungarumlaut" horiz-adv-x="520" unicode="˝"/><glyph d="M-330 -440l146 362h133l-199 -362h-80z" glyph-name="uni0326" horiz-adv-x="0" unicode="̦"/><glyph d="M770 1434l629 -1434h-1297l629 1434h39zM752 1260l-512 -1172h1022z" glyph-name="Delta" horiz-adv-x="1501" unicode="Δ"/><glyph d="M802.5 1448q278.5 0 494.5 -207t216 -510q0 -360 -360 -600v-39h309v-92h-393v180l94 70q254 193 254 481q0 266 -188.5 447.5t-426 181.5t-426 -181.5t-188.5 -447.5q0 -289 254 -481l95 -70v-180h-394v92h310v39q-360 240 -361 600q0 303 216 510t494.5 207z" glyph-name="Omega" horiz-adv-x="1605" unicode="Ω"/><glyph d="M909 1065h95v-1065h-95v258q-10 -31 -35.5 -72t-72.5 -90t-127 -82.5t-174 -33.5q-188 0 -303 129v-498h-95v700q-12 57 -12 131v623h107v-733q27 -131 112.5 -198.5t204.5 -67.5q166 0 267.5 106.5t127.5 230.5v662z" glyph-name="mu" horiz-adv-x="1128" unicode="μ"/><glyph d="M1079 76q66 0 140 37v-88q-74 -37 -136 -37q-186 0 -186 205v786h-494v-979h-96v979h-205v86h1094v-86h-203v-791q0 -68 19.5 -90t66.5 -22z" glyph-name="pi" horiz-adv-x="1310" unicode="π"/><glyph d="M348 1804v-96h-94v96h94zM784 1804v-96h-96v96h96zM219 92h725v-92h-821v1434h803v-93h-707v-575h559v-92h-559v-582z" glyph-name="afii10023" horiz-adv-x="1036" unicode="Ё"/><glyph d="M754 1884l-183 -325h-65l135 325h113zM942 1434v-93h-723v-1341h-96v1434h819z" glyph-name="afii10052" horiz-adv-x="1013" unicode="Ѓ"/><glyph d="M1229 221l65 -67q-209 -174 -475 -174q-135 0 -266 55t-232.5 150.5t-165 234.5t-63.5 296.5t63.5 297t165 234.5t232.5 150.5t266 55.5q262 0 471 -170l-63 -72q-172 147 -400 148q-236 0 -426 -170t-208 -428h456v-88h-456q16 -260 207.5 -430t426.5 -170 q230 0 402 147z" glyph-name="afii10053" horiz-adv-x="1366" unicode="Є"/><glyph d="M219 1434v-1434h-96v1434h96z" glyph-name="afii10055" unicode="І"/><glyph d="M2 1804v-96h-94v96h94zM438 1804v-96h-96v96h96zM219 1434v-1434h-96v1434h96z" glyph-name="afii10056" unicode="Ї"/><glyph d="M1266 0l-168 385h-787l-168 -385h-102l625 1434h75l627 -1434h-102zM346 469h717l-358 823z" glyph-name="afii10017" horiz-adv-x="1409" unicode="А"/><glyph d="M569 895q236 0 367 -125t131 -324q0 -193 -132 -319.5t-366 -126.5h-446v1434h862v-93h-766v-446h350zM573 92q182 0 290 94.5t108 260t-107.5 262t-290.5 96.5h-354v-713h354z" glyph-name="afii10018" horiz-adv-x="1138" unicode="Б"/><glyph d="M748 782q156 -33 240.5 -136t84.5 -255q0 -184 -127 -287.5t-385 -103.5h-438v1434h461q201 0 302 -96.5t101 -241.5q0 -109 -59 -192t-180 -122zM582 1346h-363v-531h354q150 0 235 76t85 199q0 119 -78.5 187.5t-232.5 68.5zM561 88q416 0 416 311q0 156 -104.5 245 t-301.5 89h-352v-645h342z" glyph-name="afii10019" horiz-adv-x="1144" unicode="В"/><glyph d="M942 1434v-93h-723v-1341h-96v1434h819z" glyph-name="afii10020" horiz-adv-x="1013" unicode="Г"/><glyph d="M1303 92h151v-233h-96v141h-1180v-141h-96v233h96q68 125 83 344t15 711v287h1027v-1342zM270 92h936v1249h-833v-194q0 -340 -4 -491.5t-27 -314.5t-72 -249z" glyph-name="afii10021" horiz-adv-x="1536" unicode="Д"/><glyph d="M219 92h725v-92h-821v1434h803v-93h-707v-575h559v-92h-559v-582z" glyph-name="afii10022" horiz-adv-x="1036" unicode="Е"/><glyph d="M1958 0l-619 698l-225 -239v-459h-98v459l-225 239l-619 -698h-119l676 764l-629 670h123l793 -846v846h98v-846l793 846h123l-629 -670l676 -764h-119z" glyph-name="afii10024" horiz-adv-x="2127" unicode="Ж"/><glyph d="M571 1448q184 0 309.5 -101.5t125.5 -252.5q0 -106 -74 -196.5t-217 -129.5q160 -27 260 -124t100 -243q0 -190 -144.5 -305.5t-359.5 -115.5t-352 124.5t-137 309.5h98q0 -145 111.5 -243.5t279.5 -98.5q172 0 289 87t117 242q0 152 -128 233t-331 85v78q186 8 287.5 92 t101.5 205q0 113 -96 187.5t-240 74.5q-150 0 -247 -89t-97 -247h-98q0 193 124.5 310.5t317.5 117.5z" glyph-name="afii10025" horiz-adv-x="1157" unicode="З"/><glyph d="M1255 0h-96v1262h-14l-926 -1262h-96v1434h96v-1262h14l926 1262h96v-1434z" glyph-name="afii10026" horiz-adv-x="1378" unicode="И"/><glyph d="M1014 1864q-6 -109 -77 -190t-204 -81q-131 0 -202.5 82t-75.5 189h67q12 -78 65.5 -134.5t145.5 -56.5q94 0 146.5 55.5t64.5 135.5h70zM1255 0h-96v1262h-14l-926 -1262h-96v1434h96v-1262h14l926 1262h96v-1434z" glyph-name="afii10027" horiz-adv-x="1378" unicode="Й"/><glyph d="M1065 0l-619 698l-227 -241v-457h-96v1434h96v-848l795 848h123l-629 -670l676 -764h-119z" glyph-name="afii10028" horiz-adv-x="1234" unicode="К"/><glyph d="M1300 1434v-1434h-96v1341h-831v-1196q0 -82 -45 -119.5t-109 -37.5q-94 0 -168 37v88q82 -41 139 -41q45 0 65.5 19.5t20.5 74.5v1268h1024z" glyph-name="afii10029" horiz-adv-x="1423" unicode="Л"/><glyph d="M1608 1434v-1434h-97v1231h-10l-600 -1231h-74l-598 1231h-10v-1231h-96v1434h108l633 -1307l635 1307h109z" glyph-name="afii10030" horiz-adv-x="1730" unicode="М"/><glyph d="M1034 1434h96v-1434h-96v653h-815v-653h-96v1434h96v-689h815v689z" glyph-name="afii10031" horiz-adv-x="1253" unicode="Н"/><glyph d="M819 1454q180 0 346 -91t273.5 -264t107.5 -382t-107.5 -382t-273.5 -264t-346 -91q-182 0 -347 91t-272.5 263t-107.5 383t107.5 383t272.5 263t347 91zM819.5 74q241.5 0 435 183t193.5 459.5t-193.5 460t-435 183.5t-435.5 -183.5t-194 -460t194 -459.5t435.5 -183z " glyph-name="afii10032" horiz-adv-x="1638" unicode="О"/><glyph d="M1126 1434v-1434h-96v1341h-811v-1341h-96v1434h1003z" glyph-name="afii10033" horiz-adv-x="1249" unicode="П"/><glyph d="M569 1434q233 0 365.5 -127t132.5 -320q0 -199 -131 -323.5t-367 -124.5h-350v-539h-96v1434h446zM573 629q182 0 290 96t108 262t-107.5 260t-290.5 94h-354v-712h354z" glyph-name="afii10034" horiz-adv-x="1138" unicode="Р"/><glyph d="M1294 154q-209 -174 -475 -174q-135 0 -266 55t-232.5 150.5t-165 234.5t-63.5 296.5t63.5 297t165 234.5t232.5 150.5t266 55.5q262 0 471 -170l-63 -72q-172 147 -400 148q-246 0 -441.5 -184.5t-195.5 -459t196 -458.5t441 -184q229 0 402 147z" glyph-name="afii10035" horiz-adv-x="1366" unicode="С"/><glyph d="M1022 1434v-93h-422v-1341h-96v1341h-422v93h940z" glyph-name="afii10036" horiz-adv-x="1103" unicode="Т"/><glyph d="M1106 1434h106l-790 -1434h-107l265 479l-529 955h107l475 -859z" glyph-name="afii10037" horiz-adv-x="1273" unicode="У"/><glyph d="M950 1300q322 0 513.5 -162.5t191.5 -420.5t-191.5 -421t-513.5 -163h-35v-133h-96v133h-33q-322 0 -513 163t-191 421t191.5 420.5t512.5 162.5h33v134h96v-134h35zM786 221h33v993h-33q-289 0 -448.5 -135t-159.5 -362.5t159.5 -361.5t448.5 -134zM950 221 q289 0 449 134t160 361.5t-160 362.5t-449 135h-35v-993h35z" glyph-name="afii10038" horiz-adv-x="1736" unicode="Ф"/><glyph d="M1227 0h-117l-471 659l-471 -659h-117l531 741l-496 693h117l436 -611l436 611h115l-494 -693z" glyph-name="afii10039" horiz-adv-x="1277" unicode="Х"/><glyph d="M1221 92v-233h-95v141h-1003v1434h96v-1342h811v1342h96v-1342h95z" glyph-name="afii10040" horiz-adv-x="1294" unicode="Ц"/><glyph d="M969 1434h96v-1434h-96v733q-35 -80 -143.5 -165t-268.5 -85q-193 0 -318.5 105.5t-125.5 316.5v529h96v-529q0 -150 95 -237.5t253 -87.5q156 0 264.5 91t147.5 195v568z" glyph-name="afii10041" horiz-adv-x="1187" unicode="Ч"/><glyph d="M1937 1434h97v-1434h-1911v1434h96v-1342h811v1342h96v-1342h811v1342z" glyph-name="afii10042" horiz-adv-x="2158" unicode="Ш"/><glyph d="M2130 92v-233h-94v141h-1913v1434h96v-1342h811v1342h96v-1342h811v1342h97v-1342h96z" glyph-name="afii10043" horiz-adv-x="2201" unicode="Щ"/><glyph d="M756 895q236 0 366.5 -125t130.5 -324q0 -193 -132 -319.5t-365 -126.5h-447v1341h-248v93h345v-539h350zM760 92q182 0 289.5 94.5t107.5 260t-107.5 262t-289.5 96.5h-354v-713h354z" glyph-name="afii10044" horiz-adv-x="1323" unicode="Ъ"/><glyph d="M569 895q236 0 367 -125t131 -324q0 -193 -132 -319.5t-366 -126.5h-446v1434h96v-539h350zM1282 1434h96v-1434h-96v1434zM573 92q182 0 290 94.5t108 260t-107.5 262t-290.5 96.5h-354v-713h354z" glyph-name="afii10045" horiz-adv-x="1501" unicode="Ы"/><glyph d="M569 895q236 0 367 -125t131 -324q0 -193 -132 -319.5t-366 -126.5h-446v1434h96v-539h350zM573 92q182 0 290 94.5t108 260t-107.5 262t-290.5 96.5h-354v-713h354z" glyph-name="afii10046" horiz-adv-x="1138" unicode="Ь"/><glyph d="M567 1454q135 0 266.5 -55.5t232.5 -150.5t164.5 -234.5t63.5 -297t-63.5 -296.5t-164.5 -234.5t-232.5 -150.5t-266.5 -55q-266 0 -475 174l66 67q172 -147 401 -147q236 0 427.5 170t207.5 430h-457v88h457q-18 258 -208.5 428t-426.5 170q-227 0 -399 -148l-64 72 q209 170 471 170z" glyph-name="afii10047" horiz-adv-x="1366" unicode="Э"/><glyph d="M1198 1454q180 0 346 -91t273.5 -264t107.5 -382t-107.5 -382t-273.5 -264t-346 -91q-272 0 -490.5 197.5t-234.5 496.5h-254v-674h-96v1434h96v-672h254q10 199 118.5 359.5t269.5 246.5t337 86zM1198 74q242 0 435.5 183t193.5 459.5t-193.5 460t-435.5 183.5 t-435.5 -183.5t-193.5 -460t193.5 -459.5t435.5 -183z" glyph-name="afii10048" horiz-adv-x="2015" unicode="Ю"/><glyph d="M625 1434h446v-1434h-96v539h-350q-37 0 -54 2l-399 -541h-111l412 555q-166 37 -256 152.5t-90 279.5q0 193 132.5 320t365.5 127zM621 629h354v712h-354q-182 0 -290 -94t-108 -260t108 -262t290 -96z" glyph-name="afii10049" horiz-adv-x="1193" unicode="Я"/><glyph d="M608 -20q-205 0 -370.5 148t-165.5 404t165.5 404.5t370.5 148.5q143 0 262 -73.5t170 -190.5h11v244h94v-1065h-94v244h-11q-51 -117 -170 -190.5t-262 -73.5zM612 66q170 0 306.5 123.5t136.5 343t-136.5 343t-306.5 123.5q-172 0 -309 -123.5t-137 -343t137 -343 t309 -123.5z" glyph-name="afii10065" horiz-adv-x="1269" unicode="а"/><glyph d="M655 1085q205 0 371 -148.5t166 -404.5t-166 -404t-371 -148q-143 0 -262 73.5t-170 190.5h-10v-244h-94v1065h4q0 193 89 281t300 88h229q76 0 104.5 6t47.5 35h92q-35 -76 -79 -100.5t-165 -24.5h-229q-162 0 -228.5 -63.5t-66.5 -221.5v-244h6q51 117 170 190.5 t262 73.5zM651 66q172 0 309.5 123.5t137.5 343t-137.5 343t-309.5 123.5q-170 0 -306 -123.5t-136 -343t136 -343t306 -123.5z" glyph-name="afii10066" horiz-adv-x="1263" unicode="б"/><glyph d="M780 588q117 -35 173.5 -111t56.5 -174q0 -303 -430 -303h-457v1065h457q172 0 261 -71.5t89 -196.5q0 -66 -38 -123t-112 -86zM580 979h-363v-358h367q252 0 252 182q0 82 -64.5 129t-191.5 47zM580 86q186 0 260.5 56.5t74.5 158.5q0 238 -331 238h-367v-453h363z" glyph-name="afii10067" horiz-adv-x="1081" unicode="в"/><glyph d="M872 1065v-86h-655v-979h-94v1065h749z" glyph-name="afii10068" horiz-adv-x="954" unicode="г"/><glyph d="M1053 88h88v-231h-97v143h-888v-143h-95v231h66q59 86 73.5 247t14.5 525v205h838v-977zM217 88h741v891h-649v-119q0 -365 -15.5 -525.5t-76.5 -246.5z" glyph-name="afii10069" horiz-adv-x="1202" unicode="д"/><glyph d="M604 1085q94 0 188.5 -36.5t176.5 -106.5t127 -187.5t34 -262.5h-962q12 -203 146.5 -314.5t312.5 -111.5q236 0 354 145l61 -53q-137 -178 -415 -178q-223 0 -389 146t-166 406q0 174 85 304.5t202.5 189.5t244.5 59zM604 999q-156 0 -290 -112.5t-146 -313.5h876 q-4 135 -76.5 235.5t-168 145.5t-195.5 45z" glyph-name="afii10070" horiz-adv-x="1204" unicode="е"/><glyph d="M1575 0l-510 514l-147 -147v-367h-95v367l-147 147l-510 -514h-125l573 575l-491 490h121l579 -580v580h95v-580l579 580h121l-492 -490l574 -575h-125z" glyph-name="afii10072" horiz-adv-x="1740" unicode="ж"/><glyph d="M489 1083q160 0 258.5 -84t98.5 -198q0 -178 -211 -232q123 -16 200.5 -89.5t77.5 -180.5q0 -141 -121.5 -230t-293.5 -89q-178 0 -297 102t-119 256h92q0 -117 95.5 -196t228.5 -79q131 0 225 63.5t94 170.5q0 113 -98 171t-258 56v78q145 2 218 57.5t73 143.5 q0 84 -73 140t-190 56q-115 0 -193.5 -64.5t-78.5 -160.5h-92q0 129 104 219t260 90z" glyph-name="afii10073" horiz-adv-x="995" unicode="з"/><glyph d="M1010 1065v-1065h-95v862l-776 -862h-16v1065h94v-862l778 862h15z" glyph-name="afii10074" horiz-adv-x="1134" unicode="и"/><glyph d="M848 1495q-6 -109 -77 -189.5t-204 -80.5q-131 0 -202.5 82t-75.5 188h67q12 -78 65.5 -134t145.5 -56q94 0 146.5 55t64.5 135h70zM1010 1065v-1065h-95v862l-776 -862h-16v1065h94v-862l778 862h15z" glyph-name="afii10075" horiz-adv-x="1134" unicode="й"/><glyph d="M874 0l-509 514l-148 -147v-367h-94v1065h94v-580l580 580h121l-492 -490l573 -575h-125z" glyph-name="afii10076" horiz-adv-x="1040" unicode="к"/><glyph d="M1122 1065v-1065h-94v979h-661v-834q0 -158 -160 -157q-88 0 -156 37v84q82 -37 131 -37t69.5 20.5t20.5 75.5v897h850z" glyph-name="afii10077" horiz-adv-x="1247" unicode="л"/><glyph d="M1286 1065v-1065h-94v797l-487 -797l-488 797v-797h-94v1065h22l560 -915l561 915h20z" glyph-name="afii10078" horiz-adv-x="1411" unicode="м"/><glyph d="M901 1065h94v-1065h-94v481h-684v-481h-94v1065h94v-496h684v496z" glyph-name="afii10079" horiz-adv-x="1120" unicode="н"/><glyph d="M612 1085q129 0 249 -59t206 -189t86 -304.5t-86 -304.5t-206 -189t-249 -59t-248.5 59t-205.5 189t-86 304.5t86 304.5t205.5 189t248.5 59zM612 999q-168 0 -307 -123.5t-139 -343t139 -343t307 -123.5t306.5 123.5t138.5 343t-138.5 343t-306.5 123.5z" glyph-name="afii10080" horiz-adv-x="1224" unicode="о"/><glyph d="M981 1065v-1065h-94v979h-670v-979h-94v1065h858z" glyph-name="afii10081" horiz-adv-x="1103" unicode="п"/><glyph d="M662 1085q205 0 370.5 -148.5t165.5 -404.5t-166 -404t-370 -148q-143 0 -262 73.5t-171 190.5h-10v-244h-2v-389h-94v690h2v764h94v-244h10q51 117 170.5 190.5t262.5 73.5zM657 66q172 0 309.5 123.5t137.5 343t-137.5 343t-309.5 123.5q-170 0 -306 -123.5t-136 -343 t136 -343t306 -123.5z" glyph-name="afii10082" horiz-adv-x="1269" unicode="р"/><glyph d="M614 1085q145 0 265 -67.5t186 -194.5l-82 -30q-55 100 -152.5 153t-216.5 53q-170 0 -309 -123.5t-139 -345.5q0 -217 139 -340.5t309 -123.5q119 0 216.5 53t152.5 153l82 -30q-66 -127 -185.5 -194.5t-265.5 -67.5q-205 0 -373.5 148t-168.5 402q0 174 86 305.5 t206.5 190.5t249.5 59z" glyph-name="afii10083" horiz-adv-x="1126" unicode="с"/><glyph d="M813 1065v-86h-328v-979h-94v979h-330v86h752z" glyph-name="afii10084" horiz-adv-x="874" unicode="т"/><glyph d="M956 1065h101l-641 -1454h-97l187 420l-455 1034h101l403 -926z" glyph-name="afii10085" horiz-adv-x="1107" unicode="у"/><glyph d="M1583 1085q205 0 371 -148.5t166 -404.5t-166 -404t-371 -148q-143 0 -262 73.5t-170 190.5h-10v-244h-2v-389h-95v633h-10q-51 -117 -170 -190.5t-262 -73.5q-205 0 -370.5 148t-165.5 404t165.5 404.5t370.5 148.5q143 0 262 -73.5t170 -190.5h10v244h3v389h94v-633h10 q51 117 170 190.5t262 73.5zM606 66q160 0 292 110.5t149 306.5v99q-16 197 -148.5 307t-292.5 110q-172 0 -309 -123.5t-137 -343t137 -343t309 -123.5zM1579 66q172 0 309 123.5t137 343t-137 343t-309 123.5q-160 0 -292 -110.5t-148 -306.5v-99q16 -197 148 -307 t292 -110z" glyph-name="afii10086" horiz-adv-x="2185" unicode="ф"/><glyph d="M887 0l-355 471l-356 -471h-115l416 543l-397 522h110l342 -449l342 449h109l-397 -522l415 -543h-114z" glyph-name="afii10087" horiz-adv-x="1062" unicode="х"/><glyph d="M1079 88v-229h-94v141h-862v1065h94v-979h670v979h94v-977h98z" glyph-name="afii10088" horiz-adv-x="1153" unicode="ц"/><glyph d="M840 1065h94v-1065h-94v561q-20 -74 -128 -158t-257 -84q-70 0 -131.5 19.5t-115.5 60.5t-85 117t-31 178v371h94v-373q0 -139 73 -212.5t204 -73.5q143 0 243.5 91t133.5 193v375z" glyph-name="afii10089" horiz-adv-x="1056" unicode="ч"/><glyph d="M1417 1065v-1065h-1294v1065h94v-977h506v977h94v-977h506v977h94z" glyph-name="afii10090" horiz-adv-x="1542" unicode="ш"/><glyph d="M1518 88v-229h-95v141h-1300v1065h94v-977h506v977h94v-977h506v977h94v-977h101z" glyph-name="afii10091" horiz-adv-x="1589" unicode="щ"/><glyph d="M655 616q424 0 424 -307q0 -309 -424 -309h-462v979h-152v86h246v-449h368zM659 88q178 0 252 58.5t74 162.5q0 221 -326 221h-372v-442h372z" glyph-name="afii10092" horiz-adv-x="1150" unicode="ъ"/><glyph d="M586 616q424 0 424 -307q0 -309 -424 -309h-463v1065h94v-449h369zM1206 1065h94v-1065h-94v1065zM590 88q178 0 251.5 58.5t73.5 162.5q0 221 -325 221h-373v-442h373z" glyph-name="afii10093" horiz-adv-x="1423" unicode="ы"/><glyph d="M586 616q424 0 424 -307q0 -309 -424 -309h-463v1065h94v-449h369zM590 88q178 0 251.5 58.5t73.5 162.5q0 221 -325 221h-373v-442h373z" glyph-name="afii10094" horiz-adv-x="1081" unicode="ь"/><glyph d="M522 1085q129 0 250 -59t207 -190t86 -306q0 -254 -169 -402t-374 -148q-145 0 -265 67.5t-185 194.5l82 30q55 -100 152 -153t216 -53q162 0 298 113.5t149 314.5h-385v75h385q-12 203 -148.5 316.5t-298.5 113.5q-119 0 -216 -53t-152 -153l-82 30q66 127 185.5 194.5 t264.5 67.5z" glyph-name="afii10095" horiz-adv-x="1136" unicode="э"/><glyph d="M983 1085q129 0 249 -59t206 -189t86 -304.5t-86 -304.5t-206 -189t-249 -59q-195 0 -358.5 136t-180.5 373h-227v-489h-94v1065h94v-490h227q16 238 180 374t359 136zM983 66q168 0 306 123.5t138 343t-138 343t-306 123.5t-307 -123.5t-139 -343t139 -343t307 -123.5z " glyph-name="afii10096" horiz-adv-x="1593" unicode="ю"/><glyph d="M963 1065v-1065h-95v442h-299l-393 -442h-115l400 442q-180 8 -270.5 92t-90.5 220q0 141 100.5 226t301.5 85h461zM868 530v449h-370q-303 0 -303 -225q0 -223 303 -224h370z" glyph-name="afii10097" horiz-adv-x="1087" unicode="я"/><glyph d="M440 1436v-97h-94v97h94zM877 1436v-97h-97v97h97zM604 1085q94 0 188.5 -36.5t176.5 -106.5t127 -187.5t34 -262.5h-962q12 -203 146.5 -314.5t312.5 -111.5q236 0 354 145l61 -53q-137 -178 -415 -178q-223 0 -389 146t-166 406q0 174 85 304.5t202.5 189.5t244.5 59z M604 999q-156 0 -290 -112.5t-146 -313.5h876q-4 135 -76.5 235.5t-168 145.5t-195.5 45z" glyph-name="afii10071" horiz-adv-x="1204" unicode="ё"/><glyph d="M735 1516l-182 -326h-66l136 326h112zM872 1065v-86h-655v-979h-94v1065h749z" glyph-name="afii10100" horiz-adv-x="954" unicode="ѓ"/><glyph d="M614 66q119 0 216.5 53t152.5 153l82 -30q-66 -127 -185.5 -194.5t-265.5 -67.5q-205 0 -373.5 148t-168.5 402q0 174 86 305.5t206.5 190.5t249.5 59q145 0 265 -67.5t186 -194.5l-82 -30q-55 100 -152.5 153t-216.5 53q-162 0 -298 -113.5t-148 -316.5h385v-75h-385 q12 -201 148 -314.5t298 -113.5z" glyph-name="afii10101" horiz-adv-x="1126" unicode="є"/><glyph d="M217 1448v-98h-94v98h94zM217 1065v-1065h-94v1065h94z" glyph-name="afii10103" unicode="і"/><glyph d="M2 1436v-97h-94v97h94zM438 1436v-97h-96v97h96zM217 1065v-1065h-94v1065h94z" glyph-name="afii10104" unicode="ї"/><glyph d="M846 1530h96v-189h-723v-1341h-96v1434h723v96z" glyph-name="afii10050" horiz-adv-x="1013" unicode="Ґ"/><glyph d="M778 1159h94v-180h-655v-979h-94v1065h655v94z" glyph-name="afii10098" horiz-adv-x="954" unicode="ґ"/><glyph d="M784 1884h113l135 -325h-65zM1931 1434l-461 -1434h-51l-428 1247l-430 -1247h-49l-461 1434h96l392 -1225l426 1225h51l426 -1225l393 1225h96z" glyph-name="Wgrave" horiz-adv-x="1982" unicode="Ẁ"/><glyph d="M983 1190h-65l-183 326h113zM1733 1065h96l-422 -1065h-68l-399 956l-399 -956h-66l-424 1065h96l363 -922l385 922h90l385 -922z" glyph-name="wgrave" horiz-adv-x="1880" unicode="ẁ"/><glyph d="M1208 1884l-182 -325h-65l135 325h112zM1931 1434l-461 -1434h-51l-428 1247l-430 -1247h-49l-461 1434h96l392 -1225l426 1225h51l426 -1225l393 1225h96z" glyph-name="Wacute" horiz-adv-x="1982" unicode="Ẃ"/><glyph d="M1159 1516l-182 -326h-66l136 326h112zM1733 1065h96l-422 -1065h-68l-399 956l-399 -956h-66l-424 1065h96l363 -922l385 922h90l385 -922z" glyph-name="wacute" horiz-adv-x="1880" unicode="ẃ"/><glyph d="M821 1804v-96h-94v96h94zM1257 1804v-96h-96v96h96zM1931 1434l-461 -1434h-51l-428 1247l-430 -1247h-49l-461 1434h96l392 -1225l426 1225h51l426 -1225l393 1225h96z" glyph-name="Wdieresis" horiz-adv-x="1982" unicode="Ẅ"/><glyph d="M772 1436v-97h-94v97h94zM1208 1436v-97h-96v97h96zM1733 1065h96l-422 -1065h-68l-399 956l-399 -956h-66l-424 1065h96l363 -922l385 922h90l385 -922z" glyph-name="wdieresis" horiz-adv-x="1880" unicode="ẅ"/><glyph d="M420 1884h112l136 -325h-66zM1204 1434l-528 -777v-657h-96v657l-529 777h113l463 -684l465 684h112z" glyph-name="Ygrave" horiz-adv-x="1255" unicode="Ỳ"/><glyph d="M600 1190h-65l-183 326h113zM956 1065h101l-641 -1454h-97l187 420l-455 1034h101l403 -926z" glyph-name="ygrave" horiz-adv-x="1107" unicode="ỳ"/><glyph d="M1137 616v-75h-1045v75h1045z" glyph-name="endash" horiz-adv-x="1228" unicode="–"/><glyph d="M1260 616v-75h-1168v75h1168z" glyph-name="emdash" horiz-adv-x="1351" unicode="—"/><glyph d="M285 1434l-142 -404h-92l144 404h90z" glyph-name="quoteleft" horiz-adv-x="335" unicode="‘"/><glyph d="M51 1030l142 404h92l-144 -404h-90z" glyph-name="quoteright" horiz-adv-x="335" unicode="’"/><glyph d="M51 -291l142 404h92l-144 -404h-90z" glyph-name="quotesinglbase" horiz-adv-x="356" unicode="‚"/><glyph d="M285 1434l-142 -404h-92l144 404h90zM502 1434l-142 -404h-92l144 404h90z" glyph-name="quotedblleft" horiz-adv-x="552" unicode="“"/><glyph d="M51 1030l142 404h92l-144 -404h-90zM268 1030l142 404h92l-144 -404h-90z" glyph-name="quotedblright" horiz-adv-x="552" unicode="”"/><glyph d="M51 -291l142 404h92l-144 -404h-90zM268 -291l142 404h92l-144 -404h-90z" glyph-name="quotedblbase" horiz-adv-x="563" unicode="„"/><glyph d="M504 1141v-74h-162l-14 -428h-47l-15 428h-164v74h162l-10 293h100l-10 -293h160z" glyph-name="dagger" horiz-adv-x="606" unicode="†"/><glyph d="M342 1141h162v-74h-164l-12 -301h-47l-13 301h-166v74h164l-12 293h100zM328 668l12 -301h164v-74h-162l12 -293h-100l12 293h-164v74h166l13 301h47z" glyph-name="daggerdbl" horiz-adv-x="606" unicode="‡"/><glyph d="M164 504q-29 0 -45.5 17.5t-16.5 44t16.5 45t45.5 18.5t46 -18.5t17 -45t-17 -44t-46 -17.5z" glyph-name="bullet" horiz-adv-x="329" unicode="•"/><glyph d="M133 -20q-29 0 -45 17t-16 44t16 45t45 18t46.5 -18t17.5 -45t-17.5 -44t-46.5 -17zM639 -20q-29 0 -45 17t-16 44t16 45t45 18t46 -18t17 -45t-17 -44t-46 -17zM1145 -20q-29 0 -45.5 17t-16.5 44t16.5 45t45.5 18t46 -18t17 -45t-17 -44t-46 -17z" glyph-name="ellipsis" horiz-adv-x="1280" unicode="…"/><glyph d="M325.5 1444q104.5 0 179.5 -74t75 -178.5t-75 -178t-179.5 -73.5t-179 73.5t-74.5 178t74.5 178.5t179 74zM1143 1436l71 -52l-929 -1384l-74 51zM325.5 1368q-73.5 0 -126 -50t-52.5 -126t52.5 -126t126 -50t126 50t52.5 126t-52.5 126t-126 50zM1103.5 494 q104.5 0 179.5 -74t75 -178.5t-75 -178t-179.5 -73.5t-179 73.5t-74.5 178t74.5 178.5t179 74zM1769.5 494q104.5 0 179 -74t74.5 -178.5t-74.5 -178t-179 -73.5t-179 73.5t-74.5 178t74.5 178.5t179 74zM1104 418q-74 0 -126 -50.5t-52 -126t52 -125.5t126 -50t126 50 t52 125.5t-52 126t-126 50.5zM1769.5 418q-73.5 0 -126 -50.5t-52.5 -126t52.5 -125.5t126 -50t126 50t52.5 125.5t-52.5 126t-126 50.5z" glyph-name="perthousand" horiz-adv-x="2095" unicode="‰"/><glyph d="M82 635l297 295l39 -41l-264 -287l264 -285l-39 -41l-297 295v64z" glyph-name="guilsinglleft" horiz-adv-x="468" unicode="‹"/><glyph d="M387 635v-64l-297 -295l-39 41l264 285l-264 287l39 41z" glyph-name="guilsinglright" horiz-adv-x="468" unicode="›"/><glyph d="M590 1434l-881 -1434h-98l893 1434h86z" glyph-name="fraction" horiz-adv-x="221" unicode="⁄"/><glyph d="M1315 221l65 -67q-209 -174 -475 -174q-242 0 -447.5 161.5t-262.5 415.5h-144v78h131q-4 53 -4 82q0 39 2 57h-129v76h139q47 264 257 434t458 170q262 0 471 -170l-63 -72q-172 147 -400 148q-213 0 -394 -143.5t-228 -366.5h465v-76h-477q-2 -18 -3 -57q0 -29 5 -82 h475v-78h-459q53 -215 231.5 -349t384.5 -134q230 0 402 147z" glyph-name="Euro" horiz-adv-x="1449" unicode="€"/><glyph d="M483 1434v-60h-141v-309h-68v309h-141v60h350zM985 1434v-369h-65v246l-123 -246h-54l-122 246v-246h-66v369h66l149 -289l150 289h65z" glyph-name="trademark" horiz-adv-x="1118" unicode="™"/><glyph d="M205 1436v-535h-76v453l-35 -23l-37 64l72 41h76zM1030 1434l-880 -1434h-99l893 1434h86zM899 539q74 0 118 -41t44 -97q0 -70 -62 -108q88 -43 88 -135q0 -70 -55 -116t-133 -46q-76 0 -131 46t-55 116q0 92 88 135q-61 39 -62 108q0 53 44 95.5t116 42.5zM899 475 q-41 0 -62.5 -21.5t-21.5 -52t25.5 -55t58.5 -24.5q35 0 59.5 23.5t24.5 55.5q0 74 -84 74zM899 258q-45 0 -78 -28.5t-33 -71.5q0 -41 33 -70t78 -29q49 0 80 27t31 72t-31 72.5t-80 27.5z" glyph-name="oneeighth" horiz-adv-x="1138" unicode="⅛"/><glyph d="M238 1440q66 0 114.5 -42t48.5 -98q0 -66 -61 -108q86 -37 86 -135q0 -70 -56.5 -117t-131.5 -47q-82 0 -136.5 55.5t-50.5 130.5h78q0 -49 29.5 -85t79.5 -36q45 0 77.5 28t32.5 71q0 98 -151 98v59q129 0 129 86q0 33 -26 54.5t-62 21.5q-45 0 -71 -29.5t-26 -82.5h-75 q-2 78 47 127t125 49zM1071 1434l-881 -1434h-98l893 1434h86zM936 539q74 0 118 -41t44 -97q0 -70 -62 -108q88 -43 88 -135q0 -70 -55 -116t-133 -46q-76 0 -131 46t-55 116q0 92 88 135q-61 39 -62 108q0 53 44 95.5t116 42.5zM936 475q-41 0 -62.5 -21.5t-21.5 -52 t25.5 -55t58.5 -24.5q35 0 59.5 23.5t24.5 55.5q0 74 -84 74zM936 258q-45 0 -78 -28.5t-33 -71.5q0 -41 33 -70t78 -29q49 0 80 27t31 72t-31 72.5t-80 27.5z" glyph-name="threeeighths" horiz-adv-x="1175" unicode="⅜"/><glyph d="M381 1436v-66h-213l-16 -119q45 20 92 21q72 0 129 -54.5t57 -134t-57.5 -135t-136.5 -55.5q-68 0 -120.5 38t-64.5 89l68 39q4 -41 35.5 -71t81.5 -30q47 0 81.5 36t34.5 89q0 51 -33.5 87t-74.5 36q-72 0 -117 -59l-66 16l37 273h283zM1071 1434l-881 -1434h-98 l893 1434h86zM940 539q74 0 118 -41t44 -97q0 -70 -62 -108q88 -43 88 -135q0 -70 -55 -116t-133 -46q-76 0 -131 46t-55 116q0 92 88 135q-61 39 -62 108q0 53 44 95.5t116 42.5zM940 475q-41 0 -62.5 -21.5t-21.5 -52t25.5 -55t58.5 -24.5q35 0 59.5 23.5t24.5 55.5 q0 74 -84 74zM940 258q-45 0 -78 -28.5t-33 -71.5q0 -41 33 -70t78 -29q49 0 80 27t31 72t-31 72.5t-80 27.5z" glyph-name="fiveeighths" horiz-adv-x="1179" unicode="⅝"/><glyph d="M410 1436l-209 -535h-80l182 469h-248v66h355zM1030 1434l-880 -1434h-99l893 1434h86zM899 539q74 0 118 -41t44 -97q0 -70 -62 -108q88 -43 88 -135q0 -70 -55 -116t-133 -46q-76 0 -131 46t-55 116q0 92 88 135q-61 39 -62 108q0 53 44 95.5t116 42.5zM899 475 q-41 0 -62.5 -21.5t-21.5 -52t25.5 -55t58.5 -24.5q35 0 59.5 23.5t24.5 55.5q0 74 -84 74zM899 258q-45 0 -78 -28.5t-33 -71.5q0 -41 33 -70t78 -29q49 0 80 27t31 72t-31 72.5t-80 27.5z" glyph-name="seveneighths" horiz-adv-x="1138" unicode="⅞"/><glyph d="M332 1434h108l324 -455q2 -4 39 -54.5t48 -67.5t43 -66.5t44 -81t31.5 -79.5t27 -96.5t7.5 -97.5q0 -197 -134.5 -326.5t-328.5 -129.5q-193 0 -326 129t-133 321q0 190 137 319.5t324 129.5q131 0 243 -78zM541 788q-143 0 -255 -98t-112 -260q0 -160 110.5 -260 t256.5 -100q152 0 261 100t109 260q0 168 -103 263t-267 95z" glyph-name="partialdiff" horiz-adv-x="1085" unicode="∂"/><glyph d="M92 1638h1137v-2027h-86v1931h-965v-1931h-86v2027z" glyph-name="product" horiz-adv-x="1320" unicode="∏"/><glyph d="M1233 1638v-100h-973l512 -913l-512 -914h973v-100h-1141l563 1014l-563 1013h1141z" glyph-name="summation" horiz-adv-x="1325" unicode="∑"/><glyph d="M778 616v-75h-686v75h686z" glyph-name="minus" horiz-adv-x="870" unicode="−"/><glyph d="M1239 1638l-506 -2027h-96l-330 971h-215v94h283l305 -922l467 1884h92z" glyph-name="radical" horiz-adv-x="1331" unicode="√"/><glyph d="M1202 868q139 0 236.5 -95t97.5 -236q0 -145 -97.5 -241.5t-236.5 -96.5q-199 0 -387 262q-190 -262 -389 -262q-139 0 -236.5 96t-97.5 242q0 141 97.5 236t236.5 95q197 0 389 -256q188 256 387 256zM430 289q166 0 330 248q-162 242 -330 241q-102 0 -172 -69.5 t-70 -171.5q0 -104 70 -176t172 -72zM1196 289q104 0 174 71.5t70 176.5q0 102 -70 171.5t-174 69.5q-166 0 -328 -241q164 -248 328 -248z" glyph-name="infinity" horiz-adv-x="1628" unicode="∞"/><glyph d="M530 1638v-86q-106 0 -151 -48t-45 -179v-1399q0 -184 -72 -249.5t-221 -65.5v86q106 0 151.5 48t45.5 179v1399q0 184 71 249.5t221 65.5z" glyph-name="integral" horiz-adv-x="581" unicode="∫"/><glyph d="M295 842q76 0 135 -36t113.5 -71t115.5 -35q66 0 99 30t33 69h59q0 -90 -54.5 -135.5t-140.5 -45.5q-94 0 -196.5 73t-177.5 73q-68 0 -101 -36t-30 -75h-58q0 90 58.5 139.5t144.5 49.5zM295 514q76 0 135 -36t113.5 -70.5t115.5 -34.5q66 0 99 29.5t33 68.5h59 q0 -90 -54.5 -135t-140.5 -45q-94 0 -196.5 72.5t-177.5 72.5q-68 0 -101 -35.5t-30 -74.5h-58q0 90 58.5 139t144.5 49z" glyph-name="approxequal" horiz-adv-x="942" unicode="≈"/><glyph d="M778 705h-250l-98 -252h348v-76h-377l-147 -377h-84l147 377h-225v76h254l98 252h-352v75h381l143 369h84l-143 -369h221v-75z" glyph-name="notequal" horiz-adv-x="870" unicode="≠"/><glyph d="M797 1214v-86l-596 -360l596 -356v-90l-703 426v43zM797 76v-76h-686v76h686z" glyph-name="lessequal" horiz-adv-x="890" unicode="≤"/><glyph d="M94 1214l703 -423v-43l-703 -426v90l596 356l-596 360v86zM94 76h686v-76h-686v76z" glyph-name="greaterequal" horiz-adv-x="888" unicode="≥"/><glyph d="M528 1434l318 -717l-318 -717h-118l-318 717l318 717h118zM469 92l276 625l-276 624l-276 -624z" glyph-name="lozenge" horiz-adv-x="937" unicode="◊"/><glyph d="M1581 1434l123 -1434h-98l-105 1260l-557 -1260h-72l-557 1260l-104 -1260h-98l123 1434h98l575 -1295l574 1295h98z" glyph-name="M.aalt" horiz-adv-x="1816"/><glyph d="M217 1436v-97h-94v97h94zM236 1065v-1065h-95v1065h95z" glyph-name="i.aalt" horiz-adv-x="360"/><glyph d="M1096 981h-224v-807q0 -100 99 -100q59 0 121 30v-84q-72 -33 -140 -32q-78 0 -126 40t-48 119v834h-538v-981h-97v981h-102v84h102v100q0 307 281 308q113 0 209 -60l-37 -67q-68 39 -162 38q-92 0 -143 -49t-51 -172v-98h538v272h94v-272h224v-84z" glyph-name="f_t.dlig" horiz-adv-x="1177"/><glyph d="M1112 981h-223v-807q0 -100 98 -100q59 0 121 30v-84q-72 -33 -139 -32q-78 0 -126 40t-48 119v834h-494v-807q0 -100 98 -100q59 0 121 30v-84q-72 -33 -139 -32q-78 0 -126 40t-48 119v834h-146v84h146v272h94v-272h494v272h94v-272h223v-84z" glyph-name="t_t.dlig" horiz-adv-x="1196"/><glyph d="M641 1454q246 0 398.5 -198.5t152.5 -538.5t-152.5 -538.5t-398.5 -198.5t-397.5 198.5t-151.5 538.5t151.5 538.5t397.5 198.5zM641 1366q-203 0 -328 -174t-125 -475q0 -303 125 -475t328 -172q205 0 330 172t125 475q0 301 -126 475t-329 174z" glyph-name="zero.salt" horiz-adv-x="1284"/><glyph d="M717 1454q246 0 397.5 -198.5t151.5 -538.5t-151.5 -538.5t-397.5 -198.5t-397.5 198.5t-151.5 538.5t151.5 538.5t397.5 198.5zM717 1366q-203 0 -328 -174t-125 -475q0 -303 125 -475t328 -172t327.5 172t124.5 475q0 301 -124.5 475t-327.5 174z" glyph-name="zero.tnum" horiz-adv-x="1433"/><glyph d="M776 1434v-1434h-94v1341h-184v93h278z" glyph-name="one.tnum" horiz-adv-x="1433"/><glyph d="M700 1454q180 0 303 -114.5t123 -288.5q0 -47 -15 -97.5t-33.5 -88.5t-63.5 -99t-74 -96t-99.5 -117t-105.5 -123l-293 -344h682v-86h-843v31l381 446q29 35 83 95.5t76.5 87t60.5 72.5t54 70.5t38.5 61.5t32 63.5t16.5 58.5t7 65q0 141 -95 228t-234.5 87t-235.5 -92 t-96 -250v-33h-97v33q0 190 123 310t305 120z" glyph-name="two.tnum" horiz-adv-x="1433"/><glyph d="M311 319q45 -113 145.5 -182t241.5 -69q160 0 273.5 96t113.5 264q0 199 -141 290t-346 58l371 572h-672v86h823l-383 -580q180 4 312.5 -110.5t132.5 -315.5q0 -203 -139.5 -325.5t-342.5 -122.5q-172 0 -296.5 85t-172.5 222z" glyph-name="three.tnum" horiz-adv-x="1433"/><glyph d="M1141 494v-88h-154v-406h-96v406h-643v88l643 940h96v-940h154zM348 494h543v796z" glyph-name="four.tnum" horiz-adv-x="1433"/><glyph d="M1053 1434v-86h-607l-75 -529q131 145 348 146q190 0 334.5 -138.5t144.5 -353.5t-143.5 -354t-352.5 -139q-176 0 -295.5 81.5t-175.5 210.5l82 43q41 -104 141.5 -175.5t243.5 -71.5q170 0 288 113.5t118 291.5q0 176 -117 291t-280 115q-205 0 -347 -170l-88 20 l99 705h682z" glyph-name="five.tnum" horiz-adv-x="1433"/><glyph d="M932 1434l-455 -633q113 78 244 78q186 0 323.5 -129t137.5 -320q0 -193 -133.5 -321.5t-325.5 -128.5q-195 0 -329 130t-134 326q0 49 7 97.5t26.5 96.5t32 79.5t44 81t43 66.5t48.5 67.5t39 54.5l323 455h109zM723 788q-164 0 -267.5 -95t-103.5 -263 q0 -160 109.5 -260t261.5 -100q145 0 256 100t111 260q0 162 -112 260t-255 98z" glyph-name="six.tnum" horiz-adv-x="1433"/><glyph d="M1126 1434l-555 -1434h-96l524 1348h-696v86h823z" glyph-name="seven.tnum" horiz-adv-x="1433"/><glyph d="M895 797q121 -51 194.5 -153.5t73.5 -237.5q0 -188 -134 -307t-322.5 -119t-322.5 118.5t-134 307.5q0 135 73.5 237t196.5 154q-188 109 -188 309q0 145 102.5 246.5t272.5 101.5t272 -101.5t102 -246.5q0 -200 -186 -309zM422 1106q0 -115 82 -195t202.5 -80t202.5 80 t82 195q0 104 -76.5 183t-207.5 79q-129 0 -207 -79t-78 -183zM706.5 70q147.5 0 253 93t105.5 242.5t-103.5 244.5t-255 95t-255 -95t-103.5 -244.5t105.5 -242.5t253 -93z" glyph-name="eight.tnum" horiz-adv-x="1433"/><glyph d="M489 0l455 633q-113 -78 -244 -78q-186 0 -323 129t-137 320q0 193 133 321.5t325 128.5q195 0 329 -130t134 -327q0 -49 -7 -97t-26.5 -96t-32 -80t-44 -81t-43 -66.5t-48 -67.5t-38.5 -54l-324 -455h-109zM698 645q164 0 267.5 95.5t103.5 263.5q0 160 -109.5 260 t-261.5 100q-145 0 -255.5 -100.5t-110.5 -259.5q0 -162 111.5 -260.5t254.5 -98.5z" glyph-name="nine.tnum" horiz-adv-x="1433"/><glyph d="M266 539q96 0 155.5 -72t59.5 -186v-27q0 -115 -59.5 -186.5t-155.5 -71.5q-92 0 -153.5 71.5t-61.5 186.5v27q0 115 61.5 186.5t153.5 71.5zM266 475q-59 0 -99 -52t-40 -142v-27q0 -90 40 -142.5t99 -52.5q63 0 101.5 51.5t38.5 143.5v27q0 92 -38.5 143t-101.5 51z " glyph-name="zero.dnom" horiz-adv-x="532"/><glyph d="M199 535v-535h-76v453l-35 -23l-37 64l72 41h76z" glyph-name="one.dnom" horiz-adv-x="249"/><glyph d="M223 541q70 0 121 -46t51 -108q0 -53 -29.5 -96t-109.5 -125l-96 -100h241v-66h-344v66l140 141q57 59 74.5 78.5t31.5 46t14 55.5q0 37 -28.5 63.5t-65.5 26.5q-39 0 -67.5 -26.5t-28.5 -75.5v-29h-76v29q0 72 50 119t122 47z" glyph-name="two.dnom" horiz-adv-x="452"/><glyph d="M238 539q66 0 114.5 -42t48.5 -98q0 -66 -61 -108q86 -37 86 -135q0 -70 -56.5 -117t-131.5 -47q-82 0 -136.5 55t-50.5 131h78q0 -49 29.5 -85t79.5 -36q45 0 77.5 28t32.5 71q0 98 -151 98v59q129 0 129 86q0 33 -26 54.5t-62 21.5q-45 0 -71 -29.5t-26 -83.5h-75 q-2 78 47 127.5t125 49.5z" glyph-name="three.dnom" horiz-adv-x="477"/><glyph d="M397 535v-316h56v-63h-56v-156h-75v156h-271l271 379h75zM322 414l-134 -195h134v195z" glyph-name="four.dnom" horiz-adv-x="503"/><glyph d="M381 535v-66h-213l-16 -119q45 20 92 21q72 0 129 -54.5t57 -134.5t-57.5 -135t-136.5 -55q-68 0 -120.5 38t-64.5 89l68 39q4 -41 35.5 -71t81.5 -30q47 0 81.5 36t34.5 89q0 51 -33.5 87t-74.5 36q-72 0 -117 -59l-66 16l37 273h283z" glyph-name="five.dnom" horiz-adv-x="481"/><glyph d="M356 535l-139 -197h12q70 0 123.5 -51t53.5 -121q0 -72 -53.5 -123t-123 -51t-124 51t-54.5 123q0 33 11.5 64.5t20.5 47t36.5 51.5t34.5 44l116 162h86zM229 272q-45 0 -73.5 -28.5t-28.5 -77.5q0 -47 31.5 -78t70.5 -31q37 0 69 31t32 78t-31 76.5t-70 29.5z" glyph-name="six.dnom" horiz-adv-x="456"/><glyph d="M406 535l-209 -535h-80l182 469h-248v66h355z" glyph-name="seven.dnom" horiz-adv-x="456"/><glyph d="M238 539q74 0 117.5 -41t43.5 -97q0 -70 -61 -108q88 -43 88 -135q0 -70 -55.5 -116t-132.5 -46q-76 0 -131.5 46t-55.5 116q0 92 88 135q-61 39 -61 108q0 53 44 95.5t116 42.5zM238 475q-41 0 -62.5 -21.5t-21.5 -52t25.5 -55t58.5 -24.5q37 0 60.5 23.5t23.5 55.5 q0 74 -84 74zM238 258q-45 0 -78 -28.5t-33 -71.5q0 -41 33 -70t78 -29q49 0 79.5 27t30.5 72t-30.5 72.5t-79.5 27.5z" glyph-name="eight.dnom" horiz-adv-x="477"/><glyph d="M229.5 541q69.5 0 124 -50.5t54.5 -121.5q0 -27 -5.5 -49.5t-18.5 -46t-21.5 -37t-30 -40t-29.5 -36.5l-115 -160h-88l140 195h-11q-72 0 -125 52t-53 122q0 72 54.5 122t124 50zM229 475q-39 0 -70.5 -30.5t-31.5 -75.5q0 -47 31.5 -78t70.5 -31q45 0 73 29.5t28 79.5 q0 45 -32 75.5t-69 30.5z" glyph-name="nine.dnom" horiz-adv-x="458"/><glyph d="M266 1440q96 0 155.5 -72t59.5 -186v-27q0 -115 -59.5 -186.5t-155.5 -71.5q-92 0 -153.5 71.5t-61.5 186.5v27q0 115 61.5 186.5t153.5 71.5zM266 1376q-59 0 -99 -52t-40 -142v-27q0 -90 40 -142t99 -52q63 0 101.5 51t38.5 143v27q0 92 -38.5 143t-101.5 51z" glyph-name="zero.numr" horiz-adv-x="532"/><glyph d="M199 1436v-535h-76v453l-35 -23l-37 64l72 41h76z" glyph-name="one.numr" horiz-adv-x="249"/><glyph d="M223 1442q70 0 121 -46t51 -108q0 -53 -29.5 -96t-109.5 -125l-96 -100h241v-66h-344v66l140 141q57 59 74.5 78.5t31.5 46.5t14 55q0 37 -28.5 63.5t-65.5 26.5q-39 0 -67.5 -26.5t-28.5 -75.5v-29h-76v29q0 72 50 119t122 47z" glyph-name="two.numr" horiz-adv-x="452"/><glyph d="M238 1440q66 0 114.5 -42t48.5 -98q0 -66 -61 -108q86 -37 86 -135q0 -70 -56.5 -117t-131.5 -47q-82 0 -136.5 55.5t-50.5 130.5h78q0 -49 29.5 -85t79.5 -36q45 0 77.5 28t32.5 71q0 98 -151 98v59q129 0 129 86q0 33 -26 54.5t-62 21.5q-45 0 -71 -29.5t-26 -82.5h-75 q-2 78 47 127t125 49z" glyph-name="three.numr" horiz-adv-x="477"/><glyph d="M397 1436v-316h56v-63h-56v-156h-75v156h-271l271 379h75zM322 1315l-134 -195h134v195z" glyph-name="four.numr" horiz-adv-x="503"/><glyph d="M381 1436v-66h-213l-16 -119q45 20 92 21q72 0 129 -54.5t57 -134t-57.5 -135t-136.5 -55.5q-68 0 -120.5 38t-64.5 89l68 39q4 -41 35.5 -71t81.5 -30q47 0 81.5 36t34.5 89q0 51 -33.5 87t-74.5 36q-72 0 -117 -59l-66 16l37 273h283z" glyph-name="five.numr" horiz-adv-x="481"/><glyph d="M356 1436l-139 -197h12q70 0 123.5 -51t53.5 -121q0 -72 -53.5 -123t-123 -51t-124 51t-54.5 123q0 33 11.5 64.5t20.5 47t36.5 51.5t34.5 44l116 162h86zM229 1174q-45 0 -73.5 -29t-28.5 -78q0 -47 31.5 -78t70.5 -31q37 0 69 31t32 78t-31 77t-70 30z" glyph-name="six.numr" horiz-adv-x="456"/><glyph d="M406 1436l-209 -535h-80l182 469h-248v66h355z" glyph-name="seven.numr" horiz-adv-x="456"/><glyph d="M238 1440q74 0 117.5 -41t43.5 -96q0 -70 -61 -109q88 -43 88 -135q0 -70 -55.5 -116t-132.5 -46q-76 0 -131.5 46t-55.5 116q0 92 88 135q-61 39 -61 109q0 53 44 95t116 42zM238 1376q-41 0 -62.5 -21.5t-21.5 -52t25.5 -55t58.5 -24.5q37 0 60.5 23.5t23.5 56.5 q0 73 -84 73zM238 1159q-45 0 -78 -28.5t-33 -71.5q0 -41 33 -69.5t78 -28.5q49 0 79.5 26.5t30.5 71.5t-30.5 72.5t-79.5 27.5z" glyph-name="eight.numr" horiz-adv-x="477"/><glyph d="M229.5 1442q69.5 0 124 -50.5t54.5 -121.5q0 -27 -5.5 -49.5t-18.5 -46t-21.5 -37t-30 -40t-29.5 -36.5l-115 -160h-88l140 195h-11q-72 0 -125 52t-53 122q0 72 54.5 122t124 50zM229 1376q-39 0 -70.5 -30.5t-31.5 -75.5q0 -47 31.5 -78t70.5 -31q45 0 73 30t28 79 q0 45 -32 75.5t-69 30.5z" glyph-name="nine.numr" horiz-adv-x="458"/></font>
</defs>
</svg>
