<?xml version="1.0" standalone="no"?>
<!DOCTYPE svg PUBLIC "-//W3C//DTD SVG 1.1//EN" "http://www.w3.org/Graphics/SVG/1.1/DTD/svg11.dtd">
<svg xmlns="http://www.w3.org/2000/svg"><metadata>This SVG WebFont was generated by YouWorkForThem.
© 2016 Connary Fagen</metadata><defs><font horiz-adv-x="1292" id="ywftsvg"><font-face ascent="1638" bbox="-700 -639 2415 2025" cap-height="1434" descent="-410" font-family="" font-stretch="normal" font-weight="800" panose-1="0 0 9 0 0 0 0 0 0 0" underline-position="0" underline-thickness="0" unicode-range="U+0020-FB02" units-per-em="2048" x-height="1065"/><missing-glyph d="M831 1638v-2027h-643v2027h643zM676 1503h-336v-67h133v-76h-135v-66h338v66h-135v76h135v67zM541 1241h-203v-211h338v70h-135v141zM473 1171v-71h-67v71h67zM676 975h-338v-66h135v-75h-135v-68h203v143h135v66zM676 854h-68v-133h-270v-70h338v203zM676 606h-203v-112 h68v45h67v-95h-202v162h-68v-229h338v229zM676 256h-338v-229h338v229zM608 188v-94h-202v94h202zM676 -20h-338v-66h143l-143 -96v-68h338v68h-207l141 96h66v66z" horiz-adv-x="1013"/><glyph d="M735 1202q-47 20 -110 21q-125 0 -144 -121l-4 -37h238l-23 -242h-237l-90 -823h-293l90 823h-142l23 242h141l4 47q12 113 57.5 189.5t109 109.5t116.5 45t111 12q104 0 178 -28zM877 1169l30 279h293l-29 -279h-294zM754 0l112 1065h293l-112 -1065h-293z" glyph-name="uniFB01" horiz-adv-x="1257" unicode="fi"/><glyph d="M627 1223q-127 0 -146 -121l-4 -37h238l-23 -242h-237l-90 -823h-293l90 823h-142l23 242h141l4 47q12 113 57.5 189.5t109 109.5t116.5 45t111 12q162 0 268 -71l-111 -199q-44 25 -112 25zM975 1448h293l-154 -1448h-293z" glyph-name="uniFB02" horiz-adv-x="1325" unicode="fl"/><glyph d="M1393 1223q-127 0 -146 -121l-4 -37h238l-23 -242h-237l-91 -823h-292l90 823h-473l-90 -823h-293l90 823h-142l23 242h141l4 47q12 113 57.5 189.5t109 109.5t116.5 45t111 12q162 0 268 -71l-111 -199q-45 25 -112 25q-127 0 -146 -121l-4 -37h473l4 47 q12 113 57.5 189.5t109 109.5t116.5 45t111 12q162 0 268 -71l-111 -199q-44 25 -112 25z" glyph-name="f_f.liga" horiz-adv-x="1626" unicode="ff"/><glyph d="M831 1638v-2027h-643v2027h643zM676 1503h-336v-67h133v-76h-135v-66h338v66h-135v76h135v67zM541 1241h-203v-211h338v70h-135v141zM473 1171v-71h-67v71h67zM676 975h-338v-66h135v-75h-135v-68h203v143h135v66zM676 854h-68v-133h-270v-70h338v203zM676 606h-203v-112 h68v45h67v-95h-202v162h-68v-229h338v229zM676 256h-338v-229h338v229zM608 188v-94h-202v94h202zM676 -20h-338v-66h143l-143 -96v-68h338v68h-207l141 96h66v66z" glyph-name=".notdef" horiz-adv-x="1013"/><glyph glyph-name="glyph1" horiz-adv-x="0"/><glyph glyph-name="glyph2" horiz-adv-x="681"/><glyph glyph-name="space" horiz-adv-x="567" unicode=" "/><glyph d="M487 1434l-102 -967h-336l103 967h335zM180 -10q-74 0 -120 52t-37 128q6 63 56 108.5t114 45.5q74 0 121.5 -53.5t37.5 -127.5q-6 -63 -56 -108t-116 -45z" glyph-name="exclam" horiz-adv-x="569" unicode="!"/><glyph d="M408 1434l-89 -482h-213l9 482h293zM801 1434l-88 -482h-213l8 482h293z" glyph-name="quotedbl" horiz-adv-x="829" unicode="&quot;"/><glyph d="M1008 809h-105l-33 -184h117l-26 -256h-136l-65 -369h-299l65 369h-135l-65 -369h-299l65 369h-74l27 256h92l33 184h-104l26 256h123l66 369h299l-66 -369h135l66 369h299l-66 -369h86zM571 625l33 184h-135l-33 -184h135z" glyph-name="numbersign" horiz-adv-x="1126" unicode="#"/><glyph d="M653 846q203 -78 296 -177.5t93 -232.5q0 -197 -142 -318.5t-339 -144.5l-16 -157h-148l17 157q-162 20 -275.5 117.5t-150.5 237.5l239 112q63 -170 215 -196l41 387l-24 8q-164 61 -255 149.5t-91 241.5q0 180 135 296t321 130l17 164h147l-18 -170q248 -43 368 -293 l-231 -123q-72 117 -164 146zM403 1040q0 -53 25 -84.5t82 -56.5l31 289q-61 -12 -99.5 -51.5t-38.5 -96.5zM590 252q145 39 145 180q0 84 -110 139z" glyph-name="dollar" horiz-adv-x="1169" unicode="$"/><glyph d="M354 1444q111 0 180.5 -77t57.5 -189q-10 -100 -88 -169t-180 -69q-111 0 -180.5 77t-57.5 189q10 100 88 169t180 69zM1051 1440l223 -150l-1000 -1290l-225 147zM344 1255q-29 0 -49.5 -22.5t-18.5 -54.5q2 -20 18.5 -35t39.5 -15q29 0 49 23t18 55q-2 20 -18 34.5 t-39 14.5zM1030 494q111 0 181.5 -78t56.5 -189q-10 -100 -87 -168.5t-180 -68.5q-111 0 -181 77.5t-56 188.5q10 100 87 169t179 69zM1020 305q-29 0 -49.5 -22.5t-18.5 -55.5q4 -20 21.5 -34.5t38.5 -14.5q29 0 49 22.5t18 55.5q-2 20 -19 34.5t-40 14.5z" glyph-name="percent" horiz-adv-x="1429" unicode="%"/><glyph d="M1294 246q70 0 133 35l-24 -244q-68 -47 -158 -47q-123 0 -179 68.5t-40 181.5l2 30q-152 -295 -479 -295q-205 0 -351.5 116t-146.5 327q0 104 37 189t97.5 141.5t126 91t137.5 53.5l-218 541h899l-28 -256h-494l197 -484h-103q-154 0 -253 -65.5t-99 -179.5 q0 -98 74 -158t178 -60q119 0 223.5 74t120.5 227l37 347h449l-27 -244h-160l-31 -281q-10 -108 80 -108z" glyph-name="ampersand" horiz-adv-x="1525" unicode="&amp;"/><glyph d="M408 1434l-89 -482h-213l9 482h293z" glyph-name="quotesingle" horiz-adv-x="436" unicode="'"/><glyph d="M645 1520q-248 -385 -301 -879q-53 -516 107 -913l-277 12q-182 397 -121 930q47 496 301 862z" glyph-name="parenleft" horiz-adv-x="700" unicode="("/><glyph d="M150 1532l276 -12q186 -371 129 -879q-51 -524 -309 -913l-291 12q250 401 305 930q54 485 -110 862z" glyph-name="parenright" horiz-adv-x="702" unicode=")"/><glyph d="M940 1114l-199 -55l117 -176l-223 -131l-103 170l-139 -170l-203 131l152 176l-182 55l80 246l213 -62l18 228h240l-25 -228l217 62z" glyph-name="asterisk" horiz-adv-x="1089" unicode="*"/><glyph d="M729 666l-18 -181h-254l-27 -252h-180l26 252h-249l18 181h252l27 252h180l-27 -252h252z" glyph-name="plus" horiz-adv-x="858" unicode="+"/><glyph d="M-121 -231l252 548h254l-246 -548h-260z" glyph-name="comma" horiz-adv-x="532" unicode=","/><glyph d="M694 684l-24 -246h-635l24 246h635z" glyph-name="hyphen" horiz-adv-x="823" unicode="-"/><glyph d="M127 -20q-68 0 -113 45t-45 114q0 74 49.5 124t120.5 50q70 0 116 -46t46 -117q0 -74 -50 -122t-124 -48z" glyph-name="period" horiz-adv-x="466" unicode="."/><glyph d="M1137 1526l-885 -1792h-313l884 1792h314z" glyph-name="slash" horiz-adv-x="1167" unicode="/"/><glyph d="M858 1454q289 0 484.5 -187.5t195.5 -480.5q0 -336 -240.5 -571t-572.5 -235q-291 0 -484.5 185t-193.5 478q0 338 239.5 574.5t571.5 236.5zM741 250q188 0 343 144.5t155 369.5q0 178 -115.5 299t-283.5 121q-188 0 -340 -146.5t-152 -371.5q0 -178 113.5 -297 t279.5 -119z" glyph-name="zero" horiz-adv-x="1658" unicode="0"/><glyph d="M682 1434l-152 -1434h-299l125 1180h-243l26 254h543z" glyph-name="one" horiz-adv-x="786" unicode="1"/><glyph d="M633 1454q213 0 335 -117.5t122 -292.5q0 -147 -67 -249.5t-288 -333.5q-41 -43 -63 -66l-129 -135h465l-27 -260h-995l2 41l413 448q23 25 107 114t112.5 123t79 99.5t68.5 114.5t18 96q0 86 -51 120t-114 34q-74 0 -135.5 -50t-79.5 -165l-7 -35h-305l4 45 q16 201 156.5 335t378.5 134z" glyph-name="two" horiz-adv-x="1181" unicode="2"/><glyph d="M238 424q76 -188 260 -188q121 0 198.5 75.5t77.5 194.5q0 96 -65.5 155.5t-188.5 59.5q-55 0 -168 -23l328 480h-522l26 256h951l-387 -529q139 -18 230 -127.5t91 -263.5q0 -229 -166 -381.5t-416 -152.5q-186 0 -312 87t-177 228z" glyph-name="three" horiz-adv-x="1218" unicode="3"/><glyph d="M1096 573l-27 -256h-154l-32 -317h-299l32 317h-614l25 256l704 861h303l-92 -861h154zM336 573h307l53 463z" glyph-name="four" horiz-adv-x="1228" unicode="4"/><glyph d="M1020 1434l-27 -256h-512l-65 -244l22 10q20 10 72.5 23.5t114.5 13.5q186 0 325.5 -127t139.5 -326q0 -248 -171 -398t-403 -150q-186 0 -322.5 85t-179.5 218l242 116q61 -158 250 -157q45 0 91 14t92 44t75 87t29 133q0 109 -68 161t-156 52q-129 0 -227 -98l-244 84 l172 715h750z" glyph-name="five" horiz-adv-x="1216" unicode="5"/><glyph d="M1001 1434l-479 -541q8 6 51 6q170 0 296 -128t126 -304q0 -221 -152.5 -354t-377.5 -133q-184 0 -318.5 120.5t-134.5 309.5q0 104 45 210.5t92.5 172t143.5 182.5l397 459h311zM516 643q-100 0 -163.5 -65.5t-63.5 -153.5t58.5 -140.5t141.5 -52.5q106 0 167 65.5 t61 156.5q0 82 -55.5 136t-145.5 54z" glyph-name="six" horiz-adv-x="1130" unicode="6"/><glyph d="M1053 1434l-748 -1434h-297l623 1178h-557l26 256h953z" glyph-name="seven" horiz-adv-x="1081" unicode="7"/><glyph d="M870 815q82 -43 135.5 -132t53.5 -202q0 -225 -174 -363t-385 -138q-197 0 -340.5 117.5t-143.5 316.5q0 135 75 245.5t194 165.5q-100 88 -101 226q0 160 124 281.5t325 121.5q180 0 287.5 -100.5t107.5 -249.5q0 -174 -158 -289zM457 1051q0 -57 32.5 -91t94.5 -34 q72 0 116.5 44t44.5 103q0 57 -37.5 89t-93.5 32q-66 0 -111.5 -41t-45.5 -102zM514 244q102 0 170 68.5t68 170.5q0 86 -56.5 134.5t-132.5 48.5q-109 0 -175 -75t-66 -161q0 -88 53 -137t139 -49z" glyph-name="eight" horiz-adv-x="1206" unicode="8"/><glyph d="M86 0l479 541q-8 -6 -51 -6q-170 0 -296 128t-126 304q0 221 152.5 354t378.5 133q184 0 318 -121t134 -309q0 -150 -70.5 -275.5t-209.5 -289.5l-398 -459h-311zM571 791q100 0 164 65.5t64 153.5t-58.5 140t-142.5 52q-106 0 -166.5 -65.5t-60.5 -155.5q0 -82 55 -136 t145 -54z" glyph-name="nine" horiz-adv-x="1150" unicode="9"/><glyph d="M227 733q-68 0 -112.5 45t-44.5 115q0 74 49 124t121 50q70 0 115.5 -46t45.5 -118q0 -74 -50 -122t-124 -48zM147 -20q-68 0 -112.5 45t-44.5 114q0 74 49 124t121 50q70 0 116 -46t46 -117q0 -74 -50.5 -122t-124.5 -48z" glyph-name="colon" horiz-adv-x="489" unicode=":"/><glyph d="M313 733q-68 0 -112.5 45t-44.5 115q0 74 49 124t121 50q70 0 115.5 -46t45.5 -118q0 -74 -50 -122t-124 -48zM-121 -231l252 548h254l-246 -548h-260z" glyph-name="semicolon" horiz-adv-x="575" unicode=";"/><glyph d="M930 985l-29 -276l-457 -217l410 -213l-29 -279l-805 446l11 93z" glyph-name="less" horiz-adv-x="1005" unicode="&lt;"/><glyph d="M750 858l-25 -246h-686l24 246h687zM715 510l-27 -246h-686l27 246h686z" glyph-name="equal" horiz-adv-x="806" unicode="="/><glyph d="M59 985l809 -446l-10 -93l-903 -446l29 279l458 213l-413 217z" glyph-name="greater" horiz-adv-x="1009" unicode=">"/><glyph d="M614 1454q205 0 341.5 -124t111.5 -326q-10 -92 -47 -155t-84 -97.5t-94 -68.5t-82 -88t-41 -134v-4h-303v14q4 100 41 171t87 112t100 75.5t88 85t44 117.5q2 29 -8 62.5t-52 68.5t-114 35q-106 0 -160.5 -66.5t-64.5 -140.5h-295q23 217 172 340t360 123zM547 -10 q-74 0 -121 52t-39 128q8 63 57.5 108.5t114.5 45.5q74 0 121 -52.5t39 -128.5q-8 -63 -58.5 -108t-113.5 -45z" glyph-name="question" horiz-adv-x="1138" unicode="?"/><glyph d="M870 1454q268 0 462 -177t194 -460q0 -205 -98.5 -331t-272.5 -126q-51 0 -92 9.5t-62.5 23t-35 29.5t-17.5 27.5t-4 19.5q-12 -33 -62.5 -70t-133.5 -37q-123 0 -213.5 83t-90.5 237q0 104 38 183t95.5 120t115 59.5t108.5 18.5q37 0 85 -17.5t60 -41.5l39 45h158 l-43 -394q-2 -8 -2 -22q0 -63 57 -64q61 0 88 82t27 174q0 180 -116 287t-286 107q-238 0 -400.5 -157t-162.5 -400q0 -199 129 -323t295 -124q49 0 91 5t67.5 11.5t56.5 20.5t42 21.5t40 26.5t35 24l213 -103q-92 -113 -233.5 -177t-301.5 -64q-274 0 -482 194.5 t-208 495.5q0 219 119 401t306 282.5t396 100.5zM797 840q-61 0 -93 -47.5t-32 -108.5q0 -39 21.5 -68.5t66.5 -29.5q51 0 90 41t39 123q0 39 -24.5 64.5t-67.5 25.5z" glyph-name="at" horiz-adv-x="1642" unicode="@"/><glyph d="M1133 0l-80 256h-670l-135 -256h-324l776 1434h271l473 -1434h-311zM514 500h455l-166 567z" glyph-name="A" horiz-adv-x="1591" unicode="A"/><glyph d="M883 793q106 -33 180 -123t74 -219q0 -221 -150.5 -336t-411.5 -115h-569l152 1434h528q199 0 306.5 -95.5t107.5 -240.5q0 -117 -62.5 -192.5t-154.5 -112.5zM643 1171h-213l-33 -288h201q96 0 149.5 48t53.5 126q0 114 -158 114zM580 262q127 0 196.5 59.5t69.5 157.5 q0 162 -230 162h-243l-37 -379h244z" glyph-name="B" horiz-adv-x="1271" unicode="B"/><glyph d="M1229 147q-207 -168 -502 -167q-289 0 -484.5 185t-195.5 478q0 338 241.5 574.5t573.5 236.5q283 0 469 -176l-203 -195q-119 90 -266 91q-205 0 -356.5 -145.5t-151.5 -379.5q0 -172 118 -280.5t294 -108.5q164 0 305 109z" glyph-name="C" horiz-adv-x="1382" unicode="C"/><glyph d="M664 1434q305 0 495.5 -211t161.5 -510q-33 -301 -262.5 -507t-534.5 -206h-518l152 1434h506zM541 283q199 0 327.5 130t149.5 326q20 172 -79 292t-296 120h-217l-90 -868h205z" glyph-name="D" horiz-adv-x="1439" unicode="D"/><glyph d="M336 274h606l-31 -274h-905l152 1434h886l-30 -275h-588l-29 -303h443l-29 -270h-444z" glyph-name="E" horiz-adv-x="1114" unicode="E"/><glyph d="M1026 1161h-600l-33 -313h494l-27 -256h-493l-62 -592h-299l152 1434h899z" glyph-name="F" horiz-adv-x="1085" unicode="F"/><glyph d="M809 772h623q6 -180 -48.5 -331.5t-150.5 -251t-226 -154.5t-276 -55q-291 0 -487.5 185t-196.5 478q0 338 241.5 574.5t573.5 236.5q283 0 469 -176l-203 -195q-119 90 -266 91q-207 0 -357.5 -146.5t-150.5 -378.5q0 -168 114 -278.5t288 -110.5q135 0 237.5 65.5 t139.5 202.5h-351z" glyph-name="G" horiz-adv-x="1558" unicode="G"/><glyph d="M1034 1434h299l-151 -1434h-299l59 580h-577l-60 -580h-299l152 1434h299l-62 -580h578z" glyph-name="H" horiz-adv-x="1413" unicode="H"/><glyph d="M457 1434l-152 -1434h-299l152 1434h299z" glyph-name="I" horiz-adv-x="536" unicode="I"/><glyph d="M1044 1434l-100 -955q-14 -135 -73.5 -236.5t-144.5 -157.5t-173 -83t-176 -27q-268 0 -414 203l199 209q94 -123 227 -123q88 0 166 57.5t96 206.5l94 906h299z" glyph-name="J" horiz-adv-x="1124" unicode="J"/><glyph d="M928 0l-377 614l-201 -202l-45 -412h-299l152 1434h299l-68 -623l596 623h373l-604 -613l512 -821h-338z" glyph-name="K" horiz-adv-x="1433" unicode="K"/><glyph d="M336 274h561l-29 -274h-862l152 1434h299z" glyph-name="L" horiz-adv-x="1048" unicode="L"/><glyph d="M1677 1434l-151 -1434h-299l84 752l-410 -752h-246l-266 748l-84 -748h-299l152 1434h286l367 -1018l569 1018h297z" glyph-name="M" horiz-adv-x="1757" unicode="M"/><glyph d="M1096 1434h299l-152 -1434h-225l-615 891l-98 -891h-299l152 1434h229l610 -893z" glyph-name="N" horiz-adv-x="1474" unicode="N"/><glyph d="M858 1454q289 0 484.5 -187.5t195.5 -480.5q0 -336 -240.5 -571t-572.5 -235q-291 0 -484.5 185t-193.5 478q0 338 239.5 574.5t571.5 236.5zM741 260q188 0 338 139.5t150 364.5q0 178 -110.5 294t-278.5 116q-188 0 -335 -141.5t-147 -366.5q0 -178 108.5 -292 t274.5 -114z" glyph-name="O" horiz-adv-x="1658" unicode="O"/><glyph d="M653 1434q242 0 375 -138.5t107 -363.5q-20 -211 -175 -333t-397 -122h-207l-51 -477h-299l152 1434h495zM561 735q256 0 279 226q23 199 -224 198h-190l-43 -424h178z" glyph-name="P" horiz-adv-x="1218" unicode="P"/><glyph d="M1538 786q0 -340 -248 -577l135 -209h-344l-30 47q-158 -68 -326 -67q-291 0 -484.5 185t-193.5 478q0 338 239.5 574.5t571.5 236.5q289 0 484.5 -187.5t195.5 -480.5zM745 260q78 0 150 27l-233 360h346l122 -190q98 135 99 307q0 178 -111.5 294t-279.5 116 q-186 0 -333 -141.5t-147 -366.5q0 -178 109.5 -292t277.5 -114z" glyph-name="Q" horiz-adv-x="1658" unicode="Q"/><glyph d="M1130 0h-309l-252 477h-213l-51 -477h-299l152 1434h495q242 0 375 -138.5t107 -363.5q-29 -287 -289 -406zM383 735h178q256 0 279 226q23 199 -224 198h-190z" glyph-name="R" horiz-adv-x="1318" unicode="R"/><glyph d="M618 1458q174 0 290 -88t175 -213l-231 -123q-51 84 -111.5 122t-144.5 38q-80 0 -136.5 -41t-56.5 -113q0 -61 33 -94t113 -61l92 -35q209 -78 305 -178.5t96 -235.5q0 -145 -85 -254.5t-208.5 -161t-261.5 -51.5q-190 0 -325 101.5t-174 257.5l239 112 q72 -201 269 -200q104 0 171.5 49t67.5 143q0 57 -43 95t-149 79l-84 33q-164 61 -255 149.5t-91 241.5q0 195 153 311.5t352 116.5z" glyph-name="S" horiz-adv-x="1169" unicode="S"/><glyph d="M1124 1434l-28 -275h-351l-120 -1159h-299l120 1159h-348l31 275h995z" glyph-name="T" horiz-adv-x="1163" unicode="T"/><glyph d="M961 1434h299l-97 -920q-27 -252 -198.5 -398.5t-403.5 -146.5q-238 0 -386 152.5t-122 404.5l97 908h299l-97 -920q-14 -143 50.5 -203.5t166.5 -60.5q111 0 195 64.5t100 209.5z" glyph-name="U" horiz-adv-x="1339" unicode="U"/><glyph d="M1280 1434h324l-777 -1434h-270l-473 1434h311l332 -1067z" glyph-name="V" horiz-adv-x="1601" unicode="V"/><glyph d="M2122 1434l-623 -1434h-215l-244 911l-422 -911h-215l-319 1434h309l185 -859l399 859h235l224 -859l366 859h320z" glyph-name="W" horiz-adv-x="2119" unicode="W"/><glyph d="M1286 0h-346l-258 465l-358 -465h-359l563 725l-399 709h346l252 -449l344 449h359l-549 -709z" glyph-name="X" horiz-adv-x="1464" unicode="X"/><glyph d="M1493 1434l-633 -824l-67 -610h-299l67 610l-457 824h332l297 -553l416 553h344z" glyph-name="Y" horiz-adv-x="1511" unicode="Y"/><glyph d="M1251 1434l-788 -1178h670l-27 -256h-1151l788 1178h-622l26 256h1104z" glyph-name="Z" horiz-adv-x="1282" unicode="Z"/><glyph d="M592 1526l-27 -256h-151l-133 -1280h151l-29 -256h-450l188 1792h451z" glyph-name="bracketleft" horiz-adv-x="634" unicode="["/><glyph d="M127 1526h301l508 -1792h-301z" glyph-name="backslash" horiz-adv-x="1153" unicode="\"/><glyph d="M139 1526h451l-189 -1792h-450l29 256h151l133 1280h-151z" glyph-name="bracketright" horiz-adv-x="632" unicode="]"/><glyph d="M627 1434l293 -461h-195l-197 192l-241 -192h-209l391 461h158z" glyph-name="asciicircum" horiz-adv-x="1026" unicode="^"/><glyph d="M1004 0l-29 -256h-1024l29 256h1024z" glyph-name="underscore" horiz-adv-x="1208" unicode="_"/><glyph d="M98 1516h359l157 -326h-223z" glyph-name="grave" horiz-adv-x="548" unicode="`"/><glyph d="M901 1065h293l-113 -1065h-293l17 125q-12 -43 -98 -94t-207 -51q-188 0 -334 130t-146 363q0 254 169 432t407 178q86 0 156.5 -31.5t99.5 -62.5t31 -47zM565 240q106 0 200.5 80.5t94.5 250.5q0 121 -74.5 186.5t-177.5 65.5q-129 0 -214 -92t-85 -233 q0 -125 72.5 -191.5t183.5 -66.5z" glyph-name="a" unicode="a"/><glyph d="M694 1085q182 0 325.5 -133t143.5 -372q0 -246 -170 -423t-407 -177q-113 0 -193 54t-92 97l-18 -131h-293l153 1448h293l-55 -498q2 14 36 45t110.5 60.5t166.5 29.5zM567 240q117 0 214.5 81.5t97.5 249.5q0 121 -74 187.5t-176 66.5q-139 0 -220 -97t-81 -243 q0 -117 71.5 -181t167.5 -64z" glyph-name="b" horiz-adv-x="1284" unicode="b"/><glyph d="M627 1085q313 0 436 -260l-234 -98q-84 98 -213 98t-220 -93t-91 -245q0 -121 70.5 -186t177.5 -65q74 0 126 26.5t109 79.5l222 -115q-176 -248 -480 -247q-123 0 -235.5 52t-193.5 171t-81 282q0 254 179.5 427t427.5 173z" glyph-name="c" horiz-adv-x="1153" unicode="c"/><glyph d="M942 1448h293l-154 -1448h-293l17 125q-12 -43 -98 -94t-207 -51q-188 0 -334 130t-146 363q0 254 169 433t407 179q86 0 155.5 -31.5t99.5 -62t32 -47.5zM565 240q106 0 200.5 80.5t94.5 250.5q0 121 -73.5 187.5t-178.5 66.5q-129 0 -214 -92t-85 -235 q0 -125 72.5 -191.5t183.5 -66.5z" glyph-name="d" unicode="d"/><glyph d="M629 1085q113 0 217 -46t181 -158.5t77 -270.5q0 -92 -21 -186h-780q39 -201 270 -201q66 0 119 12.5t81 25.5t73 40l141 -158q-160 -164 -434 -163q-211 0 -372 132t-161 365q0 252 182.5 430t426.5 178zM623 836q-94 0 -173 -52.5t-120 -150.5h520q-12 102 -74.5 152.5 t-152.5 50.5z" glyph-name="e" horiz-adv-x="1224" unicode="e"/><glyph d="M627 1223q-127 0 -146 -121l-4 -37h238l-23 -242h-237l-90 -823h-293l90 823h-142l23 242h141l4 47q12 113 57.5 189.5t109 109.5t116.5 45t111 12q162 0 268 -71l-111 -199q-44 25 -112 25z" glyph-name="f" horiz-adv-x="860" unicode="f"/><glyph d="M901 1065h293l-113 -1065q-12 -117 -72.5 -203t-148.5 -132t-178 -66.5t-182 -20.5q-178 0 -291 62l18 235q88 -53 275 -53q133 0 204.5 53t81.5 125l17 125q-12 -43 -98 -94t-207 -51q-188 0 -334 130t-146 363q0 254 169 433t407 179q86 0 156.5 -31.5t99.5 -63.5 t31 -48zM565 240q106 0 200.5 80.5t94.5 250.5q0 121 -73.5 187.5t-178.5 66.5q-129 0 -214 -92t-85 -235q0 -125 72.5 -191.5t183.5 -66.5z" glyph-name="g" unicode="g"/><glyph d="M735 1085q168 0 275.5 -119.5t81.5 -357.5l-66 -608h-293l64 598q27 231 -166 231q-106 0 -182 -73.5t-95 -137.5l-71 -618h-293l153 1448h293l-61 -574q27 66 125 138.5t235 72.5z" glyph-name="h" horiz-adv-x="1239" unicode="h"/><glyph d="M113 1169l30 279h293l-28 -279h-295zM-10 0l112 1065h293l-112 -1065h-293z" glyph-name="i" horiz-adv-x="493" unicode="i"/><glyph d="M160 1169l28 279h295l-30 -279h-293zM-25 -422q-133 0 -231 55l18 281q70 -35 148 -35q111 0 127 121l110 1065h295l-125 -1171q-16 -158 -106.5 -237t-235.5 -79z" glyph-name="j" horiz-adv-x="540" unicode="j"/><glyph d="M737 0l-317 426l-96 -86l-41 -340h-293l153 1448h293l-82 -752l379 369h359l-478 -447l453 -618h-330z" glyph-name="k" horiz-adv-x="1204" unicode="k"/><glyph d="M436 1448l-153 -1448h-293l153 1448h293z" glyph-name="l" horiz-adv-x="493" unicode="l"/><glyph d="M1493 1085q182 0 291.5 -128t83.5 -379l-62 -578h-293l64 582q12 117 -34 182t-148 65q-106 0 -182 -69.5t-105 -165.5l-64 -594h-292l63 582q12 113 -40 180t-152.5 67t-174 -67.5t-102.5 -167.5l-63 -594h-293l112 1065h293l-20 -201q14 63 105 142t229 79 q119 0 220 -63.5t148 -175.5q41 80 149.5 159.5t266.5 79.5z" glyph-name="m" horiz-adv-x="2017" unicode="m"/><glyph d="M735 1085q168 0 275.5 -119.5t81.5 -357.5l-66 -608h-293l64 598q27 231 -166 231q-106 0 -182 -73.5t-95 -137.5l-71 -618h-293l112 1065h293l-20 -191q27 66 125 138.5t235 72.5z" glyph-name="n" horiz-adv-x="1239" unicode="n"/><glyph d="M629 1085q197 0 355.5 -135t158.5 -372q0 -254 -179.5 -426t-431.5 -172q-123 0 -236.5 53t-194.5 172t-81 280q0 254 179.5 427t429.5 173zM549 240q127 0 218 89t91 240q0 123 -74.5 189.5t-171.5 66.5q-125 0 -216 -90t-91 -241q0 -121 74 -187.5t170 -66.5z" glyph-name="o" horiz-adv-x="1263" unicode="o"/><glyph d="M684 1085q207 0 354.5 -150.5t120.5 -414.5q-14 -133 -71.5 -239.5t-140.5 -170t-175 -97t-184 -33.5q-127 0 -206 57t-79 100l-61 -526h-293l67 627l86 827h293l-14 -113q6 16 40 45t107.5 58.5t155.5 29.5zM879 547q12 131 -58.5 204.5t-185.5 73.5q-117 0 -206 -80.5 t-103 -224.5q-14 -133 51 -206.5t174 -73.5q123 0 217.5 81t110.5 226z" glyph-name="p" horiz-adv-x="1286" unicode="p"/><glyph d="M901 1065h293l-113 -1065l-41 -389h-292l57 516q-10 -43 -97 -95t-208 -52q-190 0 -335 130t-145 363q0 254 169 433t407 179q86 0 156.5 -31.5t99.5 -63.5t31 -48zM549 240q51 0 101 17t99.5 54t80 109t30.5 168q0 115 -63.5 176t-163.5 61q-141 0 -235.5 -99 t-94.5 -245q0 -115 71 -178t175 -63z" glyph-name="q" unicode="q"/><glyph d="M754 1083q33 0 90 -8l-29 -278q-27 6 -65 6q-154 0 -272 -100.5t-146 -253.5l-49 -449h-293l112 1065h293l-30 -256q51 125 154.5 199.5t234.5 74.5z" glyph-name="r" horiz-adv-x="878" unicode="r"/><glyph d="M584 752q-35 100 -129 100q-51 0 -82 -28.5t-31 -65.5q0 -53 74 -86l125 -45q66 -25 103.5 -44.5t83.5 -53t67.5 -82t21.5 -111.5q0 -166 -133 -261t-313 -95q-158 0 -272.5 81.5t-133.5 219.5l236 61q37 -131 174 -131q68 0 109.5 31.5t41.5 76.5q0 57 -71 84l-121 46 q-279 100 -279 309q0 143 116 235t282 92q152 0 247 -74.5t127 -203.5z" glyph-name="s" horiz-adv-x="952" unicode="s"/><glyph d="M694 823h-227l-47 -471q-12 -109 72 -108q49 0 151 18l-20 -239q-82 -35 -220 -35q-145 0 -222 82t-56 290l49 463h-149l22 242h150l26 250h293l-27 -250h228z" glyph-name="t" horiz-adv-x="784" unicode="t"/><glyph d="M393 -20q-168 0 -275.5 120.5t-82.5 356.5l61 608h293l-61 -598q-14 -123 37 -177t137 -54q109 0 177.5 73.5t92.5 157.5l68 598h293l-113 -1065h-293l25 195q-31 -70 -126.5 -142.5t-232.5 -72.5z" glyph-name="u" horiz-adv-x="1230" unicode="u"/><glyph d="M1253 1069l-583 -1069h-256l-359 1069h287l233 -717l379 717h299z" glyph-name="v" horiz-adv-x="1300" unicode="v"/><glyph d="M1573 1069h299l-492 -1069h-280l-172 725l-326 -725h-280l-267 1069h287l158 -717l329 717h256l185 -717z" glyph-name="w" horiz-adv-x="1918" unicode="w"/><glyph d="M764 0l-199 332l-276 -332h-344l467 547l-310 518h328l170 -307l236 307h340l-426 -518l346 -547h-332z" glyph-name="x" horiz-adv-x="1271" unicode="x"/><glyph d="M967 1069h299l-805 -1458h-299l246 428l-353 1030h287l240 -717z" glyph-name="y" horiz-adv-x="1312" unicode="y"/><glyph d="M1067 1065l-629 -809h508l-26 -256h-986l629 809h-489l26 256h967z" glyph-name="z" horiz-adv-x="1114" unicode="z"/><glyph d="M676 1526l-27 -256h-65q-33 0 -58.5 -18.5t-27.5 -49.5l-41 -436l-133 -139l96 -135l-43 -445q-6 -57 61 -57h78l-29 -256h-204q-57 0 -104.5 16.5t-84.5 72.5t-26 148l59 510l-80 146l103 149l57 522q29 227 252 228h217z" glyph-name="braceleft" horiz-adv-x="718" unicode="{"/><glyph d="M469 1638l-213 -2027h-256l213 2027h256z" glyph-name="bar" horiz-adv-x="563" unicode="|"/><glyph d="M141 1526h205q90 0 157.5 -52.5t53.5 -185.5l-57 -512l82 -149l-105 -146l-57 -520q-27 -227 -250 -227h-217l29 256h65q33 0 56.5 18.5t25.5 48.5l43 435l133 135l-96 139l45 446q2 31 -13.5 44.5t-47.5 13.5h-78z" glyph-name="braceright" horiz-adv-x="718" unicode="}"/><glyph d="M322 770q90 0 225 -72.5t201 -72.5q29 0 63.5 17t36.5 36l106 -10q-12 -115 -84.5 -192t-199.5 -77q-88 0 -223.5 84t-208.5 84q-29 0 -63 -22.5t-36 -48.5l-104 10q14 117 85 190.5t202 73.5z" glyph-name="asciitilde" horiz-adv-x="1089" unicode="~"/><glyph d="M276 1075q74 0 120 -52t38 -128q-6 -63 -56 -108.5t-114 -45.5q-74 0 -122 53.5t-38 127.5q6 63 56 108t116 45zM-31 -369l103 967h336l-103 -967h-336z" glyph-name="exclamdown" horiz-adv-x="569" unicode="¡"/><glyph d="M633 428q80 16 176 100l221 -114q-158 -223 -424 -246l-18 -168h-137l18 172q-176 27 -302 157t-126 343q0 238 157.5 405.5t385.5 190.5l18 166h137l-18 -166q256 -33 362 -256l-233 -99q-68 78 -156 95zM326 674q0 -96 47 -158.5t123 -83.5l61 569 q-102 -27 -166.5 -114.5t-64.5 -212.5z" glyph-name="cent" horiz-adv-x="1155" unicode="¢"/><glyph d="M1108 934h-277q10 47 11 84q0 68 -42 119t-151 51q-125 0 -182 -66.5t-57 -158.5q0 -76 55 -191h346l-25 -215h-251v-12q0 -86 -46.5 -170t-111.5 -121l653 2l-26 -256h-1016l24 258q37 16 72 37.5t78 58.5t68.5 88.5t25.5 110.5v4h-217l24 215h119q-51 123 -51 221 q0 207 162 331t383 124q199 0 326.5 -101.5t127.5 -267.5q1 -47 -22 -145z" glyph-name="sterling" horiz-adv-x="1216" unicode="£"/><glyph d="M1028 961q-10 -104 -55 -183l84 -88l-193 -178l-76 80q-117 -76 -256 -76q-131 0 -241 76l-88 -80l-168 178l98 92q-31 104 -20 207q14 115 65 195l-82 88l193 176l76 -80q119 66 243 66q141 0 244 -74l96 88l168 -176l-112 -107q32 -91 24 -204zM350 961q-6 -37 4.5 -80 t56.5 -84t124 -41q66 0 116.5 25.5t79.5 64.5t44.5 75.5t17.5 67.5q4 37 -6.5 79t-57.5 84t-127 42q-63 0 -113.5 -25.5t-78 -65.5t-42 -75.5t-18.5 -66.5z" glyph-name="currency" horiz-adv-x="1163" unicode="¤"/><glyph d="M860 610l-2 -24h272l-20 -195h-274l-9 -69h279l-21 -197h-278l-14 -125h-299l14 125h-266l22 197h264l9 69h-271l23 195h270l2 24l-457 824h332l297 -553l416 553h344z" glyph-name="yen" horiz-adv-x="1511" unicode="¥"/><glyph d="M469 1638l-59 -573h-256l59 573h256zM317 184l-61 -573h-256l61 573h256z" glyph-name="brokenbar" horiz-adv-x="563" unicode="¦"/><glyph d="M1073 1157h-266l20 152q-10 25 -60 45t-120 20q-98 0 -158.5 -45t-60.5 -121q0 -98 127 -145l176 -66q162 -61 243 -153t81 -236q0 -205 -154 -321q78 -94 78 -232q0 -209 -160 -326.5t-409 -117.5q-176 0 -298 57.5t-180 126.5l43 307h267l-21 -157q63 -70 193 -70 q119 0 187.5 54.5t68.5 140.5q0 55 -31 87.5t-102 57.5l-164 61q-311 119 -312 379q0 203 158 324q-80 96 -80 229q0 201 149.5 315.5t368.5 114.5q160 0 297.5 -60t163.5 -118zM748 623q0 55 -32 87.5t-104 57.5l-133 51q-127 -47 -127 -164q0 -98 127 -145l158 -59 q111 59 111 172z" glyph-name="section" horiz-adv-x="1163" unicode="§"/><glyph d="M365 1436l-27 -254h-270l26 254h271zM860 1436l-26 -254h-271l27 254h270z" glyph-name="dieresis" horiz-adv-x="765" unicode="¨"/><glyph d="M838 1448q268 0 463.5 -186.5t195.5 -479.5q0 -328 -229.5 -562t-562.5 -234q-268 0 -463 185t-195 476q0 332 228.5 566.5t562.5 234.5zM711 238q229 0 381.5 161.5t152.5 382.5q0 180 -119.5 297t-294.5 117q-215 0 -373.5 -148.5t-158.5 -396.5q0 -180 119 -296.5 t293 -116.5zM768 584q57 0 113 41l131 -172q-86 -109 -258 -109q-141 0 -239.5 93t-98.5 243q0 176 119.5 293t277.5 117q172 0 250 -119l-152 -152q-35 31 -94 31t-107 -48t-48 -108q0 -43 31.5 -76.5t74.5 -33.5z" glyph-name="copyright" horiz-adv-x="1617" unicode="©"/><glyph d="M446 1466q147 0 220 -86t59 -243l-20 -197q-6 -63 0 -95t34 -81h-174q-33 27 -37 86q-78 -86 -206 -86q-115 0 -184.5 55t-69.5 152q0 109 89 167t220 64l147 17q6 41 -22.5 61t-77.5 20q-96 0 -203 -73l-86 123q125 116 311 116zM510 1065l-139 -14q-109 -8 -109 -74 q0 -53 80 -53q98 0 162 112z" glyph-name="ordfeminine" horiz-adv-x="870" unicode="ª"/><glyph d="M84 526l8 113l340 307l80 -94l-227 -268l172 -269l-101 -96zM451 526l8 113l340 307l80 -94l-228 -268l172 -269l-100 -96z" glyph-name="guillemotleft" horiz-adv-x="894" unicode="«"/><glyph d="M932 618l-39 -380h-299l14 135h-588l25 245h887z" glyph-name="logicalnot" horiz-adv-x="1071" unicode="¬"/><glyph d="M686 684l-24 -246h-635l24 246h635z" glyph-name="uni00AD" horiz-adv-x="819" unicode="­"/><glyph d="M838 1448q268 0 463.5 -186.5t195.5 -479.5q0 -328 -229.5 -562t-562.5 -234q-268 0 -463 185t-195 476q0 332 228.5 566.5t562.5 234.5zM711 238q229 0 381.5 161.5t152.5 382.5q0 180 -119.5 297t-294.5 117q-215 0 -373.5 -148.5t-158.5 -396.5q0 -180 119 -296.5 t293 -116.5zM780 1075q131 0 203 -66.5t61 -168.5q-14 -141 -147 -211l137 -254h-182l-125 250h-47l-25 -250h-178l74 700h229zM795 922h-90l-17 -154h80q86 0 100 90q2 33 -18 48.5t-55 15.5z" glyph-name="registered" horiz-adv-x="1617" unicode="®"/><glyph d="M813 1434l-27 -242h-774l27 242h774z" glyph-name="macron" horiz-adv-x="774" unicode="¯"/><glyph d="M383 1473q111 0 181.5 -78t56.5 -189q-10 -100 -88 -168.5t-181 -68.5q-111 0 -181.5 77.5t-55.5 188.5q10 100 88 169t180 69zM373 1284q-29 0 -49.5 -22.5t-18.5 -55.5q2 -20 18.5 -34.5t38.5 -14.5q29 0 49.5 22.5t18.5 55.5q-2 20 -18 34.5t-39 14.5z" glyph-name="degree" horiz-adv-x="589" unicode="°"/><glyph d="M502 717h235l-24 -246h-236l-22 -205h-246l22 205h-204l24 246h205l27 235h245zM-25 2l27 246h686l-26 -246h-687z" glyph-name="plusminus" horiz-adv-x="862" unicode="±"/><glyph d="M305 1442q72 0 119 -48t41 -110q-6 -53 -40 -96t-120 -123l-108 -98h241l-6 -66h-344l6 66l152 143q10 8 28.5 25.5t24.5 23.5t20.5 19.5t18.5 19.5t14 16.5t13.5 15.5t8.5 14t7 15.5t5 15.5t3 17q2 37 -21.5 61.5t-60.5 24.5q-41 0 -73.5 -27.5t-36.5 -76.5l-4 -27h-76 l4 31q8 72 61 118t123 46z" glyph-name="uni00B2" horiz-adv-x="536" unicode="²"/><glyph d="M297 1440q68 0 114 -43t40 -101q-6 -66 -74 -106q35 -14 56.5 -50t15.5 -87q-6 -68 -65.5 -114t-135.5 -46q-84 0 -132 56.5t-38 131.5l78 -4q-6 -49 18.5 -84t71.5 -35t85 29t42 74q6 53 -30 73.5t-110 20.5l3 59q131 0 139 91q2 31 -19.5 51t-56.5 20 q-45 0 -75.5 -29.5t-37.5 -84.5l-75 4q8 78 60 126t126 48z" glyph-name="uni00B3" horiz-adv-x="536" unicode="³"/><glyph d="M586 1516l-293 -326h-223l157 326h359z" glyph-name="acute" horiz-adv-x="483" unicode="´"/><glyph d="M842 1065h293l-113 -1065h-293l25 190q-35 -66 -129.5 -136t-225.5 -70q-63 0 -116 -15l-45 -358h-293l153 1454h293l-61 -598q-14 -125 22.5 -176t120.5 -51q106 0 189 76.5t112 150.5z" glyph-name="uni00B5" horiz-adv-x="1232" unicode="µ"/><glyph d="M188 961q23 213 179.5 343t396.5 130h506l-152 -1434h-299l51 477h-196q-244 0 -376.5 130.5t-109.5 353.5zM1475 1434h299l-152 -1434h-299zM940 1159h-178q-250 0 -279 -227q-23 -197 224 -197h190z" glyph-name="paragraph" horiz-adv-x="1878" unicode="¶"/><glyph d="M180 401q-74 0 -121 52.5t-39 128.5q8 63 58.5 108t114.5 45q74 0 120.5 -52t38.5 -128q-8 -63 -57 -108.5t-115 -45.5z" glyph-name="periodcentered" horiz-adv-x="548" unicode="·"/><glyph d="M182 -86q176 -45 176 -176q0 -82 -69.5 -133t-171 -57.5t-213.5 18.5l26 69q98 -20 159 9.5t61 87.5q0 53 -44.5 76.5t-97.5 -9.5l-88 82l105 119h272z" glyph-name="cedilla" horiz-adv-x="442" unicode="¸"/><glyph d="M293 1436l-55 -535h-76l49 453l-37 -23l-33 64l76 41h76z" glyph-name="uni00B9" horiz-adv-x="401" unicode="¹"/><glyph d="M438 1444q119 0 211 -85t92 -224q0 -162 -111.5 -261.5t-240.5 -99.5q-121 0 -215 85t-94 226q0 158 113.5 258.5t244.5 100.5zM426 1251q-59 0 -107.5 -45t-48.5 -112q0 -57 38 -93t91 -36q59 0 105.5 47t46.5 116q0 55 -38 89t-87 34z" glyph-name="ordmasculine" horiz-adv-x="802" unicode="º"/><glyph d="M457 639l-8 -113l-340 -307l-80 94l227 269l-172 268l100 96zM823 639l-8 -113l-340 -307l-80 94l228 269l-172 268l100 96z" glyph-name="guillemotright" horiz-adv-x="894" unicode="»"/><glyph d="M246 1436l-56 -535h-75l47 453l-35 -23l-33 64l76 41h76zM1071 1434l-1032 -1434h-98l1044 1434h86zM1006 535l-33 -316h55l-8 -63h-55l-17 -156h-76l17 156h-271l312 379h76zM918 414l-154 -195h133z" glyph-name="onequarter" horiz-adv-x="1167" unicode="¼"/><glyph d="M246 1436l-56 -535h-75l47 453l-35 -23l-33 64l76 41h76zM1071 1434l-1032 -1434h-98l1044 1434h86zM827 541q72 0 119 -48.5t41 -109.5q-6 -53 -40 -96t-120 -123l-108 -98h242l-9 -66h-344l8 66l152 143q109 102 125 133q14 23 16 49q4 37 -19.5 61.5t-60.5 24.5 q-41 0 -73.5 -27.5t-38.5 -76.5l-2 -27h-76l4 31q8 72 61 118t123 46z" glyph-name="onehalf" horiz-adv-x="1116" unicode="½"/><glyph d="M274 1440q68 0 113 -43t39 -101q-6 -66 -72 -106q80 -35 72 -137q-8 -68 -67.5 -114t-135.5 -46q-84 0 -132 56.5t-38 131.5l78 -4q-4 -49 20.5 -84t71.5 -35t84 29t41 74q6 53 -29.5 73.5t-109.5 20.5l2 59q131 0 141 91q2 31 -20.5 51t-57.5 20q-45 0 -75.5 -29.5 t-36.5 -84.5l-74 4q6 78 59 126t127 48zM1126 1434l-1030 -1434h-98l1042 1434h86zM1040 535l-32 -316h55l-6 -63h-56l-16 -156h-76l17 156h-271l310 379h75zM952 414l-153 -195h133z" glyph-name="threequarters" horiz-adv-x="1202" unicode="¾"/><glyph d="M500 1075q74 0 121 -52t38 -128q-8 -63 -57 -108.5t-115 -45.5q-74 0 -121 52.5t-38 128.5q8 63 58.5 108t113.5 45zM432 -389q-205 0 -341 124t-111 326q10 92 46.5 155t84 97.5t94.5 68.5t82 88t41 134v4h303v-14q-4 -100 -41 -171t-87 -112t-100.5 -75.5t-88.5 -85 t-44 -117.5q-2 -29 8.5 -62.5t52.5 -68.5t113 -35q106 0 160.5 66.5t65.5 140.5h295q-23 -217 -172.5 -340t-360.5 -123z" glyph-name="questiondown" horiz-adv-x="1138" unicode="¿"/><glyph d="M459 1884h358l158 -325h-223zM1133 0l-80 256h-670l-135 -256h-324l776 1434h271l473 -1434h-311zM514 500h455l-166 567z" glyph-name="Agrave" horiz-adv-x="1591" unicode="À"/><glyph d="M1253 1884l-292 -325h-224l158 325h358zM1133 0l-80 256h-670l-135 -256h-324l776 1434h271l473 -1434h-311zM514 500h455l-166 567z" glyph-name="Aacute" horiz-adv-x="1591" unicode="Á"/><glyph d="M948 1935l234 -315l-99 -86l-211 213l-249 -213l-78 86l293 315h110zM1133 0l-80 256h-670l-135 -256h-324l776 1434h271l473 -1434h-311zM514 500h455l-166 567z" glyph-name="Acircumflex" horiz-adv-x="1591" unicode="Â"/><glyph d="M715 1903q82 0 199.5 -72t160.5 -72q33 0 67 15.5t36 33.5l110 -12q-12 -115 -80.5 -191.5t-181.5 -76.5q-63 0 -134 41t-132.5 83t-104.5 42q-33 0 -66.5 -20.5t-35.5 -47.5l-107 10q12 117 81 192t188 75zM1133 0l-80 256h-670l-135 -256h-324l776 1434h271l473 -1434 h-311zM514 500h455l-166 567z" glyph-name="Atilde" horiz-adv-x="1591" unicode="Ã"/><glyph d="M770 1804l-27 -254h-270l27 254h270zM1266 1804l-27 -254h-270l26 254h271zM1133 0l-80 256h-670l-135 -256h-324l776 1434h271l473 -1434h-311zM514 500h455l-166 567z" glyph-name="Adieresis" horiz-adv-x="1591" unicode="Ä"/><glyph d="M891 2025q90 0 154.5 -64.5t64.5 -154.5q0 -98 -74.5 -171.5t-175.5 -73.5q-92 0 -155.5 63.5t-63.5 153.5q0 100 75 173.5t175 73.5zM881 1847q-25 0 -40.5 -16t-15.5 -43q0 -16 13.5 -29.5t31.5 -13.5q25 0 41.5 17.5t16.5 43.5q0 16 -15.5 28.5t-31.5 12.5zM1133 0 l-80 256h-670l-135 -256h-324l776 1434h271l473 -1434h-311zM514 500h455l-166 567z" glyph-name="Aring" horiz-adv-x="1591" unicode="Å"/><glyph d="M1255 274h607l-29 -274h-905l37 375h-410l-293 -375h-338l1133 1434h909l-31 -275h-587l-31 -303h444l-30 -270h-443zM760 631h233l41 346z" glyph-name="AE" horiz-adv-x="2033" unicode="Æ"/><glyph d="M1229 147q-180 -147 -432 -165l-90 -68q176 -45 176 -176q0 -82 -70 -133t-171 -57.5t-214 18.5l27 69q98 -20 158.5 9.5t60.5 87.5q0 53 -44 76.5t-98 -9.5l-88 82l105 119q-223 53 -362.5 226t-139.5 417q0 338 241.5 574.5t573.5 236.5q283 0 469 -176l-203 -195 q-119 90 -266 91q-205 0 -356.5 -145.5t-151.5 -379.5q0 -172 118 -280.5t294 -108.5q164 0 305 109z" glyph-name="Ccedilla" horiz-adv-x="1382" unicode="Ç"/><glyph d="M240 1884h358l158 -325h-224zM336 274h606l-31 -274h-905l152 1434h886l-30 -275h-588l-29 -303h443l-29 -270h-444z" glyph-name="Egrave" horiz-adv-x="1114" unicode="È"/><glyph d="M1034 1884l-293 -325h-223l158 325h358zM336 274h606l-31 -274h-905l152 1434h886l-30 -275h-588l-29 -303h443l-29 -270h-444z" glyph-name="Eacute" horiz-adv-x="1114" unicode="É"/><glyph d="M729 1935l234 -315l-99 -86l-211 213l-250 -213l-77 86l292 315h111zM336 274h606l-31 -274h-905l152 1434h886l-30 -275h-588l-29 -303h443l-29 -270h-444z" glyph-name="Ecircumflex" horiz-adv-x="1114" unicode="Ê"/><glyph d="M551 1804l-27 -254h-270l27 254h270zM1047 1804l-27 -254h-270l26 254h271zM336 274h606l-31 -274h-905l152 1434h886l-30 -275h-588l-29 -303h443l-29 -270h-444z" glyph-name="Edieresis" horiz-adv-x="1114" unicode="Ë"/><glyph d="M-74 1884h359l157 -325h-223zM457 1434l-152 -1434h-299l152 1434h299z" glyph-name="Igrave" horiz-adv-x="536" unicode="Ì"/><glyph d="M721 1884l-293 -325h-223l157 325h359zM457 1434l-152 -1434h-299l152 1434h299z" glyph-name="Iacute" horiz-adv-x="536" unicode="Í"/><glyph d="M416 1935l233 -315l-98 -86l-211 213l-250 -213l-78 86l293 315h111zM457 1434l-152 -1434h-299l152 1434h299z" glyph-name="Icircumflex" horiz-adv-x="536" unicode="Î"/><glyph d="M238 1804l-27 -254h-270l26 254h271zM733 1804l-26 -254h-271l27 254h270zM457 1434l-152 -1434h-299l152 1434h299z" glyph-name="Idieresis" horiz-adv-x="536" unicode="Ï"/><glyph d="M842 1434q305 0 495.5 -211t159.5 -510q-33 -301 -262 -507t-535 -206h-516l62 578h-119l25 245h118l66 611h506zM719 283q199 0 328 130t149 326q18 172 -80 292t-295 120h-217l-35 -328h217l-24 -245h-217l-33 -295h207z" glyph-name="Eth" horiz-adv-x="1615" unicode="Ð"/><glyph d="M653 1903q82 0 200 -72t161 -72q33 0 66.5 15.5t35.5 33.5l111 -12q-12 -115 -81 -191.5t-181 -76.5q-63 0 -134 41t-132.5 83t-104.5 42q-33 0 -66.5 -20.5t-35.5 -47.5l-107 10q12 117 80.5 192t187.5 75zM1096 1434h299l-152 -1434h-225l-615 891l-98 -891h-299 l152 1434h229l610 -893z" glyph-name="Ntilde" horiz-adv-x="1474" unicode="Ñ"/><glyph d="M483 1884h359l157 -325h-223zM858 1454q289 0 484.5 -187.5t195.5 -480.5q0 -336 -240.5 -571t-572.5 -235q-291 0 -484.5 185t-193.5 478q0 338 239.5 574.5t571.5 236.5zM741 260q188 0 338 139.5t150 364.5q0 178 -110.5 294t-278.5 116q-188 0 -335 -141.5 t-147 -366.5q0 -178 108.5 -292t274.5 -114z" glyph-name="Ograve" horiz-adv-x="1658" unicode="Ò"/><glyph d="M1278 1884l-293 -325h-223l158 325h358zM858 1454q289 0 484.5 -187.5t195.5 -480.5q0 -336 -240.5 -571t-572.5 -235q-291 0 -484.5 185t-193.5 478q0 338 239.5 574.5t571.5 236.5zM741 260q188 0 338 139.5t150 364.5q0 178 -110.5 294t-278.5 116q-188 0 -335 -141.5 t-147 -366.5q0 -178 108.5 -292t274.5 -114z" glyph-name="Oacute" horiz-adv-x="1658" unicode="Ó"/><glyph d="M973 1935l233 -315l-98 -86l-211 213l-250 -213l-78 86l293 315h111zM858 1454q289 0 484.5 -187.5t195.5 -480.5q0 -336 -240.5 -571t-572.5 -235q-291 0 -484.5 185t-193.5 478q0 338 239.5 574.5t571.5 236.5zM741 260q188 0 338 139.5t150 364.5q0 178 -110.5 294 t-278.5 116q-188 0 -335 -141.5t-147 -366.5q0 -178 108.5 -292t274.5 -114z" glyph-name="Ocircumflex" horiz-adv-x="1658" unicode="Ô"/><glyph d="M739 1903q82 0 200 -72t161 -72q33 0 66.5 15.5t35.5 33.5l111 -12q-12 -115 -81 -191.5t-181 -76.5q-63 0 -134 41t-132.5 83t-104.5 42q-33 0 -66.5 -20.5t-35.5 -47.5l-107 10q12 117 80.5 192t187.5 75zM858 1454q289 0 484.5 -187.5t195.5 -480.5 q0 -336 -240.5 -571t-572.5 -235q-291 0 -484.5 185t-193.5 478q0 338 239.5 574.5t571.5 236.5zM741 260q188 0 338 139.5t150 364.5q0 178 -110.5 294t-278.5 116q-188 0 -335 -141.5t-147 -366.5q0 -178 108.5 -292t274.5 -114z" glyph-name="Otilde" horiz-adv-x="1658" unicode="Õ"/><glyph d="M795 1804l-27 -254h-270l26 254h271zM1290 1804l-26 -254h-271l27 254h270zM858 1454q289 0 484.5 -187.5t195.5 -480.5q0 -336 -240.5 -571t-572.5 -235q-291 0 -484.5 185t-193.5 478q0 338 239.5 574.5t571.5 236.5zM741 260q188 0 338 139.5t150 364.5 q0 178 -110.5 294t-278.5 116q-188 0 -335 -141.5t-147 -366.5q0 -178 108.5 -292t274.5 -114z" glyph-name="Odieresis" horiz-adv-x="1658" unicode="Ö"/><glyph d="M739 733l-174 -158l137 -151l-194 -176l-135 153l-170 -153l-158 172l172 155l-143 162l194 172l142 -157l172 157z" glyph-name="multiply" horiz-adv-x="811" unicode="×"/><glyph d="M1300 1305q127 -98 190.5 -253t43.5 -350q-33 -313 -270.5 -517.5t-538.5 -204.5q-88 0 -176 20l-62 -102h-342l140 225q-129 102 -191.5 260t-42.5 348q33 313 269.5 518t537.5 205q88 0 180 -20l58 92h342zM358 702q-20 -188 74 -317l469 797q-41 -8 -51 -8 q-186 0 -329 -134.5t-163 -337.5zM733 260q186 0 329.5 134t164.5 337q16 195 -74 311l-467 -790q6 0 23.5 4t23.5 4z" glyph-name="Oslash" horiz-adv-x="1658" unicode="Ø"/><glyph d="M324 1884h358l158 -325h-224zM961 1434h299l-97 -920q-27 -252 -198.5 -398.5t-403.5 -146.5q-238 0 -386 152.5t-122 404.5l97 908h299l-97 -920q-14 -143 50.5 -203.5t166.5 -60.5q111 0 195 64.5t100 209.5z" glyph-name="Ugrave" horiz-adv-x="1339" unicode="Ù"/><glyph d="M1118 1884l-293 -325h-223l158 325h358zM961 1434h299l-97 -920q-27 -252 -198.5 -398.5t-403.5 -146.5q-238 0 -386 152.5t-122 404.5l97 908h299l-97 -920q-14 -143 50.5 -203.5t166.5 -60.5q111 0 195 64.5t100 209.5z" glyph-name="Uacute" horiz-adv-x="1339" unicode="Ú"/><glyph d="M813 1935l234 -315l-99 -86l-211 213l-250 -213l-77 86l292 315h111zM961 1434h299l-97 -920q-27 -252 -198.5 -398.5t-403.5 -146.5q-238 0 -386 152.5t-122 404.5l97 908h299l-97 -920q-14 -143 50.5 -203.5t166.5 -60.5q111 0 195 64.5t100 209.5z" glyph-name="Ucircumflex" horiz-adv-x="1339" unicode="Û"/><glyph d="M635 1804l-27 -254h-270l27 254h270zM1130 1804l-26 -254h-270l26 254h270zM961 1434h299l-97 -920q-27 -252 -198.5 -398.5t-403.5 -146.5q-238 0 -386 152.5t-122 404.5l97 908h299l-97 -920q-14 -143 50.5 -203.5t166.5 -60.5q111 0 195 64.5t100 209.5z" glyph-name="Udieresis" horiz-adv-x="1339" unicode="Ü"/><glyph d="M1208 1884l-293 -325h-223l158 325h358zM1493 1434l-633 -824l-67 -610h-299l67 610l-457 824h332l297 -553l416 553h344z" glyph-name="Yacute" horiz-adv-x="1511" unicode="Ý"/><glyph d="M692 1157q262 0 411.5 -125t129 -325.5t-186 -311t-434.5 -110.5h-276l-31 -285h-299l152 1434h299l-29 -277h264zM631 541q10 0 49 -1t52 0t46 4t47.5 11t38 21.5t34.5 35t22.5 52t15.5 71.5q6 59 -7.5 96t-53 51.5t-68.5 16.5t-92 2h-33h-281l-39 -360h269z" glyph-name="Thorn" horiz-adv-x="1337" unicode="Þ"/><glyph d="M686 1434q219 0 356.5 -88.5t137.5 -262.5q0 -129 -75 -205.5t-175 -93.5q125 -12 197.5 -104t72.5 -244q0 -436 -590 -436h-147l26 256h142q272 0 272 197q0 193 -287 192h-84l27 238h74q248 0 248 161q0 133 -199 134q-141 0 -204.5 -50.5t-78.5 -179.5l-100 -948h-293 l103 958q49 476 577 476z" glyph-name="germandbls" horiz-adv-x="1335" unicode="ß"/><glyph d="M784 1190h-223l-293 326h359zM901 1065h293l-113 -1065h-293l17 125q-12 -43 -98 -94t-207 -51q-188 0 -334 130t-146 363q0 254 169 432t407 178q86 0 156.5 -31.5t99.5 -62.5t31 -47zM565 240q106 0 200.5 80.5t94.5 250.5q0 121 -74.5 186.5t-177.5 65.5 q-129 0 -214 -92t-85 -233q0 -125 72.5 -191.5t183.5 -66.5z" glyph-name="agrave" unicode="à"/><glyph d="M1063 1516l-293 -326h-223l158 326h358zM901 1065h293l-113 -1065h-293l17 125q-12 -43 -98 -94t-207 -51q-188 0 -334 130t-146 363q0 254 169 432t407 178q86 0 156.5 -31.5t99.5 -62.5t31 -47zM565 240q106 0 200.5 80.5t94.5 250.5q0 121 -74.5 186.5t-177.5 65.5 q-129 0 -214 -92t-85 -233q0 -125 72.5 -191.5t183.5 -66.5z" glyph-name="aacute" unicode="á"/><glyph d="M682 1378l-250 -213l-78 86l293 316h111l233 -316l-98 -86zM901 1065h293l-113 -1065h-293l17 125q-12 -43 -98 -94t-207 -51q-188 0 -334 130t-146 363q0 254 169 432t407 178q86 0 156.5 -31.5t99.5 -62.5t31 -47zM565 240q106 0 200.5 80.5t94.5 250.5 q0 121 -74.5 186.5t-177.5 65.5q-129 0 -214 -92t-85 -233q0 -125 72.5 -191.5t183.5 -66.5z" glyph-name="acircumflex" unicode="â"/><glyph d="M465 1325q-31 0 -65.5 -20.5t-37.5 -47.5l-106 11q12 117 81 191.5t187 74.5q82 0 200 -71.5t161 -71.5q33 0 66.5 15t35.5 34l111 -13q-12 -115 -81 -191.5t-181 -76.5q-63 0 -134 41t-132.5 83t-104.5 42zM901 1065h293l-113 -1065h-293l17 125q-12 -43 -98 -94 t-207 -51q-188 0 -334 130t-146 363q0 254 169 432t407 178q86 0 156.5 -31.5t99.5 -62.5t31 -47zM565 240q106 0 200.5 80.5t94.5 250.5q0 121 -74.5 186.5t-177.5 65.5q-129 0 -214 -92t-85 -233q0 -125 72.5 -191.5t183.5 -66.5z" glyph-name="atilde" unicode="ã"/><glyph d="M580 1436l-27 -254h-270l26 254h271zM1075 1436l-26 -254h-271l27 254h270zM901 1065h293l-113 -1065h-293l17 125q-12 -43 -98 -94t-207 -51q-188 0 -334 130t-146 363q0 254 169 432t407 178q86 0 156.5 -31.5t99.5 -62.5t31 -47zM565 240q106 0 200.5 80.5t94.5 250.5 q0 121 -74.5 186.5t-177.5 65.5q-129 0 -214 -92t-85 -233q0 -125 72.5 -191.5t183.5 -66.5z" glyph-name="adieresis" unicode="ä"/><glyph d="M670 1192q-92 0 -155.5 63.5t-63.5 153.5q0 100 74.5 174t174.5 74q90 0 155 -64.5t65 -154.5q0 -98 -75 -172t-175 -74zM690 1479q-25 0 -40 -16.5t-15 -43.5q0 -16 13.5 -29.5t31.5 -13.5q25 0 41 17.5t16 44.5q0 16 -15.5 28.5t-31.5 12.5zM901 1065h293l-113 -1065 h-293l17 125q-12 -43 -98 -94t-207 -51q-188 0 -334 130t-146 363q0 254 169 432t407 178q86 0 156.5 -31.5t99.5 -62.5t31 -47zM565 240q106 0 200.5 80.5t94.5 250.5q0 121 -74.5 186.5t-177.5 65.5q-129 0 -214 -92t-85 -233q0 -125 72.5 -191.5t183.5 -66.5z" glyph-name="aring" unicode="å"/><glyph d="M1942 610q0 -92 -21 -186h-780q39 -201 270 -201q66 0 119 12.5t80.5 25.5t72.5 40l142 -158q-160 -164 -434 -163q-170 0 -304 81l-6 -61h-293l17 125q-12 -43 -98 -94t-207 -51q-188 0 -334 130t-146 363q0 254 169 432t407 178q86 0 156.5 -31.5t99.5 -62.5t31 -47 l18 123h293l-6 -49q133 70 278 69q113 0 217.5 -46t181.5 -158.5t77 -270.5zM1167 633h521q-12 102 -75 152.5t-153 50.5q-94 0 -173 -52.5t-120 -150.5zM565 240q106 0 200.5 80.5t94.5 250.5q0 121 -74.5 186.5t-177.5 65.5q-129 0 -214 -92t-85 -233q0 -125 72.5 -191.5 t183.5 -66.5z" glyph-name="ae" horiz-adv-x="2062" unicode="æ"/><glyph d="M553 236q74 0 126 26.5t109 79.5l222 -115q-133 -188 -344 -233l-101 -76q176 -45 176 -176q0 -82 -69.5 -133t-171 -57.5t-213.5 18.5l26 70q98 -20 158.5 9t60.5 87q0 53 -45 76.5t-96 -9.5l-88 82l96 111q-160 41 -269.5 166t-109.5 323q0 254 179.5 427t427.5 173 q313 0 436 -260l-234 -98q-84 98 -213 98t-220 -93t-91 -245q0 -121 71 -186t177 -65z" glyph-name="ccedilla" horiz-adv-x="1153" unicode="ç"/><glyph d="M248 1516h358l158 -326h-223zM629 1085q113 0 217 -46t181 -158.5t77 -270.5q0 -92 -21 -186h-780q39 -201 270 -201q66 0 119 12.5t81 25.5t73 40l141 -158q-160 -164 -434 -163q-211 0 -372 132t-161 365q0 252 182.5 430t426.5 178zM623 836q-94 0 -173 -52.5 t-120 -150.5h520q-12 102 -74.5 152.5t-152.5 50.5z" glyph-name="egrave" horiz-adv-x="1224" unicode="è"/><glyph d="M1042 1516l-292 -326h-224l158 326h358zM629 1085q113 0 217 -46t181 -158.5t77 -270.5q0 -92 -21 -186h-780q39 -201 270 -201q66 0 119 12.5t81 25.5t73 40l141 -158q-160 -164 -434 -163q-211 0 -372 132t-161 365q0 252 182.5 430t426.5 178zM623 836 q-94 0 -173 -52.5t-120 -150.5h520q-12 102 -74.5 152.5t-152.5 50.5z" glyph-name="eacute" horiz-adv-x="1224" unicode="é"/><glyph d="M737 1567l234 -316l-99 -86l-210 213l-250 -213l-78 86l293 316h110zM629 1085q113 0 217 -46t181 -158.5t77 -270.5q0 -92 -21 -186h-780q39 -201 270 -201q66 0 119 12.5t81 25.5t73 40l141 -158q-160 -164 -434 -163q-211 0 -372 132t-161 365q0 252 182.5 430 t426.5 178zM623 836q-94 0 -173 -52.5t-120 -150.5h520q-12 102 -74.5 152.5t-152.5 50.5z" glyph-name="ecircumflex" horiz-adv-x="1224" unicode="ê"/><glyph d="M559 1436l-27 -254h-270l27 254h270zM1055 1436l-27 -254h-270l26 254h271zM629 1085q113 0 217 -46t181 -158.5t77 -270.5q0 -92 -21 -186h-780q39 -201 270 -201q66 0 119 12.5t81 25.5t73 40l141 -158q-160 -164 -434 -163q-211 0 -372 132t-161 365q0 252 182.5 430 t426.5 178zM623 836q-94 0 -173 -52.5t-120 -150.5h520q-12 102 -74.5 152.5t-152.5 50.5z" glyph-name="edieresis" horiz-adv-x="1224" unicode="ë"/><glyph d="M-133 1516h358l158 -326h-223zM395 1065l-112 -1065h-293l112 1065h293z" glyph-name="igrave" horiz-adv-x="493" unicode="ì"/><glyph d="M662 1516l-293 -326h-224l158 326h359zM395 1065l-112 -1065h-293l112 1065h293z" glyph-name="iacute" horiz-adv-x="493" unicode="í"/><glyph d="M356 1567l234 -316l-98 -86l-211 213l-250 -213l-78 86l293 316h110zM395 1065l-112 -1065h-293l112 1065h293z" glyph-name="icircumflex" horiz-adv-x="493" unicode="î"/><glyph d="M178 1436l-26 -254h-271l27 254h270zM674 1436l-27 -254h-270l26 254h271zM395 1065l-112 -1065h-293l112 1065h293z" glyph-name="idieresis" horiz-adv-x="493" unicode="ï"/><glyph d="M952 1180q98 -166 125 -332t0 -346q-27 -254 -194.5 -388t-390.5 -134q-215 0 -355.5 143t-113.5 407q29 260 182 397.5t381 137.5q68 0 116 -18l-43 90l-188 -31l16 139l93 15l-107 174h326l75 -127l205 34l-12 -139zM498 236q111 0 189.5 72.5t94.5 221.5 q14 145 -44 211t-158 66q-94 0 -169 -74t-94 -231q-14 -135 43.5 -200.5t137.5 -65.5z" glyph-name="eth" horiz-adv-x="1232" unicode="ð"/><glyph d="M483 1534q82 0 200 -71.5t161 -71.5q33 0 66.5 15t35.5 34l111 -13q-12 -115 -81 -191.5t-181 -76.5q-63 0 -134 41t-132.5 83t-104.5 42q-31 0 -65.5 -20.5t-36.5 -47.5l-107 11q12 117 80.5 191.5t187.5 74.5zM735 1085q168 0 275.5 -119.5t81.5 -357.5l-66 -608h-293 l64 598q27 231 -166 231q-106 0 -182 -73.5t-95 -137.5l-71 -618h-293l112 1065h293l-20 -191q27 66 125 138.5t235 72.5z" glyph-name="ntilde" horiz-adv-x="1239" unicode="ñ"/><glyph d="M256 1516h358l158 -326h-223zM629 1085q197 0 355.5 -135t158.5 -372q0 -254 -179.5 -426t-431.5 -172q-123 0 -236.5 53t-194.5 172t-81 280q0 254 179.5 427t429.5 173zM549 240q127 0 218 89t91 240q0 123 -74.5 189.5t-171.5 66.5q-125 0 -216 -90t-91 -241 q0 -121 74 -187.5t170 -66.5z" glyph-name="ograve" horiz-adv-x="1263" unicode="ò"/><glyph d="M1051 1516l-293 -326h-223l157 326h359zM629 1085q197 0 355.5 -135t158.5 -372q0 -254 -179.5 -426t-431.5 -172q-123 0 -236.5 53t-194.5 172t-81 280q0 254 179.5 427t429.5 173zM549 240q127 0 218 89t91 240q0 123 -74.5 189.5t-171.5 66.5q-125 0 -216 -90 t-91 -241q0 -121 74 -187.5t170 -66.5z" glyph-name="oacute" horiz-adv-x="1263" unicode="ó"/><glyph d="M745 1567l234 -316l-98 -86l-211 213l-250 -213l-78 86l293 316h110zM629 1085q197 0 355.5 -135t158.5 -372q0 -254 -179.5 -426t-431.5 -172q-123 0 -236.5 53t-194.5 172t-81 280q0 254 179.5 427t429.5 173zM549 240q127 0 218 89t91 240q0 123 -74.5 189.5 t-171.5 66.5q-125 0 -216 -90t-91 -241q0 -121 74 -187.5t170 -66.5z" glyph-name="ocircumflex" horiz-adv-x="1263" unicode="ô"/><glyph d="M512 1534q82 0 199.5 -71.5t160.5 -71.5q33 0 67 15t36 34l110 -13q-12 -115 -80.5 -191.5t-181.5 -76.5q-63 0 -134 41t-132 83t-104 42q-31 0 -66 -20.5t-37 -47.5l-106 11q12 117 80.5 191.5t187.5 74.5zM629 1085q197 0 355.5 -135t158.5 -372q0 -254 -179.5 -426 t-431.5 -172q-123 0 -236.5 53t-194.5 172t-81 280q0 254 179.5 427t429.5 173zM549 240q127 0 218 89t91 240q0 123 -74.5 189.5t-171.5 66.5q-125 0 -216 -90t-91 -241q0 -121 74 -187.5t170 -66.5z" glyph-name="otilde" horiz-adv-x="1263" unicode="õ"/><glyph d="M567 1436l-26 -254h-271l27 254h270zM1063 1436l-27 -254h-270l27 254h270zM629 1085q197 0 355.5 -135t158.5 -372q0 -254 -179.5 -426t-431.5 -172q-123 0 -236.5 53t-194.5 172t-81 280q0 254 179.5 427t429.5 173zM549 240q127 0 218 89t91 240q0 123 -74.5 189.5 t-171.5 66.5q-125 0 -216 -90t-91 -241q0 -121 74 -187.5t170 -66.5z" glyph-name="odieresis" horiz-adv-x="1263" unicode="ö"/><glyph d="M408 760q-74 0 -121 52t-39 128q8 63 57 108.5t115 45.5q74 0 121 -52.5t39 -128.5q-8 -63 -58.5 -108t-113.5 -45zM735 684l-24 -246h-686l24 246h686zM340 27q-74 0 -121 52t-39 128q4 63 55.5 108t116.5 45q74 0 121 -52t39 -128q-8 -63 -58.5 -108t-113.5 -45z" glyph-name="divide" horiz-adv-x="813" unicode="÷"/><glyph d="M963 967q203 -168 172 -451q-18 -172 -122 -299t-231 -182t-252 -55q-29 0 -124 14l-62 -96h-281l125 200q-197 160 -168 445q18 170 122 298t231 185t252 57q57 0 120 -14l70 115h281zM322 342l292 481q-113 -4 -204 -85t-107 -222q-16 -98 19 -174zM854 543 q12 111 -29 184l-286 -487q113 2 207 83t108 220z" glyph-name="oslash" horiz-adv-x="1261" unicode="ø"/><glyph d="M238 1516h358l158 -326h-224zM393 -20q-168 0 -275.5 120.5t-82.5 356.5l61 608h293l-61 -598q-14 -123 37 -177t137 -54q109 0 177.5 73.5t92.5 157.5l68 598h293l-113 -1065h-293l25 195q-31 -70 -126.5 -142.5t-232.5 -72.5z" glyph-name="ugrave" horiz-adv-x="1230" unicode="ù"/><glyph d="M1032 1516l-293 -326h-223l158 326h358zM393 -20q-168 0 -275.5 120.5t-82.5 356.5l61 608h293l-61 -598q-14 -123 37 -177t137 -54q109 0 177.5 73.5t92.5 157.5l68 598h293l-113 -1065h-293l25 195q-31 -70 -126.5 -142.5t-232.5 -72.5z" glyph-name="uacute" horiz-adv-x="1230" unicode="ú"/><glyph d="M727 1567l234 -316l-99 -86l-211 213l-250 -213l-77 86l292 316h111zM393 -20q-168 0 -275.5 120.5t-82.5 356.5l61 608h293l-61 -598q-14 -123 37 -177t137 -54q109 0 177.5 73.5t92.5 157.5l68 598h293l-113 -1065h-293l25 195q-31 -70 -126.5 -142.5t-232.5 -72.5z " glyph-name="ucircumflex" horiz-adv-x="1230" unicode="û"/><glyph d="M549 1436l-27 -254h-270l27 254h270zM1044 1436l-26 -254h-270l26 254h270zM393 -20q-168 0 -275.5 120.5t-82.5 356.5l61 608h293l-61 -598q-14 -123 37 -177t137 -54q109 0 177.5 73.5t92.5 157.5l68 598h293l-113 -1065h-293l25 195q-31 -70 -126.5 -142.5 t-232.5 -72.5z" glyph-name="udieresis" horiz-adv-x="1230" unicode="ü"/><glyph d="M1063 1516l-293 -326h-223l158 326h358zM967 1069h299l-805 -1458h-299l246 428l-353 1030h287l240 -717z" glyph-name="yacute" horiz-adv-x="1312" unicode="ý"/><glyph d="M684 1083q207 0 354.5 -150.5t120.5 -412.5q-14 -133 -71.5 -239.5t-140.5 -170t-175 -97t-184 -33.5q-127 0 -206 57t-79 100l-61 -526h-293l194 1837h293l-55 -496q6 14 40 43t107.5 58.5t155.5 29.5zM879 547q12 131 -58.5 203.5t-185.5 72.5q-117 0 -206 -79.5 t-103 -223.5q-14 -133 51 -206.5t174 -73.5q123 0 218.5 81t109.5 226z" glyph-name="thorn" horiz-adv-x="1286" unicode="þ"/><glyph d="M580 1436l-27 -254h-270l26 254h271zM1075 1436l-26 -254h-271l27 254h270zM967 1069h299l-805 -1458h-299l246 428l-353 1030h287l240 -717z" glyph-name="ydieresis" horiz-adv-x="1312" unicode="ÿ"/><glyph d="M1266 1802l-27 -241h-774l27 241h774zM1133 0l-80 256h-670l-135 -256h-324l776 1434h271l473 -1434h-311zM514 500h455l-166 567z" glyph-name="Amacron" horiz-adv-x="1591" unicode="Ā"/><glyph d="M1075 1434l-26 -242h-775l27 242h774zM901 1065h293l-113 -1065h-293l17 125q-12 -43 -98 -94t-207 -51q-188 0 -334 130t-146 363q0 254 169 432t407 178q86 0 156.5 -31.5t99.5 -62.5t31 -47zM565 240q106 0 200.5 80.5t94.5 250.5q0 121 -74.5 186.5t-177.5 65.5 q-129 0 -214 -92t-85 -233q0 -125 72.5 -191.5t183.5 -66.5z" glyph-name="amacron" unicode="ā"/><glyph d="M1206 1864q-14 -141 -112.5 -238.5t-260 -97.5t-237.5 99t-59 237h180q-4 -63 29.5 -101.5t105.5 -38.5q152 0 176 140h178zM1133 0l-80 256h-670l-135 -256h-324l776 1434h271l473 -1434h-311zM514 500h455l-166 567z" glyph-name="Abreve" horiz-adv-x="1591" unicode="Ă"/><glyph d="M643 1159q-162 0 -237.5 99.5t-59.5 236.5h180q-4 -63 30 -101t106 -38q152 0 176 139h178q-14 -141 -112.5 -238.5t-260.5 -97.5zM901 1065h293l-113 -1065h-293l17 125q-12 -43 -98 -94t-207 -51q-188 0 -334 130t-146 363q0 254 169 432t407 178q86 0 156.5 -31.5 t99.5 -62.5t31 -47zM565 240q106 0 200.5 80.5t94.5 250.5q0 121 -74.5 186.5t-177.5 65.5q-129 0 -214 -92t-85 -233q0 -125 72.5 -191.5t183.5 -66.5z" glyph-name="abreve" unicode="ă"/><glyph d="M1130 -229q-6 -47 48.5 -60.5t101.5 13.5l59 -134q-53 -29 -139 -37t-169 6.5t-138 69t-47 140.5q18 156 307 235l-76 252h-692l-135 -256h-326l789 1434h270l496 -1438q-170 -47 -257.5 -106.5t-91.5 -118.5zM516 500h477l-178 567z" glyph-name="Aogonek" horiz-adv-x="1626" unicode="Ą"/><glyph d="M1087 -4q-209 -70 -260 -107q-63 -43 -63 -100q0 -55 52 -73.5t97 8.5l64 -134q-72 -39 -187.5 -43t-211 46.5t-95.5 148.5q0 172 297 258l23 121q-16 -43 -101.5 -92t-201.5 -49q-207 0 -354.5 149.5t-120.5 417.5q18 170 112 296t214 183t245 57q86 0 156.5 -31.5 t99.5 -62.5t31 -47l18 123h293zM549 240q117 0 207 80.5t102 226.5q14 131 -51.5 203.5t-173.5 72.5q-123 0 -217 -80.5t-111 -222.5q-14 -133 57.5 -206.5t186.5 -73.5z" glyph-name="aogonek" horiz-adv-x="1296" unicode="ą"/><glyph d="M1243 1884l-293 -325h-223l158 325h358zM1229 147q-207 -168 -502 -167q-289 0 -484.5 185t-195.5 478q0 338 241.5 574.5t573.5 236.5q283 0 469 -176l-203 -195q-119 90 -266 91q-205 0 -356.5 -145.5t-151.5 -379.5q0 -172 118 -280.5t294 -108.5q164 0 305 109z" glyph-name="Cacute" horiz-adv-x="1382" unicode="Ć"/><glyph d="M1012 1516l-293 -326h-223l157 326h359zM627 1085q313 0 436 -260l-234 -98q-84 98 -213 98t-220 -93t-91 -245q0 -121 70.5 -186t177.5 -65q74 0 126 26.5t109 79.5l222 -115q-176 -248 -480 -247q-123 0 -235.5 52t-193.5 171t-81 282q0 254 179.5 427t427.5 173z" glyph-name="cacute" horiz-adv-x="1153" unicode="ć"/><glyph d="M1001 1804l-26 -254h-270l26 254h270zM1229 147q-207 -168 -502 -167q-289 0 -484.5 185t-195.5 478q0 338 241.5 574.5t573.5 236.5q283 0 469 -176l-203 -195q-119 90 -266 91q-205 0 -356.5 -145.5t-151.5 -379.5q0 -172 118 -280.5t294 -108.5q164 0 305 109z" glyph-name="Cdotaccent" horiz-adv-x="1382" unicode="Ċ"/><glyph d="M770 1436l-27 -254h-270l27 254h270zM627 1085q313 0 436 -260l-234 -98q-84 98 -213 98t-220 -93t-91 -245q0 -121 70.5 -186t177.5 -65q74 0 126 26.5t109 79.5l222 -115q-176 -248 -480 -247q-123 0 -235.5 52t-193.5 171t-81 282q0 254 179.5 427t427.5 173z" glyph-name="cdotaccent" horiz-adv-x="1153" unicode="ċ"/><glyph d="M788 1534l-233 315l98 86l211 -213l250 213l78 -86l-293 -315h-111zM1229 147q-207 -168 -502 -167q-289 0 -484.5 185t-195.5 478q0 338 241.5 574.5t573.5 236.5q283 0 469 -176l-203 -195q-119 90 -266 91q-205 0 -356.5 -145.5t-151.5 -379.5q0 -172 118 -280.5 t294 -108.5q164 0 305 109z" glyph-name="Ccaron" horiz-adv-x="1382" unicode="Č"/><glyph d="M557 1165l-233 316l98 86l211 -213l250 213l78 -86l-293 -316h-111zM627 1085q313 0 436 -260l-234 -98q-84 98 -213 98t-220 -93t-91 -245q0 -121 70.5 -186t177.5 -65q74 0 126 26.5t109 79.5l222 -115q-176 -248 -480 -247q-123 0 -235.5 52t-193.5 171t-81 282 q0 254 179.5 427t427.5 173z" glyph-name="ccaron" horiz-adv-x="1153" unicode="č"/><glyph d="M674 1534l-234 315l99 86l211 -213l249 213l78 -86l-293 -315h-110zM664 1434q305 0 495.5 -211t161.5 -510q-33 -301 -262.5 -507t-534.5 -206h-518l152 1434h506zM541 283q199 0 327.5 130t149.5 326q20 172 -79 292t-296 120h-217l-90 -868h205z" glyph-name="Dcaron" horiz-adv-x="1439" unicode="Ď"/><glyph d="M883 944l59 504h293l-154 -1448h-293l17 125q-12 -43 -98 -94t-207 -51q-188 0 -334 130t-146 363q0 254 169 433t407 179q86 0 155.5 -31.5t99.5 -62.5t32 -47zM1454 1434h358l-292 -265h-230zM565 240q106 0 200.5 80.5t94.5 250.5q0 121 -73.5 187.5t-178.5 66.5 q-129 0 -214 -92t-85 -235q0 -125 72.5 -191.5t183.5 -66.5z" glyph-name="dcaron" horiz-adv-x="1728" unicode="ď"/><glyph d="M848 1434q305 0 495.5 -211t161.5 -510q-33 -301 -262 -507t-534 -206h-519l62 578h-119l25 245h118l66 611h506zM725 283q199 0 328 130t149 326q20 172 -79 292t-296 120h-217l-35 -328h218l-25 -245h-217l-31 -295h205z" glyph-name="Dcroat" horiz-adv-x="1624" unicode="Đ"/><glyph d="M1397 1368l-25 -242h-172l-119 -1126h-293l17 125q-12 -43 -98 -94t-207 -51q-188 0 -334 130t-146 363q0 254 169 433t407 179q86 0 155.5 -31.5t99.5 -62t32 -47.5l22 182h-307l25 242h309l10 80h293l-8 -80h170zM565 240q106 0 200.5 80.5t94.5 250.5 q0 121 -73.5 187.5t-178.5 66.5q-129 0 -214 -92t-85 -235q0 -125 72.5 -191.5t183.5 -66.5z" glyph-name="dcroat" horiz-adv-x="1341" unicode="đ"/><glyph d="M1047 1802l-27 -241h-774l26 241h775zM336 274h606l-31 -274h-905l152 1434h886l-30 -275h-588l-29 -303h443l-29 -270h-444z" glyph-name="Emacron" horiz-adv-x="1114" unicode="Ē"/><glyph d="M1055 1434l-27 -242h-774l27 242h774zM629 1085q113 0 217 -46t181 -158.5t77 -270.5q0 -92 -21 -186h-780q39 -201 270 -201q66 0 119 12.5t81 25.5t73 40l141 -158q-160 -164 -434 -163q-211 0 -372 132t-161 365q0 252 182.5 430t426.5 178zM623 836q-94 0 -173 -52.5 t-120 -150.5h520q-12 102 -74.5 152.5t-152.5 50.5z" glyph-name="emacron" horiz-adv-x="1224" unicode="ē"/><glyph d="M793 1804l-27 -254h-270l26 254h271zM336 274h606l-31 -274h-905l152 1434h886l-30 -275h-588l-29 -303h443l-29 -270h-444z" glyph-name="Edotaccent" horiz-adv-x="1114" unicode="Ė"/><glyph d="M801 1436l-27 -254h-270l26 254h271zM629 1085q113 0 217 -46t181 -158.5t77 -270.5q0 -92 -21 -186h-780q39 -201 270 -201q66 0 119 12.5t81 25.5t73 40l141 -158q-160 -164 -434 -163q-211 0 -372 132t-161 365q0 252 182.5 430t426.5 178zM623 836q-94 0 -173 -52.5 t-120 -150.5h520q-12 102 -74.5 152.5t-152.5 50.5z" glyph-name="edotaccent" horiz-adv-x="1224" unicode="ė"/><glyph d="M918 -4q-309 -88 -324 -225q-6 -47 48 -60.5t103 13.5l60 -134q-53 -29 -139 -37t-169 6.5t-139.5 69t-46.5 140.5q18 154 316 235l-363 -4h-258l152 1434h886l-30 -275h-588l-29 -303h443l-29 -270h-444l-31 -312h606z" glyph-name="Eogonek" horiz-adv-x="1116" unicode="Ę"/><glyph d="M625 1083q98 0 191 -36.5t171 -116.5t103.5 -205t-11.5 -301h-778q41 -197 264 -197q29 0 53.5 2t49 7.5t38 8.5t37 13t30.5 13t32.5 16.5t32.5 15.5l153 -168q-98 -90 -258 -137q-213 -63 -268 -100q-61 -41 -62 -101q0 -59 53.5 -79.5t98.5 6.5l61 -134 q-72 -39 -186.5 -43t-210.5 45.5t-96 147.5q0 164 278 252q-178 45 -290.5 188.5t-90.5 362.5q18 170 122 298t231 185t252 57zM621 834q-88 0 -170 -53.5t-123 -147.5l518 10q-12 92 -76.5 141.5t-148.5 49.5z" glyph-name="eogonek" horiz-adv-x="1220" unicode="ę"/><glyph d="M580 1534l-234 315l98 86l211 -213l250 213l78 -86l-293 -315h-110zM336 274h606l-31 -274h-905l152 1434h886l-30 -275h-588l-29 -303h443l-29 -270h-444z" glyph-name="Ecaron" horiz-adv-x="1114" unicode="Ě"/><glyph d="M588 1165l-234 316l99 86l211 -213l249 213l78 -86l-293 -316h-110zM629 1085q113 0 217 -46t181 -158.5t77 -270.5q0 -92 -21 -186h-780q39 -201 270 -201q66 0 119 12.5t81 25.5t73 40l141 -158q-160 -164 -434 -163q-211 0 -372 132t-161 365q0 252 182.5 430 t426.5 178zM623 836q-94 0 -173 -52.5t-120 -150.5h520q-12 102 -74.5 152.5t-152.5 50.5z" glyph-name="ecaron" horiz-adv-x="1224" unicode="ě"/><glyph d="M1188 1864q-14 -141 -112.5 -238.5t-260.5 -97.5t-237.5 99t-59.5 237h180q-4 -63 30 -101.5t106 -38.5q152 0 176 140h178zM809 772h623q6 -180 -48.5 -331.5t-150.5 -251t-226 -154.5t-276 -55q-291 0 -487.5 185t-196.5 478q0 338 241.5 574.5t573.5 236.5 q283 0 469 -176l-203 -195q-119 90 -266 91q-207 0 -357.5 -146.5t-150.5 -378.5q0 -168 114 -278.5t288 -110.5q135 0 237.5 65.5t139.5 202.5h-351z" glyph-name="Gbreve" horiz-adv-x="1558" unicode="Ğ"/><glyph d="M665.5 1159q-161.5 0 -237.5 99.5t-59 236.5h180q-4 -63 29.5 -101t105.5 -38q152 0 176 139h178q-14 -141 -112.5 -238.5t-260 -97.5zM901 1065h293l-113 -1065q-12 -117 -72.5 -203t-148.5 -132t-178 -66.5t-182 -20.5q-178 0 -291 62l18 235q88 -53 275 -53 q133 0 204.5 53t81.5 125l17 125q-12 -43 -98 -94t-207 -51q-188 0 -334 130t-146 363q0 254 169 433t407 179q86 0 156.5 -31.5t99.5 -63.5t31 -48zM565 240q106 0 200.5 80.5t94.5 250.5q0 121 -73.5 187.5t-178.5 66.5q-129 0 -214 -92t-85 -235q0 -125 72.5 -191.5 t183.5 -66.5z" glyph-name="gbreve" unicode="ğ"/><glyph d="M993 1804l-26 -254h-271l27 254h270zM809 772h623q6 -180 -48.5 -331.5t-150.5 -251t-226 -154.5t-276 -55q-291 0 -487.5 185t-196.5 478q0 338 241.5 574.5t573.5 236.5q283 0 469 -176l-203 -195q-119 90 -266 91q-207 0 -357.5 -146.5t-150.5 -378.5 q0 -168 114 -278.5t288 -110.5q135 0 237.5 65.5t139.5 202.5h-351z" glyph-name="Gdotaccent" horiz-adv-x="1558" unicode="Ġ"/><glyph d="M844 1436l-27 -254h-270l26 254h271zM901 1065h293l-113 -1065q-12 -117 -72.5 -203t-148.5 -132t-178 -66.5t-182 -20.5q-178 0 -291 62l18 235q88 -53 275 -53q133 0 204.5 53t81.5 125l17 125q-12 -43 -98 -94t-207 -51q-188 0 -334 130t-146 363q0 254 169 433 t407 179q86 0 156.5 -31.5t99.5 -63.5t31 -48zM565 240q106 0 200.5 80.5t94.5 250.5q0 121 -73.5 187.5t-178.5 66.5q-129 0 -214 -92t-85 -235q0 -125 72.5 -191.5t183.5 -66.5z" glyph-name="gdotaccent" unicode="ġ"/><glyph d="M809 772h623q6 -180 -48.5 -331.5t-150.5 -251t-226 -154.5t-276 -55q-291 0 -487.5 185t-196.5 478q0 338 241.5 574.5t573.5 236.5q283 0 469 -176l-203 -195q-119 90 -266 91q-207 0 -357.5 -146.5t-150.5 -378.5q0 -168 114 -278.5t288 -110.5q135 0 237.5 65.5 t139.5 202.5h-351zM342 -539l154 486h391l-275 -486h-270z" glyph-name="Gcommaaccent" horiz-adv-x="1558" unicode="Ģ"/><glyph d="M1018 1604l-154 -486h-391l275 486h270zM901 1065h293l-113 -1065q-12 -117 -72.5 -203t-148.5 -132t-178 -66.5t-182 -20.5q-178 0 -291 62l18 235q88 -53 275 -53q133 0 204.5 53t81.5 125l17 125q-12 -43 -98 -94t-207 -51q-188 0 -334 130t-146 363q0 254 169 433 t407 179q86 0 156.5 -31.5t99.5 -63.5t31 -48zM565 240q106 0 200.5 80.5t94.5 250.5q0 121 -73.5 187.5t-178.5 66.5q-129 0 -214 -92t-85 -235q0 -125 72.5 -191.5t183.5 -66.5z" glyph-name="gcommaaccent" unicode="ģ"/><glyph d="M1034 1434h299l-151 -1434h-299l59 580h-577l-60 -580h-299l152 1434h299l-19 -164h578zM395 854h578l16 141h-577z" glyph-name="Hbar" horiz-adv-x="1413" unicode="Ħ"/><glyph d="M764 1085q168 0 275.5 -119.5t80.5 -357.5l-65 -608h-293l63 598q27 231 -166 231q-106 0 -182 -73.5t-94 -137.5l-72 -618h-293l121 1135h-127l15 155h129l16 158h293l-16 -158h266l-15 -155h-268l-29 -261q27 66 125.5 138.5t235.5 72.5z" glyph-name="hbar" horiz-adv-x="1267" unicode="ħ"/><glyph d="M182 1903q82 0 200 -72t161 -72q33 0 66.5 15.5t35.5 33.5l111 -12q-12 -115 -81 -191.5t-181 -76.5q-63 0 -134 41t-132.5 83t-104.5 42q-33 0 -66.5 -20.5t-36.5 -47.5l-106 10q12 117 80.5 192t187.5 75zM457 1434l-152 -1434h-299l152 1434h299z" glyph-name="Itilde" horiz-adv-x="536" unicode="Ĩ"/><glyph d="M123 1534q82 0 199.5 -71.5t160.5 -71.5q33 0 67 15t36 34l110 -13q-12 -115 -80.5 -191.5t-181.5 -76.5q-63 0 -134 41t-132.5 83t-104.5 42q-31 0 -65.5 -20.5t-36.5 -47.5l-106 11q12 117 80.5 191.5t187.5 74.5zM395 1065l-112 -1065h-293l112 1065h293z" glyph-name="itilde" horiz-adv-x="493" unicode="ĩ"/><glyph d="M733 1802l-26 -241h-775l27 241h774zM457 1434l-152 -1434h-299l152 1434h299z" glyph-name="Imacron" horiz-adv-x="536" unicode="Ī"/><glyph d="M674 1434l-27 -242h-774l27 242h774zM395 1065l-112 -1065h-293l112 1065h293z" glyph-name="imacron" horiz-adv-x="493" unicode="ī"/><glyph d="M326 -4q-326 -90 -338 -225q-6 -47 48 -60.5t101 13.5l62 -134q-55 -29 -141.5 -37t-169.5 6.5t-138 69t-47 140.5q16 154 313 235l156 1430h299z" glyph-name="Iogonek" horiz-adv-x="555" unicode="Į"/><glyph d="M139 1434h305l-26 -244h-305zM-12 4l118 1061h293l-106 -1069q-324 -86 -338 -225q-6 -47 48 -60.5t101 13.5l62 -134q-55 -29 -141 -37t-169 6.5t-138.5 69t-47.5 140.5q19 153 318 235z" glyph-name="iogonek" horiz-adv-x="503" unicode="į"/><glyph d="M479 1804l-26 -254h-271l27 254h270zM457 1434l-152 -1434h-299l152 1434h299z" glyph-name="Idotaccent" horiz-adv-x="536" unicode="İ"/><glyph d="M395 1065l-112 -1065h-293l112 1065h293z" glyph-name="dotlessi" horiz-adv-x="493" unicode="ı"/><glyph d="M457 1434l-152 -1434h-299l152 1434h299zM1589 1434l-100 -955q-10 -109 -52 -196.5t-99.5 -144t-129 -94.5t-138 -53.5t-130.5 -15.5q-285 0 -432 203l199 209q94 -123 227 -123q86 0 165 57.5t97 206.5l94 906h299z" glyph-name="IJ" horiz-adv-x="1669" unicode="Ĳ"/><glyph d="M436 1448l-26 -250h-293l26 250h293zM983 1448l-27 -250h-292l26 250h293zM395 1065l-112 -1065h-293l112 1065h293zM942 1065l-123 -1171q-16 -158 -107 -237t-237 -79q-131 0 -229 55l16 281q72 -35 150 -35q63 0 91.5 37t33.5 84l112 1065h293z" glyph-name="ij" horiz-adv-x="1040" unicode="ĳ"/><glyph d="M928 0l-377 614l-201 -202l-45 -412h-299l152 1434h299l-68 -623l596 623h373l-604 -613l512 -821h-338zM309 -539l154 486h391l-274 -486h-271z" glyph-name="Kcommaaccent" horiz-adv-x="1433" unicode="Ķ"/><glyph d="M737 0l-317 426l-96 -86l-41 -340h-293l153 1448h293l-82 -752l379 369h359l-478 -447l453 -618h-330zM158 -539l153 486h391l-274 -486h-270z" glyph-name="kcommaaccent" horiz-adv-x="1204" unicode="ķ"/><glyph d="M715 1884l-293 -325h-223l157 325h359zM336 274h561l-29 -274h-862l152 1434h299z" glyph-name="Lacute" horiz-adv-x="1048" unicode="Ĺ"/><glyph d="M707 1817l-293 -265h-232l166 265h359zM436 1448l-153 -1448h-293l153 1448h293z" glyph-name="lacute" horiz-adv-x="501" unicode="ĺ"/><glyph d="M336 274h561l-29 -274h-862l152 1434h299zM82 -539l154 486h391l-275 -486h-270z" glyph-name="Lcommaaccent" horiz-adv-x="1048" unicode="Ļ"/><glyph d="M440 1448l-153 -1448h-293l153 1448h293zM-205 -539l154 486h391l-274 -486h-271z" glyph-name="lcommaaccent" horiz-adv-x="552" unicode="ļ"/><glyph d="M336 274h561l-29 -274h-862l152 1434h299zM1036 1430l-262 -547h-254l256 547h260z" glyph-name="Lcaron" horiz-adv-x="1048" unicode="Ľ"/><glyph d="M436 1448l-153 -1448h-293l153 1448h293zM483 885l252 549h254l-246 -549h-260z" glyph-name="lcaron" horiz-adv-x="983" unicode="ľ"/><glyph d="M336 274h561l-29 -274h-862l152 1434h299zM805 580q-74 0 -121 52t-39 128q8 63 58.5 108t113.5 45q74 0 121 -52t39 -128q-8 -63 -57 -108t-115 -45z" glyph-name="Ldot" horiz-adv-x="1048" unicode="Ŀ"/><glyph d="M436 1448l-153 -1448h-293l153 1448h293zM653 575q-74 0 -120 52.5t-37 128.5q6 63 56 108t114 45q74 0 121 -52t38 -128q-6 -63 -56 -108.5t-116 -45.5z" glyph-name="ldot" horiz-adv-x="915" unicode="ŀ"/><glyph d="M455 274h561l-29 -274h-862l47 401l-139 -131l24 299l140 131l79 734h299l-47 -418l183 174h6l-29 -297l-186 -176z" glyph-name="Lslash" horiz-adv-x="1167" unicode="Ł"/><glyph d="M606 1163l-28 -297l-129 -125l-84 -741h-293l49 430l-137 -127l24 299l137 127l80 719h293l-45 -408l127 123h6z" glyph-name="lslash" horiz-adv-x="657" unicode="ł"/><glyph d="M1192 1884l-293 -325h-223l158 325h358zM1096 1434h299l-152 -1434h-225l-615 891l-98 -891h-299l152 1434h229l610 -893z" glyph-name="Nacute" horiz-adv-x="1474" unicode="Ń"/><glyph d="M1022 1516l-293 -326h-223l158 326h358zM735 1085q168 0 275.5 -119.5t81.5 -357.5l-66 -608h-293l64 598q27 231 -166 231q-106 0 -182 -73.5t-95 -137.5l-71 -618h-293l112 1065h293l-20 -191q27 66 125 138.5t235 72.5z" glyph-name="nacute" horiz-adv-x="1239" unicode="ń"/><glyph d="M1096 1434h299l-152 -1434h-225l-615 891l-98 -891h-299l152 1434h229l610 -893zM281 -539l153 486h391l-274 -486h-270z" glyph-name="Ncommaaccent" horiz-adv-x="1474" unicode="Ņ"/><glyph d="M735 1085q168 0 275.5 -119.5t81.5 -357.5l-66 -608h-293l64 598q27 231 -166 231q-106 0 -182 -73.5t-95 -137.5l-71 -618h-293l112 1065h293l-20 -191q27 66 125 138.5t235 72.5zM150 -539l153 486h391l-274 -486h-270z" glyph-name="ncommaaccent" horiz-adv-x="1239" unicode="ņ"/><glyph d="M737 1534l-233 315l98 86l211 -213l250 213l78 -86l-293 -315h-111zM1096 1434h299l-152 -1434h-225l-615 891l-98 -891h-299l152 1434h229l610 -893z" glyph-name="Ncaron" horiz-adv-x="1474" unicode="Ň"/><glyph d="M567 1165l-233 316l98 86l211 -213l250 213l78 -86l-293 -316h-111zM735 1085q168 0 275.5 -119.5t81.5 -357.5l-66 -608h-293l64 598q27 231 -166 231q-106 0 -182 -73.5t-95 -137.5l-71 -618h-293l112 1065h293l-20 -191q27 66 125 138.5t235 72.5z" glyph-name="ncaron" horiz-adv-x="1239" unicode="ň"/><glyph d="M1090 1434h305l-138 -1319l-6 -41q-10 -109 -52 -197t-99.5 -144.5t-128 -94t-137 -53t-129.5 -15.5q-285 0 -431 203l193 209q102 -123 229 -123q49 0 96.5 15t98.5 71.5t67 150.5l-555 795l-98 -891h-299l152 1434h229l610 -891z" glyph-name="Eng" horiz-adv-x="1474" unicode="Ŋ"/><glyph d="M727 1081q172 0 280.5 -119.5t84.5 -353.5l-66 -608l-10 -106q-16 -158 -107.5 -237t-236.5 -79q-131 0 -230 55l17 281q70 -35 147 -35q111 0 127 121l4 33l60 565q12 125 -25 176t-121 51q-106 0 -189 -76.5t-112 -150.5l-67 -598h-293l112 1065h293l-20 -191 q29 63 125 135t227 72z" glyph-name="eng" horiz-adv-x="1239" unicode="ŋ"/><glyph d="M1290 1802l-26 -241h-775l27 241h774zM858 1454q289 0 484.5 -187.5t195.5 -480.5q0 -336 -240.5 -571t-572.5 -235q-291 0 -484.5 185t-193.5 478q0 338 239.5 574.5t571.5 236.5zM741 260q188 0 338 139.5t150 364.5q0 178 -110.5 294t-278.5 116q-188 0 -335 -141.5 t-147 -366.5q0 -178 108.5 -292t274.5 -114z" glyph-name="Omacron" horiz-adv-x="1658" unicode="Ō"/><glyph d="M1063 1434l-27 -242h-774l27 242h774zM629 1085q197 0 355.5 -135t158.5 -372q0 -254 -179.5 -426t-431.5 -172q-123 0 -236.5 53t-194.5 172t-81 280q0 254 179.5 427t429.5 173zM549 240q127 0 218 89t91 240q0 123 -74.5 189.5t-171.5 66.5q-125 0 -216 -90t-91 -241 q0 -121 74 -187.5t170 -66.5z" glyph-name="omacron" horiz-adv-x="1263" unicode="ō"/><glyph d="M1069 1884l-293 -325h-223l158 325h358zM1434 1884l-293 -325h-223l157 325h359zM858 1454q289 0 484.5 -187.5t195.5 -480.5q0 -336 -240.5 -571t-572.5 -235q-291 0 -484.5 185t-193.5 478q0 338 239.5 574.5t571.5 236.5zM741 260q188 0 338 139.5t150 364.5 q0 178 -110.5 294t-278.5 116q-188 0 -335 -141.5t-147 -366.5q0 -178 108.5 -292t274.5 -114z" glyph-name="Ohungarumlaut" horiz-adv-x="1658" unicode="Ő"/><glyph d="M842 1516l-293 -326h-223l157 326h359zM1206 1516l-293 -326h-223l158 326h358zM629 1085q197 0 355.5 -135t158.5 -372q0 -254 -179.5 -426t-431.5 -172q-123 0 -236.5 53t-194.5 172t-81 280q0 254 179.5 427t429.5 173zM549 240q127 0 218 89t91 240 q0 123 -74.5 189.5t-171.5 66.5q-125 0 -216 -90t-91 -241q0 -121 74 -187.5t170 -66.5z" glyph-name="ohungarumlaut" horiz-adv-x="1263" unicode="ő"/><glyph d="M1489 274h606l-29 -274h-905l15 86q-199 -106 -451 -106q-311 0 -511 213t-163 538q33 313 269.5 518t537.5 205q236 0 436 -117l19 97h887l-31 -275h-588l-31 -303h445l-31 -270h-442zM733 260q168 0 321.5 136t174.5 335q18 184 -99.5 313.5t-279.5 129.5 q-186 0 -328.5 -134.5t-163.5 -337.5q-20 -190 88.5 -316t286.5 -126z" glyph-name="OE" horiz-adv-x="2267" unicode="Œ"/><glyph d="M1937 610q0 -92 -20 -186h-780q39 -201 270 -201q66 0 119 12.5t80.5 25.5t72.5 40l142 -158q-160 -164 -435 -163q-260 0 -417 178q-178 -178 -437 -178q-123 0 -236.5 53t-194.5 172t-81 280q0 254 179.5 427t429.5 173q111 0 219 -48t182 -136q184 184 432 184 q113 0 217.5 -46t181 -158.5t76.5 -270.5zM1163 633h520q-12 102 -74.5 152.5t-152.5 50.5q-94 0 -173 -52.5t-120 -150.5zM549 240q127 0 218 89t91 240q0 123 -74.5 189.5t-171.5 66.5q-125 0 -216 -90t-91 -241q0 -121 74 -187.5t170 -66.5z" glyph-name="oe" horiz-adv-x="2058" unicode="œ"/><glyph d="M1049 1884l-293 -325h-224l158 325h359zM1130 0h-309l-252 477h-213l-51 -477h-299l152 1434h495q242 0 375 -138.5t107 -363.5q-29 -287 -289 -406zM383 735h178q256 0 279 226q23 199 -224 198h-190z" glyph-name="Racute" horiz-adv-x="1318" unicode="Ŕ"/><glyph d="M864 1516l-293 -326h-223l158 326h358zM754 1083q33 0 90 -8l-29 -278q-27 6 -65 6q-154 0 -272 -100.5t-146 -253.5l-49 -449h-293l112 1065h293l-30 -256q51 125 154.5 199.5t234.5 74.5z" glyph-name="racute" horiz-adv-x="878" unicode="ŕ"/><glyph d="M1130 0h-309l-252 477h-213l-51 -477h-299l152 1434h495q242 0 375 -138.5t107 -363.5q-29 -287 -289 -406zM383 735h178q256 0 279 226q23 199 -224 198h-190zM186 -539l154 486h391l-274 -486h-271z" glyph-name="Rcommaaccent" horiz-adv-x="1318" unicode="Ŗ"/><glyph d="M754 1083q33 0 90 -8l-29 -278q-27 6 -65 6q-154 0 -272 -100.5t-146 -253.5l-49 -449h-293l112 1065h293l-30 -256q51 125 154.5 199.5t234.5 74.5zM-211 -539l152 486h391l-275 -486h-268z" glyph-name="rcommaaccent" horiz-adv-x="878" unicode="ŗ"/><glyph d="M594 1534l-234 315l99 86l211 -213l250 213l77 -86l-292 -315h-111zM1130 0h-309l-252 477h-213l-51 -477h-299l152 1434h495q242 0 375 -138.5t107 -363.5q-29 -287 -289 -406zM383 735h178q256 0 279 226q23 199 -224 198h-190z" glyph-name="Rcaron" horiz-adv-x="1318" unicode="Ř"/><glyph d="M410 1165l-234 316l98 86l211 -213l250 213l78 -86l-293 -316h-110zM754 1083q33 0 90 -8l-29 -278q-27 6 -65 6q-154 0 -272 -100.5t-146 -253.5l-49 -449h-293l112 1065h293l-30 -256q51 125 154.5 199.5t234.5 74.5z" glyph-name="rcaron" horiz-adv-x="878" unicode="ř"/><glyph d="M1040 1884l-292 -325h-224l158 325h358zM618 1458q174 0 290 -88t175 -213l-231 -123q-51 84 -111.5 122t-144.5 38q-80 0 -136.5 -41t-56.5 -113q0 -61 33 -94t113 -61l92 -35q209 -78 305 -178.5t96 -235.5q0 -145 -85 -254.5t-208.5 -161t-261.5 -51.5 q-190 0 -325 101.5t-174 257.5l239 112q72 -201 269 -200q104 0 171.5 49t67.5 143q0 57 -43 95t-149 79l-84 33q-164 61 -255 149.5t-91 241.5q0 195 153 311.5t352 116.5z" glyph-name="Sacute" horiz-adv-x="1169" unicode="Ś"/><glyph d="M870 1516l-292 -326h-224l158 326h358zM584 752q-35 100 -129 100q-51 0 -82 -28.5t-31 -65.5q0 -53 74 -86l125 -45q66 -25 103.5 -44.5t83.5 -53t67.5 -82t21.5 -111.5q0 -166 -133 -261t-313 -95q-158 0 -272.5 81.5t-133.5 219.5l236 61q37 -131 174 -131 q68 0 109.5 31.5t41.5 76.5q0 57 -71 84l-121 46q-279 100 -279 309q0 143 116 235t282 92q152 0 247 -74.5t127 -203.5z" glyph-name="sacute" horiz-adv-x="952" unicode="ś"/><glyph d="M641 850q209 -78 305 -178.5t96 -235.5q0 -188 -130 -307t-316 -152l-86 -63q176 -45 176 -176q0 -82 -69.5 -133t-171 -57.5t-214.5 18.5l27 69q98 -20 158.5 9.5t60.5 87.5q0 53 -44 76.5t-97 -9.5l-88 82l92 107q-135 35 -228.5 126t-123.5 214l239 112 q72 -201 269 -200q104 0 171.5 49t67.5 143q0 57 -43 95t-149 79l-84 33q-164 61 -255 149.5t-91 241.5q0 195 153.5 311.5t351.5 116.5q174 0 290 -88t175 -213l-231 -123q-51 84 -111.5 122t-144.5 38q-80 0 -136.5 -41t-56.5 -113q0 -61 33 -94t113 -61z" glyph-name="Scedilla" horiz-adv-x="1169" unicode="Ş"/><glyph d="M541 627q66 -25 103.5 -44.5t83.5 -53t67.5 -82t21.5 -111.5q0 -129 -81 -215t-210 -121h6l-114 -86q176 -45 176 -176q0 -82 -69.5 -133t-171 -57.5t-214.5 18.5l27 69q98 -20 158.5 9.5t60.5 87.5q0 53 -45 76.5t-96 -9.5l-88 82l98 111q-117 27 -195.5 102.5 t-93.5 186.5l236 61q37 -131 174 -131q68 0 109.5 31.5t41.5 76.5q0 57 -71 84l-121 46q-279 100 -279 309q0 143 116 235t282 92q152 0 247 -74.5t127 -203.5l-243 -55q-35 100 -129 100q-51 0 -82 -28.5t-31 -65.5q0 -53 74 -86z" glyph-name="scedilla" horiz-adv-x="952" unicode="ş"/><glyph d="M586 1534l-234 315l99 86l211 -213l249 213l78 -86l-293 -315h-110zM618 1458q174 0 290 -88t175 -213l-231 -123q-51 84 -111.5 122t-144.5 38q-80 0 -136.5 -41t-56.5 -113q0 -61 33 -94t113 -61l92 -35q209 -78 305 -178.5t96 -235.5q0 -145 -85 -254.5t-208.5 -161 t-261.5 -51.5q-190 0 -325 101.5t-174 257.5l239 112q72 -201 269 -200q104 0 171.5 49t67.5 143q0 57 -43 95t-149 79l-84 33q-164 61 -255 149.5t-91 241.5q0 195 153 311.5t352 116.5z" glyph-name="Scaron" horiz-adv-x="1169" unicode="Š"/><glyph d="M416 1165l-234 316l99 86l211 -213l249 213l78 -86l-293 -316h-110zM584 752q-35 100 -129 100q-51 0 -82 -28.5t-31 -65.5q0 -53 74 -86l125 -45q66 -25 103.5 -44.5t83.5 -53t67.5 -82t21.5 -111.5q0 -166 -133 -261t-313 -95q-158 0 -272.5 81.5t-133.5 219.5l236 61 q37 -131 174 -131q68 0 109.5 31.5t41.5 76.5q0 57 -71 84l-121 46q-279 100 -279 309q0 143 116 235t282 92q152 0 247 -74.5t127 -203.5z" glyph-name="scaron" horiz-adv-x="952" unicode="š"/><glyph d="M129 1434h995l-28 -275h-351l-120 -1159h12l-115 -86q176 -45 176 -176q0 -82 -69.5 -133t-171 -57.5t-213.5 18.5l26 69q98 -20 158.5 9.5t60.5 87.5q0 53 -44 76.5t-97 -9.5l-88 82l105 119h-39l120 1159h-348z" glyph-name="Tcommaaccent" horiz-adv-x="1163" unicode="Ţ"/><glyph d="M467 823l-47 -471q-12 -109 72 -108q49 0 151 18l-20 -239q-37 -16 -80 -23l-113 -86q176 -45 176 -176q0 -82 -69.5 -133t-171 -57.5t-213.5 18.5l26 69q98 -20 158.5 9.5t60.5 87.5q0 53 -45 76.5t-96 -9.5l-88 82l104 119h25q-205 53 -172 360l49 463h-149l22 242h150 l26 250h293l-27 -250h228l-23 -242h-227z" glyph-name="tcommaaccent" horiz-adv-x="784" unicode="ţ"/><glyph d="M586 1534l-234 315l99 86l211 -213l249 213l78 -86l-293 -315h-110zM1124 1434l-28 -275h-351l-120 -1159h-299l120 1159h-348l31 275h995z" glyph-name="Tcaron" horiz-adv-x="1163" unicode="Ť"/><glyph d="M1229 1591l-389 -424l-248 -102h125l-23 -242h-227l-47 -471q-12 -109 72 -108q49 0 151 18l-20 -239q-82 -35 -220 -35q-145 0 -222 82t-56 290l49 463h-149l22 242h150l26 250h293l-24 -234l167 351z" glyph-name="tcaron" horiz-adv-x="1112" unicode="ť"/><glyph d="M1096 1159h-351l-12 -127h238l-31 -274h-235l-80 -758h-299l80 758h-242l33 274h237l12 127h-348l31 275h995z" glyph-name="Tbar" horiz-adv-x="1163" unicode="Ŧ"/><glyph d="M694 823h-227l-16 -147h219l-27 -242h-219l-8 -90q-12 -98 65 -98q80 0 150 24l-15 -250q-78 -33 -217 -32q-147 0 -222 77.5t-54 286.5l8 82h-149l26 242h150l16 147h-149l22 242h150l26 250h293l-27 -250h228z" glyph-name="tbar" horiz-adv-x="784" unicode="ŧ"/><glyph d="M580 1903q82 0 199.5 -72t160.5 -72q33 0 66.5 15.5t35.5 33.5l111 -12q-12 -115 -80.5 -191.5t-181.5 -76.5q-63 0 -134 41t-132.5 83t-104.5 42q-33 0 -66.5 -20.5t-35.5 -47.5l-107 10q12 117 81 192t188 75zM961 1434h299l-97 -920q-27 -252 -198.5 -398.5 t-403.5 -146.5q-238 0 -386 152.5t-122 404.5l97 908h299l-97 -920q-14 -143 50.5 -203.5t166.5 -60.5q111 0 195 64.5t100 209.5z" glyph-name="Utilde" horiz-adv-x="1339" unicode="Ũ"/><glyph d="M494 1534q82 0 199.5 -71.5t160.5 -71.5q33 0 66.5 15t35.5 34l111 -13q-12 -115 -80.5 -191.5t-181.5 -76.5q-63 0 -134 41t-132.5 83t-104.5 42q-33 0 -66.5 -20.5t-35.5 -47.5l-107 11q12 117 81 191.5t188 74.5zM393 -20q-168 0 -275.5 120.5t-82.5 356.5l61 608h293 l-61 -598q-14 -123 37 -177t137 -54q109 0 177.5 73.5t92.5 157.5l68 598h293l-113 -1065h-293l25 195q-31 -70 -126.5 -142.5t-232.5 -72.5z" glyph-name="utilde" horiz-adv-x="1230" unicode="ũ"/><glyph d="M1130 1802l-26 -241h-774l26 241h774zM961 1434h299l-97 -920q-27 -252 -198.5 -398.5t-403.5 -146.5q-238 0 -386 152.5t-122 404.5l97 908h299l-97 -920q-14 -143 50.5 -203.5t166.5 -60.5q111 0 195 64.5t100 209.5z" glyph-name="Umacron" horiz-adv-x="1339" unicode="Ū"/><glyph d="M1044 1434l-26 -242h-774l26 242h774zM393 -20q-168 0 -275.5 120.5t-82.5 356.5l61 608h293l-61 -598q-14 -123 37 -177t137 -54q109 0 177.5 73.5t92.5 157.5l68 598h293l-113 -1065h-293l25 195q-31 -70 -126.5 -142.5t-232.5 -72.5z" glyph-name="umacron" horiz-adv-x="1230" unicode="ū"/><glyph d="M985 1495q-14 -141 -112.5 -238.5t-260 -97.5t-237.5 99.5t-60 236.5h181q-4 -63 29.5 -101t105.5 -38q152 0 176 139h178zM393 -20q-168 0 -275.5 120.5t-82.5 356.5l61 608h293l-61 -598q-14 -123 37 -177t137 -54q109 0 177.5 73.5t92.5 157.5l68 598h293l-113 -1065 h-293l25 195q-31 -70 -126.5 -142.5t-232.5 -72.5z" glyph-name="ubreve" horiz-adv-x="1230" unicode="ŭ"/><glyph d="M756 2025q90 0 154.5 -64.5t64.5 -154.5q0 -98 -75 -171.5t-175 -73.5q-92 0 -155.5 63.5t-63.5 153.5q0 100 75 173.5t175 73.5zM745 1847q-25 0 -40 -16t-15 -43q0 -16 13.5 -29.5t31.5 -13.5q25 0 41.5 17.5t16.5 43.5q0 16 -16 28.5t-32 12.5zM961 1434h299l-97 -920 q-27 -252 -198.5 -398.5t-403.5 -146.5q-238 0 -386 152.5t-122 404.5l97 908h299l-97 -920q-14 -143 50.5 -203.5t166.5 -60.5q111 0 195 64.5t100 209.5z" glyph-name="Uring" horiz-adv-x="1339" unicode="Ů"/><glyph d="M670 1657q90 0 154.5 -64.5t64.5 -154.5q0 -98 -75 -172t-175 -74q-92 0 -155.5 63.5t-63.5 153.5q0 100 75 174t175 74zM659 1479q-25 0 -40 -16.5t-15 -43.5q0 -16 13.5 -29.5t31.5 -13.5q25 0 41.5 17.5t16.5 44.5q0 16 -16 28.5t-32 12.5zM393 -20 q-168 0 -275.5 120.5t-82.5 356.5l61 608h293l-61 -598q-14 -123 37 -177t137 -54q109 0 177.5 73.5t92.5 157.5l68 598h293l-113 -1065h-293l25 195q-31 -70 -126.5 -142.5t-232.5 -72.5z" glyph-name="uring" horiz-adv-x="1230" unicode="ů"/><glyph d="M909 1884l-293 -325h-223l158 325h358zM1274 1884l-293 -325h-223l157 325h359zM961 1434h299l-97 -920q-27 -252 -198.5 -398.5t-403.5 -146.5q-238 0 -386 152.5t-122 404.5l97 908h299l-97 -920q-14 -143 50.5 -203.5t166.5 -60.5q111 0 195 64.5t100 209.5z" glyph-name="Uhungarumlaut" horiz-adv-x="1339" unicode="Ű"/><glyph d="M823 1516l-293 -326h-223l158 326h358zM1188 1516l-293 -326h-223l157 326h359zM393 -20q-168 0 -275.5 120.5t-82.5 356.5l61 608h293l-61 -598q-14 -123 37 -177t137 -54q109 0 177.5 73.5t92.5 157.5l68 598h293l-113 -1065h-293l25 195q-31 -70 -126.5 -142.5 t-232.5 -72.5z" glyph-name="uhungarumlaut" horiz-adv-x="1230" unicode="ű"/><glyph d="M961 1434h299l-97 -920q-23 -197 -135.5 -332t-279.5 -190q-209 -76 -222 -189q-6 -47 47.5 -60t100.5 13l61 -133q-53 -29 -139 -37t-169 6.5t-138.5 68.5t-46.5 140q8 106 170 181q-174 41 -276.5 186t-82.5 358l97 908h299l-97 -920q-14 -143 50.5 -203.5t166.5 -60.5 q111 0 195 64.5t100 209.5z" glyph-name="Uogonek" horiz-adv-x="1339" unicode="Ų"/><glyph d="M754 -203q0 -55 51 -74.5t96 5.5l60 -138q-63 -29 -148.5 -32.5t-162.5 15.5t-130 70.5t-53 125.5q0 88 74.5 154.5t179.5 76.5l31 190q-35 -66 -129.5 -136t-225.5 -70q-172 0 -279.5 119.5t-82.5 353.5l61 608h293l-61 -598q-14 -125 22.5 -176t120.5 -51 q106 0 189 76.5t112 150.5l68 598h293l-107 -1069q-115 -29 -193.5 -81t-78.5 -118z" glyph-name="uogonek" horiz-adv-x="1234" unicode="ų"/><glyph d="M1206 1935l234 -315l-99 -86l-211 213l-249 -213l-78 86l293 315h110zM2122 1434l-623 -1434h-215l-244 911l-422 -911h-215l-319 1434h309l185 -859l399 859h235l224 -859l366 859h320z" glyph-name="Wcircumflex" horiz-adv-x="2119" unicode="Ŵ"/><glyph d="M1059 1567l233 -316l-98 -86l-211 213l-250 -213l-78 86l293 316h111zM1573 1069h299l-492 -1069h-280l-172 725l-326 -725h-280l-267 1069h287l158 -717l329 717h256l185 -717z" glyph-name="wcircumflex" horiz-adv-x="1918" unicode="ŵ"/><glyph d="M903 1935l234 -315l-99 -86l-211 213l-249 -213l-78 86l293 315h110zM1493 1434l-633 -824l-67 -610h-299l67 610l-457 824h332l297 -553l416 553h344z" glyph-name="Ycircumflex" horiz-adv-x="1511" unicode="Ŷ"/><glyph d="M682 1378l-250 -213l-78 86l293 316h111l233 -316l-98 -86zM967 1069h299l-805 -1458h-299l246 428l-353 1030h287l240 -717z" glyph-name="ycircumflex" horiz-adv-x="1312" unicode="ŷ"/><glyph d="M725 1804l-27 -254h-270l27 254h270zM1221 1804l-27 -254h-270l26 254h271zM1493 1434l-633 -824l-67 -610h-299l67 610l-457 824h332l297 -553l416 553h344z" glyph-name="Ydieresis" horiz-adv-x="1511" unicode="Ÿ"/><glyph d="M1057 1884l-293 -325h-223l157 325h359zM1251 1434l-788 -1178h670l-27 -256h-1151l788 1178h-622l26 256h1104z" glyph-name="Zacute" horiz-adv-x="1282" unicode="Ź"/><glyph d="M995 1516l-293 -326h-223l158 326h358zM1067 1065l-629 -809h508l-26 -256h-986l629 809h-489l26 256h967z" glyph-name="zacute" horiz-adv-x="1114" unicode="ź"/><glyph d="M815 1804l-27 -254h-270l27 254h270zM1251 1434l-788 -1178h670l-27 -256h-1151l788 1178h-622l26 256h1104z" glyph-name="Zdotaccent" horiz-adv-x="1282" unicode="Ż"/><glyph d="M754 1436l-27 -254h-270l26 254h271zM1067 1065l-629 -809h508l-26 -256h-986l629 809h-489l26 256h967z" glyph-name="zdotaccent" horiz-adv-x="1114" unicode="ż"/><glyph d="M602 1534l-233 315l98 86l211 -213l250 213l78 -86l-293 -315h-111zM1251 1434l-788 -1178h670l-27 -256h-1151l788 1178h-622l26 256h1104z" glyph-name="Zcaron" horiz-adv-x="1282" unicode="Ž"/><glyph d="M541 1165l-234 316l99 86l210 -213l250 213l78 -86l-293 -316h-110zM1067 1065l-629 -809h508l-26 -256h-986l629 809h-489l26 256h967z" glyph-name="zcaron" horiz-adv-x="1114" unicode="ž"/><glyph d="M633 1235q-49 0 -79 -12.5t-45 -46t-20.5 -59t-11.5 -81.5l4 29h129l-26 -250h-129l-88 -860q-20 -195 -121 -269.5t-340 -74.5l16 256q94 0 117.5 32.5t34.5 133.5l82 782h-140l27 250h139l6 47q20 201 124 290t337 89z" glyph-name="florin" horiz-adv-x="663" unicode="ƒ"/><glyph d="M799 1534l-234 315l99 86l210 -213l250 213l78 -86l-293 -315h-110zM1133 0l-80 256h-670l-135 -256h-324l776 1434h271l473 -1434h-311zM514 500h455l-166 567z" glyph-name="uni01CD" horiz-adv-x="1591" unicode="Ǎ"/><glyph d="M719 1165h-111l-233 316l98 86l211 -213l250 213l78 -86zM901 1065h293l-113 -1065h-293l17 125q-12 -43 -98 -94t-207 -51q-188 0 -334 130t-146 363q0 254 169 432t407 178q86 0 156.5 -31.5t99.5 -62.5t31 -47zM565 240q106 0 200.5 80.5t94.5 250.5 q0 121 -74.5 186.5t-177.5 65.5q-129 0 -214 -92t-85 -233q0 -125 72.5 -191.5t183.5 -66.5z" glyph-name="uni01CE" unicode="ǎ"/><glyph d="M266 1534l-233 315l98 86l211 -213l250 213l78 -86l-293 -315h-111zM457 1434l-152 -1434h-299l152 1434h299z" glyph-name="uni01CF" horiz-adv-x="536" unicode="Ǐ"/><glyph d="M207 1165l-234 316l99 86l211 -213l249 213l78 -86l-293 -316h-110zM395 1065l-112 -1065h-293l112 1065h293z" glyph-name="uni01D0" horiz-adv-x="493" unicode="ǐ"/><glyph d="M823 1534l-233 315l98 86l211 -213l250 213l78 -86l-293 -315h-111zM858 1454q289 0 484.5 -187.5t195.5 -480.5q0 -336 -240.5 -571t-572.5 -235q-291 0 -484.5 185t-193.5 478q0 338 239.5 574.5t571.5 236.5zM741 260q188 0 338 139.5t150 364.5q0 178 -110.5 294 t-278.5 116q-188 0 -335 -141.5t-147 -366.5q0 -178 108.5 -292t274.5 -114z" glyph-name="uni01D1" horiz-adv-x="1658" unicode="Ǒ"/><glyph d="M596 1165l-234 316l99 86l211 -213l250 213l77 -86l-292 -316h-111zM629 1085q197 0 355.5 -135t158.5 -372q0 -254 -179.5 -426t-431.5 -172q-123 0 -236.5 53t-194.5 172t-81 280q0 254 179.5 427t429.5 173zM549 240q127 0 218 89t91 240q0 123 -74.5 189.5 t-171.5 66.5q-125 0 -216 -90t-91 -241q0 -121 74 -187.5t170 -66.5z" glyph-name="uni01D2" horiz-adv-x="1263" unicode="ǒ"/><glyph d="M664 1534l-234 315l98 86l211 -213l250 213l78 -86l-293 -315h-110zM961 1434h299l-97 -920q-27 -252 -198.5 -398.5t-403.5 -146.5q-238 0 -386 152.5t-122 404.5l97 908h299l-97 -920q-14 -143 50.5 -203.5t166.5 -60.5q111 0 195 64.5t100 209.5z" glyph-name="uni01D3" horiz-adv-x="1339" unicode="Ǔ"/><glyph d="M578 1165l-234 316l98 86l211 -213l250 213l78 -86l-293 -316h-110zM393 -20q-168 0 -275.5 120.5t-82.5 356.5l61 608h293l-61 -598q-14 -123 37 -177t137 -54q109 0 177.5 73.5t92.5 157.5l68 598h293l-113 -1065h-293l25 195q-31 -70 -126.5 -142.5t-232.5 -72.5z" glyph-name="uni01D4" horiz-adv-x="1230" unicode="ǔ"/><glyph d="M903 -2q-313 -92 -325 -227q-6 -47 48 -60.5t101 13.5l61 -134q-55 -29 -141 -37t-169 6.5t-138 69t-47 140.5q16 147 282 223q-254 49 -404.5 250.5t-119.5 488.5q33 313 269.5 518t537.5 205q311 0 510 -213t166 -539q-29 -264 -206 -456.5t-425 -247.5zM358 702 q-20 -190 88.5 -316t286.5 -126q186 0 329.5 134t164.5 337q18 190 -90.5 316.5t-286.5 126.5q-186 0 -329 -134.5t-163 -337.5z" glyph-name="uni01EA" horiz-adv-x="1658" unicode="Ǫ"/><glyph d="M666 -4q-303 -92 -316 -225q-6 -47 48.5 -60.5t101.5 13.5l59 -134q-53 -29 -139 -37t-169 6.5t-138.5 69t-46.5 140.5q18 158 301 231q-162 51 -265.5 191.5t-81.5 351.5q18 170 122 298t231 185t252 57q96 0 190 -36.5t172 -104.5t120 -179.5t28 -246.5 q-20 -207 -157.5 -343t-311.5 -177zM303 516q-16 -129 55.5 -202.5t176.5 -73.5q115 0 210 80.5t109 222.5q12 131 -58.5 205.5t-174.5 74.5q-113 0 -207.5 -82t-110.5 -225z" glyph-name="uni01EB" horiz-adv-x="1261" unicode="ǫ"/><glyph d="M618 1458q174 0 290 -88t175 -213l-231 -123q-51 84 -111.5 122t-144.5 38q-80 0 -136.5 -41t-56.5 -113q0 -61 33 -94t113 -61l92 -35q209 -78 305 -178.5t96 -235.5q0 -145 -85 -254.5t-208.5 -161t-261.5 -51.5q-190 0 -325 101.5t-174 257.5l239 112 q72 -201 269 -200q104 0 171.5 49t67.5 143q0 57 -43 95t-149 79l-84 33q-164 61 -255 149.5t-91 241.5q0 195 153 311.5t352 116.5zM121 -539l153 486h392l-275 -486h-270z" glyph-name="Scommaaccent" horiz-adv-x="1169" unicode="Ș"/><glyph d="M584 752q-35 100 -129 100q-51 0 -82 -28.5t-31 -65.5q0 -53 74 -86l125 -45q66 -25 103.5 -44.5t83.5 -53t67.5 -82t21.5 -111.5q0 -166 -133 -261t-313 -95q-158 0 -272.5 81.5t-133.5 219.5l236 61q37 -131 174 -131q68 0 109.5 31.5t41.5 76.5q0 57 -71 84l-121 46 q-279 100 -279 309q0 143 116 235t282 92q152 0 247 -74.5t127 -203.5zM29 -539l153 486h391l-274 -486h-270z" glyph-name="scommaaccent" horiz-adv-x="952" unicode="ș"/><glyph d="M1124 1434l-28 -275h-351l-120 -1159h-299l120 1159h-348l31 275h995zM133 -539l154 486h391l-275 -486h-270z" glyph-name="uni021A" horiz-adv-x="1163" unicode="Ț"/><glyph d="M694 823h-227l-47 -471q-12 -109 72 -108q49 0 151 18l-20 -239q-82 -35 -220 -35q-145 0 -222 82t-56 290l49 463h-149l22 242h150l26 250h293l-27 -250h228zM41 -539l154 486h391l-275 -486h-270z" glyph-name="uni021B" horiz-adv-x="784" unicode="ț"/><glyph d="M442 1065l-125 -1171q-16 -158 -106 -237t-236 -79q-133 0 -231 55l18 281q70 -35 148 -35q111 0 127 121l110 1065h295z" glyph-name="uni0237" horiz-adv-x="540" unicode="ȷ"/><glyph d="M479 1567l234 -316l-99 -86l-211 213l-249 -213l-78 86l293 316h110z" glyph-name="circumflex" horiz-adv-x="636" unicode="ˆ"/><glyph d="M336 1165l-234 316l99 86l211 -213l250 213l77 -86l-293 -316h-110z" glyph-name="caron" horiz-adv-x="636" unicode="ˇ"/><glyph d="M770 1495q-14 -141 -112.5 -238.5t-260 -97.5t-237.5 99.5t-60 236.5h181q-4 -63 29.5 -101t105.5 -38q152 0 176 139h178z" glyph-name="breve" horiz-adv-x="669" unicode="˘"/><glyph d="M365 1436l-27 -254h-270l26 254h271z" glyph-name="dotaccent" horiz-adv-x="270" unicode="˙"/><glyph d="M344 1657q90 0 154.5 -64.5t64.5 -154.5q0 -98 -74.5 -172t-175.5 -74q-92 0 -155.5 63.5t-63.5 153.5q0 100 75 174t175 74zM334 1479q-25 0 -40 -16.5t-15 -43.5q0 -16 13 -29.5t32 -13.5q25 0 41 17.5t16 44.5q0 16 -15.5 28.5t-31.5 12.5z" glyph-name="ring" horiz-adv-x="471" unicode="˚"/><glyph d="M528 0q-180 -57 -251.5 -115.5t-71.5 -109.5q0 -49 54 -64.5t97 13.5l60 -134q-72 -33 -158 -41t-160.5 9.5t-126 65.5t-51.5 120q0 176 318 256h290z" glyph-name="ogonek" horiz-adv-x="583" unicode="˛"/><glyph d="M344 1534q82 0 200 -71.5t161 -71.5q33 0 66.5 15t35.5 34l111 -13q-12 -115 -81 -191.5t-182 -76.5q-63 0 -133.5 41t-132 83t-104.5 42q-31 0 -66 -20.5t-37 -47.5l-106 11q12 117 80.5 191.5t187.5 74.5z" glyph-name="tilde" horiz-adv-x="823" unicode="˜"/><glyph d="M586 1516l-293 -326h-223l157 326h359zM950 1516l-293 -326h-223l158 326h358z" glyph-name="hungarumlaut" horiz-adv-x="847" unicode="˝"/><glyph d="M-700 -440l153 485h391l-274 -485h-270z" glyph-name="uni0326" horiz-adv-x="0" unicode="̦"/><glyph d="M819 1434l463 -1434h-1296l768 1434h65zM743 954l-350 -698h551z" glyph-name="Delta" horiz-adv-x="1501" unicode="Δ"/><glyph d="M827 1448q133 0 257 -54.5t216.5 -148.5t140.5 -233.5t32 -296.5q-29 -262 -203 -455l41 25h65l-28 -285h-486l31 336l68 51q184 139 208 354q23 190 -80.5 300t-269.5 110q-174 0 -306 -116.5t-153 -319.5q-8 -96 25 -186.5t98 -149.5l60 -43l-31 -336h-483l28 285h78 l35 -15q-143 213 -115 471q20 201 141 366t289 253t342 88z" glyph-name="Omega" horiz-adv-x="1595" unicode="Ω"/><glyph d="M842 1065h293l-113 -1065h-293l25 190q-33 -66 -129.5 -136t-227.5 -70q-61 0 -114 -15l-45 -358h-293l153 1454h293l-61 -598q-14 -125 22.5 -176t120.5 -51q106 0 189 76.5t112 150.5z" glyph-name="mu" horiz-adv-x="1232" unicode="μ"/><glyph d="M1186 244q63 0 149 41l-16 -265q-72 -33 -238 -32q-106 0 -196 53t-80 158l65 610h-290l-86 -809h-299l86 809h-205l26 256h1297l-27 -256h-203l-49 -459q-8 -68 7.5 -87t58.5 -19z" glyph-name="pi" horiz-adv-x="1513" unicode="π"/><glyph d="M549 1802l-27 -243h-305l27 243h305zM1077 1802l-26 -243h-306l27 243h305zM336 274h606l-31 -274h-905l152 1434h886l-30 -275h-588l-29 -303h443l-29 -270h-444z" glyph-name="afii10023" horiz-adv-x="1114" unicode="Ё"/><glyph d="M1063 1802l-291 -264h-231l166 264h356zM1077 1434l-30 -275h-621l-121 -1159h-299l152 1434h919z" glyph-name="afii10052" horiz-adv-x="1105" unicode="Ѓ"/><glyph d="M1061 369l168 -222q-205 -168 -498 -167q-203 0 -366.5 94t-250.5 268t-63 389q33 313 270.5 518t540.5 205q283 0 469 -176l-188 -195q-125 90 -273 91q-164 0 -295 -92.5t-190 -241.5l336 6l-27 -256l-338 -6q29 -150 136.5 -237t265.5 -87q162 0 303 109z" glyph-name="afii10053" horiz-adv-x="1382" unicode="Є"/><glyph d="M457 1434l-152 -1434h-299l152 1434h299z" glyph-name="afii10055" horiz-adv-x="536" unicode="І"/><glyph d="M248 1802l-27 -243h-305l27 243h305zM776 1802l-26 -243h-306l27 243h305zM469 1434l-152 -1434h-299l152 1434h299z" glyph-name="afii10056" horiz-adv-x="563" unicode="Ї"/><glyph d="M1133 0l-80 256h-670l-135 -256h-324l776 1434h271l473 -1434h-311zM514 500h455l-166 567z" glyph-name="afii10017" horiz-adv-x="1591" unicode="А"/><glyph d="M602 956q244 0 377 -130t108 -353q-23 -213 -179 -343t-396 -130h-506l152 1434h895l-31 -275h-596l-20 -203h196zM514 274q117 0 191.5 55.5t85.5 172.5q12 104 -46.5 150t-175.5 46h-190l-43 -424h178z" glyph-name="afii10018" horiz-adv-x="1222" unicode="Б"/><glyph d="M883 793q106 -33 180 -123t74 -219q0 -221 -150.5 -336t-411.5 -115h-569l152 1434h528q199 0 306.5 -95.5t107.5 -240.5q0 -117 -62.5 -192.5t-154.5 -112.5zM643 1171h-213l-33 -288h201q96 0 149.5 48t53.5 126q0 114 -158 114zM580 262q127 0 196.5 59.5t69.5 157.5 q0 162 -230 162h-243l-37 -379h244z" glyph-name="afii10019" horiz-adv-x="1271" unicode="В"/><glyph d="M1077 1434l-30 -275h-621l-121 -1159h-299l152 1434h919z" glyph-name="afii10020" horiz-adv-x="1105" unicode="Г"/><glyph d="M1423 274h252l-45 -415h-299l15 141h-1078l-14 -141h-299l45 415l231 7q37 92 68 243.5t46 275.5t40 353l31 281h1128zM532 270l592 4l90 885h-530v-18q-25 -242 -38 -355.5t-44 -268.5t-70 -247z" glyph-name="afii10021" horiz-adv-x="1839" unicode="Д"/><glyph d="M336 274h606l-31 -274h-905l152 1434h886l-30 -275h-588l-29 -303h443l-29 -270h-444z" glyph-name="afii10022" horiz-adv-x="1114" unicode="Е"/><glyph d="M1835 0l-379 614l-199 -202l-47 -412h-307l45 412l-151 202l-510 -614h-353l691 821l-465 613h360l467 -623l68 623h307l-68 -623l596 623h373l-604 -613l514 -821h-338z" glyph-name="afii10024" horiz-adv-x="2340" unicode="Ж"/><glyph d="M649 1448q201 0 333 -118t114 -296q-10 -104 -93 -185t-178 -97q92 8 190.5 -91.5t84.5 -257.5q-23 -203 -190 -313t-394 -110q-236 0 -379 126.5t-123 321.5l312 -10q-6 -55 31.5 -93t81.5 -50.5t85 -12.5q53 0 106.5 13.5t104.5 58.5t60 115q8 78 -58.5 130t-218.5 52 l14 221q78 4 131.5 23.5t77 51t33.5 56.5t12 57q6 59 -39 92t-106 33q-74 0 -138.5 -40t-72.5 -119l-309 10q23 205 172 318.5t356 113.5z" glyph-name="afii10025" horiz-adv-x="1251" unicode="З"/><glyph d="M457 1434l-99 -891l801 891h236l-152 -1434h-299l98 889l-804 -889h-232l152 1434h299z" glyph-name="afii10026" horiz-adv-x="1474" unicode="И"/><glyph d="M1192 1796q-14 -121 -103.5 -206t-246.5 -85q-147 0 -233.5 94.5t-73.5 208.5l180 -12q4 -39 36.5 -66.5t90.5 -27.5q66 0 111.5 32.5t58.5 73.5zM457 1434l-99 -891l801 891h236l-152 -1434h-299l98 889l-804 -889h-232l152 1434h299z" glyph-name="afii10027" horiz-adv-x="1474" unicode="Й"/><glyph d="M928 0l-377 614l-201 -202l-45 -412h-299l152 1434h299l-68 -623l596 623h373l-604 -613l512 -821h-338z" glyph-name="afii10028" horiz-adv-x="1433" unicode="К"/><glyph d="M1462 1434l-151 -1434h-299l121 1159h-549l-84 -817q-23 -211 -109 -282.5t-233 -71.5q-131 0 -209 41l12 247q59 -31 133 -30q47 0 77 38t32 70l112 1080h1147z" glyph-name="afii10029" horiz-adv-x="1542" unicode="Л"/><glyph d="M1677 1434l-151 -1434h-299l84 752l-410 -752h-246l-266 748l-84 -748h-299l152 1434h286l367 -1018l569 1018h297z" glyph-name="afii10030" horiz-adv-x="1757" unicode="М"/><glyph d="M1034 1434h299l-151 -1434h-299l59 580h-577l-60 -580h-299l152 1434h299l-62 -580h578z" glyph-name="afii10031" horiz-adv-x="1413" unicode="Н"/><glyph d="M858 1454q289 0 484.5 -187.5t195.5 -480.5q0 -336 -240.5 -571t-572.5 -235q-291 0 -484.5 185t-193.5 478q0 338 239.5 574.5t571.5 236.5zM741 260q188 0 338 139.5t150 364.5q0 178 -110.5 294t-278.5 116q-188 0 -335 -141.5t-147 -366.5q0 -178 108.5 -292 t274.5 -114z" glyph-name="afii10032" horiz-adv-x="1658" unicode="О"/><glyph d="M1348 1434l-152 -1434h-299l121 1159h-592l-121 -1159h-299l152 1434h1190z" glyph-name="afii10033" horiz-adv-x="1427" unicode="П"/><glyph d="M653 1434q242 0 375 -138.5t107 -363.5q-20 -211 -175 -333t-397 -122h-207l-51 -477h-299l152 1434h495zM561 735q256 0 279 226q23 199 -224 198h-190l-43 -424h178z" glyph-name="afii10034" horiz-adv-x="1218" unicode="Р"/><glyph d="M1229 147q-207 -168 -502 -167q-289 0 -484.5 185t-195.5 478q0 338 241.5 574.5t573.5 236.5q283 0 469 -176l-203 -195q-119 90 -266 91q-205 0 -356.5 -145.5t-151.5 -379.5q0 -172 118 -280.5t294 -108.5q164 0 305 109z" glyph-name="afii10035" horiz-adv-x="1382" unicode="С"/><glyph d="M1124 1434l-28 -275h-351l-120 -1159h-299l120 1159h-348l31 275h995z" glyph-name="afii10036" horiz-adv-x="1163" unicode="Т"/><glyph d="M1133 1434h335l-931 -1434h-332l315 479l-416 955h322l285 -652z" glyph-name="afii10037" horiz-adv-x="1486" unicode="У"/><glyph d="M1102 1300q301 -12 489.5 -181t161.5 -417q-27 -236 -245 -396.5t-517 -172.5l-20 -133h-299l20 133q-299 16 -485.5 184t-157.5 414q20 233 236.5 393t517.5 176l20 134h299zM707 389l81 655q-227 -14 -330.5 -116.5t-113.5 -225.5q-6 -47 5 -93t46 -96t115 -83t197 -41 zM1006 389q121 6 211 41t138 88t72.5 105.5t30.5 107.5q4 49 -8 95t-47 96.5t-116 83t-200 38.5z" glyph-name="afii10038" horiz-adv-x="1871" unicode="Ф"/><glyph d="M1286 0h-346l-258 465l-358 -465h-359l563 725l-399 709h346l252 -449l344 449h359l-549 -709z" glyph-name="afii10039" horiz-adv-x="1464" unicode="Х"/><glyph d="M1526 274l-43 -415h-301l14 141h-1190l152 1434h299l-121 -1160h592l121 1160h299l-121 -1160h299z" glyph-name="afii10040" horiz-adv-x="1648" unicode="Ц"/><glyph d="M950 1434h299l-151 -1434h-299l63 575q-39 -61 -128 -115t-208 -54q-213 0 -334.5 117.5t-99.5 353.5l60 557h299l-62 -570q-8 -106 50.5 -148t142.5 -42q174 0 305 190z" glyph-name="afii10041" horiz-adv-x="1329" unicode="Ч"/><glyph d="M1939 1434h299l-151 -1434h-2081l152 1434h299l-121 -1160h592l121 1160h299l-121 -1160h592z" glyph-name="afii10042" horiz-adv-x="2318" unicode="Ш"/><glyph d="M2415 274l-45 -415h-297l14 141h-2081l152 1434h299l-121 -1160h592l121 1160h299l-121 -1160h592l120 1160h299l-120 -1160h297z" glyph-name="afii10043" horiz-adv-x="2535" unicode="Щ"/><glyph d="M825 956q244 0 377 -130t109 -353q-23 -213 -179.5 -343t-396.5 -130h-506l121 1159h-280l30 275h580l-51 -478h196zM737 274q117 0 192 55.5t85 172.5q12 104 -46.5 150t-174.5 46h-191l-43 -424h178z" glyph-name="afii10044" horiz-adv-x="1441" unicode="Ъ"/><glyph d="M602 956q244 0 377 -130t108 -353q-23 -213 -179 -343t-396 -130h-506l152 1434h299l-51 -478h196zM1425 1434h299l-151 -1434h-299zM514 274q117 0 191.5 55.5t85.5 172.5q12 104 -46.5 150t-175.5 46h-190l-43 -424h178z" glyph-name="afii10045" horiz-adv-x="1804" unicode="Ы"/><glyph d="M602 956q244 0 377 -130t108 -353q-23 -213 -179 -343t-396 -130h-506l152 1434h299l-51 -478h196zM514 274q117 0 191.5 55.5t85.5 172.5q12 104 -46.5 150t-175.5 46h-190l-43 -424h178z" glyph-name="afii10046" horiz-adv-x="1218" unicode="Ь"/><glyph d="M604 1454q309 0 510 -213t166 -539q-33 -313 -270.5 -517.5t-540.5 -204.5q-293 0 -477 180l192 198q111 -98 275 -98q166 0 297 92t190 244l-334 -6l27 256l334 6q-29 147 -134.5 234.5t-260.5 87.5q-154 0 -295 -95l-174 211q206 164 495 164z" glyph-name="afii10047" horiz-adv-x="1374" unicode="Э"/><glyph d="M1343 1454q289 0 484.5 -187.5t195.5 -480.5q0 -336 -240.5 -571t-572.5 -235q-276 0 -467.5 169.5t-207.5 442.5l-168 2l-62 -594h-299l152 1434h299l-64 -584l166 -2q70 264 289 435t495 171zM1227 260q188 0 337.5 139.5t149.5 364.5q0 178 -110.5 294t-278.5 116 q-188 0 -334.5 -141.5t-146.5 -366.5q0 -178 108.5 -292t274.5 -114z" glyph-name="afii10048" horiz-adv-x="2144" unicode="Ю"/><glyph d="M733 1434h506l-152 -1434h-299l52 477h-205l-356 -477h-324l414 532q-113 59 -169.5 169t-41.5 260q23 213 179 343t396 130zM676 735h190l43 424h-178q-250 0 -278 -227q-23 -197 223 -197z" glyph-name="afii10049" horiz-adv-x="1318" unicode="Я"/><glyph d="M901 1065h293l-113 -1065h-293l17 125q-12 -43 -98 -94t-207 -51q-188 0 -334 130t-146 363q0 254 169 432t407 178q86 0 156.5 -31.5t99.5 -62.5t31 -47zM565 240q106 0 200.5 80.5t94.5 250.5q0 121 -74.5 186.5t-177.5 65.5q-129 0 -214 -92t-85 -233 q0 -125 72.5 -191.5t183.5 -66.5z" glyph-name="afii10065" unicode="а"/><glyph d="M684 1083q207 0 354.5 -150.5t120.5 -412.5q-14 -133 -71.5 -239.5t-140.5 -170t-175 -97t-184 -33.5q-68 0 -125 18t-91 45t-51.5 52.5t-17.5 41.5l-20 -137h-293l112 1071q20 188 122 275.5t311 87.5h161q113 0 160 47l291 -13q-70 -145 -173.5 -210.5t-268.5 -65.5 h-154q-61 0 -106.5 -36t-49.5 -97l-14 -107q6 14 40 43t107.5 58.5t155.5 29.5zM879 547q12 131 -58.5 203.5t-185.5 72.5q-117 0 -206 -79.5t-103 -223.5q-14 -133 51 -206.5t174 -73.5q123 0 218.5 81t109.5 226z" glyph-name="afii10066" horiz-adv-x="1286" unicode="б"/><glyph d="M877 586q186 -78 186 -248t-143.5 -254t-364.5 -84h-565l112 1065h555q164 0 267.5 -67.5t103.5 -186.5q1 -153 -151 -225zM641 823h-268l-17 -155h254q49 0 78 21.5t34 38.5t5 32q0 63 -86 63zM571 242q195 0 195 104q0 18 -3 28.5t-15.5 30t-50.5 29.5t-97 10h-268 l-23 -202h262z" glyph-name="afii10067" horiz-adv-x="1208" unicode="в"/><glyph d="M948 1065l-26 -256h-553l-86 -809h-293l112 1065h846z" glyph-name="afii10068" horiz-adv-x="1030" unicode="г"/><glyph d="M1206 256h160l-39 -365h-293l10 109h-794l-10 -109h-295l39 365l133 6q47 57 76.5 158.5t42 186.5t30.5 259l21 199h1005zM408 250l505 6l60 553h-420l4 45q-16 -174 -27.5 -258t-42 -186.5t-79.5 -159.5z" glyph-name="afii10069" horiz-adv-x="1509" unicode="д"/><glyph d="M629 1085q113 0 217 -46t181 -158.5t77 -270.5q0 -92 -21 -186h-780q39 -201 270 -201q66 0 119 12.5t81 25.5t73 40l141 -158q-160 -164 -434 -163q-211 0 -372 132t-161 365q0 252 182.5 430t426.5 178zM623 836q-94 0 -173 -52.5t-120 -150.5h520q-12 102 -74.5 152.5 t-152.5 50.5z" glyph-name="afii10070" horiz-adv-x="1224" unicode="е"/><glyph d="M1421 0l-319 365l-49 -43l-39 -322h-293l39 322l-35 43l-406 -365h-395l619 563l-432 502h366l316 -346l41 346h292l-39 -346l388 346h383l-551 -502l495 -563h-381z" glyph-name="afii10072" horiz-adv-x="1939" unicode="ж"/><glyph d="M528 1083q186 0 300 -93t98 -222q-4 -47 -22.5 -83t-50.5 -58.5t-51.5 -33.5t-51.5 -24q-6 -2 -11 -4q20 -2 51 -15t69 -41t60.5 -81t16.5 -121q-18 -154 -163.5 -240.5t-334.5 -86.5q-211 0 -329.5 105t-98.5 277l275 -10q-4 -57 44 -95t117 -38q80 0 141.5 35t65.5 98 q8 53 -43 83t-159 32l10 192q98 2 136 30t44 77q4 31 -24.5 53.5t-86.5 22.5q-61 0 -107 -30t-50 -69l-279 11q18 147 129.5 238t304.5 91z" glyph-name="afii10073" horiz-adv-x="1095" unicode="з"/><glyph d="M1118 1065l-112 -1065h-295l61 545l-737 -545h-45l112 1065h293l-59 -545l735 545h47z" glyph-name="afii10074" horiz-adv-x="1216" unicode="и"/><glyph d="M977 1427q-12 -121 -100.5 -205.5t-247.5 -84.5q-150 0 -236 94t-74 209l181 -13q4 -39 37.5 -66.5t91.5 -27.5q63 0 109 32t61 75zM1118 1065l-112 -1065h-295l61 545l-737 -545h-45l112 1065h293l-59 -545l735 545h47z" glyph-name="afii10075" horiz-adv-x="1216" unicode="й"/><glyph d="M690 0l-319 365l-49 -43l-39 -322h-293l112 1065h293l-39 -346l389 346h381l-548 -502l495 -563h-383z" glyph-name="afii10076" horiz-adv-x="1210" unicode="к"/><glyph d="M1282 1065l-113 -1065h-295l87 809h-435l-51 -467q-10 -111 -39.5 -183.5t-78 -108.5t-98.5 -49t-120 -13q-119 0 -205 39l25 229q37 -14 107 -14q106 0 118 96l74 727h1024z" glyph-name="afii10077" horiz-adv-x="1380" unicode="л"/><glyph d="M1395 1065l-113 -1065h-295l45 387l-391 -387l-313 387l-45 -387h-293l112 1065h52l520 -662l661 662h60z" glyph-name="afii10078" horiz-adv-x="1492" unicode="м"/><glyph d="M803 1065h295l-113 -1065h-295l41 385h-405l-43 -385h-293l112 1065h293l-43 -424h406z" glyph-name="afii10079" horiz-adv-x="1196" unicode="н"/><glyph d="M629 1085q197 0 355.5 -135t158.5 -372q0 -254 -179.5 -426t-431.5 -172q-123 0 -236.5 53t-194.5 172t-81 280q0 254 179.5 427t429.5 173zM549 240q127 0 218 89t91 240q0 123 -74.5 189.5t-171.5 66.5q-125 0 -216 -90t-91 -241q0 -121 74 -187.5t170 -66.5z" glyph-name="afii10080" horiz-adv-x="1263" unicode="о"/><glyph d="M1139 1065l-113 -1065h-295l86 809h-448l-86 -809h-293l112 1065h1037z" glyph-name="afii10081" horiz-adv-x="1236" unicode="п"/><glyph d="M684 1085q207 0 354.5 -150.5t120.5 -414.5q-14 -133 -71.5 -239.5t-140.5 -170t-175 -97t-184 -33.5q-127 0 -206 57t-79 100l-61 -526h-293l67 627l86 827h293l-14 -113q6 16 40 45t107.5 58.5t155.5 29.5zM879 547q12 131 -58.5 204.5t-185.5 73.5q-117 0 -206 -80.5 t-103 -224.5q-14 -133 51 -206.5t174 -73.5q123 0 217.5 81t110.5 226z" glyph-name="afii10082" horiz-adv-x="1286" unicode="р"/><glyph d="M627 1085q313 0 436 -260l-234 -98q-84 98 -213 98t-220 -93t-91 -245q0 -121 70.5 -186t177.5 -65q74 0 126 26.5t109 79.5l222 -115q-176 -248 -480 -247q-123 0 -235.5 52t-193.5 171t-81 282q0 254 179.5 427t427.5 173z" glyph-name="afii10083" horiz-adv-x="1153" unicode="с"/><glyph d="M913 1065l-26 -256h-281l-86 -809h-293l86 809h-278l26 256h852z" glyph-name="afii10084" horiz-adv-x="974" unicode="т"/><glyph d="M967 1069h299l-805 -1458h-299l246 428l-353 1030h287l240 -717z" glyph-name="afii10085" horiz-adv-x="1312" unicode="у"/><glyph d="M1481 1083q207 0 355.5 -150.5t121.5 -412.5q-18 -174 -112.5 -301t-214.5 -183t-245 -56q-127 0 -205.5 56t-78.5 101l-62 -526h-292l57 502q-4 -12 -38 -41t-108.5 -59.5t-158.5 -30.5q-207 0 -354.5 150.5t-120.5 412.5q14 133 71.5 239.5t140 170t175 97t184.5 33.5 q68 0 126 -19t91 -46t51.5 -52.5t18.5 -41.5l59 528h293l-55 -500q8 16 41.5 44t106.5 56.5t153 28.5zM834 422l22 229q-45 174 -223 174q-123 0 -217 -80.5t-111 -226.5q-14 -131 57.5 -203.5t186.5 -72.5q88 0 165 48t120 132zM1675 547q14 131 -57.5 203.5t-183.5 72.5 q-90 0 -167 -48t-116 -132l-27 -229q45 -174 226 -174q123 0 218 82t107 225z" glyph-name="afii10086" horiz-adv-x="2084" unicode="ф"/><glyph d="M764 0l-199 332l-276 -332h-344l467 547l-310 518h328l170 -307l236 307h340l-426 -518l346 -547h-332z" glyph-name="afii10087" horiz-adv-x="1271" unicode="х"/><glyph d="M43 1065l414 584l-455 -1168zM1210 -141l-362 -84l84 225h-215l67 1065l416 584l-209 -1393l215 139zM-86 256l88 225l-20 -276zM-78 -639l60 844l276 -205h-104zM696 -328l-438 328h459z" glyph-name="afii10088" horiz-adv-x="1316" unicode="ц"/><glyph d="M844 1065h293l-113 -1065h-293l51 436q-61 -78 -127 -112q-96 -51 -225 -52q-78 0 -144.5 22.5t-124 70t-85 134.5t-15.5 201l39 365h293l-41 -379q-12 -156 142 -156q96 0 178 59.5t137 166.5z" glyph-name="afii10089" horiz-adv-x="1234" unicode="ч"/><glyph d="M1589 1065l-112 -1065h-1487l112 1065h293l-86 -809h303l86 809h295l-86 -809h303l86 809h293z" glyph-name="afii10090" horiz-adv-x="1687" unicode="ш"/><glyph d="M1642 256l-40 -397h-293l14 141h-1333l112 1065h293l-86 -809h303l86 809h295l-86 -809h303l86 809h293l-86 -809h139z" glyph-name="afii10091" horiz-adv-x="1767" unicode="щ"/><glyph d="M786 672q170 0 279 -85t109 -231q0 -162 -128 -259t-321 -97h-629l86 809h-168l27 256h461l-39 -393h323zM739 256q80 0 115 29.5t35 66.5q0 63 -121 64h-332l-20 -160h323z" glyph-name="afii10092" horiz-adv-x="1314" unicode="ъ"/><glyph d="M680 672q170 0 278.5 -85t108.5 -231q0 -162 -128 -259t-321 -97h-628l112 1065h293l-39 -393h324zM1303 1065h292l-112 -1065h-293zM633 256q80 0 114.5 26.5t34.5 63.5q0 70 -120 70h-332l-21 -160h324z" glyph-name="afii10093" horiz-adv-x="1693" unicode="ы"/><glyph d="M680 672q170 0 278.5 -85t108.5 -231q0 -162 -128 -259t-321 -97h-628l112 1065h293l-39 -393h324zM633 256q80 0 114.5 26.5t34.5 63.5q0 70 -120 70h-332l-21 -160h324z" glyph-name="afii10094" horiz-adv-x="1208" unicode="ь"/><glyph d="M528 1083q94 0 188.5 -36.5t172.5 -104.5t120 -179.5t25 -246.5q-16 -172 -119.5 -298t-229.5 -180t-251 -54q-315 0 -440 256l229 94q43 -47 89 -69.5t126 -22.5q86 0 168 50t125 136l-254 -6l21 203l258 4q-18 94 -85 144t-153 50q-139 0 -246 -106l-221 117 q172 249 477 249z" glyph-name="afii10095" horiz-adv-x="1159" unicode="э"/><glyph d="M1069 1085q197 0 355.5 -135t158.5 -372q0 -254 -179 -426t-431 -172q-111 0 -214.5 44t-186.5 140t-103 227h-143l-43 -391h-293l112 1065h293l-41 -401h133q57 188 218 304.5t364 116.5zM989 240q127 0 218 89t91 240q0 123 -74.5 189.5t-170.5 66.5q-125 0 -216.5 -90 t-91.5 -241q0 -121 74 -187.5t170 -66.5z" glyph-name="afii10096" horiz-adv-x="1703" unicode="ю"/><glyph d="M1153 1065l-113 -1065h-295l31 291h-170l-307 -291h-344l344 322q-96 49 -156.5 133t-60.5 196q0 184 147.5 299t352.5 115h571zM803 547l28 262h-264q-88 0 -144 -40t-56 -105q0 -117 161 -117h275z" glyph-name="afii10097" horiz-adv-x="1251" unicode="я"/><glyph d="M541 1434l-27 -244h-303l27 244h303zM1069 1434l-27 -244h-303l27 244h303zM629 1085q113 0 217 -46t181 -158.5t77 -270.5q0 -92 -21 -186h-780q39 -201 270 -201q66 0 119 12.5t81 25.5t73 40l141 -158q-160 -164 -434 -163q-211 0 -372 132t-161 365q0 252 182.5 430 t426.5 178zM623 836q-94 0 -173 -52.5t-120 -150.5h520q-12 102 -74.5 152.5t-152.5 50.5z" glyph-name="afii10071" horiz-adv-x="1224" unicode="ё"/><glyph d="M936 1434l-293 -265h-229l164 265h358zM948 1065l-26 -256h-553l-86 -809h-293l112 1065h846z" glyph-name="afii10100" horiz-adv-x="1030" unicode="ѓ"/><glyph d="M537 242q84 0 138 25.5t109 78.5l222 -117q-172 -246 -478 -245q-96 0 -189 34.5t-171 101t-120 177.5t-28 248q18 170 122 297t230 184t251 57q313 0 436 -260l-225 -94q-45 49 -90.5 71.5t-122.5 22.5q-90 0 -175.5 -55t-126.5 -150l259 7l-23 -203l-252 -4 q27 -86 90.5 -131t143.5 -45z" glyph-name="afii10101" horiz-adv-x="1148" unicode="є"/><glyph d="M113 1169l30 279h293l-28 -279h-295zM-10 0l112 1065h293l-112 -1065h-293z" glyph-name="afii10103" horiz-adv-x="493" unicode="і"/><glyph d="M209 1434l-27 -244h-305l27 244h305zM737 1434l-26 -244h-305l26 244h305zM428 1065l-113 -1065h-292l112 1065h293z" glyph-name="afii10104" horiz-adv-x="563" unicode="ї"/><glyph d="M788 1530h299l-22 -232l-18 -139h-621l-121 -1159h-299l152 1434h620z" glyph-name="afii10050" horiz-adv-x="1105" unicode="Ґ"/><glyph d="M666 1159h292l-36 -350h-553l-86 -809h-293l112 1065h553z" glyph-name="afii10098" horiz-adv-x="1030" unicode="ґ"/><glyph d="M717 1884h358l158 -325h-223zM2122 1434l-623 -1434h-215l-244 911l-422 -911h-215l-319 1434h309l185 -859l399 859h235l224 -859l366 859h320z" glyph-name="Wgrave" horiz-adv-x="2119" unicode="Ẁ"/><glyph d="M569 1516h359l157 -326h-223zM1573 1069h299l-492 -1069h-280l-172 725l-326 -725h-280l-267 1069h287l158 -717l329 717h256l185 -717z" glyph-name="wgrave" horiz-adv-x="1918" unicode="ẁ"/><glyph d="M1511 1884l-292 -325h-224l158 325h358zM2122 1434l-623 -1434h-215l-244 911l-422 -911h-215l-319 1434h309l185 -859l399 859h235l224 -859l366 859h320z" glyph-name="Wacute" horiz-adv-x="2119" unicode="Ẃ"/><glyph d="M1364 1516l-293 -326h-223l158 326h358zM1573 1069h299l-492 -1069h-280l-172 725l-326 -725h-280l-267 1069h287l158 -717l329 717h256l185 -717z" glyph-name="wacute" horiz-adv-x="1918" unicode="ẃ"/><glyph d="M1028 1804l-27 -254h-270l27 254h270zM1524 1804l-27 -254h-270l26 254h271zM2122 1434l-623 -1434h-215l-244 911l-422 -911h-215l-319 1434h309l185 -859l399 859h235l224 -859l366 859h320z" glyph-name="Wdieresis" horiz-adv-x="2119" unicode="Ẅ"/><glyph d="M881 1436l-27 -254h-270l26 254h271zM1376 1436l-26 -254h-271l27 254h270zM1573 1069h299l-492 -1069h-280l-172 725l-326 -725h-280l-267 1069h287l158 -717l329 717h256l185 -717z" glyph-name="wdieresis" horiz-adv-x="1918" unicode="ẅ"/><glyph d="M414 1884h358l158 -325h-223zM1493 1434l-633 -824l-67 -610h-299l67 610l-457 824h332l297 -553l416 553h344z" glyph-name="Ygrave" horiz-adv-x="1511" unicode="Ỳ"/><glyph d="M784 1190h-223l-293 326h359zM967 1069h299l-805 -1458h-299l246 428l-353 1030h287l240 -717z" glyph-name="ygrave" horiz-adv-x="1312" unicode="ỳ"/><glyph d="M1104 684l-25 -246h-1044l24 246h1045z" glyph-name="endash" horiz-adv-x="1232" unicode="–"/><glyph d="M1227 684l-25 -246h-1167l24 246h1168z" glyph-name="emdash" horiz-adv-x="1355" unicode="—"/><glyph d="M539 1434l-252 -549h-248l248 549h252z" glyph-name="quoteleft" horiz-adv-x="526" unicode="‘"/><glyph d="M39 885l252 549h248l-248 -549h-252z" glyph-name="quoteright" horiz-adv-x="526" unicode="’"/><glyph d="M-121 -231l252 548h254l-246 -548h-260z" glyph-name="quotesinglbase" horiz-adv-x="532" unicode="‚"/><glyph d="M537 1434l-252 -549h-248l248 549h252zM899 1434l-252 -549h-248l248 549h252z" glyph-name="quotedblleft" horiz-adv-x="888" unicode="“"/><glyph d="M39 885l252 549h248l-248 -549h-252zM401 885l252 549h248l-248 -549h-252z" glyph-name="quotedblright" horiz-adv-x="888" unicode="”"/><glyph d="M-119 -231l252 548h248l-248 -548h-252zM244 -231l252 548h247l-247 -548h-252z" glyph-name="quotedblbase" horiz-adv-x="888" unicode="„"/><glyph d="M719 1167l-23 -190h-211l-67 -338h-115l2 338h-213l23 190h196l4 267h258l-51 -267h197z" glyph-name="dagger" horiz-adv-x="808" unicode="†"/><glyph d="M516 1167h201l-21 -190h-219l-47 -211h-115l-4 211h-219l21 190h202v267h256zM420 668l4 -211h217l-18 -191h-201l-2 -266h-256l59 266h-205l19 191h221l47 211h115z" glyph-name="daggerdbl" horiz-adv-x="806" unicode="‡"/><glyph d="M217 459q-70 0 -118 49t-48 118.5t48 119t118 49.5t119 -49.5t49 -119t-49 -118.5t-119 -49z" glyph-name="bullet" horiz-adv-x="458" unicode="•"/><glyph d="M137 -10q-74 0 -121 52t-39 128q8 63 57.5 108.5t115.5 45.5q74 0 120.5 -52.5t38.5 -128.5q-8 -63 -58.5 -108t-113.5 -45zM643 -10q-74 0 -121 52t-39 128q8 63 57.5 108.5t114.5 45.5q74 0 121 -52.5t39 -128.5q-8 -63 -58.5 -108t-113.5 -45zM1149 -10q-74 0 -121 52 t-39 128q8 63 57.5 108.5t114.5 45.5q74 0 121 -52.5t39 -128.5q-8 -63 -58.5 -108t-113.5 -45z" glyph-name="ellipsis" horiz-adv-x="1488" unicode="…"/><glyph d="M354 1444q111 0 180.5 -77t57.5 -189q-10 -100 -88 -169t-180 -69q-111 0 -180.5 77t-57.5 189q10 100 88 169t180 69zM1051 1440l223 -150l-1000 -1290l-225 147zM344 1255q-29 0 -49.5 -22.5t-18.5 -54.5q2 -20 18.5 -35t39.5 -15q29 0 49 23t18 55q-2 20 -18 34.5 t-39 14.5zM1030 494q111 0 181.5 -78t56.5 -189q-10 -100 -87 -168.5t-180 -68.5q-111 0 -181 77.5t-56 188.5q10 100 87 169t179 69zM1696 494q111 0 181.5 -78t55.5 -189q-10 -100 -87 -168.5t-179 -68.5q-111 0 -181.5 77.5t-55.5 188.5q10 100 87 169t179 69zM1020 305 q-29 0 -49.5 -22.5t-18.5 -55.5q4 -20 21.5 -34.5t38.5 -14.5q29 0 49 22.5t18 55.5q-2 20 -19 34.5t-40 14.5zM1686 305q-29 0 -49.5 -22.5t-18.5 -55.5q4 -20 21.5 -34.5t37.5 -14.5q29 0 49.5 22.5t18.5 55.5q-2 20 -19 34.5t-40 14.5z" glyph-name="perthousand" horiz-adv-x="2095" unicode="‰"/><glyph d="M84 526l8 113l340 307l80 -94l-227 -268l172 -269l-101 -96z" glyph-name="guilsinglleft" horiz-adv-x="528" unicode="‹"/><glyph d="M457 639l-8 -113l-340 -307l-80 94l227 269l-172 268l100 96z" glyph-name="guilsinglright" horiz-adv-x="528" unicode="›"/><glyph d="M633 1434l-1032 -1434h-107l1045 1434h94z" glyph-name="fraction" horiz-adv-x="221" unicode="⁄"/><glyph d="M881 260q164 0 305 109l157 -222q-207 -168 -501 -167q-246 0 -429.5 137t-234.5 366h-151l20 185h115q6 70 6 71h-117l21 185h141q88 236 298 383t466 147q283 0 469 -176l-203 -195q-119 90 -266 91q-133 0 -251 -67t-185 -183h426l-23 -185h-469q-6 -68 -6 -71h473 l-22 -185h-416q47 -104 147.5 -163.5t229.5 -59.5z" glyph-name="Euro" horiz-adv-x="1497" unicode="€"/><glyph d="M522 1434l-10 -95h-121l-29 -274h-108l31 274h-123l10 95h350zM1085 1434l-38 -369h-107l23 190l-119 -190h-80l-78 190l-24 -190h-107l39 369h104l107 -256l170 256h110z" glyph-name="trademark" horiz-adv-x="1179" unicode="™"/><glyph d="M246 1436l-56 -535h-75l47 453l-35 -23l-33 64l76 41h76zM1071 1434l-1032 -1434h-98l1044 1434h86zM842 539q76 0 115.5 -43t35.5 -99q-8 -70 -73 -106q84 -41 73 -137q-8 -68 -66.5 -113t-133.5 -45q-78 0 -129.5 47t-42.5 119q10 90 100 133q-55 43 -49 111 q6 53 53 93t117 40zM844 475q-41 0 -66.5 -22.5t-29.5 -55.5q-4 -29 18 -52t53 -23q37 0 64.5 25.5t31.5 58.5q4 31 -12 50t-59 19zM821 258q-47 0 -85 -29.5t-42 -74.5q-4 -41 25 -68t72 -27q51 0 85.5 29t41.5 74q4 43 -23 69.5t-74 26.5z" glyph-name="oneeighth" horiz-adv-x="1138" unicode="⅛"/><glyph d="M274 1440q68 0 113 -43t39 -101q-6 -66 -72 -106q80 -35 72 -137q-8 -68 -67.5 -114t-135.5 -46q-84 0 -132 56.5t-38 131.5l78 -4q-4 -49 20.5 -84t71.5 -35t84 29t41 74q6 53 -29.5 73.5t-109.5 20.5l2 59q131 0 141 91q2 31 -20.5 51t-57.5 20q-45 0 -75.5 -29.5 t-36.5 -84.5l-74 4q6 78 59 126t127 48zM1110 1434l-1030 -1434h-98l1042 1434h86zM877 539q76 0 116.5 -43t34.5 -99q-8 -70 -72 -106q84 -43 74 -137q-8 -68 -67.5 -113t-135.5 -45q-78 0 -129 47t-43 119q10 90 103 133q-57 41 -51 111q6 53 53 93t117 40zM879 475 q-43 0 -68 -22.5t-29 -55.5q-4 -29 18.5 -52t53.5 -23q37 0 64.5 25.5t31.5 58.5q4 31 -12 50t-59 19zM856 258q-45 0 -83 -29.5t-42 -74.5q-4 -41 24.5 -68t71.5 -27q51 0 86 29t39 74q4 43 -22.5 69.5t-73.5 26.5z" glyph-name="threeeighths" horiz-adv-x="1175" unicode="⅜"/><glyph d="M420 1436l-6 -66h-213l-31 -119q45 20 92 21q74 0 126 -56.5t44 -136.5q-8 -78 -70.5 -132t-140.5 -54q-70 0 -118 39t-56 90l72 35q-2 -41 26.5 -70t75.5 -29q49 0 88 37t45 92q6 49 -22.5 84t-69.5 35q-72 0 -125 -61l-65 18l65 273h283zM1110 1434l-1032 -1434h-98 l1044 1434h86zM881 539q76 0 115.5 -43t35.5 -99q-8 -70 -74 -106q84 -41 74 -137q-8 -68 -66.5 -113t-134.5 -45q-78 0 -129 47t-43 119q10 90 101 133q-55 43 -49 111q6 53 53 93t117 40zM883 475q-43 0 -67.5 -22.5t-29.5 -55.5q-4 -29 18.5 -52t53.5 -23q37 0 64.5 25.5 t31.5 58.5q4 31 -12 50t-59 19zM860 258q-47 0 -85 -29.5t-42 -74.5q-4 -41 24.5 -68t71.5 -27q51 0 86 29t41 74q4 43 -22.5 69.5t-73.5 26.5z" glyph-name="fiveeighths" horiz-adv-x="1179" unicode="⅝"/><glyph d="M449 1436l-265 -535h-80l232 469h-248l6 66h355zM1069 1434l-1032 -1434h-98l1044 1434h86zM840 539q76 0 115.5 -43t35.5 -99q-8 -70 -73 -106q84 -41 73 -137q-8 -68 -66.5 -113t-133.5 -45q-78 0 -129.5 47t-43.5 119q10 90 101 133q-55 43 -49 111q6 53 53 93t117 40 zM842 475q-43 0 -67.5 -22.5t-29.5 -55.5q-4 -29 18.5 -52t53.5 -23q37 0 64.5 25.5t31.5 58.5q4 31 -12 50t-59 19zM819 258q-47 0 -85 -29.5t-42 -74.5q-4 -41 24.5 -68t71.5 -27q51 0 86 29t41 74q4 43 -22.5 69.5t-73.5 26.5z" glyph-name="seveneighths" horiz-adv-x="1136" unicode="⅞"/><glyph d="M213 1434h299l301 -469q4 -6 25.5 -41t28.5 -45.5t26.5 -44t26 -49t21.5 -49.5t21.5 -55.5t14.5 -55t10 -62t3 -64.5t-3 -71q-18 -193 -178 -320.5t-346 -127.5q-199 0 -336 134t-117 337q20 176 170 312t326 136q49 0 59 -10zM532 643q-98 0 -166.5 -63.5t-78.5 -153.5 q-10 -84 41 -139.5t139 -55.5q96 0 165.5 62.5t78.5 161.5q8 70 -39.5 129t-139.5 59z" glyph-name="partialdiff" horiz-adv-x="1120" unicode="∂"/><glyph d="M152 1638h1339l-213 -2027h-289l187 1761h-762l-187 -1761h-288z" glyph-name="product" horiz-adv-x="1523" unicode="∏"/><glyph d="M1393 1638l-27 -264h-774l336 -749l-486 -750h766l-28 -264h-1246l674 1014l-452 1013h1237z" glyph-name="summation" horiz-adv-x="1425" unicode="∑"/><glyph d="M737 684l-24 -246h-686l24 246h686z" glyph-name="minus" horiz-adv-x="870" unicode="−"/><glyph d="M1708 1638l-780 -2027h-348l-293 868h-256l32 332h449l260 -815l633 1642h303z" glyph-name="radical" horiz-adv-x="1736" unicode="√"/><glyph d="M1217 891q164 0 256 -102.5t75 -251.5q-16 -154 -129.5 -257.5t-277.5 -103.5q-184 0 -369 199q-221 -199 -407 -199q-166 0 -258.5 103.5t-75.5 257.5q16 150 129.5 252t279.5 102q180 0 365 -197q228 197 412 197zM391 403q141 0 252 134q-86 133 -221 133 q-63 0 -108.5 -39t-51.5 -94.5t31 -94.5t98 -39zM1317 536.5q6 55.5 -31 94.5t-98 39q-143 0 -256 -133q84 -133 225 -134q63 0 108.5 39t51.5 94.5z" glyph-name="infinity" horiz-adv-x="1691" unicode="∞"/><glyph d="M666 1638l-19 -256q-39 0 -66.5 -11t-42 -23.5t-23.5 -46t-11 -51t-8 -66.5l-129 -1229q-20 -195 -121 -269.5t-340 -74.5l16 256q94 0 117.5 32.5t34.5 133.5l129 1229q23 201 126.5 288.5t336.5 87.5z" glyph-name="integral" horiz-adv-x="659" unicode="∫"/><glyph d="M336 915q90 0 226 -71.5t202 -71.5q31 0 63.5 16.5t34.5 34.5l111 -10q-12 -117 -86 -192.5t-201 -75.5q-88 0 -224 84t-210 84q-29 0 -62.5 -22.5t-35.5 -49.5l-105 10q14 117 85 190.5t202 73.5zM301 575q90 0 224 -72.5t200 -72.5q29 0 63.5 17.5t36.5 35.5l113 -10 q-14 -117 -88 -193.5t-201 -76.5q-88 0 -224 85t-210 85q-29 0 -61.5 -22.5t-34.5 -49.5l-105 10q12 117 84 190.5t203 73.5z" glyph-name="approxequal" horiz-adv-x="1003" unicode="≈"/><glyph d="M725 602h-203l-39 -82h234l-27 -246h-330l-135 -274h-260l135 274h-96l27 246h192l39 82h-223l29 246h319l145 301h261l-148 -301h109z" glyph-name="notequal" horiz-adv-x="811" unicode="≠"/><glyph d="M805 1214l-27 -249l-377 -197l336 -195l-26 -251l-662 403l12 86zM702 250l-26 -246h-686l26 246h686z" glyph-name="lessequal" horiz-adv-x="874" unicode="≤"/><glyph d="M104 1214l662 -403l-12 -86l-744 -403l27 251l377 195l-336 197zM2 250h686l-26 -246h-687z" glyph-name="greaterequal" horiz-adv-x="827" unicode="≥"/><glyph d="M866 1434l246 -717l-389 -717h-422l-246 717l389 717h422zM528 207l281 510l-170 510l-281 -510z" glyph-name="lozenge" horiz-adv-x="1241" unicode="◊"/><glyph d="M1694 1434l-29 -1434h-307l22 883l-417 -883h-254l-228 883l-168 -883h-307l275 1434h294l304 -1035l520 1035h295z" glyph-name="M.aalt" horiz-adv-x="1873"/><glyph d="M420 1436l-27 -254h-270l27 254h270zM395 1065l-112 -1065h-293l112 1065h293z" glyph-name="i.aalt" horiz-adv-x="493"/><glyph d="M1192 823l-47 -471q-12 -109 72 -108q49 0 151 18l-20 -239q-82 -35 -220 -35q-145 0 -222 82t-56 290l49 463h-444l-90 -823h-293l90 823h-142l23 242h141l4 47q12 113 57.5 189.5t109 109.5t116.5 45t111 12q162 0 268 -71l-111 -199q-45 25 -112 25q-127 0 -146 -121 l-4 -37h445l26 250h293l-27 -250h228l-23 -242h-227z" glyph-name="f_t.dlig" horiz-adv-x="1509"/><glyph d="M1262 823l-48 -471q-12 -109 72 -108q49 0 152 18l-21 -239q-82 -35 -219 -35q-145 0 -222 82t-56 290l49 463h-502l-47 -471q-12 -109 72 -108q49 0 151 18l-20 -239q-82 -35 -220 -35q-145 0 -222 82t-56 290l49 463h-149l22 242h150l26 250h293l-27 -250h502l27 250 h293l-27 -250h227l-22 -242h-227z" glyph-name="t_t.dlig" horiz-adv-x="1574"/><glyph d="M707 1454q233 0 380.5 -160.5t147.5 -459.5q0 -365 -179 -609.5t-483 -244.5q-231 0 -378.5 162.5t-147.5 463.5q0 231 77 422t229.5 308.5t353.5 117.5zM694 1198q-121 0 -207 -91t-121.5 -222t-35.5 -289q0 -152 60.5 -256t197.5 -104q121 0 206 90t120.5 221t35.5 284 q0 158 -58.5 262.5t-197.5 104.5z" glyph-name="zero.salt" horiz-adv-x="1353"/><glyph d="M803 1454q231 0 379.5 -160.5t148.5 -459.5q0 -365 -179 -609.5t-482 -244.5q-231 0 -380 162.5t-149 463.5q0 356 180.5 602t481.5 246zM788 1198q-121 0 -205.5 -91t-120.5 -222t-36 -289q0 -152 60.5 -256t197.5 -104q121 0 206 90t121 221t36 284q0 100 -20.5 177 t-81.5 133.5t-157 56.5z" glyph-name="zero.tnum" horiz-adv-x="1433"/><glyph d="M965 1434l-152 -1434h-299l125 1180h-244l27 254h543z" glyph-name="one.tnum" horiz-adv-x="1433"/><glyph d="M813 1456q213 0 335 -117.5t122 -291.5q0 -147 -66.5 -250t-288.5 -334q-41 -43 -63 -66l-129 -135h465l-27 -260h-995l2 41l414 449q23 25 106.5 113.5t112 122.5t79 99.5t69 114.5t18.5 96q0 86 -51.5 120t-114.5 34q-74 0 -135.5 -50t-79.5 -165l-6 -35h-306l5 45 q16 201 156 335t378 134z" glyph-name="two.tnum" horiz-adv-x="1433"/><glyph d="M422 424q76 -188 260 -188q121 0 198.5 75.5t77.5 194.5q0 96 -65.5 155.5t-187.5 59.5q-55 0 -168 -23l327 480h-522l27 256h950l-387 -529q139 -18 230 -127.5t91 -263.5q0 -229 -165.5 -381.5t-415.5 -152.5q-186 0 -312.5 87t-177.5 228z" glyph-name="three.tnum" horiz-adv-x="1433"/><glyph d="M1278 573l-27 -256h-153l-33 -317h-299l33 317h-615l25 256l704 861h304l-93 -861h154zM518 573h307l54 463z" glyph-name="four.tnum" horiz-adv-x="1433"/><glyph d="M1169 1434l-26 -256h-512l-66 -244l21 10q23 10 75 23.5t113 13.5q186 0 325.5 -127t139.5 -326q0 -248 -171 -398t-402 -150q-186 0 -322.5 85t-179.5 218l242 116q61 -158 249 -157q45 0 91.5 14t92.5 44t74.5 87t28.5 133q0 109 -67.5 161t-155.5 52q-129 0 -227 -98 l-244 84l172 715h749z" glyph-name="five.tnum" horiz-adv-x="1433"/><glyph d="M1204 1434l-479 -541q8 6 51 6q170 0 296 -128t126 -304q0 -221 -152.5 -354t-377.5 -133q-184 0 -318.5 120.5t-134.5 309.5q0 104 45 210.5t92 172t144 182.5l397 459h311zM719 643q-100 0 -163.5 -65.5t-63.5 -153.5t58 -140.5t142 -52.5q106 0 167 65.5t61 156.5 q0 82 -55.5 136t-145.5 54z" glyph-name="six.tnum" horiz-adv-x="1433"/><glyph d="M1346 1434l-748 -1434h-297l623 1178h-557l26 256h953z" glyph-name="seven.tnum" horiz-adv-x="1433"/><glyph d="M1038 815q82 -43 135.5 -132t53.5 -202q0 -225 -174 -363t-385 -138q-197 0 -340.5 117.5t-143.5 316.5q0 135 75 245.5t194 165.5q-100 88 -101 226q0 160 124 281.5t325 121.5q180 0 287.5 -100.5t107.5 -249.5q0 -174 -158 -289zM625 1051q0 -57 32.5 -91t94.5 -34 q72 0 116.5 44t44.5 103q0 57 -37.5 89t-93.5 32q-66 0 -111.5 -41t-45.5 -102zM682 244q102 0 170 68.5t68 170.5q0 86 -56.5 134.5t-132.5 48.5q-109 0 -175.5 -75t-66.5 -161q0 -88 53.5 -137t139.5 -49z" glyph-name="eight.tnum" horiz-adv-x="1433"/><glyph d="M276 0l480 541q-8 -6 -51 -6q-170 0 -296 128t-126 304q0 221 152.5 354t377.5 133q184 0 318.5 -121t134.5 -309q0 -150 -71 -275.5t-210 -289.5l-397 -459h-312zM762 791q100 0 163.5 65.5t63.5 153.5t-58.5 140t-142.5 52q-106 0 -166.5 -65.5t-60.5 -155.5 q0 -82 55.5 -136t145.5 -54z" glyph-name="nine.tnum" horiz-adv-x="1433"/><glyph d="M207 539q96 0 150.5 -73t41.5 -187l-4 -27q-12 -115 -77.5 -185.5t-160 -70.5t-148.5 72.5t-44 187.5l4 27q12 115 79 185.5t159 70.5zM208.5 475q-61.5 0 -108.5 -53t-55 -143l-4 -27q-8 -90 23.5 -141.5t91.5 -51.5q66 0 110.5 52.5t52.5 144.5l5 27q8 92 -23 142 t-92.5 50z" glyph-name="zero.dnom" horiz-adv-x="532"/><glyph d="M143 535l-57 -535h-76l51 453l-38 -23l-31 64l76 41h75z" glyph-name="one.dnom" horiz-adv-x="249"/><glyph d="M164 541q72 0 119 -48.5t41 -109.5q-6 -53 -40 -96t-120 -123l-109 -98h242l-8 -66h-344l8 66l151 143q109 102 125 133q14 23 17 49q4 37 -19.5 61.5t-60.5 24.5q-41 0 -74 -27.5t-39 -76.5l-2 -27h-76l5 31q8 72 61 118t123 46z" glyph-name="two.dnom" horiz-adv-x="452"/><glyph d="M178 539q68 0 114 -43t40 -101q-6 -66 -74 -106q35 -14 56.5 -50t15.5 -87q-8 -68 -66.5 -114t-134.5 -46q-84 0 -132 56t-38 132l76 -4q-4 -49 20.5 -84t71.5 -35t84 29t43 74q4 53 -32 73.5t-109 20.5l2 59q131 0 141 90q2 31 -19.5 51.5t-56.5 20.5q-45 0 -75.5 -29.5 t-36.5 -85.5l-76 5q6 78 59 126t127 48z" glyph-name="three.dnom" horiz-adv-x="477"/><glyph d="M342 535l-33 -316h56l-9 -63h-55l-16 -156h-76l16 156h-270l311 379h76zM254 414l-154 -195h133z" glyph-name="four.dnom" horiz-adv-x="503"/><glyph d="M326 535l-9 -66h-213l-30 -119q47 20 92 21q74 0 126 -56.5t44 -136.5q-8 -78 -69.5 -132t-139.5 -54q-70 0 -119 39t-55 90l70 35q0 -41 27.5 -70t74.5 -29q49 0 89 37t46 92q4 49 -24.5 84t-67.5 35q-72 0 -125 -61l-66 18l66 273h283z" glyph-name="five.dnom" horiz-adv-x="481"/><glyph d="M301 535l-160 -197h11q70 0 117.5 -53.5t41.5 -122.5q-8 -70 -65.5 -120t-124.5 -50q-72 0 -122 53t-42 125q2 27 10 48.5t22.5 45t25 35.5t34 39t31.5 37l135 160h86zM150 272q-47 0 -80 -30.5t-37 -79.5q-6 -45 21.5 -75t64.5 -30q39 0 75.5 32t41.5 81 q4 45 -22.5 73.5t-63.5 28.5z" glyph-name="six.dnom" horiz-adv-x="456"/><glyph d="M350 535l-266 -535h-80l232 469h-248l8 66h354z" glyph-name="seven.dnom" horiz-adv-x="456"/><glyph d="M178 539q76 0 116 -43t36 -99q-8 -70 -74 -106q84 -41 74 -137q-8 -68 -66.5 -113t-134.5 -45q-78 0 -129 47t-43 119q10 90 100 133q-55 43 -49 111q6 53 53 93t117 40zM180 475q-41 0 -66.5 -22.5t-29.5 -55.5q-4 -29 18.5 -52t53.5 -23q37 0 64.5 25.5t31.5 58.5 q4 31 -12.5 50t-59.5 19zM158 258q-47 0 -85 -29.5t-42 -74.5q-4 -41 24.5 -68t71.5 -27q51 0 86 29t41 74q4 43 -22.5 69.5t-73.5 26.5z" glyph-name="eight.dnom" horiz-adv-x="477"/><glyph d="M170 541q72 0 122 -52.5t42 -123.5q-2 -23 -9.5 -43.5t-14.5 -35t-22.5 -36t-22.5 -29.5t-28.5 -31.5t-27.5 -31.5l-133 -158h-88l159 195h-8q-70 0 -119 53t-43 125q8 70 65.5 119t127.5 49zM172 475q-41 0 -78 -31.5t-41 -78.5q-4 -45 23.5 -75t64.5 -30q47 0 79 31 t36 82q6 43 -20.5 72.5t-63.5 29.5z" glyph-name="nine.dnom" horiz-adv-x="458"/><glyph d="M299 1440q96 0 150.5 -73t42.5 -187l-3 -27q-12 -115 -77.5 -185.5t-159.5 -70.5t-149.5 72.5t-43.5 187.5l2 27q12 115 79 185.5t159 70.5zM301 1376q-61 0 -108.5 -53t-55.5 -143l-2 -27q-10 -90 22.5 -141t92.5 -51q66 0 111 52t53 144l2 27q10 90 -21 141t-94 51z " glyph-name="zero.numr" horiz-adv-x="530"/><glyph d="M238 1436l-56 -535h-76l50 453l-37 -23l-33 64l76 41h76z" glyph-name="one.numr" horiz-adv-x="249"/><glyph d="M260 1442q72 0 119 -48t41 -110q-6 -53 -40 -96t-120 -123l-108 -98h241l-6 -66h-344l6 66l152 143q10 8 28.5 25.5t24.5 23.5t20.5 19.5t18.5 19.5t14 16.5t13.5 15.5t8.5 14t7 15.5t5 15.5t3 17q2 37 -21.5 61.5t-60.5 24.5q-41 0 -73.5 -27.5t-36.5 -76.5l-5 -27h-75 l4 31q8 72 61 118t123 46z" glyph-name="two.numr" horiz-adv-x="454"/><glyph d="M272 1440q68 0 114 -43t40 -101q-6 -66 -74 -106q35 -14 56.5 -50t15.5 -87q-6 -68 -65.5 -114t-135.5 -46q-84 0 -132 56.5t-38 131.5l78 -4q-6 -49 19.5 -84t72.5 -35t84 29t41 74q6 53 -29.5 73.5t-109.5 20.5l2 59q131 0 139 91q2 31 -19.5 51t-56.5 20 q-45 0 -75.5 -29.5t-36.5 -84.5l-76 4q8 78 60 126t126 48z" glyph-name="three.numr" horiz-adv-x="475"/><glyph d="M434 1436l-33 -316h56l-6 -63h-56l-16 -156h-76l16 156h-270l309 379h76zM346 1315l-153 -195h133z" glyph-name="four.numr" horiz-adv-x="501"/><glyph d="M420 1436l-6 -66h-213l-31 -119q45 20 92 21q74 0 126 -56.5t44 -136.5q-8 -78 -70.5 -132t-140.5 -54q-70 0 -118 39t-56 90l72 35q-2 -41 26.5 -70t75.5 -29q49 0 88 37t45 92q6 49 -22.5 84t-69.5 35q-72 0 -125 -61l-65 18l65 273h283z" glyph-name="five.numr" horiz-adv-x="483"/><glyph d="M397 1436l-159 -197h10q70 0 119 -53t40.5 -123t-65.5 -120t-125 -50q-72 0 -122 53t-42 125q2 27 10.5 48.5t22.5 45t24.5 35.5t34 39t31.5 37l135 160h86zM248 1174q-47 0 -81 -31t-38 -80q-4 -45 23.5 -75t64.5 -30q39 0 75 32t40 81q6 45 -20.5 74t-63.5 29z" glyph-name="six.numr" horiz-adv-x="458"/><glyph d="M442 1436l-264 -535h-80l232 469h-248l6 66h354z" glyph-name="seven.numr" horiz-adv-x="454"/><glyph d="M272 1440q76 0 117 -43t35 -99q-8 -70 -72 -106q84 -43 72 -137q-6 -68 -64.5 -113t-136.5 -45t-129 47t-43 119q10 90 103 133q-57 41 -52 111q6 53 53 93t117 40zM274 1376q-41 0 -66.5 -22.5t-29.5 -55.5q-4 -29 18.5 -52t53.5 -23q37 0 64.5 25.5t31.5 58.5 q4 31 -12.5 50t-59.5 19zM252 1159q-45 0 -83 -29.5t-44 -74.5q-2 -41 26.5 -67.5t71.5 -26.5q51 0 86 28.5t39 73.5q4 43 -22.5 69.5t-73.5 26.5z" glyph-name="eight.numr" horiz-adv-x="477"/><glyph d="M262 1442q72 0 122 -52.5t42 -123.5q-2 -27 -9 -49.5t-22.5 -45t-26 -36t-34 -40t-31.5 -36.5l-133 -158h-88l160 195h-9q-72 0 -121 54t-40.5 123.5t64.5 119t126 49.5zM264 1376q-41 0 -76.5 -31.5t-42.5 -78.5q-4 -45 24 -75t64 -30q47 0 79 31t38 82q4 43 -22.5 72.5 t-63.5 29.5z" glyph-name="nine.numr" horiz-adv-x="454"/></font>
</defs>
</svg>
