<?xml version="1.0" standalone="no"?>
<!DOCTYPE svg PUBLIC "-//W3C//DTD SVG 1.1//EN" "http://www.w3.org/Graphics/SVG/1.1/DTD/svg11.dtd">
<svg xmlns="http://www.w3.org/2000/svg"><metadata>This SVG WebFont was generated by YouWorkForThem.
© 2016 Connary Fagen</metadata><defs><font horiz-adv-x="1284" id="ywftsvg"><font-face ascent="1638" bbox="-668 -524 2355 2009" cap-height="1434" descent="-410" font-family="" font-stretch="normal" font-weight="700" panose-1="0 0 8 0 0 0 0 0 0 0" underline-position="0" underline-thickness="0" unicode-range="U+0020-FB02" units-per-em="2048" x-height="1065"/><missing-glyph d="M831 1638v-2027h-643v2027h643zM676 1503h-336v-67h133v-76h-135v-66h338v66h-135v76h135v67zM541 1241h-203v-211h338v70h-135v141zM473 1171v-71h-67v71h67zM676 975h-338v-66h135v-75h-135v-68h203v143h135v66zM676 854h-68v-133h-270v-70h338v203zM676 606h-203v-112 h68v45h67v-95h-202v162h-68v-229h338v229zM676 256h-338v-229h338v229zM608 188v-94h-202v94h202zM676 -20h-338v-66h143l-143 -96v-68h338v68h-207l141 96h66v66z" horiz-adv-x="1013"/><glyph d="M719 1227q-47 20 -115 20q-139 0 -158 -137l-4 -45h254l-22 -217h-252l-92 -848h-262l90 848h-135l22 217h135l4 55q12 109 55.5 183.5t105 107.5t113.5 45t109 12q92 0 172 -28zM862 1196l27 252h264l-27 -252h-264zM735 0l113 1065h264l-113 -1065h-264z" glyph-name="uniFB01" horiz-adv-x="1210" unicode="fi"/><glyph d="M604 1247q-139 0 -158 -137l-4 -45h254l-22 -217h-252l-92 -848h-262l90 848h-135l22 217h135l4 55q12 109 55.5 183.5t105 107.5t113.5 45t109 12q152 0 258 -69l-100 -178q-49 26 -121 26zM954 1448h265l-154 -1448h-264z" glyph-name="uniFB02" horiz-adv-x="1275" unicode="fl"/><glyph d="M1348 1247q-139 0 -158 -137l-4 -45h254l-23 -217h-252l-92 -848h-262l90 848h-479l-92 -848h-262l90 848h-135l22 217h135l4 55q12 109 55.5 183.5t105 107.5t113.5 45t109 12q152 0 258 -69l-100 -178q-49 27 -121 26q-139 0 -158 -137l-4 -45h482l4 55 q12 109 55 183.5t104.5 107.5t113.5 45t110 12q152 0 258 -69l-101 -178q-48 26 -120 26z" glyph-name="f_f.liga" horiz-adv-x="1581" unicode="ff"/><glyph d="M831 1638v-2027h-643v2027h643zM676 1503h-336v-67h133v-76h-135v-66h338v66h-135v76h135v67zM541 1241h-203v-211h338v70h-135v141zM473 1171v-71h-67v71h67zM676 975h-338v-66h135v-75h-135v-68h203v143h135v66zM676 854h-68v-133h-270v-70h338v203zM676 606h-203v-112 h68v45h67v-95h-202v162h-68v-229h338v229zM676 256h-338v-229h338v229zM608 188v-94h-202v94h202zM676 -20h-338v-66h143l-143 -96v-68h338v68h-207l141 96h66v66z" glyph-name=".notdef" horiz-adv-x="1013"/><glyph glyph-name="glyph1" horiz-adv-x="0"/><glyph glyph-name="glyph2" horiz-adv-x="681"/><glyph glyph-name="space" horiz-adv-x="569" unicode=" "/><glyph d="M455 1434l-105 -981h-301l105 981h301zM164 -10q-68 0 -110 47t-34 117q6 59 50.5 99t105.5 40q68 0 110 -47t33 -117q-6 -59 -50 -99t-105 -40z" glyph-name="exclam" horiz-adv-x="536" unicode="!"/><glyph d="M377 1434l-82 -469h-193l13 469h262zM745 1434l-81 -469h-193l12 469h262z" glyph-name="quotedbl" horiz-adv-x="774" unicode="&quot;"/><glyph d="M1010 836h-119l-39 -236h133l-24 -231h-150l-66 -369h-268l66 369h-166l-66 -369h-270l68 369h-91l25 231h107l38 236h-120l24 229h139l66 369h268l-65 -369h166l65 369h268l-65 -369h100zM584 600l39 236h-166l-39 -236h166z" glyph-name="numbersign" horiz-adv-x="1126" unicode="#"/><glyph d="M637 836q199 -76 294 -173.5t95 -232.5q0 -195 -142.5 -315.5t-336.5 -141.5l-17 -157h-135l17 157q-164 18 -278 115.5t-146 239.5l215 98q61 -184 233 -209l45 426l-26 10q-164 61 -252 148.5t-88 236.5q0 176 133 290t319 128l17 164h135l-19 -170 q135 -23 228.5 -105.5t138.5 -189.5l-209 -106q-74 131 -182 161zM377 1047q0 -57 30.5 -94.5t98.5 -67.5l35 332q-72 -12 -118 -57t-46 -113zM573 223q80 18 128.5 69.5t48.5 133.5q0 55 -33 92t-107 72z" glyph-name="dollar" horiz-adv-x="1153" unicode="$"/><glyph d="M354 1444q111 0 180.5 -77t57.5 -187q-10 -100 -88 -170t-180 -70q-111 0 -180.5 77t-57.5 187q10 100 88 170t180 70zM1071 1438l199 -133l-1010 -1305l-203 133zM346 1272q-37 0 -62.5 -26.5t-25.5 -65.5q2 -29 23.5 -48.5t50.5 -19.5q37 0 63.5 26.5t24.5 65.5 q-2 29 -23.5 48.5t-50.5 19.5zM1032 494q111 0 180.5 -77t57.5 -188q-10 -100 -88 -169.5t-181 -69.5q-111 0 -180 76.5t-57 187.5q10 100 88 170t180 70zM1024 322q-37 0 -62.5 -27t-25.5 -66q2 -29 23.5 -48t50.5 -19q37 0 62.5 26.5t25.5 65.5q-2 29 -23.5 48.5 t-50.5 19.5z" glyph-name="percent" horiz-adv-x="1429" unicode="%"/><glyph d="M1270 221q70 0 133 35l-21 -219q-68 -47 -155 -47q-117 0 -170 65.5t-39 173.5l4 39q-152 -293 -479 -293q-205 0 -348.5 116t-143.5 325q0 199 125 319.5t289 155.5l-225 543h886l-24 -230h-520l204 -491h-98q-160 0 -264.5 -73t-104.5 -198q0 -109 79 -172t192 -63 q129 0 237.5 81t124.5 232l37 346h418l-25 -217h-159l-33 -319q-6 -61 14.5 -85t65.5 -24z" glyph-name="ampersand" horiz-adv-x="1505" unicode="&amp;"/><glyph d="M377 1434l-82 -469h-193l13 469h262z" glyph-name="quotesingle" horiz-adv-x="405" unicode="'"/><glyph d="M616 1522q-246 -377 -303 -879q-51 -524 109 -913l-250 8q-178 393 -121 930q51 500 305 862z" glyph-name="parenleft" horiz-adv-x="665" unicode="("/><glyph d="M147 1530l250 -8q182 -369 127 -879q-53 -526 -311 -913l-260 8q254 406 307 930q53 487 -113 862z" glyph-name="parenright" horiz-adv-x="667" unicode=")"/><glyph d="M913 1122l-206 -55l118 -180l-200 -119l-105 174l-141 -174l-182 119l153 180l-190 55l73 224l216 -64l18 229h217l-27 -229l222 64z" glyph-name="asterisk" horiz-adv-x="1060" unicode="*"/><glyph d="M729 657l-16 -163h-262l-29 -261h-164l29 261h-258l16 163h258l29 261h164l-29 -261h262z" glyph-name="plus" horiz-adv-x="858" unicode="+"/><glyph d="M-121 -240l242 527h229l-239 -527h-232z" glyph-name="comma" horiz-adv-x="499" unicode=","/><glyph d="M692 674l-22 -219h-635l22 219h635z" glyph-name="hyphen" horiz-adv-x="821" unicode="-"/><glyph d="M111 -20q-61 0 -102.5 40.5t-41.5 104.5q0 66 45 112t111 46q63 0 104 -42t41 -106q0 -68 -44.5 -111.5t-112.5 -43.5z" glyph-name="period" horiz-adv-x="434" unicode="."/><glyph d="M1104 1526l-885 -1792h-278l884 1792h279z" glyph-name="slash" horiz-adv-x="1134" unicode="/"/><glyph d="M858 1454q285 0 480.5 -187.5t195.5 -478.5q0 -336 -241.5 -572t-571.5 -236q-285 0 -479.5 186t-194.5 477q0 336 240.5 573.5t570.5 237.5zM737 223q201 0 365 156t164 389q0 190 -124 316t-300 126q-203 0 -365 -156.5t-162 -391.5q0 -186 123 -312.5t299 -126.5z" glyph-name="zero" horiz-adv-x="1654" unicode="0"/><glyph d="M645 1434l-151 -1434h-269l127 1204h-233l22 230h504z" glyph-name="one" horiz-adv-x="751" unicode="1"/><glyph d="M621 1454q207 0 326.5 -115.5t119.5 -287.5q0 -145 -66.5 -247t-293.5 -337q-39 -43 -62 -66l-160 -168h498l-25 -233h-970v39l418 448q27 29 112.5 120t114.5 126t79 100.5t67.5 113.5t17.5 97q0 92 -57.5 132.5t-129.5 40.5q-84 0 -152.5 -57.5t-84.5 -178.5l-6 -33 h-273l4 43q18 199 157 331t366 132z" glyph-name="two" horiz-adv-x="1159" unicode="2"/><glyph d="M213 408q74 -197 276 -197q129 0 214 82t85 209q0 102 -70.5 164.5t-197.5 62.5q-72 0 -158 -18l343 493h-545l22 230h934l-397 -537q143 -16 238.5 -123.5t95.5 -263.5q0 -229 -165 -379.5t-409 -150.5q-184 0 -309 87t-174 228z" glyph-name="three" horiz-adv-x="1202" unicode="3"/><glyph d="M1067 561l-23 -229h-153l-35 -332h-268l35 332h-619l21 229l710 873h273l-95 -873h154zM303 561h342l57 512z" glyph-name="four" horiz-adv-x="1200" unicode="4"/><glyph d="M1012 1434l-25 -230h-526l-78 -286q111 61 233 61q184 0 322.5 -126t138.5 -325q0 -246 -170 -397t-401 -151q-184 0 -316.5 85t-175.5 218l217 102q25 -68 88.5 -119t178.5 -51q117 0 215 79t98 228q0 115 -73.5 174.5t-170.5 59.5q-139 0 -248 -109l-219 74l172 713 h740z" glyph-name="five" horiz-adv-x="1204" unicode="5"/><glyph d="M969 1434l-486 -555q23 16 80 16q172 0 298 -126t126 -300q0 -219 -152.5 -354t-375.5 -135q-184 0 -316.5 119.5t-132.5 306.5q0 66 18.5 133t39 114t68.5 116t72.5 99.5t86.5 106.5l393 459h281zM514 666q-113 0 -183.5 -73t-70.5 -175q0 -96 64.5 -153.5t156.5 -57.5 q115 0 184.5 73.5t69.5 176.5q0 90 -62.5 149.5t-158.5 59.5z" glyph-name="six" horiz-adv-x="1120" unicode="6"/><glyph d="M1032 1434l-741 -1434h-266l630 1204h-579l24 230h932z" glyph-name="seven" horiz-adv-x="1062" unicode="7"/><glyph d="M844 811q86 -43 141 -132t55 -202q0 -221 -171 -359t-382 -138q-193 0 -333 115.5t-140 310.5q0 137 78 248.5t199 166.5q-111 90 -111 234q0 160 123 279.5t322 119.5q178 0 282.5 -98.5t104.5 -245.5q0 -92 -47 -170t-121 -129zM426 1053q0 -63 40 -102.5t107 -39.5 q80 0 132.5 51.5t52.5 120.5q0 61 -42 99.5t-108 38.5q-76 0 -129 -48t-53 -120zM502 217q111 0 186.5 75t75.5 187q0 92 -61.5 145.5t-147.5 53.5q-117 0 -191.5 -80t-74.5 -176t59.5 -150.5t153.5 -54.5z" glyph-name="eight" horiz-adv-x="1185" unicode="8"/><glyph d="M109 0l485 555q-23 -16 -80 -16q-172 0 -298 126t-126 300q0 219 152.5 354t375.5 135q184 0 316.5 -120t132.5 -306q0 -106 -46 -216t-96.5 -177.5t-142.5 -175.5l-393 -459h-280zM563 768q113 0 183.5 72.5t70.5 175.5q0 96 -64.5 153.5t-156.5 57.5q-115 0 -184.5 -74 t-69.5 -176q0 -90 62.5 -149.5t158.5 -59.5z" glyph-name="nine" horiz-adv-x="1140" unicode="9"/><glyph d="M213 758q-61 0 -102 41t-41 104q0 66 45 112t110 46q63 0 104.5 -42t41.5 -106q0 -68 -45 -111.5t-113 -43.5zM131 -20q-61 0 -102 40.5t-41 104.5q0 66 45 112t110 46q63 0 104.5 -42t41.5 -106q0 -68 -45 -111.5t-113 -43.5z" glyph-name="colon" horiz-adv-x="456" unicode=":"/><glyph d="M295 758q-61 0 -102 41t-41 104q0 66 45 112t110 46q63 0 104.5 -42t41.5 -106q0 -68 -45 -111.5t-113 -43.5zM-121 -240l242 527h229l-239 -527h-232z" glyph-name="semicolon" horiz-adv-x="540" unicode=";"/><glyph d="M932 985l-27 -250l-504 -243l451 -240l-25 -252l-804 451l8 84z" glyph-name="less" horiz-adv-x="1007" unicode="&lt;"/><glyph d="M750 846l-23 -219h-686l22 219h687zM713 502l-23 -221h-686l23 221h686z" glyph-name="equal" horiz-adv-x="808" unicode="="/><glyph d="M59 985l807 -450l-8 -84l-903 -451l27 252l505 240l-454 243z" glyph-name="greater" horiz-adv-x="1009" unicode=">"/><glyph d="M604 1454q203 0 334 -122t111 -320q-10 -88 -49 -152.5t-88.5 -101.5t-98.5 -73t-86 -93t-43 -135v-15h-272v23q6 98 44 170t90 114t103 78.5t90 89t45 119.5q6 66 -39 127.5t-151 61.5q-113 0 -174.5 -72t-71.5 -158h-266q20 215 167.5 337t354.5 122zM526 -10 q-68 0 -109.5 47t-33.5 117q8 59 51 99t105 40q70 0 111.5 -47t33.5 -117q-8 -59 -52.5 -99t-105.5 -40z" glyph-name="question" horiz-adv-x="1118" unicode="?"/><glyph d="M866 1454q266 0 460 -178t194 -463q0 -205 -94.5 -333t-264.5 -128q-115 0 -161 40t-46 85q-16 -45 -72.5 -85t-142.5 -40q-123 0 -215 85t-92 241q0 135 64.5 228t143.5 128t157 35q45 0 97 -22.5t67 -57.5l36 66h146l-45 -402q-2 -12 -2 -30q0 -82 65 -82q47 0 77 50 t40 108.5t10 119.5q0 193 -123 307.5t-301 114.5q-244 0 -413.5 -164t-169.5 -418q0 -207 134 -336.5t310 -129.5q31 0 59.5 1t54 7t43 8t40 12t32 13.5t32 16.5t26.5 15t28 19l23 16l194 -92q-92 -106 -229 -167.5t-295 -61.5q-272 0 -478 194.5t-206 493.5 q0 330 247.5 558t569.5 228zM793 868q-72 0 -113 -54t-41 -134q0 -51 29.5 -88t83.5 -37q63 0 109 52t46 145q0 51 -31.5 83.5t-82.5 32.5z" glyph-name="at" horiz-adv-x="1636" unicode="@"/><glyph d="M1137 0l-88 276h-689l-145 -276h-291l778 1434h240l475 -1434h-280zM479 496h496l-184 606z" glyph-name="A" horiz-adv-x="1564" unicode="A"/><glyph d="M858 791q111 -31 185.5 -122t74.5 -220q0 -219 -151.5 -334t-409.5 -115h-551l152 1434h518q197 0 302 -93.5t105 -236.5q0 -117 -62.5 -195.5t-162.5 -117.5zM639 1198h-238l-36 -326h227q104 0 163.5 53.5t59.5 139.5q0 133 -176 133zM559 236q139 0 217 63t78 176 q0 180 -250 180h-260l-43 -419h258z" glyph-name="B" horiz-adv-x="1253" unicode="B"/><glyph d="M1225 150q-209 -170 -502 -170q-285 0 -480.5 186t-195.5 477q0 336 242.5 573.5t570.5 237.5q283 0 467 -174l-182 -178q-121 100 -285 100q-215 0 -375.5 -156.5t-162.5 -398.5q0 -182 125.5 -299t312.5 -117q172 0 321 115z" glyph-name="C" horiz-adv-x="1378" unicode="C"/><glyph d="M645 1434q305 0 494.5 -211t158.5 -512q-33 -299 -261 -505t-535 -206h-496l152 1434h487zM518 254q211 0 349.5 137t160.5 344q20 186 -87 315.5t-316 129.5h-226l-98 -926h217z" glyph-name="D" horiz-adv-x="1417" unicode="D"/><glyph d="M301 248h625l-27 -248h-893l152 1434h874l-26 -248h-607l-34 -344h460l-26 -242h-461z" glyph-name="E" horiz-adv-x="1099" unicode="E"/><glyph d="M1016 1190h-617l-37 -354h508l-24 -230h-508l-64 -606h-268l152 1434h884z" glyph-name="F" horiz-adv-x="1071" unicode="F"/><glyph d="M819 762h615q6 -354 -200 -568t-507 -214q-287 0 -483.5 186t-196.5 477q0 336 242.5 573.5t570.5 237.5q283 0 467 -174l-182 -178q-121 100 -285 100q-217 0 -376.5 -156.5t-161.5 -398.5q0 -180 122.5 -298t307.5 -118q150 0 262 77t149 233h-366z" glyph-name="G" horiz-adv-x="1560" unicode="G"/><glyph d="M1040 1434h269l-152 -1434h-268l59 590h-612l-62 -590h-268l152 1434h268l-64 -596h615z" glyph-name="H" horiz-adv-x="1388" unicode="H"/><glyph d="M426 1434l-152 -1434h-268l152 1434h268z" glyph-name="I" horiz-adv-x="505" unicode="I"/><glyph d="M1016 1434l-101 -957q-14 -133 -70.5 -235.5t-137 -157.5t-166.5 -82t-174 -27q-266 0 -404 203l178 184q92 -129 236 -129q96 0 177 64.5t99 224.5l95 912h268z" glyph-name="J" horiz-adv-x="1095" unicode="J"/><glyph d="M932 0l-404 627l-206 -209l-48 -418h-268l152 1434h268l-72 -658l639 658h336l-618 -621l526 -813h-305z" glyph-name="K" horiz-adv-x="1404" unicode="K"/><glyph d="M301 248h582l-27 -248h-850l152 1434h268z" glyph-name="L" horiz-adv-x="1036" unicode="L"/><glyph d="M1669 1434l-151 -1434h-269l90 821l-456 -821h-221l-297 819l-91 -819h-268l152 1434h258l385 -1059l602 1059h266z" glyph-name="M" horiz-adv-x="1748" unicode="M"/><glyph d="M1110 1434h268l-151 -1434h-203l-645 946l-105 -946h-268l152 1434h204l646 -949z" glyph-name="N" horiz-adv-x="1458" unicode="N"/><glyph d="M858 1454q285 0 480.5 -187.5t195.5 -478.5q0 -336 -241.5 -572t-571.5 -236q-285 0 -479.5 186t-194.5 477q0 336 240.5 573.5t570.5 237.5zM737 231q201 0 359.5 152t158.5 385q0 190 -118.5 312t-294.5 122q-203 0 -359.5 -152.5t-156.5 -387.5q0 -186 117.5 -308.5 t293.5 -122.5z" glyph-name="O" horiz-adv-x="1654" unicode="O"/><glyph d="M645 1434q240 0 371 -136.5t106 -357.5q-23 -209 -175 -331t-392 -122h-229l-52 -487h-268l152 1434h487zM555 719q127 0 209 60.5t94 185.5q12 113 -52.5 167t-191.5 54h-215l-49 -467h205z" glyph-name="P" horiz-adv-x="1204" unicode="P"/><glyph d="M1534 788q0 -172 -68.5 -324.5t-191.5 -264.5l133 -199h-311l-37 55q-158 -76 -338 -75q-285 0 -479.5 186t-194.5 477q0 336 240.5 573.5t570.5 237.5q285 0 480.5 -187.5t195.5 -478.5zM739 231q92 0 181 35l-244 371h309l145 -219q125 150 125 350q0 190 -119.5 312 t-295.5 122q-201 0 -357.5 -152.5t-156.5 -387.5q0 -186 118.5 -308.5t294.5 -122.5z" glyph-name="Q" horiz-adv-x="1654" unicode="Q"/><glyph d="M1114 0h-280l-267 487h-241l-52 -487h-268l152 1434h487q240 0 371 -136.5t106 -357.5q-14 -141 -93 -247.5t-210 -162.5zM350 719h205q127 0 209 60.5t94 185.5q12 113 -52.5 167t-191.5 54h-215z" glyph-name="R" horiz-adv-x="1300" unicode="R"/><glyph d="M612 1458q170 0 286 -89t169 -214l-209 -106q-96 172 -266 172q-90 0 -152.5 -47.5t-62.5 -126.5q0 -63 37 -102.5t121 -72.5l94 -34q205 -76 301 -174.5t96 -233.5q0 -211 -166 -336t-379 -125q-188 0 -322 101.5t-171 257.5l215 98q70 -213 284 -213q113 0 188 55.5 t75 157.5q0 66 -47.5 107.5t-159.5 84.5l-88 35q-164 61 -252 148.5t-88 236.5q0 188 149 304t348 116z" glyph-name="S" horiz-adv-x="1153" unicode="S"/><glyph d="M1116 1434l-26 -248h-361l-125 -1186h-268l125 1186h-361l27 248h989z" glyph-name="T" horiz-adv-x="1155" unicode="T"/><glyph d="M975 1434h268l-96 -918q-27 -254 -196 -400.5t-398 -146.5q-236 0 -380 150.5t-118 404.5l97 910h268l-96 -920q-18 -154 52 -223.5t185 -69.5q119 0 210 74t108 229z" glyph-name="U" horiz-adv-x="1323" unicode="U"/><glyph d="M1286 1434h291l-778 -1434h-240l-475 1434h281l346 -1102z" glyph-name="V" horiz-adv-x="1574" unicode="V"/><glyph d="M2097 1434l-620 -1434h-191l-250 963l-444 -963h-191l-317 1434h276l197 -914l424 914h207l233 -914l389 914h287z" glyph-name="W" horiz-adv-x="2095" unicode="W"/><glyph d="M1264 0h-312l-278 496l-387 -496h-322l570 727l-402 707h309l271 -473l368 473h322l-551 -707z" glyph-name="X" horiz-adv-x="1441" unicode="X"/><glyph d="M1458 1434l-629 -811l-69 -623h-268l69 623l-457 811h299l312 -568l432 568h311z" glyph-name="Y" horiz-adv-x="1476" unicode="Y"/><glyph d="M1241 1434l-829 -1203h706l-24 -231h-1139l827 1204h-657l25 230h1091z" glyph-name="Z" horiz-adv-x="1271" unicode="Z"/><glyph d="M567 1526l-24 -230h-158l-139 -1331h157l-24 -231h-426l188 1792h426z" glyph-name="bracketleft" horiz-adv-x="610" unicode="["/><glyph d="M129 1526h268l508 -1792h-268z" glyph-name="backslash" horiz-adv-x="1124" unicode="\"/><glyph d="M141 1526h424l-188 -1792h-424l24 231h156l139 1331h-155z" glyph-name="bracketright" horiz-adv-x="608" unicode="]"/><glyph d="M618 1434l293 -461h-180l-205 219l-256 -219h-190l391 461h147z" glyph-name="asciicircum" horiz-adv-x="1015" unicode="^"/><glyph d="M1004 0l-25 -231h-1024l25 231h1024z" glyph-name="underscore" horiz-adv-x="1208" unicode="_"/><glyph d="M98 1516h322l164 -326h-199z" glyph-name="grave" horiz-adv-x="518" unicode="`"/><glyph d="M598 1083q92 0 166 -34.5t106.5 -69.5t34.5 -57l19 143h262l-113 -1065h-262l18 150q-14 -53 -107 -111.5t-220 -58.5q-121 0 -227.5 51t-181.5 166.5t-75 273.5q0 254 171 433t409 179zM608 850q-139 0 -233 -101.5t-94 -254.5q0 -135 78.5 -208t197.5 -73 q123 0 223.5 92t100.5 270q0 131 -80 203t-193 72z" glyph-name="a" unicode="a"/><glyph d="M688 1085q182 0 326.5 -133t144.5 -370q0 -248 -170 -425t-409 -177q-127 0 -215.5 65.5t-88.5 110.5l-20 -156h-264l153 1448h265l-58 -518q14 45 109.5 100t226.5 55zM565 213q129 0 233.5 93t104.5 267q0 133 -80 206t-192 73q-150 0 -240 -106.5t-90 -264.5 q0 -129 77.5 -198.5t186.5 -69.5z" glyph-name="b" horiz-adv-x="1280" unicode="b"/><glyph d="M625 1085q150 0 262 -66.5t172 -195.5l-209 -86q-84 115 -236 115q-139 0 -239.5 -102.5t-100.5 -264.5q0 -131 79 -202.5t194 -71.5q143 0 258 121l201 -103q-176 -250 -480 -249q-195 0 -351.5 132t-156.5 371q0 254 179.5 428t427.5 174z" glyph-name="c" horiz-adv-x="1148" unicode="c"/><glyph d="M965 1448h262l-154 -1448h-262l18 150q-14 -53 -107 -111.5t-220 -58.5q-121 0 -227.5 51t-181.5 166.5t-75 273.5q0 254 170 434t410 180q92 0 166 -34.5t106.5 -70.5t34.5 -58zM608 852q-139 0 -233 -102.5t-94 -255.5q0 -135 78.5 -208t197.5 -73q123 0 223.5 92 t100.5 270q0 133 -80 205t-193 72z" glyph-name="d" unicode="d"/><glyph d="M627 1085q82 0 163.5 -28.5t152.5 -82.5t115 -149.5t44 -214.5q0 -88 -21 -176h-807q14 -115 93 -175t200 -60q96 0 158.5 21.5t128.5 66.5l129 -142q-160 -166 -434 -165q-211 0 -371 131t-160 364q0 254 182.5 432t426.5 178zM621 860q-104 0 -193.5 -61.5 t-128.5 -175.5h573q-8 117 -79.5 177t-171.5 60z" glyph-name="e" horiz-adv-x="1222" unicode="e"/><glyph d="M604 1247q-139 0 -158 -137l-4 -45h254l-22 -217h-252l-92 -848h-262l90 848h-135l22 217h135l4 55q12 109 55.5 183.5t105 107.5t113.5 45t109 12q152 0 258 -69l-100 -178q-49 26 -121 26z" glyph-name="f" horiz-adv-x="835" unicode="f"/><glyph d="M924 1065h262l-113 -1065q-12 -117 -70.5 -203t-144.5 -132t-174 -66.5t-178 -20.5q-186 0 -295 66l14 213q94 -59 283 -60q135 0 213 59.5t90 143.5l18 150q-14 -53 -107 -111.5t-220 -58.5q-121 0 -227.5 51t-181.5 166.5t-75 273.5q0 254 170 434t410 180 q92 0 166 -34.5t106.5 -70.5t34.5 -58zM608 852q-139 0 -233 -102.5t-94 -255.5q0 -135 78.5 -208t197.5 -73q123 0 223.5 92t100.5 270q0 133 -80 205t-193 72z" glyph-name="g" unicode="g"/><glyph d="M719 1085q170 0 276.5 -118.5t79.5 -356.5l-65 -610h-262l63 602q16 133 -37 192.5t-145 59.5q-115 0 -199 -79t-104 -152l-70 -623h-264l153 1448h265l-64 -586q27 68 129.5 145.5t243.5 77.5z" glyph-name="h" horiz-adv-x="1222" unicode="h"/><glyph d="M119 1196l26 252h265l-27 -252h-264zM-8 0l112 1065h265l-113 -1065h-264z" glyph-name="i" horiz-adv-x="466" unicode="i"/><glyph d="M168 1196l27 252h264l-27 -252h-264zM-37 -422q-135 0 -219 55l14 252q72 -39 150 -39q119 0 133 134l113 1085h264l-125 -1176q-33 -311 -330 -311z" glyph-name="j" horiz-adv-x="516" unicode="j"/><glyph d="M745 0l-337 438l-113 -102l-39 -336h-264l153 1448h265l-88 -793l423 410h322l-485 -455l462 -610h-299z" glyph-name="k" horiz-adv-x="1181" unicode="k"/><glyph d="M410 1448l-154 -1448h-264l153 1448h265z" glyph-name="l" horiz-adv-x="466" unicode="l"/><glyph d="M1466 1085q178 0 288 -124.5t83 -374.5l-63 -586h-263l64 592q14 125 -37 193.5t-158 68.5q-113 0 -191.5 -73.5t-109.5 -178.5l-63 -602h-264l63 592q14 123 -42 192.5t-161 69.5q-106 0 -184 -73.5t-109 -178.5l-63 -602h-264l112 1065h265l-23 -211q16 68 108.5 149.5 t231.5 81.5q119 0 220.5 -64.5t146.5 -180.5q41 84 149 164.5t264 80.5z" glyph-name="m" horiz-adv-x="1984" unicode="m"/><glyph d="M719 1085q170 0 276.5 -118.5t79.5 -356.5l-65 -610h-262l63 602q16 133 -37 192.5t-145 59.5q-115 0 -199 -79t-104 -152l-70 -623h-264l112 1065h265l-23 -203q27 68 129.5 145.5t243.5 77.5z" glyph-name="n" horiz-adv-x="1222" unicode="n"/><glyph d="M627 1085q123 0 235.5 -53t193.5 -173t81 -279q0 -254 -179.5 -427t-429.5 -173q-195 0 -352.5 134t-157.5 369q0 256 179.5 429t429.5 173zM545 213q133 0 234.5 97.5t101.5 262.5q0 131 -82 205t-189 74q-133 0 -234.5 -97.5t-101.5 -265.5q0 -131 82.5 -203.5 t188.5 -72.5z" glyph-name="o" horiz-adv-x="1257" unicode="o"/><glyph d="M678 1085q207 0 355.5 -150.5t121.5 -414.5q-18 -174 -113.5 -301t-216 -183t-245.5 -56q-133 0 -217 62t-87 118l-61 -549h-264l69 635l84 819h265l-17 -135q10 41 105.5 98t220.5 57zM549 213q129 0 232.5 88t121.5 244q14 145 -65.5 226t-200.5 81q-127 0 -224.5 -88 t-113.5 -244q-16 -145 57.5 -226t192.5 -81z" glyph-name="p" horiz-adv-x="1282" unicode="p"/><glyph d="M924 1065h262l-113 -1065l-41 -389h-262l59 539q-14 -53 -107 -111.5t-220 -58.5q-193 0 -338.5 130t-145.5 363q0 254 171 433t409 179q92 0 166 -34.5t106.5 -70.5t34.5 -58zM543 213q129 0 233.5 94t104.5 283q0 127 -71 194.5t-179 67.5q-152 0 -254.5 -107.5 t-102.5 -265.5q0 -127 78 -196.5t191 -69.5z" glyph-name="q" unicode="q"/><glyph d="M735 1083q47 0 82 -8l-26 -248q-25 4 -62 4q-154 0 -272.5 -101t-149.5 -261l-51 -469h-264l112 1065h265l-31 -260q51 125 155.5 201.5t241.5 76.5z" glyph-name="r" horiz-adv-x="851" unicode="r"/><glyph d="M590 766q-41 109 -146 108q-59 0 -95 -32.5t-36 -77.5q0 -66 86 -100l119 -43q68 -27 107 -45.5t85 -52.5t66.5 -81t20.5 -110q0 -166 -130 -259t-307 -93q-154 0 -266 80.5t-131 215.5l213 56q35 -143 189 -144q74 0 122 36t48 91q0 72 -91 103l-118 45 q-268 96 -269 301q0 139 112 230t273 91q147 0 240.5 -72.5t126.5 -197.5z" glyph-name="s" horiz-adv-x="933" unicode="s"/><glyph d="M668 848h-226l-55 -522q-8 -106 72 -107q59 0 151 21l-20 -215q-74 -37 -209 -37q-293 0 -256 342l53 518h-149l22 217h148l26 250h264l-26 -250h225z" glyph-name="t" horiz-adv-x="757" unicode="t"/><glyph d="M393 -20q-170 0 -277.5 119.5t-82.5 355.5l63 610h264l-63 -602q-14 -133 41 -192.5t149 -59.5q115 0 193 80t102 170l68 604h264l-113 -1065h-264l27 207q-31 -74 -130.5 -150.5t-240.5 -76.5z" glyph-name="u" horiz-adv-x="1212" unicode="u"/><glyph d="M1223 1067l-582 -1067h-229l-357 1067h258l244 -745l397 745h269z" glyph-name="v" horiz-adv-x="1269" unicode="v"/><glyph d="M1595 1067h269l-498 -1067h-250l-190 760l-351 -760h-247l-273 1067h258l172 -745l353 745h231l199 -745z" glyph-name="w" horiz-adv-x="1910" unicode="w"/><glyph d="M766 0l-215 354l-297 -354h-307l467 545l-316 520h295l189 -328l260 328h305l-430 -520l346 -545h-297z" glyph-name="x" horiz-adv-x="1241" unicode="x"/><glyph d="M969 1067h266l-803 -1456h-268l242 426l-351 1030h258l250 -745z" glyph-name="y" horiz-adv-x="1282" unicode="y"/><glyph d="M1053 1065l-664 -834h543l-25 -231h-970l661 836h-520l24 229h951z" glyph-name="z" horiz-adv-x="1099" unicode="z"/><glyph d="M645 1526l-24 -230h-66q-33 0 -58.5 -19.5t-27.5 -49.5l-45 -461l-125 -139l92 -135l-47 -469q-6 -57 62 -58h75l-24 -231h-189q-88 0 -150.5 51t-49.5 174l57 522l-78 146l105 149l57 535q27 215 237 215h199z" glyph-name="braceleft" horiz-adv-x="688" unicode="{"/><glyph d="M444 1638l-213 -2027h-231l213 2027h231z" glyph-name="bar" horiz-adv-x="538" unicode="|"/><glyph d="M141 1526h189q86 0 148.5 -51.5t49.5 -174.5l-57 -524l80 -149l-107 -146l-57 -532q-23 -215 -235 -215h-199l24 231h68q33 0 56.5 18.5t25.5 49.5l47 459l127 135l-94 139l49 471q2 31 -13.5 45t-47.5 14h-78z" glyph-name="braceright" horiz-adv-x="688" unicode="}"/><glyph d="M311 760q90 0 219 -72t195 -72q35 0 70.5 19.5t38.5 40.5l98 -10q-12 -113 -83 -183.5t-192 -70.5q-88 0 -217 81.5t-202 81.5q-35 0 -69 -24.5t-36 -52.5l-98 10q12 113 82.5 182.5t193.5 69.5z" glyph-name="asciitilde" horiz-adv-x="1067" unicode="~"/><glyph d="M260 1075q68 0 110 -47t33 -117q-6 -59 -50 -99t-105 -40q-68 0 -110 47t-34 117q6 59 50.5 99t105.5 40zM-31 -369l105 981h301l-105 -981h-301z" glyph-name="exclamdown" horiz-adv-x="536" unicode="¡"/><glyph d="M623 401q106 18 202 117l201 -102q-160 -229 -428 -248l-18 -168h-127l18 172q-178 27 -305 155t-127 343q0 240 159.5 408.5t389.5 191.5l16 164h127l-18 -166q262 -29 366 -258l-209 -86q-70 94 -182 110zM295 672q0 -109 56.5 -177.5t144.5 -88.5l65 624 q-115 -25 -190.5 -122t-75.5 -236z" glyph-name="cent" horiz-adv-x="1150" unicode="¢"/><glyph d="M1094 942h-246q8 49 8 84q0 78 -49 133t-160 55q-127 0 -193.5 -70.5t-66.5 -172.5q0 -78 59 -209h349l-23 -197h-262v-24q0 -92 -49 -180.5t-121 -131.5l672 2l-23 -231h-1001l22 233q250 129 250 314v18h-215l23 197h127q-57 139 -58 235q0 203 158 327t375 124 q195 0 320.5 -101.5t125.5 -269.5q1 -45 -22 -135z" glyph-name="sterling" horiz-adv-x="1202" unicode="£"/><glyph d="M1022 963q-10 -104 -66 -197l84 -90l-178 -162l-76 80q-119 -78 -260 -78t-247 80l-91 -82l-153 162l100 94q-41 104 -29 217q14 119 74 207l-82 90l176 162l78 -82q121 70 252 70q141 0 248 -78l98 90l154 -162l-113 -104q41 -104 31 -217zM322 963q-8 -78 41 -154 t165 -76q125 0 199 83t82 171q8 76 -43 153t-168 77q-123 0 -194.5 -83t-81.5 -171z" glyph-name="currency" horiz-adv-x="1148" unicode="¤"/><glyph d="M829 623l-4 -43h273l-19 -179h-274l-8 -79h276l-18 -179h-279l-16 -143h-268l16 143h-268l20 179h268l9 79h-273l21 179h272l4 43l-457 811h299l312 -568l432 568h311z" glyph-name="yen" horiz-adv-x="1476" unicode="¥"/><glyph d="M444 1638l-59 -573h-231l59 573h231zM293 184l-62 -573h-231l61 573h232z" glyph-name="brokenbar" horiz-adv-x="538" unicode="¦"/><glyph d="M1057 1167h-240l23 160q-12 27 -66.5 50.5t-130.5 23.5q-106 0 -174 -51.5t-68 -135.5q0 -109 142 -159l168 -64q162 -61 244.5 -153.5t82.5 -233.5q0 -203 -157 -323q80 -92 80 -230q0 -207 -159 -323.5t-405 -116.5q-172 0 -292.5 57.5t-172.5 124.5l43 299h240 l-22 -166q20 -27 74.5 -52.5t133.5 -25.5q127 0 205 60.5t78 154.5q0 63 -37 100.5t-121 67.5l-155 58q-307 121 -308 373q0 205 162 323q-84 94 -84 229q0 197 147.5 310.5t364.5 113.5q156 0 288 -59t159 -115zM762 616q0 63 -37 100.5t-121 67.5l-143 54 q-137 -51 -137 -176q0 -109 141 -160l168 -64l10 -4q119 63 119 182z" glyph-name="section" horiz-adv-x="1146" unicode="§"/><glyph d="M338 1436l-25 -230h-243l24 230h244zM825 1436l-24 -230h-244l23 230h245z" glyph-name="dieresis" horiz-adv-x="731" unicode="¨"/><glyph d="M838 1448q266 0 461.5 -186.5t195.5 -477.5q0 -328 -230.5 -563t-562.5 -235q-266 0 -460.5 185t-194.5 474q0 332 229.5 567.5t561.5 235.5zM709 213q238 0 398.5 170t160.5 401q0 190 -127 313.5t-307 123.5q-225 0 -392.5 -159t-167.5 -413q0 -190 127.5 -313 t307.5 -123zM764 549q70 0 133 51l119 -160q-96 -109 -264 -108q-145 0 -247 97t-102 251q0 180 125 301t287 121q172 0 256 -119l-139 -139q-37 41 -115 41q-72 0 -131 -58.5t-59 -136.5q0 -59 40 -100t97 -41z" glyph-name="copyright" horiz-adv-x="1615" unicode="©"/><glyph d="M438 1462q145 0 215 -84t56 -239l-21 -197q-8 -59 -1 -92t36 -82h-162q-33 33 -35 88q-82 -88 -211 -88q-113 0 -180 53t-67 148q0 106 86 163.5t215 65.5l157 16q6 49 -23.5 72t-84.5 23q-100 0 -205 -76l-80 113q121 116 305 116zM514 1073l-149 -16q-119 -8 -119 -80 q0 -61 88 -62q111 0 172 115z" glyph-name="ordfeminine" horiz-adv-x="851" unicode="ª"/><glyph d="M84 535l8 104l338 305l74 -88l-238 -270l183 -271l-93 -88zM440 535l9 104l337 305l74 -88l-237 -270l182 -271l-92 -88z" glyph-name="guillemotleft" horiz-adv-x="876" unicode="«"/><glyph d="M918 618l-39 -370h-269l17 151h-604l22 219h873z" glyph-name="logicalnot" horiz-adv-x="1056" unicode="¬"/><glyph d="M686 674l-22 -219h-635l22 219h635z" glyph-name="uni00AD" horiz-adv-x="819" unicode="­"/><glyph d="M838 1448q266 0 461.5 -186.5t195.5 -477.5q0 -328 -230.5 -563t-562.5 -235q-266 0 -460.5 185t-194.5 474q0 332 229.5 567.5t561.5 235.5zM709 213q238 0 398.5 170t160.5 401q0 190 -127 313.5t-307 123.5q-225 0 -392.5 -159t-167.5 -413q0 -190 127.5 -313 t307.5 -123zM784 1083q131 0 203 -67.5t62 -169.5q-14 -150 -160 -217l149 -262h-170l-137 258h-67l-27 -258h-164l76 716h235zM797 940h-107l-18 -182h94q106 0 121 104q6 78 -90 78z" glyph-name="registered" horiz-adv-x="1615" unicode="®"/><glyph d="M809 1434l-25 -217h-770l25 217h770z" glyph-name="macron" horiz-adv-x="770" unicode="¯"/><glyph d="M383 1473q111 0 180.5 -77t57.5 -188q-10 -100 -88 -169.5t-181 -69.5q-111 0 -180.5 76.5t-56.5 187.5q10 100 88 170t180 70zM375 1300q-37 0 -62.5 -26.5t-25.5 -65.5q2 -29 23.5 -48t49.5 -19q37 0 63 26.5t26 65.5q-2 29 -23.5 48t-50.5 19z" glyph-name="degree" horiz-adv-x="589" unicode="°"/><glyph d="M489 702h246l-22 -221h-246l-25 -219h-219l25 219h-221l22 221h221l27 246h219zM-25 2l25 221h686l-24 -221h-687z" glyph-name="plusminus" horiz-adv-x="862" unicode="±"/><glyph d="M305 1442q72 0 119 -48t41 -110q-6 -53 -40 -96t-120 -123l-108 -98h241l-6 -66h-344l6 66l152 143q10 8 28.5 25.5t24.5 23.5t20.5 19.5t18.5 19.5t14 16.5t13.5 15.5t8.5 14t7 15.5t5 15.5t3 17q2 37 -21.5 61.5t-60.5 24.5q-41 0 -73.5 -27.5t-36.5 -76.5l-4 -27h-76 l4 31q8 72 61 118t123 46z" glyph-name="uni00B2" horiz-adv-x="536" unicode="²"/><glyph d="M297 1440q68 0 114 -43t40 -101q-6 -66 -74 -106q35 -14 56.5 -50t15.5 -87q-6 -68 -65.5 -114t-135.5 -46q-84 0 -132 56.5t-38 131.5l78 -4q-6 -49 18.5 -84t71.5 -35t85 29t42 74q6 53 -30 73.5t-110 20.5l3 59q131 0 139 91q2 31 -19.5 51t-56.5 20 q-45 0 -75.5 -29.5t-37.5 -84.5l-75 4q8 78 60 126t126 48z" glyph-name="uni00B3" horiz-adv-x="536" unicode="³"/><glyph d="M555 1516l-287 -326h-198l163 326h322z" glyph-name="acute" horiz-adv-x="452" unicode="´"/><glyph d="M852 1065h264l-112 -1065h-265l27 203q-33 -68 -132 -143.5t-235 -75.5q-63 0 -145 10l-45 -383h-264l153 1454h264l-63 -602q-14 -133 29 -190.5t135 -57.5q115 0 204 81t117 165z" glyph-name="uni00B5" horiz-adv-x="1214" unicode="µ"/><glyph d="M182 965q23 211 176.5 340t393.5 129h497l-151 -1434h-269l52 487h-219q-242 0 -372.5 130.5t-107.5 347.5zM1440 1434h268l-152 -1434h-268zM954 1186h-204q-127 0 -208 -61.5t-96 -184.5q-12 -115 52.5 -168t191.5 -53h215z" glyph-name="paragraph" horiz-adv-x="1812" unicode="¶"/><glyph d="M166 418q-70 0 -111 46t-35 116q8 61 51.5 100t104.5 39q70 0 111 -46t35 -118q-8 -59 -52.5 -98t-103.5 -39z" glyph-name="periodcentered" horiz-adv-x="514" unicode="·"/><glyph d="M164 -88q74 -14 125 -56t51 -116q0 -119 -136 -167t-302 -5l26 63q96 -18 157.5 13.5t61.5 91.5q0 53 -45 76.5t-98 -9.5l-80 78l107 119h245z" glyph-name="cedilla" horiz-adv-x="423" unicode="¸"/><glyph d="M295 1436l-55 -535h-76l49 453l-37 -23l-33 64l76 41h76z" glyph-name="uni00B9" horiz-adv-x="407" unicode="¹"/><glyph d="M436 1444q117 0 209 -84t92 -223q0 -162 -111.5 -261.5t-240.5 -99.5q-119 0 -212 85t-93 224q0 158 112.5 258.5t243.5 100.5zM424 1268q-66 0 -118 -49.5t-52 -124.5q0 -66 42 -105t99 -39q66 0 117 50.5t51 129.5q0 63 -42 100.5t-97 37.5z" glyph-name="ordmasculine" horiz-adv-x="798" unicode="º"/><glyph d="M449 637l-9 -105l-338 -305l-73 88l237 271l-182 270l92 88zM805 637l-8 -105l-338 -305l-74 88l238 271l-183 270l92 88z" glyph-name="guillemotright" horiz-adv-x="876" unicode="»"/><glyph d="M246 1436l-56 -535h-75l47 453l-35 -23l-33 64l76 41h76zM1071 1434l-1032 -1434h-98l1044 1434h86zM1006 535l-33 -316h55l-8 -63h-55l-17 -156h-76l17 156h-271l312 379h76zM918 414l-154 -195h133z" glyph-name="onequarter" horiz-adv-x="1167" unicode="¼"/><glyph d="M246 1436l-56 -535h-75l47 453l-35 -23l-33 64l76 41h76zM1071 1434l-1032 -1434h-98l1044 1434h86zM827 541q72 0 119 -48.5t41 -109.5q-6 -53 -40 -96t-120 -123l-108 -98h242l-9 -66h-344l8 66l152 143q109 102 125 133q14 23 16 49q4 37 -19.5 61.5t-60.5 24.5 q-41 0 -73.5 -27.5t-38.5 -76.5l-2 -27h-76l4 31q8 72 61 118t123 46z" glyph-name="onehalf" horiz-adv-x="1116" unicode="½"/><glyph d="M274 1440q68 0 113 -43t39 -101q-6 -66 -72 -106q80 -35 72 -137q-8 -68 -67.5 -114t-135.5 -46q-84 0 -132 56.5t-38 131.5l78 -4q-4 -49 20.5 -84t71.5 -35t84 29t41 74q6 53 -29.5 73.5t-109.5 20.5l2 59q131 0 141 91q2 31 -20.5 51t-57.5 20q-45 0 -75.5 -29.5 t-36.5 -84.5l-74 4q6 78 59 126t127 48zM1126 1434l-1030 -1434h-98l1042 1434h86zM1040 535l-32 -316h55l-6 -63h-56l-16 -156h-76l17 156h-271l310 379h75zM952 414l-153 -195h133z" glyph-name="threequarters" horiz-adv-x="1202" unicode="¾"/><glyph d="M500 1075q68 0 109.5 -47t33.5 -117q-8 -59 -51 -99t-105 -40q-70 0 -111.5 47t-33.5 117q8 59 52.5 99t105.5 40zM422 -389q-203 0 -334 122t-111 320q10 88 49.5 152.5t88.5 101.5t98 73t86 93t43 135v15h272v-23q-6 -98 -44 -170t-90 -114t-103 -78.5t-90 -89 t-45 -119.5q-6 -66 39 -127.5t151 -61.5q113 0 174.5 72t71.5 158h266q-20 -215 -167.5 -337t-354.5 -122z" glyph-name="questiondown" horiz-adv-x="1118" unicode="¿"/><glyph d="M463 1884h321l164 -325h-198zM1137 0l-88 276h-689l-145 -276h-291l778 1434h240l475 -1434h-280zM479 496h496l-184 606z" glyph-name="Agrave" horiz-adv-x="1564" unicode="À"/><glyph d="M1221 1884l-287 -325h-199l164 325h322zM1137 0l-88 276h-689l-145 -276h-291l778 1434h240l475 -1434h-280zM479 496h496l-184 606z" glyph-name="Aacute" horiz-adv-x="1564" unicode="Á"/><glyph d="M930 1935l231 -313l-92 -80l-211 221l-252 -221l-71 80l290 313h105zM1137 0l-88 276h-689l-145 -276h-291l778 1434h240l475 -1434h-280zM479 496h496l-184 606z" glyph-name="Acircumflex" horiz-adv-x="1564" unicode="Â"/><glyph d="M702 1892q84 0 196 -70.5t157 -70.5q37 0 70.5 17.5t35.5 37.5l103 -8q-10 -111 -78 -183.5t-174 -72.5q-82 0 -197 81t-164 81q-37 0 -70.5 -22.5t-35.5 -51.5l-99 10q10 111 77.5 181.5t178.5 70.5zM1137 0l-88 276h-689l-145 -276h-291l778 1434h240l475 -1434h-280z M479 496h496l-184 606z" glyph-name="Atilde" horiz-adv-x="1564" unicode="Ã"/><glyph d="M743 1804l-24 -229h-244l25 229h243zM1231 1804l-25 -229h-243l22 229h246zM1137 0l-88 276h-689l-145 -276h-291l778 1434h240l475 -1434h-280zM479 496h496l-184 606z" glyph-name="Adieresis" horiz-adv-x="1564" unicode="Ä"/><glyph d="M874 2009q88 0 148.5 -60.5t60.5 -146.5q0 -94 -71.5 -164.5t-165.5 -70.5q-88 0 -149.5 60.5t-61.5 146.5q0 94 71.5 164.5t167.5 70.5zM864 1847q-27 0 -43 -18.5t-16 -46.5q0 -18 14.5 -33.5t34.5 -15.5q27 0 45.5 19.5t18.5 47.5q0 18 -17 32.5t-37 14.5zM1137 0 l-88 276h-689l-145 -276h-291l778 1434h240l475 -1434h-280zM479 496h496l-184 606z" glyph-name="Aring" horiz-adv-x="1564" unicode="Å"/><glyph d="M1219 248h624l-26 -248h-893l41 391h-430l-308 -391h-303l1133 1434h893l-27 -248h-606l-35 -344h461l-27 -242h-461zM717 621h272l45 401z" glyph-name="AE" horiz-adv-x="2017" unicode="Æ"/><glyph d="M1225 150q-186 -152 -439 -168l-90 -70q74 -14 125 -56t51 -116q0 -119 -136 -167t-302 -5l27 63q96 -18 157.5 13.5t61.5 91.5q0 53 -45 76.5t-98 -9.5l-80 78l104 117q-227 51 -370.5 225t-143.5 420q0 336 242.5 573.5t570.5 237.5q283 0 467 -174l-182 -178 q-121 100 -285 100q-215 0 -375.5 -156.5t-162.5 -398.5q0 -182 125.5 -299t312.5 -117q172 0 321 115z" glyph-name="Ccedilla" horiz-adv-x="1378" unicode="Ç"/><glyph d="M252 1884h321l164 -325h-198zM301 248h625l-27 -248h-893l152 1434h874l-26 -248h-607l-34 -344h460l-26 -242h-461z" glyph-name="Egrave" horiz-adv-x="1099" unicode="È"/><glyph d="M1010 1884l-287 -325h-199l164 325h322zM301 248h625l-27 -248h-893l152 1434h874l-26 -248h-607l-34 -344h460l-26 -242h-461z" glyph-name="Eacute" horiz-adv-x="1099" unicode="É"/><glyph d="M719 1935l231 -313l-92 -80l-211 221l-252 -221l-71 80l290 313h105zM301 248h625l-27 -248h-893l152 1434h874l-26 -248h-607l-34 -344h460l-26 -242h-461z" glyph-name="Ecircumflex" horiz-adv-x="1099" unicode="Ê"/><glyph d="M532 1804l-24 -229h-244l25 229h243zM1020 1804l-25 -229h-243l22 229h246zM301 248h625l-27 -248h-893l152 1434h874l-26 -248h-607l-34 -344h460l-26 -242h-461z" glyph-name="Edieresis" horiz-adv-x="1099" unicode="Ë"/><glyph d="M-70 1884h322l164 -325h-199zM426 1434l-152 -1434h-268l152 1434h268z" glyph-name="Igrave" horiz-adv-x="505" unicode="Ì"/><glyph d="M688 1884l-287 -325h-198l164 325h321zM426 1434l-152 -1434h-268l152 1434h268z" glyph-name="Iacute" horiz-adv-x="505" unicode="Í"/><glyph d="M397 1935l232 -313l-92 -80l-211 221l-252 -221l-72 80l291 313h104zM426 1434l-152 -1434h-268l152 1434h268z" glyph-name="Icircumflex" horiz-adv-x="505" unicode="Î"/><glyph d="M211 1804l-25 -229h-243l24 229h244zM698 1804l-24 -229h-244l23 229h245zM426 1434l-152 -1434h-268l152 1434h268z" glyph-name="Idieresis" horiz-adv-x="505" unicode="Ï"/><glyph d="M797 1434q307 0 496.5 -211t158.5 -512q-33 -299 -262 -505t-535 -206h-495l63 594h-119l23 219h119l65 621h486zM672 254q211 0 349 137t161 344q18 188 -88.5 316.5t-315.5 128.5h-225l-39 -367h248l-23 -219h-247l-37 -340h217z" glyph-name="Eth" horiz-adv-x="1570" unicode="Ð"/><glyph d="M647 1892q84 0 195.5 -70.5t156.5 -70.5q37 0 71 17.5t36 37.5l102 -8q-10 -111 -77.5 -183.5t-174.5 -72.5q-82 0 -196.5 81t-163.5 81q-37 0 -70.5 -22.5t-36.5 -51.5l-98 10q10 111 77.5 181.5t178.5 70.5zM1110 1434h268l-151 -1434h-203l-645 946l-105 -946h-268 l152 1434h204l646 -949z" glyph-name="Ntilde" horiz-adv-x="1458" unicode="Ñ"/><glyph d="M500 1884h321l164 -325h-199zM858 1454q285 0 480.5 -187.5t195.5 -478.5q0 -336 -241.5 -572t-571.5 -236q-285 0 -479.5 186t-194.5 477q0 336 240.5 573.5t570.5 237.5zM737 231q201 0 359.5 152t158.5 385q0 190 -118.5 312t-294.5 122q-203 0 -359.5 -152.5 t-156.5 -387.5q0 -186 117.5 -308.5t293.5 -122.5z" glyph-name="Ograve" horiz-adv-x="1654" unicode="Ò"/><glyph d="M1257 1884l-286 -325h-199l164 325h321zM858 1454q285 0 480.5 -187.5t195.5 -478.5q0 -336 -241.5 -572t-571.5 -236q-285 0 -479.5 186t-194.5 477q0 336 240.5 573.5t570.5 237.5zM737 231q201 0 359.5 152t158.5 385q0 190 -118.5 312t-294.5 122 q-203 0 -359.5 -152.5t-156.5 -387.5q0 -186 117.5 -308.5t293.5 -122.5z" glyph-name="Oacute" horiz-adv-x="1654" unicode="Ó"/><glyph d="M967 1935l231 -313l-92 -80l-211 221l-252 -221l-72 80l291 313h105zM858 1454q285 0 480.5 -187.5t195.5 -478.5q0 -336 -241.5 -572t-571.5 -236q-285 0 -479.5 186t-194.5 477q0 336 240.5 573.5t570.5 237.5zM737 231q201 0 359.5 152t158.5 385q0 190 -118.5 312 t-294.5 122q-203 0 -359.5 -152.5t-156.5 -387.5q0 -186 117.5 -308.5t293.5 -122.5z" glyph-name="Ocircumflex" horiz-adv-x="1654" unicode="Ô"/><glyph d="M739 1892q84 0 196 -70.5t157 -70.5q37 0 70.5 17.5t35.5 37.5l102 -8q-10 -111 -77.5 -183.5t-173.5 -72.5q-82 0 -197 81t-164 81q-37 0 -70.5 -22.5t-35.5 -51.5l-99 10q10 111 77.5 181.5t178.5 70.5zM858 1454q285 0 480.5 -187.5t195.5 -478.5q0 -336 -241.5 -572 t-571.5 -236q-285 0 -479.5 186t-194.5 477q0 336 240.5 573.5t570.5 237.5zM737 231q201 0 359.5 152t158.5 385q0 190 -118.5 312t-294.5 122q-203 0 -359.5 -152.5t-156.5 -387.5q0 -186 117.5 -308.5t293.5 -122.5z" glyph-name="Otilde" horiz-adv-x="1654" unicode="Õ"/><glyph d="M780 1804l-24 -229h-244l25 229h243zM1268 1804l-25 -229h-244l23 229h246zM858 1454q285 0 480.5 -187.5t195.5 -478.5q0 -336 -241.5 -572t-571.5 -236q-285 0 -479.5 186t-194.5 477q0 336 240.5 573.5t570.5 237.5zM737 231q201 0 359.5 152t158.5 385 q0 190 -118.5 312t-294.5 122q-203 0 -359.5 -152.5t-156.5 -387.5q0 -186 117.5 -308.5t293.5 -122.5z" glyph-name="Odieresis" horiz-adv-x="1654" unicode="Ö"/><glyph d="M721 743l-184 -165l147 -164l-174 -156l-145 164l-181 -164l-141 154l182 166l-149 167l174 154l147 -166l183 166z" glyph-name="multiply" horiz-adv-x="790" unicode="×"/><glyph d="M1286 1311q131 -98 196.5 -255t47.5 -351q-33 -313 -271.5 -519t-537.5 -206q-94 0 -189 26l-65 -108h-305l135 219q-133 102 -199.5 260t-46.5 352q33 313 270.5 519t536.5 206q98 0 195 -27l59 99h305zM328 705q-25 -213 100 -355l500 850q-27 2 -78 2 q-195 0 -347 -141t-175 -356zM729 231q197 0 350.5 141.5t173.5 356.5q23 215 -98 348l-498 -844q13 -2 72 -2z" glyph-name="Oslash" horiz-adv-x="1654" unicode="Ø"/><glyph d="M334 1884h321l164 -325h-198zM975 1434h268l-96 -918q-27 -254 -196 -400.5t-398 -146.5q-236 0 -380 150.5t-118 404.5l97 910h268l-96 -920q-18 -154 52 -223.5t185 -69.5q119 0 210 74t108 229z" glyph-name="Ugrave" horiz-adv-x="1323" unicode="Ù"/><glyph d="M1092 1884l-287 -325h-199l164 325h322zM975 1434h268l-96 -918q-27 -254 -196 -400.5t-398 -146.5q-236 0 -380 150.5t-118 404.5l97 910h268l-96 -920q-18 -154 52 -223.5t185 -69.5q119 0 210 74t108 229z" glyph-name="Uacute" horiz-adv-x="1323" unicode="Ú"/><glyph d="M801 1935l231 -313l-92 -80l-211 221l-252 -221l-71 80l290 313h105zM975 1434h268l-96 -918q-27 -254 -196 -400.5t-398 -146.5q-236 0 -380 150.5t-118 404.5l97 910h268l-96 -920q-18 -154 52 -223.5t185 -69.5q119 0 210 74t108 229z" glyph-name="Ucircumflex" horiz-adv-x="1323" unicode="Û"/><glyph d="M614 1804l-24 -229h-244l25 229h243zM1102 1804l-25 -229h-243l22 229h246zM975 1434h268l-96 -918q-27 -254 -196 -400.5t-398 -146.5q-236 0 -380 150.5t-118 404.5l97 910h268l-96 -920q-18 -154 52 -223.5t185 -69.5q119 0 210 74t108 229z" glyph-name="Udieresis" horiz-adv-x="1323" unicode="Ü"/><glyph d="M1174 1884l-287 -325h-199l164 325h322zM1458 1434l-629 -811l-69 -623h-268l69 623l-457 811h299l312 -568l432 568h311z" glyph-name="Yacute" horiz-adv-x="1476" unicode="Ý"/><glyph d="M678 1157q260 0 405.5 -124t125 -324.5t-185.5 -312t-427 -111.5h-291l-31 -285h-268l152 1434h268l-29 -277h281zM614 516h58.5t53.5 2t54.5 7t45 15.5t44 26t32 38t27.5 55t13 73.5q6 55 -7 92t-34.5 56.5t-65.5 30t-77 12.5t-90 2h-295l-43 -410h284z" glyph-name="Thorn" horiz-adv-x="1312" unicode="Þ"/><glyph d="M672 1434q217 0 350 -88.5t133 -258.5q0 -129 -72.5 -206.5t-177.5 -96.5q127 -16 199 -107t72 -241q0 -221 -154 -328.5t-434 -107.5h-154l23 231h149q147 0 225 56.5t78 163.5q0 209 -307 208h-98l22 215h92q268 0 269 177q0 154 -219 153q-145 0 -214 -53t-83 -184 l-101 -967h-264l105 975q45 459 561 459z" glyph-name="germandbls" horiz-adv-x="1310" unicode="ß"/><glyph d="M285 1516h321l164 -326h-199zM598 1083q92 0 166 -34.5t106.5 -69.5t34.5 -57l19 143h262l-113 -1065h-262l18 150q-14 -53 -107 -111.5t-220 -58.5q-121 0 -227.5 51t-181.5 166.5t-75 273.5q0 254 171 433t409 179zM608 850q-139 0 -233 -101.5t-94 -254.5 q0 -135 78.5 -208t197.5 -73q123 0 223.5 92t100.5 270q0 131 -80 203t-193 72z" glyph-name="agrave" unicode="à"/><glyph d="M1042 1516l-286 -326h-199l164 326h321zM598 1083q92 0 166 -34.5t106.5 -69.5t34.5 -57l19 143h262l-113 -1065h-262l18 150q-14 -53 -107 -111.5t-220 -58.5q-121 0 -227.5 51t-181.5 166.5t-75 273.5q0 254 171 433t409 179zM608 850q-139 0 -233 -101.5t-94 -254.5 q0 -135 78.5 -208t197.5 -73q123 0 223.5 92t100.5 270q0 131 -80 203t-193 72z" glyph-name="aacute" unicode="á"/><glyph d="M752 1567l231 -314l-92 -79l-211 221l-252 -221l-72 79l291 314h105zM598 1083q92 0 166 -34.5t106.5 -69.5t34.5 -57l19 143h262l-113 -1065h-262l18 150q-14 -53 -107 -111.5t-220 -58.5q-121 0 -227.5 51t-181.5 166.5t-75 273.5q0 254 171 433t409 179zM608 850 q-139 0 -233 -101.5t-94 -254.5q0 -135 78.5 -208t197.5 -73q123 0 223.5 92t100.5 270q0 131 -80 203t-193 72z" glyph-name="acircumflex" unicode="â"/><glyph d="M524 1524q84 0 195.5 -71t157.5 -71q37 0 70.5 17.5t35.5 38.5l102 -8q-10 -111 -77.5 -183.5t-173.5 -72.5q-82 0 -197 80.5t-164 80.5q-37 0 -70.5 -22.5t-35.5 -50.5l-99 10q10 111 77.5 181.5t178.5 70.5zM598 1083q92 0 166 -34.5t106.5 -69.5t34.5 -57l19 143h262 l-113 -1065h-262l18 150q-14 -53 -107 -111.5t-220 -58.5q-121 0 -227.5 51t-181.5 166.5t-75 273.5q0 254 171 433t409 179zM608 850q-139 0 -233 -101.5t-94 -254.5q0 -135 78.5 -208t197.5 -73q123 0 223.5 92t100.5 270q0 131 -80 203t-193 72z" glyph-name="atilde" unicode="ã"/><glyph d="M565 1436l-24 -230h-244l25 230h243zM1053 1436l-25 -230h-244l23 230h246zM598 1083q92 0 166 -34.5t106.5 -69.5t34.5 -57l19 143h262l-113 -1065h-262l18 150q-14 -53 -107 -111.5t-220 -58.5q-121 0 -227.5 51t-181.5 166.5t-75 273.5q0 254 171 433t409 179z M608 850q-139 0 -233 -101.5t-94 -254.5q0 -135 78.5 -208t197.5 -73q123 0 223.5 92t100.5 270q0 131 -80 203t-193 72z" glyph-name="adieresis" unicode="ä"/><glyph d="M696 1640q88 0 148.5 -60t60.5 -146q0 -94 -71.5 -165t-165.5 -71q-88 0 -149.5 60.5t-61.5 146.5q0 94 71.5 164.5t167.5 70.5zM686 1479q-27 0 -43 -18.5t-16 -47.5q0 -18 14 -33.5t35 -15.5q27 0 45 19.5t18 48.5q0 18 -16.5 32.5t-36.5 14.5zM598 1083 q92 0 166 -34.5t106.5 -69.5t34.5 -57l19 143h262l-113 -1065h-262l18 150q-14 -53 -107 -111.5t-220 -58.5q-121 0 -227.5 51t-181.5 166.5t-75 273.5q0 254 171 433t409 179zM608 850q-139 0 -233 -101.5t-94 -254.5q0 -135 78.5 -208t197.5 -73q123 0 223.5 92t100.5 270 q0 131 -80 203t-193 72z" glyph-name="aring" unicode="å"/><glyph d="M1960 610q0 -88 -21 -176h-806q14 -115 93 -175t199 -60q156 0 287 88l129 -142q-160 -166 -434 -165q-182 0 -326 96l-8 -76h-262l18 150q-14 -53 -107 -111.5t-220 -58.5q-121 0 -227.5 51t-181.5 166.5t-75 273.5q0 254 171 433t409 179q92 0 166 -34.5t106.5 -69.5 t34.5 -57l19 143h262l-6 -66q139 86 305 86q82 0 164 -28.5t152.5 -82.5t114.5 -149.5t44 -214.5zM1157 623h574q-8 117 -80 177t-172 60q-104 0 -193.5 -61t-128.5 -176zM557 213q123 0 223.5 92t100.5 270q0 131 -80 203t-193 72q-139 0 -233 -101.5t-94 -254.5 q0 -135 78.5 -208t197.5 -73z" glyph-name="ae" horiz-adv-x="2080" unicode="æ"/><glyph d="M547 211q143 0 258 121l201 -103q-141 -199 -363 -239l-96 -76q74 -14 125 -56t51 -116q0 -119 -136 -167t-302 -5l26 63q96 -18 157.5 13.5t61.5 91.5q0 53 -45 76.5t-98 -9.5l-80 78l99 111q-162 37 -275 163t-113 326q0 254 179.5 428t427.5 174q150 0 262 -66.5 t172 -195.5l-209 -86q-84 115 -236 115q-139 0 -239.5 -102.5t-100.5 -264.5q0 -131 79 -202.5t194 -71.5z" glyph-name="ccedilla" horiz-adv-x="1148" unicode="ç"/><glyph d="M264 1516h322l164 -326h-199zM627 1085q82 0 163.5 -28.5t152.5 -82.5t115 -149.5t44 -214.5q0 -88 -21 -176h-807q14 -115 93 -175t200 -60q96 0 158.5 21.5t128.5 66.5l129 -142q-160 -166 -434 -165q-211 0 -371 131t-160 364q0 254 182.5 432t426.5 178zM621 860 q-104 0 -193.5 -61.5t-128.5 -175.5h573q-8 117 -79.5 177t-171.5 60z" glyph-name="egrave" horiz-adv-x="1222" unicode="è"/><glyph d="M1022 1516l-287 -326h-198l163 326h322zM627 1085q82 0 163.5 -28.5t152.5 -82.5t115 -149.5t44 -214.5q0 -88 -21 -176h-807q14 -115 93 -175t200 -60q96 0 158.5 21.5t128.5 66.5l129 -142q-160 -166 -434 -165q-211 0 -371 131t-160 364q0 254 182.5 432t426.5 178z M621 860q-104 0 -193.5 -61.5t-128.5 -175.5h573q-8 117 -79.5 177t-171.5 60z" glyph-name="eacute" horiz-adv-x="1222" unicode="é"/><glyph d="M731 1567l232 -314l-93 -79l-211 221l-251 -221l-72 79l291 314h104zM627 1085q82 0 163.5 -28.5t152.5 -82.5t115 -149.5t44 -214.5q0 -88 -21 -176h-807q14 -115 93 -175t200 -60q96 0 158.5 21.5t128.5 66.5l129 -142q-160 -166 -434 -165q-211 0 -371 131t-160 364 q0 254 182.5 432t426.5 178zM621 860q-104 0 -193.5 -61.5t-128.5 -175.5h573q-8 117 -79.5 177t-171.5 60z" glyph-name="ecircumflex" horiz-adv-x="1222" unicode="ê"/><glyph d="M545 1436l-25 -230h-244l25 230h244zM1032 1436l-24 -230h-244l22 230h246zM627 1085q82 0 163.5 -28.5t152.5 -82.5t115 -149.5t44 -214.5q0 -88 -21 -176h-807q14 -115 93 -175t200 -60q96 0 158.5 21.5t128.5 66.5l129 -142q-160 -166 -434 -165q-211 0 -371 131 t-160 364q0 254 182.5 432t426.5 178zM621 860q-104 0 -193.5 -61.5t-128.5 -175.5h573q-8 117 -79.5 177t-171.5 60z" glyph-name="edieresis" horiz-adv-x="1222" unicode="ë"/><glyph d="M-127 1516h322l163 -326h-198zM369 1065l-113 -1065h-264l112 1065h265z" glyph-name="igrave" horiz-adv-x="466" unicode="ì"/><glyph d="M631 1516l-287 -326h-199l164 326h322zM369 1065l-113 -1065h-264l112 1065h265z" glyph-name="iacute" horiz-adv-x="466" unicode="í"/><glyph d="M340 1567l231 -314l-92 -79l-211 221l-252 -221l-71 79l291 314h104zM369 1065l-113 -1065h-264l112 1065h265z" glyph-name="icircumflex" horiz-adv-x="466" unicode="î"/><glyph d="M154 1436l-25 -230h-244l25 230h244zM641 1436l-25 -230h-243l22 230h246zM369 1065l-113 -1065h-264l112 1065h265z" glyph-name="idieresis" horiz-adv-x="466" unicode="ï"/><glyph d="M926 1184q100 -168 129.5 -323.5t7.5 -356.5q-27 -252 -192.5 -388t-387.5 -136q-213 0 -351 143t-112 405q31 260 181.5 398.5t378.5 138.5q98 0 141 -33l-59 113l-193 -31l14 127l107 16l-111 177h293l84 -134l199 33l-11 -127zM489 211q121 0 206 79t101.5 238.5 t-47 232.5t-176.5 73q-106 0 -187 -80t-99 -250q-16 -147 47 -220t155 -73z" glyph-name="eth" horiz-adv-x="1218" unicode="ð"/><glyph d="M479 1524q84 0 195.5 -71t156.5 -71q37 0 71 17.5t36 38.5l102 -8q-10 -111 -77.5 -183.5t-174.5 -72.5q-82 0 -196.5 80.5t-163.5 80.5q-37 0 -70.5 -22.5t-35.5 -50.5l-99 10q10 111 77.5 181.5t178.5 70.5zM719 1085q170 0 276.5 -118.5t79.5 -356.5l-65 -610h-262 l63 602q16 133 -37 192.5t-145 59.5q-115 0 -199 -79t-104 -152l-70 -623h-264l112 1065h265l-23 -203q27 68 129.5 145.5t243.5 77.5z" glyph-name="ntilde" horiz-adv-x="1222" unicode="ñ"/><glyph d="M270 1516h322l164 -326h-199zM627 1085q123 0 235.5 -53t193.5 -173t81 -279q0 -254 -179.5 -427t-429.5 -173q-195 0 -352.5 134t-157.5 369q0 256 179.5 429t429.5 173zM545 213q133 0 234.5 97.5t101.5 262.5q0 131 -82 205t-189 74q-133 0 -234.5 -97.5 t-101.5 -265.5q0 -131 82.5 -203.5t188.5 -72.5z" glyph-name="ograve" horiz-adv-x="1257" unicode="ò"/><glyph d="M1028 1516l-287 -326h-198l164 326h321zM627 1085q123 0 235.5 -53t193.5 -173t81 -279q0 -254 -179.5 -427t-429.5 -173q-195 0 -352.5 134t-157.5 369q0 256 179.5 429t429.5 173zM545 213q133 0 234.5 97.5t101.5 262.5q0 131 -82 205t-189 74q-133 0 -234.5 -97.5 t-101.5 -265.5q0 -131 82.5 -203.5t188.5 -72.5z" glyph-name="oacute" horiz-adv-x="1257" unicode="ó"/><glyph d="M737 1567l232 -314l-92 -79l-211 221l-252 -221l-72 79l291 314h104zM627 1085q123 0 235.5 -53t193.5 -173t81 -279q0 -254 -179.5 -427t-429.5 -173q-195 0 -352.5 134t-157.5 369q0 256 179.5 429t429.5 173zM545 213q133 0 234.5 97.5t101.5 262.5q0 131 -82 205 t-189 74q-133 0 -234.5 -97.5t-101.5 -265.5q0 -131 82.5 -203.5t188.5 -72.5z" glyph-name="ocircumflex" horiz-adv-x="1257" unicode="ô"/><glyph d="M510 1524q84 0 195.5 -71t156.5 -71q37 0 71 17.5t36 38.5l102 -8q-10 -111 -77.5 -183.5t-174.5 -72.5q-82 0 -196.5 80.5t-163.5 80.5q-37 0 -71 -22.5t-36 -50.5l-98 10q10 111 77.5 181.5t178.5 70.5zM627 1085q123 0 235.5 -53t193.5 -173t81 -279 q0 -254 -179.5 -427t-429.5 -173q-195 0 -352.5 134t-157.5 369q0 256 179.5 429t429.5 173zM545 213q133 0 234.5 97.5t101.5 262.5q0 131 -82 205t-189 74q-133 0 -234.5 -97.5t-101.5 -265.5q0 -131 82.5 -203.5t188.5 -72.5z" glyph-name="otilde" horiz-adv-x="1257" unicode="õ"/><glyph d="M551 1436l-25 -230h-243l24 230h244zM1038 1436l-24 -230h-244l23 230h245zM627 1085q123 0 235.5 -53t193.5 -173t81 -279q0 -254 -179.5 -427t-429.5 -173q-195 0 -352.5 134t-157.5 369q0 256 179.5 429t429.5 173zM545 213q133 0 234.5 97.5t101.5 262.5 q0 131 -82 205t-189 74q-133 0 -234.5 -97.5t-101.5 -265.5q0 -131 82.5 -203.5t188.5 -72.5z" glyph-name="odieresis" horiz-adv-x="1257" unicode="ö"/><glyph d="M403 766q-70 0 -111.5 46t-33.5 116q8 59 52 99t106 40q68 0 109.5 -47t33.5 -117q-8 -59 -51.5 -98t-104.5 -39zM733 674l-22 -219h-686l22 219h686zM336 55q-68 0 -110 47.5t-33 116.5q4 57 49 97t106 40q68 0 110 -47t34 -114q-6 -59 -50.5 -99.5t-105.5 -40.5z" glyph-name="divide" horiz-adv-x="811" unicode="÷"/><glyph d="M950 973q209 -168 178 -455q-18 -172 -120.5 -299t-229.5 -183t-252 -56q-57 0 -135 18l-63 -100h-254l121 194q-205 164 -175 451q14 129 77 235.5t151 171t185 99t190 34.5q72 0 133 -18l69 119h254zM274 518q-14 -121 41 -209l326 543q-6 0 -13 -1t-10 -1 q-121 0 -224.5 -89t-119.5 -243zM530 213q121 0 225.5 88t121.5 242q14 129 -50 215l-323 -547q6 0 14 1t12 1z" glyph-name="oslash" horiz-adv-x="1255" unicode="ø"/><glyph d="M248 1516h321l164 -326h-198zM393 -20q-170 0 -277.5 119.5t-82.5 355.5l63 610h264l-63 -602q-14 -133 41 -192.5t149 -59.5q115 0 193 80t102 170l68 604h264l-113 -1065h-264l27 207q-31 -74 -130.5 -150.5t-240.5 -76.5z" glyph-name="ugrave" horiz-adv-x="1212" unicode="ù"/><glyph d="M1006 1516l-287 -326h-199l164 326h322zM393 -20q-170 0 -277.5 119.5t-82.5 355.5l63 610h264l-63 -602q-14 -133 41 -192.5t149 -59.5q115 0 193 80t102 170l68 604h264l-113 -1065h-264l27 207q-31 -74 -130.5 -150.5t-240.5 -76.5z" glyph-name="uacute" horiz-adv-x="1212" unicode="ú"/><glyph d="M715 1567l231 -314l-92 -79l-211 221l-252 -221l-72 79l291 314h105zM393 -20q-170 0 -277.5 119.5t-82.5 355.5l63 610h264l-63 -602q-14 -133 41 -192.5t149 -59.5q115 0 193 80t102 170l68 604h264l-113 -1065h-264l27 207q-31 -74 -130.5 -150.5t-240.5 -76.5z" glyph-name="ucircumflex" horiz-adv-x="1212" unicode="û"/><glyph d="M528 1436l-24 -230h-244l25 230h243zM1016 1436l-25 -230h-243l22 230h246zM393 -20q-170 0 -277.5 119.5t-82.5 355.5l63 610h264l-63 -602q-14 -133 41 -192.5t149 -59.5q115 0 193 80t102 170l68 604h264l-113 -1065h-264l27 207q-31 -74 -130.5 -150.5t-240.5 -76.5z " glyph-name="udieresis" horiz-adv-x="1212" unicode="ü"/><glyph d="M1030 1516l-287 -326h-198l164 326h321zM969 1067h266l-803 -1456h-268l242 426l-351 1030h258l250 -745z" glyph-name="yacute" horiz-adv-x="1282" unicode="ý"/><glyph d="M678 1083q207 0 355.5 -150.5t121.5 -412.5q-18 -174 -113.5 -301t-216 -183t-245.5 -56q-133 0 -217 62t-87 118l-61 -549h-264l194 1837h265l-58 -518q12 39 106.5 96t219.5 57zM549 213q129 0 233.5 88t120.5 244q14 143 -65.5 224t-200.5 81q-127 0 -224.5 -87 t-113.5 -243q-16 -145 57.5 -226t192.5 -81z" glyph-name="thorn" horiz-adv-x="1282" unicode="þ"/><glyph d="M553 1436l-25 -230h-243l24 230h244zM1040 1436l-24 -230h-244l23 230h245zM969 1067h266l-803 -1456h-268l242 426l-351 1030h258l250 -745z" glyph-name="ydieresis" horiz-adv-x="1282" unicode="ÿ"/><glyph d="M1249 1802l-24 -217h-770l24 217h770zM1137 0l-88 276h-689l-145 -276h-291l778 1434h240l475 -1434h-280zM479 496h496l-184 606z" glyph-name="Amacron" horiz-adv-x="1564" unicode="Ā"/><glyph d="M1071 1434l-24 -217h-771l25 217h770zM598 1083q92 0 166 -34.5t106.5 -69.5t34.5 -57l19 143h262l-113 -1065h-262l18 150q-14 -53 -107 -111.5t-220 -58.5q-121 0 -227.5 51t-181.5 166.5t-75 273.5q0 254 171 433t409 179zM608 850q-139 0 -233 -101.5t-94 -254.5 q0 -135 78.5 -208t197.5 -73q123 0 223.5 92t100.5 270q0 131 -80 203t-193 72z" glyph-name="amacron" unicode="ā"/><glyph d="M1186 1864q-14 -137 -110.5 -231.5t-254 -94.5t-230.5 96.5t-59 229.5h164q-4 -66 32 -107t112 -41q78 0 124 41t58 107h164zM1137 0l-88 276h-689l-145 -276h-291l778 1434h240l475 -1434h-280zM479 496h496l-184 606z" glyph-name="Abreve" horiz-adv-x="1564" unicode="Ă"/><glyph d="M1008 1495q-14 -137 -110.5 -231.5t-254.5 -94.5t-230.5 96.5t-58.5 229.5h164q-4 -66 32 -106.5t112 -40.5q78 0 123.5 41t58.5 106h164zM598 1083q92 0 166 -34.5t106.5 -69.5t34.5 -57l19 143h262l-113 -1065h-262l18 150q-14 -53 -107 -111.5t-220 -58.5 q-121 0 -227.5 51t-181.5 166.5t-75 273.5q0 254 171 433t409 179zM608 850q-139 0 -233 -101.5t-94 -254.5q0 -135 78.5 -208t197.5 -73q123 0 223.5 92t100.5 270q0 131 -80 203t-193 72z" glyph-name="abreve" unicode="ă"/><glyph d="M1106 -233q-6 -49 47 -64.5t104 10.5l56 -121q-51 -27 -132 -35t-158 7.5t-128 68t-43 134.5q18 160 303 235l-82 274h-711l-147 -276h-291l791 1434h239l494 -1436q-328 -98 -342 -231zM481 496h516l-194 606z" glyph-name="Aogonek" horiz-adv-x="1595" unicode="Ą"/><glyph d="M1079 -2q-70 -25 -102.5 -36t-82.5 -33.5t-73.5 -41t-42 -46t-18.5 -58.5q0 -57 52 -76.5t99 4.5l58 -119q-49 -27 -127 -35t-153 5.5t-128 59.5t-53 118q0 176 297 262l24 148q-14 -53 -107 -111.5t-220 -58.5q-207 0 -356.5 148t-122.5 417q29 252 202.5 395t372.5 143 q92 0 166 -34.5t106.5 -69.5t34.5 -57l19 143h262zM543 213q127 0 224 87t114 245q14 145 -58.5 225t-191.5 80q-129 0 -232.5 -88t-122.5 -242q-16 -145 64 -226t203 -81z" glyph-name="aogonek" horiz-adv-x="1288" unicode="ą"/><glyph d="M1219 1884l-287 -325h-199l164 325h322zM1225 150q-209 -170 -502 -170q-285 0 -480.5 186t-195.5 477q0 336 242.5 573.5t570.5 237.5q283 0 467 -174l-182 -178q-121 100 -285 100q-215 0 -375.5 -156.5t-162.5 -398.5q0 -182 125.5 -299t312.5 -117q172 0 321 115z " glyph-name="Cacute" horiz-adv-x="1378" unicode="Ć"/><glyph d="M995 1516l-286 -326h-199l164 326h321zM625 1085q150 0 262 -66.5t172 -195.5l-209 -86q-84 115 -236 115q-139 0 -239.5 -102.5t-100.5 -264.5q0 -131 79 -202.5t194 -71.5q143 0 258 121l201 -103q-176 -250 -480 -249q-195 0 -351.5 132t-156.5 371q0 254 179.5 428 t427.5 174z" glyph-name="cacute" horiz-adv-x="1148" unicode="ć"/><glyph d="M983 1804l-25 -229h-243l24 229h244zM1225 150q-209 -170 -502 -170q-285 0 -480.5 186t-195.5 477q0 336 242.5 573.5t570.5 237.5q283 0 467 -174l-182 -178q-121 100 -285 100q-215 0 -375.5 -156.5t-162.5 -398.5q0 -182 125.5 -299t312.5 -117q172 0 321 115z" glyph-name="Cdotaccent" horiz-adv-x="1378" unicode="Ċ"/><glyph d="M760 1436l-25 -230h-243l24 230h244zM625 1085q150 0 262 -66.5t172 -195.5l-209 -86q-84 115 -236 115q-139 0 -239.5 -102.5t-100.5 -264.5q0 -131 79 -202.5t194 -71.5q143 0 258 121l201 -103q-176 -250 -480 -249q-195 0 -351.5 132t-156.5 371q0 254 179.5 428 t427.5 174z" glyph-name="cdotaccent" horiz-adv-x="1148" unicode="ċ"/><glyph d="M784 1542l-231 313l92 80l211 -221l252 221l72 -80l-291 -313h-105zM1225 150q-209 -170 -502 -170q-285 0 -480.5 186t-195.5 477q0 336 242.5 573.5t570.5 237.5q283 0 467 -174l-182 -178q-121 100 -285 100q-215 0 -375.5 -156.5t-162.5 -398.5q0 -182 125.5 -299 t312.5 -117q172 0 321 115z" glyph-name="Ccaron" horiz-adv-x="1378" unicode="Č"/><glyph d="M561 1174l-231 313l92 80l211 -221l252 221l71 -80l-290 -313h-105zM625 1085q150 0 262 -66.5t172 -195.5l-209 -86q-84 115 -236 115q-139 0 -239.5 -102.5t-100.5 -264.5q0 -131 79 -202.5t194 -71.5q143 0 258 121l201 -103q-176 -250 -480 -249q-195 0 -351.5 132 t-156.5 371q0 254 179.5 428t427.5 174z" glyph-name="ccaron" horiz-adv-x="1148" unicode="č"/><glyph d="M666 1542l-232 313l92 80l211 -221l252 221l72 -80l-291 -313h-104zM645 1434q305 0 494.5 -211t158.5 -512q-33 -299 -261 -505t-535 -206h-496l152 1434h487zM518 254q211 0 349.5 137t160.5 344q20 186 -87 315.5t-316 129.5h-226l-98 -926h217z" glyph-name="Dcaron" horiz-adv-x="1417" unicode="Ď"/><glyph d="M965 1448h262l-154 -1448h-262l18 150q-14 -53 -107 -111.5t-220 -58.5q-121 0 -227.5 51t-181.5 166.5t-75 273.5q0 254 170 434t410 180q92 0 166 -34.5t106.5 -70.5t34.5 -58zM1442 1434h321l-282 -265h-205zM608 852q-139 0 -233 -102.5t-94 -255.5q0 -135 78.5 -208 t197.5 -73q123 0 223.5 92t100.5 270q0 133 -80 205t-193 72z" glyph-name="dcaron" horiz-adv-x="1679" unicode="ď"/><glyph d="M803 1434q305 0 495.5 -211t159.5 -512q-33 -299 -262 -505t-534 -206h-496l61 594h-118l22 219h119l67 621h486zM676 254q211 0 350 137t162 344q18 188 -88.5 316.5t-315.5 128.5h-227l-39 -367h248l-23 -219h-247l-35 -340h215z" glyph-name="Dcroat" horiz-adv-x="1576" unicode="Đ"/><glyph d="M1382 1358l-22 -217h-166l-121 -1141h-262l18 150q-14 -53 -107 -111.5t-220 -58.5q-121 0 -227.5 51t-181.5 166.5t-75 273.5q0 254 170 434t410 180q92 0 166 -34.5t106.5 -70.5t34.5 -58l25 219h-340l22 217h342l11 90h262l-10 -90h165zM557 213q123 0 223.5 92 t100.5 270q0 133 -80 205t-193 72q-139 0 -233 -102.5t-94 -255.5q0 -135 78.5 -208t197.5 -73z" glyph-name="dcroat" horiz-adv-x="1327" unicode="đ"/><glyph d="M1038 1802l-24 -217h-770l24 217h770zM301 248h625l-27 -248h-893l152 1434h874l-26 -248h-607l-34 -344h460l-26 -242h-461z" glyph-name="Emacron" horiz-adv-x="1099" unicode="Ē"/><glyph d="M1051 1434l-25 -217h-770l25 217h770zM627 1085q82 0 163.5 -28.5t152.5 -82.5t115 -149.5t44 -214.5q0 -88 -21 -176h-807q14 -115 93 -175t200 -60q96 0 158.5 21.5t128.5 66.5l129 -142q-160 -166 -434 -165q-211 0 -371 131t-160 364q0 254 182.5 432t426.5 178z M621 860q-104 0 -193.5 -61.5t-128.5 -175.5h573q-8 117 -79.5 177t-171.5 60z" glyph-name="emacron" horiz-adv-x="1222" unicode="ē"/><glyph d="M774 1804l-24 -229h-244l24 229h244zM301 248h625l-27 -248h-893l152 1434h874l-26 -248h-607l-34 -344h460l-26 -242h-461z" glyph-name="Edotaccent" horiz-adv-x="1099" unicode="Ė"/><glyph d="M786 1436l-24 -230h-244l25 230h243zM627 1085q82 0 163.5 -28.5t152.5 -82.5t115 -149.5t44 -214.5q0 -88 -21 -176h-807q14 -115 93 -175t200 -60q96 0 158.5 21.5t128.5 66.5l129 -142q-160 -166 -434 -165q-211 0 -371 131t-160 364q0 254 182.5 432t426.5 178z M621 860q-104 0 -193.5 -61.5t-128.5 -175.5h573q-8 117 -79.5 177t-171.5 60z" glyph-name="edotaccent" horiz-adv-x="1222" unicode="ė"/><glyph d="M903 -2q-307 -96 -317 -231q-6 -49 46 -64.5t105 10.5l54 -121q-51 -27 -131 -35t-158 7.5t-129 68t-43 134.5q18 158 313 235l-637 -2l152 1434h874l-26 -248h-607l-34 -344h460l-26 -242h-461l-37 -352h625z" glyph-name="Eogonek" horiz-adv-x="1101" unicode="Ę"/><glyph d="M623 1083q98 0 190 -36.5t170 -114.5t104.5 -202t-8.5 -296h-807q16 -115 93 -173t194 -58q66 0 122 13t85 27.5t82 45.5l139 -150q-100 -94 -260 -141q-84 -25 -128 -40t-96 -41t-74.5 -56.5t-22.5 -69.5q0 -59 52 -81.5t99 1.5l55 -119q-68 -37 -175 -40t-196 44.5 t-89 141.5q0 166 268 252q-184 37 -303 181t-97 372q14 129 77 235.5t151 171t185.5 99t189.5 34.5zM618 858q-98 0 -190 -62.5t-133 -172.5l575 10q-8 109 -82 167t-170 58z" glyph-name="eogonek" horiz-adv-x="1218" unicode="ę"/><glyph d="M575 1542l-231 313l92 80l211 -221l252 221l72 -80l-291 -313h-105zM301 248h625l-27 -248h-893l152 1434h874l-26 -248h-607l-34 -344h460l-26 -242h-461z" glyph-name="Ecaron" horiz-adv-x="1099" unicode="Ě"/><glyph d="M588 1174l-232 313l93 80l210 -221l252 221l72 -80l-291 -313h-104zM627 1085q82 0 163.5 -28.5t152.5 -82.5t115 -149.5t44 -214.5q0 -88 -21 -176h-807q14 -115 93 -175t200 -60q96 0 158.5 21.5t128.5 66.5l129 -142q-160 -166 -434 -165q-211 0 -371 131t-160 364 q0 254 182.5 432t426.5 178zM621 860q-104 0 -193.5 -61.5t-128.5 -175.5h573q-8 117 -79.5 177t-171.5 60z" glyph-name="ecaron" horiz-adv-x="1222" unicode="ě"/><glyph d="M1180 1864q-14 -137 -110.5 -231.5t-254.5 -94.5t-230.5 96.5t-58.5 229.5h164q-4 -66 32 -107t112 -41q78 0 124 41t58 107h164zM819 762h615q6 -354 -200 -568t-507 -214q-287 0 -483.5 186t-196.5 477q0 336 242.5 573.5t570.5 237.5q283 0 467 -174l-182 -178 q-121 100 -285 100q-217 0 -376.5 -156.5t-161.5 -398.5q0 -180 122.5 -298t307.5 -118q150 0 262 77t149 233h-366z" glyph-name="Gbreve" horiz-adv-x="1560" unicode="Ğ"/><glyph d="M1030 1495q-14 -137 -110.5 -231.5t-254 -94.5t-230.5 96.5t-58 229.5h164q-4 -66 31.5 -106.5t111.5 -40.5q78 0 124 41t58 106h164zM924 1065h262l-113 -1065q-12 -117 -70.5 -203t-144.5 -132t-174 -66.5t-178 -20.5q-186 0 -295 66l14 213q94 -59 283 -60 q135 0 213 59.5t90 143.5l18 150q-14 -53 -107 -111.5t-220 -58.5q-121 0 -227.5 51t-181.5 166.5t-75 273.5q0 254 170 434t410 180q92 0 166 -34.5t106.5 -70.5t34.5 -58zM608 852q-139 0 -233 -102.5t-94 -255.5q0 -135 78.5 -208t197.5 -73q123 0 223.5 92t100.5 270 q0 133 -80 205t-193 72z" glyph-name="gbreve" unicode="ğ"/><glyph d="M979 1804l-25 -229h-243l24 229h244zM819 762h615q6 -354 -200 -568t-507 -214q-287 0 -483.5 186t-196.5 477q0 336 242.5 573.5t570.5 237.5q283 0 467 -174l-182 -178q-121 100 -285 100q-217 0 -376.5 -156.5t-161.5 -398.5q0 -180 122.5 -298t307.5 -118 q150 0 262 77t149 233h-366z" glyph-name="Gdotaccent" horiz-adv-x="1560" unicode="Ġ"/><glyph d="M829 1436l-24 -230h-244l25 230h243zM924 1065h262l-113 -1065q-12 -117 -70.5 -203t-144.5 -132t-174 -66.5t-178 -20.5q-186 0 -295 66l14 213q94 -59 283 -60q135 0 213 59.5t90 143.5l18 150q-14 -53 -107 -111.5t-220 -58.5q-121 0 -227.5 51t-181.5 166.5 t-75 273.5q0 254 170 434t410 180q92 0 166 -34.5t106.5 -70.5t34.5 -58zM608 852q-139 0 -233 -102.5t-94 -255.5q0 -135 78.5 -208t197.5 -73q123 0 223.5 92t100.5 270q0 133 -80 205t-193 72z" glyph-name="gdotaccent" unicode="ġ"/><glyph d="M819 762h615q6 -354 -200 -568t-507 -214q-287 0 -483.5 186t-196.5 477q0 336 242.5 573.5t570.5 237.5q283 0 467 -174l-182 -178q-121 100 -285 100q-217 0 -376.5 -156.5t-161.5 -398.5q0 -180 122.5 -298t307.5 -118q150 0 262 77t149 233h-366zM358 -524l158 467 h350l-268 -467h-240z" glyph-name="Gcommaaccent" horiz-adv-x="1560" unicode="Ģ"/><glyph d="M1001 1589l-157 -467h-350l268 467h239zM924 1065h262l-113 -1065q-12 -117 -70.5 -203t-144.5 -132t-174 -66.5t-178 -20.5q-186 0 -295 66l14 213q94 -59 283 -60q135 0 213 59.5t90 143.5l18 150q-14 -53 -107 -111.5t-220 -58.5q-121 0 -227.5 51t-181.5 166.5 t-75 273.5q0 254 170 434t410 180q92 0 166 -34.5t106.5 -70.5t34.5 -58zM608 852q-139 0 -233 -102.5t-94 -255.5q0 -135 78.5 -208t197.5 -73q123 0 223.5 92t100.5 270q0 133 -80 205t-193 72z" glyph-name="gcommaaccent" unicode="ģ"/><glyph d="M1040 1434h269l-152 -1434h-268l59 590h-612l-62 -590h-268l152 1434h268l-20 -189h612zM362 838h615l18 159h-614z" glyph-name="Hbar" horiz-adv-x="1388" unicode="Ħ"/><glyph d="M750 1085q170 0 276.5 -118.5t79.5 -356.5l-66 -610h-262l64 602q16 133 -37 192.5t-146 59.5q-115 0 -198.5 -79t-104.5 -152l-69 -623h-264l120 1143h-131l15 143h133l16 162h264l-18 -162h262l-14 -143h-262l-31 -281q27 68 129.5 145.5t243.5 77.5z" glyph-name="hbar" horiz-adv-x="1251" unicode="ħ"/><glyph d="M170 1892q84 0 195.5 -70.5t156.5 -70.5q37 0 71 17.5t36 37.5l102 -8q-10 -111 -77.5 -183.5t-174.5 -72.5q-82 0 -196.5 81t-163.5 81q-37 0 -71 -22.5t-36 -51.5l-98 10q10 111 77.5 181.5t178.5 70.5zM426 1434l-152 -1434h-268l152 1434h268z" glyph-name="Itilde" horiz-adv-x="505" unicode="Ĩ"/><glyph d="M113 1524q84 0 195.5 -71t156.5 -71q37 0 70.5 17.5t35.5 38.5l103 -8q-10 -111 -78 -183.5t-174 -72.5q-82 0 -196.5 80.5t-164.5 80.5q-37 0 -70.5 -22.5t-35.5 -50.5l-98 10q10 111 77.5 181.5t178.5 70.5zM369 1065l-113 -1065h-264l112 1065h265z" glyph-name="itilde" horiz-adv-x="466" unicode="ĩ"/><glyph d="M717 1802l-25 -217h-770l25 217h770zM426 1434l-152 -1434h-268l152 1434h268z" glyph-name="Imacron" horiz-adv-x="505" unicode="Ī"/><glyph d="M659 1434l-24 -217h-770l24 217h770zM369 1065l-113 -1065h-264l112 1065h265z" glyph-name="imacron" horiz-adv-x="466" unicode="ī"/><glyph d="M293 -2q-322 -94 -332 -231q-6 -49 46 -64.5t106 10.5l53 -121q-51 -27 -131 -35t-158 7.5t-129 68t-43 134.5q18 158 309 235l156 1432h268z" glyph-name="Iogonek" horiz-adv-x="522" unicode="Į"/><glyph d="M143 1434h273l-23 -222h-274zM-8 2l117 1063h264l-109 -1067q-317 -94 -332 -231q-6 -49 47.5 -64.5t104.5 10.5l55 -121q-51 -27 -132 -35t-157.5 7.5t-128 68t-43.5 134.5q19 157 314 235z" glyph-name="iogonek" horiz-adv-x="475" unicode="į"/><glyph d="M453 1804l-25 -229h-244l25 229h244zM426 1434l-152 -1434h-268l152 1434h268z" glyph-name="Idotaccent" horiz-adv-x="505" unicode="İ"/><glyph d="M369 1065l-113 -1065h-264l112 1065h265z" glyph-name="dotlessi" horiz-adv-x="466" unicode="ı"/><glyph d="M426 1434l-152 -1434h-268l152 1434h268zM1530 1434l-100 -957q-10 -109 -50.5 -195.5t-95.5 -143t-123.5 -94.5t-134 -53.5t-131.5 -15.5q-281 0 -418 203l178 184q92 -129 234 -129q98 0 179 64.5t99 224.5l95 912h268z" glyph-name="IJ" horiz-adv-x="1609" unicode="Ĳ"/><glyph d="M410 1448l-25 -225h-262l22 225h265zM936 1448l-25 -225h-262l23 225h264zM369 1065l-113 -1065h-264l112 1065h265zM895 1065l-125 -1176q-33 -311 -330 -311q-135 0 -219 55l15 252q72 -39 149 -39q115 0 133 134l113 1085h264z" glyph-name="ij" horiz-adv-x="993" unicode="ĳ"/><glyph d="M932 0l-404 627l-206 -209l-48 -418h-268l152 1434h268l-72 -658l639 658h336l-618 -621l526 -813h-305zM307 -524l158 467h350l-268 -467h-240z" glyph-name="Kcommaaccent" horiz-adv-x="1404" unicode="Ķ"/><glyph d="M745 0l-337 438l-113 -102l-39 -336h-264l153 1448h265l-88 -793l423 410h322l-485 -455l462 -610h-299zM160 -524l157 467h351l-269 -467h-239z" glyph-name="kcommaaccent" horiz-adv-x="1181" unicode="ķ"/><glyph d="M682 1884l-287 -325h-198l163 325h322zM301 248h582l-27 -248h-850l152 1434h268z" glyph-name="Lacute" horiz-adv-x="1036" unicode="Ĺ"/><glyph d="M672 1817l-283 -265h-205l168 265h320zM410 1448l-154 -1448h-264l153 1448h265z" glyph-name="lacute" horiz-adv-x="477" unicode="ĺ"/><glyph d="M301 248h582l-27 -248h-850l152 1434h268zM92 -524l158 467h350l-268 -467h-240z" glyph-name="Lcommaaccent" horiz-adv-x="1036" unicode="Ļ"/><glyph d="M414 1448l-154 -1448h-264l154 1448h264zM-203 -524l156 467h352l-268 -467h-240z" glyph-name="lcommaaccent" horiz-adv-x="520" unicode="ļ"/><glyph d="M301 248h582l-27 -248h-850l152 1434h268zM981 1432l-254 -527h-229l247 527h236z" glyph-name="Lcaron" horiz-adv-x="1036" unicode="Ľ"/><glyph d="M410 1448l-154 -1448h-264l153 1448h265zM467 907l242 527h231l-242 -527h-231z" glyph-name="lcaron" horiz-adv-x="937" unicode="ľ"/><glyph d="M301 248h582l-27 -248h-850l152 1434h268zM766 596q-68 0 -110 46t-33 116q6 59 50 99t105 40q70 0 111 -47t33 -117q-6 -59 -50.5 -98t-105.5 -39z" glyph-name="Ldot" horiz-adv-x="1036" unicode="Ŀ"/><glyph d="M410 1448l-154 -1448h-264l153 1448h265zM612 592q-70 0 -110.5 46t-32.5 116q6 59 50 99t106 40q68 0 109.5 -47t33.5 -117q-6 -59 -50.5 -98t-105.5 -39z" glyph-name="ldot" horiz-adv-x="858" unicode="ŀ"/><glyph d="M420 248h581l-26 -248h-850l47 418l-139 -131l22 272l140 131l81 744h269l-51 -461l206 196h5l-25 -270l-211 -199z" glyph-name="Lslash" horiz-adv-x="1155" unicode="Ł"/><glyph d="M604 1149l-24 -272l-148 -142l-82 -735h-264l51 457l-151 -144l22 275l154 143l78 717h264l-49 -438l145 139h4z" glyph-name="lslash" horiz-adv-x="657" unicode="ł"/><glyph d="M1165 1884l-286 -325h-199l164 325h321zM1110 1434h268l-151 -1434h-203l-645 946l-105 -946h-268l152 1434h204l646 -949z" glyph-name="Nacute" horiz-adv-x="1458" unicode="Ń"/><glyph d="M997 1516l-286 -326h-199l164 326h321zM719 1085q170 0 276.5 -118.5t79.5 -356.5l-65 -610h-262l63 602q16 133 -37 192.5t-145 59.5q-115 0 -199 -79t-104 -152l-70 -623h-264l112 1065h265l-23 -203q27 68 129.5 145.5t243.5 77.5z" glyph-name="nacute" horiz-adv-x="1222" unicode="ń"/><glyph d="M1110 1434h268l-151 -1434h-203l-645 946l-105 -946h-268l152 1434h204l646 -949zM287 -524l157 467h351l-269 -467h-239z" glyph-name="Ncommaaccent" horiz-adv-x="1458" unicode="Ņ"/><glyph d="M719 1085q170 0 276.5 -118.5t79.5 -356.5l-65 -610h-262l63 602q16 133 -37 192.5t-145 59.5q-115 0 -199 -79t-104 -152l-70 -623h-264l112 1065h265l-23 -203q27 68 129.5 145.5t243.5 77.5zM158 -524l157 467h351l-269 -467h-239z" glyph-name="ncommaaccent" horiz-adv-x="1222" unicode="ņ"/><glyph d="M731 1542l-231 313l92 80l211 -221l252 221l71 -80l-290 -313h-105zM1110 1434h268l-151 -1434h-203l-645 946l-105 -946h-268l152 1434h204l646 -949z" glyph-name="Ncaron" horiz-adv-x="1458" unicode="Ň"/><glyph d="M563 1174l-231 313l92 80l211 -221l252 221l71 -80l-290 -313h-105zM719 1085q170 0 276.5 -118.5t79.5 -356.5l-65 -610h-262l63 602q16 133 -37 192.5t-145 59.5q-115 0 -199 -79t-104 -152l-70 -623h-264l112 1065h265l-23 -203q27 68 129.5 145.5t243.5 77.5z" glyph-name="ncaron" horiz-adv-x="1222" unicode="ň"/><glyph d="M1106 1434h272l-137 -1323l-6 -39q-10 -109 -50 -196t-95.5 -143.5t-124 -94t-134 -53t-131.5 -15.5q-279 0 -415 203l176 184q96 -129 233 -129q57 0 107.5 18.5t101.5 80t68 161.5l-592 858l-105 -946h-268l152 1434h204l646 -947z" glyph-name="Eng" horiz-adv-x="1458" unicode="Ŋ"/><glyph d="M711 1081q172 0 280.5 -118.5t83.5 -352.5l-65 -610l-11 -111q-16 -158 -103 -234.5t-228 -76.5q-131 0 -219 55l14 252q72 -39 149 -39q119 0 133 134l7 61l59 561q27 250 -166 250q-113 0 -203 -82t-118 -166l-68 -604h-264l112 1065h265l-23 -203q27 66 128.5 142.5 t236.5 76.5z" glyph-name="eng" horiz-adv-x="1222" unicode="ŋ"/><glyph d="M1286 1802l-24 -217h-770l24 217h770zM858 1454q285 0 480.5 -187.5t195.5 -478.5q0 -336 -241.5 -572t-571.5 -236q-285 0 -479.5 186t-194.5 477q0 336 240.5 573.5t570.5 237.5zM737 231q201 0 359.5 152t158.5 385q0 190 -118.5 312t-294.5 122q-203 0 -359.5 -152.5 t-156.5 -387.5q0 -186 117.5 -308.5t293.5 -122.5z" glyph-name="Omacron" horiz-adv-x="1654" unicode="Ō"/><glyph d="M1057 1434l-25 -217h-770l25 217h770zM627 1085q123 0 235.5 -53t193.5 -173t81 -279q0 -254 -179.5 -427t-429.5 -173q-195 0 -352.5 134t-157.5 369q0 256 179.5 429t429.5 173zM545 213q133 0 234.5 97.5t101.5 262.5q0 131 -82 205t-189 74q-133 0 -234.5 -97.5 t-101.5 -265.5q0 -131 82.5 -203.5t188.5 -72.5z" glyph-name="omacron" horiz-adv-x="1257" unicode="ō"/><glyph d="M1053 1884l-287 -325h-199l164 325h322zM1407 1884l-287 -325h-198l163 325h322zM858 1454q285 0 480.5 -187.5t195.5 -478.5q0 -336 -241.5 -572t-571.5 -236q-285 0 -479.5 186t-194.5 477q0 336 240.5 573.5t570.5 237.5zM737 231q201 0 359.5 152t158.5 385 q0 190 -118.5 312t-294.5 122q-203 0 -359.5 -152.5t-156.5 -387.5q0 -186 117.5 -308.5t293.5 -122.5z" glyph-name="Ohungarumlaut" horiz-adv-x="1654" unicode="Ő"/><glyph d="M823 1516l-286 -326h-199l164 326h321zM1178 1516l-287 -326h-199l164 326h322zM627 1085q123 0 235.5 -53t193.5 -173t81 -279q0 -254 -179.5 -427t-429.5 -173q-195 0 -352.5 134t-157.5 369q0 256 179.5 429t429.5 173zM545 213q133 0 234.5 97.5t101.5 262.5 q0 131 -82 205t-189 74q-133 0 -234.5 -97.5t-101.5 -265.5q0 -131 82.5 -203.5t188.5 -72.5z" glyph-name="ohungarumlaut" horiz-adv-x="1257" unicode="ő"/><glyph d="M1481 248h624l-26 -248h-893l18 125q-213 -145 -483 -145q-305 0 -505 213t-165 536q33 313 270.5 519t536.5 206q260 0 459 -154l20 134h875l-27 -248h-606l-35 -344h461l-27 -242h-460zM729 231q184 0 344 143.5t182 354.5q18 201 -104.5 337t-300.5 136 q-195 0 -347.5 -141t-174.5 -356q-23 -203 95 -338.5t306 -135.5z" glyph-name="OE" horiz-adv-x="2279" unicode="Œ"/><glyph d="M1958 610q0 -88 -21 -176h-807q14 -115 93.5 -175t199.5 -60q96 0 159 21.5t128 66.5l129 -142q-160 -166 -434 -165q-125 0 -239.5 49t-188.5 143q-180 -193 -449 -192q-195 0 -352.5 134t-157.5 369q0 256 179.5 429t429.5 173q115 0 226.5 -51t184.5 -147 q182 199 445 198q82 0 164 -28.5t152.5 -82.5t114.5 -149.5t44 -214.5zM1155 623h574q-8 117 -80 177t-172 60q-104 0 -193.5 -61t-128.5 -176zM545 213q117 0 212 78t117 213l7 55v14q0 131 -82 205t-189 74q-133 0 -234.5 -97.5t-101.5 -265.5q0 -131 82.5 -203.5 t188.5 -72.5z" glyph-name="oe" horiz-adv-x="2078" unicode="œ"/><glyph d="M1030 1884l-287 -325h-198l164 325h321zM1114 0h-280l-267 487h-241l-52 -487h-268l152 1434h487q240 0 371 -136.5t106 -357.5q-14 -141 -93 -247.5t-210 -162.5zM350 719h205q127 0 209 60.5t94 185.5q12 113 -52.5 167t-191.5 54h-215z" glyph-name="Racute" horiz-adv-x="1300" unicode="Ŕ"/><glyph d="M831 1516l-286 -326h-199l164 326h321zM735 1083q47 0 82 -8l-26 -248q-25 4 -62 4q-154 0 -272.5 -101t-149.5 -261l-51 -469h-264l112 1065h265l-31 -260q51 125 155.5 201.5t241.5 76.5z" glyph-name="racute" horiz-adv-x="851" unicode="ŕ"/><glyph d="M1114 0h-280l-267 487h-241l-52 -487h-268l152 1434h487q240 0 371 -136.5t106 -357.5q-14 -141 -93 -247.5t-210 -162.5zM350 719h205q127 0 209 60.5t94 185.5q12 113 -52.5 167t-191.5 54h-215zM193 -524l157 467h350l-268 -467h-239z" glyph-name="Rcommaaccent" horiz-adv-x="1300" unicode="Ŗ"/><glyph d="M735 1083q47 0 82 -8l-26 -248q-25 4 -62 4q-154 0 -272.5 -101t-149.5 -261l-51 -469h-264l112 1065h265l-31 -260q51 125 155.5 201.5t241.5 76.5zM-209 -524l156 467h352l-268 -467h-240z" glyph-name="rcommaaccent" horiz-adv-x="851" unicode="ŗ"/><glyph d="M596 1542l-231 313l92 80l211 -221l252 221l71 -80l-291 -313h-104zM1114 0h-280l-267 487h-241l-52 -487h-268l152 1434h487q240 0 371 -136.5t106 -357.5q-14 -141 -93 -247.5t-210 -162.5zM350 719h205q127 0 209 60.5t94 185.5q12 113 -52.5 167t-191.5 54h-215z" glyph-name="Rcaron" horiz-adv-x="1300" unicode="Ř"/><glyph d="M397 1174l-231 313l92 80l211 -221l252 221l72 -80l-291 -313h-105zM735 1083q47 0 82 -8l-26 -248q-25 4 -62 4q-154 0 -272.5 -101t-149.5 -261l-51 -469h-264l112 1065h265l-31 -260q51 125 155.5 201.5t241.5 76.5z" glyph-name="rcaron" horiz-adv-x="851" unicode="ř"/><glyph d="M1014 1884l-287 -325h-199l164 325h322zM612 1458q170 0 286 -89t169 -214l-209 -106q-96 172 -266 172q-90 0 -152.5 -47.5t-62.5 -126.5q0 -63 37 -102.5t121 -72.5l94 -34q205 -76 301 -174.5t96 -233.5q0 -211 -166 -336t-379 -125q-188 0 -322 101.5t-171 257.5 l215 98q70 -213 284 -213q113 0 188 55.5t75 157.5q0 66 -47.5 107.5t-159.5 84.5l-88 35q-164 61 -252 148.5t-88 236.5q0 188 149 304t348 116z" glyph-name="Sacute" horiz-adv-x="1153" unicode="Ś"/><glyph d="M844 1516l-287 -326h-199l164 326h322zM590 766q-41 109 -146 108q-59 0 -95 -32.5t-36 -77.5q0 -66 86 -100l119 -43q68 -27 107 -45.5t85 -52.5t66.5 -81t20.5 -110q0 -166 -130 -259t-307 -93q-154 0 -266 80.5t-131 215.5l213 56q35 -143 189 -144q74 0 122 36t48 91 q0 72 -91 103l-118 45q-268 96 -269 301q0 139 112 230t273 91q147 0 240.5 -72.5t126.5 -197.5z" glyph-name="sacute" horiz-adv-x="933" unicode="ś"/><glyph d="M629 838q205 -76 301 -174.5t96 -233.5q0 -186 -132 -307t-321 -148l-81 -63q74 -14 125 -56t51 -116q0 -119 -136.5 -167t-302.5 -5l27 63q96 -18 157.5 13.5t61.5 91.5q0 53 -45 76.5t-98 -9.5l-80 78l92 105q-137 33 -232.5 124t-123.5 218l215 98q70 -213 284 -213 q113 0 188 55.5t75 157.5q0 66 -47.5 107.5t-159.5 84.5l-88 35q-164 61 -252 148.5t-88 236.5q0 188 149.5 304t347.5 116q170 0 286 -89t169 -214l-209 -106q-96 172 -266 172q-90 0 -152.5 -47.5t-62.5 -126.5q0 -63 37 -102.5t121 -72.5z" glyph-name="Scedilla" horiz-adv-x="1153" unicode="Ş"/><glyph d="M518 621q68 -27 107 -45.5t85 -52.5t66.5 -81t20.5 -110q0 -131 -85 -218t-216 -118l-107 -84q74 -14 125 -56t51 -116q0 -119 -136 -167t-302 -5l27 63q96 -18 157.5 13.5t61.5 91.5q0 53 -45 76.5t-99 -9.5l-79 78l98 111q-115 25 -193 99.5t-92 184.5l213 56 q35 -143 189 -144q74 0 122 36t48 91q0 72 -91 103l-118 45q-268 96 -269 301q0 139 112 230t273 91q147 0 240.5 -72.5t126.5 -197.5l-219 -49q-41 109 -146 108q-59 0 -95 -32.5t-36 -77.5q0 -66 86 -100z" glyph-name="scedilla" horiz-adv-x="933" unicode="ş"/><glyph d="M580 1542l-232 313l92 80l211 -221l252 221l72 -80l-291 -313h-104zM612 1458q170 0 286 -89t169 -214l-209 -106q-96 172 -266 172q-90 0 -152.5 -47.5t-62.5 -126.5q0 -63 37 -102.5t121 -72.5l94 -34q205 -76 301 -174.5t96 -233.5q0 -211 -166 -336t-379 -125 q-188 0 -322 101.5t-171 257.5l215 98q70 -213 284 -213q113 0 188 55.5t75 157.5q0 66 -47.5 107.5t-159.5 84.5l-88 35q-164 61 -252 148.5t-88 236.5q0 188 149 304t348 116z" glyph-name="Scaron" horiz-adv-x="1153" unicode="Š"/><glyph d="M410 1174l-232 313l92 80l211 -221l252 221l72 -80l-291 -313h-104zM590 766q-41 109 -146 108q-59 0 -95 -32.5t-36 -77.5q0 -66 86 -100l119 -43q68 -27 107 -45.5t85 -52.5t66.5 -81t20.5 -110q0 -166 -130 -259t-307 -93q-154 0 -266 80.5t-131 215.5l213 56 q35 -143 189 -144q74 0 122 36t48 91q0 72 -91 103l-118 45q-268 96 -269 301q0 139 112 230t273 91q147 0 240.5 -72.5t126.5 -197.5z" glyph-name="scaron" horiz-adv-x="933" unicode="š"/><glyph d="M127 1434h989l-26 -248h-361l-125 -1186h10l-112 -88q74 -14 125 -56t51 -116q0 -119 -136 -167t-302 -5l26 63q96 -18 157.5 13.5t61.5 91.5q0 53 -45 76.5t-98 -9.5l-80 78l107 119h-33l125 1186h-361z" glyph-name="Tcommaaccent" horiz-adv-x="1155" unicode="Ţ"/><glyph d="M442 848l-55 -522q-8 -106 72 -107q59 0 151 21l-20 -215q-29 -16 -82 -27l-111 -86q74 -14 125 -56t51 -116q0 -119 -136 -167t-302 -5l27 63q96 -18 157.5 13.5t61.5 91.5q0 53 -45 76.5t-98 -9.5l-80 78l106 119h17q-184 53 -156 330l53 518h-149l22 217h148l26 250 h264l-26 -250h225l-20 -217h-226z" glyph-name="tcommaaccent" horiz-adv-x="757" unicode="ţ"/><glyph d="M584 1542l-232 313l92 80l211 -221l252 221l72 -80l-291 -313h-104zM1116 1434l-26 -248h-361l-125 -1186h-268l125 1186h-361l27 248h989z" glyph-name="Tcaron" horiz-adv-x="1155" unicode="Ť"/><glyph d="M668 1434l444 92l-340 -357l-295 -92zM668 848h-226l-55 -522q-8 -106 72 -107q59 0 151 21l-20 -215q-74 -37 -209 -37q-293 0 -256 342l53 518h-149l22 217h148l26 250h264l-26 -250h225z" glyph-name="tcaron" horiz-adv-x="1056" unicode="ť"/><glyph d="M1090 1186h-361l-16 -150h252l-29 -245h-248l-84 -791h-268l84 791h-254l29 245h249l17 150h-361l27 248h989z" glyph-name="Tbar" horiz-adv-x="1155" unicode="Ŧ"/><glyph d="M668 848h-226l-16 -152h219l-24 -217h-220l-16 -162q-12 -98 68 -98q70 0 145 27l-12 -223q-76 -35 -207 -35q-135 0 -206 72.5t-52 261.5l16 157h-147l22 217h150l16 152h-149l22 217h148l26 250h264l-26 -250h225z" glyph-name="tbar" horiz-adv-x="757" unicode="ŧ"/><glyph d="M573 1892q84 0 196 -70.5t157 -70.5q37 0 70.5 17.5t35.5 37.5l103 -8q-10 -111 -78 -183.5t-174 -72.5q-82 0 -197 81t-164 81q-37 0 -70.5 -22.5t-35.5 -51.5l-99 10q10 111 77.5 181.5t178.5 70.5zM975 1434h268l-96 -918q-27 -254 -196 -400.5t-398 -146.5 q-236 0 -380 150.5t-118 404.5l97 910h268l-96 -920q-18 -154 52 -223.5t185 -69.5q119 0 210 74t108 229z" glyph-name="Utilde" horiz-adv-x="1323" unicode="Ũ"/><glyph d="M487 1524q84 0 196 -71t157 -71q37 0 70.5 17.5t35.5 38.5l103 -8q-10 -111 -78 -183.5t-174 -72.5q-82 0 -197 80.5t-164 80.5q-37 0 -70.5 -22.5t-35.5 -50.5l-99 10q10 111 77.5 181.5t178.5 70.5zM393 -20q-170 0 -277.5 119.5t-82.5 355.5l63 610h264l-63 -602 q-14 -133 41 -192.5t149 -59.5q115 0 193 80t102 170l68 604h264l-113 -1065h-264l27 207q-31 -74 -130.5 -150.5t-240.5 -76.5z" glyph-name="utilde" horiz-adv-x="1212" unicode="ũ"/><glyph d="M1120 1802l-24 -217h-770l24 217h770zM975 1434h268l-96 -918q-27 -254 -196 -400.5t-398 -146.5q-236 0 -380 150.5t-118 404.5l97 910h268l-96 -920q-18 -154 52 -223.5t185 -69.5q119 0 210 74t108 229z" glyph-name="Umacron" horiz-adv-x="1323" unicode="Ū"/><glyph d="M1034 1434l-24 -217h-770l24 217h770zM393 -20q-170 0 -277.5 119.5t-82.5 355.5l63 610h264l-63 -602q-14 -133 41 -192.5t149 -59.5q115 0 193 80t102 170l68 604h264l-113 -1065h-264l27 207q-31 -74 -130.5 -150.5t-240.5 -76.5z" glyph-name="umacron" horiz-adv-x="1212" unicode="ū"/><glyph d="M971 1495q-14 -137 -110.5 -231.5t-254 -94.5t-230.5 96.5t-59 229.5h164q-4 -66 32 -106.5t112 -40.5q78 0 124 41t58 106h164zM393 -20q-170 0 -277.5 119.5t-82.5 355.5l63 610h264l-63 -602q-14 -133 41 -192.5t149 -59.5q115 0 193 80t102 170l68 604h264 l-113 -1065h-264l27 207q-31 -74 -130.5 -150.5t-240.5 -76.5z" glyph-name="ubreve" horiz-adv-x="1212" unicode="ŭ"/><glyph d="M745 2009q88 0 148.5 -60.5t60.5 -146.5q0 -94 -71.5 -164.5t-165.5 -70.5q-88 0 -149.5 60.5t-61.5 146.5q0 94 71.5 164.5t167.5 70.5zM735 1847q-27 0 -43 -18.5t-16 -46.5q0 -18 14.5 -33.5t34.5 -15.5q27 0 45 19.5t18 47.5q0 18 -16.5 32.5t-36.5 14.5zM975 1434 h268l-96 -918q-27 -254 -196 -400.5t-398 -146.5q-236 0 -380 150.5t-118 404.5l97 910h268l-96 -920q-18 -154 52 -223.5t185 -69.5q119 0 210 74t108 229z" glyph-name="Uring" horiz-adv-x="1323" unicode="Ů"/><glyph d="M659 1640q88 0 148.5 -60t60.5 -146q0 -94 -71.5 -165t-165.5 -71q-88 0 -149.5 60.5t-61.5 146.5q0 94 71.5 164.5t167.5 70.5zM649 1479q-27 0 -43 -18.5t-16 -47.5q0 -18 14 -33.5t35 -15.5q27 0 45 19.5t18 48.5q0 18 -16.5 32.5t-36.5 14.5zM393 -20 q-170 0 -277.5 119.5t-82.5 355.5l63 610h264l-63 -602q-14 -133 41 -192.5t149 -59.5q115 0 193 80t102 170l68 604h264l-113 -1065h-264l27 207q-31 -74 -130.5 -150.5t-240.5 -76.5z" glyph-name="uring" horiz-adv-x="1212" unicode="ů"/><glyph d="M887 1884l-287 -325h-199l164 325h322zM1241 1884l-287 -325h-198l164 325h321zM975 1434h268l-96 -918q-27 -254 -196 -400.5t-398 -146.5q-236 0 -380 150.5t-118 404.5l97 910h268l-96 -920q-18 -154 52 -223.5t185 -69.5q119 0 210 74t108 229z" glyph-name="Uhungarumlaut" horiz-adv-x="1323" unicode="Ű"/><glyph d="M801 1516l-287 -326h-199l164 326h322zM1155 1516l-287 -326h-198l164 326h321zM393 -20q-170 0 -277.5 119.5t-82.5 355.5l63 610h264l-63 -602q-14 -133 41 -192.5t149 -59.5q115 0 193 80t102 170l68 604h264l-113 -1065h-264l27 207q-31 -74 -130.5 -150.5 t-240.5 -76.5z" glyph-name="uhungarumlaut" horiz-adv-x="1212" unicode="ű"/><glyph d="M975 1434h268l-96 -918q-23 -203 -135.5 -338t-280.5 -188q-215 -78 -229 -195q-6 -51 47 -66.5t104 11.5l56 -121q-51 -27 -132 -34t-158 7.5t-128 66.5t-43 134q8 111 176 187q-180 37 -286.5 182t-82.5 362l97 910h268l-96 -920q-18 -154 52 -223.5t185 -69.5 q119 0 210 74t108 229z" glyph-name="Uogonek" horiz-adv-x="1323" unicode="Ų"/><glyph d="M729 -211q0 -57 51 -77.5t99 3.5l55 -123q-59 -27 -138 -30.5t-151 13.5t-122 66.5t-50 120.5q0 90 76 157t184 81l31 203q-33 -68 -132.5 -143.5t-234.5 -75.5q-172 0 -280.5 118.5t-83.5 352.5l63 610h264l-63 -602q-14 -133 29 -190.5t135 -57.5q115 0 204 81t117 165 l68 604h264l-108 -1067q-277 -80 -277 -209z" glyph-name="uogonek" horiz-adv-x="1214" unicode="ų"/><glyph d="M1192 1935l231 -313l-92 -80l-211 221l-252 -221l-71 80l290 313h105zM2097 1434l-620 -1434h-191l-250 963l-444 -963h-191l-317 1434h276l197 -914l424 914h207l233 -914l389 914h287z" glyph-name="Wcircumflex" horiz-adv-x="2095" unicode="Ŵ"/><glyph d="M1053 1567l231 -314l-92 -79l-211 221l-252 -221l-72 79l291 314h105zM1595 1067h269l-498 -1067h-250l-190 760l-351 -760h-247l-273 1067h258l172 -745l353 745h231l199 -745z" glyph-name="wcircumflex" horiz-adv-x="1910" unicode="ŵ"/><glyph d="M883 1935l231 -313l-92 -80l-211 221l-252 -221l-72 80l291 313h105zM1458 1434l-629 -811l-69 -623h-268l69 623l-457 811h299l312 -568l432 568h311z" glyph-name="Ycircumflex" horiz-adv-x="1476" unicode="Ŷ"/><glyph d="M668 1395l-252 -221l-72 79l291 314h104l232 -314l-92 -79zM969 1067h266l-803 -1456h-268l242 426l-351 1030h258l250 -745z" glyph-name="ycircumflex" horiz-adv-x="1282" unicode="ŷ"/><glyph d="M696 1804l-24 -229h-244l25 229h243zM1184 1804l-25 -229h-244l23 229h246zM1458 1434l-629 -811l-69 -623h-268l69 623l-457 811h299l312 -568l432 568h311z" glyph-name="Ydieresis" horiz-adv-x="1476" unicode="Ÿ"/><glyph d="M1036 1884l-286 -325h-199l164 325h321zM1241 1434l-829 -1203h706l-24 -231h-1139l827 1204h-657l25 230h1091z" glyph-name="Zacute" horiz-adv-x="1271" unicode="Ź"/><glyph d="M967 1516l-287 -326h-199l164 326h322zM1053 1065l-664 -834h543l-25 -231h-970l661 836h-520l24 229h951z" glyph-name="zacute" horiz-adv-x="1099" unicode="ź"/><glyph d="M801 1804l-25 -229h-244l25 229h244zM1241 1434l-829 -1203h706l-24 -231h-1139l827 1204h-657l25 230h1091z" glyph-name="Zdotaccent" horiz-adv-x="1271" unicode="Ż"/><glyph d="M731 1436l-24 -230h-244l24 230h244zM1053 1065l-664 -834h543l-25 -231h-970l661 836h-520l24 229h951z" glyph-name="zdotaccent" horiz-adv-x="1099" unicode="ż"/><glyph d="M602 1542l-231 313l92 80l211 -221l252 221l71 -80l-290 -313h-105zM1241 1434l-829 -1203h706l-24 -231h-1139l827 1204h-657l25 230h1091z" glyph-name="Zcaron" horiz-adv-x="1271" unicode="Ž"/><glyph d="M532 1174l-231 313l92 80l211 -221l252 221l72 -80l-291 -313h-105zM1053 1065l-664 -834h543l-25 -231h-970l661 836h-520l24 229h951z" glyph-name="zcaron" horiz-adv-x="1099" unicode="ž"/><glyph d="M625 1253q-94 0 -125 -47t-41 -155l2 14h139l-25 -225h-139l-92 -889q-20 -193 -117.5 -266.5t-322.5 -73.5l14 231q94 0 123 36t41 138l86 824h-145l24 225h146l6 51q18 197 118.5 283t321.5 86z" glyph-name="florin" horiz-adv-x="651" unicode="ƒ"/><glyph d="M786 1542l-231 313l92 80l211 -221l252 221l72 -80l-291 -313h-105zM1137 0l-88 276h-689l-145 -276h-291l778 1434h240l475 -1434h-280zM479 496h496l-184 606z" glyph-name="uni01CD" horiz-adv-x="1564" unicode="Ǎ"/><glyph d="M608 1174l-231 313l92 80l211 -221l252 221l72 -80l-291 -313h-105zM598 1083q92 0 166 -34.5t106.5 -69.5t34.5 -57l19 143h262l-113 -1065h-262l18 150q-14 -53 -107 -111.5t-220 -58.5q-121 0 -227.5 51t-181.5 166.5t-75 273.5q0 254 171 433t409 179zM608 850 q-139 0 -233 -101.5t-94 -254.5q0 -135 78.5 -208t197.5 -73q123 0 223.5 92t100.5 270q0 131 -80 203t-193 72z" glyph-name="uni01CE" unicode="ǎ"/><glyph d="M254 1542l-231 313l92 80l211 -221l252 221l71 -80l-291 -313h-104zM426 1434l-152 -1434h-268l152 1434h268z" glyph-name="uni01CF" horiz-adv-x="505" unicode="Ǐ"/><glyph d="M197 1174l-232 313l92 80l211 -221l252 221l72 -80l-291 -313h-104zM369 1065l-113 -1065h-264l112 1065h265z" glyph-name="uni01D0" horiz-adv-x="466" unicode="ǐ"/><glyph d="M823 1542l-231 313l92 80l211 -221l252 221l72 -80l-291 -313h-105zM858 1454q285 0 480.5 -187.5t195.5 -478.5q0 -336 -241.5 -572t-571.5 -236q-285 0 -479.5 186t-194.5 477q0 336 240.5 573.5t570.5 237.5zM737 231q201 0 359.5 152t158.5 385q0 190 -118.5 312 t-294.5 122q-203 0 -359.5 -152.5t-156.5 -387.5q0 -186 117.5 -308.5t293.5 -122.5z" glyph-name="uni01D1" horiz-adv-x="1654" unicode="Ǒ"/><glyph d="M594 1174l-232 313l93 80l211 -221l252 221l71 -80l-291 -313h-104zM627 1085q123 0 235.5 -53t193.5 -173t81 -279q0 -254 -179.5 -427t-429.5 -173q-195 0 -352.5 134t-157.5 369q0 256 179.5 429t429.5 173zM545 213q133 0 234.5 97.5t101.5 262.5q0 131 -82 205 t-189 74q-133 0 -234.5 -97.5t-101.5 -265.5q0 -131 82.5 -203.5t188.5 -72.5z" glyph-name="uni01D2" horiz-adv-x="1257" unicode="ǒ"/><glyph d="M657 1542l-231 313l92 80l211 -221l252 221l72 -80l-291 -313h-105zM975 1434h268l-96 -918q-27 -254 -196 -400.5t-398 -146.5q-236 0 -380 150.5t-118 404.5l97 910h268l-96 -920q-18 -154 52 -223.5t185 -69.5q119 0 210 74t108 229z" glyph-name="uni01D3" horiz-adv-x="1323" unicode="Ǔ"/><glyph d="M571 1174l-231 313l92 80l211 -221l252 221l72 -80l-291 -313h-105zM393 -20q-170 0 -277.5 119.5t-82.5 355.5l63 610h264l-63 -602q-14 -133 41 -192.5t149 -59.5q115 0 193 80t102 170l68 604h264l-113 -1065h-264l27 207q-31 -74 -130.5 -150.5t-240.5 -76.5z" glyph-name="uni01D4" horiz-adv-x="1212" unicode="ǔ"/><glyph d="M897 -2q-307 -94 -322 -231q-6 -49 47.5 -64.5t104.5 10.5l55 -121q-51 -27 -132 -35t-157.5 7.5t-128 68t-42.5 134.5q14 145 274 223q-258 41 -417 245.5t-128 493.5q33 313 270.5 519t536.5 206q305 0 505 -213t167 -536q-29 -264 -207 -457t-426 -250zM328 705 q-23 -203 95 -338.5t306 -135.5q197 0 350.5 141.5t173.5 356.5q20 203 -98.5 338t-304.5 135q-195 0 -347 -141t-175 -356z" glyph-name="uni01EA" horiz-adv-x="1654" unicode="Ǫ"/><glyph d="M662 -4q-299 -92 -314 -229q-6 -49 47.5 -64.5t104.5 10.5l55 -121q-51 -27 -132 -35t-158 7.5t-128 68t-43 134.5q18 154 291 229q-168 45 -277.5 186.5t-87.5 360.5q14 129 77 235.5t151 171t185 99t190 34.5q96 0 189 -36.5t170 -103t119 -178.5t27 -247 q-20 -207 -156 -343t-310 -179zM274 518q-16 -143 64 -224t192 -81q121 0 225.5 88t121.5 242q14 143 -66 225t-193 82q-121 0 -224.5 -89t-119.5 -243z" glyph-name="uni01EB" horiz-adv-x="1255" unicode="ǫ"/><glyph d="M612 1458q170 0 286 -89t169 -214l-209 -106q-96 172 -266 172q-90 0 -152.5 -47.5t-62.5 -126.5q0 -63 37 -102.5t121 -72.5l94 -34q205 -76 301 -174.5t96 -233.5q0 -211 -166 -336t-379 -125q-188 0 -322 101.5t-171 257.5l215 98q70 -213 284 -213q113 0 188 55.5 t75 157.5q0 66 -47.5 107.5t-159.5 84.5l-88 35q-164 61 -252 148.5t-88 236.5q0 188 149 304t348 116zM131 -524l158 467h350l-268 -467h-240z" glyph-name="Scommaaccent" horiz-adv-x="1153" unicode="Ș"/><glyph d="M590 766q-41 109 -146 108q-59 0 -95 -32.5t-36 -77.5q0 -66 86 -100l119 -43q68 -27 107 -45.5t85 -52.5t66.5 -81t20.5 -110q0 -166 -130 -259t-307 -93q-154 0 -266 80.5t-131 215.5l213 56q35 -143 189 -144q74 0 122 36t48 91q0 72 -91 103l-118 45 q-268 96 -269 301q0 139 112 230t273 91q147 0 240.5 -72.5t126.5 -197.5zM29 -524l157 467h351l-269 -467h-239z" glyph-name="scommaaccent" horiz-adv-x="933" unicode="ș"/><glyph d="M1116 1434l-26 -248h-361l-125 -1186h-268l125 1186h-361l27 248h989zM141 -524l158 467h350l-268 -467h-240z" glyph-name="uni021A" horiz-adv-x="1155" unicode="Ț"/><glyph d="M668 848h-226l-55 -522q-8 -106 72 -107q59 0 151 21l-20 -215q-74 -37 -209 -37q-293 0 -256 342l53 518h-149l22 217h148l26 250h264l-26 -250h225zM37 -524l158 467h350l-269 -467h-239z" glyph-name="uni021B" horiz-adv-x="757" unicode="ț"/><glyph d="M418 1065l-125 -1176q-33 -311 -330 -311q-135 0 -219 55l14 252q72 -39 150 -39q119 0 133 134l113 1085h264z" glyph-name="uni0237" horiz-adv-x="516" unicode="ȷ"/><glyph d="M471 1567l231 -314l-92 -79l-211 221l-252 -221l-71 79l291 314h104z" glyph-name="circumflex" horiz-adv-x="626" unicode="ˆ"/><glyph d="M332 1174l-232 313l93 80l210 -221l252 221l72 -80l-291 -313h-104z" glyph-name="caron" horiz-adv-x="626" unicode="ˇ"/><glyph d="M754 1495q-14 -137 -110.5 -231.5t-254.5 -94.5t-230.5 96.5t-58.5 229.5h164q-4 -66 32 -106.5t112 -40.5q78 0 124 41t58 106h164z" glyph-name="breve" horiz-adv-x="653" unicode="˘"/><glyph d="M338 1436l-25 -230h-243l24 230h244z" glyph-name="dotaccent" horiz-adv-x="243" unicode="˙"/><glyph d="M332 1640q88 0 148.5 -60t60.5 -146q0 -94 -72 -165t-166 -71q-88 0 -149.5 60.5t-61.5 146.5q0 94 72 164.5t168 70.5zM322 1479q-27 0 -43.5 -18.5t-16.5 -47.5q0 -18 14.5 -33.5t34.5 -15.5q27 0 45.5 19.5t18.5 48.5q0 18 -16.5 32.5t-36.5 14.5z" glyph-name="ring" horiz-adv-x="448" unicode="˚"/><glyph d="M494 0q-317 -102 -318 -231q0 -49 52.5 -65.5t99.5 9.5l53 -121q-96 -37 -199.5 -41t-183.5 48.5t-80 142.5q0 178 315 258h261z" glyph-name="ogonek" horiz-adv-x="548" unicode="˛"/><glyph d="M334 1524q84 0 195.5 -71t156.5 -71q37 0 71 17.5t36 38.5l102 -8q-10 -111 -77.5 -183.5t-174.5 -72.5q-82 0 -196.5 80.5t-163.5 80.5q-37 0 -71 -22.5t-36 -50.5l-98 10q10 111 77.5 181.5t178.5 70.5z" glyph-name="tilde" horiz-adv-x="800" unicode="˜"/><glyph d="M555 1516l-287 -326h-198l163 326h322zM909 1516l-286 -326h-199l164 326h321z" glyph-name="hungarumlaut" horiz-adv-x="806" unicode="˝"/><glyph d="M-668 -440l158 467h350l-268 -467h-240z" glyph-name="uni0326" horiz-adv-x="0" unicode="̦"/><glyph d="M817 1434l467 -1434h-1296l768 1434h61zM748 999l-394 -768h623z" glyph-name="Delta" horiz-adv-x="1501" unicode="Δ"/><glyph d="M827 1448q133 0 257 -54.5t216.5 -148.5t140.5 -233.5t32 -294.5q-31 -276 -238 -477l33 16h104l-26 -256h-469l28 311l72 56q199 150 225 374q23 201 -91 321t-290 120q-184 0 -327.5 -126t-165.5 -339q-10 -104 25.5 -198.5t109.5 -158.5l63 -49l-28 -311h-471l26 256 h115l31 -6q-174 215 -146 491q20 201 141 366t290 253t343 88z" glyph-name="Omega" horiz-adv-x="1595" unicode="Ω"/><glyph d="M852 1065h264l-112 -1065h-265l27 203q-33 -68 -133.5 -143.5t-235.5 -75.5q-61 0 -143 10l-45 -383h-264l153 1454h264l-63 -602q-14 -133 29 -190.5t135 -57.5q115 0 204 81t117 165z" glyph-name="mu" horiz-adv-x="1214" unicode="μ"/><glyph d="M1153 219q68 0 150 39l-17 -235q-76 -35 -221 -35q-104 0 -187 51t-73 158l67 639h-321l-88 -836h-268l88 836h-205l24 229h1266l-25 -229h-202l-54 -510q-8 -68 7.5 -87.5t58.5 -19.5z" glyph-name="pi" horiz-adv-x="1482" unicode="π"/><glyph d="M532 1802l-24 -221h-272l24 221h272zM1047 1802l-23 -221h-274l24 221h273zM301 248h625l-27 -248h-893l152 1434h874l-26 -248h-607l-34 -344h460l-26 -242h-461z" glyph-name="afii10023" horiz-adv-x="1099" unicode="Ё"/><glyph d="M1030 1802l-282 -264h-205l168 264h319zM1063 1434l-29 -248h-635l-125 -1186h-268l152 1434h905z" glyph-name="afii10052" horiz-adv-x="1091" unicode="Ѓ"/><glyph d="M1071 346l154 -196q-207 -170 -498 -170q-307 0 -509 213t-167 536q33 313 271.5 519t537.5 206q283 0 467 -174l-170 -178q-127 100 -289 100q-174 0 -317 -104.5t-201 -270.5l355 7l-25 -232l-354 -4q20 -166 138 -266.5t287.5 -100.5t319.5 115z" glyph-name="afii10053" horiz-adv-x="1378" unicode="Є"/><glyph d="M426 1434l-152 -1434h-268l152 1434h268z" glyph-name="afii10055" horiz-adv-x="505" unicode="І"/><glyph d="M221 1802l-24 -221h-273l23 221h274zM735 1802l-22 -221h-275l25 221h272zM436 1434l-151 -1434h-269l152 1434h268z" glyph-name="afii10056" horiz-adv-x="528" unicode="Ї"/><glyph d="M1137 0l-88 276h-689l-145 -276h-291l778 1434h240l475 -1434h-280zM479 496h496l-184 606z" glyph-name="afii10017" horiz-adv-x="1564" unicode="А"/><glyph d="M594 946q242 0 373 -130t106 -347q-23 -211 -176.5 -340t-392.5 -129h-498l152 1434h891l-29 -248h-621l-24 -240h219zM506 248q127 0 209 61.5t92 184.5q14 115 -50.5 168t-191.5 53h-215l-49 -467h205z" glyph-name="afii10018" horiz-adv-x="1208" unicode="Б"/><glyph d="M858 791q111 -31 185.5 -122t74.5 -220q0 -219 -151.5 -334t-409.5 -115h-551l152 1434h518q197 0 302 -93.5t105 -236.5q0 -117 -62.5 -195.5t-162.5 -117.5zM639 1198h-238l-36 -326h227q104 0 163.5 53.5t59.5 139.5q0 133 -176 133zM559 236q139 0 217 63t78 176 q0 180 -250 180h-260l-43 -419h258z" glyph-name="afii10019" horiz-adv-x="1253" unicode="В"/><glyph d="M1063 1434l-29 -248h-635l-125 -1186h-268l152 1434h905z" glyph-name="afii10020" horiz-adv-x="1091" unicode="Г"/><glyph d="M1389 248h237l-41 -389h-268l14 141h-1093l-15 -141h-268l41 389l211 4q41 92 72.5 245.5t48 278.5t43.5 375l30 283h1112zM477 244l643 4l99 938h-578l-2 -43q-29 -264 -42 -378t-45 -271.5t-75 -249.5z" glyph-name="afii10021" horiz-adv-x="1794" unicode="Д"/><glyph d="M301 248h625l-27 -248h-893l152 1434h874l-26 -248h-607l-34 -344h460l-26 -242h-461z" glyph-name="afii10022" horiz-adv-x="1099" unicode="Е"/><glyph d="M1837 0l-403 627l-209 -209l-45 -418h-277l47 418l-159 209l-539 -627h-315l700 813l-481 621h325l502 -658l72 658h276l-71 -658l638 658h336l-618 -621l524 -813h-303z" glyph-name="afii10024" horiz-adv-x="2308" unicode="Ж"/><glyph d="M643 1448q199 0 328 -115.5t110 -290.5q-10 -104 -93 -186t-183 -102q102 2 199.5 -96.5t80.5 -254.5q-23 -201 -187.5 -312t-389.5 -111q-231 0 -372.5 126.5t-121.5 319.5l279 -8q-10 -90 63.5 -137.5t157.5 -47.5q104 0 195.5 50.5t101.5 158.5q10 90 -64.5 145.5 t-232.5 57.5l12 199q258 14 279 205q6 68 -45 106.5t-123 38.5q-86 0 -157.5 -48t-82.5 -138l-274 8q20 203 167.5 317.5t352.5 114.5z" glyph-name="afii10025" horiz-adv-x="1236" unicode="З"/><glyph d="M426 1434l-102 -947l843 947h211l-151 -1434h-269l105 944l-850 -944h-207l152 1434h268z" glyph-name="afii10026" horiz-adv-x="1458" unicode="И"/><glyph d="M1176 1798q-14 -119 -102.5 -204t-239.5 -85q-145 0 -228.5 92.5t-73.5 204.5l164 -8q4 -47 39 -78.5t99 -31.5q68 0 115.5 35.5t62.5 82.5zM426 1434l-102 -947l843 947h211l-151 -1434h-269l105 944l-850 -944h-207l152 1434h268z" glyph-name="afii10027" horiz-adv-x="1458" unicode="Й"/><glyph d="M932 0l-404 627l-206 -209l-48 -418h-268l152 1434h268l-72 -658l639 658h336l-618 -621l526 -813h-305z" glyph-name="afii10028" horiz-adv-x="1404" unicode="К"/><glyph d="M1444 1434l-152 -1434h-268l125 1186h-592l-92 -873q-20 -193 -100 -259t-213 -66q-127 0 -205 39l12 225q63 -33 133 -33q45 0 75 36t32 71l116 1108h1129z" glyph-name="afii10029" horiz-adv-x="1523" unicode="Л"/><glyph d="M1669 1434l-151 -1434h-269l90 821l-456 -821h-221l-297 819l-91 -819h-268l152 1434h258l385 -1059l602 1059h266z" glyph-name="afii10030" horiz-adv-x="1748" unicode="М"/><glyph d="M1040 1434h269l-152 -1434h-268l59 590h-612l-62 -590h-268l152 1434h268l-64 -596h615z" glyph-name="afii10031" horiz-adv-x="1388" unicode="Н"/><glyph d="M858 1454q285 0 480.5 -187.5t195.5 -478.5q0 -336 -241.5 -572t-571.5 -236q-285 0 -479.5 186t-194.5 477q0 336 240.5 573.5t570.5 237.5zM737 231q201 0 359.5 152t158.5 385q0 190 -118.5 312t-294.5 122q-203 0 -359.5 -152.5t-156.5 -387.5q0 -186 117.5 -308.5 t293.5 -122.5z" glyph-name="afii10032" horiz-adv-x="1654" unicode="О"/><glyph d="M1319 1434l-152 -1434h-268l125 1186h-625l-125 -1186h-268l152 1434h1161z" glyph-name="afii10033" horiz-adv-x="1398" unicode="П"/><glyph d="M645 1434q240 0 371 -136.5t106 -357.5q-23 -209 -175 -331t-392 -122h-229l-52 -487h-268l152 1434h487zM555 719q127 0 209 60.5t94 185.5q12 113 -52.5 167t-191.5 54h-215l-49 -467h205z" glyph-name="afii10034" horiz-adv-x="1204" unicode="Р"/><glyph d="M1225 150q-209 -170 -502 -170q-285 0 -480.5 186t-195.5 477q0 336 242.5 573.5t570.5 237.5q283 0 467 -174l-182 -178q-121 100 -285 100q-215 0 -375.5 -156.5t-162.5 -398.5q0 -182 125.5 -299t312.5 -117q172 0 321 115z" glyph-name="afii10035" horiz-adv-x="1378" unicode="С"/><glyph d="M1116 1434l-26 -248h-361l-125 -1186h-268l125 1186h-361l27 248h989z" glyph-name="afii10036" horiz-adv-x="1155" unicode="Т"/><glyph d="M1137 1434h301l-934 -1434h-297l315 479l-418 955h289l299 -682z" glyph-name="afii10037" horiz-adv-x="1456" unicode="У"/><glyph d="M1077 1300q307 -10 494.5 -179t161.5 -416q-27 -240 -244 -401t-524 -171l-19 -133h-268l18 133q-305 12 -490.5 180t-158.5 416q25 238 241 398.5t521 172.5l20 134h269zM711 365l84 706q-125 -6 -220.5 -42t-147.5 -91t-80 -112.5t-34 -120.5q-6 -57 8.5 -110.5 t54.5 -105t126 -85t209 -39.5zM979 365q125 4 221 38.5t149.5 90t82 114t34.5 121.5q6 59 -8 112.5t-55 105.5t-128 86t-212 38z" glyph-name="afii10038" horiz-adv-x="1851" unicode="Ф"/><glyph d="M1264 0h-312l-278 496l-387 -496h-322l570 727l-402 707h309l271 -473l368 473h322l-551 -707z" glyph-name="afii10039" horiz-adv-x="1441" unicode="Х"/><glyph d="M1464 248l-41 -389h-270l14 141h-1161l152 1434h268l-125 -1186h625l125 1186h268l-125 -1186h270z" glyph-name="afii10040" horiz-adv-x="1593" unicode="Ц"/><glyph d="M958 1434h269l-152 -1434h-268l67 600q-39 -63 -133 -122.5t-219 -59.5q-209 0 -329.5 115.5t-98.5 347.5l58 553h268l-62 -564q-10 -113 52.5 -162t158.5 -49q195 0 328 207z" glyph-name="afii10041" horiz-adv-x="1306" unicode="Ч"/><glyph d="M1946 1434h268l-152 -1434h-2056l152 1434h268l-125 -1186h625l125 1186h268l-125 -1186h627z" glyph-name="afii10042" horiz-adv-x="2293" unicode="Ш"/><glyph d="M2355 248l-41 -389h-266l14 141h-2056l152 1434h268l-125 -1186h625l125 1186h268l-125 -1186h627l125 1186h268l-125 -1186h266z" glyph-name="afii10043" horiz-adv-x="2484" unicode="Щ"/><glyph d="M811 946q242 0 374 -130t107 -347q-23 -211 -177 -340t-394 -129h-496l123 1186h-274l26 248h545l-53 -488h219zM725 248q127 0 208 61.5t93 184.5q12 115 -52.5 168t-191.5 53h-215l-47 -467h205z" glyph-name="afii10044" horiz-adv-x="1423" unicode="Ъ"/><glyph d="M594 946q242 0 373 -130t106 -347q-23 -211 -176.5 -340t-392.5 -129h-498l152 1434h268l-51 -488h219zM1409 1434h268l-151 -1434h-269zM506 248q127 0 209 61.5t92 184.5q14 115 -50.5 168t-191.5 53h-215l-49 -467h205z" glyph-name="afii10045" horiz-adv-x="1757" unicode="Ы"/><glyph d="M594 946q242 0 373 -130t106 -347q-23 -211 -176.5 -340t-392.5 -129h-498l152 1434h268l-51 -488h219zM506 248q127 0 209 61.5t92 184.5q14 115 -50.5 168t-191.5 53h-215l-49 -467h205z" glyph-name="afii10046" horiz-adv-x="1204" unicode="Ь"/><glyph d="M602 1454q307 0 508 -213t166 -536q-33 -313 -271.5 -519t-537.5 -206q-291 0 -475 178l174 178q117 -104 291 -105q176 0 319.5 104.5t200.5 272.5l-352 -6l22 232l354 4q-20 166 -135.5 265t-285.5 99q-168 0 -314 -104l-155 190q208 166 491 166z" glyph-name="afii10047" horiz-adv-x="1370" unicode="Э"/><glyph d="M1327 1454q285 0 480.5 -187.5t195.5 -478.5q0 -336 -241.5 -572t-571.5 -236q-274 0 -467 174t-207 450l-178 2l-64 -606h-268l152 1434h268l-64 -598h177q68 268 288.5 443t499.5 175zM1206 231q201 0 359.5 152t158.5 385q0 190 -118.5 312t-294.5 122 q-203 0 -359.5 -152.5t-156.5 -387.5q0 -186 117.5 -308.5t293.5 -122.5z" glyph-name="afii10048" horiz-adv-x="2123" unicode="Ю"/><glyph d="M723 1434h498l-152 -1434h-268l53 487h-236l-370 -487h-291l420 537q-119 55 -178.5 165.5t-44.5 262.5q23 211 176 340t393 129zM662 719h215l49 467h-205q-127 0 -208 -61.5t-95 -184.5q-12 -115 52.5 -168t191.5 -53z" glyph-name="afii10049" horiz-adv-x="1300" unicode="Я"/><glyph d="M598 1083q92 0 166 -34.5t106.5 -69.5t34.5 -57l19 143h262l-113 -1065h-262l18 150q-14 -53 -107 -111.5t-220 -58.5q-121 0 -227.5 51t-181.5 166.5t-75 273.5q0 254 171 433t409 179zM608 850q-139 0 -233 -101.5t-94 -254.5q0 -135 78.5 -208t197.5 -73 q123 0 223.5 92t100.5 270q0 131 -80 203t-193 72z" glyph-name="afii10065" unicode="а"/><glyph d="M678 1083q207 0 355.5 -150.5t121.5 -412.5q-18 -174 -113.5 -301t-216 -183t-245.5 -56q-133 0 -217 62t-87 118l-20 -160h-264l112 1069q20 190 122 277.5t311 87.5h172q117 0 157 45l262 -9q-66 -135 -161 -194t-254 -59h-164q-76 0 -125 -41t-55 -115l-17 -131 q12 39 106.5 96t219.5 57zM549 213q129 0 233.5 88t120.5 244q14 143 -65.5 224t-200.5 81q-127 0 -224.5 -87t-113.5 -243q-16 -145 57.5 -226t192.5 -81z" glyph-name="afii10066" horiz-adv-x="1282" unicode="б"/><glyph d="M854 586q188 -76 188 -248t-140 -255t-361 -83h-549l112 1065h541q162 0 262.5 -67.5t100.5 -184.5q0 -157 -154 -227zM631 848h-283l-20 -186h270q76 0 108.5 35.5t32.5 72.5q1 78 -108 78zM557 217q219 0 219 127q0 20 -5 35.5t-20.5 36t-56.5 32t-104 11.5h-285 l-24 -242h276z" glyph-name="afii10067" horiz-adv-x="1187" unicode="в"/><glyph d="M936 1065l-23 -229h-569l-88 -836h-264l112 1065h832z" glyph-name="afii10068" horiz-adv-x="1017" unicode="г"/><glyph d="M1167 231h150l-37 -346h-262l10 115h-809l-12 -115h-262l35 346l122 5q68 84 96.5 222t57.5 406l20 201h981zM365 225l540 6l64 605h-453l2 20q-20 -193 -31.5 -276.5t-42 -190.5t-79.5 -164z" glyph-name="afii10069" horiz-adv-x="1462" unicode="д"/><glyph d="M627 1085q82 0 163.5 -28.5t152.5 -82.5t115 -149.5t44 -214.5q0 -88 -21 -176h-807q14 -115 93 -175t200 -60q96 0 158.5 21.5t128.5 66.5l129 -142q-160 -166 -434 -165q-211 0 -371 131t-160 364q0 254 182.5 432t426.5 178zM621 860q-104 0 -193.5 -61.5 t-128.5 -175.5h573q-8 117 -79.5 177t-171.5 60z" glyph-name="afii10070" horiz-adv-x="1222" unicode="е"/><glyph d="M1427 0l-340 387l-65 -59l-39 -328h-264l39 328l-49 59l-428 -387h-355l621 565l-434 500h329l346 -381l43 381h265l-43 -381l426 381h342l-549 -500l497 -565h-342z" glyph-name="afii10072" horiz-adv-x="1906" unicode="ж"/><glyph d="M522 1083q184 0 294 -92t93 -219q-12 -143 -194 -205q27 -4 60.5 -19.5t70.5 -44t58.5 -80.5t15.5 -118q-18 -152 -161 -238.5t-329 -86.5q-207 0 -323.5 105t-98.5 273l248 -8q-6 -68 48 -111.5t134 -43.5q88 0 154.5 39.5t73.5 109.5q8 63 -49.5 97t-172.5 34l9 176 q190 2 200 121q6 37 -28.5 65.5t-100.5 28.5q-70 0 -122 -34.5t-58 -83.5l-250 10q16 145 129 235t299 90z" glyph-name="afii10073" horiz-adv-x="1081" unicode="з"/><glyph d="M1102 1065l-113 -1065h-264l66 592l-758 -592h-41l112 1065h265l-66 -592l756 592h43z" glyph-name="afii10074" horiz-adv-x="1200" unicode="и"/><glyph d="M963 1430q-12 -117 -100.5 -203t-241.5 -86q-145 0 -228.5 92t-70.5 205l161 -8q4 -45 40 -78t98 -33q70 0 117.5 36t62.5 83zM1102 1065l-113 -1065h-264l66 592l-758 -592h-41l112 1065h265l-66 -592l756 592h43z" glyph-name="afii10075" horiz-adv-x="1200" unicode="й"/><glyph d="M700 0l-340 387l-65 -59l-39 -328h-264l112 1065h265l-43 -381l426 381h342l-549 -500l499 -565h-344z" glyph-name="afii10076" horiz-adv-x="1181" unicode="к"/><glyph d="M1257 1065l-112 -1065h-264l88 836h-469l-56 -523q-20 -193 -99 -259t-212 -66q-123 0 -196 39l20 206q37 -16 109 -16q104 0 116 96l78 752h997z" glyph-name="afii10077" horiz-adv-x="1355" unicode="л"/><glyph d="M1378 1065l-112 -1065h-265l52 451l-420 -451l-326 451l-51 -451h-264l112 1065h48l510 -700l663 700h53z" glyph-name="afii10078" horiz-adv-x="1476" unicode="м"/><glyph d="M817 1065h264l-112 -1065h-264l43 399h-449l-43 -399h-264l112 1065h265l-45 -436h448z" glyph-name="afii10079" horiz-adv-x="1179" unicode="н"/><glyph d="M627 1085q123 0 235.5 -53t193.5 -173t81 -279q0 -254 -179.5 -427t-429.5 -173q-195 0 -352.5 134t-157.5 369q0 256 179.5 429t429.5 173zM545 213q133 0 234.5 97.5t101.5 262.5q0 131 -82 205t-189 74q-133 0 -234.5 -97.5t-101.5 -265.5q0 -131 82.5 -203.5 t188.5 -72.5z" glyph-name="afii10080" horiz-adv-x="1257" unicode="о"/><glyph d="M1114 1065l-113 -1065h-264l88 836h-481l-88 -836h-264l112 1065h1010z" glyph-name="afii10081" horiz-adv-x="1212" unicode="п"/><glyph d="M678 1085q207 0 355.5 -150.5t121.5 -414.5q-18 -174 -113.5 -301t-216 -183t-245.5 -56q-133 0 -217 62t-87 118l-61 -549h-264l69 635l84 819h265l-17 -135q10 41 105.5 98t220.5 57zM549 213q129 0 232.5 88t121.5 244q14 145 -65.5 226t-200.5 81q-127 0 -224.5 -88 t-113.5 -244q-16 -145 57.5 -226t192.5 -81z" glyph-name="afii10082" horiz-adv-x="1282" unicode="р"/><glyph d="M625 1085q150 0 262 -66.5t172 -195.5l-209 -86q-84 115 -236 115q-139 0 -239.5 -102.5t-100.5 -264.5q0 -131 79 -202.5t194 -71.5q143 0 258 121l201 -103q-176 -250 -480 -249q-195 0 -351.5 132t-156.5 371q0 254 179.5 428t427.5 174z" glyph-name="afii10083" horiz-adv-x="1148" unicode="с"/><glyph d="M899 1065l-25 -229h-286l-90 -836h-262l88 836h-287l24 229h838z" glyph-name="afii10084" horiz-adv-x="960" unicode="т"/><glyph d="M969 1067h266l-803 -1456h-268l242 426l-351 1030h258l250 -745z" glyph-name="afii10085" horiz-adv-x="1282" unicode="у"/><glyph d="M1495 1083q207 0 356.5 -150.5t122.5 -412.5q-29 -256 -203 -398t-372 -142q-135 0 -219 62t-84 118l-64 -549h-262l59 524q-16 -41 -110 -97t-217 -56q-207 0 -356.5 150.5t-122.5 412.5q18 174 113 301t216 183t246 56q135 0 219 -61t86 -117l62 547h262l-58 -524 q12 39 107.5 96t218.5 57zM543 215q100 0 186 56.5t127 156.5l23 217q-18 102 -86 154.5t-162 52.5q-129 0 -232.5 -88t-122.5 -244q-16 -143 64 -224t203 -81zM1366 213q129 0 233.5 88t120.5 244q16 143 -64.5 224t-201.5 81q-100 0 -186 -56.5t-125 -156.5l-25 -217 q18 -102 86 -154.5t162 -52.5z" glyph-name="afii10086" horiz-adv-x="2099" unicode="ф"/><glyph d="M766 0l-215 354l-297 -354h-307l467 545l-316 520h295l189 -328l260 328h305l-430 -520l346 -545h-297z" glyph-name="afii10087" horiz-adv-x="1241" unicode="х"/><glyph d="M403 1405l-354 -1174l457 -231h-375l-178 -373l117 1438zM989 231l178 80l-12 -452l-303 -49l55 190h-174l82 1065l334 340zM725 -111l-219 111h227z" glyph-name="afii10088" horiz-adv-x="1292" unicode="ц"/><glyph d="M844 1065h264l-113 -1065h-264l51 455q-12 -20 -33.5 -44t-63.5 -56.5t-110.5 -54t-150.5 -21.5q-166 0 -276.5 101t-88.5 318l39 367h264l-40 -377q-16 -176 157 -176q102 0 189.5 65.5t138.5 170.5z" glyph-name="afii10089" horiz-adv-x="1206" unicode="ч"/><glyph d="M1563 1065l-113 -1065h-1458l112 1065h265l-88 -834h333l88 834h265l-90 -834h333l90 834h263z" glyph-name="afii10090" horiz-adv-x="1660" unicode="ш"/><glyph d="M1608 231l-39 -372h-262l14 141h-1329l112 1065h265l-88 -834h333l88 834h265l-90 -834h333l90 834h263l-88 -834h133z" glyph-name="afii10091" horiz-adv-x="1740" unicode="щ"/><glyph d="M760 664q174 0 280.5 -83t106.5 -227q0 -164 -126 -259t-323 -95h-604l88 836h-166l25 229h428l-41 -401h332zM711 231q98 0 139 36t41 85q0 80 -148 80h-340l-22 -201h330z" glyph-name="afii10092" horiz-adv-x="1290" unicode="ъ"/><glyph d="M657 664q174 0 280.5 -83t106.5 -227q0 -164 -124.5 -259t-323.5 -95h-604l112 1065h265l-41 -401h329zM1288 1065h262l-112 -1065h-262zM610 231q180 0 181 115q0 86 -148 86h-340l-22 -201h329z" glyph-name="afii10093" horiz-adv-x="1648" unicode="ы"/><glyph d="M657 664q174 0 280.5 -83t106.5 -227q0 -164 -124.5 -259t-323.5 -95h-604l112 1065h265l-41 -401h329zM610 231q180 0 181 115q0 86 -148 86h-340l-22 -201h329z" glyph-name="afii10094" horiz-adv-x="1187" unicode="ь"/><glyph d="M526 1083q96 0 189.5 -36.5t170.5 -103t119 -178.5t25 -247q-16 -172 -118.5 -299t-228.5 -182t-251 -55q-313 0 -440 260l209 84q82 -111 233 -111q96 0 189.5 60.5t134.5 162.5l-273 -4l19 182l276 5q-14 111 -89 170t-171 59q-158 0 -268 -121l-201 102 q170 252 475 252z" glyph-name="afii10095" horiz-adv-x="1155" unicode="э"/><glyph d="M1055 1085q123 0 235.5 -53t193.5 -173t81 -279q0 -254 -179.5 -427t-429.5 -173q-178 0 -327.5 112.5t-175.5 313.5h-154l-43 -406h-264l112 1065h265l-43 -416h143q55 195 218 315.5t368 120.5zM973 213q133 0 234.5 97.5t101.5 262.5q0 131 -82 205t-189 74 q-133 0 -234.5 -97.5t-101.5 -265.5q0 -131 82.5 -203.5t188.5 -72.5z" glyph-name="afii10096" horiz-adv-x="1685" unicode="ю"/><glyph d="M1126 1065l-112 -1065h-264l32 313h-190l-328 -313h-307l358 340q-106 41 -169.5 124t-63.5 198q0 180 141.5 291.5t345.5 111.5h557zM807 545l31 291h-281q-100 0 -160.5 -46.5t-60.5 -117.5q0 -127 180 -127h291z" glyph-name="afii10097" horiz-adv-x="1224" unicode="я"/><glyph d="M532 1434l-24 -222h-272l24 222h272zM1047 1434l-23 -222h-274l24 222h273zM627 1085q82 0 163.5 -28.5t152.5 -82.5t115 -149.5t44 -214.5q0 -88 -21 -176h-807q14 -115 93 -175t200 -60q96 0 158.5 21.5t128.5 66.5l129 -142q-160 -166 -434 -165q-211 0 -371 131 t-160 364q0 254 182.5 432t426.5 178zM621 860q-104 0 -193.5 -61.5t-128.5 -175.5h573q-8 117 -79.5 177t-171.5 60z" glyph-name="afii10071" horiz-adv-x="1222" unicode="ё"/><glyph d="M913 1434l-282 -265h-205l168 265h319zM936 1065l-23 -229h-569l-88 -836h-264l112 1065h832z" glyph-name="afii10100" horiz-adv-x="1017" unicode="ѓ"/><glyph d="M532 215q156 0 271 119l198 -103q-172 -250 -477 -249q-96 0 -188 34.5t-170 101t-119 177.5t-27 248q14 129 77 235.5t151 171t185 99t190 34.5q150 0 262 -67.5t172 -194.5l-205 -84q-86 113 -231 113q-102 0 -196.5 -64.5t-133.5 -175.5l274 6l-18 -182l-273 -6 q20 -102 93 -157.5t165 -55.5z" glyph-name="afii10101" horiz-adv-x="1144" unicode="є"/><glyph d="M119 1196l26 252h265l-27 -252h-264zM-8 0l112 1065h265l-113 -1065h-264z" glyph-name="afii10103" horiz-adv-x="466" unicode="і"/><glyph d="M182 1434l-24 -222h-273l23 222h274zM696 1434l-22 -222h-275l25 222h272zM395 1065l-112 -1065h-263l113 1065h262z" glyph-name="afii10104" horiz-adv-x="528" unicode="ї"/><glyph d="M805 1530h268l-22 -219l-17 -125h-635l-125 -1186h-268l152 1434h637z" glyph-name="afii10050" horiz-adv-x="1091" unicode="Ґ"/><glyph d="M684 1159h262l-33 -323h-569l-88 -836h-264l112 1065h570z" glyph-name="afii10098" horiz-adv-x="1017" unicode="ґ"/><glyph d="M725 1884h322l163 -325h-198zM2097 1434l-620 -1434h-191l-250 963l-444 -963h-191l-317 1434h276l197 -914l424 914h207l233 -914l389 914h287z" glyph-name="Wgrave" horiz-adv-x="2095" unicode="Ẁ"/><glyph d="M586 1516h321l164 -326h-199zM1595 1067h269l-498 -1067h-250l-190 760l-351 -760h-247l-273 1067h258l172 -745l353 745h231l199 -745z" glyph-name="wgrave" horiz-adv-x="1910" unicode="ẁ"/><glyph d="M1483 1884l-287 -325h-199l164 325h322zM2097 1434l-620 -1434h-191l-250 963l-444 -963h-191l-317 1434h276l197 -914l424 914h207l233 -914l389 914h287z" glyph-name="Wacute" horiz-adv-x="2095" unicode="Ẃ"/><glyph d="M1343 1516l-286 -326h-199l164 326h321zM1595 1067h269l-498 -1067h-250l-190 760l-351 -760h-247l-273 1067h258l172 -745l353 745h231l199 -745z" glyph-name="wacute" horiz-adv-x="1910" unicode="ẃ"/><glyph d="M1006 1804l-25 -229h-244l25 229h244zM1493 1804l-25 -229h-243l22 229h246zM2097 1434l-620 -1434h-191l-250 963l-444 -963h-191l-317 1434h276l197 -914l424 914h207l233 -914l389 914h287z" glyph-name="Wdieresis" horiz-adv-x="2095" unicode="Ẅ"/><glyph d="M866 1436l-24 -230h-244l25 230h243zM1354 1436l-25 -230h-244l23 230h246zM1595 1067h269l-498 -1067h-250l-190 760l-351 -760h-247l-273 1067h258l172 -745l353 745h231l199 -745z" glyph-name="wdieresis" horiz-adv-x="1910" unicode="ẅ"/><glyph d="M416 1884h321l164 -325h-199zM1458 1434l-629 -811l-69 -623h-268l69 623l-457 811h299l312 -568l432 568h311z" glyph-name="Ygrave" horiz-adv-x="1476" unicode="Ỳ"/><glyph d="M758 1190h-199l-287 326h322zM969 1067h266l-803 -1456h-268l242 426l-351 1030h258l250 -745z" glyph-name="ygrave" horiz-adv-x="1282" unicode="ỳ"/><glyph d="M1102 674l-23 -219h-1044l22 219h1045z" glyph-name="endash" horiz-adv-x="1230" unicode="–"/><glyph d="M1225 674l-23 -219h-1167l22 219h1168z" glyph-name="emdash" horiz-adv-x="1353" unicode="—"/><glyph d="M508 1434l-242 -527h-225l242 527h225z" glyph-name="quoteleft" horiz-adv-x="495" unicode="‘"/><glyph d="M41 907l242 527h225l-242 -527h-225z" glyph-name="quoteright" horiz-adv-x="495" unicode="’"/><glyph d="M-121 -240l242 527h229l-239 -527h-232z" glyph-name="quotesinglbase" horiz-adv-x="499" unicode="‚"/><glyph d="M508 1434l-242 -527h-225l242 527h225zM846 1434l-242 -527h-225l242 527h225z" glyph-name="quotedblleft" horiz-adv-x="833" unicode="“"/><glyph d="M41 907l242 527h225l-242 -527h-225zM379 907l242 527h225l-242 -527h-225z" glyph-name="quotedblright" horiz-adv-x="833" unicode="”"/><glyph d="M-121 -240l242 527h225l-242 -527h-225zM217 -240l242 527h225l-242 -527h-225z" glyph-name="quotedblbase" horiz-adv-x="833" unicode="„"/><glyph d="M686 1163l-18 -172h-203l-68 -352h-104l6 352h-205l19 172h192l6 271h236l-49 -271h188z" glyph-name="dagger" horiz-adv-x="778" unicode="†"/><glyph d="M492 1163h194l-18 -172h-211l-45 -225h-105l-2 225h-211l19 172h196l2 271h234zM401 668l-2 -226h211l-16 -172h-197l-4 -270h-233l57 270h-197l17 172h211l49 226h104z" glyph-name="daggerdbl" horiz-adv-x="778" unicode="‡"/><glyph d="M200.5 467q-65.5 0 -108.5 43t-43 108.5t43 108.5t108.5 43t108.5 -43t43 -108.5t-43 -108.5t-108.5 -43z" glyph-name="bullet" horiz-adv-x="428" unicode="•"/><glyph d="M121 -10q-70 0 -111 46t-35 118q8 59 51.5 99t104.5 40q70 0 111 -46t34 -118q-8 -59 -52 -99t-103 -40zM627 -10q-70 0 -111 46t-35 118q8 59 51 99t105 40q70 0 110.5 -46t34.5 -118q-8 -59 -52 -99t-103 -40zM1133 -10q-70 0 -111 46t-35 118q8 59 51 99t105 40 q70 0 110.5 -46t34.5 -118q-8 -59 -52 -99t-103 -40z" glyph-name="ellipsis" horiz-adv-x="1458" unicode="…"/><glyph d="M354 1444q111 0 180.5 -77t57.5 -187q-10 -100 -88 -170t-180 -70q-111 0 -180.5 77t-57.5 187q10 100 88 170t180 70zM1071 1438l199 -133l-1010 -1305l-203 133zM346 1272q-37 0 -62.5 -26.5t-25.5 -65.5q2 -29 23.5 -48.5t50.5 -19.5q37 0 63.5 26.5t24.5 65.5 q-2 29 -23.5 48.5t-50.5 19.5zM1032 494q111 0 180.5 -77t57.5 -188q-10 -100 -88 -169.5t-181 -69.5q-111 0 -180 76.5t-57 187.5q10 100 88 170t180 70zM1698 494q111 0 180.5 -77t56.5 -188q-10 -100 -88 -169.5t-180 -69.5q-111 0 -180.5 76.5t-56.5 187.5 q10 100 88 170t180 70zM1024 322q-37 0 -62.5 -27t-25.5 -66q2 -29 23.5 -48t50.5 -19q37 0 62.5 26.5t25.5 65.5q-2 29 -23.5 48.5t-50.5 19.5zM1690 322q-37 0 -62.5 -27t-25.5 -66q2 -29 23.5 -48t49.5 -19q37 0 62.5 26.5t25.5 65.5q-2 29 -23 48.5t-50 19.5z" glyph-name="perthousand" horiz-adv-x="2095" unicode="‰"/><glyph d="M84 535l8 104l338 305l74 -88l-238 -270l183 -271l-93 -88z" glyph-name="guilsinglleft" horiz-adv-x="520" unicode="‹"/><glyph d="M449 637l-9 -105l-338 -305l-73 88l237 271l-182 270l92 88z" glyph-name="guilsinglright" horiz-adv-x="520" unicode="›"/><glyph d="M631 1434l-1032 -1434h-103l1045 1434h90z" glyph-name="fraction" horiz-adv-x="221" unicode="⁄"/><glyph d="M872 231q172 0 322 115l143 -196q-209 -170 -501 -170q-244 0 -427.5 141t-234.5 373h-147l20 170h113q0 2 6 81h-115l21 168h135q86 238 299 389.5t467 151.5q283 0 467 -174l-183 -178q-121 100 -284 100q-147 0 -275.5 -77.5t-197.5 -211.5h436l-18 -168h-476 q-4 -29 -8 -81h477l-18 -170h-430q47 -121 157.5 -192t251.5 -71z" glyph-name="Euro" horiz-adv-x="1490" unicode="€"/><glyph d="M522 1434l-8 -88h-125l-31 -281h-100l31 281h-125l8 88h350zM1075 1434l-39 -369h-100l25 199l-123 -199h-78l-80 199l-25 -199h-100l39 369h98l109 -260l172 260h102z" glyph-name="trademark" horiz-adv-x="1169" unicode="™"/><glyph d="M246 1436l-56 -535h-75l47 453l-35 -23l-33 64l76 41h76zM1071 1434l-1032 -1434h-98l1044 1434h86zM842 539q76 0 115.5 -43t35.5 -99q-8 -70 -73 -106q84 -41 73 -137q-8 -68 -66.5 -113t-133.5 -45q-78 0 -129.5 47t-42.5 119q10 90 100 133q-55 43 -49 111 q6 53 53 93t117 40zM844 475q-41 0 -66.5 -22.5t-29.5 -55.5q-4 -29 18 -52t53 -23q37 0 64.5 25.5t31.5 58.5q4 31 -12 50t-59 19zM821 258q-47 0 -85 -29.5t-42 -74.5q-4 -41 25 -68t72 -27q51 0 85.5 29t41.5 74q4 43 -23 69.5t-74 26.5z" glyph-name="oneeighth" horiz-adv-x="1138" unicode="⅛"/><glyph d="M274 1440q68 0 113 -43t39 -101q-6 -66 -72 -106q80 -35 72 -137q-8 -68 -67.5 -114t-135.5 -46q-84 0 -132 56.5t-38 131.5l78 -4q-4 -49 20.5 -84t71.5 -35t84 29t41 74q6 53 -29.5 73.5t-109.5 20.5l2 59q131 0 141 91q2 31 -20.5 51t-57.5 20q-45 0 -75.5 -29.5 t-36.5 -84.5l-74 4q6 78 59 126t127 48zM1110 1434l-1030 -1434h-98l1042 1434h86zM877 539q76 0 116.5 -43t34.5 -99q-8 -70 -72 -106q84 -43 74 -137q-8 -68 -67.5 -113t-135.5 -45q-78 0 -129 47t-43 119q10 90 103 133q-57 41 -51 111q6 53 53 93t117 40zM879 475 q-43 0 -68 -22.5t-29 -55.5q-4 -29 18.5 -52t53.5 -23q37 0 64.5 25.5t31.5 58.5q4 31 -12 50t-59 19zM856 258q-45 0 -83 -29.5t-42 -74.5q-4 -41 24.5 -68t71.5 -27q51 0 86 29t39 74q4 43 -22.5 69.5t-73.5 26.5z" glyph-name="threeeighths" horiz-adv-x="1175" unicode="⅜"/><glyph d="M420 1436l-6 -66h-213l-31 -119q45 20 92 21q74 0 126 -56.5t44 -136.5q-8 -78 -70.5 -132t-140.5 -54q-70 0 -118 39t-56 90l72 35q-2 -41 26.5 -70t75.5 -29q49 0 88 37t45 92q6 49 -22.5 84t-69.5 35q-72 0 -125 -61l-65 18l65 273h283zM1110 1434l-1032 -1434h-98 l1044 1434h86zM881 539q76 0 115.5 -43t35.5 -99q-8 -70 -74 -106q84 -41 74 -137q-8 -68 -66.5 -113t-134.5 -45q-78 0 -129 47t-43 119q10 90 101 133q-55 43 -49 111q6 53 53 93t117 40zM883 475q-43 0 -67.5 -22.5t-29.5 -55.5q-4 -29 18.5 -52t53.5 -23q37 0 64.5 25.5 t31.5 58.5q4 31 -12 50t-59 19zM860 258q-47 0 -85 -29.5t-42 -74.5q-4 -41 24.5 -68t71.5 -27q51 0 86 29t41 74q4 43 -22.5 69.5t-73.5 26.5z" glyph-name="fiveeighths" horiz-adv-x="1179" unicode="⅝"/><glyph d="M449 1436l-265 -535h-80l232 469h-248l6 66h355zM1069 1434l-1032 -1434h-98l1044 1434h86zM840 539q76 0 115.5 -43t35.5 -99q-8 -70 -73 -106q84 -41 73 -137q-8 -68 -66.5 -113t-133.5 -45q-78 0 -129.5 47t-43.5 119q10 90 101 133q-55 43 -49 111q6 53 53 93t117 40 zM842 475q-43 0 -67.5 -22.5t-29.5 -55.5q-4 -29 18.5 -52t53.5 -23q37 0 64.5 25.5t31.5 58.5q4 31 -12 50t-59 19zM819 258q-47 0 -85 -29.5t-42 -74.5q-4 -41 24.5 -68t71.5 -27q51 0 86 29t41 74q4 43 -22.5 69.5t-73.5 26.5z" glyph-name="seveneighths" horiz-adv-x="1136" unicode="⅞"/><glyph d="M236 1434h270l297 -467q102 -166 129 -230q63 -150 47 -307q-18 -195 -176 -322.5t-346 -127.5q-199 0 -333 134t-114 335q20 178 170 312t326 134q66 0 88 -21zM528 666q-104 0 -182 -70t-88 -170q-10 -96 48.5 -157.5t154.5 -61.5q104 0 182 68.5t88 175.5 q8 86 -46.5 150.5t-156.5 64.5z" glyph-name="partialdiff" horiz-adv-x="1112" unicode="∂"/><glyph d="M152 1638h1308l-213 -2027h-258l189 1788h-793l-188 -1788h-258z" glyph-name="product" horiz-adv-x="1492" unicode="∏"/><glyph d="M1378 1638l-24 -239h-805l348 -774l-504 -775h797l-25 -239h-1228l671 1014l-454 1013h1224z" glyph-name="summation" horiz-adv-x="1411" unicode="∑"/><glyph d="M737 674l-22 -219h-686l22 219h686z" glyph-name="minus" horiz-adv-x="870" unicode="−"/><glyph d="M1645 1638l-771 -2027h-309l-282 885h-250l28 295h424l252 -832l639 1679h269z" glyph-name="radical" horiz-adv-x="1675" unicode="√"/><glyph d="M1210 887q160 0 252 -101.5t76 -248.5q-16 -152 -128 -254.5t-273 -102.5q-190 0 -369 205q-219 -205 -408 -205q-164 0 -255 101.5t-74 255.5q16 150 128.5 250t274.5 100q184 0 365 -203q225 203 411 203zM385 387q145 0 266 150q-94 150 -233 149q-70 0 -120 -44 t-56 -105.5t34.5 -105.5t108.5 -44zM1327 537q6 61 -35 105t-108 44q-147 0 -271 -149q92 -150 238 -150q68 0 118 44.5t58 105.5z" glyph-name="infinity" horiz-adv-x="1681" unicode="∞"/><glyph d="M653 1638l-14 -229q-66 0 -100.5 -27.5t-45 -63.5t-18.5 -112l-131 -1255q-20 -193 -117.5 -266.5t-322.5 -73.5l14 231q94 0 123 36t41 138l131 1254q23 199 121 283.5t319 84.5z" glyph-name="integral" horiz-adv-x="649" unicode="∫"/><glyph d="M326 905q92 0 221 -72.5t194 -72.5q35 0 70 19.5t37 39.5l102 -8q-12 -113 -83.5 -184.5t-190.5 -71.5q-90 0 -220 83t-204 83q-35 0 -68.5 -24.5t-36.5 -53.5l-98 10q12 111 83 181.5t194 70.5zM291 565q90 0 219 -71.5t195 -71.5q35 0 69.5 19.5t36.5 39.5l104 -10 q-14 -111 -85.5 -182.5t-192.5 -71.5q-88 0 -217 82t-203 82q-35 0 -68.5 -24.5t-35.5 -51.5l-99 8q12 113 83 182.5t194 69.5z" glyph-name="approxequal" horiz-adv-x="993" unicode="≈"/><glyph d="M727 618h-211l-51 -108h252l-25 -219h-338l-143 -291h-231l143 291h-117l25 219h200l54 108h-244l25 220h329l152 311h231l-151 -311h125z" glyph-name="notequal" horiz-adv-x="811" unicode="≠"/><glyph d="M805 1214l-25 -225l-415 -221l370 -219l-24 -227l-660 407l8 78zM700 223l-24 -221h-686l24 221h686z" glyph-name="lessequal" horiz-adv-x="866" unicode="≤"/><glyph d="M104 1214l660 -407l-8 -78l-746 -407l25 227l416 219l-371 221zM0 223h686l-24 -221h-687z" glyph-name="greaterequal" horiz-adv-x="827" unicode="≥"/><glyph d="M821 1434l246 -717l-391 -717h-377l-244 717l391 717h375zM504 190l291 527l-179 526l-288 -526z" glyph-name="lozenge" horiz-adv-x="1196" unicode="◊"/><glyph d="M1683 1434l-28 -1434h-277l25 940l-459 -940h-227l-258 940l-176 -940h-277l275 1434h264l323 -1074l551 1074h264z" glyph-name="M.aalt" horiz-adv-x="1863"/><glyph d="M395 1436l-24 -230h-244l25 230h243zM369 1065l-113 -1065h-264l112 1065h265z" glyph-name="i.aalt" horiz-adv-x="466"/><glyph d="M1145 848l-55 -522q-8 -106 71 -107q59 0 152 21l-21 -215q-74 -37 -209 -37q-293 0 -256 342l54 518h-459l-92 -848h-262l90 848h-135l22 217h135l4 55q12 109 55.5 183.5t105 107.5t113.5 45t109 12q152 0 258 -69l-100 -178q-49 27 -121 26q-139 0 -158 -137l-4 -45 h459l27 250h264l-27 -250h226l-21 -217h-225z" glyph-name="f_t.dlig" horiz-adv-x="1460"/><glyph d="M1204 848l-55 -522q-8 -106 72 -107q59 0 151 21l-20 -215q-74 -37 -209 -37q-293 0 -256 342l53 518h-498l-55 -522q-8 -106 72 -107q59 0 151 21l-20 -215q-74 -37 -209 -37q-293 0 -256 342l53 518h-149l22 217h148l26 250h264l-26 -250h498l26 250h264l-26 -250h225 l-20 -217h-226z" glyph-name="t_t.dlig" horiz-adv-x="1517"/><glyph d="M702 1454q229 0 375 -162t146 -456q0 -362 -177.5 -609t-478.5 -247q-229 0 -375.5 162.5t-146.5 459.5q0 356 179 604t478 248zM690 1225q-127 0 -218 -94.5t-131 -233.5t-40 -301q0 -166 67.5 -275.5t209.5 -109.5q129 0 220 93t130 230.5t39 299.5q0 170 -66 280.5 t-211 110.5z" glyph-name="zero.salt" horiz-adv-x="1341"/><glyph d="M803 1454q231 0 376.5 -162t145.5 -456q0 -362 -177 -609t-478 -247q-229 0 -376 162.5t-147 459.5q0 231 77 423t228.5 310.5t350.5 118.5zM793 1225q-127 0 -218.5 -94.5t-131.5 -233.5t-40 -301q0 -166 67 -275.5t210 -109.5q127 0 218 93t131 230.5t40 299.5 q0 170 -65.5 280.5t-210.5 110.5z" glyph-name="zero.tnum" horiz-adv-x="1433"/><glyph d="M950 1434l-151 -1434h-269l127 1204h-233l22 230h504z" glyph-name="one.tnum" horiz-adv-x="1433"/><glyph d="M809 1456q207 0 326.5 -115.5t119.5 -287.5q0 -145 -66.5 -246.5t-293.5 -337.5q-39 -43 -61 -66l-160 -167h497l-24 -234h-971v39l418 448q27 29 113 120t114.5 126t78.5 100.5t67.5 113.5t17.5 98q0 92 -57.5 132t-128.5 40q-84 0 -152.5 -57.5t-85.5 -178.5l-6 -33 h-272l4 43q18 199 156.5 331t365.5 132z" glyph-name="two.tnum" horiz-adv-x="1433"/><glyph d="M397 408q74 -197 277 -197q129 0 214 82t85 209q0 102 -71 164.5t-197 62.5q-72 0 -158 -18l342 493h-545l23 230h933l-397 -537q143 -16 238.5 -123.5t95.5 -263.5q0 -229 -165 -379.5t-408 -150.5q-184 0 -309.5 87t-174.5 228z" glyph-name="three.tnum" horiz-adv-x="1433"/><glyph d="M1251 561l-22 -229h-154l-35 -332h-268l35 332h-619l21 229l711 873h272l-94 -873h153zM487 561h342l58 512z" glyph-name="four.tnum" horiz-adv-x="1433"/><glyph d="M1167 1434l-24 -230h-527l-77 -286q111 61 233 61q184 0 322.5 -126t138.5 -325q0 -246 -170 -397t-401 -151q-184 0 -316.5 85t-175.5 218l217 102q25 -68 88.5 -119t177.5 -51q117 0 215.5 79t98.5 228q0 115 -74 174.5t-170 59.5q-139 0 -248 -109l-219 74l172 713 h739z" glyph-name="five.tnum" horiz-adv-x="1433"/><glyph d="M1178 1434l-486 -555q23 16 80 16q172 0 298 -126t126 -300q0 -219 -152.5 -354t-375.5 -135q-184 0 -316.5 119.5t-132.5 306.5q0 66 18.5 133t39 114t68.5 116t72.5 99.5t86.5 106.5l393 459h281zM723 666q-113 0 -183.5 -73t-70.5 -175q0 -96 64.5 -153.5t156.5 -57.5 q115 0 184.5 73.5t69.5 176.5q0 90 -62.5 149.5t-158.5 59.5z" glyph-name="six.tnum" horiz-adv-x="1433"/><glyph d="M1325 1434l-741 -1434h-267l631 1204h-579l24 230h932z" glyph-name="seven.tnum" horiz-adv-x="1433"/><glyph d="M1022 811q86 -43 141.5 -132t55.5 -202q0 -221 -171 -359t-382 -138q-193 0 -333 115.5t-140 310.5q0 137 77.5 248.5t198.5 166.5q-111 90 -111 234q0 160 123 279.5t322 119.5q178 0 282.5 -98.5t104.5 -245.5q0 -92 -47 -170t-121 -129zM604 1053q0 -63 40 -102.5 t108 -39.5q80 0 132 51.5t52 120.5q0 61 -42 99.5t-108 38.5q-76 0 -129 -48t-53 -120zM680 217q111 0 186.5 75t75.5 187q0 92 -61.5 145.5t-147.5 53.5q-117 0 -191.5 -80t-74.5 -176t59.5 -150.5t153.5 -54.5z" glyph-name="eight.tnum" horiz-adv-x="1433"/><glyph d="M299 0l485 555q-23 -16 -79 -16q-172 0 -298 126t-126 300q0 219 152.5 354t375.5 135q184 0 316 -120t132 -306q0 -106 -46 -216t-96 -177.5t-142 -175.5l-393 -459h-281zM754 768q113 0 183.5 72.5t70.5 175.5q0 96 -64.5 153.5t-157.5 57.5q-115 0 -184.5 -74 t-69.5 -176q0 -90 63 -149.5t159 -59.5z" glyph-name="nine.tnum" horiz-adv-x="1433"/><glyph d="M207 539q96 0 150.5 -73t41.5 -187l-4 -27q-12 -115 -77.5 -185.5t-160 -70.5t-148.5 72.5t-44 187.5l4 27q12 115 79 185.5t159 70.5zM208.5 475q-61.5 0 -108.5 -53t-55 -143l-4 -27q-8 -90 23.5 -141.5t91.5 -51.5q66 0 110.5 52.5t52.5 144.5l5 27q8 92 -23 142 t-92.5 50z" glyph-name="zero.dnom" horiz-adv-x="532"/><glyph d="M143 535l-57 -535h-76l51 453l-38 -23l-31 64l76 41h75z" glyph-name="one.dnom" horiz-adv-x="249"/><glyph d="M164 541q72 0 119 -48.5t41 -109.5q-6 -53 -40 -96t-120 -123l-109 -98h242l-8 -66h-344l8 66l151 143q109 102 125 133q14 23 17 49q4 37 -19.5 61.5t-60.5 24.5q-41 0 -74 -27.5t-39 -76.5l-2 -27h-76l5 31q8 72 61 118t123 46z" glyph-name="two.dnom" horiz-adv-x="452"/><glyph d="M178 539q68 0 114 -43t40 -101q-6 -66 -74 -106q35 -14 56.5 -50t15.5 -87q-8 -68 -66.5 -114t-134.5 -46q-84 0 -132 56t-38 132l76 -4q-4 -49 20.5 -84t71.5 -35t84 29t43 74q4 53 -32 73.5t-109 20.5l2 59q131 0 141 90q2 31 -19.5 51.5t-56.5 20.5q-45 0 -75.5 -29.5 t-36.5 -85.5l-76 5q6 78 59 126t127 48z" glyph-name="three.dnom" horiz-adv-x="477"/><glyph d="M342 535l-33 -316h56l-9 -63h-55l-16 -156h-76l16 156h-270l311 379h76zM254 414l-154 -195h133z" glyph-name="four.dnom" horiz-adv-x="503"/><glyph d="M326 535l-9 -66h-213l-30 -119q47 20 92 21q74 0 126 -56.5t44 -136.5q-8 -78 -69.5 -132t-139.5 -54q-70 0 -119 39t-55 90l70 35q0 -41 27.5 -70t74.5 -29q49 0 89 37t46 92q4 49 -24.5 84t-67.5 35q-72 0 -125 -61l-66 18l66 273h283z" glyph-name="five.dnom" horiz-adv-x="481"/><glyph d="M301 535l-160 -197h11q70 0 117.5 -53.5t41.5 -122.5q-8 -70 -65.5 -120t-124.5 -50q-72 0 -122 53t-42 125q2 27 10 48.5t22.5 45t25 35.5t34 39t31.5 37l135 160h86zM150 272q-47 0 -80 -30.5t-37 -79.5q-6 -45 21.5 -75t64.5 -30q39 0 75.5 32t41.5 81 q4 45 -22.5 73.5t-63.5 28.5z" glyph-name="six.dnom" horiz-adv-x="456"/><glyph d="M350 535l-266 -535h-80l232 469h-248l8 66h354z" glyph-name="seven.dnom" horiz-adv-x="456"/><glyph d="M178 539q76 0 116 -43t36 -99q-8 -70 -74 -106q84 -41 74 -137q-8 -68 -66.5 -113t-134.5 -45q-78 0 -129 47t-43 119q10 90 100 133q-55 43 -49 111q6 53 53 93t117 40zM180 475q-41 0 -66.5 -22.5t-29.5 -55.5q-4 -29 18.5 -52t53.5 -23q37 0 64.5 25.5t31.5 58.5 q4 31 -12.5 50t-59.5 19zM158 258q-47 0 -85 -29.5t-42 -74.5q-4 -41 24.5 -68t71.5 -27q51 0 86 29t41 74q4 43 -22.5 69.5t-73.5 26.5z" glyph-name="eight.dnom" horiz-adv-x="477"/><glyph d="M170 541q72 0 122 -52.5t42 -123.5q-2 -23 -9.5 -43.5t-14.5 -35t-22.5 -36t-22.5 -29.5t-28.5 -31.5t-27.5 -31.5l-133 -158h-88l159 195h-8q-70 0 -119 53t-43 125q8 70 65.5 119t127.5 49zM172 475q-41 0 -78 -31.5t-41 -78.5q-4 -45 23.5 -75t64.5 -30q47 0 79 31 t36 82q6 43 -20.5 72.5t-63.5 29.5z" glyph-name="nine.dnom" horiz-adv-x="458"/><glyph d="M299 1440q96 0 150.5 -73t42.5 -187l-3 -27q-12 -115 -77.5 -185.5t-159.5 -70.5t-149.5 72.5t-43.5 187.5l2 27q12 115 79 185.5t159 70.5zM301 1376q-61 0 -108.5 -53t-55.5 -143l-2 -27q-10 -90 22.5 -141t92.5 -51q66 0 111 52t53 144l2 27q10 90 -21 141t-94 51z " glyph-name="zero.numr" horiz-adv-x="530"/><glyph d="M238 1436l-56 -535h-76l50 453l-37 -23l-33 64l76 41h76z" glyph-name="one.numr" horiz-adv-x="249"/><glyph d="M260 1442q72 0 119 -48t41 -110q-6 -53 -40 -96t-120 -123l-108 -98h241l-6 -66h-344l6 66l152 143q10 8 28.5 25.5t24.5 23.5t20.5 19.5t18.5 19.5t14 16.5t13.5 15.5t8.5 14t7 15.5t5 15.5t3 17q2 37 -21.5 61.5t-60.5 24.5q-41 0 -73.5 -27.5t-36.5 -76.5l-5 -27h-75 l4 31q8 72 61 118t123 46z" glyph-name="two.numr" horiz-adv-x="454"/><glyph d="M272 1440q68 0 114 -43t40 -101q-6 -66 -74 -106q35 -14 56.5 -50t15.5 -87q-6 -68 -65.5 -114t-135.5 -46q-84 0 -132 56.5t-38 131.5l78 -4q-6 -49 19.5 -84t72.5 -35t84 29t41 74q6 53 -29.5 73.5t-109.5 20.5l2 59q131 0 139 91q2 31 -19.5 51t-56.5 20 q-45 0 -75.5 -29.5t-36.5 -84.5l-76 4q8 78 60 126t126 48z" glyph-name="three.numr" horiz-adv-x="475"/><glyph d="M434 1436l-33 -316h56l-6 -63h-56l-16 -156h-76l16 156h-270l309 379h76zM346 1315l-153 -195h133z" glyph-name="four.numr" horiz-adv-x="501"/><glyph d="M420 1436l-6 -66h-213l-31 -119q45 20 92 21q74 0 126 -56.5t44 -136.5q-8 -78 -70.5 -132t-140.5 -54q-70 0 -118 39t-56 90l72 35q-2 -41 26.5 -70t75.5 -29q49 0 88 37t45 92q6 49 -22.5 84t-69.5 35q-72 0 -125 -61l-65 18l65 273h283z" glyph-name="five.numr" horiz-adv-x="483"/><glyph d="M397 1436l-159 -197h10q70 0 119 -53t40.5 -123t-65.5 -120t-125 -50q-72 0 -122 53t-42 125q2 27 10.5 48.5t22.5 45t24.5 35.5t34 39t31.5 37l135 160h86zM248 1174q-47 0 -81 -31t-38 -80q-4 -45 23.5 -75t64.5 -30q39 0 75 32t40 81q6 45 -20.5 74t-63.5 29z" glyph-name="six.numr" horiz-adv-x="458"/><glyph d="M442 1436l-264 -535h-80l232 469h-248l6 66h354z" glyph-name="seven.numr" horiz-adv-x="454"/><glyph d="M272 1440q76 0 117 -43t35 -99q-8 -70 -72 -106q84 -43 72 -137q-6 -68 -64.5 -113t-136.5 -45t-129 47t-43 119q10 90 103 133q-57 41 -52 111q6 53 53 93t117 40zM274 1376q-41 0 -66.5 -22.5t-29.5 -55.5q-4 -29 18.5 -52t53.5 -23q37 0 64.5 25.5t31.5 58.5 q4 31 -12.5 50t-59.5 19zM252 1159q-45 0 -83 -29.5t-44 -74.5q-2 -41 26.5 -67.5t71.5 -26.5q51 0 86 28.5t39 73.5q4 43 -22.5 69.5t-73.5 26.5z" glyph-name="eight.numr" horiz-adv-x="477"/><glyph d="M262 1442q72 0 122 -52.5t42 -123.5q-2 -27 -9 -49.5t-22.5 -45t-26 -36t-34 -40t-31.5 -36.5l-133 -158h-88l160 195h-9q-72 0 -121 54t-40.5 123.5t64.5 119t126 49.5zM264 1376q-41 0 -76.5 -31.5t-42.5 -78.5q-4 -45 24 -75t64 -30q47 0 79 31t38 82q4 43 -22.5 72.5 t-63.5 29.5z" glyph-name="nine.numr" horiz-adv-x="454"/></font>
</defs>
</svg>
