<?xml version="1.0" standalone="no"?>
<!DOCTYPE svg PUBLIC "-//W3C//DTD SVG 1.1//EN" "http://www.w3.org/Graphics/SVG/1.1/DTD/svg11.dtd">
<svg xmlns="http://www.w3.org/2000/svg"><metadata>This SVG WebFont was generated by YouWorkForThem.
© 2016 Connary Fagen</metadata><defs><font horiz-adv-x="1259" id="ywftsvg"><font-face ascent="1638" bbox="-565 -475 2251 1958" cap-height="1434" descent="-410" font-family="" font-stretch="normal" font-weight="500" panose-1="0 0 6 0 0 0 0 0 0 0" underline-position="0" underline-thickness="0" unicode-range="U+0020-FB02" units-per-em="2048" x-height="1065"/><missing-glyph d="M831 1638v-2027h-643v2027h643zM676 1503h-336v-67h133v-76h-135v-66h338v66h-135v76h135v67zM541 1241h-203v-211h338v70h-135v141zM473 1171v-71h-67v71h67zM676 975h-338v-66h135v-75h-135v-68h203v143h135v66zM676 854h-68v-133h-270v-70h338v203zM676 606h-203v-112 h68v45h67v-95h-202v162h-68v-229h338v229zM676 256h-338v-229h338v229zM608 188v-94h-202v94h202zM676 -20h-338v-66h143l-143 -96v-68h338v68h-207l141 96h66v66z" horiz-adv-x="1013"/><glyph d="M664 1303q-55 25 -125 24q-180 0 -201 -188l-8 -74h301l-15 -141h-301l-98 -924h-166l96 924h-116l14 141h119l6 80q35 324 350 323q84 0 158 -28zM815 1284l16 164h168l-18 -164h-166zM678 0l113 1065h167l-112 -1065h-168z" glyph-name="uniFB01" horiz-adv-x="1056" unicode="fi"/><glyph d="M539 1327q-180 0 -201 -188l-8 -74h301l-15 -141h-301l-98 -924h-166l96 924h-116l14 141h119l6 80q35 324 350 323q129 0 230 -65l-68 -113q-67 37 -143 37zM889 1448h166l-154 -1448h-166z" glyph-name="uniFB02" horiz-adv-x="1112" unicode="fl"/><glyph d="M1212 1327q-180 0 -200 -188l-8 -74h301l-15 -141h-301l-98 -924h-166l96 924h-506l-98 -924h-166l96 924h-116l14 141h119l6 80q35 324 350 323q129 0 230 -65l-68 -113q-68 37 -143 37q-180 0 -201 -188l-8 -74h508l6 80q35 324 350 323q129 0 229 -65l-67 -113 q-68 37 -144 37z" glyph-name="f_f.liga" horiz-adv-x="1433" unicode="ff"/><glyph d="M831 1638v-2027h-643v2027h643zM676 1503h-336v-67h133v-76h-135v-66h338v66h-135v76h135v67zM541 1241h-203v-211h338v70h-135v141zM473 1171v-71h-67v71h67zM676 975h-338v-66h135v-75h-135v-68h203v143h135v66zM676 854h-68v-133h-270v-70h338v203zM676 606h-203v-112 h68v45h67v-95h-202v162h-68v-229h338v229zM676 256h-338v-229h338v229zM608 188v-94h-202v94h202zM676 -20h-338v-66h143l-143 -96v-68h338v68h-207l141 96h66v66z" glyph-name=".notdef" horiz-adv-x="1013"/><glyph glyph-name="glyph1" horiz-adv-x="0"/><glyph glyph-name="glyph2" horiz-adv-x="681"/><glyph glyph-name="space" horiz-adv-x="577" unicode=" "/><glyph d="M350 1434l-108 -1031h-189l109 1031h188zM113 -10q-109 0 -97 108q8 92 105 92q106 0 94 -108q-10 -92 -102 -92z" glyph-name="exclam" horiz-adv-x="438" unicode="!"/><glyph d="M283 1434l-64 -430h-127l23 430h168zM569 1434l-63 -430h-127l22 430h168z" glyph-name="quotedbl" horiz-adv-x="595" unicode="&quot;"/><glyph d="M1018 918h-160l-72 -400h191l-16 -149h-199l-66 -369h-170l66 369h-264l-66 -369h-170l66 369h-140l17 149h147l72 400h-178l16 147h189l65 369h170l-65 -369h264l65 369h170l-65 -369h149zM616 518l72 400h-264l-72 -400h264z" glyph-name="numbersign" horiz-adv-x="1126" unicode="#"/><glyph d="M592 801q188 -74 283.5 -164t95.5 -229q0 -186 -138.5 -304t-328.5 -133l-17 -155h-100l16 155q-164 14 -276.5 111.5t-138.5 241.5l139 59q25 -106 100.5 -175t192.5 -81l57 555l-37 14q-156 63 -237.5 149.5t-81.5 217.5q0 164 126 274.5t312 120.5l16 162h101 l-17 -166q133 -18 227.5 -103t129.5 -196l-135 -63q-74 180 -238 208l-53 -499h2zM492 840h2l49 463q-115 -10 -184.5 -75t-69.5 -163q0 -78 49.5 -131t153.5 -94zM520 129q119 16 198 90t79 184q0 88 -55.5 140.5t-168.5 99.5z" glyph-name="dollar" horiz-adv-x="1097" unicode="$"/><glyph d="M358 1444q109 0 177.5 -76t56.5 -184q-10 -102 -90 -173t-183 -71q-109 0 -177 76t-56 184q10 102 90 173t182 71zM1133 1438l122 -86l-1044 -1352l-127 86zM354 1327q-59 0 -103 -41t-50 -102q-4 -55 31.5 -91t91.5 -36q59 0 104 41t49 102q4 55 -32 91t-91 36z M1036 494q109 0 177.5 -76t56.5 -185q-10 -102 -90 -172.5t-183 -70.5q-109 0 -177 75.5t-56 184.5q10 102 90 173t182 71zM1034 377q-59 0 -104 -41t-49 -103q-6 -53 29.5 -90t90.5 -37q59 0 104.5 41t49.5 103q4 55 -31 91t-90 36z" glyph-name="percent" horiz-adv-x="1429" unicode="%"/><glyph d="M1194 139q66 0 133 37l-14 -139q-68 -47 -148 -47q-98 0 -141 56t-31 151l6 63q-66 -129 -188.5 -207t-286.5 -78q-199 0 -336 116t-137 317q0 205 137.5 333.5t327.5 149.5l-244 543h840l-14 -148h-604l233 -516h-88q-176 0 -297 -95t-121 -251q0 -139 95.5 -219 t236.5 -80q162 0 283.5 103.5t138.5 252.5l37 353h319l-14 -142h-160l-47 -444q-6 -59 13.5 -84t70.5 -25z" glyph-name="ampersand" horiz-adv-x="1435" unicode="&amp;"/><glyph d="M283 1434l-64 -430h-127l23 430h168z" glyph-name="quotesingle" horiz-adv-x="311" unicode="'"/><glyph d="M518 1522q-248 -379 -299 -875q-55 -516 109 -917l-156 8q-180 393 -121 926q51 504 305 866z" glyph-name="parenleft" horiz-adv-x="552" unicode="("/><glyph d="M143 1530l156 -8q182 -369 127 -875q-53 -528 -311 -917l-162 8q248 397 303 926q53 491 -113 866z" glyph-name="parenright" horiz-adv-x="552" unicode=")"/><glyph d="M825 1155l-231 -61l127 -193l-129 -78l-111 189l-151 -189l-117 78l164 193l-213 61l47 141l223 -69l19 237h143l-29 -237l236 69z" glyph-name="asterisk" horiz-adv-x="968" unicode="*"/><glyph d="M725 633l-12 -115h-285l-31 -285h-114l30 285h-284l12 115h285l30 285h115l-31 -285h285z" glyph-name="plus" horiz-adv-x="858" unicode="+"/><glyph d="M-125 -268l209 456h158l-226 -456h-141z" glyph-name="comma" horiz-adv-x="401" unicode=","/><glyph d="M688 641l-14 -137h-635l14 137h635z" glyph-name="hyphen" horiz-adv-x="821" unicode="-"/><glyph d="M59 -20q-43 0 -69.5 25.5t-26.5 70.5q0 47 28.5 75.5t76.5 28.5q43 0 69.5 -25.5t26.5 -68.5q0 -47 -30 -76.5t-75 -29.5z" glyph-name="period" horiz-adv-x="335" unicode="."/><glyph d="M999 1526l-884 -1792h-174l884 1792h174z" glyph-name="slash" horiz-adv-x="1032" unicode="/"/><glyph d="M854 1454q272 0 469 -188.5t197 -477.5q0 -215 -114 -402t-300 -296.5t-395 -109.5q-272 0 -468 187t-196 476q0 328 244 569.5t563 241.5zM723 135q242 0 434.5 192.5t192.5 454.5q0 221 -151.5 368.5t-356.5 147.5q-242 0 -433.5 -192.5t-191.5 -454.5 q0 -221 150.5 -368.5t355.5 -147.5z" glyph-name="zero" horiz-adv-x="1640" unicode="0"/><glyph d="M524 1434l-151 -1434h-170l135 1284h-203l15 150h374z" glyph-name="one" horiz-adv-x="638" unicode="1"/><glyph d="M588 1454q184 0 298.5 -108.5t114.5 -272.5q0 -33 -5 -64.5t-11 -57t-24.5 -59.5t-29.5 -55.5t-42 -59.5t-47.5 -58.5t-59.5 -67.5t-64.5 -68.5t-77.5 -79t-83 -85.5l-258 -268h604l-16 -150h-899l4 35l424 448q35 37 99.5 104.5t93 97.5t73.5 81t64.5 82t43 72 t31.5 77.5t8 75.5q0 109 -71.5 168t-175.5 59q-119 0 -211 -76.5t-105 -219.5l-4 -31h-172l4 37q20 195 156.5 319.5t337.5 124.5z" glyph-name="two" horiz-adv-x="1089" unicode="2"/><glyph d="M133 356q37 -109 120 -168t204 -59q160 0 269.5 101.5t109.5 256.5q0 131 -87 203t-233 72q-47 0 -125 -14l389 538h-614l16 148h869l-422 -562q154 -4 263 -107t109 -271q0 -227 -160.5 -370.5t-387.5 -143.5q-178 0 -298 87t-159 224z" glyph-name="three" horiz-adv-x="1150" unicode="3"/><glyph d="M977 522l-14 -147h-154l-41 -375h-170l41 375h-635l16 147l730 912h170l-97 -912h154zM199 522h454l72 672z" glyph-name="four" horiz-adv-x="1105" unicode="4"/><glyph d="M979 1434l-14 -148h-574l-106 -424q113 109 305 109q180 0 313 -123t133 -320q0 -242 -165.5 -395t-393.5 -153q-180 0 -301 83.5t-162 215.5l138 63q31 -88 109.5 -149.5t211.5 -61.5q158 0 276.5 110.5t118.5 280.5q0 139 -90 221t-215 82q-182 0 -317 -145l-146 45 l172 709h707z" glyph-name="five" horiz-adv-x="1163" unicode="5"/><glyph d="M864 1434l-508 -598q76 49 179 49q174 0 296.5 -120t122.5 -296q0 -211 -150.5 -350t-363.5 -139q-182 0 -306 116.5t-124 298.5q0 109 46 219.5t94.5 177t123.5 158.5q16 18 25 29l383 455h182zM508 735q-150 0 -245 -95t-95 -241q0 -123 82 -197.5t203 -74.5 q139 0 241.5 97.5t102.5 242.5q0 121 -85 194.5t-204 73.5z" glyph-name="six" horiz-adv-x="1087" unicode="6"/><glyph d="M971 1434l-723 -1434h-168l651 1286h-647l16 148h871z" glyph-name="seven" horiz-adv-x="1001" unicode="7"/><glyph d="M760 801q96 -43 155.5 -132t59.5 -206q0 -215 -158 -349t-362 -134q-184 0 -312.5 109.5t-128.5 291.5q0 145 82 258t213 168q-139 94 -139 258q0 160 122 274.5t304 114.5q168 0 266.5 -94t98.5 -234q0 -208 -201 -325zM328 1061q0 -84 58 -140.5t151 -56.5 q109 0 185.5 74t76.5 174q0 82 -56.5 137.5t-152.5 55.5q-115 0 -188.5 -74t-73.5 -170zM461 133q139 0 240.5 92t101.5 238q0 115 -78 184.5t-197 69.5q-143 0 -242.5 -96.5t-99.5 -231.5q0 -117 78 -186.5t197 -69.5z" glyph-name="eight" horiz-adv-x="1124" unicode="8"/><glyph d="M180 0l508 598q-76 -49 -178 -49q-174 0 -297 119.5t-123 296.5q0 211 150.5 350t363.5 139q182 0 306 -116.5t124 -299.5q0 -88 -23.5 -169t-80 -167t-84 -122.5t-101.5 -124.5l-383 -455h-182zM537 698q150 0 245 95.5t95 240.5q0 123 -82 198t-203 75 q-139 0 -241.5 -97.5t-102.5 -242.5q0 -121 86 -195t203 -74z" glyph-name="nine" horiz-adv-x="1107" unicode="9"/><glyph d="M170 838q-43 0 -69.5 25.5t-26.5 70.5t28.5 74.5t75.5 29.5q43 0 69.5 -25.5t26.5 -68.5q0 -47 -29.5 -76.5t-74.5 -29.5zM80 -20q-43 0 -69.5 25.5t-26.5 70.5q0 47 28.5 75.5t75.5 28.5q43 0 69.5 -25.5t26.5 -68.5q0 -47 -29.5 -76.5t-74.5 -29.5z" glyph-name="colon" horiz-adv-x="358" unicode=":"/><glyph d="M238 838q-43 0 -70 25.5t-27 70.5t30 74.5t75 29.5q43 0 69.5 -25.5t26.5 -68.5q0 -47 -29.5 -76.5t-74.5 -29.5zM-125 -268l209 456h158l-226 -456h-141z" glyph-name="semicolon" horiz-adv-x="425" unicode=";"/><glyph d="M932 985l-17 -162l-653 -331l584 -328l-19 -164l-804 461l8 63z" glyph-name="less" horiz-adv-x="1007" unicode="&lt;"/><glyph d="M745 809l-14 -139h-686l14 139h686zM713 473l-17 -137h-686l17 137h686z" glyph-name="equal" horiz-adv-x="808" unicode="="/><glyph d="M59 985l807 -461l-8 -63l-903 -461l18 164l656 328l-586 331z" glyph-name="greater" horiz-adv-x="1009" unicode=">"/><glyph d="M571.5 1454q194.5 0 313.5 -115.5t98 -302.5q-8 -82 -51 -148.5t-99.5 -111.5t-112.5 -89t-98 -106.5t-51 -140.5l-2 -41h-172l4 43q8 92 51.5 166t100.5 123t113.5 93t99.5 101.5t51 125.5q10 111 -57.5 183.5t-194.5 72.5t-214 -82t-101 -219h-168q20 209 157.5 328.5 t332 119.5zM465 -10q-109 0 -96 108q12 92 104 92q109 0 96 -108q-12 -92 -104 -92z" glyph-name="question" horiz-adv-x="1052" unicode="?"/><glyph d="M852 1454q270 0 457.5 -180t187.5 -477q0 -201 -81 -336t-236 -135q-98 0 -145.5 49t-43.5 135q-37 -88 -111.5 -137t-164.5 -49q-127 0 -221.5 87t-94.5 253q0 190 116 309t267 119q76 0 140.5 -39t81.5 -107l34 127h101l-45 -428q-4 -45 -4 -59q0 -135 90 -135 q59 0 100 58t55.5 132t14.5 156q0 238 -143.5 378t-356.5 140q-268 0 -459.5 -187.5t-191.5 -468.5q0 -240 153.5 -390t356.5 -150q123 0 202.5 27.5t159.5 84.5l131 -59q-182 -193 -491 -192q-266 0 -464 191t-198 491q0 221 113.5 405t298 285.5t391.5 101.5zM782 958 q-98 0 -172.5 -78.5t-74.5 -213.5q0 -100 53 -154.5t131 -54.5q104 0 175 88t71 211q0 94 -52.5 148t-130.5 54z" glyph-name="at" horiz-adv-x="1617" unicode="@"/><glyph d="M1151 0l-113 338h-747l-182 -338h-185l783 1434h141l481 -1434h-178zM371 481h620l-233 729z" glyph-name="A" horiz-adv-x="1476" unicode="A"/><glyph d="M778 786q125 -29 200 -123t75 -219q0 -217 -151.5 -330.5t-409.5 -113.5h-486l152 1434h485q188 0 288.5 -88.5t100.5 -225.5q0 -115 -65.5 -203t-188.5 -131zM623 1282h-312l-45 -438h303q129 0 211 71.5t82 182.5q0 86 -62 135t-177 49zM498 152q182 0 285.5 79.5 t103.5 227.5q0 109 -79 176t-237 67h-321l-57 -550h305z" glyph-name="B" horiz-adv-x="1187" unicode="B"/><glyph d="M1208 150q-221 -170 -495 -170q-272 0 -469 187t-197 476q0 215 113.5 403.5t300 298t395.5 109.5q270 0 461 -174l-117 -113q-143 125 -344 125q-252 0 -443.5 -190.5t-189.5 -454.5q0 -221 151.5 -363.5t362.5 -142.5q203 0 377 135z" glyph-name="C" horiz-adv-x="1361" unicode="C"/><glyph d="M580 1434q313 0 498.5 -209t154.5 -514q-33 -301 -259 -506t-538 -205h-430l152 1434h422zM444 162q252 0 422 160.5t195 402.5q25 233 -109.5 390t-384.5 157h-256l-118 -1110h251z" glyph-name="D" horiz-adv-x="1351" unicode="D"/><glyph d="M193 160h681l-16 -160h-852l152 1434h833l-18 -160h-662l-49 -475h516l-16 -156h-518z" glyph-name="E" horiz-adv-x="1056" unicode="E"/><glyph d="M983 1280h-672l-51 -485h555l-16 -146h-555l-68 -649h-170l152 1434h841z" glyph-name="F" horiz-adv-x="1028" unicode="F"/><glyph d="M856 725h582q-10 -338 -220 -541.5t-501 -203.5q-276 0 -473 187t-197 476q0 215 113.5 403.5t300 298t395.5 109.5q270 0 461 -174l-117 -113q-143 125 -344 125q-254 0 -444.5 -190.5t-188.5 -454.5q0 -221 148.5 -363.5t363.5 -142.5q188 0 337 115t194 326h-426z" glyph-name="G" horiz-adv-x="1564" unicode="G"/><glyph d="M1057 1434h170l-152 -1434h-170l66 627h-729l-66 -627h-170l152 1434h170l-68 -648h727z" glyph-name="H" horiz-adv-x="1306" unicode="H"/><glyph d="M328 1434l-152 -1434h-170l152 1434h170z" glyph-name="I" horiz-adv-x="407" unicode="I"/><glyph d="M926 1434l-101 -957q-27 -258 -165 -380t-326 -122q-133 0 -228.5 53.5t-142.5 145.5l117 113q82 -147 260 -148q279 0 317 361l99 934h170z" glyph-name="J" horiz-adv-x="1005" unicode="J"/><glyph d="M942 0l-483 668l-236 -228l-47 -440h-170l152 1434h170l-82 -766l780 766h213l-664 -650l564 -784h-197z" glyph-name="K" horiz-adv-x="1306" unicode="K"/><glyph d="M193 160h643l-17 -160h-813l152 1434h170z" glyph-name="L" horiz-adv-x="997" unicode="L"/><glyph d="M1642 1434l-151 -1434h-170l113 1051l-613 -1051h-137l-395 1049l-113 -1049h-170l152 1434h164l450 -1194l701 1194h169z" glyph-name="M" horiz-adv-x="1722" unicode="M"/><glyph d="M1157 1434h170l-151 -1434h-129l-750 1124l-121 -1124h-170l152 1434h129l749 -1127z" glyph-name="N" horiz-adv-x="1406" unicode="N"/><glyph d="M854 1454q272 0 469 -188.5t197 -477.5q0 -215 -114 -402t-300 -296.5t-395 -109.5q-272 0 -468 187t-196 476q0 328 244 569.5t563 241.5zM723 141q242 0 431 189.5t189 451.5q0 221 -148 365.5t-353 144.5q-242 0 -430.5 -189.5t-188.5 -451.5q0 -221 147.5 -365.5 t352.5 -144.5z" glyph-name="O" horiz-adv-x="1640" unicode="O"/><glyph d="M621 1434q236 0 360.5 -131.5t101.5 -337.5q-20 -203 -167.5 -326t-385.5 -123h-299l-55 -516h-170l152 1434h463zM537 668q158 0 261 81.5t117 229.5q14 141 -68.5 218t-240.5 77h-295l-63 -606h289z" glyph-name="P" horiz-adv-x="1161" unicode="P"/><glyph d="M1520 788q0 -180 -80 -340.5t-217 -275.5l118 -172h-198l-56 80q-182 -100 -376 -100q-272 0 -468 187t-196 476q0 328 244 569.5t563 241.5q272 0 469 -188.5t197 -477.5zM721 141q145 0 272 72l-274 391h201l208 -297q215 195 215 475q0 221 -147 365.5t-350 144.5 q-244 0 -433.5 -189.5t-189.5 -451.5q0 -221 147.5 -365.5t350.5 -144.5z" glyph-name="Q" horiz-adv-x="1640" unicode="Q"/><glyph d="M1059 0h-185l-307 516h-336l-55 -516h-170l152 1434h463q236 0 360.5 -131.5t101.5 -337.5q-16 -152 -108 -263.5t-244 -156.5zM248 668h289q158 0 261 81.5t117 229.5q14 141 -68.5 218t-240.5 77h-295z" glyph-name="R" horiz-adv-x="1243" unicode="R"/><glyph d="M590 1458q160 0 272.5 -89t153.5 -214l-135 -63q-88 213 -299 213q-129 0 -211 -65.5t-82 -174.5q0 -78 49 -131t154 -94l100 -39q188 -74 283.5 -164t95.5 -229q0 -197 -154.5 -318t-357.5 -121q-184 0 -313.5 99.5t-157.5 255.5l139 59q27 -117 115 -187.5t221 -70.5 q137 0 235.5 77t98.5 201q0 94 -61.5 147.5t-192.5 104.5l-103 41q-156 63 -237.5 149.5t-81.5 217.5q0 172 136 283.5t333 111.5z" glyph-name="S" horiz-adv-x="1097" unicode="S"/><glyph d="M1083 1434l-16 -160h-393l-135 -1274h-170l135 1274h-395l18 160h956z" glyph-name="T" horiz-adv-x="1122" unicode="T"/><glyph d="M1022 1434h170l-96 -918q-27 -256 -187.5 -401.5t-384.5 -145.5q-227 0 -361 149.5t-108 405.5l97 910h170l-97 -916q-18 -190 68 -288.5t235 -98.5q156 0 267.5 100.5t130.5 292.5z" glyph-name="U" horiz-adv-x="1271" unicode="U"/><glyph d="M1305 1434h184l-784 -1434h-142l-479 1434h178l393 -1211z" glyph-name="V" horiz-adv-x="1486" unicode="V"/><glyph d="M2021 1434l-616 -1434h-111l-274 1122l-512 -1122h-111l-313 1434h174l234 -1088l499 1088h117l270 -1088l465 1088h178z" glyph-name="W" horiz-adv-x="2019" unicode="W"/><glyph d="M1194 0h-201l-348 590l-475 -590h-205l592 735l-414 699h201l326 -553l444 553h205l-561 -699z" glyph-name="X" horiz-adv-x="1372" unicode="X"/><glyph d="M1343 1434l-616 -772l-72 -662h-170l72 662l-453 772h193l356 -617l494 617h196z" glyph-name="Y" horiz-adv-x="1361" unicode="Y"/><glyph d="M1204 1434l-952 -1284h823l-14 -150h-1106l952 1286h-768l17 148h1048z" glyph-name="Z" horiz-adv-x="1239" unicode="Z"/><glyph d="M485 1526l-16 -148h-174l-158 -1495h174l-14 -149h-344l188 1792h344z" glyph-name="bracketleft" horiz-adv-x="528" unicode="["/><glyph d="M129 1526h170l508 -1792h-170z" glyph-name="backslash" horiz-adv-x="1026" unicode="\"/><glyph d="M141 1526h344l-188 -1792h-344l16 149h172l158 1495h-172z" glyph-name="bracketright" horiz-adv-x="528" unicode="]"/><glyph d="M586 1434l293 -461h-131l-230 301l-299 -301h-139l391 461h115z" glyph-name="asciicircum" horiz-adv-x="983" unicode="^"/><glyph d="M1004 0l-15 -150h-1024l15 150h1024z" glyph-name="underscore" horiz-adv-x="1208" unicode="_"/><glyph d="M98 1516h201l182 -326h-123z" glyph-name="grave" horiz-adv-x="415" unicode="`"/><glyph d="M606 1083q137 0 236.5 -65.5t128.5 -155.5l24 203h166l-112 -1065h-166l22 201q-49 -96 -157.5 -158.5t-245.5 -62.5q-190 0 -337 131t-147 360q0 252 174 432t414 180zM612 934q-180 0 -305 -131t-125 -320q0 -168 104.5 -261t243.5 -93q172 0 296 129t124 332 q0 166 -100.5 255t-237.5 89z" glyph-name="a" unicode="a"/><glyph d="M666 1085q186 0 332.5 -132t146.5 -367q0 -250 -172 -428t-416 -178q-137 0 -238.5 68.5t-125.5 160.5l-25 -209h-168l154 1448h168l-64 -580q47 88 159 152.5t249 64.5zM557 129q170 0 298 127t128 326q0 170 -104.5 262t-241.5 92q-184 0 -304 -135t-120 -330 q0 -166 100.5 -254t243.5 -88z" glyph-name="b" horiz-adv-x="1265" unicode="b"/><glyph d="M621 1085q147 0 259.5 -67.5t168.5 -194.5l-138 -53q-86 166 -303 166q-174 0 -301 -132t-127 -327q0 -166 103.5 -257t240.5 -91q211 0 336 170l131 -63q-168 -256 -475 -256q-193 0 -345.5 132t-152.5 363q0 256 177.5 433t425.5 177z" glyph-name="c" horiz-adv-x="1134" unicode="c"/><glyph d="M1036 1448h166l-153 -1448h-166l22 201q-49 -96 -157.5 -158.5t-245.5 -62.5q-190 0 -337 131t-147 360q0 254 174.5 434t413.5 180q137 0 236.5 -65.5t128.5 -157.5zM612 936q-180 0 -305 -131t-125 -322q0 -168 104.5 -261t243.5 -93q172 0 296 129t124 332 q0 168 -100.5 257t-237.5 89z" glyph-name="d" unicode="d"/><glyph d="M618 1085q182 0 330 -123.5t148 -351.5q0 -72 -15 -143h-901q2 -166 106.5 -255t258.5 -89q203 0 336 117l88 -90q-156 -170 -434 -170q-209 0 -363 130t-154 361q0 254 178 434t422 180zM614 940q-137 0 -259 -91t-158 -255h749q4 166 -97.5 256t-234.5 90z" glyph-name="e" horiz-adv-x="1214" unicode="e"/><glyph d="M539 1327q-180 0 -201 -188l-8 -74h301l-15 -141h-301l-98 -924h-166l96 924h-116l14 141h119l6 80q35 324 350 323q129 0 230 -65l-68 -113q-67 37 -143 37z" glyph-name="f" horiz-adv-x="759" unicode="f"/><glyph d="M995 1065h166l-112 -1065q-12 -115 -66.5 -201t-133.5 -132t-161 -67.5t-164 -21.5q-209 0 -313 82l10 139q94 -78 305 -78q143 0 242.5 75t114.5 204l22 201q-49 -96 -157.5 -158.5t-245.5 -62.5q-190 0 -337 131t-147 360q0 254 174.5 434t413.5 180q137 0 236.5 -65.5 t128.5 -157.5zM612 936q-180 0 -305 -131t-125 -322q0 -168 104.5 -261t243.5 -93q172 0 296 129t124 332q0 168 -100.5 257t-237.5 89z" glyph-name="g" unicode="g"/><glyph d="M668 1085q168 0 274.5 -116.5t81.5 -350.5l-66 -618h-167l67 616q16 162 -52.5 242t-184.5 80q-137 0 -246 -98.5t-139 -206.5l-68 -633h-168l154 1448h168l-68 -627q29 82 142.5 173t271.5 91z" glyph-name="h" horiz-adv-x="1167" unicode="h"/><glyph d="M137 1284l17 164h168l-19 -164h-166zM0 0l113 1065h168l-113 -1065h-168z" glyph-name="i" horiz-adv-x="378" unicode="i"/><glyph d="M201 1284l16 164h166l-16 -164h-166zM-70 -422q-117 0 -190 55l8 160q72 -45 156 -45q133 0 151 166l121 1151h166l-125 -1190q-31 -297 -287 -297z" glyph-name="j" horiz-adv-x="440" unicode="j"/><glyph d="M774 0l-405 475l-166 -153l-35 -322h-168l154 1448h168l-99 -920l559 537h205l-504 -479l488 -586h-197z" glyph-name="k" horiz-adv-x="1107" unicode="k"/><glyph d="M322 1448l-154 -1448h-168l154 1448h168z" glyph-name="l" horiz-adv-x="378" unicode="l"/><glyph d="M1382 1085q166 0 271.5 -114.5t81.5 -352.5l-66 -618h-166l68 629q16 154 -49.5 231.5t-184.5 77.5q-133 0 -225 -90t-127 -219l-67 -629h-166l67 629q16 152 -53.5 230.5t-185.5 78.5q-131 0 -222.5 -94t-121.5 -215l-68 -629h-168l113 1065h168l-27 -248 q18 84 117.5 176t249.5 92q121 0 219 -68.5t131 -199.5q45 102 153 185t258 83z" glyph-name="m" horiz-adv-x="1880" unicode="m"/><glyph d="M668 1085q168 0 274.5 -116.5t81.5 -350.5l-66 -618h-167l67 616q16 162 -52.5 242t-184.5 80q-137 0 -246 -98.5t-139 -206.5l-68 -633h-168l113 1065h168l-27 -244q29 82 142.5 173t271.5 91z" glyph-name="n" horiz-adv-x="1167" unicode="n"/><glyph d="M618 1085q190 0 343 -133t153 -364q0 -254 -177 -431t-423 -177q-190 0 -343 132t-153 363q0 256 177 433t423 177zM528 129q158 0 291 123t133 332q0 168 -105.5 260t-242.5 92q-158 0 -291 -123t-133 -334q0 -166 105.5 -258t242.5 -92z" glyph-name="o" horiz-adv-x="1234" unicode="o"/><glyph d="M659 1085q205 0 356.5 -150.5t125.5 -410.5q-14 -131 -73.5 -237.5t-144.5 -172t-180.5 -100t-187.5 -34.5q-139 0 -236.5 66.5t-125.5 162.5l-66 -598h-168l72 668l82 786h168l-23 -197q49 92 157.5 154.5t243.5 62.5zM541 129q152 0 284.5 108.5t153.5 301.5 q20 188 -86.5 292.5t-255.5 104.5q-152 0 -275.5 -108.5t-146.5 -303.5q-20 -188 79.5 -291.5t246.5 -103.5z" glyph-name="p" horiz-adv-x="1265" unicode="p"/><glyph d="M995 1065h166l-112 -1065l-41 -389h-166l63 590q-49 -96 -157.5 -158.5t-245.5 -62.5q-119 0 -226.5 52t-182.5 167.5t-75 269.5q0 256 173.5 436t414.5 180q137 0 236.5 -65.5t128.5 -157.5zM524 129q176 0 301 129t125 336q0 166 -96 254t-231 88q-184 0 -313.5 -135 t-129.5 -326q0 -164 103.5 -255t240.5 -91z" glyph-name="q" unicode="q"/><glyph d="M670 1083q27 0 63 -4l-18 -157q-18 4 -47 4q-158 0 -281 -106.5t-162 -284.5l-57 -535h-168l113 1065h168l-31 -277q45 123 159 209t261 86z" glyph-name="r" horiz-adv-x="768" unicode="r"/><glyph d="M606 813q-49 135 -194 135q-86 0 -139.5 -47t-53.5 -119q0 -100 129 -147l105 -37q139 -49 208.5 -110.5t69.5 -172.5q0 -158 -122 -246.5t-281 -88.5q-145 0 -248 76.5t-117 209.5l137 33q14 -86 77 -134t155 -48q96 0 165.5 50t69.5 138q0 102 -151 160l-117 41 q-242 86 -242 276q0 129 103.5 216t253.5 87q129 0 215 -64.5t114 -172.5z" glyph-name="s" horiz-adv-x="868" unicode="s"/><glyph d="M584 924h-224l-71 -682q-14 -104 71 -105q66 0 144 31l-17 -143q-68 -37 -176 -37q-94 0 -148 58t-42 190l72 688h-146l14 141h146l26 250h168l-26 -250h223z" glyph-name="t" horiz-adv-x="673" unicode="t"/><glyph d="M389 -20q-168 0 -274.5 117.5t-81.5 351.5l63 616h166l-63 -616q-16 -160 53.5 -240t187.5 -80q141 0 243.5 97.5t135.5 211.5l68 627h166l-113 -1065h-166l27 240q-31 -80 -143.5 -170t-268.5 -90z" glyph-name="u" horiz-adv-x="1150" unicode="u"/><glyph d="M1128 1067l-581 -1067h-135l-357 1067h166l279 -848l458 848h170z" glyph-name="v" horiz-adv-x="1175" unicode="v"/><glyph d="M1661 1067h170l-514 -1067h-146l-245 872l-434 -872h-146l-291 1067h166l221 -848l424 848h152l244 -848z" glyph-name="w" horiz-adv-x="1878" unicode="w"/><glyph d="M770 0l-266 420l-359 -420h-198l471 545l-330 520h188l248 -397l336 397h193l-443 -520l355 -545h-195z" glyph-name="x" horiz-adv-x="1138" unicode="x"/><glyph d="M969 1067h172l-801 -1456h-172l238 426l-351 1030h164l287 -848z" glyph-name="y" horiz-adv-x="1187" unicode="y"/><glyph d="M1004 1065l-771 -915h652l-17 -150h-931l770 918h-615l17 147h895z" glyph-name="z" horiz-adv-x="1052" unicode="z"/><glyph d="M547 1526l-17 -148h-67q-33 0 -57.5 -20.5t-26.5 -50.5l-53 -541l-109 -139l76 -135l-55 -545q-6 -63 61 -64h74l-15 -149h-133q-74 0 -123 48t-39 136l62 563l-78 146l105 149l61 572q10 90 66.5 134t128.5 44h139z" glyph-name="braceleft" horiz-adv-x="589" unicode="{"/><glyph d="M362 1638l-212 -2027h-150l213 2027h149z" glyph-name="bar" horiz-adv-x="456" unicode="|"/><glyph d="M141 1526h133q72 0 121 -48t39 -137l-61 -565l80 -149l-107 -146l-61 -569q-10 -90 -64.5 -134t-128.5 -44h-139l14 149h70q33 0 56.5 19.5t25.5 50.5l55 539l111 135l-78 139l55 547q6 66 -61 65h-76z" glyph-name="braceright" horiz-adv-x="589" unicode="}"/><glyph d="M279 727q92 0 199.5 -71.5t176.5 -71.5q53 0 89 26.5t40 57.5l76 -6q-8 -98 -72.5 -154.5t-162.5 -56.5q-94 0 -204 76.5t-183 76.5q-53 0 -89 -31.5t-38 -66.5l-76 6q10 98 77 156.5t167 58.5z" glyph-name="asciitilde" horiz-adv-x="995" unicode="~"/><glyph d="M213 1075q109 0 96 -108q-10 -92 -104 -93q-106 0 -94 109q8 92 102 92zM-25 -369l109 1031h188l-108 -1031h-189z" glyph-name="exclamdown" horiz-adv-x="438" unicode="¡"/><glyph d="M580 317q188 12 301 168l131 -63q-158 -242 -447 -256l-18 -166h-94l18 170q-176 25 -304 153t-128 339q0 242 158.5 413.5t390.5 194.5l16 164h94l-16 -164q133 -8 235.5 -75t151.5 -185l-137 -54q-80 152 -266 164zM201 664q0 -147 83 -235.5t203 -109.5l84 799 q-158 -23 -264 -150.5t-106 -303.5z" glyph-name="cent" horiz-adv-x="1136" unicode="¢"/><glyph d="M1051 967h-154q6 55 6 86q0 113 -71.5 179t-192.5 66q-137 0 -229.5 -81.5t-92.5 -219.5q0 -80 70 -272h352l-14 -127h-301q6 -37 6 -74q0 -106 -56.5 -208.5t-154.5 -168.5l735 3l-14 -150h-952l14 152q268 172 268 376q0 37 -6 70h-201l15 127h147q-70 186 -69 287 q0 193 143 314.5t352 121.5q186 0 301 -101.5t115 -273.5q0 -43 -16 -106z" glyph-name="sterling" horiz-adv-x="1155" unicode="£"/><glyph d="M1004 967q-16 -139 -99 -242l84 -92l-127 -119l-82 88q-127 -86 -276.5 -86t-261.5 90l-101 -92l-110 119l104 96q-63 119 -47 254q12 139 100 248l-84 92l127 117l84 -90q125 84 273 84q150 0 260 -88l102 94l113 -117l-111 -100q66 -121 52 -256zM231 967 q-12 -117 65 -210t210 -93q139 0 240.5 98t113.5 221q12 117 -65.5 210t-210.5 93q-137 0 -239 -98t-114 -221z" glyph-name="currency" horiz-adv-x="1101" unicode="¤"/><glyph d="M727 662l-12 -105h278l-12 -119h-279l-12 -116h279l-13 -119h-278l-23 -203h-170l23 203h-275l13 119h274l12 116h-274l12 119h275l12 105l-453 772h193l356 -617l494 617h196z" glyph-name="yen" horiz-adv-x="1361" unicode="¥"/><glyph d="M362 1638l-59 -573h-149l59 573h149zM211 184l-61 -573h-150l61 573h150z" glyph-name="brokenbar" horiz-adv-x="456" unicode="¦"/><glyph d="M1001 1196h-155l26 197q-18 31 -83.5 61.5t-159.5 30.5q-137 0 -226.5 -67.5t-89.5 -180.5q0 -143 189 -215l139 -53q166 -63 254 -147.5t88 -227.5q0 -203 -170 -324q90 -90 90 -229q0 -199 -155.5 -314.5t-389.5 -115.5q-162 0 -277.5 57.5t-148.5 118.5l39 276h156 l-29 -198q23 -35 94.5 -68t172.5 -33q152 0 259 77t107 204q0 92 -57.5 140t-175.5 96l-133 49q-297 115 -297 350q0 207 176 319q-96 96 -97 234q0 180 140.5 292.5t349.5 112.5q145 0 260 -55t143 -108zM575 834l-131 49q-33 12 -47 20q-164 -63 -164 -219 q0 -141 189 -215l141 -53q55 -20 103 -45q143 78 143 227q0 92 -57.5 140.5t-176.5 95.5z" glyph-name="section" horiz-adv-x="1091" unicode="§"/><glyph d="M254 1436l-16 -154h-160l16 154h160zM711 1436l-17 -154h-159l16 154h160z" glyph-name="dieresis" horiz-adv-x="616" unicode="¨"/><glyph d="M838 1448q262 0 455.5 -186.5t193.5 -473.5q0 -326 -232.5 -564t-558.5 -238q-262 0 -455.5 185t-193.5 474q0 326 232.5 564.5t558.5 238.5zM700 137q266 0 449.5 194.5t183.5 456.5q0 221 -148.5 364.5t-350.5 143.5q-260 0 -447.5 -190.5t-187.5 -460.5 q0 -221 149 -364.5t352 -143.5zM750 436q117 0 198 82l86 -110q-121 -117 -291 -117q-158 0 -269.5 108.5t-111.5 276.5q0 197 140.5 332t316.5 135q174 0 277 -123l-99 -96q-61 74 -175.5 73.5t-212 -93.5t-97.5 -224q0 -104 72 -174t166 -70z" glyph-name="copyright" horiz-adv-x="1607" unicode="©"/><glyph d="M414 1452q274 0 243 -313l-20 -197q-6 -61 0 -91t31 -69h-121q-33 47 -29 97q-86 -100 -225 -101q-98 0 -161.5 50.5t-63.5 140.5q0 188 276 215l191 20q12 137 -136 137q-111 0 -211 -86l-61 80q107 117 287 117zM524 1102l-182 -23q-147 -14 -147 -106 q0 -39 29.5 -62.5t82.5 -23.5q74 0 128 41t79 88z" glyph-name="ordfeminine" horiz-adv-x="794" unicode="ª"/><glyph d="M86 553l8 82l332 299l51 -60l-270 -280l211 -279l-64 -61zM410 553l8 82l332 299l51 -60l-271 -280l211 -279l-63 -61z" glyph-name="guillemotleft" horiz-adv-x="815" unicode="«"/><glyph d="M868 618l-37 -337h-169l22 200h-653l14 137h823z" glyph-name="logicalnot" horiz-adv-x="1007" unicode="¬"/><glyph d="M682 641l-14 -137h-635l14 137h635z" glyph-name="uni00AD" horiz-adv-x="819" unicode="­"/><glyph d="M838 1448q262 0 455.5 -186.5t193.5 -473.5q0 -326 -232.5 -564t-558.5 -238q-262 0 -455.5 185t-193.5 474q0 326 232.5 564.5t558.5 238.5zM700 137q266 0 449.5 194.5t183.5 456.5q0 221 -148.5 364.5t-350.5 143.5q-260 0 -447.5 -190.5t-187.5 -460.5 q0 -221 149 -364.5t352 -143.5zM795 1110q131 0 204.5 -70.5t63.5 -177.5q-23 -178 -199 -233l185 -289h-131l-177 285h-133l-28 -285h-117l80 770h252zM797 1006h-150l-31 -281h146q78 0 126 38t56 109q6 61 -31.5 97.5t-115.5 36.5z" glyph-name="registered" horiz-adv-x="1607" unicode="®"/><glyph d="M793 1434l-17 -142h-753l16 142h754z" glyph-name="macron" horiz-adv-x="753" unicode="¯"/><glyph d="M387 1473q109 0 177.5 -76t56.5 -185q-10 -102 -90 -172.5t-183 -70.5q-109 0 -177.5 75.5t-55.5 184.5q10 102 90 173t182 71zM383 1356q-59 0 -104.5 -41t-49.5 -103q-4 -55 32 -91t91 -36q59 0 104.5 41t49.5 103q4 55 -32 91t-91 36z" glyph-name="degree" horiz-adv-x="589" unicode="°"/><glyph d="M453 653h278l-14 -139h-279l-28 -268h-140l29 268h-268l14 139h268l31 279h139zM-25 2l17 139h686l-16 -139h-687z" glyph-name="plusminus" horiz-adv-x="862" unicode="±"/><glyph d="M305 1442q72 0 119 -48t41 -110q-6 -53 -40 -96t-120 -123l-108 -98h241l-6 -66h-344l6 66l152 143q10 8 28.5 25.5t24.5 23.5t20.5 19.5t18.5 19.5t14 16.5t13.5 15.5t8.5 14t7 15.5t5 15.5t3 17q2 37 -21.5 61.5t-60.5 24.5q-41 0 -73.5 -27.5t-36.5 -76.5l-4 -27h-76 l4 31q8 72 61 118t123 46z" glyph-name="uni00B2" horiz-adv-x="536" unicode="²"/><glyph d="M297 1440q68 0 114 -43t40 -101q-6 -66 -74 -106q35 -14 56.5 -50t15.5 -87q-6 -68 -65.5 -114t-135.5 -46q-84 0 -132 56.5t-38 131.5l78 -4q-6 -49 18.5 -84t71.5 -35t85 29t42 74q6 53 -30 73.5t-110 20.5l3 59q131 0 139 91q2 31 -19.5 51t-56.5 20 q-45 0 -75.5 -29.5t-37.5 -84.5l-75 4q8 78 60 126t126 48z" glyph-name="uni00B3" horiz-adv-x="536" unicode="³"/><glyph d="M453 1516l-260 -326h-123l182 326h201z" glyph-name="acute" horiz-adv-x="350" unicode="´"/><glyph d="M889 1065h166l-113 -1065h-166l27 244q-31 -80 -141.5 -170t-262.5 -90q-150 0 -235 86l-53 -459h-166l153 1454h166l-63 -616q-18 -160 46 -238t187 -78q135 0 244.5 98.5t142.5 206.5z" glyph-name="uni00B5" horiz-adv-x="1153" unicode="µ"/><glyph d="M160 979q23 201 171 328t384 127h469l-152 -1434h-170l56 516h-293q-238 0 -361.5 128t-103.5 335zM1327 1434h170l-151 -1434h-170zM997 1274h-288q-160 0 -262.5 -81t-116.5 -228q-14 -143 67.5 -220t241.5 -77h295z" glyph-name="paragraph" horiz-adv-x="1601" unicode="¶"/><glyph d="M117 467q-109 0 -97 106q8 94 105 95q106 0 94 -109q-8 -92 -102 -92z" glyph-name="periodcentered" horiz-adv-x="399" unicode="·"/><glyph d="M102 -92q70 -4 121 -48t51 -116q0 -109 -114.5 -158t-257.5 -18l20 53q92 -14 154.5 24t62.5 101q0 55 -43 79.5t-102 -5.5l-55 57l110 123h162z" glyph-name="cedilla" horiz-adv-x="358" unicode="¸"/><glyph d="M303 1436l-55 -535h-76l49 453l-37 -23l-32 64l75 41h76z" glyph-name="uni00B9" horiz-adv-x="423" unicode="¹"/><glyph d="M432 1444q113 0 202 -82t89 -219q0 -162 -110.5 -261.5t-237.5 -99.5q-115 0 -205 82t-90 221q0 160 111.5 259.5t240.5 99.5zM424 1323q-86 0 -153.5 -63.5t-67.5 -169.5q0 -88 52 -137.5t126 -49.5q84 0 151.5 63.5t67.5 168.5q0 90 -52 139t-124 49z" glyph-name="ordmasculine" horiz-adv-x="784" unicode="º"/><glyph d="M420 637l-8 -82l-332 -299l-51 59l270 281l-211 278l64 62zM743 637l-8 -82l-332 -299l-51 59l271 281l-211 278l63 62z" glyph-name="guillemotright" horiz-adv-x="815" unicode="»"/><glyph d="M246 1436l-56 -535h-75l47 453l-35 -23l-33 64l76 41h76zM1071 1434l-1032 -1434h-98l1044 1434h86zM1006 535l-33 -316h55l-8 -63h-55l-17 -156h-76l17 156h-271l312 379h76zM918 414l-154 -195h133z" glyph-name="onequarter" horiz-adv-x="1167" unicode="¼"/><glyph d="M246 1436l-56 -535h-75l47 453l-35 -23l-33 64l76 41h76zM1071 1434l-1032 -1434h-98l1044 1434h86zM827 541q72 0 119 -48.5t41 -109.5q-6 -53 -40 -96t-120 -123l-108 -98h242l-9 -66h-344l8 66l152 143q109 102 125 133q14 23 16 49q4 37 -19.5 61.5t-60.5 24.5 q-41 0 -73.5 -27.5t-38.5 -76.5l-2 -27h-76l4 31q8 72 61 118t123 46z" glyph-name="onehalf" horiz-adv-x="1116" unicode="½"/><glyph d="M274 1440q68 0 113 -43t39 -101q-6 -66 -72 -106q80 -35 72 -137q-8 -68 -67.5 -114t-135.5 -46q-84 0 -132 56.5t-38 131.5l78 -4q-4 -49 20.5 -84t71.5 -35t84 29t41 74q6 53 -29.5 73.5t-109.5 20.5l2 59q131 0 141 91q2 31 -20.5 51t-57.5 20q-45 0 -75.5 -29.5 t-36.5 -84.5l-74 4q6 78 59 126t127 48zM1126 1434l-1030 -1434h-98l1042 1434h86zM1040 535l-32 -316h55l-6 -63h-56l-16 -156h-76l17 156h-271l310 379h75zM952 414l-153 -195h133z" glyph-name="threequarters" horiz-adv-x="1202" unicode="¾"/><glyph d="M496 1075q109 0 96 -108q-12 -92 -105 -93q-109 0 -96 109q13 92 105 92zM389.5 -389q-194.5 0 -313.5 115.5t-99 302.5q8 82 51.5 148.5t99.5 111.5t112.5 89t98.5 106.5t50 140.5l2 41h172l-4 -43q-8 -92 -51 -166t-100.5 -123t-113.5 -93t-99 -101.5t-52 -125.5 q-10 -111 57.5 -183.5t194.5 -72.5t214 82t102 219h168q-20 -209 -157.5 -328.5t-332 -119.5z" glyph-name="questiondown" horiz-adv-x="1052" unicode="¿"/><glyph d="M475 1884h201l182 -325h-123zM1151 0l-113 338h-747l-182 -338h-185l783 1434h141l481 -1434h-178zM371 481h620l-233 729z" glyph-name="Agrave" horiz-adv-x="1476" unicode="À"/><glyph d="M1104 1884l-260 -325h-123l182 325h201zM1151 0l-113 338h-747l-182 -338h-185l783 1434h141l481 -1434h-178zM371 481h620l-233 729z" glyph-name="Aacute" horiz-adv-x="1476" unicode="Á"/><glyph d="M870 1935l224 -309l-66 -57l-211 246l-260 -246l-53 57l287 309h79zM1151 0l-113 338h-747l-182 -338h-185l783 1434h141l481 -1434h-178zM371 481h620l-233 729z" glyph-name="Acircumflex" horiz-adv-x="1476" unicode="Â"/><glyph d="M659 1864q86 0 180.5 -70t139.5 -70q53 0 87 26t38 56l78 -8q-10 -96 -71.5 -152.5t-147.5 -56.5q-84 0 -178.5 76t-149.5 76q-51 0 -86 -31t-37 -65l-76 6q10 96 73.5 154.5t149.5 58.5zM1151 0l-113 338h-747l-182 -338h-185l783 1434h141l481 -1434h-178zM371 481h620 l-233 729z" glyph-name="Atilde" horiz-adv-x="1476" unicode="Ã"/><glyph d="M659 1804l-16 -153h-160l17 153h159zM1116 1804l-16 -153h-160l16 153h160zM1151 0l-113 338h-747l-182 -338h-185l783 1434h141l481 -1434h-178zM371 481h620l-233 729z" glyph-name="Adieresis" horiz-adv-x="1476" unicode="Ä"/><glyph d="M827 1958q74 0 124 -50t50 -122q0 -82 -60 -141.5t-142 -59.5q-74 0 -124 51.5t-50 122.5q0 80 60 139.5t142 59.5zM821 1847q-33 0 -57.5 -24.5t-24.5 -59.5q0 -27 19.5 -45t46.5 -18q33 0 58.5 24.5t25.5 57.5q0 27 -19.5 46t-48.5 19zM1151 0l-113 338h-747l-182 -338 h-185l783 1434h141l481 -1434h-178zM371 481h620l-233 729z" glyph-name="Aring" horiz-adv-x="1476" unicode="Å"/><glyph d="M1102 160h680l-17 -160h-852l48 440h-496l-346 -440h-195l1133 1434h841l-16 -160h-663l-50 -475h517l-17 -156h-516zM582 588h393l63 579z" glyph-name="AE" horiz-adv-x="1966" unicode="Æ"/><glyph d="M1208 150q-205 -158 -456 -170l-86 -72q70 -4 121 -48t51 -116q0 -109 -115 -158t-258 -18l20 53q92 -14 154.5 24t62.5 101q0 55 -44 79.5t-101 -5.5l-55 57l100 111q-238 39 -396.5 218t-158.5 437q0 215 113.5 403.5t300 298t395.5 109.5q270 0 461 -174l-117 -113 q-143 125 -344 125q-252 0 -443.5 -190.5t-189.5 -454.5q0 -221 151.5 -363.5t362.5 -142.5q203 0 377 135z" glyph-name="Ccedilla" horiz-adv-x="1361" unicode="Ç"/><glyph d="M289 1884h200l183 -325h-123zM193 160h681l-16 -160h-852l152 1434h833l-18 -160h-662l-49 -475h516l-16 -156h-518z" glyph-name="Egrave" horiz-adv-x="1056" unicode="È"/><glyph d="M918 1884l-261 -325h-122l182 325h201zM193 160h681l-16 -160h-852l152 1434h833l-18 -160h-662l-49 -475h516l-16 -156h-518z" glyph-name="Eacute" horiz-adv-x="1056" unicode="É"/><glyph d="M684 1935l223 -309l-65 -57l-211 246l-260 -246l-54 57l287 309h80zM193 160h681l-16 -160h-852l152 1434h833l-18 -160h-662l-49 -475h516l-16 -156h-518z" glyph-name="Ecircumflex" horiz-adv-x="1056" unicode="Ê"/><glyph d="M473 1804l-16 -153h-160l16 153h160zM930 1804l-17 -153h-159l16 153h160zM193 160h681l-16 -160h-852l152 1434h833l-18 -160h-662l-49 -475h516l-16 -156h-518z" glyph-name="Edieresis" horiz-adv-x="1056" unicode="Ë"/><glyph d="M-59 1884h200l183 -325h-123zM328 1434l-152 -1434h-170l152 1434h170z" glyph-name="Igrave" horiz-adv-x="407" unicode="Ì"/><glyph d="M569 1884l-260 -325h-123l183 325h200zM328 1434l-152 -1434h-170l152 1434h170z" glyph-name="Iacute" horiz-adv-x="407" unicode="Í"/><glyph d="M336 1935l223 -309l-65 -57l-211 246l-260 -246l-54 57l287 309h80zM328 1434l-152 -1434h-170l152 1434h170z" glyph-name="Icircumflex" horiz-adv-x="407" unicode="Î"/><glyph d="M125 1804l-16 -153h-160l16 153h160zM582 1804l-17 -153h-159l16 153h160zM328 1434l-152 -1434h-170l152 1434h170z" glyph-name="Idieresis" horiz-adv-x="407" unicode="Ï"/><glyph d="M655 1434q311 0 496.5 -209t155.5 -514q-33 -301 -259.5 -506t-537.5 -205h-430l70 643h-119l14 137h119l67 654h424zM518 162q252 0 422 160.5t195 402.5q25 233 -108.5 390t-383.5 157h-258l-51 -492h346l-14 -137h-347l-51 -481h250z" glyph-name="Eth" horiz-adv-x="1425" unicode="Ð"/><glyph d="M625 1864q68 0 126 -35t105 -70t88 -35q53 0 87 26t38 56l78 -8q-10 -96 -71.5 -152.5t-147.5 -56.5q-84 0 -178.5 76t-149.5 76q-51 0 -86 -31t-37 -65l-76 6q10 96 74 154.5t150 58.5zM1157 1434h170l-151 -1434h-129l-750 1124l-121 -1124h-170l152 1434h129 l749 -1127z" glyph-name="Ntilde" horiz-adv-x="1406" unicode="Ñ"/><glyph d="M555 1884h201l182 -325h-123zM854 1454q272 0 469 -188.5t197 -477.5q0 -215 -114 -402t-300 -296.5t-395 -109.5q-272 0 -468 187t-196 476q0 328 244 569.5t563 241.5zM723 141q242 0 431 189.5t189 451.5q0 221 -148 365.5t-353 144.5q-242 0 -430.5 -189.5 t-188.5 -451.5q0 -221 147.5 -365.5t352.5 -144.5z" glyph-name="Ograve" horiz-adv-x="1640" unicode="Ò"/><glyph d="M1184 1884l-260 -325h-123l182 325h201zM854 1454q272 0 469 -188.5t197 -477.5q0 -215 -114 -402t-300 -296.5t-395 -109.5q-272 0 -468 187t-196 476q0 328 244 569.5t563 241.5zM723 141q242 0 431 189.5t189 451.5q0 221 -148 365.5t-353 144.5q-242 0 -430.5 -189.5 t-188.5 -451.5q0 -221 147.5 -365.5t352.5 -144.5z" glyph-name="Oacute" horiz-adv-x="1640" unicode="Ó"/><glyph d="M950 1935l224 -309l-66 -57l-211 246l-260 -246l-53 57l286 309h80zM854 1454q272 0 469 -188.5t197 -477.5q0 -215 -114 -402t-300 -296.5t-395 -109.5q-272 0 -468 187t-196 476q0 328 244 569.5t563 241.5zM723 141q242 0 431 189.5t189 451.5q0 221 -148 365.5 t-353 144.5q-242 0 -430.5 -189.5t-188.5 -451.5q0 -221 147.5 -365.5t352.5 -144.5z" glyph-name="Ocircumflex" horiz-adv-x="1640" unicode="Ô"/><glyph d="M739 1864q68 0 126.5 -35t105.5 -70t88 -35q53 0 87 26t38 56l78 -8q-10 -96 -72 -152.5t-148 -56.5q-84 0 -178 76t-149 76q-51 0 -86 -31t-37 -65l-76 6q10 96 73.5 154.5t149.5 58.5zM854 1454q272 0 469 -188.5t197 -477.5q0 -215 -114 -402t-300 -296.5t-395 -109.5 q-272 0 -468 187t-196 476q0 328 244 569.5t563 241.5zM723 141q242 0 431 189.5t189 451.5q0 221 -148 365.5t-353 144.5q-242 0 -430.5 -189.5t-188.5 -451.5q0 -221 147.5 -365.5t352.5 -144.5z" glyph-name="Otilde" horiz-adv-x="1640" unicode="Õ"/><glyph d="M739 1804l-16 -153h-160l17 153h159zM1196 1804l-16 -153h-160l16 153h160zM854 1454q272 0 469 -188.5t197 -477.5q0 -215 -114 -402t-300 -296.5t-395 -109.5q-272 0 -468 187t-196 476q0 328 244 569.5t563 241.5zM723 141q242 0 431 189.5t189 451.5 q0 221 -148 365.5t-353 144.5q-242 0 -430.5 -189.5t-188.5 -451.5q0 -221 147.5 -365.5t352.5 -144.5z" glyph-name="Odieresis" horiz-adv-x="1640" unicode="Ö"/><glyph d="M662 772l-216 -194l172 -193l-108 -98l-172 192l-213 -192l-88 96l215 195l-176 196l108 96l174 -194l215 194z" glyph-name="multiply" horiz-adv-x="729" unicode="×"/><glyph d="M1239 1333q143 -98 219 -261t58 -363q-33 -311 -275 -520t-530 -209q-125 0 -230 43l-75 -125h-189l119 196q-147 98 -226 263t-59 368q33 311 273.5 520t529.5 209q125 0 242 -45l71 117h189zM225 709q-16 -145 37 -267.5t156 -199.5l598 1020q-80 31 -166 30 q-221 0 -410.5 -166.5t-214.5 -416.5zM715 141q223 0 412.5 167t213.5 417q14 141 -36 262t-150 199l-596 -1018q74 -27 156 -27z" glyph-name="Oslash" horiz-adv-x="1640" unicode="Ø"/><glyph d="M367 1884h200l183 -325h-123zM1022 1434h170l-96 -918q-27 -256 -187.5 -401.5t-384.5 -145.5q-227 0 -361 149.5t-108 405.5l97 910h170l-97 -916q-18 -190 68 -288.5t235 -98.5q156 0 267.5 100.5t130.5 292.5z" glyph-name="Ugrave" horiz-adv-x="1271" unicode="Ù"/><glyph d="M995 1884l-260 -325h-123l183 325h200zM1022 1434h170l-96 -918q-27 -256 -187.5 -401.5t-384.5 -145.5q-227 0 -361 149.5t-108 405.5l97 910h170l-97 -916q-18 -190 68 -288.5t235 -98.5q156 0 267.5 100.5t130.5 292.5z" glyph-name="Uacute" horiz-adv-x="1271" unicode="Ú"/><glyph d="M762 1935l223 -309l-65 -57l-211 246l-260 -246l-54 57l287 309h80zM1022 1434h170l-96 -918q-27 -256 -187.5 -401.5t-384.5 -145.5q-227 0 -361 149.5t-108 405.5l97 910h170l-97 -916q-18 -190 68 -288.5t235 -98.5q156 0 267.5 100.5t130.5 292.5z" glyph-name="Ucircumflex" horiz-adv-x="1271" unicode="Û"/><glyph d="M551 1804l-16 -153h-160l16 153h160zM1008 1804l-17 -153h-160l17 153h160zM1022 1434h170l-96 -918q-27 -256 -187.5 -401.5t-384.5 -145.5q-227 0 -361 149.5t-108 405.5l97 910h170l-97 -916q-18 -190 68 -288.5t235 -98.5q156 0 267.5 100.5t130.5 292.5z" glyph-name="Udieresis" horiz-adv-x="1271" unicode="Ü"/><glyph d="M1049 1884l-261 -325h-122l182 325h201zM1343 1434l-616 -772l-72 -662h-170l72 662l-453 772h193l356 -617l494 617h196z" glyph-name="Yacute" horiz-adv-x="1361" unicode="Ý"/><glyph d="M631 1157q246 0 381 -123t114 -321q-20 -205 -174.5 -316.5t-406.5 -111.5h-338l-31 -285h-170l152 1434h170l-29 -277h332zM559 434q178 0 279.5 66.5t119.5 228.5q14 143 -73.5 212t-259.5 69h-342l-60 -576h336z" glyph-name="Thorn" horiz-adv-x="1230" unicode="Þ"/><glyph d="M629 1434q205 0 327.5 -87t122.5 -249q0 -121 -68.5 -203t-185.5 -111q131 -27 200 -114.5t69 -229.5q0 -219 -153 -329.5t-425 -110.5h-180l16 150h178q186 0 291 75.5t105 218.5q0 262 -367 263h-147l16 139h141q340 0 340 227q0 213 -284 213q-317 0 -344 -262 l-109 -1024h-166l109 1030q20 197 153.5 300.5t360.5 103.5z" glyph-name="germandbls" horiz-adv-x="1228" unicode="ß"/><glyph d="M338 1516h201l182 -326h-123zM606 1083q137 0 236.5 -65.5t128.5 -155.5l24 203h166l-112 -1065h-166l22 201q-49 -96 -157.5 -158.5t-245.5 -62.5q-190 0 -337 131t-147 360q0 252 174 432t414 180zM612 934q-180 0 -305 -131t-125 -320q0 -168 104.5 -261t243.5 -93 q172 0 296 129t124 332q0 166 -100.5 255t-237.5 89z" glyph-name="agrave" unicode="à"/><glyph d="M967 1516l-260 -326h-123l182 326h201zM606 1083q137 0 236.5 -65.5t128.5 -155.5l24 203h166l-112 -1065h-166l22 201q-49 -96 -157.5 -158.5t-245.5 -62.5q-190 0 -337 131t-147 360q0 252 174 432t414 180zM612 934q-180 0 -305 -131t-125 -320q0 -168 104.5 -261 t243.5 -93q172 0 296 129t124 332q0 166 -100.5 255t-237.5 89z" glyph-name="aacute" unicode="á"/><glyph d="M733 1567l223 -310l-65 -57l-211 246l-260 -246l-53 57l286 310h80zM606 1083q137 0 236.5 -65.5t128.5 -155.5l24 203h166l-112 -1065h-166l22 201q-49 -96 -157.5 -158.5t-245.5 -62.5q-190 0 -337 131t-147 360q0 252 174 432t414 180zM612 934q-180 0 -305 -131 t-125 -320q0 -168 104.5 -261t243.5 -93q172 0 296 129t124 332q0 166 -100.5 255t-237.5 89z" glyph-name="acircumflex" unicode="â"/><glyph d="M522 1495q68 0 126.5 -35t105.5 -69.5t88 -34.5q53 0 87 25.5t38 56.5l77 -8q-10 -96 -71.5 -152.5t-147.5 -56.5q-84 0 -178 75.5t-149 75.5q-51 0 -86 -30.5t-37 -65.5l-76 6q10 96 73.5 154.5t149.5 58.5zM606 1083q137 0 236.5 -65.5t128.5 -155.5l24 203h166 l-112 -1065h-166l22 201q-49 -96 -157.5 -158.5t-245.5 -62.5q-190 0 -337 131t-147 360q0 252 174 432t414 180zM612 934q-180 0 -305 -131t-125 -320q0 -168 104.5 -261t243.5 -93q172 0 296 129t124 332q0 166 -100.5 255t-237.5 89z" glyph-name="atilde" unicode="ã"/><glyph d="M522 1436l-16 -154h-160l16 154h160zM979 1436l-16 -154h-160l16 154h160zM606 1083q137 0 236.5 -65.5t128.5 -155.5l24 203h166l-112 -1065h-166l22 201q-49 -96 -157.5 -158.5t-245.5 -62.5q-190 0 -337 131t-147 360q0 252 174 432t414 180zM612 934 q-180 0 -305 -131t-125 -320q0 -168 104.5 -261t243.5 -93q172 0 296 129t124 332q0 166 -100.5 255t-237.5 89z" glyph-name="adieresis" unicode="ä"/><glyph d="M690 1589q74 0 124 -50t50 -122q0 -82 -60.5 -141t-141.5 -59q-74 0 -124.5 51t-50.5 123q0 80 60.5 139t142.5 59zM684 1479q-33 0 -57.5 -24.5t-24.5 -59.5q0 -27 19.5 -45.5t46.5 -18.5q33 0 58.5 24.5t25.5 57.5q0 27 -19.5 46.5t-48.5 19.5zM606 1083 q137 0 236.5 -65.5t128.5 -155.5l24 203h166l-112 -1065h-166l22 201q-49 -96 -157.5 -158.5t-245.5 -62.5q-190 0 -337 131t-147 360q0 252 174 432t414 180zM612 934q-180 0 -305 -131t-125 -320q0 -168 104.5 -261t243.5 -93q172 0 296 129t124 332q0 166 -100.5 255 t-237.5 89z" glyph-name="aring" unicode="å"/><glyph d="M2023 610q0 -72 -14 -143h-901q2 -166 106.5 -255t258.5 -89q203 0 335 117l88 -90q-156 -170 -434 -170q-250 0 -397 165l-16 -145h-166l22 201q-49 -96 -157.5 -158.5t-245.5 -62.5q-190 0 -337 131t-147 360q0 252 174.5 432t413.5 180q137 0 236.5 -65.5 t128.5 -155.5l24 203h166l-14 -137q170 158 399 157q182 0 329.5 -124t147.5 -351zM1874 594q4 166 -97.5 256t-234.5 90q-137 0 -259 -91t-159 -255h750zM530 129q172 0 296 129t124 332q0 166 -100 255t-238 89q-180 0 -305 -131t-125 -320q0 -168 104.5 -261t243.5 -93z " glyph-name="ae" horiz-adv-x="2142" unicode="æ"/><glyph d="M524 129q211 0 336 170l131 -63q-150 -227 -413 -254l-86 -72q70 -4 121 -48t51 -116q0 -109 -115 -158t-258 -18l20 53q92 -14 154.5 24t62.5 101q0 55 -43 80t-102 -6l-55 57l98 109q-168 31 -288 157.5t-120 329.5q0 256 177.5 433t425.5 177q147 0 259.5 -67.5 t168.5 -194.5l-138 -53q-86 166 -303 166q-174 0 -301 -132t-127 -327q0 -166 103.5 -257t240.5 -91z" glyph-name="ccedilla" horiz-adv-x="1134" unicode="ç"/><glyph d="M319 1516h201l182 -326h-122zM618 1085q182 0 330 -123.5t148 -351.5q0 -72 -15 -143h-901q2 -166 106.5 -255t258.5 -89q203 0 336 117l88 -90q-156 -170 -434 -170q-209 0 -363 130t-154 361q0 254 178 434t422 180zM614 940q-137 0 -259 -91t-158 -255h749 q4 166 -97.5 256t-234.5 90z" glyph-name="egrave" horiz-adv-x="1214" unicode="è"/><glyph d="M948 1516l-260 -326h-123l183 326h200zM618 1085q182 0 330 -123.5t148 -351.5q0 -72 -15 -143h-901q2 -166 106.5 -255t258.5 -89q203 0 336 117l88 -90q-156 -170 -434 -170q-209 0 -363 130t-154 361q0 254 178 434t422 180zM614 940q-137 0 -259 -91t-158 -255h749 q4 166 -97.5 256t-234.5 90z" glyph-name="eacute" horiz-adv-x="1214" unicode="é"/><glyph d="M715 1567l223 -310l-66 -57l-210 246l-261 -246l-53 57l287 310h80zM618 1085q182 0 330 -123.5t148 -351.5q0 -72 -15 -143h-901q2 -166 106.5 -255t258.5 -89q203 0 336 117l88 -90q-156 -170 -434 -170q-209 0 -363 130t-154 361q0 254 178 434t422 180zM614 940 q-137 0 -259 -91t-158 -255h749q4 166 -97.5 256t-234.5 90z" glyph-name="ecircumflex" horiz-adv-x="1214" unicode="ê"/><glyph d="M504 1436l-17 -154h-159l16 154h160zM961 1436l-17 -154h-160l17 154h160zM618 1085q182 0 330 -123.5t148 -351.5q0 -72 -15 -143h-901q2 -166 106.5 -255t258.5 -89q203 0 336 117l88 -90q-156 -170 -434 -170q-209 0 -363 130t-154 361q0 254 178 434t422 180z M614 940q-137 0 -259 -91t-158 -255h749q4 166 -97.5 256t-234.5 90z" glyph-name="edieresis" horiz-adv-x="1214" unicode="ë"/><glyph d="M-106 1516h200l182 -326h-122zM281 1065l-113 -1065h-168l113 1065h168z" glyph-name="igrave" horiz-adv-x="378" unicode="ì"/><glyph d="M522 1516l-260 -326h-123l183 326h200zM281 1065l-113 -1065h-168l113 1065h168z" glyph-name="iacute" horiz-adv-x="378" unicode="í"/><glyph d="M289 1567l223 -310l-66 -57l-210 246l-261 -246l-53 57l287 310h80zM281 1065l-113 -1065h-168l113 1065h168z" glyph-name="icircumflex" horiz-adv-x="378" unicode="î"/><glyph d="M78 1436l-17 -154h-159l16 154h160zM535 1436l-17 -154h-160l17 154h160zM281 1065l-113 -1065h-168l113 1065h168z" glyph-name="idieresis" horiz-adv-x="378" unicode="ï"/><glyph d="M842 1194q109 -174 150.5 -334t21.5 -352q-27 -252 -183.5 -390t-375.5 -138q-207 0 -334 144t-101 400q27 260 169.5 400.5t367.5 140.5q156 0 225 -76l-112 182l-207 -30l10 90l145 20l-116 183h186l103 -156l188 27l-8 -88zM457 129q154 0 261 99.5t126 295.5 q43 391 -289 391q-154 0 -249 -99t-118 -308q-18 -186 62 -282.5t207 -96.5z" glyph-name="eth" horiz-adv-x="1169" unicode="ð"/><glyph d="M461 1495q68 0 126 -35t105 -69.5t88 -34.5q53 0 87 25.5t38 56.5l78 -8q-10 -96 -71.5 -152.5t-147.5 -56.5q-84 0 -178 75.5t-150 75.5q-51 0 -86 -30.5t-37 -65.5l-75 6q10 96 73.5 154.5t149.5 58.5zM668 1085q168 0 274.5 -116.5t81.5 -350.5l-66 -618h-167l67 616 q16 162 -52.5 242t-184.5 80q-137 0 -246 -98.5t-139 -206.5l-68 -633h-168l113 1065h168l-27 -244q29 82 142.5 173t271.5 91z" glyph-name="ntilde" horiz-adv-x="1167" unicode="ñ"/><glyph d="M319 1516h201l182 -326h-122zM618 1085q190 0 343 -133t153 -364q0 -254 -177 -431t-423 -177q-190 0 -343 132t-153 363q0 256 177 433t423 177zM528 129q158 0 291 123t133 332q0 168 -105.5 260t-242.5 92q-158 0 -291 -123t-133 -334q0 -166 105.5 -258t242.5 -92z " glyph-name="ograve" horiz-adv-x="1234" unicode="ò"/><glyph d="M948 1516l-260 -326h-123l183 326h200zM618 1085q190 0 343 -133t153 -364q0 -254 -177 -431t-423 -177q-190 0 -343 132t-153 363q0 256 177 433t423 177zM528 129q158 0 291 123t133 332q0 168 -105.5 260t-242.5 92q-158 0 -291 -123t-133 -334q0 -166 105.5 -258 t242.5 -92z" glyph-name="oacute" horiz-adv-x="1234" unicode="ó"/><glyph d="M715 1567l223 -310l-66 -57l-210 246l-261 -246l-53 57l287 310h80zM618 1085q190 0 343 -133t153 -364q0 -254 -177 -431t-423 -177q-190 0 -343 132t-153 363q0 256 177 433t423 177zM528 129q158 0 291 123t133 332q0 168 -105.5 260t-242.5 92q-158 0 -291 -123 t-133 -334q0 -166 105.5 -258t242.5 -92z" glyph-name="ocircumflex" horiz-adv-x="1234" unicode="ô"/><glyph d="M504 1495q86 0 180 -69.5t139 -69.5q53 0 87 25.5t38 56.5l78 -8q-10 -96 -71.5 -152.5t-147.5 -56.5q-84 0 -178 75.5t-150 75.5q-51 0 -86 -30.5t-37 -65.5l-75 6q10 96 73.5 154.5t149.5 58.5zM618 1085q190 0 343 -133t153 -364q0 -254 -177 -431t-423 -177 q-190 0 -343 132t-153 363q0 256 177 433t423 177zM528 129q158 0 291 123t133 332q0 168 -105.5 260t-242.5 92q-158 0 -291 -123t-133 -334q0 -166 105.5 -258t242.5 -92z" glyph-name="otilde" horiz-adv-x="1234" unicode="õ"/><glyph d="M504 1436l-17 -154h-159l16 154h160zM961 1436l-17 -154h-160l17 154h160zM618 1085q190 0 343 -133t153 -364q0 -254 -177 -431t-423 -177q-190 0 -343 132t-153 363q0 256 177 433t423 177zM528 129q158 0 291 123t133 332q0 168 -105.5 260t-242.5 92 q-158 0 -291 -123t-133 -334q0 -166 105.5 -258t242.5 -92z" glyph-name="odieresis" horiz-adv-x="1234" unicode="ö"/><glyph d="M389 782q-106 0 -94 107q8 94 104 94q106 0 95 -109q-9 -92 -105 -92zM729 641l-14 -137h-686l14 137h686zM326 145q-106 0 -95 107q6 94 103 94q109 0 96 -108q-12 -93 -104 -93z" glyph-name="divide" horiz-adv-x="811" unicode="÷"/><glyph d="M909 991q231 -158 201 -467q-14 -131 -75.5 -238.5t-148.5 -172t-184.5 -99t-189.5 -34.5q-82 0 -170 32l-70 -114h-161l106 176q-227 158 -197 465q18 172 119 300t227 186t250 58q86 0 168 -28l78 129h162zM182 524q-23 -201 111 -313l418 707q-53 16 -97 16 q-147 0 -279.5 -110t-152.5 -300zM516 129q147 0 279.5 109.5t152.5 300.5q20 205 -117 317l-417 -711q55 -16 102 -16z" glyph-name="oslash" horiz-adv-x="1232" unicode="ø"/><glyph d="M281 1516h200l183 -326h-123zM389 -20q-168 0 -274.5 117.5t-81.5 351.5l63 616h166l-63 -616q-16 -160 53.5 -240t187.5 -80q141 0 243.5 97.5t135.5 211.5l68 627h166l-113 -1065h-166l27 240q-31 -80 -143.5 -170t-268.5 -90z" glyph-name="ugrave" horiz-adv-x="1150" unicode="ù"/><glyph d="M909 1516l-260 -326h-123l183 326h200zM389 -20q-168 0 -274.5 117.5t-81.5 351.5l63 616h166l-63 -616q-16 -160 53.5 -240t187.5 -80q141 0 243.5 97.5t135.5 211.5l68 627h166l-113 -1065h-166l27 240q-31 -80 -143.5 -170t-268.5 -90z" glyph-name="uacute" horiz-adv-x="1150" unicode="ú"/><glyph d="M676 1567l223 -310l-65 -57l-211 246l-261 -246l-53 57l287 310h80zM389 -20q-168 0 -274.5 117.5t-81.5 351.5l63 616h166l-63 -616q-16 -160 53.5 -240t187.5 -80q141 0 243.5 97.5t135.5 211.5l68 627h166l-113 -1065h-166l27 240q-31 -80 -143.5 -170t-268.5 -90z " glyph-name="ucircumflex" horiz-adv-x="1150" unicode="û"/><glyph d="M465 1436l-16 -154h-160l16 154h160zM922 1436l-17 -154h-160l17 154h160zM389 -20q-168 0 -274.5 117.5t-81.5 351.5l63 616h166l-63 -616q-16 -160 53.5 -240t187.5 -80q141 0 243.5 97.5t135.5 211.5l68 627h166l-113 -1065h-166l27 240q-31 -80 -143.5 -170 t-268.5 -90z" glyph-name="udieresis" horiz-adv-x="1150" unicode="ü"/><glyph d="M913 1516l-260 -326h-123l183 326h200zM969 1067h172l-801 -1456h-172l238 426l-351 1030h164l287 -848z" glyph-name="yacute" horiz-adv-x="1187" unicode="ý"/><glyph d="M659 1083q205 0 356.5 -150.5t125.5 -408.5q-14 -131 -73.5 -237.5t-144.5 -172t-180.5 -100t-187.5 -34.5q-139 0 -236.5 66.5t-125.5 162.5l-66 -598h-168l195 1837h168l-64 -580q49 90 158.5 152.5t242.5 62.5zM541 129q152 0 284.5 108.5t153.5 301.5 q20 186 -86.5 290.5t-255.5 104.5q-152 0 -275.5 -107.5t-146.5 -302.5q-20 -188 79.5 -291.5t246.5 -103.5z" glyph-name="thorn" horiz-adv-x="1265" unicode="þ"/><glyph d="M469 1436l-16 -154h-160l16 154h160zM926 1436l-17 -154h-159l16 154h160zM969 1067h172l-801 -1456h-172l238 426l-351 1030h164l287 -848z" glyph-name="ydieresis" horiz-adv-x="1187" unicode="ÿ"/><glyph d="M1194 1802l-16 -141h-754l16 141h754zM1151 0l-113 338h-747l-182 -338h-185l783 1434h141l481 -1434h-178zM371 481h620l-233 729z" glyph-name="Amacron" horiz-adv-x="1476" unicode="Ā"/><glyph d="M1057 1434l-17 -142h-753l16 142h754zM606 1083q137 0 236.5 -65.5t128.5 -155.5l24 203h166l-112 -1065h-166l22 201q-49 -96 -157.5 -158.5t-245.5 -62.5q-190 0 -337 131t-147 360q0 252 174 432t414 180zM612 934q-180 0 -305 -131t-125 -320q0 -168 104.5 -261 t243.5 -93q172 0 296 129t124 332q0 166 -100.5 255t-237.5 89z" glyph-name="amacron" unicode="ā"/><glyph d="M1120 1864q-14 -121 -104 -209t-229.5 -88t-207 89t-57.5 208h109q2 -76 42 -126t124 -50q88 0 142 50t73 126h108zM1151 0l-113 338h-747l-182 -338h-185l783 1434h141l481 -1434h-178zM371 481h620l-233 729z" glyph-name="Abreve" horiz-adv-x="1476" unicode="Ă"/><glyph d="M983 1495q-14 -121 -104.5 -209t-229.5 -88t-206.5 89t-57.5 208h109q2 -76 41.5 -126t123.5 -50q88 0 142.5 50t72.5 126h109zM606 1083q137 0 236.5 -65.5t128.5 -155.5l24 203h166l-112 -1065h-166l22 201q-49 -96 -157.5 -158.5t-245.5 -62.5q-190 0 -337 131 t-147 360q0 252 174 432t414 180zM612 934q-180 0 -305 -131t-125 -320q0 -168 104.5 -261t243.5 -93q172 0 296 129t124 332q0 166 -100.5 255t-237.5 89z" glyph-name="abreve" unicode="ă"/><glyph d="M1030 -244q-6 -55 44 -77.5t114 -2.5l37 -84q-45 -20 -107.5 -23t-121 11t-96.5 61.5t-30 116.5q16 160 293 244l-106 336h-766l-185 -338h-182l791 1434h141l494 -1436q-304 -103 -320 -242zM369 481h639l-242 729z" glyph-name="Aogonek" horiz-adv-x="1497" unicode="Ą"/><glyph d="M1053 -2q-147 -51 -225 -104.5t-78 -129.5q0 -61 47 -83.5t108 -2.5l37 -86q-43 -20 -102.5 -24t-115.5 9t-96 54t-40 103q0 96 84 166.5t209 105.5l24 195q-49 -96 -157.5 -158.5t-245.5 -62.5q-205 0 -355.5 149.5t-123.5 409.5q27 252 206 398t377 146 q137 0 236.5 -65.5t128.5 -155.5l24 203h166zM524 129q154 0 279 107.5t143 302.5q20 188 -78 291.5t-245 103.5q-154 0 -286 -108.5t-155 -301.5q-18 -186 88.5 -290.5t253.5 -104.5z" glyph-name="aogonek" horiz-adv-x="1261" unicode="ą"/><glyph d="M1130 1884l-260 -325h-122l182 325h200zM1208 150q-221 -170 -495 -170q-272 0 -469 187t-197 476q0 215 113.5 403.5t300 298t395.5 109.5q270 0 461 -174l-117 -113q-143 125 -344 125q-252 0 -443.5 -190.5t-189.5 -454.5q0 -221 151.5 -363.5t362.5 -142.5 q203 0 377 135z" glyph-name="Cacute" horiz-adv-x="1361" unicode="Ć"/><glyph d="M926 1516l-260 -326h-123l182 326h201zM621 1085q147 0 259.5 -67.5t168.5 -194.5l-138 -53q-86 166 -303 166q-174 0 -301 -132t-127 -327q0 -166 103.5 -257t240.5 -91q211 0 336 170l131 -63q-168 -256 -475 -256q-193 0 -345.5 132t-152.5 363q0 256 177.5 433 t425.5 177z" glyph-name="cacute" horiz-adv-x="1134" unicode="ć"/><glyph d="M924 1804l-17 -153h-159l16 153h160zM1208 150q-221 -170 -495 -170q-272 0 -469 187t-197 476q0 215 113.5 403.5t300 298t395.5 109.5q270 0 461 -174l-117 -113q-143 125 -344 125q-252 0 -443.5 -190.5t-189.5 -454.5q0 -221 151.5 -363.5t362.5 -142.5 q203 0 377 135z" glyph-name="Cdotaccent" horiz-adv-x="1361" unicode="Ċ"/><glyph d="M719 1436l-17 -154h-159l16 154h160zM621 1085q147 0 259.5 -67.5t168.5 -194.5l-138 -53q-86 166 -303 166q-174 0 -301 -132t-127 -327q0 -166 103.5 -257t240.5 -91q211 0 336 170l131 -63q-168 -256 -475 -256q-193 0 -345.5 132t-152.5 363q0 256 177.5 433 t425.5 177z" glyph-name="cdotaccent" horiz-adv-x="1134" unicode="ċ"/><glyph d="M780 1569l-223 309l66 57l211 -245l260 245l53 -57l-287 -309h-80zM1208 150q-221 -170 -495 -170q-272 0 -469 187t-197 476q0 215 113.5 403.5t300 298t395.5 109.5q270 0 461 -174l-117 -113q-143 125 -344 125q-252 0 -443.5 -190.5t-189.5 -454.5 q0 -221 151.5 -363.5t362.5 -142.5q203 0 377 135z" glyph-name="Ccaron" horiz-adv-x="1361" unicode="Č"/><glyph d="M575 1200l-223 309l66 58l211 -246l260 246l53 -58l-287 -309h-80zM621 1085q147 0 259.5 -67.5t168.5 -194.5l-138 -53q-86 166 -303 166q-174 0 -301 -132t-127 -327q0 -166 103.5 -257t240.5 -91q211 0 336 170l131 -63q-168 -256 -475 -256q-193 0 -345.5 132 t-152.5 363q0 256 177.5 433t425.5 177z" glyph-name="ccaron" horiz-adv-x="1134" unicode="č"/><glyph d="M651 1569l-223 309l66 57l211 -245l260 245l53 -57l-287 -309h-80zM580 1434q313 0 498.5 -209t154.5 -514q-33 -301 -259 -506t-538 -205h-430l152 1434h422zM444 162q252 0 422 160.5t195 402.5q25 233 -109.5 390t-384.5 157h-256l-118 -1110h251z" glyph-name="Dcaron" horiz-adv-x="1351" unicode="Ď"/><glyph d="M1036 1448h166l-153 -1448h-166l22 201q-49 -96 -157.5 -158.5t-245.5 -62.5q-190 0 -337 131t-147 360q0 254 174.5 434t413.5 180q137 0 236.5 -65.5t128.5 -157.5zM1403 1434h201l-254 -265h-123zM612 936q-180 0 -305 -131t-125 -322q0 -168 104.5 -261t243.5 -93 q172 0 296 129t124 332q0 168 -100.5 257t-237.5 89z" glyph-name="dcaron" horiz-adv-x="1519" unicode="ď"/><glyph d="M657 1434q311 0 497.5 -209t154.5 -514q-33 -301 -259.5 -506t-537.5 -205h-428l68 643h-119l14 137h119l70 654h421zM520 162q250 0 421 160.5t198 402.5q25 233 -109.5 390t-384.5 157h-258l-51 -492h346l-14 -137h-346l-52 -481h250z" glyph-name="Dcroat" horiz-adv-x="1427" unicode="Đ"/><glyph d="M1333 1325l-14 -141h-145l-125 -1184h-166l22 201q-49 -96 -157.5 -158.5t-245.5 -62.5q-190 0 -337 131t-147 360q0 254 174.5 434t413.5 180q137 0 236.5 -65.5t128.5 -157.5l37 322h-443l15 141h442l14 123h166l-12 -123h143zM530 129q172 0 296 129t124 332 q0 168 -100 257t-238 89q-180 0 -305 -131t-125 -322q0 -168 104.5 -261t243.5 -93z" glyph-name="dcroat" horiz-adv-x="1280" unicode="đ"/><glyph d="M1008 1802l-17 -141h-753l16 141h754zM193 160h681l-16 -160h-852l152 1434h833l-18 -160h-662l-49 -475h516l-16 -156h-518z" glyph-name="Emacron" horiz-adv-x="1056" unicode="Ē"/><glyph d="M1038 1434l-16 -142h-754l17 142h753zM618 1085q182 0 330 -123.5t148 -351.5q0 -72 -15 -143h-901q2 -166 106.5 -255t258.5 -89q203 0 336 117l88 -90q-156 -170 -434 -170q-209 0 -363 130t-154 361q0 254 178 434t422 180zM614 940q-137 0 -259 -91t-158 -255h749 q4 166 -97.5 256t-234.5 90z" glyph-name="emacron" horiz-adv-x="1214" unicode="ē"/><glyph d="M711 1804l-17 -153h-159l16 153h160zM193 160h681l-16 -160h-852l152 1434h833l-18 -160h-662l-49 -475h516l-16 -156h-518z" glyph-name="Edotaccent" horiz-adv-x="1056" unicode="Ė"/><glyph d="M741 1436l-16 -154h-160l17 154h159zM618 1085q182 0 330 -123.5t148 -351.5q0 -72 -15 -143h-901q2 -166 106.5 -255t258.5 -89q203 0 336 117l88 -90q-156 -170 -434 -170q-209 0 -363 130t-154 361q0 254 178 434t422 180zM614 940q-137 0 -259 -91t-158 -255h749 q4 166 -97.5 256t-234.5 90z" glyph-name="edotaccent" horiz-adv-x="1214" unicode="ė"/><glyph d="M860 -2q-291 -100 -307 -242q-6 -55 44 -77.5t114 -2.5l37 -84q-45 -20 -107.5 -23t-121 11t-95.5 61.5t-29 116.5q16 158 299 244l-688 -2l152 1434h833l-18 -160h-662l-49 -475h516l-16 -156h-518l-51 -483h681z" glyph-name="Eogonek" horiz-adv-x="1058" unicode="Ę"/><glyph d="M616 1083q76 0 151 -22.5t143.5 -70.5t114.5 -120.5t63.5 -173t-9.5 -229.5h-899q2 -166 105.5 -255t255.5 -89q197 0 336 123l94 -96q-92 -98 -262 -152q-303 -94 -303 -229q0 -59 48 -84t107 -7l37 -86q-43 -20 -102.5 -24t-115.5 9t-96 54t-40 103q0 84 67.5 149.5 t169.5 100.5q-98 6 -185 46t-154.5 106.5t-100.5 171t-21 231.5q18 172 119 300t226.5 186t250.5 58zM614 938q-133 0 -257 -91t-160 -253l749 6q4 160 -99.5 249t-232.5 89z" glyph-name="eogonek" horiz-adv-x="1212" unicode="ę"/><glyph d="M567 1569l-223 309l66 57l211 -245l260 245l53 -57l-287 -309h-80zM193 160h681l-16 -160h-852l152 1434h833l-18 -160h-662l-49 -475h516l-16 -156h-518z" glyph-name="Ecaron" horiz-adv-x="1056" unicode="Ě"/><glyph d="M598 1200l-223 309l65 58l211 -246l260 246l54 -58l-287 -309h-80zM618 1085q182 0 330 -123.5t148 -351.5q0 -72 -15 -143h-901q2 -166 106.5 -255t258.5 -89q203 0 336 117l88 -90q-156 -170 -434 -170q-209 0 -363 130t-154 361q0 254 178 434t422 180zM614 940 q-137 0 -259 -91t-158 -255h749q4 166 -97.5 256t-234.5 90z" glyph-name="ecaron" horiz-adv-x="1214" unicode="ě"/><glyph d="M1161 1864q-14 -121 -104 -209t-229.5 -88t-207 89t-57.5 208h109q2 -76 42 -126t124 -50q88 0 142 50t73 126h108zM856 725h582q-10 -338 -220 -541.5t-501 -203.5q-276 0 -473 187t-197 476q0 215 113.5 403.5t300 298t395.5 109.5q270 0 461 -174l-117 -113 q-143 125 -344 125q-254 0 -444.5 -190.5t-188.5 -454.5q0 -221 148.5 -363.5t363.5 -142.5q188 0 337 115t194 326h-426z" glyph-name="Gbreve" horiz-adv-x="1564" unicode="Ğ"/><glyph d="M1008 1495q-14 -121 -104.5 -209t-229.5 -88t-207 89t-57 208h108q2 -76 42 -126t124 -50q88 0 142.5 50t72.5 126h109zM995 1065h166l-112 -1065q-12 -115 -66.5 -201t-133.5 -132t-161 -67.5t-164 -21.5q-209 0 -313 82l10 139q94 -78 305 -78q143 0 242.5 75 t114.5 204l22 201q-49 -96 -157.5 -158.5t-245.5 -62.5q-190 0 -337 131t-147 360q0 254 174.5 434t413.5 180q137 0 236.5 -65.5t128.5 -157.5zM612 936q-180 0 -305 -131t-125 -322q0 -168 104.5 -261t243.5 -93q172 0 296 129t124 332q0 168 -100.5 257t-237.5 89z" glyph-name="gbreve" unicode="ğ"/><glyph d="M938 1804l-16 -153h-160l16 153h160zM856 725h582q-10 -338 -220 -541.5t-501 -203.5q-276 0 -473 187t-197 476q0 215 113.5 403.5t300 298t395.5 109.5q270 0 461 -174l-117 -113q-143 125 -344 125q-254 0 -444.5 -190.5t-188.5 -454.5q0 -221 148.5 -363.5 t363.5 -142.5q188 0 337 115t194 326h-426z" glyph-name="Gdotaccent" horiz-adv-x="1564" unicode="Ġ"/><glyph d="M784 1436l-16 -154h-160l17 154h159zM995 1065h166l-112 -1065q-12 -115 -66.5 -201t-133.5 -132t-161 -67.5t-164 -21.5q-209 0 -313 82l10 139q94 -78 305 -78q143 0 242.5 75t114.5 204l22 201q-49 -96 -157.5 -158.5t-245.5 -62.5q-190 0 -337 131t-147 360 q0 254 174.5 434t413.5 180q137 0 236.5 -65.5t128.5 -157.5zM612 936q-180 0 -305 -131t-125 -322q0 -168 104.5 -261t243.5 -93q172 0 296 129t124 332q0 168 -100.5 257t-237.5 89z" glyph-name="gdotaccent" unicode="ġ"/><glyph d="M856 725h582q-10 -338 -220 -541.5t-501 -203.5q-276 0 -473 187t-197 476q0 215 113.5 403.5t300 298t395.5 109.5q270 0 461 -174l-117 -113q-143 125 -344 125q-254 0 -444.5 -190.5t-188.5 -454.5q0 -221 148.5 -363.5t363.5 -142.5q188 0 337 115t194 326h-426z M399 -475l174 407h226l-250 -407h-150z" glyph-name="Gcommaaccent" horiz-adv-x="1564" unicode="Ģ"/><glyph d="M956 1540l-174 -407h-225l250 407h149zM995 1065h166l-112 -1065q-12 -115 -66.5 -201t-133.5 -132t-161 -67.5t-164 -21.5q-209 0 -313 82l10 139q94 -78 305 -78q143 0 242.5 75t114.5 204l22 201q-49 -96 -157.5 -158.5t-245.5 -62.5q-190 0 -337 131t-147 360 q0 254 174.5 434t413.5 180q137 0 236.5 -65.5t128.5 -157.5zM612 936q-180 0 -305 -131t-125 -322q0 -168 104.5 -261t243.5 -93q172 0 296 129t124 332q0 168 -100.5 257t-237.5 89z" glyph-name="gcommaaccent" unicode="ģ"/><glyph d="M1057 1434h170l-152 -1434h-170l66 627h-729l-66 -627h-170l152 1434h170l-29 -271h727zM260 786h727l25 218h-729z" glyph-name="Hbar" horiz-adv-x="1306" unicode="Ħ"/><glyph d="M698 1085q168 0 274.5 -116.5t82.5 -350.5l-66 -618h-168l68 616q16 162 -52.5 242t-185.5 80q-137 0 -245.5 -98.5t-139.5 -206.5l-67 -633h-168l125 1169h-140l11 101h139l18 178h168l-18 -178h252l-11 -101h-253l-37 -348q29 82 142 173t271 91z" glyph-name="hbar" horiz-adv-x="1200" unicode="ħ"/><glyph d="M125 1864q68 0 126 -35t105 -70t88 -35q53 0 87 26t38 56l78 -8q-10 -96 -71.5 -152.5t-147.5 -56.5q-84 0 -178 76t-150 76q-51 0 -85.5 -31t-37.5 -65l-75 6q10 96 73.5 154.5t149.5 58.5zM328 1434l-152 -1434h-170l152 1434h170z" glyph-name="Itilde" horiz-adv-x="407" unicode="Ĩ"/><glyph d="M78 1495q86 0 180 -69.5t139 -69.5q53 0 87 25.5t38 56.5l78 -8q-10 -96 -71.5 -152.5t-147.5 -56.5q-84 0 -178 75.5t-150 75.5q-51 0 -86 -30.5t-37 -65.5l-75 6q10 96 73.5 154.5t149.5 58.5zM281 1065l-113 -1065h-168l113 1065h168z" glyph-name="itilde" horiz-adv-x="378" unicode="ĩ"/><glyph d="M659 1802l-16 -141h-754l17 141h753zM328 1434l-152 -1434h-170l152 1434h170z" glyph-name="Imacron" horiz-adv-x="407" unicode="Ī"/><glyph d="M612 1434l-16 -142h-754l17 142h753zM281 1065l-113 -1065h-168l113 1065h168z" glyph-name="imacron" horiz-adv-x="378" unicode="ī"/><glyph d="M186 -2q-297 -100 -313 -242q-6 -55 44 -77.5t114 -2.5l37 -84q-45 -20 -107.5 -23t-121 11t-96.5 61.5t-30 116.5q16 158 297 244l154 1432h170z" glyph-name="Iogonek" horiz-adv-x="415" unicode="Į"/><glyph d="M154 1434h172l-15 -148h-174zM2 2l115 1063h168l-111 -1067q-297 -102 -311 -242q-6 -55 43 -77.5t112 -2.5l37 -84q-45 -20 -106.5 -23t-119.5 11t-96 61.5t-30 116.5q16 158 299 244z" glyph-name="iogonek" horiz-adv-x="385" unicode="į"/><glyph d="M362 1804l-16 -153h-160l17 153h159zM328 1434l-152 -1434h-170l152 1434h170z" glyph-name="Idotaccent" horiz-adv-x="407" unicode="İ"/><glyph d="M281 1065l-113 -1065h-168l113 1065h168z" glyph-name="dotlessi" horiz-adv-x="378" unicode="ı"/><glyph d="M328 1434l-152 -1434h-170l152 1434h170zM1341 1434l-100 -957q-14 -133 -60 -233.5t-116 -157.5t-147.5 -84t-167.5 -27q-131 0 -227.5 54.5t-143.5 144.5l117 113q82 -147 252 -148q287 0 325 361l98 934h170z" glyph-name="IJ" horiz-adv-x="1421" unicode="Ĳ"/><glyph d="M322 1448l-17 -150h-166l15 150h168zM782 1448l-16 -150h-166l14 150h168zM281 1065l-113 -1065h-168l113 1065h168zM741 1065l-127 -1190q-31 -297 -286 -297q-119 0 -189 55l8 160q72 -45 154 -45q137 0 152 166l120 1151h168z" glyph-name="ij" horiz-adv-x="839" unicode="ĳ"/><glyph d="M942 0l-483 668l-236 -228l-47 -440h-170l152 1434h170l-82 -766l780 766h213l-664 -650l564 -784h-197zM293 -475l174 407h225l-250 -407h-149z" glyph-name="Kcommaaccent" horiz-adv-x="1306" unicode="Ķ"/><glyph d="M774 0l-405 475l-166 -153l-35 -322h-168l154 1448h168l-99 -920l559 537h205l-504 -479l488 -586h-197zM160 -475l174 407h225l-250 -407h-149z" glyph-name="kcommaaccent" horiz-adv-x="1107" unicode="ķ"/><glyph d="M565 1884l-260 -325h-123l183 325h200zM193 160h643l-17 -160h-813l152 1434h170z" glyph-name="Lacute" horiz-adv-x="997" unicode="Ĺ"/><glyph d="M563 1817l-254 -265h-125l178 265h201zM322 1448l-154 -1448h-168l154 1448h168z" glyph-name="lacute" horiz-adv-x="397" unicode="ĺ"/><glyph d="M193 160h643l-17 -160h-813l152 1434h170zM119 -475l174 407h225l-250 -407h-149z" glyph-name="Lcommaaccent" horiz-adv-x="997" unicode="Ļ"/><glyph d="M326 1448l-154 -1448h-168l154 1448h168zM-203 -475l172 407h228l-250 -407h-150z" glyph-name="lcommaaccent" horiz-adv-x="413" unicode="ļ"/><glyph d="M193 160h643l-17 -160h-813l152 1434h170zM803 1432l-230 -455h-145l223 455h152z" glyph-name="Lcaron" horiz-adv-x="997" unicode="Ľ"/><glyph d="M322 1448l-154 -1448h-168l154 1448h168zM412 977l209 457h155l-223 -457h-141z" glyph-name="lcaron" horiz-adv-x="792" unicode="ľ"/><glyph d="M193 160h643l-17 -160h-813l152 1434h170zM643 645q-106 0 -94 107q8 94 102 94q106 0 97 -109q-9 -92 -105 -92z" glyph-name="Ldot" horiz-adv-x="997" unicode="Ŀ"/><glyph d="M322 1448l-154 -1448h-168l154 1448h168zM481 641q-106 0 -96 107q12 94 104 94q106 0 97 -109q-13 -92 -105 -92z" glyph-name="ldot" horiz-adv-x="675" unicode="ŀ"/><glyph d="M311 160h643l-16 -160h-813l51 467l-139 -131l18 190l140 131l81 777h170l-65 -596l287 270h4l-21 -190l-286 -273z" glyph-name="Lslash" horiz-adv-x="1116" unicode="Ł"/><glyph d="M600 1100l-20 -191l-203 -192l-76 -717h-168l60 541l-207 -195l18 193l207 192l76 717h168l-60 -541l201 193h4z" glyph-name="lslash" horiz-adv-x="657" unicode="ł"/><glyph d="M1069 1884l-260 -325h-123l182 325h201zM1157 1434h170l-151 -1434h-129l-750 1124l-121 -1124h-170l152 1434h129l749 -1127z" glyph-name="Nacute" horiz-adv-x="1406" unicode="Ń"/><glyph d="M905 1516l-260 -326h-123l183 326h200zM668 1085q168 0 274.5 -116.5t81.5 -350.5l-66 -618h-167l67 616q16 162 -52.5 242t-184.5 80q-137 0 -246 -98.5t-139 -206.5l-68 -633h-168l113 1065h168l-27 -244q29 82 142.5 173t271.5 91z" glyph-name="nacute" horiz-adv-x="1167" unicode="ń"/><glyph d="M1157 1434h170l-151 -1434h-129l-750 1124l-121 -1124h-170l152 1434h129l749 -1127zM301 -475l174 407h225l-249 -407h-150z" glyph-name="Ncommaaccent" horiz-adv-x="1406" unicode="Ņ"/><glyph d="M668 1085q168 0 274.5 -116.5t81.5 -350.5l-66 -618h-167l67 616q16 162 -52.5 242t-184.5 80q-137 0 -246 -98.5t-139 -206.5l-68 -633h-168l113 1065h168l-27 -244q29 82 142.5 173t271.5 91zM176 -475l174 407h225l-249 -407h-150z" glyph-name="ncommaaccent" horiz-adv-x="1167" unicode="ņ"/><glyph d="M719 1569l-223 309l65 57l211 -245l260 245l53 -57l-286 -309h-80zM1157 1434h170l-151 -1434h-129l-750 1124l-121 -1124h-170l152 1434h129l749 -1127z" glyph-name="Ncaron" horiz-adv-x="1406" unicode="Ň"/><glyph d="M555 1200l-223 309l65 58l211 -246l260 246l54 -58l-287 -309h-80zM668 1085q168 0 274.5 -116.5t81.5 -350.5l-66 -618h-167l67 616q16 162 -52.5 242t-184.5 80q-137 0 -246 -98.5t-139 -206.5l-68 -633h-168l113 1065h168l-27 -244q29 82 142.5 173t271.5 91z" glyph-name="ncaron" horiz-adv-x="1167" unicode="ň"/><glyph d="M1155 1434h172l-141 -1340l-2 -22q-18 -176 -95 -293t-177.5 -163t-221.5 -46q-129 0 -225 54t-143 145l116 112q82 -147 252 -147q270 0 322 321l-715 1065l-121 -1120h-170l152 1434h129l749 -1125z" glyph-name="Eng" horiz-adv-x="1406" unicode="Ŋ"/><glyph d="M659 1081q174 0 282 -116.5t83 -348.5l-66 -616l-14 -125q-31 -297 -287 -297q-117 0 -190 55l10 160q72 -45 154 -45q133 0 151 166l17 160l59 542q16 160 -48.5 239t-186.5 79q-135 0 -245 -98.5t-142 -208.5l-68 -627h-168l113 1065h168l-27 -244q29 78 141 169 t264 91z" glyph-name="eng" horiz-adv-x="1167" unicode="ŋ"/><glyph d="M1274 1802l-17 -141h-753l16 141h754zM854 1454q272 0 469 -188.5t197 -477.5q0 -215 -114 -402t-300 -296.5t-395 -109.5q-272 0 -468 187t-196 476q0 328 244 569.5t563 241.5zM723 141q242 0 431 189.5t189 451.5q0 221 -148 365.5t-353 144.5q-242 0 -430.5 -189.5 t-188.5 -451.5q0 -221 147.5 -365.5t352.5 -144.5z" glyph-name="Omacron" horiz-adv-x="1640" unicode="Ō"/><glyph d="M1038 1434l-16 -142h-754l17 142h753zM618 1085q190 0 343 -133t153 -364q0 -254 -177 -431t-423 -177q-190 0 -343 132t-153 363q0 256 177 433t423 177zM528 129q158 0 291 123t133 332q0 168 -105.5 260t-242.5 92q-158 0 -291 -123t-133 -334q0 -166 105.5 -258 t242.5 -92z" glyph-name="omacron" horiz-adv-x="1234" unicode="ō"/><glyph d="M997 1884l-260 -325h-123l183 325h200zM1319 1884l-260 -325h-123l182 325h201zM854 1454q272 0 469 -188.5t197 -477.5q0 -215 -114 -402t-300 -296.5t-395 -109.5q-272 0 -468 187t-196 476q0 328 244 569.5t563 241.5zM723 141q242 0 431 189.5t189 451.5 q0 221 -148 365.5t-353 144.5q-242 0 -430.5 -189.5t-188.5 -451.5q0 -221 147.5 -365.5t352.5 -144.5z" glyph-name="Ohungarumlaut" horiz-adv-x="1640" unicode="Ő"/><glyph d="M762 1516l-260 -326h-123l182 326h201zM1083 1516l-260 -326h-123l183 326h200zM618 1085q190 0 343 -133t153 -364q0 -254 -177 -431t-423 -177q-190 0 -343 132t-153 363q0 256 177 433t423 177zM528 129q158 0 291 123t133 332q0 168 -105.5 260t-242.5 92 q-158 0 -291 -123t-133 -334q0 -166 105.5 -258t242.5 -92z" glyph-name="ohungarumlaut" horiz-adv-x="1234" unicode="ő"/><glyph d="M1452 160h682l-16 -160h-852l28 248q-113 -127 -268.5 -197.5t-314.5 -70.5q-188 0 -347 93t-247 267t-66 385q33 311 273.5 520t529.5 209q162 0 304 -73.5t231 -200.5l28 254h834l-17 -160h-663l-49 -475h516l-17 -156h-518zM715 141q238 0 418 165t206 419 q27 248 -116.5 407.5t-372.5 159.5q-221 0 -410.5 -167t-214.5 -416q-25 -244 124 -406t366 -162z" glyph-name="OE" horiz-adv-x="2316" unicode="Œ"/><glyph d="M2025 610q0 -72 -14 -143h-901q2 -166 106.5 -255t258.5 -89q203 0 335 117l88 -90q-156 -170 -434 -170q-145 0 -270 66.5t-190 189.5q-84 -119 -213 -187.5t-277 -68.5q-190 0 -343 132t-153 363q0 256 177.5 433t422.5 177q131 0 253 -67.5t188 -192.5 q84 121 213 190.5t276 69.5q182 0 329.5 -124t147.5 -351zM1876 594q4 166 -97.5 256t-234.5 90q-137 0 -259 -91t-159 -255h750zM528 129q158 0 291 123t133 332q0 168 -105.5 260t-242.5 92q-158 0 -291 -123t-133 -334q0 -166 105.5 -258t242.5 -92z" glyph-name="oe" horiz-adv-x="2144" unicode="œ"/><glyph d="M961 1884l-261 -325h-122l182 325h201zM1059 0h-185l-307 516h-336l-55 -516h-170l152 1434h463q236 0 360.5 -131.5t101.5 -337.5q-16 -152 -108 -263.5t-244 -156.5zM248 668h289q158 0 261 81.5t117 229.5q14 141 -68.5 218t-240.5 77h-295z" glyph-name="Racute" horiz-adv-x="1243" unicode="Ŕ"/><glyph d="M719 1516l-260 -326h-123l182 326h201zM670 1083q27 0 63 -4l-18 -157q-18 4 -47 4q-158 0 -281 -106.5t-162 -284.5l-57 -535h-168l113 1065h168l-31 -277q45 123 159 209t261 86z" glyph-name="racute" horiz-adv-x="768" unicode="ŕ"/><glyph d="M1059 0h-185l-307 516h-336l-55 -516h-170l152 1434h463q236 0 360.5 -131.5t101.5 -337.5q-16 -152 -108 -263.5t-244 -156.5zM248 668h289q158 0 261 81.5t117 229.5q14 141 -68.5 218t-240.5 77h-295zM209 -475l174 407h225l-250 -407h-149z" glyph-name="Rcommaaccent" horiz-adv-x="1243" unicode="Ŗ"/><glyph d="M670 1083q27 0 63 -4l-18 -157q-18 4 -47 4q-158 0 -281 -106.5t-162 -284.5l-57 -535h-168l113 1065h168l-31 -277q45 123 159 209t261 86zM-203 -475l172 407h228l-250 -407h-150z" glyph-name="rcommaaccent" horiz-adv-x="768" unicode="ŗ"/><glyph d="M610 1569l-223 309l66 57l211 -245l260 245l53 -57l-287 -309h-80zM1059 0h-185l-307 516h-336l-55 -516h-170l152 1434h463q236 0 360.5 -131.5t101.5 -337.5q-16 -152 -108 -263.5t-244 -156.5zM248 668h289q158 0 261 81.5t117 229.5q14 141 -68.5 218t-240.5 77h-295 z" glyph-name="Rcaron" horiz-adv-x="1243" unicode="Ř"/><glyph d="M369 1200l-224 309l66 58l211 -246l260 246l53 -58l-286 -309h-80zM670 1083q27 0 63 -4l-18 -157q-18 4 -47 4q-158 0 -281 -106.5t-162 -284.5l-57 -535h-168l113 1065h168l-31 -277q45 123 159 209t261 86z" glyph-name="rcaron" horiz-adv-x="768" unicode="ř"/><glyph d="M920 1884l-261 -325h-122l182 325h201zM590 1458q160 0 272.5 -89t153.5 -214l-135 -63q-88 213 -299 213q-129 0 -211 -65.5t-82 -174.5q0 -78 49 -131t154 -94l100 -39q188 -74 283.5 -164t95.5 -229q0 -197 -154.5 -318t-357.5 -121q-184 0 -313.5 99.5t-157.5 255.5 l139 59q27 -117 115 -187.5t221 -70.5q137 0 235.5 77t98.5 201q0 94 -61.5 147.5t-192.5 104.5l-103 41q-156 63 -237.5 149.5t-81.5 217.5q0 172 136 283.5t333 111.5z" glyph-name="Sacute" horiz-adv-x="1097" unicode="Ś"/><glyph d="M745 1516l-260 -326h-123l183 326h200zM606 813q-49 135 -194 135q-86 0 -139.5 -47t-53.5 -119q0 -100 129 -147l105 -37q139 -49 208.5 -110.5t69.5 -172.5q0 -158 -122 -246.5t-281 -88.5q-145 0 -248 76.5t-117 209.5l137 33q14 -86 77 -134t155 -48q96 0 165.5 50 t69.5 138q0 102 -151 160l-117 41q-242 86 -242 276q0 129 103.5 216t253.5 87q129 0 215 -64.5t114 -172.5z" glyph-name="sacute" horiz-adv-x="868" unicode="ś"/><glyph d="M592 801q188 -74 283.5 -164t95.5 -229q0 -184 -137.5 -303t-327.5 -134l-74 -63q70 -4 121 -48t51 -116q0 -109 -114.5 -158t-258.5 -18l21 53q92 -14 154.5 24t62.5 101q0 55 -44 79.5t-101 -5.5l-56 57l90 100q-147 27 -246.5 120t-123.5 227l139 59 q27 -117 115 -187.5t221 -70.5q137 0 235.5 77t98.5 201q0 94 -61.5 147.5t-192.5 104.5l-103 41q-156 63 -237.5 149.5t-81.5 217.5q0 172 136 283.5t333 111.5q160 0 272.5 -89t153.5 -214l-135 -63q-88 213 -299 213q-129 0 -211 -65.5t-82 -174.5q0 -78 49 -131t154 -94 z" glyph-name="Scedilla" horiz-adv-x="1097" unicode="Ş"/><glyph d="M453 598q139 -49 208.5 -110.5t69.5 -172.5q0 -141 -100.5 -228t-241.5 -103l-88 -76q70 -4 121 -48t51 -116q0 -109 -114.5 -158t-258.5 -18l21 53q92 -14 154.5 24t62.5 101q0 55 -44 79.5t-101 -5.5l-56 57l101 111q-115 23 -189 95.5t-86 182.5l137 33 q14 -86 77 -134t155 -48q96 0 165.5 50t69.5 138q0 102 -151 160l-117 41q-242 86 -242 276q0 129 103.5 216t253.5 87q129 0 215 -64.5t114 -172.5l-137 -35q-49 135 -194 135q-86 0 -139.5 -47t-53.5 -119q0 -100 129 -147z" glyph-name="scedilla" horiz-adv-x="868" unicode="ş"/><glyph d="M569 1569l-223 309l66 57l211 -245l260 245l53 -57l-287 -309h-80zM590 1458q160 0 272.5 -89t153.5 -214l-135 -63q-88 213 -299 213q-129 0 -211 -65.5t-82 -174.5q0 -78 49 -131t154 -94l100 -39q188 -74 283.5 -164t95.5 -229q0 -197 -154.5 -318t-357.5 -121 q-184 0 -313.5 99.5t-157.5 255.5l139 59q27 -117 115 -187.5t221 -70.5q137 0 235.5 77t98.5 201q0 94 -61.5 147.5t-192.5 104.5l-103 41q-156 63 -237.5 149.5t-81.5 217.5q0 172 136 283.5t333 111.5z" glyph-name="Scaron" horiz-adv-x="1097" unicode="Š"/><glyph d="M395 1200l-223 309l66 58l211 -246l260 246l53 -58l-287 -309h-80zM606 813q-49 135 -194 135q-86 0 -139.5 -47t-53.5 -119q0 -100 129 -147l105 -37q139 -49 208.5 -110.5t69.5 -172.5q0 -158 -122 -246.5t-281 -88.5q-145 0 -248 76.5t-117 209.5l137 33 q14 -86 77 -134t155 -48q96 0 165.5 50t69.5 138q0 102 -151 160l-117 41q-242 86 -242 276q0 129 103.5 216t253.5 87q129 0 215 -64.5t114 -172.5z" glyph-name="scaron" horiz-adv-x="868" unicode="š"/><glyph d="M127 1434h956l-16 -160h-393l-135 -1274h8l-109 -92q70 -4 121 -48t51 -116q0 -109 -114.5 -158t-257.5 -18l20 53q92 -14 154.5 24t62.5 101q0 55 -43 79.5t-102 -5.5l-56 57l111 123h-16l135 1274h-395z" glyph-name="Tcommaaccent" horiz-adv-x="1122" unicode="Ţ"/><glyph d="M360 924l-71 -682q-14 -104 71 -105q66 0 144 31l-17 -143q-41 -23 -94 -31l-100 -86q70 -4 121 -48t51 -116q0 -109 -114.5 -158t-258.5 -18l21 53q92 -14 154.5 24t62.5 101q0 55 -44 79.5t-102 -5.5l-55 57l109 121q-135 43 -117 238l72 688h-146l14 141h146l26 250 h168l-26 -250h223l-14 -141h-224z" glyph-name="tcommaaccent" horiz-adv-x="673" unicode="ţ"/><glyph d="M582 1569l-224 309l66 57l211 -245l260 245l53 -57l-286 -309h-80zM1083 1434l-16 -160h-393l-135 -1274h-170l135 1274h-395l18 160h956z" glyph-name="Tcaron" horiz-adv-x="1122" unicode="Ť"/><glyph d="M694 1434l43 -119l-180 -146l-10 121zM584 924h-224l-71 -682q-14 -104 71 -105q66 0 144 31l-17 -143q-68 -37 -176 -37q-94 0 -148 58t-42 190l72 688h-146l14 141h146l26 250h168l-26 -250h223z" glyph-name="tcaron" horiz-adv-x="876" unicode="ť"/><glyph d="M1067 1274h-393l-23 -219h291l-20 -160h-289l-94 -895h-170l94 895h-293l20 160h291l23 219h-395l18 160h956z" glyph-name="Tbar" horiz-adv-x="1122" unicode="Ŧ"/><glyph d="M584 924h-224l-16 -162h221l-16 -141h-221l-41 -388q-10 -98 67 -98q66 0 146 35l-8 -147q-76 -35 -183 -35q-215 0 -188 239l39 394h-146l17 141h145l17 162h-146l14 141h146l26 250h168l-26 -250h223z" glyph-name="tbar" horiz-adv-x="673" unicode="ŧ"/><glyph d="M551 1864q68 0 126 -35t105 -70t88 -35q53 0 87 26t38 56l78 -8q-10 -96 -71.5 -152.5t-147.5 -56.5q-84 0 -178 76t-150 76q-51 0 -85.5 -31t-37.5 -65l-75 6q10 96 73.5 154.5t149.5 58.5zM1022 1434h170l-96 -918q-27 -256 -187.5 -401.5t-384.5 -145.5 q-227 0 -361 149.5t-108 405.5l97 910h170l-97 -916q-18 -190 68 -288.5t235 -98.5q156 0 267.5 100.5t130.5 292.5z" glyph-name="Utilde" horiz-adv-x="1271" unicode="Ũ"/><glyph d="M465 1495q68 0 126 -35t105 -69.5t88 -34.5q53 0 87 25.5t38 56.5l78 -8q-10 -96 -71.5 -152.5t-147.5 -56.5q-84 0 -178 75.5t-150 75.5q-51 0 -86 -30.5t-37 -65.5l-75 6q10 96 73.5 154.5t149.5 58.5zM389 -20q-168 0 -274.5 117.5t-81.5 351.5l63 616h166l-63 -616 q-16 -160 53.5 -240t187.5 -80q141 0 243.5 97.5t135.5 211.5l68 627h166l-113 -1065h-166l27 240q-31 -80 -143.5 -170t-268.5 -90z" glyph-name="utilde" horiz-adv-x="1150" unicode="ũ"/><glyph d="M1085 1802l-16 -141h-754l17 141h753zM1022 1434h170l-96 -918q-27 -256 -187.5 -401.5t-384.5 -145.5q-227 0 -361 149.5t-108 405.5l97 910h170l-97 -916q-18 -190 68 -288.5t235 -98.5q156 0 267.5 100.5t130.5 292.5z" glyph-name="Umacron" horiz-adv-x="1271" unicode="Ū"/><glyph d="M999 1434l-16 -142h-754l17 142h753zM389 -20q-168 0 -274.5 117.5t-81.5 351.5l63 616h166l-63 -616q-16 -160 53.5 -240t187.5 -80q141 0 243.5 97.5t135.5 211.5l68 627h166l-113 -1065h-166l27 240q-31 -80 -143.5 -170t-268.5 -90z" glyph-name="umacron" horiz-adv-x="1150" unicode="ū"/><glyph d="M926 1495q-14 -121 -104.5 -209t-229.5 -88t-207 89t-57 208h108q2 -76 42 -126t124 -50q88 0 142.5 50t72.5 126h109zM389 -20q-168 0 -274.5 117.5t-81.5 351.5l63 616h166l-63 -616q-16 -160 53.5 -240t187.5 -80q141 0 243.5 97.5t135.5 211.5l68 627h166l-113 -1065 h-166l27 240q-31 -80 -143.5 -170t-268.5 -90z" glyph-name="ubreve" horiz-adv-x="1150" unicode="ŭ"/><glyph d="M719 1958q74 0 124 -50t50 -122q0 -82 -60.5 -141.5t-142.5 -59.5q-74 0 -124 51.5t-50 122.5q0 80 60.5 139.5t142.5 59.5zM713 1847q-33 0 -57.5 -24.5t-24.5 -59.5q0 -27 19.5 -45t45.5 -18q33 0 58.5 24.5t25.5 57.5q0 27 -19 46t-48 19zM1022 1434h170l-96 -918 q-27 -256 -187.5 -401.5t-384.5 -145.5q-227 0 -361 149.5t-108 405.5l97 910h170l-97 -916q-18 -190 68 -288.5t235 -98.5q156 0 267.5 100.5t130.5 292.5z" glyph-name="Uring" horiz-adv-x="1271" unicode="Ů"/><glyph d="M633 1589q74 0 124 -50t50 -122q0 -82 -60.5 -141t-142.5 -59q-74 0 -124 51t-50 123q0 80 60.5 139t142.5 59zM627 1479q-33 0 -57.5 -24.5t-24.5 -59.5q0 -27 19.5 -45.5t45.5 -18.5q33 0 58.5 24.5t25.5 57.5q0 27 -19 46.5t-48 19.5zM389 -20q-168 0 -274.5 117.5 t-81.5 351.5l63 616h166l-63 -616q-16 -160 53.5 -240t187.5 -80q141 0 243.5 97.5t135.5 211.5l68 627h166l-113 -1065h-166l27 240q-31 -80 -143.5 -170t-268.5 -90z" glyph-name="uring" horiz-adv-x="1150" unicode="ů"/><glyph d="M809 1884l-260 -325h-123l182 325h201zM1130 1884l-260 -325h-122l182 325h200zM1022 1434h170l-96 -918q-27 -256 -187.5 -401.5t-384.5 -145.5q-227 0 -361 149.5t-108 405.5l97 910h170l-97 -916q-18 -190 68 -288.5t235 -98.5q156 0 267.5 100.5t130.5 292.5z" glyph-name="Uhungarumlaut" horiz-adv-x="1271" unicode="Ű"/><glyph d="M723 1516l-260 -326h-123l182 326h201zM1044 1516l-260 -326h-122l182 326h200zM389 -20q-168 0 -274.5 117.5t-81.5 351.5l63 616h166l-63 -616q-16 -160 53.5 -240t187.5 -80q141 0 243.5 97.5t135.5 211.5l68 627h166l-113 -1065h-166l27 240q-31 -80 -143.5 -170 t-268.5 -90z" glyph-name="uhungarumlaut" horiz-adv-x="1150" unicode="ű"/><glyph d="M1022 1434h170l-96 -918q-23 -211 -136.5 -348t-283.5 -182q-233 -92 -250 -219q-6 -55 45 -78t113 0l37 -84q-45 -20 -107.5 -24.5t-121 10t-96.5 61.5t-30 117q14 125 199 204q-201 16 -317.5 163t-92.5 388l97 910h170l-97 -916q-18 -190 68 -288.5t235 -98.5 q156 0 267.5 100.5t130.5 292.5z" glyph-name="Uogonek" horiz-adv-x="1271" unicode="Ų"/><glyph d="M653 -238q0 -61 49.5 -84.5t110.5 -3.5l37 -82q-47 -20 -106.5 -22t-116 13.5t-94 57.5t-37.5 103q0 94 78.5 161.5t195.5 94.5l31 244q-31 -80 -141.5 -170t-262.5 -90q-174 0 -281.5 116.5t-82.5 348.5l63 616h166l-63 -616q-18 -160 46 -238t187 -78q135 0 244.5 98.5 t142.5 206.5l68 627h166l-109 -1067q-291 -103 -291 -236z" glyph-name="uogonek" horiz-adv-x="1153" unicode="ų"/><glyph d="M1143 1935l223 -309l-66 -57l-210 246l-261 -246l-53 57l287 309h80zM2021 1434l-616 -1434h-111l-274 1122l-512 -1122h-111l-313 1434h174l234 -1088l499 1088h117l270 -1088l465 1088h178z" glyph-name="Wcircumflex" horiz-adv-x="2019" unicode="Ŵ"/><glyph d="M1032 1567l223 -310l-65 -57l-211 246l-260 -246l-53 57l286 310h80zM1661 1067h170l-514 -1067h-146l-245 872l-434 -872h-146l-291 1067h166l221 -848l424 848h152l244 -848z" glyph-name="wcircumflex" horiz-adv-x="1878" unicode="ŵ"/><glyph d="M815 1935l223 -309l-65 -57l-211 246l-260 -246l-53 57l286 309h80zM1343 1434l-616 -772l-72 -662h-170l72 662l-453 772h193l356 -617l494 617h196z" glyph-name="Ycircumflex" horiz-adv-x="1361" unicode="Ŷ"/><glyph d="M627 1446l-260 -246l-54 57l287 310h80l223 -310l-65 -57zM969 1067h172l-801 -1456h-172l238 426l-351 1030h164l287 -848z" glyph-name="ycircumflex" horiz-adv-x="1187" unicode="ŷ"/><glyph d="M604 1804l-16 -153h-160l16 153h160zM1061 1804l-17 -153h-159l16 153h160zM1343 1434l-616 -772l-72 -662h-170l72 662l-453 772h193l356 -617l494 617h196z" glyph-name="Ydieresis" horiz-adv-x="1361" unicode="Ÿ"/><glyph d="M967 1884l-260 -325h-123l182 325h201zM1204 1434l-952 -1284h823l-14 -150h-1106l952 1286h-768l17 148h1048z" glyph-name="Zacute" horiz-adv-x="1239" unicode="Ź"/><glyph d="M868 1516l-260 -326h-123l183 326h200zM1004 1065l-771 -915h652l-17 -150h-931l770 918h-615l17 147h895z" glyph-name="zacute" horiz-adv-x="1052" unicode="ź"/><glyph d="M760 1804l-17 -153h-159l16 153h160zM1204 1434l-952 -1284h823l-14 -150h-1106l952 1286h-768l17 148h1048z" glyph-name="Zdotaccent" horiz-adv-x="1239" unicode="Ż"/><glyph d="M662 1436l-17 -154h-160l17 154h160zM1004 1065l-771 -915h652l-17 -150h-931l770 918h-615l17 147h895z" glyph-name="zdotaccent" horiz-adv-x="1052" unicode="ż"/><glyph d="M616 1569l-223 309l66 57l211 -245l260 245l53 -57l-287 -309h-80zM1204 1434l-952 -1284h823l-14 -150h-1106l952 1286h-768l17 148h1048z" glyph-name="Zcaron" horiz-adv-x="1239" unicode="Ž"/><glyph d="M518 1200l-223 309l65 58l211 -246l260 246l54 -58l-287 -309h-80zM1004 1065l-771 -915h652l-17 -150h-931l770 918h-615l17 147h895z" glyph-name="zcaron" horiz-adv-x="1052" unicode="ž"/><glyph d="M592 1315q-100 0 -142 -48t-57 -169l-2 -33h172l-16 -145h-172l-101 -983q-20 -188 -106 -257t-268 -69l8 147q100 0 143 44t55 163l99 955h-160l16 145h160l6 61q20 190 107.5 263t267.5 73z" glyph-name="florin" horiz-adv-x="614" unicode="ƒ"/><glyph d="M754 1569l-224 309l66 57l211 -245l260 245l53 -57l-286 -309h-80zM1151 0l-113 338h-747l-182 -338h-185l783 1434h141l481 -1434h-178zM371 481h620l-233 729z" glyph-name="uni01CD" horiz-adv-x="1476" unicode="Ǎ"/><glyph d="M616 1200l-223 309l66 58l211 -246l260 246l53 -58l-287 -309h-80zM606 1083q137 0 236.5 -65.5t128.5 -155.5l24 203h166l-112 -1065h-166l22 201q-49 -96 -157.5 -158.5t-245.5 -62.5q-190 0 -337 131t-147 360q0 252 174 432t414 180zM612 934q-180 0 -305 -131 t-125 -320q0 -168 104.5 -261t243.5 -93q172 0 296 129t124 332q0 166 -100.5 255t-237.5 89z" glyph-name="uni01CE" unicode="ǎ"/><glyph d="M219 1569l-223 309l65 57l211 -245l260 245l54 -57l-287 -309h-80zM328 1434l-152 -1434h-170l152 1434h170z" glyph-name="uni01CF" horiz-adv-x="407" unicode="Ǐ"/><glyph d="M172 1200l-223 309l65 58l211 -246l260 246l54 -58l-287 -309h-80zM281 1065l-113 -1065h-168l113 1065h168z" glyph-name="uni01D0" horiz-adv-x="378" unicode="ǐ"/><glyph d="M834 1569l-224 309l66 57l211 -245l260 245l53 -57l-287 -309h-79zM854 1454q272 0 469 -188.5t197 -477.5q0 -215 -114 -402t-300 -296.5t-395 -109.5q-272 0 -468 187t-196 476q0 328 244 569.5t563 241.5zM723 141q242 0 431 189.5t189 451.5q0 221 -148 365.5 t-353 144.5q-242 0 -430.5 -189.5t-188.5 -451.5q0 -221 147.5 -365.5t352.5 -144.5z" glyph-name="uni01D1" horiz-adv-x="1640" unicode="Ǒ"/><glyph d="M598 1200l-223 309l65 58l211 -246l260 246l54 -58l-287 -309h-80zM618 1085q190 0 343 -133t153 -364q0 -254 -177 -431t-423 -177q-190 0 -343 132t-153 363q0 256 177 433t423 177zM528 129q158 0 291 123t133 332q0 168 -105.5 260t-242.5 92q-158 0 -291 -123 t-133 -334q0 -166 105.5 -258t242.5 -92z" glyph-name="uni01D2" horiz-adv-x="1234" unicode="ǒ"/><glyph d="M645 1569l-223 309l65 57l211 -245l260 245l54 -57l-287 -309h-80zM1022 1434h170l-96 -918q-27 -256 -187.5 -401.5t-384.5 -145.5q-227 0 -361 149.5t-108 405.5l97 910h170l-97 -916q-18 -190 68 -288.5t235 -98.5q156 0 267.5 100.5t130.5 292.5z" glyph-name="uni01D3" horiz-adv-x="1271" unicode="Ǔ"/><glyph d="M559 1200l-223 309l65 58l211 -246l260 246l54 -58l-287 -309h-80zM389 -20q-168 0 -274.5 117.5t-81.5 351.5l63 616h166l-63 -616q-16 -160 53.5 -240t187.5 -80q141 0 243.5 97.5t135.5 211.5l68 627h166l-113 -1065h-166l27 240q-31 -80 -143.5 -170t-268.5 -90z" glyph-name="uni01D4" horiz-adv-x="1150" unicode="ǔ"/><glyph d="M879 -2q-295 -102 -308 -242q-6 -55 43.5 -77.5t112.5 -2.5l37 -84q-45 -20 -106.5 -23t-120 11t-96.5 61.5t-29 116.5q12 141 245 226q-272 18 -454.5 227t-151.5 514q33 311 273.5 520t529.5 209q188 0 347 -93t248 -267t67 -385q-29 -264 -211 -459t-426 -252z M225 709q-25 -244 124 -406t366 -162q223 0 412.5 167t213.5 417q25 242 -124.5 404.5t-366.5 162.5q-221 0 -410.5 -166.5t-214.5 -416.5z" glyph-name="uni01EA" horiz-adv-x="1640" unicode="Ǫ"/><glyph d="M651 -4q-291 -100 -303 -240q-6 -55 43 -77.5t113 -2.5l37 -84q-45 -20 -106.5 -23t-120 11t-96.5 61.5t-30 116.5q14 145 258 228q-86 10 -165.5 50t-144 106.5t-96.5 170t-20 226.5q18 172 119 300t227 186t250 58q207 0 364 -150.5t130 -408.5q-23 -209 -154 -346 t-305 -182zM182 524q-20 -186 85.5 -290.5t248.5 -104.5q147 0 279.5 109.5t152.5 300.5q20 186 -85 290.5t-249 104.5q-147 0 -279.5 -110t-152.5 -300z" glyph-name="uni01EB" horiz-adv-x="1232" unicode="ǫ"/><glyph d="M590 1458q160 0 272.5 -89t153.5 -214l-135 -63q-88 213 -299 213q-129 0 -211 -65.5t-82 -174.5q0 -78 49 -131t154 -94l100 -39q188 -74 283.5 -164t95.5 -229q0 -197 -154.5 -318t-357.5 -121q-184 0 -313.5 99.5t-157.5 255.5l139 59q27 -117 115 -187.5t221 -70.5 q137 0 235.5 77t98.5 201q0 94 -61.5 147.5t-192.5 104.5l-103 41q-156 63 -237.5 149.5t-81.5 217.5q0 172 136 283.5t333 111.5zM158 -475l174 407h225l-250 -407h-149z" glyph-name="Scommaaccent" horiz-adv-x="1097" unicode="Ș"/><glyph d="M606 813q-49 135 -194 135q-86 0 -139.5 -47t-53.5 -119q0 -100 129 -147l105 -37q139 -49 208.5 -110.5t69.5 -172.5q0 -158 -122 -246.5t-281 -88.5q-145 0 -248 76.5t-117 209.5l137 33q14 -86 77 -134t155 -48q96 0 165.5 50t69.5 138q0 102 -151 160l-117 41 q-242 86 -242 276q0 129 103.5 216t253.5 87q129 0 215 -64.5t114 -172.5zM27 -475l174 407h225l-250 -407h-149z" glyph-name="scommaaccent" horiz-adv-x="868" unicode="ș"/><glyph d="M1083 1434l-16 -160h-393l-135 -1274h-170l135 1274h-395l18 160h956zM164 -475l174 407h225l-250 -407h-149z" glyph-name="uni021A" horiz-adv-x="1122" unicode="Ț"/><glyph d="M584 924h-224l-71 -682q-14 -104 71 -105q66 0 144 31l-17 -143q-68 -37 -176 -37q-94 0 -148 58t-42 190l72 688h-146l14 141h146l26 250h168l-26 -250h223zM18 -475l175 407h225l-250 -407h-150z" glyph-name="uni021B" horiz-adv-x="673" unicode="ț"/><glyph d="M342 1065l-125 -1190q-31 -297 -287 -297q-117 0 -190 55l8 160q72 -45 156 -45q133 0 151 166l121 1151h166z" glyph-name="uni0237" horiz-adv-x="440" unicode="ȷ"/><glyph d="M442 1567l224 -310l-66 -57l-211 246l-260 -246l-53 57l286 310h80z" glyph-name="circumflex" horiz-adv-x="589" unicode="ˆ"/><glyph d="M328 1200l-224 309l66 58l211 -246l260 246l53 -58l-286 -309h-80z" glyph-name="caron" horiz-adv-x="589" unicode="ˇ"/><glyph d="M698 1495q-14 -121 -104 -209t-229.5 -88t-207 89t-57.5 208h109q2 -76 42 -126t124 -50q88 0 142 50t73 126h108z" glyph-name="breve" horiz-adv-x="598" unicode="˘"/><glyph d="M254 1436l-16 -154h-160l16 154h160z" glyph-name="dotaccent" horiz-adv-x="159" unicode="˙"/><glyph d="M295 1589q74 0 124 -50t50 -122q0 -82 -60.5 -141t-142.5 -59q-74 0 -124 51t-50 123q0 80 60.5 139t142.5 59zM289 1479q-33 0 -57.5 -24.5t-24.5 -59.5q0 -27 19.5 -45.5t45.5 -18.5q33 0 58.5 24.5t25.5 57.5q0 27 -19 46.5t-48 19.5z" glyph-name="ring" horiz-adv-x="378" unicode="˚"/><glyph d="M385 0q-307 -109 -307 -248q0 -55 47 -74.5t111 -1.5l36 -84q-78 -29 -156.5 -27.5t-138 47.5t-59.5 122q0 92 84 159.5t217 106.5h166z" glyph-name="ogonek" horiz-adv-x="440" unicode="˛"/><glyph d="M301 1495q68 0 126 -35t105.5 -69.5t88.5 -34.5q53 0 86.5 25.5t37.5 56.5l78 -8q-10 -96 -71.5 -152.5t-147.5 -56.5q-84 0 -178 75.5t-150 75.5q-51 0 -85.5 -30.5t-36.5 -65.5l-76 6q10 96 73.5 154.5t149.5 58.5z" glyph-name="tilde" horiz-adv-x="729" unicode="˜"/><glyph d="M453 1516l-260 -326h-123l182 326h201zM774 1516l-260 -326h-123l182 326h201z" glyph-name="hungarumlaut" horiz-adv-x="671" unicode="˝"/><glyph d="M-565 -440l174 407h225l-250 -407h-149z" glyph-name="uni0326" horiz-adv-x="0" unicode="̦"/><glyph d="M813 1434l471 -1434h-1296l776 1434h49zM762 1149l-533 -999h852z" glyph-name="Delta" horiz-adv-x="1501" unicode="Δ"/><glyph d="M831 1448q133 0 257 -54.5t215.5 -148.5t138.5 -231t31 -291q-35 -326 -347 -549l11 -12h225l-16 -162h-426l22 236l86 65q246 176 272 436q27 240 -117.5 393.5t-355.5 153.5q-215 0 -396 -157.5t-206 -403.5q-31 -256 172 -428l78 -59l-24 -236h-424l16 162h229l17 18 q-272 229 -236 557q31 301 267.5 506t510.5 205z" glyph-name="Omega" horiz-adv-x="1595" unicode="Ω"/><glyph d="M889 1065h166l-113 -1065h-166l27 244q-31 -80 -142.5 -170t-263.5 -90q-147 0 -233 86l-53 -459h-166l153 1454h166l-63 -616q-18 -160 46 -238t187 -78q135 0 244.5 98.5t142.5 206.5z" glyph-name="mu" horiz-adv-x="1153" unicode="μ"/><glyph d="M1049 137q70 0 147 37l-8 -151q-76 -35 -174.5 -35t-159.5 50t-49 159l76 721h-420l-96 -918h-170l96 918h-205l16 147h1168l-17 -147h-202l-70 -672q-8 -68 8.5 -88.5t59.5 -20.5z" glyph-name="pi" horiz-adv-x="1384" unicode="π"/><glyph d="M481 1802l-16 -147h-172l16 147h172zM952 1802l-16 -147h-172l14 147h174zM193 160h681l-16 -160h-852l152 1434h833l-18 -160h-662l-49 -475h516l-16 -156h-518z" glyph-name="afii10023" horiz-adv-x="1056" unicode="Ё"/><glyph d="M926 1802l-254 -264h-125l178 264h201zM1014 1434l-19 -160h-684l-135 -1274h-170l152 1434h856z" glyph-name="afii10052" horiz-adv-x="1042" unicode="Ѓ"/><glyph d="M1108 276l100 -126q-217 -170 -495 -170q-141 0 -269.5 55t-221.5 151.5t-140 237.5t-31 301q33 311 274.5 520t530.5 209q270 0 461 -174l-113 -113q-143 125 -342 125q-211 0 -393 -142t-231 -362l415 5l-16 -150l-414 -2q2 -219 150.5 -359.5t355.5 -140.5 q205 0 379 135z" glyph-name="afii10053" horiz-adv-x="1368" unicode="Є"/><glyph d="M328 1434l-152 -1434h-170l152 1434h170z" glyph-name="afii10055" horiz-adv-x="407" unicode="І"/><glyph d="M137 1802l-16 -147h-172l14 147h174zM608 1802l-16 -147h-172l14 147h174zM332 1434l-152 -1434h-170l152 1434h170z" glyph-name="afii10056" horiz-adv-x="415" unicode="Ї"/><glyph d="M1151 0l-113 338h-747l-182 -338h-185l783 1434h141l481 -1434h-178zM371 481h620l-233 729z" glyph-name="afii10017" horiz-adv-x="1476" unicode="А"/><glyph d="M565 918q238 0 363 -128t102 -335q-23 -201 -171 -328t-384 -127h-469l152 1434h874l-18 -160h-703l-39 -356h293zM481 160q160 0 263.5 81t117.5 228q14 141 -68.5 219t-242.5 78h-295l-63 -606h288z" glyph-name="afii10018" horiz-adv-x="1165" unicode="Б"/><glyph d="M778 786q125 -29 200 -123t75 -219q0 -217 -151.5 -330.5t-409.5 -113.5h-486l152 1434h485q188 0 288.5 -88.5t100.5 -225.5q0 -115 -65.5 -203t-188.5 -131zM623 1282h-312l-45 -438h303q129 0 211 71.5t82 182.5q0 86 -62 135t-177 49zM498 152q182 0 285.5 79.5 t103.5 227.5q0 109 -79 176t-237 67h-321l-57 -550h305z" glyph-name="afii10019" horiz-adv-x="1187" unicode="В"/><glyph d="M1014 1434l-19 -160h-684l-135 -1274h-170l152 1434h856z" glyph-name="afii10020" horiz-adv-x="1042" unicode="Г"/><glyph d="M1280 160h188l-30 -301h-170l14 141h-1143l-14 -141h-170l31 301l145 2q49 90 86 247.5t54.5 300t50.5 441.5l30 283h1063zM299 156l811 4l119 1114h-725l-12 -131q-33 -309 -50.5 -442.5t-54.5 -294t-88 -250.5z" glyph-name="afii10021" horiz-adv-x="1646" unicode="Д"/><glyph d="M193 160h681l-16 -160h-852l152 1434h833l-18 -160h-662l-49 -475h516l-16 -156h-518z" glyph-name="afii10022" horiz-adv-x="1056" unicode="Е"/><glyph d="M1843 0l-483 668l-234 -228l-49 -440h-174l47 440l-182 228l-629 -668h-202l733 784l-525 650h209l619 -766l82 766h174l-82 -766l780 766h213l-663 -650l565 -784h-199z" glyph-name="afii10024" horiz-adv-x="2209" unicode="Ж"/><glyph d="M625 1448q190 0 311 -108.5t102 -270.5q-10 -104 -92 -190t-211 -117q135 -16 227.5 -113.5t75.5 -249.5q-18 -193 -178 -306t-379 -113q-223 0 -355 125.5t-112 314.5l174 -6q-12 -121 77 -197t220 -76q141 0 254 73t127 206q14 125 -85 194.5t-283 73.5l6 129 q172 8 261 83t101 177q8 92 -63.5 150.5t-181.5 58.5q-123 0 -216.5 -71.5t-105.5 -200.5l-176 6q20 197 162.5 312.5t339.5 115.5z" glyph-name="afii10025" horiz-adv-x="1189" unicode="З"/><glyph d="M328 1434l-119 -1125l985 1125h133l-151 -1434h-170l118 1122l-987 -1122h-131l152 1434h170z" glyph-name="afii10026" horiz-adv-x="1406" unicode="И"/><glyph d="M1120 1798q-14 -109 -99 -191.5t-220 -82.5t-209 87t-64 195l109 -8q4 -63 45 -108t119 -45q82 0 138 48t73 113zM328 1434l-119 -1125l985 1125h133l-151 -1434h-170l118 1122l-987 -1122h-131l152 1434h170z" glyph-name="afii10027" horiz-adv-x="1406" unicode="Й"/><glyph d="M942 0l-483 668l-236 -228l-47 -440h-170l152 1434h170l-82 -766l780 766h213l-664 -650l564 -784h-197z" glyph-name="afii10028" horiz-adv-x="1306" unicode="К"/><glyph d="M1384 1434l-151 -1434h-170l135 1274h-729l-113 -1059q-23 -227 -227 -227q-111 0 -182 39l6 145q70 -37 133 -37q92 0 102 101l127 1198h1069z" glyph-name="afii10029" horiz-adv-x="1464" unicode="Л"/><glyph d="M1642 1434l-151 -1434h-170l113 1051l-613 -1051h-137l-395 1049l-113 -1049h-170l152 1434h164l450 -1194l701 1194h169z" glyph-name="afii10030" horiz-adv-x="1722" unicode="М"/><glyph d="M1057 1434h170l-152 -1434h-170l66 627h-729l-66 -627h-170l152 1434h170l-68 -648h727z" glyph-name="afii10031" horiz-adv-x="1306" unicode="Н"/><glyph d="M854 1454q272 0 469 -188.5t197 -477.5q0 -215 -114 -402t-300 -296.5t-395 -109.5q-272 0 -468 187t-196 476q0 328 244 569.5t563 241.5zM723 141q242 0 431 189.5t189 451.5q0 221 -148 365.5t-353 144.5q-242 0 -430.5 -189.5t-188.5 -451.5q0 -221 147.5 -365.5 t352.5 -144.5z" glyph-name="afii10032" horiz-adv-x="1640" unicode="О"/><glyph d="M1229 1434l-152 -1434h-170l135 1274h-731l-135 -1274h-170l152 1434h1071z" glyph-name="afii10033" horiz-adv-x="1308" unicode="П"/><glyph d="M621 1434q236 0 360.5 -131.5t101.5 -337.5q-20 -203 -167.5 -326t-385.5 -123h-299l-55 -516h-170l152 1434h463zM537 668q158 0 261 81.5t117 229.5q14 141 -68.5 218t-240.5 77h-295l-63 -606h289z" glyph-name="afii10034" horiz-adv-x="1161" unicode="Р"/><glyph d="M1208 150q-221 -170 -495 -170q-272 0 -469 187t-197 476q0 215 113.5 403.5t300 298t395.5 109.5q270 0 461 -174l-117 -113q-143 125 -344 125q-252 0 -443.5 -190.5t-189.5 -454.5q0 -221 151.5 -363.5t362.5 -142.5q203 0 377 135z" glyph-name="afii10035" horiz-adv-x="1361" unicode="С"/><glyph d="M1083 1434l-16 -160h-393l-135 -1274h-170l135 1274h-395l18 160h956z" glyph-name="afii10036" horiz-adv-x="1122" unicode="Т"/><glyph d="M1151 1434h188l-938 -1434h-188l315 479l-424 955h185l346 -785z" glyph-name="afii10037" horiz-adv-x="1357" unicode="У"/><glyph d="M997 1300q328 -4 512.5 -169.5t157.5 -421.5q-27 -250 -242 -411t-544 -165l-17 -133h-170l17 133q-326 4 -509.5 170t-154.5 422q25 248 240 409.5t540 165.5l19 134h170zM721 283l96 870q-279 -6 -430 -130t-172 -314q-20 -184 105 -303t401 -123zM891 283 q281 2 434.5 125.5t173.5 316.5q18 186 -107.5 305t-404.5 123z" glyph-name="afii10038" horiz-adv-x="1785" unicode="Ф"/><glyph d="M1194 0h-201l-348 590l-475 -590h-205l592 735l-414 699h201l326 -553l444 553h205l-561 -699z" glyph-name="afii10039" horiz-adv-x="1372" unicode="Х"/><glyph d="M1264 160l-31 -301h-170l14 141h-1071l152 1434h170l-135 -1274h733l133 1274h170l-133 -1274h168z" glyph-name="afii10040" horiz-adv-x="1419" unicode="Ц"/><glyph d="M987 1434h170l-151 -1434h-170l71 676q-41 -74 -147.5 -147.5t-251.5 -73.5q-199 0 -317.5 110.5t-96.5 329.5l58 539h170l-58 -545q-12 -133 62.5 -205t203.5 -72q139 0 243 80t153 174z" glyph-name="afii10041" horiz-adv-x="1236" unicode="Ч"/><glyph d="M1962 1434h170l-152 -1434h-1974l152 1434h170l-135 -1274h733l133 1274h170l-133 -1274h731z" glyph-name="afii10042" horiz-adv-x="2211" unicode="Ш"/><glyph d="M2165 160l-31 -301h-168l14 141h-1974l152 1434h170l-135 -1274h733l133 1274h170l-133 -1274h731l135 1274h170l-135 -1274h168z" glyph-name="afii10043" horiz-adv-x="2320" unicode="Щ"/><glyph d="M768 918q238 0 361.5 -128t101.5 -335q-20 -201 -169 -328t-384 -127h-469l133 1274h-258l16 160h430l-55 -516h293zM684 160q158 0 261.5 81t117.5 228q14 143 -68 220t-241 77h-295l-64 -606h289z" glyph-name="afii10044" horiz-adv-x="1363" unicode="Ъ"/><glyph d="M565 918q238 0 363 -128t102 -335q-23 -201 -171 -328t-384 -127h-469l152 1434h170l-56 -516h293zM1358 1434h170l-152 -1434h-170zM481 160q160 0 263.5 81t117.5 228q14 141 -68.5 219t-242.5 78h-295l-63 -606h288z" glyph-name="afii10045" horiz-adv-x="1607" unicode="Ы"/><glyph d="M565 918q238 0 363 -128t102 -335q-23 -201 -171 -328t-384 -127h-469l152 1434h170l-56 -516h293zM481 160q160 0 263.5 81t117.5 228q14 141 -68.5 219t-242.5 78h-295l-63 -606h288z" glyph-name="afii10046" horiz-adv-x="1161" unicode="Ь"/><glyph d="M602 1454q188 0 347 -93t247 -267t66 -385q-33 -311 -273.5 -520t-529.5 -209q-276 0 -467 178l114 112q139 -129 345 -129q211 0 393 143.5t231 362.5l-411 -4l16 150l412 2q-2 217 -150.5 357t-355.5 140q-199 0 -375 -129l-100 125q215 166 491 166z" glyph-name="afii10047" horiz-adv-x="1355" unicode="Э"/><glyph d="M1272 1454q272 0 468.5 -188.5t196.5 -477.5q0 -215 -113.5 -402t-300 -296.5t-395.5 -109.5q-272 0 -467.5 187t-195.5 476v2h-221l-68 -645h-170l152 1434h170l-68 -641l219 2q57 279 284.5 469t508.5 190zM1141 141q242 0 431 189.5t189 451.5q0 221 -148.5 365.5 t-352.5 144.5q-242 0 -430.5 -189.5t-188.5 -451.5q0 -221 147.5 -365.5t352.5 -144.5z" glyph-name="afii10048" horiz-adv-x="2058" unicode="Ю"/><glyph d="M694 1434h469l-151 -1434h-170l55 516h-334l-418 -516h-188l453 547q-143 45 -215 159.5t-56 272.5q23 201 171 328t384 127zM618 668h295l64 606h-289q-160 0 -262 -81t-117 -228q-14 -143 67.5 -220t241.5 -77z" glyph-name="afii10049" horiz-adv-x="1243" unicode="Я"/><glyph d="M606 1083q137 0 236.5 -65.5t128.5 -155.5l24 203h166l-112 -1065h-166l22 201q-49 -96 -157.5 -158.5t-245.5 -62.5q-190 0 -337 131t-147 360q0 252 174 432t414 180zM612 934q-180 0 -305 -131t-125 -320q0 -168 104.5 -261t243.5 -93q172 0 296 129t124 332 q0 166 -100.5 255t-237.5 89z" glyph-name="afii10065" unicode="а"/><glyph d="M659 1083q205 0 356.5 -150.5t125.5 -408.5q-14 -131 -73.5 -237.5t-144.5 -172t-180.5 -100t-187.5 -34.5q-139 0 -236.5 66.5t-125.5 162.5l-25 -209h-168l113 1069q20 190 119.5 277.5t308.5 87.5h204q121 0 158 45l166 -9q-53 -100 -119.5 -139t-204.5 -39h-202 q-125 0 -187.5 -54t-74.5 -177l-23 -193q49 90 158.5 152.5t242.5 62.5zM541 129q152 0 284.5 108.5t153.5 301.5q20 186 -86.5 290.5t-255.5 104.5q-152 0 -275.5 -107.5t-146.5 -302.5q-20 -188 79.5 -291.5t246.5 -103.5z" glyph-name="afii10066" horiz-adv-x="1265" unicode="б"/><glyph d="M780 586q197 -68 197 -252q0 -170 -131 -252t-348 -82h-498l113 1065h491q162 0 252 -64.5t90 -179.5q0 -167 -166 -235zM594 924h-328l-30 -285h323q104 0 160.5 44t56.5 120q0 121 -182 121zM508 141q301 0 301 199q0 166 -256 166h-332l-39 -365h326z" glyph-name="afii10067" horiz-adv-x="1122" unicode="в"/><glyph d="M897 1065l-16 -147h-617l-96 -918h-168l113 1065h784z" glyph-name="afii10068" horiz-adv-x="978" unicode="г"/><glyph d="M1044 150h115l-29 -281h-167l14 131h-856l-12 -131h-168l28 281l90 2q68 86 98.5 238.5t65.5 473.5l21 201h899zM225 145l654 5l79 768h-563l-8 -62q-23 -227 -36 -328.5t-45 -212.5t-81 -170z" glyph-name="afii10069" horiz-adv-x="1312" unicode="д"/><glyph d="M618 1085q182 0 330 -123.5t148 -351.5q0 -72 -15 -143h-901q2 -166 106.5 -255t258.5 -89q203 0 336 117l88 -90q-156 -170 -434 -170q-209 0 -363 130t-154 361q0 254 178 434t422 180zM614 940q-137 0 -259 -91t-158 -255h749q4 166 -97.5 256t-234.5 90z" glyph-name="afii10070" horiz-adv-x="1214" unicode="е"/><glyph d="M1446 0l-406 459l-120 -109l-39 -350h-166l39 350l-97 109l-507 -459h-224l631 569l-438 496h211l444 -494l53 494h166l-53 -494l549 494h215l-545 -496l506 -569h-219z" glyph-name="afii10072" horiz-adv-x="1802" unicode="ж"/><glyph d="M504 1083q168 0 267 -88t87 -209q-16 -162 -219 -219q100 -12 171 -82.5t58 -185.5q-14 -145 -149 -232t-313 -87q-190 0 -303 103t-95 265l158 -6q-8 -96 63.5 -159.5t180.5 -63.5q113 0 200.5 54t96.5 146q10 90 -67 137.5t-218 47.5l6 119q248 6 266 168 q8 66 -44 108.5t-148 42.5t-168 -52t-80 -128l-160 6q16 137 129 226t281 89z" glyph-name="afii10073" horiz-adv-x="1032" unicode="з"/><glyph d="M1047 1065l-113 -1065h-166l80 745l-821 -745h-27l113 1065h168l-80 -746l819 746h27z" glyph-name="afii10074" horiz-adv-x="1144" unicode="и"/><glyph d="M915 1430q-14 -109 -99 -192t-220 -83t-209 87t-65 196l110 -8q4 -63 45 -108.5t119 -45.5q82 0 137 48t74 114zM1047 1065l-113 -1065h-166l80 745l-821 -745h-27l113 1065h168l-80 -746l819 746h27z" glyph-name="afii10075" horiz-adv-x="1144" unicode="й"/><glyph d="M733 0l-405 459l-121 -109l-39 -350h-168l113 1065h168l-54 -494l547 494h217l-545 -496l506 -569h-219z" glyph-name="afii10076" horiz-adv-x="1089" unicode="к"/><glyph d="M1178 1065l-113 -1065h-166l96 918h-579l-74 -703q-12 -129 -72.5 -178t-158.5 -49q-100 0 -174 39l16 135q53 -27 113 -27q55 0 80.5 22.5t31.5 73.5l86 834h914z" glyph-name="afii10077" horiz-adv-x="1275" unicode="л"/><glyph d="M1323 1065l-113 -1065h-166l70 647l-506 -647l-370 647l-70 -647h-168l113 1065h32l484 -823l659 823h35z" glyph-name="afii10078" horiz-adv-x="1421" unicode="м"/><glyph d="M864 1065h166l-112 -1065h-166l47 446h-584l-47 -446h-168l113 1065h168l-50 -469h584z" glyph-name="afii10079" horiz-adv-x="1128" unicode="н"/><glyph d="M618 1085q190 0 343 -133t153 -364q0 -254 -177 -431t-423 -177q-190 0 -343 132t-153 363q0 256 177 433t423 177zM528 129q158 0 291 123t133 332q0 168 -105.5 260t-242.5 92q-158 0 -291 -123t-133 -334q0 -166 105.5 -258t242.5 -92z" glyph-name="afii10080" horiz-adv-x="1234" unicode="о"/><glyph d="M1034 1065l-112 -1065h-166l96 918h-588l-96 -918h-168l113 1065h921z" glyph-name="afii10081" horiz-adv-x="1132" unicode="п"/><glyph d="M659 1085q205 0 356.5 -150.5t125.5 -410.5q-14 -131 -73.5 -237.5t-144.5 -172t-180.5 -100t-187.5 -34.5q-139 0 -236.5 66.5t-125.5 162.5l-66 -598h-168l72 668l82 786h168l-23 -197q49 92 157.5 154.5t243.5 62.5zM541 129q152 0 284.5 108.5t153.5 301.5 q20 188 -86.5 292.5t-255.5 104.5q-152 0 -275.5 -108.5t-146.5 -303.5q-20 -188 79.5 -291.5t246.5 -103.5z" glyph-name="afii10082" horiz-adv-x="1265" unicode="р"/><glyph d="M621 1085q147 0 259.5 -67.5t168.5 -194.5l-138 -53q-86 166 -303 166q-174 0 -301 -132t-127 -327q0 -166 103.5 -257t240.5 -91q211 0 336 170l131 -63q-168 -256 -475 -256q-193 0 -345.5 132t-152.5 363q0 256 177.5 433t425.5 177z" glyph-name="afii10083" horiz-adv-x="1134" unicode="с"/><glyph d="M850 1065l-16 -147h-312l-96 -918h-166l96 918h-311l16 147h789z" glyph-name="afii10084" horiz-adv-x="911" unicode="т"/><glyph d="M969 1067h172l-801 -1456h-172l238 426l-351 1030h164l287 -848z" glyph-name="afii10085" horiz-adv-x="1187" unicode="у"/><glyph d="M1542 1083q205 0 356.5 -150.5t124.5 -408.5q-14 -131 -73.5 -237.5t-144.5 -172t-180 -100t-187 -34.5q-139 0 -237.5 66.5t-127.5 162.5l-65 -598h-166l63 586q-51 -90 -159.5 -152.5t-243.5 -62.5q-205 0 -355.5 150.5t-123.5 408.5q14 131 73.5 237.5t144.5 172 t179 100t186 34.5q139 0 237.5 -65.5t129.5 -161.5l63 596h166l-61 -586q49 90 158.5 152.5t242.5 62.5zM524 131q133 0 249 83t157 237l18 172q-8 152 -102 232.5t-223 80.5q-154 0 -286 -108.5t-153 -301.5q-20 -186 86.5 -290.5t253.5 -104.5zM1421 129q154 0 287 108.5 t154 301.5q20 186 -87.5 290.5t-254.5 104.5q-133 0 -249 -83t-157 -237l-18 -172q8 -152 102 -232.5t223 -80.5z" glyph-name="afii10086" horiz-adv-x="2146" unicode="ф"/><glyph d="M770 0l-266 420l-359 -420h-198l471 545l-330 520h188l248 -397l336 397h193l-443 -520l355 -545h-195z" glyph-name="afii10087" horiz-adv-x="1138" unicode="х"/><glyph d="M983 150l57 -107l-63 -184l-115 63l-37 78h-768l-6 479l107 586l75 -438l248 -477l336 436l96 479l76 -438z" glyph-name="afii10088" horiz-adv-x="1210" unicode="ц"/><glyph d="M844 1065h166l-113 -1065h-166l55 514q-33 -66 -134 -139.5t-251 -73.5q-160 0 -262 95.5t-80 301.5l39 367h166l-41 -377q-10 -117 43 -177t164 -60q125 0 227.5 80.5t149.5 183.5z" glyph-name="afii10089" horiz-adv-x="1107" unicode="ч"/><glyph d="M1479 1065l-113 -1065h-1366l113 1065h168l-99 -915h432l99 915h166l-97 -915h432l97 915h168z" glyph-name="afii10090" horiz-adv-x="1576" unicode="ш"/><glyph d="M1495 150l-31 -291h-166l15 141h-1313l113 1065h168l-99 -915h432l99 915h166l-97 -915h432l97 915h168l-99 -915h115z" glyph-name="afii10091" horiz-adv-x="1652" unicode="щ"/><glyph d="M672 637q186 0 288.5 -76t102.5 -211q0 -164 -119 -257t-334 -93h-524l96 918h-157l16 147h324l-46 -428h353zM621 150q279 0 278 198q0 139 -235 139h-359l-37 -337h353z" glyph-name="afii10092" horiz-adv-x="1208" unicode="ъ"/><glyph d="M586 637q188 0 290.5 -76t102.5 -211q0 -164 -119 -257t-336 -93h-524l113 1065h168l-45 -428h350zM1239 1065h166l-113 -1065h-166zM537 150q279 0 278 196q0 141 -237 141h-359l-37 -337h355z" glyph-name="afii10093" horiz-adv-x="1503" unicode="ы"/><glyph d="M586 637q188 0 290.5 -76t102.5 -211q0 -164 -119 -257t-336 -93h-524l113 1065h168l-45 -428h350zM537 150q279 0 278 196q0 141 -237 141h-359l-37 -337h355z" glyph-name="afii10094" horiz-adv-x="1122" unicode="ь"/><glyph d="M526 1083q94 0 186.5 -35.5t167 -103t114.5 -178.5t26 -244q-27 -252 -210 -396t-386 -144q-150 0 -263.5 66.5t-168.5 193.5l137 51q88 -162 295 -162q135 0 260 90t162 250l-336 -4l12 123l338 2q-2 162 -104.5 252t-235.5 90q-215 0 -338 -172l-131 65 q168 256 475 256z" glyph-name="afii10095" horiz-adv-x="1144" unicode="э"/><glyph d="M1010 1085q190 0 342.5 -133t152.5 -364q0 -254 -177 -431t-423 -177q-184 0 -335.5 125.5t-159.5 347.5h-195l-47 -453h-168l113 1065h168l-50 -459h193q45 209 210 344t376 135zM920 129q158 0 290.5 123t132.5 332q0 168 -105 260t-243 92q-158 0 -291 -123t-133 -334 q0 -166 106 -258t243 -92z" glyph-name="afii10096" horiz-adv-x="1626" unicode="ю"/><glyph d="M1038 1065l-112 -1065h-166l41 387h-252l-393 -387h-199l410 399q-139 20 -214 98t-75 197q0 166 124 268.5t335 102.5h501zM817 537l39 381h-332q-143 0 -212.5 -61.5t-69.5 -156.5q0 -164 237 -163h338z" glyph-name="afii10097" horiz-adv-x="1136" unicode="я"/><glyph d="M504 1434l-15 -148h-174l17 148h172zM975 1434l-17 -148h-172l17 148h172zM618 1085q182 0 330 -123.5t148 -351.5q0 -72 -15 -143h-901q2 -166 106.5 -255t258.5 -89q203 0 336 117l88 -90q-156 -170 -434 -170q-209 0 -363 130t-154 361q0 254 178 434t422 180z M614 940q-137 0 -259 -91t-158 -255h749q4 166 -97.5 256t-234.5 90z" glyph-name="afii10071" horiz-adv-x="1214" unicode="ё"/><glyph d="M844 1434l-254 -265h-125l178 265h201zM897 1065l-16 -147h-617l-96 -918h-168l113 1065h784z" glyph-name="afii10100" horiz-adv-x="978" unicode="ѓ"/><glyph d="M518 131q219 0 342 170l131 -65q-166 -254 -477 -254q-94 0 -186 35.5t-167 102t-115 176.5t-26 243q18 172 119 300t227 186t252 58q147 0 261 -67.5t170 -194.5l-136 -51q-88 164 -297 164q-135 0 -261 -92t-162 -256l339 4l-14 -123l-338 -2q4 -160 105.5 -247 t232.5 -87z" glyph-name="afii10101" horiz-adv-x="1134" unicode="є"/><glyph d="M137 1284l17 164h168l-19 -164h-166zM0 0l113 1065h168l-113 -1065h-168z" glyph-name="afii10103" horiz-adv-x="378" unicode="і"/><glyph d="M98 1434l-16 -148h-172l14 148h174zM569 1434l-16 -148h-172l14 148h174zM291 1065l-113 -1065h-166l113 1065h166z" glyph-name="afii10104" horiz-adv-x="415" unicode="ї"/><glyph d="M854 1530h170l-20 -178l-9 -78h-684l-135 -1274h-170l152 1434h686z" glyph-name="afii10050" horiz-adv-x="1042" unicode="Ґ"/><glyph d="M741 1159h166l-26 -241h-617l-96 -918h-168l113 1065h618z" glyph-name="afii10098" horiz-adv-x="978" unicode="ґ"/><glyph d="M748 1884h200l182 -325h-122zM2021 1434l-616 -1434h-111l-274 1122l-512 -1122h-111l-313 1434h174l234 -1088l499 1088h117l270 -1088l465 1088h178z" glyph-name="Wgrave" horiz-adv-x="2019" unicode="Ẁ"/><glyph d="M637 1516h201l182 -326h-123zM1661 1067h170l-514 -1067h-146l-245 872l-434 -872h-146l-291 1067h166l221 -848l424 848h152l244 -848z" glyph-name="wgrave" horiz-adv-x="1878" unicode="ẁ"/><glyph d="M1376 1884l-260 -325h-123l183 325h200zM2021 1434l-616 -1434h-111l-274 1122l-512 -1122h-111l-313 1434h174l234 -1088l499 1088h117l270 -1088l465 1088h178z" glyph-name="Wacute" horiz-adv-x="2019" unicode="Ẃ"/><glyph d="M1266 1516l-260 -326h-123l182 326h201zM1661 1067h170l-514 -1067h-146l-245 872l-434 -872h-146l-291 1067h166l221 -848l424 848h152l244 -848z" glyph-name="wacute" horiz-adv-x="1878" unicode="ẃ"/><glyph d="M932 1804l-17 -153h-159l16 153h160zM1389 1804l-17 -153h-160l17 153h160zM2021 1434l-616 -1434h-111l-274 1122l-512 -1122h-111l-313 1434h174l234 -1088l499 1088h117l270 -1088l465 1088h178z" glyph-name="Wdieresis" horiz-adv-x="2019" unicode="Ẅ"/><glyph d="M821 1436l-16 -154h-160l17 154h159zM1278 1436l-16 -154h-160l16 154h160zM1661 1067h170l-514 -1067h-146l-245 872l-434 -872h-146l-291 1067h166l221 -848l424 848h152l244 -848z" glyph-name="wdieresis" horiz-adv-x="1878" unicode="ẅ"/><glyph d="M420 1884h201l182 -325h-123zM1343 1434l-616 -772l-72 -662h-170l72 662l-453 772h193l356 -617l494 617h196z" glyph-name="Ygrave" horiz-adv-x="1361" unicode="Ỳ"/><glyph d="M668 1190h-123l-260 326h200zM969 1067h172l-801 -1456h-172l238 426l-351 1030h164l287 -848z" glyph-name="ygrave" horiz-adv-x="1187" unicode="ỳ"/><glyph d="M1098 641l-15 -137h-1044l14 137h1045z" glyph-name="endash" horiz-adv-x="1230" unicode="–"/><glyph d="M1221 641l-15 -137h-1167l14 137h1168z" glyph-name="emdash" horiz-adv-x="1353" unicode="—"/><glyph d="M410 1434l-207 -457h-156l223 457h140z" glyph-name="quoteleft" horiz-adv-x="397" unicode="‘"/><glyph d="M47 977l207 457h156l-224 -457h-139z" glyph-name="quoteright" horiz-adv-x="397" unicode="’"/><glyph d="M-125 -268l209 456h158l-226 -456h-141z" glyph-name="quotesinglbase" horiz-adv-x="401" unicode="‚"/><glyph d="M410 1434l-207 -457h-156l223 457h140zM672 1434l-207 -457h-156l223 457h140z" glyph-name="quotedblleft" horiz-adv-x="659" unicode="“"/><glyph d="M47 977l207 457h156l-224 -457h-139zM309 977l207 457h156l-223 -457h-140z" glyph-name="quotedblright" horiz-adv-x="659" unicode="”"/><glyph d="M-125 -268l207 456h156l-224 -456h-139zM137 -268l207 456h156l-224 -456h-139z" glyph-name="quotedblbase" horiz-adv-x="659" unicode="„"/><glyph d="M588 1149l-15 -115h-178l-63 -395h-72l21 395h-183l15 115h174l14 285h158l-43 -285h172z" glyph-name="dagger" horiz-adv-x="679" unicode="†"/><glyph d="M412 1149h176l-13 -115h-184l-45 -268h-72l13 268h-187l13 115h178l10 285h160zM336 668l-12 -269h184l-12 -114h-174l-13 -285h-159l49 285h-179l13 114h186l45 269h72z" glyph-name="daggerdbl" horiz-adv-x="679" unicode="‡"/><glyph d="M149.5 494q-100.5 0 -100.5 100t100.5 100t100.5 -100t-100.5 -100z" glyph-name="bullet" horiz-adv-x="325" unicode="•"/><glyph d="M66 -10q-106 0 -97 108q12 92 105 92q106 0 96 -108q-12 -92 -104 -92zM571 -10q-106 0 -96 108q12 92 105 92q106 0 96 -108q-13 -92 -105 -92zM1077 -10q-106 0 -96 108q12 92 104 92q106 0 97 -108q-13 -92 -105 -92z" glyph-name="ellipsis" horiz-adv-x="1355" unicode="…"/><glyph d="M358 1444q109 0 177.5 -76t56.5 -184q-10 -102 -90 -173t-183 -71q-109 0 -177 76t-56 184q10 102 90 173t182 71zM1133 1438l122 -86l-1044 -1352l-127 86zM354 1327q-59 0 -103 -41t-50 -102q-4 -55 31.5 -91t91.5 -36q59 0 104 41t49 102q4 55 -32 91t-91 36z M1036 494q109 0 177.5 -76t56.5 -185q-10 -102 -90 -172.5t-183 -70.5q-109 0 -177 75.5t-56 184.5q10 102 90 173t182 71zM1702 494q109 0 177.5 -76t55.5 -185q-10 -102 -90 -172.5t-182 -70.5q-109 0 -177.5 75.5t-55.5 184.5q10 102 90 173t182 71zM1034 377 q-59 0 -104 -41t-49 -103q-6 -53 29.5 -90t90.5 -37q59 0 104.5 41t49.5 103q4 55 -31 91t-90 36zM1700 377q-59 0 -104.5 -41t-49.5 -103q-6 -53 30 -90t91 -37q59 0 104.5 41t49.5 103q4 55 -31 91t-90 36z" glyph-name="perthousand" horiz-adv-x="2095" unicode="‰"/><glyph d="M86 553l8 82l332 299l51 -60l-270 -280l211 -279l-64 -61z" glyph-name="guilsinglleft" horiz-adv-x="491" unicode="‹"/><glyph d="M420 637l-8 -82l-332 -299l-51 59l270 281l-211 278l64 62z" glyph-name="guilsinglright" horiz-adv-x="491" unicode="›"/><glyph d="M631 1434l-1032 -1434h-103l1045 1434h90z" glyph-name="fraction" horiz-adv-x="221" unicode="⁄"/><glyph d="M846 141q203 0 377 135l94 -126q-221 -170 -496 -170q-244 0 -431 152.5t-226 397.5h-133l12 117h113q0 53 10 115h-111l13 115h125q80 250 297 413.5t475 163.5q270 0 460 -174l-116 -113q-143 125 -344 125q-190 0 -354.5 -115.5t-235.5 -299.5h467l-13 -115h-487 q-10 -61 -10 -115h485l-12 -117h-461q39 -174 180.5 -281.5t321.5 -107.5z" glyph-name="Euro" horiz-adv-x="1468" unicode="€"/><glyph d="M522 1434l-8 -72h-133l-33 -297h-80l31 297h-135l8 72h350zM1047 1434l-39 -369h-82l26 225l-137 -225h-65l-88 225l-25 -225h-82l39 369h80l112 -277l179 277h82z" glyph-name="trademark" horiz-adv-x="1140" unicode="™"/><glyph d="M246 1436l-56 -535h-75l47 453l-35 -23l-33 64l76 41h76zM1071 1434l-1032 -1434h-98l1044 1434h86zM842 539q76 0 115.5 -43t35.5 -99q-8 -70 -73 -106q84 -41 73 -137q-8 -68 -66.5 -113t-133.5 -45q-78 0 -129.5 47t-42.5 119q10 90 100 133q-55 43 -49 111 q6 53 53 93t117 40zM844 475q-41 0 -66.5 -22.5t-29.5 -55.5q-4 -29 18 -52t53 -23q37 0 64.5 25.5t31.5 58.5q4 31 -12 50t-59 19zM821 258q-47 0 -85 -29.5t-42 -74.5q-4 -41 25 -68t72 -27q51 0 85.5 29t41.5 74q4 43 -23 69.5t-74 26.5z" glyph-name="oneeighth" horiz-adv-x="1138" unicode="⅛"/><glyph d="M274 1440q68 0 113 -43t39 -101q-6 -66 -72 -106q80 -35 72 -137q-8 -68 -67.5 -114t-135.5 -46q-84 0 -132 56.5t-38 131.5l78 -4q-4 -49 20.5 -84t71.5 -35t84 29t41 74q6 53 -29.5 73.5t-109.5 20.5l2 59q131 0 141 91q2 31 -20.5 51t-57.5 20q-45 0 -75.5 -29.5 t-36.5 -84.5l-74 4q6 78 59 126t127 48zM1110 1434l-1030 -1434h-98l1042 1434h86zM877 539q76 0 116.5 -43t34.5 -99q-8 -70 -72 -106q84 -43 74 -137q-8 -68 -67.5 -113t-135.5 -45q-78 0 -129 47t-43 119q10 90 103 133q-57 41 -51 111q6 53 53 93t117 40zM879 475 q-43 0 -68 -22.5t-29 -55.5q-4 -29 18.5 -52t53.5 -23q37 0 64.5 25.5t31.5 58.5q4 31 -12 50t-59 19zM856 258q-45 0 -83 -29.5t-42 -74.5q-4 -41 24.5 -68t71.5 -27q51 0 86 29t39 74q4 43 -22.5 69.5t-73.5 26.5z" glyph-name="threeeighths" horiz-adv-x="1175" unicode="⅜"/><glyph d="M420 1436l-6 -66h-213l-31 -119q45 20 92 21q74 0 126 -56.5t44 -136.5q-8 -78 -70.5 -132t-140.5 -54q-70 0 -118 39t-56 90l72 35q-2 -41 26.5 -70t75.5 -29q49 0 88 37t45 92q6 49 -22.5 84t-69.5 35q-72 0 -125 -61l-65 18l65 273h283zM1110 1434l-1032 -1434h-98 l1044 1434h86zM881 539q76 0 115.5 -43t35.5 -99q-8 -70 -74 -106q84 -41 74 -137q-8 -68 -66.5 -113t-134.5 -45q-78 0 -129 47t-43 119q10 90 101 133q-55 43 -49 111q6 53 53 93t117 40zM883 475q-43 0 -67.5 -22.5t-29.5 -55.5q-4 -29 18.5 -52t53.5 -23q37 0 64.5 25.5 t31.5 58.5q4 31 -12 50t-59 19zM860 258q-47 0 -85 -29.5t-42 -74.5q-4 -41 24.5 -68t71.5 -27q51 0 86 29t41 74q4 43 -22.5 69.5t-73.5 26.5z" glyph-name="fiveeighths" horiz-adv-x="1179" unicode="⅝"/><glyph d="M449 1436l-265 -535h-80l232 469h-248l6 66h355zM1069 1434l-1032 -1434h-98l1044 1434h86zM840 539q76 0 115.5 -43t35.5 -99q-8 -70 -73 -106q84 -41 73 -137q-8 -68 -66.5 -113t-133.5 -45q-78 0 -129.5 47t-43.5 119q10 90 101 133q-55 43 -49 111q6 53 53 93t117 40 zM842 475q-43 0 -67.5 -22.5t-29.5 -55.5q-4 -29 18.5 -52t53.5 -23q37 0 64.5 25.5t31.5 58.5q4 31 -12 50t-59 19zM819 258q-47 0 -85 -29.5t-42 -74.5q-4 -41 24.5 -68t71.5 -27q51 0 86 29t41 74q4 43 -22.5 69.5t-73.5 26.5z" glyph-name="seveneighths" horiz-adv-x="1136" unicode="⅞"/><glyph d="M309 1434h178l283 -461q106 -170 137 -244q59 -150 45 -299q-20 -195 -171.5 -322.5t-342.5 -127.5q-197 0 -322.5 132t-105.5 328q20 184 170 314.5t330 130.5q104 0 174 -54zM518 735q-127 0 -231.5 -86t-118.5 -223q-14 -131 67.5 -215t206.5 -84q131 0 233.5 88 t117.5 225q14 133 -62 214t-213 81z" glyph-name="partialdiff" horiz-adv-x="1085" unicode="∂"/><glyph d="M152 1638h1210l-213 -2027h-160l197 1870h-891l-197 -1870h-159z" glyph-name="product" horiz-adv-x="1394" unicode="∏"/><glyph d="M1329 1638l-16 -159h-901l387 -854l-563 -854h897l-17 -160h-1179l671 1014l-454 1013h1175z" glyph-name="summation" horiz-adv-x="1361" unicode="∑"/><glyph d="M733 641l-14 -137h-686l14 137h686z" glyph-name="minus" horiz-adv-x="870" unicode="−"/><glyph d="M1448 1638l-741 -2027h-189l-250 934h-231l18 180h342l228 -883l653 1796h170z" glyph-name="radical" horiz-adv-x="1478" unicode="√"/><glyph d="M1192 877q147 0 236.5 -98.5t72.5 -241.5q-16 -147 -124.5 -247t-256.5 -100q-197 0 -366 234q-219 -233 -410 -234q-150 0 -240 99.5t-73 247.5q16 143 125.5 241.5t259.5 98.5q195 0 360 -230q219 230 416 230zM362 332q154 0 316 205q-55 94 -127 147t-148 53 q-88 0 -152.5 -57t-74.5 -143t44 -145.5t142 -59.5zM1356 537q10 86 -43 143t-144 57q-154 0 -317 -200q121 -205 276 -205q88 0 153 59.5t75 145.5z" glyph-name="infinity" horiz-adv-x="1644" unicode="∞"/><glyph d="M621 1638l-11 -147q-100 0 -142 -49t-54 -170l-140 -1335q-20 -188 -106 -257t-268 -69l8 147q100 0 143 44t55 163l140 1338q20 190 107.5 262.5t267.5 72.5z" glyph-name="integral" horiz-adv-x="612" unicode="∫"/><glyph d="M293 868q59 0 113.5 -22.5t87 -48t81 -48t95.5 -22.5q53 0 89 25.5t40 56.5l78 -6q-10 -98 -75 -154.5t-163 -56.5q-94 0 -203.5 76.5t-183.5 76.5q-53 0 -89 -31.5t-38 -66.5l-76 6q10 98 77 156.5t167 58.5zM258 537q94 0 200.5 -72t176.5 -72q53 0 89 25.5t40 58.5 l78 -6q-10 -98 -75 -154.5t-163 -56.5q-59 0 -113.5 23.5t-89 53.5t-84 53.5t-100.5 23.5q-53 0 -89 -32t-38 -67l-76 7q10 98 77 156.5t167 58.5z" glyph-name="approxequal" horiz-adv-x="964" unicode="≈"/><glyph d="M731 668h-233l-92 -191h307l-17 -137h-360l-168 -340h-145l165 340h-178l17 137h231l92 191h-305l16 137h359l170 344h145l-170 -344h183z" glyph-name="notequal" horiz-adv-x="811" unicode="≠"/><glyph d="M805 1214l-17 -145l-540 -301l479 -299l-16 -147l-660 417l8 58zM692 139l-16 -137h-686l16 137h686z" glyph-name="lessequal" horiz-adv-x="841" unicode="≤"/><glyph d="M104 1214l660 -417l-8 -58l-746 -417l17 147l540 299l-479 301zM-8 139h686l-16 -137h-687z" glyph-name="greaterequal" horiz-adv-x="827" unicode="≥"/><glyph d="M676 1434l244 -717l-394 -717h-227l-244 717l391 717h230zM424 135l321 582l-194 581l-322 -581z" glyph-name="lozenge" horiz-adv-x="1048" unicode="◊"/><glyph d="M1651 1434l-29 -1434h-174l25 1122l-590 -1122h-138l-352 1122l-213 -1122h-174l275 1434h170l389 -1201l641 1201h170z" glyph-name="M.aalt" horiz-adv-x="1830"/><glyph d="M315 1436l-16 -154h-160l17 154h159zM281 1065l-113 -1065h-168l113 1065h168z" glyph-name="i.aalt" horiz-adv-x="378"/><glyph d="M993 924l-71 -682q-14 -104 71 -105q68 0 144 31l-17 -143q-68 -37 -176 -37q-94 0 -148.5 58t-41.5 190l71 688h-510l-98 -924h-166l96 924h-116l14 141h119l6 80q35 324 350 323q129 0 230 -65l-68 -113q-68 37 -143 37q-180 0 -201 -188l-8 -74h510l26 250h168 l-26 -250h223l-14 -141h-224z" glyph-name="f_t.dlig" horiz-adv-x="1304"/><glyph d="M1024 924l-72 -682q-14 -104 72 -105q66 0 143 31l-16 -143q-68 -37 -176 -37q-94 0 -148.5 58t-42.5 190l72 688h-496l-71 -682q-14 -104 71 -105q66 0 144 31l-17 -143q-68 -37 -176 -37q-94 0 -148 58t-42 190l72 688h-146l14 141h146l26 250h168l-26 -250h495l27 250 h168l-27 -250h224l-15 -141h-223z" glyph-name="t_t.dlig" horiz-adv-x="1335"/><glyph d="M686 1454q225 0 362.5 -163t137.5 -449q0 -231 -73 -425t-222.5 -315.5t-345.5 -121.5q-225 0 -362.5 161.5t-137.5 450.5q0 231 74 425.5t222 315.5t345 121zM680 1307q-150 0 -260.5 -106.5t-161.5 -265.5t-51 -343q0 -213 89 -338t253 -125q152 0 261.5 105.5 t160.5 263t51 340.5q0 213 -89 341t-253 128z" glyph-name="zero.salt" horiz-adv-x="1302"/><glyph d="M807 1454q225 0 362.5 -163t137.5 -449q0 -231 -73 -424t-221.5 -315.5t-346.5 -122.5q-225 0 -362.5 161.5t-137.5 450.5q0 231 73.5 425.5t222 315.5t345.5 121zM803 1307q-152 0 -261.5 -106.5t-160.5 -265.5t-51 -343q0 -213 88 -338t252 -125q152 0 261 105.5 t160.5 263t51.5 340.5q0 215 -88 342t-252 127z" glyph-name="zero.tnum" horiz-adv-x="1433"/><glyph d="M899 1434l-151 -1434h-170l135 1284h-203l14 150h375z" glyph-name="one.tnum" horiz-adv-x="1433"/><glyph d="M801 1456q184 0 298.5 -108.5t114.5 -272.5q0 -33 -5 -64.5t-11 -57t-24.5 -59.5t-29.5 -55.5t-42 -59.5t-47.5 -58.5t-59.5 -67.5t-64.5 -68.5t-77.5 -78.5t-83 -86l-258 -268h604l-16 -150h-899l4 35l424 448q35 37 99.5 104.5t93 97.5t73.5 81t64.5 82t43 72 t31.5 77.5t8 75.5q0 109 -71.5 168.5t-175.5 59.5q-119 0 -211 -77t-105 -220l-4 -31h-172l4 37q20 195 156.5 319.5t337.5 124.5z" glyph-name="two.tnum" horiz-adv-x="1433"/><glyph d="M317 356q37 -109 120 -168t204 -59q160 0 269.5 101.5t109.5 256.5q0 131 -87 203t-233 72q-45 0 -125 -14l390 538h-615l17 148h868l-422 -562q154 -4 263.5 -107t109.5 -271q0 -227 -161 -370.5t-388 -143.5q-178 0 -298 87t-159 224z" glyph-name="three.tnum" horiz-adv-x="1433"/><glyph d="M1161 522l-14 -147h-154l-41 -375h-170l41 375h-635l17 147l729 912h170l-96 -912h153zM383 522h455l71 672z" glyph-name="four.tnum" horiz-adv-x="1433"/><glyph d="M1153 1434l-14 -148h-574l-106 -424q113 109 305 109q180 0 313 -123t133 -320q0 -242 -165.5 -395t-393.5 -153q-180 0 -301 83.5t-162 215.5l138 63q31 -88 109.5 -149.5t211.5 -61.5q158 0 276.5 110.5t118.5 280.5q0 139 -90 221t-215 82q-182 0 -317 -145l-146 45 l172 709h707z" glyph-name="five.tnum" horiz-adv-x="1433"/><glyph d="M1090 1434l-508 -598q76 49 178 49q174 0 297 -120t123 -296q0 -211 -150.5 -350t-363.5 -139q-182 0 -306 116.5t-124 298.5q0 109 46 219.5t94 177t124 158.5q16 18 24 29l383 455h183zM733 735q-150 0 -245 -95t-95 -241q0 -123 82 -197.5t203 -74.5q139 0 241.5 97.5 t102.5 242.5q0 121 -85 194.5t-204 73.5z" glyph-name="six.tnum" horiz-adv-x="1433"/><glyph d="M1264 1434l-723 -1434h-168l651 1286h-647l16 148h871z" glyph-name="seven.tnum" horiz-adv-x="1433"/><glyph d="M971 801q96 -43 155.5 -132t59.5 -206q0 -215 -158 -349t-362 -134q-184 0 -312.5 109.5t-128.5 291.5q0 145 82 258t213 168q-139 94 -139 258q0 160 122 274.5t304 114.5q168 0 266 -94t98 -234q1 -208 -200 -325zM539 1061q0 -84 58 -140.5t151 -56.5q109 0 185.5 74 t76.5 174q0 82 -56.5 137.5t-152.5 55.5q-115 0 -188.5 -74t-73.5 -170zM672 133q139 0 240.5 92t101.5 238q0 115 -78 184.5t-197 69.5q-143 0 -242.5 -96.5t-99.5 -231.5q0 -117 78 -186.5t197 -69.5z" glyph-name="eight.tnum" horiz-adv-x="1433"/><glyph d="M371 0l508 598q-76 -49 -179 -49q-174 0 -296.5 119.5t-122.5 296.5q0 211 150.5 350t363.5 139q182 0 306 -116.5t124 -299.5q0 -88 -23.5 -169t-80 -167t-84 -122.5t-101.5 -124.5l-383 -455h-182zM727 698q150 0 245 95.5t95 240.5q0 123 -82 198t-203 75 q-139 0 -241.5 -97.5t-102.5 -242.5q0 -121 86 -195t203 -74z" glyph-name="nine.tnum" horiz-adv-x="1433"/><glyph d="M207 539q96 0 150.5 -73t41.5 -187l-4 -27q-12 -115 -77.5 -185.5t-160 -70.5t-148.5 72.5t-44 187.5l4 27q12 115 79 185.5t159 70.5zM208.5 475q-61.5 0 -108.5 -53t-55 -143l-4 -27q-8 -90 23.5 -141.5t91.5 -51.5q66 0 110.5 52.5t52.5 144.5l5 27q8 92 -23 142 t-92.5 50z" glyph-name="zero.dnom" horiz-adv-x="532"/><glyph d="M143 535l-57 -535h-76l51 453l-38 -23l-31 64l76 41h75z" glyph-name="one.dnom" horiz-adv-x="249"/><glyph d="M164 541q72 0 119 -48.5t41 -109.5q-6 -53 -40 -96t-120 -123l-109 -98h242l-8 -66h-344l8 66l151 143q109 102 125 133q14 23 17 49q4 37 -19.5 61.5t-60.5 24.5q-41 0 -74 -27.5t-39 -76.5l-2 -27h-76l5 31q8 72 61 118t123 46z" glyph-name="two.dnom" horiz-adv-x="452"/><glyph d="M178 539q68 0 114 -43t40 -101q-6 -66 -74 -106q35 -14 56.5 -50t15.5 -87q-8 -68 -66.5 -114t-134.5 -46q-84 0 -132 56t-38 132l76 -4q-4 -49 20.5 -84t71.5 -35t84 29t43 74q4 53 -32 73.5t-109 20.5l2 59q131 0 141 90q2 31 -19.5 51.5t-56.5 20.5q-45 0 -75.5 -29.5 t-36.5 -85.5l-76 5q6 78 59 126t127 48z" glyph-name="three.dnom" horiz-adv-x="477"/><glyph d="M342 535l-33 -316h56l-9 -63h-55l-16 -156h-76l16 156h-270l311 379h76zM254 414l-154 -195h133z" glyph-name="four.dnom" horiz-adv-x="503"/><glyph d="M326 535l-9 -66h-213l-30 -119q47 20 92 21q74 0 126 -56.5t44 -136.5q-8 -78 -69.5 -132t-139.5 -54q-70 0 -119 39t-55 90l70 35q0 -41 27.5 -70t74.5 -29q49 0 89 37t46 92q4 49 -24.5 84t-67.5 35q-72 0 -125 -61l-66 18l66 273h283z" glyph-name="five.dnom" horiz-adv-x="481"/><glyph d="M301 535l-160 -197h11q70 0 117.5 -53.5t41.5 -122.5q-8 -70 -65.5 -120t-124.5 -50q-72 0 -122 53t-42 125q2 27 10 48.5t22.5 45t25 35.5t34 39t31.5 37l135 160h86zM150 272q-47 0 -80 -30.5t-37 -79.5q-6 -45 21.5 -75t64.5 -30q39 0 75.5 32t41.5 81 q4 45 -22.5 73.5t-63.5 28.5z" glyph-name="six.dnom" horiz-adv-x="456"/><glyph d="M350 535l-266 -535h-80l232 469h-248l8 66h354z" glyph-name="seven.dnom" horiz-adv-x="456"/><glyph d="M178 539q76 0 116 -43t36 -99q-8 -70 -74 -106q84 -41 74 -137q-8 -68 -66.5 -113t-134.5 -45q-78 0 -129 47t-43 119q10 90 100 133q-55 43 -49 111q6 53 53 93t117 40zM180 475q-41 0 -66.5 -22.5t-29.5 -55.5q-4 -29 18.5 -52t53.5 -23q37 0 64.5 25.5t31.5 58.5 q4 31 -12.5 50t-59.5 19zM158 258q-47 0 -85 -29.5t-42 -74.5q-4 -41 24.5 -68t71.5 -27q51 0 86 29t41 74q4 43 -22.5 69.5t-73.5 26.5z" glyph-name="eight.dnom" horiz-adv-x="477"/><glyph d="M170 541q72 0 122 -52.5t42 -123.5q-2 -23 -9.5 -43.5t-14.5 -35t-22.5 -36t-22.5 -29.5t-28.5 -31.5t-27.5 -31.5l-133 -158h-88l159 195h-8q-70 0 -119 53t-43 125q8 70 65.5 119t127.5 49zM172 475q-41 0 -78 -31.5t-41 -78.5q-4 -45 23.5 -75t64.5 -30q47 0 79 31 t36 82q6 43 -20.5 72.5t-63.5 29.5z" glyph-name="nine.dnom" horiz-adv-x="458"/><glyph d="M299 1440q96 0 150.5 -73t42.5 -187l-3 -27q-12 -115 -77.5 -185.5t-159.5 -70.5t-149.5 72.5t-43.5 187.5l2 27q12 115 79 185.5t159 70.5zM301 1376q-61 0 -108.5 -53t-55.5 -143l-2 -27q-10 -90 22.5 -141t92.5 -51q66 0 111 52t53 144l2 27q10 90 -21 141t-94 51z " glyph-name="zero.numr" horiz-adv-x="530"/><glyph d="M238 1436l-56 -535h-76l50 453l-37 -23l-33 64l76 41h76z" glyph-name="one.numr" horiz-adv-x="249"/><glyph d="M260 1442q72 0 119 -48t41 -110q-6 -53 -40 -96t-120 -123l-108 -98h241l-6 -66h-344l6 66l152 143q10 8 28.5 25.5t24.5 23.5t20.5 19.5t18.5 19.5t14 16.5t13.5 15.5t8.5 14t7 15.5t5 15.5t3 17q2 37 -21.5 61.5t-60.5 24.5q-41 0 -73.5 -27.5t-36.5 -76.5l-5 -27h-75 l4 31q8 72 61 118t123 46z" glyph-name="two.numr" horiz-adv-x="454"/><glyph d="M272 1440q68 0 114 -43t40 -101q-6 -66 -74 -106q35 -14 56.5 -50t15.5 -87q-6 -68 -65.5 -114t-135.5 -46q-84 0 -132 56.5t-38 131.5l78 -4q-6 -49 19.5 -84t72.5 -35t84 29t41 74q6 53 -29.5 73.5t-109.5 20.5l2 59q131 0 139 91q2 31 -19.5 51t-56.5 20 q-45 0 -75.5 -29.5t-36.5 -84.5l-76 4q8 78 60 126t126 48z" glyph-name="three.numr" horiz-adv-x="475"/><glyph d="M434 1436l-33 -316h56l-6 -63h-56l-16 -156h-76l16 156h-270l309 379h76zM346 1315l-153 -195h133z" glyph-name="four.numr" horiz-adv-x="501"/><glyph d="M420 1436l-6 -66h-213l-31 -119q45 20 92 21q74 0 126 -56.5t44 -136.5q-8 -78 -70.5 -132t-140.5 -54q-70 0 -118 39t-56 90l72 35q-2 -41 26.5 -70t75.5 -29q49 0 88 37t45 92q6 49 -22.5 84t-69.5 35q-72 0 -125 -61l-65 18l65 273h283z" glyph-name="five.numr" horiz-adv-x="483"/><glyph d="M397 1436l-159 -197h10q70 0 119 -53t40.5 -123t-65.5 -120t-125 -50q-72 0 -122 53t-42 125q2 27 10.5 48.5t22.5 45t24.5 35.5t34 39t31.5 37l135 160h86zM248 1174q-47 0 -81 -31t-38 -80q-4 -45 23.5 -75t64.5 -30q39 0 75 32t40 81q6 45 -20.5 74t-63.5 29z" glyph-name="six.numr" horiz-adv-x="458"/><glyph d="M442 1436l-264 -535h-80l232 469h-248l6 66h354z" glyph-name="seven.numr" horiz-adv-x="454"/><glyph d="M272 1440q76 0 117 -43t35 -99q-8 -70 -72 -106q84 -43 72 -137q-6 -68 -64.5 -113t-136.5 -45t-129 47t-43 119q10 90 103 133q-57 41 -52 111q6 53 53 93t117 40zM274 1376q-41 0 -66.5 -22.5t-29.5 -55.5q-4 -29 18.5 -52t53.5 -23q37 0 64.5 25.5t31.5 58.5 q4 31 -12.5 50t-59.5 19zM252 1159q-45 0 -83 -29.5t-44 -74.5q-2 -41 26.5 -67.5t71.5 -26.5q51 0 86 28.5t39 73.5q4 43 -22.5 69.5t-73.5 26.5z" glyph-name="eight.numr" horiz-adv-x="477"/><glyph d="M262 1442q72 0 122 -52.5t42 -123.5q-2 -27 -9 -49.5t-22.5 -45t-26 -36t-34 -40t-31.5 -36.5l-133 -158h-88l160 195h-9q-72 0 -121 54t-40.5 123.5t64.5 119t126 49.5zM264 1376q-41 0 -76.5 -31.5t-42.5 -78.5q-4 -45 24 -75t64 -30q47 0 79 31t38 82q4 43 -22.5 72.5 t-63.5 29.5z" glyph-name="nine.numr" horiz-adv-x="454"/></font>
</defs>
</svg>
