<?xml version="1.0" standalone="no"?>
<!DOCTYPE svg PUBLIC "-//W3C//DTD SVG 1.1//EN" "http://www.w3.org/Graphics/SVG/1.1/DTD/svg11.dtd">
<svg xmlns="http://www.w3.org/2000/svg"><metadata>This SVG WebFont was generated by YouWorkForThem.
© 2016 Connary Fagen</metadata><defs><font horiz-adv-x="1300" id="ywftsvg"><font-face ascent="1638" bbox="-733 -905 2474 2040" cap-height="1434" descent="-410" font-family="" font-stretch="normal" font-weight="900" panose-1="0 0 10 0 0 0 0 0 0 0" underline-position="0" underline-thickness="0" unicode-range="U+0020-FB02" units-per-em="2048" x-height="1065"/><missing-glyph d="M831 1638v-2027h-643v2027h643zM676 1503h-336v-67h133v-76h-135v-66h338v66h-135v76h135v67zM541 1241h-203v-211h338v70h-135v141zM473 1171v-71h-67v71h67zM676 975h-338v-66h135v-75h-135v-68h203v143h135v66zM676 854h-68v-133h-270v-70h338v203zM676 606h-203v-112 h68v45h67v-95h-202v162h-68v-229h338v229zM676 256h-338v-229h338v229zM608 188v-94h-202v94h202zM676 -20h-338v-66h143l-143 -96v-68h338v68h-207l141 96h66v66z" horiz-adv-x="1013"/><glyph d="M754 1178q-41 20 -109 20q-23 0 -40 -4t-29.5 -9t-22.5 -14.5t-16.5 -17.5t-10.5 -18.5t-5 -16.5t-3 -16l-2 -8l-2 -29h221l-24 -266h-224l-86 -799h-323l86 799h-146l25 266h147l3 39q10 94 44.5 163.5t76.5 107.5t98.5 59.5t98.5 27.5t87 6q106 0 180 -28zM893 1143 l33 305h323l-32 -305h-324zM772 0l113 1065h323l-112 -1065h-324z" glyph-name="uniFB01" horiz-adv-x="1306" unicode="fi"/><glyph d="M647 1198q-20 0 -36.5 -3t-29 -8t-21.5 -11.5t-16 -15.5t-11.5 -15t-7.5 -16.5t-5 -14.5t-4 -12v-8l-2 -29h221l-24 -266h-224l-86 -799h-323l86 799h-146l25 266h147l3 39q10 94 44.5 163.5t76.5 107.5t98.5 59.5t98.5 27.5t87 6q170 0 276 -73l-120 -219 q-44 22 -107 22zM995 1448h324l-154 -1448h-323z" glyph-name="uniFB02" horiz-adv-x="1376" unicode="fl"/><glyph d="M1436 1198q-20 0 -37 -3t-29 -8t-21.5 -11.5t-16.5 -15.5t-11 -15t-7 -16.5t-5 -14.5t-2 -12l-2 -8l-2 -29h221l-25 -266h-223l-86 -799h-324l86 799h-465l-86 -799h-323l86 799h-146l25 266h147l3 39q10 94 44.5 163.5t76.5 107.5t98.5 59.5t98.5 27.5t87 6 q170 0 276 -73l-120 -219q-43 23 -107 22q-20 0 -36.5 -3t-29 -8t-21.5 -11.5t-16 -15.5t-11.5 -15t-7.5 -16.5t-5 -14.5t-4 -12v-8l-2 -29h465l2 39q10 94 45 163.5t77 107.5t98 59.5t98 27.5t87 6q168 0 277 -73l-121 -219q-43 22 -106 22z" glyph-name="f_f.liga" horiz-adv-x="1673" unicode="ff"/><glyph d="M831 1638v-2027h-643v2027h643zM676 1503h-336v-67h133v-76h-135v-66h338v66h-135v76h135v67zM541 1241h-203v-211h338v70h-135v141zM473 1171v-71h-67v71h67zM676 975h-338v-66h135v-75h-135v-68h203v143h135v66zM676 854h-68v-133h-270v-70h338v203zM676 606h-203v-112 h68v45h67v-95h-202v162h-68v-229h338v229zM676 256h-338v-229h338v229zM608 188v-94h-202v94h202zM676 -20h-338v-66h143l-143 -96v-68h338v68h-207l141 96h66v66z" glyph-name=".notdef" horiz-adv-x="1013"/><glyph glyph-name="glyph1" horiz-adv-x="0"/><glyph glyph-name="glyph2" horiz-adv-x="681"/><glyph glyph-name="space" horiz-adv-x="565" unicode=" "/><glyph d="M520 1434l-100 -953h-373l103 953h370zM197 -10q-80 0 -131.5 59.5t-40.5 138.5q6 66 61 117t125 51q80 0 132 -59t42 -139q-6 -68 -62 -118t-126 -50z" glyph-name="exclam" horiz-adv-x="600" unicode="!"/><glyph d="M436 1434l-92 -494h-233l4 494h321zM854 1434l-92 -494h-234l4 494h322z" glyph-name="quotedbl" horiz-adv-x="884" unicode="&quot;"/><glyph d="M1006 782h-93l-22 -131h98l-28 -282h-121l-64 -369h-330l66 369h-104l-66 -369h-332l68 369h-60l29 282h80l23 131h-87l29 283h109l63 369h332l-66 -369h103l67 369h330l-67 -369h71zM561 651l23 131h-105l-22 -131h104z" glyph-name="numbersign" horiz-adv-x="1126" unicode="#"/><glyph d="M668 856q207 -78 300 -179.5t93 -234.5q0 -197 -143.5 -320.5t-342.5 -148.5l-16 -157h-160l17 157q-162 20 -276.5 118.5t-151.5 238.5l262 125q66 -156 196 -183l37 344l-20 9q-166 59 -259 148t-93 249q0 186 137 302t323 132l17 164h160l-19 -172q246 -45 371 -291 l-256 -135q-66 100 -146 129zM432 1034q0 -47 18.5 -73.5t63.5 -47.5l27 246q-109 -29 -109 -125zM608 283q113 39 113 155q0 70 -84 115z" glyph-name="dollar" horiz-adv-x="1185" unicode="$"/><glyph d="M352 1444q113 0 182.5 -78t57.5 -190q-10 -98 -87 -167t-179 -69q-113 0 -182.5 78t-57.5 190q10 98 87 167t179 69zM1032 1440l246 -164l-987 -1276l-250 164zM342 1237q-23 0 -37 -17.5t-10 -43.5q8 -29 41 -29q25 0 39 18.5t8 42.5q-8 29 -41 29zM1028 494 q113 0 183.5 -78t56.5 -191q-10 -98 -86 -166.5t-178 -68.5q-113 0 -183.5 77.5t-56.5 190.5q10 98 86 167t178 69zM1018 287q-23 0 -36 -17.5t-11 -44.5q12 -29 43 -28q23 0 37 17t10 44q-8 29 -43 29z" glyph-name="percent" horiz-adv-x="1429" unicode="%"/><glyph d="M1319 272q68 0 133 33l-27 -268q-68 -47 -161 -47q-129 0 -188.5 71.5t-41.5 188.5v22q-156 -297 -479 -297q-207 0 -355.5 116t-148.5 329q0 104 36 189t96.5 140.5t121 89t127.5 54.5l-211 541h914l-31 -283h-469l188 -475h-104q-150 0 -244 -59.5t-94 -161.5 q0 -90 68.5 -143.5t164.5 -53.5q109 0 208.5 66.5t117.5 220.5l37 344h479l-31 -266h-159l-25 -242q-6 -63 15.5 -86t62.5 -23z" glyph-name="ampersand" horiz-adv-x="1548" unicode="&amp;"/><glyph d="M436 1434l-92 -494h-233l4 494h321z" glyph-name="quotesingle" horiz-adv-x="464" unicode="'"/><glyph d="M676 1520q-246 -383 -303 -881q-51 -518 106 -911l-305 12q-182 397 -121 932q47 494 301 860z" glyph-name="parenleft" horiz-adv-x="737" unicode="("/><glyph d="M152 1532l305 -12q186 -371 129 -881q-51 -522 -310 -911l-321 12q254 406 307 932q54 483 -110 860z" glyph-name="parenright" horiz-adv-x="739" unicode=")"/><glyph d="M969 1104l-193 -53l115 -174l-246 -142l-100 164l-135 -164l-224 142l148 174l-176 53l88 272l213 -61l16 225h262l-22 -225l213 61z" glyph-name="asterisk" horiz-adv-x="1118" unicode="*"/><glyph d="M731 674l-20 -197h-246l-27 -244h-196l26 244h-241l20 197h242l26 244h197l-27 -244h246z" glyph-name="plus" horiz-adv-x="858" unicode="+"/><glyph d="M-119 -223l262 571h277l-252 -571h-287z" glyph-name="comma" horiz-adv-x="563" unicode=","/><glyph d="M696 694l-28 -270h-635l28 270h635z" glyph-name="hyphen" horiz-adv-x="823" unicode="-"/><glyph d="M143 -20q-74 0 -123 49t-49 127q0 80 53.5 135t133.5 55q76 0 126 -51t50 -129q0 -80 -55.5 -133t-135.5 -53z" glyph-name="period" horiz-adv-x="497" unicode="."/><glyph d="M1169 1526l-884 -1792h-346l884 1792h346z" glyph-name="slash" horiz-adv-x="1200" unicode="/"/><glyph d="M860 1454q293 0 488.5 -186.5t195.5 -481.5q0 -223 -111.5 -409.5t-299 -291.5t-406.5 -105q-293 0 -486.5 184t-193.5 479q0 340 239.5 575.5t573.5 235.5zM748 276q174 0 319 134.5t145 349.5q0 168 -107.5 282.5t-264.5 114.5q-176 0 -318.5 -135t-142.5 -354 q0 -166 105.5 -279t263.5 -113z" glyph-name="zero" horiz-adv-x="1665" unicode="0"/><glyph d="M719 1434l-152 -1434h-329l122 1155h-251l28 279h582z" glyph-name="one" horiz-adv-x="821" unicode="1"/><glyph d="M643 1454q221 0 344 -121t123 -297q0 -82 -14.5 -139t-61.5 -127t-104.5 -133.5t-175.5 -187.5q-37 -37 -56 -58l-98 -106h434l-30 -285h-1018v43l413 449q27 29 100.5 107.5t107.5 118.5t81 102.5t67.5 112.5t20.5 95q0 55 -28.5 88t-57 40t-61.5 7q-59 0 -114.5 -45 t-76.5 -151l-6 -35h-336l4 47q14 201 155.5 338t387.5 137z" glyph-name="two" horiz-adv-x="1204" unicode="2"/><glyph d="M262 440q76 -178 246 -178q111 0 181.5 69.5t70.5 178.5q0 88 -60.5 144.5t-177.5 56.5q-66 0 -178 -25l311 465h-499l28 283h971l-379 -521q135 -23 222 -134t87 -261q0 -231 -167.5 -384.5t-421.5 -153.5q-188 0 -315.5 87t-182.5 230z" glyph-name="three" horiz-adv-x="1232" unicode="3"/><glyph d="M1124 586l-28 -281h-154l-33 -305h-329l32 305h-610l27 281l698 848h334l-90 -848h153zM369 586h272l47 413z" glyph-name="four" horiz-adv-x="1257" unicode="4"/><glyph d="M1030 1434l-29 -283h-497l-58 -201q-4 -6 5 -4q100 37 182 37q186 0 327.5 -127t141.5 -328q0 -250 -172 -399t-406 -149q-188 0 -327.5 85t-182.5 220l267 129q63 -147 233 -148q37 0 78 11.5t84 37t70.5 78.5t27.5 127q0 102 -61.5 146.5t-141.5 44.5q-113 0 -206 -86 l-267 92l172 717h760z" glyph-name="five" horiz-adv-x="1228" unicode="5"/><glyph d="M1034 1434l-473 -527q-6 -2 4 -4q6 -2 17 -2q170 0 297 -130t127 -304q0 -223 -153 -355t-382 -132q-184 0 -321.5 122.5t-137.5 311.5q0 145 67.5 265t211.5 294l401 461h342zM518 621q-90 0 -145.5 -58.5t-55.5 -134.5q0 -78 52.5 -124t128.5 -46q100 0 150 57.5 t50 133.5q0 74 -48 123t-132 49z" glyph-name="six" horiz-adv-x="1140" unicode="6"/><glyph d="M1071 1434l-754 -1434h-325l616 1151h-536l28 283h971z" glyph-name="seven" horiz-adv-x="1099" unicode="7"/><glyph d="M895 817q80 -41 132 -130t52 -200q0 -154 -89 -273.5t-217 -176.5t-263 -57q-199 0 -346.5 119.5t-147.5 322.5q0 135 74 244.5t191 162.5q-94 90 -95 220q0 160 125 282.5t330 122.5q184 0 292.5 -101.5t108.5 -252.5q0 -168 -147 -283zM487 1049q0 -109 109 -109 q63 0 100 38t37 87q0 51 -32.5 77.5t-79.5 26.5q-55 0 -94.5 -33.5t-39.5 -86.5zM526 268q92 0 152.5 63.5t60.5 155.5q0 80 -50 123t-118 43q-100 0 -158.5 -69.5t-58.5 -143.5q0 -82 47 -127t125 -45z" glyph-name="eight" horiz-adv-x="1224" unicode="8"/><glyph d="M63 0l474 526q6 2 -5 4q-6 2 -16 2q-170 0 -297 130.5t-127 304.5q0 223 152.5 355t382.5 132q184 0 321 -123t137 -311q0 -147 -68.5 -270t-209.5 -289l-401 -461h-343zM580 813q90 0 145 58.5t55 134.5q0 78 -52 124t-128 46q-100 0 -150.5 -57.5t-50.5 -133.5 q0 -74 49.5 -123t131.5 -49z" glyph-name="nine" horiz-adv-x="1161" unicode="9"/><glyph d="M242 707q-74 0 -123 49t-49 127q0 80 53 135t133 55q76 0 126 -51t50 -129q0 -80 -55 -133t-135 -53zM164 -20q-74 0 -123 49t-49 127q0 80 53 135t133 55q76 0 126 -51t50 -129q0 -80 -55 -133t-135 -53z" glyph-name="colon" horiz-adv-x="520" unicode=":"/><glyph d="M332 707q-74 0 -123 49t-49 127q0 80 53 135t133 55q76 0 126 -51t50 -129q0 -80 -55 -133t-135 -53zM-119 -223l262 571h277l-252 -571h-287z" glyph-name="semicolon" horiz-adv-x="612" unicode=";"/><glyph d="M930 985l-33 -303l-410 -190l369 -187l-31 -305l-805 442l11 101z" glyph-name="less" horiz-adv-x="1005" unicode="&lt;"/><glyph d="M752 870l-29 -272h-686l29 272h686zM715 518l-29 -270h-686l29 270h686z" glyph-name="equal" horiz-adv-x="806" unicode="="/><glyph d="M59 985l809 -442l-10 -101l-903 -442l31 305l413 187l-372 190z" glyph-name="greater" horiz-adv-x="1009" unicode=">"/><glyph d="M625 1454q207 0 347 -126t115 -333q-8 -80 -35.5 -136t-62.5 -86t-75 -59.5t-73.5 -55t-58 -74.5t-28.5 -117v4h-332l-2 6q4 102 39 173t83 109t97 70.5t85 82t42 116.5q0 14 -3 30.5t-16.5 46.5t-48 48t-88.5 18q-166 0 -202 -182h-326q23 219 176.5 342t366.5 123z M565 -10q-80 0 -131 59.5t-41 138.5q8 68 63.5 118t123.5 50q80 0 132 -59t42 -139q-6 -68 -62.5 -118t-126.5 -50z" glyph-name="question" horiz-adv-x="1159" unicode="?"/><glyph d="M877 1454q266 0 460.5 -176t194.5 -455q0 -207 -102.5 -330.5t-278.5 -123.5q-41 0 -75 5t-55.5 13t-38.5 17.5t-26.5 18.5t-14.5 17.5t-7 14.5l-2 4q0 -6 -15.5 -25.5t-59.5 -41t-101 -21.5q-123 0 -212 83t-89 232q0 106 38.5 185t98 116t113 53.5t100.5 16.5 q27 0 72 -13.5t57 -27.5l39 28h172l-43 -387q-2 -6 -2 -12q0 -47 49 -47q55 0 78.5 76t23.5 157q0 166 -109.5 265.5t-267.5 99.5q-229 0 -385.5 -148.5t-156.5 -385.5q0 -188 121.5 -306t279.5 -118q59 0 104.5 6t82 20.5t53 22.5t48.5 31.5t38 27.5l231 -113 q-92 -119 -236.5 -186t-308.5 -67q-178 0 -335.5 85t-259 245.5t-101.5 361.5q0 219 121 401t309.5 281.5t397.5 99.5zM801 811q-96 0 -96 -121q0 -74 65 -74q39 0 69.5 29t30.5 103q0 27 -17 45t-52 18z" glyph-name="at" horiz-adv-x="1646" unicode="@"/><glyph d="M1128 0l-73 238h-649l-125 -238h-357l774 1434h301l474 -1434h-345zM549 506h416l-152 528z" glyph-name="A" horiz-adv-x="1619" unicode="A"/><glyph d="M907 795q102 -35 176 -124t74 -218q0 -221 -150.5 -337t-410.5 -116h-590l152 1434h538q203 0 311.5 -96.5t108.5 -243.5q0 -213 -209 -299zM649 1147h-190l-31 -256h178q88 0 133 43t45 113q0 100 -135 100zM598 287q113 0 175.5 55t62.5 143q0 141 -209 142h-226 l-32 -340h229z" glyph-name="B" horiz-adv-x="1292" unicode="B"/><glyph d="M1235 147q-207 -168 -504 -167q-293 0 -488.5 185t-195.5 478q0 340 240.5 575.5t576.5 235.5q289 0 471 -176l-223 -215q-109 82 -248 82q-195 0 -336 -135.5t-143 -360.5q0 -160 109.5 -260t279.5 -100q156 0 287 102z" glyph-name="C" horiz-adv-x="1388" unicode="C"/><glyph d="M684 1434q303 0 494.5 -212t162.5 -509q-33 -299 -263 -506t-533 -207h-539l152 1434h526zM563 311q188 0 307 123t138 309q18 158 -72 268.5t-274 110.5h-207l-86 -811h194z" glyph-name="D" horiz-adv-x="1460" unicode="D"/><glyph d="M369 303h587l-32 -303h-918l152 1434h899l-33 -304h-569l-25 -260h426l-33 -297h-428z" glyph-name="E" horiz-adv-x="1126" unicode="E"/><glyph d="M1036 1133h-581l-29 -273h477l-29 -280h-479l-59 -580h-330l152 1434h911z" glyph-name="F" horiz-adv-x="1097" unicode="F"/><glyph d="M797 784h633q16 -365 -188 -584.5t-507 -219.5q-295 0 -491.5 185t-196.5 478q0 340 240.5 575.5t576.5 235.5q289 0 471 -176l-223 -215q-109 82 -248 82q-195 0 -336 -135.5t-143 -360.5q0 -156 105.5 -258t271.5 -102q272 0 338 227h-332z" glyph-name="G" horiz-adv-x="1556" unicode="G"/><glyph d="M1030 1434h330l-152 -1434h-329l57 567h-543l-57 -567h-330l152 1434h329l-59 -564h541z" glyph-name="H" horiz-adv-x="1439" unicode="H"/><glyph d="M487 1434l-151 -1434h-330l152 1434h329z" glyph-name="I" horiz-adv-x="567" unicode="I"/><glyph d="M1073 1434l-100 -955q-14 -135 -76.5 -237.5t-152 -157.5t-179.5 -82t-178 -27q-268 0 -424 205l217 232q100 -119 221 -119q45 0 90.5 13t96.5 72.5t61 158.5l94 897h330z" glyph-name="J" horiz-adv-x="1153" unicode="J"/><glyph d="M926 0l-353 602l-192 -196l-45 -406h-330l152 1434h329l-65 -588l553 588h411l-589 -605l499 -829h-370z" glyph-name="K" horiz-adv-x="1464" unicode="K"/><glyph d="M369 303h544l-32 -303h-875l152 1434h329z" glyph-name="L" horiz-adv-x="1060" unicode="L"/><glyph d="M1686 1434l-152 -1434h-330l78 680l-362 -680h-273l-233 676l-78 -676h-330l152 1434h315l346 -975l539 975h328z" glyph-name="M" horiz-adv-x="1765" unicode="M"/><glyph d="M1081 1434h330l-151 -1434h-248l-584 836l-92 -836h-330l152 1434h252l579 -836z" glyph-name="N" horiz-adv-x="1490" unicode="N"/><glyph d="M860 1454q293 0 488.5 -186.5t195.5 -481.5q0 -223 -111.5 -409.5t-299 -291.5t-406.5 -105q-293 0 -486.5 184t-193.5 479q0 340 239.5 575.5t573.5 235.5zM748 289q174 0 313 128t139 343q0 170 -101.5 277.5t-258.5 107.5q-176 0 -312.5 -129t-136.5 -348 q0 -166 99.5 -272.5t257.5 -106.5z" glyph-name="O" horiz-adv-x="1665" unicode="O"/><glyph d="M662 1434q242 0 377 -139.5t108 -370.5q-20 -211 -176 -333t-400 -122h-186l-49 -469h-330l152 1434h504zM567 750q236 0 254 204q12 94 -42 135t-161 41h-163l-39 -380h151z" glyph-name="P" horiz-adv-x="1230" unicode="P"/><glyph d="M1544 786q0 -332 -237 -569l139 -217h-381l-27 41q-152 -61 -311 -61q-293 0 -486.5 184t-193.5 479q0 340 239.5 575.5t573.5 235.5q293 0 488.5 -186.5t195.5 -481.5zM752 289q57 0 118 16l-223 352h381l100 -157q72 111 72 260q0 168 -102.5 276.5t-261.5 108.5 q-174 0 -309.5 -129t-135.5 -348q0 -166 100.5 -272.5t260.5 -106.5z" glyph-name="Q" horiz-adv-x="1665" unicode="Q"/><glyph d="M1149 0h-340l-240 469h-184l-49 -469h-330l152 1434h504q242 0 377 -139.5t108 -370.5q-29 -276 -275 -402zM416 750h151q236 0 254 204q12 94 -42 135t-161 41h-163z" glyph-name="R" horiz-adv-x="1337" unicode="R"/><glyph d="M625 1458q319 0 475 -301l-256 -135q-53 78 -108.5 111.5t-135.5 33.5q-70 0 -119 -35.5t-49 -97.5q0 -55 28.5 -83.5t100.5 -55.5l92 -33q215 -80 311.5 -182t96.5 -238q0 -219 -174 -346t-393 -127q-190 0 -327.5 102.5t-178.5 258.5l262 125q78 -188 254 -189 q94 0 155.5 43t61.5 129q0 51 -38 84t-140 72l-80 31q-166 59 -259 148t-93 249q0 135 78.5 237.5t193.5 150.5t242 48z" glyph-name="S" horiz-adv-x="1185" unicode="S"/><glyph d="M1135 1434l-33 -304h-338l-119 -1130h-330l119 1130h-338l33 304h1006z" glyph-name="T" horiz-adv-x="1173" unicode="T"/><glyph d="M944 1434h330l-96 -920q-27 -252 -201 -398.5t-408 -146.5q-242 0 -392 152.5t-124 404.5l97 908h329l-96 -922q-14 -131 46 -182t151 -51q98 0 177 56t91 189z" glyph-name="U" horiz-adv-x="1353" unicode="U"/><glyph d="M1274 1434h358l-776 -1434h-301l-471 1434h344l315 -1035z" glyph-name="V" horiz-adv-x="1630" unicode="V"/><glyph d="M2146 1434l-624 -1434h-240l-235 862l-402 -862h-239l-322 1434h342l172 -805l377 805h262l213 -805l342 805h354z" glyph-name="W" horiz-adv-x="2144" unicode="W"/><glyph d="M1309 0h-381l-238 436l-332 -436h-393l557 723l-397 711h381l233 -424l322 424h393l-545 -711z" glyph-name="X" horiz-adv-x="1486" unicode="X"/><glyph d="M1530 1434l-637 -836l-68 -598h-329l67 598l-459 836h365l283 -537l397 537h381z" glyph-name="Y" horiz-adv-x="1548" unicode="Y"/><glyph d="M1264 1434l-752 -1151h633l-29 -283h-1161l750 1151h-590l30 283h1119z" glyph-name="Z" horiz-adv-x="1292" unicode="Z"/><glyph d="M618 1526l-30 -283h-146l-129 -1227h148l-33 -282h-475l188 1792h477z" glyph-name="bracketleft" horiz-adv-x="661" unicode="["/><glyph d="M127 1526h332l508 -1792h-332z" glyph-name="backslash" horiz-adv-x="1183" unicode="\"/><glyph d="M139 1526h477l-188 -1792h-477l31 282h147l127 1227h-145z" glyph-name="bracketright" horiz-adv-x="659" unicode="]"/><glyph d="M637 1434l293 -461h-211l-189 168l-227 -168h-225l391 461h168z" glyph-name="asciicircum" horiz-adv-x="1036" unicode="^"/><glyph d="M1004 0l-31 -283h-1024l31 283h1024z" glyph-name="underscore" horiz-adv-x="1208" unicode="_"/><glyph d="M98 1516h396l153 -326h-248z" glyph-name="grave" horiz-adv-x="581" unicode="`"/><glyph d="M879 1065h323l-112 -1065h-324l12 98q-20 -39 -97 -78.5t-181 -39.5q-188 0 -334 129t-146 364q0 254 168 432t406 178q78 0 141.5 -26.5t91 -51t35.5 -42.5zM573 264q37 0 78 13.5t85 44t73 94t29 151.5q0 109 -68 170.5t-164 61.5q-117 0 -191.5 -83t-74.5 -214 q0 -115 64.5 -176.5t168.5 -61.5z" glyph-name="a" unicode="a"/><glyph d="M702 1085q180 0 322.5 -133t142.5 -374q0 -244 -169 -421t-406 -177q-100 0 -172 43t-92 86l-17 -109h-323l153 1448h324l-55 -473q10 16 40.5 38.5t100 47t151.5 24.5zM569 264q63 0 123 24.5t110 97.5t50 183.5t-64.5 171t-160.5 60.5q-127 0 -200 -88t-73 -224 q0 -106 63.5 -165.5t151.5 -59.5z" glyph-name="b" horiz-adv-x="1288" unicode="b"/><glyph d="M629 1085q313 0 436 -260l-254 -108q-92 84 -193 84q-119 0 -201.5 -85t-82.5 -227q0 -109 64.5 -168t160.5 -59q16 0 31.5 1t30 5t24.5 7.5t24.5 10.5t21.5 10t21.5 13t18.5 13.5t19.5 15.5t19.5 14l244 -127q-178 -246 -479 -245q-90 0 -178.5 30.5t-165 90t-124 160.5 t-47.5 226q0 254 180.5 426t428.5 172z" glyph-name="c" horiz-adv-x="1157" unicode="c"/><glyph d="M920 1448h323l-153 -1448h-324l12 98q-20 -39 -97 -78.5t-181 -39.5q-188 0 -334 129t-146 364q0 254 168 433t406 179q109 0 180.5 -44t87.5 -76zM573 264q37 0 78 13.5t85 44t73 94t29 151.5q0 111 -68 172.5t-164 61.5q-117 0 -191.5 -84t-74.5 -215 q0 -115 64.5 -176.5t168.5 -61.5z" glyph-name="d" unicode="d"/><glyph d="M631 1085q115 0 218 -46t180 -157.5t77 -271.5q0 -100 -23 -196h-751q49 -166 250 -166q33 0 63.5 3t48 6t44 13.5t32.5 12.5t36 16t32 16l155 -174q-168 -162 -436 -161q-211 0 -374 133t-163 366q0 252 183.5 429t427.5 177zM625 809q-182 0 -263 -168h465 q-34 168 -202 168z" glyph-name="e" horiz-adv-x="1226" unicode="e"/><glyph d="M647 1198q-20 0 -36.5 -3t-29 -8t-21.5 -11.5t-16 -15.5t-11.5 -15t-7.5 -16.5t-5 -14.5t-4 -12v-8l-2 -29h221l-24 -266h-224l-86 -799h-323l86 799h-146l25 266h147l3 39q10 94 44.5 163.5t76.5 107.5t98.5 59.5t98.5 27.5t87 6q170 0 276 -73l-120 -219 q-44 22 -107 22z" glyph-name="f" horiz-adv-x="884" unicode="f"/><glyph d="M879 1065h323l-112 -1065q-12 -117 -74 -204t-152 -132t-183 -65.5t-187 -20.5q-180 0 -285 55l20 261q84 -47 269 -48q129 0 193.5 48.5t74.5 105.5l12 98q-20 -39 -97 -78.5t-181 -39.5q-188 0 -334 129t-146 364q0 254 168 433t406 179q78 0 141.5 -26.5t91 -52 t35.5 -43.5zM573 264q37 0 78 13.5t85 44t73 94t29 151.5q0 111 -68 172.5t-164 61.5q-117 0 -191.5 -84t-74.5 -215q0 -115 64.5 -176.5t168.5 -61.5z" glyph-name="g" unicode="g"/><glyph d="M752 1085q168 0 275.5 -119.5t80.5 -359.5l-66 -606h-323l63 592q25 211 -149 211q-98 0 -168 -68.5t-82 -120.5l-72 -614h-323l153 1448h324l-62 -561q27 61 121.5 129.5t227.5 68.5z" glyph-name="h" horiz-adv-x="1255" unicode="h"/><glyph d="M109 1143l32 305h324l-33 -305h-323zM-12 0l112 1065h324l-113 -1065h-323z" glyph-name="i" horiz-adv-x="522" unicode="i"/><glyph d="M150 1143l32 305h324l-33 -305h-323zM-14 -422q-137 0 -240 55l18 310q68 -33 148 -33q61 0 88 35t31 75l110 1045h324l-123 -1165q-16 -158 -111 -240t-245 -82z" glyph-name="j" horiz-adv-x="563" unicode="j"/><glyph d="M729 0l-297 414l-80 -70l-41 -344h-323l153 1448h324l-80 -713l336 330h395l-471 -438l445 -627h-361z" glyph-name="k" horiz-adv-x="1226" unicode="k"/><glyph d="M465 1448l-154 -1448h-323l153 1448h324z" glyph-name="l" horiz-adv-x="522" unicode="l"/><glyph d="M1518 1085q186 0 297.5 -130t85.5 -388l-62 -567h-323l63 569q10 109 -31 171.5t-139 62.5q-100 0 -171 -64.5t-101 -152.5l-62 -586h-323l61 569q12 106 -36 170t-144 64q-94 0 -164 -61.5t-96 -155.5l-62 -586h-323l112 1065h324l-21 -188q12 59 101.5 133.5 t224.5 74.5q117 0 219.5 -62t155.5 -169q39 74 147.5 152.5t266.5 78.5z" glyph-name="m" horiz-adv-x="2050" unicode="m"/><glyph d="M752 1085q168 0 275.5 -119.5t80.5 -359.5l-66 -606h-323l63 592q25 211 -149 211q-98 0 -168 -68.5t-82 -120.5l-72 -614h-323l112 1065h324l-21 -178q27 61 121.5 129.5t227.5 68.5z" glyph-name="n" horiz-adv-x="1255" unicode="n"/><glyph d="M631 1085q92 0 181 -31.5t166 -93t124 -162t47 -223.5q0 -254 -179 -424.5t-431 -170.5q-199 0 -359 135t-160 372q0 254 179.5 426t431.5 172zM555 264q119 0 200 82t81 219q0 113 -68 174.5t-154 61.5q-119 0 -199.5 -82t-80.5 -221q0 -111 67.5 -172.5t153.5 -61.5z " glyph-name="o" horiz-adv-x="1269" unicode="o"/><glyph d="M688 1085q207 0 355.5 -150.5t121.5 -416.5q-14 -133 -71.5 -238.5t-139.5 -169t-174 -97t-184 -33.5q-115 0 -186.5 46t-81.5 87l-58 -502h-323l65 616l88 838h324l-14 -90q14 18 44.5 40.5t96 46t137.5 23.5zM854 549q14 119 -49.5 185.5t-169.5 66.5 q-109 0 -189.5 -75t-95.5 -208q-12 -121 46.5 -187.5t156.5 -66.5q115 0 201 76t100 209z" glyph-name="p" horiz-adv-x="1292" unicode="p"/><glyph d="M879 1065h323l-112 -1065l-41 -389h-324l53 487q-20 -37 -97 -77.5t-181 -40.5q-193 0 -336.5 129t-143.5 366q0 254 168 432t406 178q78 0 141.5 -26.5t91 -52t35.5 -43.5zM553 264q43 0 87 13.5t91 46t77 100.5t30 162q0 102 -56.5 158.5t-146.5 56.5 q-131 0 -217 -91.5t-86 -226.5q0 -104 61.5 -161.5t159.5 -57.5z" glyph-name="q" unicode="q"/><glyph d="M774 1083q45 0 96 -10l-32 -305q-27 6 -70 6q-152 0 -267.5 -99.5t-142.5 -246.5l-47 -428h-323l112 1065h324l-31 -250q53 125 152.5 196.5t228.5 71.5z" glyph-name="r" horiz-adv-x="905" unicode="r"/><glyph d="M580 737q-37 92 -115 92q-43 0 -68.5 -23.5t-25.5 -53.5q0 -45 61 -72l129 -47q53 -20 81 -32.5t72 -38t66.5 -53.5t40 -71t17.5 -96q0 -170 -135.5 -266t-321.5 -96q-160 0 -277.5 82.5t-138.5 222.5l260 67q39 -119 160 -119q61 0 96 27t35 62q0 49 -53 67l-121 45 q-287 104 -287 318q0 145 118 239t288 94q156 0 254 -77.5t133 -210.5z" glyph-name="s" horiz-adv-x="972" unicode="s"/><glyph d="M719 799h-225l-43 -422q-10 -106 71 -107q53 0 154 15l-21 -262q-86 -35 -229 -35q-158 0 -241 87t-58 314l41 410h-148l25 266h150l26 250h324l-27 -250h227z" glyph-name="t" horiz-adv-x="811" unicode="t"/><glyph d="M395 -20q-168 0 -276.5 120.5t-83.5 358.5l61 606h324l-62 -592q-23 -211 158 -211q100 0 160.5 67.5t83.5 145.5l67 590h324l-113 -1065h-323l24 184q-33 -68 -122 -136t-222 -68z" glyph-name="u" horiz-adv-x="1249" unicode="u"/><glyph d="M1282 1069l-584 -1069h-284l-359 1069h316l223 -684l358 684h330z" glyph-name="v" horiz-adv-x="1329" unicode="v"/><glyph d="M1552 1069h330l-485 -1069h-314l-155 690l-299 -690h-312l-262 1069h316l143 -684l307 684h281l170 -684z" glyph-name="w" horiz-adv-x="1929" unicode="w"/><glyph d="M762 0l-182 311l-256 -311h-379l465 547l-304 518h359l153 -285l213 285h373l-422 -518l344 -547h-364z" glyph-name="x" horiz-adv-x="1304" unicode="x"/><glyph d="M967 1069h327l-805 -1458h-329l246 430l-351 1028h316l229 -684z" glyph-name="y" horiz-adv-x="1341" unicode="y"/><glyph d="M1083 1065l-596 -782h476l-31 -283h-998l596 782h-462l30 283h985z" glyph-name="z" horiz-adv-x="1130" unicode="z"/><glyph d="M707 1526l-29 -283h-66q-35 0 -59.5 -17.5t-26.5 -47.5l-39 -412l-137 -139l101 -135l-41 -422q-2 -31 12 -42.5t49 -11.5h78l-31 -282h-223q-41 0 -79 9t-77 33.5t-58.5 78t-10.5 129.5l57 497l-80 146l103 149l55 510q33 240 266 240h236z" glyph-name="braceleft" horiz-adv-x="749" unicode="{"/><glyph d="M496 1638l-213 -2027h-283l213 2027h283z" glyph-name="bar" horiz-adv-x="589" unicode="|"/><glyph d="M141 1526h224q41 0 77.5 -9.5t74.5 -34t57.5 -77.5t11.5 -129l-56 -500l82 -149l-104 -146l-55 -508q-27 -240 -265 -239h-235l31 282h65q76 0 82 66l41 410l139 135l-102 139l43 424q2 31 -12.5 42t-49.5 11h-77z" glyph-name="braceright" horiz-adv-x="749" unicode="}"/><glyph d="M332 780q88 0 230.5 -72.5t207.5 -72.5q23 0 57.5 14.5t36.5 30.5l113 -10q-12 -121 -87 -202t-210 -81q-88 0 -228.5 86t-213.5 86q-23 0 -55.5 -20.5t-35.5 -44.5l-112 10q14 121 87 198.5t210 77.5z" glyph-name="asciitilde" horiz-adv-x="1112" unicode="~"/><glyph d="M291 1075q80 0 131 -59.5t41 -138.5q-6 -66 -61.5 -117t-125.5 -51q-80 0 -132 59t-42 139q6 68 62.5 118t126.5 50zM-33 -369l101 953h372l-102 -953h-371z" glyph-name="exclamdown" horiz-adv-x="600" unicode="¡"/><glyph d="M647 457q55 12 144 82l243 -127q-160 -221 -418 -244l-18 -168h-147l18 172q-176 29 -302 158t-126 344q0 236 157.5 403.5t385.5 190.5l18 166h148l-19 -168q250 -33 354 -254l-254 -109q-70 63 -129 78zM354 676q0 -168 146 -215l53 514q-88 -29 -143.5 -106.5 t-55.5 -192.5z" glyph-name="cent" horiz-adv-x="1161" unicode="¢"/><glyph d="M1120 926h-303q8 49 8 84q0 154 -174 153q-121 0 -170 -63.5t-49 -145.5q0 -72 49 -170h346l-26 -237h-240q-2 -80 -46 -158t-99 -108l633 2l-29 -283h-1032l26 285q27 8 59.5 25.5t74.5 48t72 79.5t32 109h-219l26 237h113q-47 104 -47 205q0 209 166 334t389 125 q201 0 334 -101.5t133 -265.5q0 -55 -27 -155z" glyph-name="sterling" horiz-adv-x="1232" unicode="£"/><glyph d="M1034 958q-12 -98 -45 -167l82 -86l-207 -193l-73 78q-115 -74 -250 -74q-133 0 -238 74l-86 -78l-180 193l96 90q-25 102 -14 196q12 104 57 180l-82 89l207 190l76 -78q115 61 237 62q139 0 240 -70l94 86l180 -190l-112 -107q26 -91 18 -195zM379 958q-6 -12 0 -41.5 t16.5 -60.5t49 -54.5t98.5 -23.5q63 0 111 24.5t73 61.5t37 70t14 57q2 20 -2 43t-17.5 57.5t-52 57t-98.5 22.5q-63 0 -111 -24.5t-71 -62t-34 -68.5t-13 -58z" glyph-name="currency" horiz-adv-x="1177" unicode="¤"/><glyph d="M893 598v-4h270l-22 -215h-273l-6 -57h277l-23 -216h-278l-13 -106h-329l12 106h-264l24 216h264l7 57h-271l25 215h270v4l-459 836h365l283 -537l397 537h381z" glyph-name="yen" horiz-adv-x="1548" unicode="¥"/><glyph d="M496 1638l-60 -573h-282l59 573h283zM344 184l-61 -573h-283l61 573h283z" glyph-name="brokenbar" horiz-adv-x="589" unicode="¦"/><glyph d="M1092 1149h-293l18 139q-8 25 -54 42.5t-112 17.5q-88 0 -141 -40t-53 -106q0 -90 110 -129l187 -69q162 -61 240.5 -155.5t78.5 -236.5q0 -203 -149 -323q74 -92 73 -230q0 -213 -160.5 -330.5t-414.5 -117.5q-178 0 -304 57.5t-186 128.5l45 314h293l-20 -148 q68 -61 176 -61q111 0 170 49t59 123q0 47 -24.5 75.5t-85.5 51.5l-170 63q-315 121 -316 385q0 205 154 326q-76 96 -76 227q0 205 152.5 320.5t374.5 115.5q162 0 304 -61t169 -119zM731 627q0 47 -24.5 75.5t-85.5 51.5l-123 47q-117 -43 -117 -152q0 -90 111 -129 l137 -51q102 54 102 158z" glyph-name="section" horiz-adv-x="1181" unicode="§"/><glyph d="M391 1436l-29 -279h-296l28 279h297zM897 1436l-31 -279h-297l29 279h299z" glyph-name="dieresis" horiz-adv-x="802" unicode="¨"/><glyph d="M838 1448q268 0 464.5 -187.5t196.5 -480.5q0 -328 -228.5 -561t-563.5 -233q-268 0 -464 184t-196 477q0 334 227.5 567.5t563.5 233.5zM713 262q221 0 366.5 153.5t145.5 364.5q0 170 -113 280.5t-281 110.5q-207 0 -358 -138t-151 -380q0 -170 111.5 -280.5 t279.5 -110.5zM774 621q45 0 90 30l142 -188q-82 -106 -250 -107q-137 0 -232.5 90.5t-95.5 235.5q0 170 115.5 282.5t267.5 112.5q172 0 244 -119l-164 -163q-27 18 -76 18q-45 0 -81 -37t-36 -80q0 -29 21.5 -52t54.5 -23z" glyph-name="copyright" horiz-adv-x="1619" unicode="©"/><glyph d="M455 1470q150 0 225.5 -88t58.5 -245l-20 -197q-8 -57 0 -92t39 -88h-187q-35 20 -41 82q-45 -47 -89 -64.5t-111 -17.5q-119 0 -190.5 56t-71.5 155q0 111 91 170t226 67l137 13q10 70 -94 69q-92 0 -199 -71l-92 133q134 118 318 118zM506 1057l-129 -15 q-43 -2 -70.5 -19t-27.5 -44q0 -47 71 -47q39 0 70 17.5t47 38t35 52.5z" glyph-name="ordfeminine" horiz-adv-x="888" unicode="ª"/><glyph d="M84 520l8 119l342 309l86 -102l-217 -266l164 -267l-111 -102zM461 520l8 119l342 309l86 -102l-217 -266l164 -267l-111 -102z" glyph-name="guillemotleft" horiz-adv-x="913" unicode="«"/><glyph d="M948 618l-41 -391h-329l12 121h-572l27 270h903z" glyph-name="logicalnot" horiz-adv-x="1087" unicode="¬"/><glyph d="M688 694l-29 -270h-634l28 270h635z" glyph-name="uni00AD" horiz-adv-x="819" unicode="­"/><glyph d="M838 1448q268 0 464.5 -187.5t196.5 -480.5q0 -328 -228.5 -561t-563.5 -233q-268 0 -464 184t-196 477q0 334 227.5 567.5t563.5 233.5zM713 262q221 0 366.5 153.5t145.5 364.5q0 170 -113 280.5t-281 110.5q-207 0 -358 -138t-151 -380q0 -170 111.5 -280.5 t279.5 -110.5zM778 1067q129 0 201 -65.5t61 -165.5q-8 -72 -36.5 -118t-98.5 -89l127 -246h-194l-113 242h-29l-22 -242h-193l72 684h225zM795 901h-76l-14 -123h65q66 0 80 78q2 25 -13 35t-42 10z" glyph-name="registered" horiz-adv-x="1619" unicode="®"/><glyph d="M819 1434l-31 -267h-778l29 267h780z" glyph-name="macron" horiz-adv-x="780" unicode="¯"/><glyph d="M381 1473q113 0 183.5 -78t56.5 -191q-10 -98 -87 -166.5t-180 -68.5q-113 0 -183.5 77.5t-55.5 190.5q10 98 87 167t179 69zM371 1266q-23 0 -37.5 -17.5t-9.5 -44.5q8 -29 41 -28q23 0 37 17t10 44q-8 29 -41 29z" glyph-name="degree" horiz-adv-x="589" unicode="°"/><glyph d="M711 461h-226l-20 -187h225l-28 -272h-687l29 272h189l22 187h-190l28 272h189l24 225h273l-25 -225h225z" glyph-name="plusminus" horiz-adv-x="862" unicode="±"/><glyph d="M305 1442q72 0 119 -48t41 -110q-6 -53 -40 -96t-120 -123l-108 -98h241l-6 -66h-344l6 66l152 143q10 8 28.5 25.5t24.5 23.5t20.5 19.5t18.5 19.5t14 16.5t13.5 15.5t8.5 14t7 15.5t5 15.5t3 17q2 37 -21.5 61.5t-60.5 24.5q-41 0 -73.5 -27.5t-36.5 -76.5l-4 -27h-76 l4 31q8 72 61 118t123 46z" glyph-name="uni00B2" horiz-adv-x="536" unicode="²"/><glyph d="M297 1440q68 0 114 -43t40 -101q-6 -66 -74 -106q35 -14 56.5 -50t15.5 -87q-6 -68 -65.5 -114t-135.5 -46q-84 0 -132 56.5t-38 131.5l78 -4q-6 -49 18.5 -84t71.5 -35t85 29t42 74q6 53 -30 73.5t-110 20.5l3 59q131 0 139 91q2 31 -19.5 51t-56.5 20 q-45 0 -75.5 -29.5t-37.5 -84.5l-75 4q8 78 60 126t126 48z" glyph-name="uni00B3" horiz-adv-x="536" unicode="³"/><glyph d="M618 1516l-301 -326h-247l153 326h395z" glyph-name="acute" horiz-adv-x="516" unicode="´"/><glyph d="M829 1065h324l-113 -1065h-323l24 178q-35 -61 -125 -127.5t-217 -66.5q-31 0 -88 -37l-43 -336h-323l153 1454h324l-62 -592q-12 -117 17 -162t104 -45q100 0 177 71t104 136z" glyph-name="uni00B5" horiz-adv-x="1251" unicode="µ"/><glyph d="M195 954q23 217 181.5 348.5t399.5 131.5h514l-151 -1434h-330l49 469h-172q-244 0 -379 130t-112 355zM1511 1434h330l-151 -1434h-330zM928 1130h-154q-229 0 -254 -206q-10 -94 43 -134t160 -40h166z" glyph-name="paragraph" horiz-adv-x="1945" unicode="¶"/><glyph d="M197 387q-80 0 -132.5 58.5t-44.5 138.5q10 68 65.5 118t123.5 50q78 0 131 -58.5t45 -140.5q-10 -68 -65 -117t-123 -49z" glyph-name="periodcentered" horiz-adv-x="585" unicode="·"/><glyph d="M201 -84q178 -53 178 -180q0 -84 -74 -135.5t-179.5 -56.5t-221.5 22l28 72q100 -20 160 8t60 84q0 53 -44.5 74.5t-95.5 -11.5l-98 90l106 117h297z" glyph-name="cedilla" horiz-adv-x="462" unicode="¸"/><glyph d="M291 1436l-55 -535h-76l49 453l-37 -23l-33 64l76 41h76z" glyph-name="uni00B9" horiz-adv-x="397" unicode="¹"/><glyph d="M440 1444q119 0 212 -86t93 -225q0 -162 -111.5 -261.5t-240.5 -99.5q-123 0 -218 86t-95 227q0 158 114.5 258.5t245.5 100.5zM426 1235q-53 0 -96 -41t-43 -98q0 -51 34.5 -83t84.5 -32q53 0 93 42t40 103q0 47 -34 78t-79 31z" glyph-name="ordmasculine" horiz-adv-x="806" unicode="º"/><glyph d="M465 639l-8 -119l-342 -309l-86 102l217 267l-164 266l111 102zM842 639l-8 -119l-342 -309l-86 102l217 267l-164 266l110 102z" glyph-name="guillemotright" horiz-adv-x="913" unicode="»"/><glyph d="M246 1436l-56 -535h-75l47 453l-35 -23l-33 64l76 41h76zM1071 1434l-1032 -1434h-98l1044 1434h86zM1006 535l-33 -316h55l-8 -63h-55l-17 -156h-76l17 156h-271l312 379h76zM918 414l-154 -195h133z" glyph-name="onequarter" horiz-adv-x="1167" unicode="¼"/><glyph d="M246 1436l-56 -535h-75l47 453l-35 -23l-33 64l76 41h76zM1071 1434l-1032 -1434h-98l1044 1434h86zM827 541q72 0 119 -48.5t41 -109.5q-6 -53 -40 -96t-120 -123l-108 -98h242l-9 -66h-344l8 66l152 143q109 102 125 133q14 23 16 49q4 37 -19.5 61.5t-60.5 24.5 q-41 0 -73.5 -27.5t-38.5 -76.5l-2 -27h-76l4 31q8 72 61 118t123 46z" glyph-name="onehalf" horiz-adv-x="1116" unicode="½"/><glyph d="M274 1440q68 0 113 -43t39 -101q-6 -66 -72 -106q80 -35 72 -137q-8 -68 -67.5 -114t-135.5 -46q-84 0 -132 56.5t-38 131.5l78 -4q-4 -49 20.5 -84t71.5 -35t84 29t41 74q6 53 -29.5 73.5t-109.5 20.5l2 59q131 0 141 91q2 31 -20.5 51t-57.5 20q-45 0 -75.5 -29.5 t-36.5 -84.5l-74 4q6 78 59 126t127 48zM1126 1434l-1030 -1434h-98l1042 1434h86zM1040 535l-32 -316h55l-6 -63h-56l-16 -156h-76l17 156h-271l310 379h75zM952 414l-153 -195h133z" glyph-name="threequarters" horiz-adv-x="1202" unicode="¾"/><glyph d="M502 1075q80 0 131 -59.5t41 -138.5q-8 -68 -63.5 -118t-123.5 -50q-80 0 -132 59t-42 139q6 68 62.5 118t126.5 50zM442 -389q-207 0 -347 126t-115 333q8 80 35.5 136t62.5 86t75 59.5t73.5 55t58 74.5t28.5 117v-4h332l2 -6q-4 -102 -39 -173t-83 -109t-97 -70.5 t-85 -82t-42 -116.5q0 -14 3 -30.5t16.5 -46.5t48 -48t88.5 -18q166 0 202 182h326q-23 -219 -176.5 -342t-366.5 -123z" glyph-name="questiondown" horiz-adv-x="1159" unicode="¿"/><glyph d="M455 1884h395l154 -325h-248zM1128 0l-73 238h-649l-125 -238h-357l774 1434h301l474 -1434h-345zM549 506h416l-152 528z" glyph-name="Agrave" horiz-adv-x="1619" unicode="À"/><glyph d="M1290 1884l-301 -325h-248l154 325h395zM1128 0l-73 238h-649l-125 -238h-357l774 1434h301l474 -1434h-345zM549 506h416l-152 528z" glyph-name="Aacute" horiz-adv-x="1619" unicode="Á"/><glyph d="M967 1935l237 -317l-108 -92l-209 207l-248 -207l-84 92l295 317h117zM1128 0l-73 238h-649l-125 -238h-357l774 1434h301l474 -1434h-345zM549 506h416l-152 528z" glyph-name="Acircumflex" horiz-adv-x="1619" unicode="Â"/><glyph d="M727 1911q82 0 205 -72t166 -72q29 0 62.5 12.5t35.5 28.5l117 -12q-12 -119 -83 -201t-190 -82q-82 0 -208.5 84t-172.5 84q-27 0 -60.5 -18t-35.5 -43l-114 12q14 121 82.5 200t195.5 79zM1128 0l-73 238h-649l-125 -238h-357l774 1434h301l474 -1434h-345zM549 506 h416l-152 528z" glyph-name="Atilde" horiz-adv-x="1619" unicode="Ã"/><glyph d="M797 1804l-29 -278h-297l29 278h297zM1303 1804l-31 -278h-297l29 278h299zM1128 0l-73 238h-649l-125 -238h-357l774 1434h301l474 -1434h-345zM549 506h416l-152 528z" glyph-name="Adieresis" horiz-adv-x="1619" unicode="Ä"/><glyph d="M905 2040q94 0 162 -66.5t68 -161.5q0 -102 -78 -180t-183 -78q-98 0 -164.5 67t-66.5 163q0 102 78 179t184 77zM893 1847q-49 0 -49 -55q0 -12 12 -24.5t29 -12.5q23 0 37 16.5t14 38.5q0 14 -14.5 25.5t-28.5 11.5zM1128 0l-73 238h-649l-125 -238h-357l774 1434h301 l474 -1434h-345zM549 506h416l-152 528z" glyph-name="Aring" horiz-adv-x="1619" unicode="Å"/><glyph d="M1292 303h588l-33 -303h-917l37 360h-389l-281 -360h-373l1133 1434h923l-32 -304h-570l-24 -260h426l-33 -297h-426zM803 641h194l35 291z" glyph-name="AE" horiz-adv-x="2050" unicode="Æ"/><glyph d="M1235 147q-180 -147 -430 -165l-92 -66q178 -53 178 -180q0 -84 -74 -135.5t-179.5 -56.5t-221.5 22l28 72q100 -20 160 8t60 84q0 53 -44.5 74.5t-95.5 -11.5l-98 90l106 117h19q-225 53 -364.5 226t-139.5 417q0 340 240.5 575.5t576.5 235.5q289 0 471 -176l-223 -215 q-109 82 -248 82q-195 0 -336 -135.5t-143 -360.5q0 -160 109.5 -260t279.5 -100q156 0 287 102z" glyph-name="Ccedilla" horiz-adv-x="1388" unicode="Ç"/><glyph d="M229 1884h396l153 -325h-248zM369 303h587l-32 -303h-918l152 1434h899l-33 -304h-569l-25 -260h426l-33 -297h-428z" glyph-name="Egrave" horiz-adv-x="1126" unicode="È"/><glyph d="M1065 1884l-301 -325h-248l154 325h395zM369 303h587l-32 -303h-918l152 1434h899l-33 -304h-569l-25 -260h426l-33 -297h-428z" glyph-name="Eacute" horiz-adv-x="1126" unicode="É"/><glyph d="M741 1935l238 -317l-109 -92l-208 207l-248 -207l-84 92l295 317h116zM369 303h587l-32 -303h-918l152 1434h899l-33 -304h-569l-25 -260h426l-33 -297h-428z" glyph-name="Ecircumflex" horiz-adv-x="1126" unicode="Ê"/><glyph d="M571 1804l-28 -278h-297l28 278h297zM1077 1804l-30 -278h-297l28 278h299zM369 303h587l-32 -303h-918l152 1434h899l-33 -304h-569l-25 -260h426l-33 -297h-428z" glyph-name="Edieresis" horiz-adv-x="1126" unicode="Ë"/><glyph d="M-76 1884h395l154 -325h-248zM487 1434l-151 -1434h-330l152 1434h329z" glyph-name="Igrave" horiz-adv-x="567" unicode="Ì"/><glyph d="M760 1884l-301 -325h-248l154 325h395zM487 1434l-151 -1434h-330l152 1434h329z" glyph-name="Iacute" horiz-adv-x="567" unicode="Í"/><glyph d="M436 1935l238 -317l-109 -92l-209 207l-247 -207l-84 92l294 317h117zM487 1434l-151 -1434h-330l152 1434h329z" glyph-name="Icircumflex" horiz-adv-x="567" unicode="Î"/><glyph d="M266 1804l-28 -278h-297l28 278h297zM772 1804l-31 -278h-297l29 278h299zM487 1434l-151 -1434h-330l152 1434h329z" glyph-name="Idieresis" horiz-adv-x="567" unicode="Ï"/><glyph d="M887 1434q303 0 494.5 -212t162.5 -509q-33 -299 -263 -506t-533 -207h-539l59 561h-118l28 273h119l63 600h527zM766 311q188 0 306 123t138 309q16 158 -72.5 268.5t-273.5 110.5h-207l-30 -288h184l-27 -273h-186l-27 -250h195z" glyph-name="Eth" horiz-adv-x="1662" unicode="Ð"/><glyph d="M659 1911q82 0 205 -72t166 -72q31 0 63.5 12.5t34.5 28.5l117 -12q-12 -119 -82.5 -201t-189.5 -82q-82 0 -209 84t-172 84q-27 0 -60.5 -18t-35.5 -43l-115 12q14 121 82.5 200t195.5 79zM1081 1434h330l-151 -1434h-248l-584 836l-92 -836h-330l152 1434h252l579 -836 z" glyph-name="Ntilde" horiz-adv-x="1490" unicode="Ñ"/><glyph d="M467 1884h395l154 -325h-248zM860 1454q293 0 488.5 -186.5t195.5 -481.5q0 -223 -111.5 -409.5t-299 -291.5t-406.5 -105q-293 0 -486.5 184t-193.5 479q0 340 239.5 575.5t573.5 235.5zM748 289q174 0 313 128t139 343q0 170 -101.5 277.5t-258.5 107.5 q-176 0 -312.5 -129t-136.5 -348q0 -166 99.5 -272.5t257.5 -106.5z" glyph-name="Ograve" horiz-adv-x="1665" unicode="Ò"/><glyph d="M1303 1884l-302 -325h-247l153 325h396zM860 1454q293 0 488.5 -186.5t195.5 -481.5q0 -223 -111.5 -409.5t-299 -291.5t-406.5 -105q-293 0 -486.5 184t-193.5 479q0 340 239.5 575.5t573.5 235.5zM748 289q174 0 313 128t139 343q0 170 -101.5 277.5t-258.5 107.5 q-176 0 -312.5 -129t-136.5 -348q0 -166 99.5 -272.5t257.5 -106.5z" glyph-name="Oacute" horiz-adv-x="1665" unicode="Ó"/><glyph d="M979 1935l238 -317l-109 -92l-209 207l-248 -207l-84 92l295 317h117zM860 1454q293 0 488.5 -186.5t195.5 -481.5q0 -223 -111.5 -409.5t-299 -291.5t-406.5 -105q-293 0 -486.5 184t-193.5 479q0 340 239.5 575.5t573.5 235.5zM748 289q174 0 313 128t139 343 q0 170 -101.5 277.5t-258.5 107.5q-176 0 -312.5 -129t-136.5 -348q0 -166 99.5 -272.5t257.5 -106.5z" glyph-name="Ocircumflex" horiz-adv-x="1665" unicode="Ô"/><glyph d="M739 1911q82 0 205 -72t166 -72q29 0 62.5 12.5t35.5 28.5l117 -12q-12 -119 -83 -201t-189 -82q-82 0 -209 84t-172 84q-27 0 -60.5 -18t-36.5 -43l-114 12q14 121 82.5 200t195.5 79zM860 1454q293 0 488.5 -186.5t195.5 -481.5q0 -223 -111.5 -409.5t-299 -291.5 t-406.5 -105q-293 0 -486.5 184t-193.5 479q0 340 239.5 575.5t573.5 235.5zM748 289q174 0 313 128t139 343q0 170 -101.5 277.5t-258.5 107.5q-176 0 -312.5 -129t-136.5 -348q0 -166 99.5 -272.5t257.5 -106.5z" glyph-name="Otilde" horiz-adv-x="1665" unicode="Õ"/><glyph d="M809 1804l-29 -278h-297l29 278h297zM1315 1804l-31 -278h-297l29 278h299zM860 1454q293 0 488.5 -186.5t195.5 -481.5q0 -223 -111.5 -409.5t-299 -291.5t-406.5 -105q-293 0 -486.5 184t-193.5 479q0 340 239.5 575.5t573.5 235.5zM748 289q174 0 313 128t139 343 q0 170 -101.5 277.5t-258.5 107.5q-176 0 -312.5 -129t-136.5 -348q0 -166 99.5 -272.5t257.5 -106.5z" glyph-name="Odieresis" horiz-adv-x="1665" unicode="Ö"/><glyph d="M758 725l-164 -147l129 -146l-215 -192l-127 143l-160 -143l-174 188l162 147l-135 154l215 189l133 -148l162 148z" glyph-name="multiply" horiz-adv-x="829" unicode="×"/><glyph d="M1315 1298q123 -98 183.5 -252.5t41.5 -345.5q-33 -313 -270.5 -516.5t-542.5 -203.5q-76 0 -162 14l-59 -96h-379l145 233q-123 102 -182 257t-39 345q33 313 267.5 517t541.5 204q78 0 164 -14l53 86h379zM391 700q-20 -166 43 -280l438 743q-18 -18 -22 -18 q-178 0 -308.5 -126t-150.5 -319zM737 289q178 0 310.5 126t152.5 318q14 178 -47 277l-436 -738q4 2 8 6.5t7 7.5t5 3z" glyph-name="Oslash" horiz-adv-x="1665" unicode="Ø"/><glyph d="M313 1884h396l153 -325h-248zM944 1434h330l-96 -920q-27 -252 -201 -398.5t-408 -146.5q-242 0 -392 152.5t-124 404.5l97 908h329l-96 -922q-14 -131 46 -182t151 -51q98 0 177 56t91 189z" glyph-name="Ugrave" horiz-adv-x="1353" unicode="Ù"/><glyph d="M1149 1884l-301 -325h-248l154 325h395zM944 1434h330l-96 -920q-27 -252 -201 -398.5t-408 -146.5q-242 0 -392 152.5t-124 404.5l97 908h329l-96 -922q-14 -131 46 -182t151 -51q98 0 177 56t91 189z" glyph-name="Uacute" horiz-adv-x="1353" unicode="Ú"/><glyph d="M825 1935l238 -317l-109 -92l-209 207l-247 -207l-84 92l295 317h116zM944 1434h330l-96 -920q-27 -252 -201 -398.5t-408 -146.5q-242 0 -392 152.5t-124 404.5l97 908h329l-96 -922q-14 -131 46 -182t151 -51q98 0 177 56t91 189z" glyph-name="Ucircumflex" horiz-adv-x="1353" unicode="Û"/><glyph d="M655 1804l-28 -278h-297l28 278h297zM1161 1804l-31 -278h-296l28 278h299zM944 1434h330l-96 -920q-27 -252 -201 -398.5t-408 -146.5q-242 0 -392 152.5t-124 404.5l97 908h329l-96 -922q-14 -131 46 -182t151 -51q98 0 177 56t91 189z" glyph-name="Udieresis" horiz-adv-x="1353" unicode="Ü"/><glyph d="M1249 1884l-301 -325h-248l154 325h395zM1530 1434l-637 -836l-68 -598h-329l67 598l-459 836h365l283 -537l397 537h381z" glyph-name="Yacute" horiz-adv-x="1548" unicode="Ý"/><glyph d="M709 1157q266 0 418.5 -126t132.5 -326q-23 -199 -192 -309.5t-441 -110.5h-260l-31 -285h-330l152 1434h329l-28 -277h250zM649 567q18 0 57 -2t62 -3t55.5 7.5t51 25.5t35 53t22.5 89q4 43 -4 73t-22.5 43t-43 19.5t-50 6.5t-60.5 -2.5t-58 -2.5h-264l-35 -307h254z " glyph-name="Thorn" horiz-adv-x="1363" unicode="Þ"/><glyph d="M700 1434q221 0 362.5 -89.5t141.5 -265.5q0 -131 -75.5 -206.5t-172.5 -88.5q123 -10 197 -103t74 -247q0 -434 -594 -434h-139l28 283h133q244 0 244 172q0 57 -24.5 95t-69.5 53t-83 20.5t-91 5.5h-70l29 262h59q223 0 223 145q0 66 -45 90.5t-133 24.5 q-135 0 -193.5 -46t-72.5 -175l-98 -930h-324l100 942q27 266 181.5 379t412.5 113z" glyph-name="germandbls" horiz-adv-x="1361" unicode="ß"/><glyph d="M801 1190h-248l-301 326h395zM879 1065h323l-112 -1065h-324l12 98q-20 -39 -97 -78.5t-181 -39.5q-188 0 -334 129t-146 364q0 254 168 432t406 178q78 0 141.5 -26.5t91 -51t35.5 -42.5zM573 264q37 0 78 13.5t85 44t73 94t29 151.5q0 109 -68 170.5t-164 61.5 q-117 0 -191.5 -83t-74.5 -214q0 -115 64.5 -176.5t168.5 -61.5z" glyph-name="agrave" unicode="à"/><glyph d="M1087 1516l-301 -326h-247l153 326h395zM879 1065h323l-112 -1065h-324l12 98q-20 -39 -97 -78.5t-181 -39.5q-188 0 -334 129t-146 364q0 254 168 432t406 178q78 0 141.5 -26.5t91 -51t35.5 -42.5zM573 264q37 0 78 13.5t85 44t73 94t29 151.5q0 109 -68 170.5 t-164 61.5q-117 0 -191.5 -83t-74.5 -214q0 -115 64.5 -176.5t168.5 -61.5z" glyph-name="aacute" unicode="á"/><glyph d="M684 1364l-248 -207l-84 92l295 318h117l237 -318l-108 -92zM879 1065h323l-112 -1065h-324l12 98q-20 -39 -97 -78.5t-181 -39.5q-188 0 -334 129t-146 364q0 254 168 432t406 178q78 0 141.5 -26.5t91 -51t35.5 -42.5zM573 264q37 0 78 13.5t85 44t73 94t29 151.5 q0 109 -68 170.5t-164 61.5q-117 0 -191.5 -83t-74.5 -214q0 -115 64.5 -176.5t168.5 -61.5z" glyph-name="acircumflex" unicode="â"/><glyph d="M457 1313q-27 0 -61 -18.5t-36 -43.5l-114 13q14 121 82.5 199.5t195.5 78.5q82 0 205 -71.5t166 -71.5q31 0 63.5 12t34.5 29l117 -13q-12 -119 -83 -200.5t-189 -81.5q-82 0 -209 84t-172 84zM879 1065h323l-112 -1065h-324l12 98q-20 -39 -97 -78.5t-181 -39.5 q-188 0 -334 129t-146 364q0 254 168 432t406 178q78 0 141.5 -26.5t91 -51t35.5 -42.5zM573 264q37 0 78 13.5t85 44t73 94t29 151.5q0 109 -68 170.5t-164 61.5q-117 0 -191.5 -83t-74.5 -214q0 -115 64.5 -176.5t168.5 -61.5z" glyph-name="atilde" unicode="ã"/><glyph d="M594 1436l-29 -279h-297l29 279h297zM1100 1436l-31 -279h-297l29 279h299zM879 1065h323l-112 -1065h-324l12 98q-20 -39 -97 -78.5t-181 -39.5q-188 0 -334 129t-146 364q0 254 168 432t406 178q78 0 141.5 -26.5t91 -51t35.5 -42.5zM573 264q37 0 78 13.5t85 44t73 94 t29 151.5q0 109 -68 170.5t-164 61.5q-117 0 -191.5 -83t-74.5 -214q0 -115 64.5 -176.5t168.5 -61.5z" glyph-name="adieresis" unicode="ä"/><glyph d="M672 1186q-98 0 -165 66.5t-67 162.5q0 102 78 179t184 77q94 0 162 -66.5t68 -160.5q0 -102 -78 -180t-182 -78zM690 1479q-49 0 -49 -56q0 -12 12.5 -24.5t28.5 -12.5q23 0 37 16.5t14 39.5q0 14 -14.5 25.5t-28.5 11.5zM879 1065h323l-112 -1065h-324l12 98 q-20 -39 -97 -78.5t-181 -39.5q-188 0 -334 129t-146 364q0 254 168 432t406 178q78 0 141.5 -26.5t91 -51t35.5 -42.5zM573 264q37 0 78 13.5t85 44t73 94t29 151.5q0 109 -68 170.5t-164 61.5q-117 0 -191.5 -83t-74.5 -214q0 -115 64.5 -176.5t168.5 -61.5z" glyph-name="aring" unicode="å"/><glyph d="M1921 610q0 -100 -23 -196h-751q49 -166 250 -166q33 0 63.5 3t48 6t44 13.5t32.5 12.5t36 16t32 16l155 -174q-168 -162 -436 -161q-150 0 -278 67l-4 -47h-324l12 98q-20 -39 -97 -78.5t-181 -39.5q-188 0 -334 129t-146 364q0 254 168 432t406 178q78 0 141.5 -26.5 t91 -51t35.5 -42.5l17 102h323l-4 -35q117 55 248 55q115 0 218 -46t180 -157.5t77 -271.5zM1178 641h464q-35 168 -202 168q-182 0 -262 -168zM573 264q37 0 78 13.5t85 44t73 94t29 151.5q0 109 -68 170.5t-164 61.5q-117 0 -191.5 -83t-74.5 -214q0 -115 64.5 -176.5 t168.5 -61.5z" glyph-name="ae" horiz-adv-x="2043" unicode="æ"/><glyph d="M559 262q16 0 31.5 1t30 5t24.5 7.5t24.5 10.5t21.5 10t21.5 13t18.5 13.5t19.5 15.5t19.5 14l244 -127q-131 -182 -328 -229l-106 -76q178 -53 178 -180q0 -84 -74 -135t-179.5 -56.5t-221.5 21.5l28 72q100 -20 159.5 8t59.5 84q0 53 -44 74.5t-95 -11.5l-98 90 l100 111q-158 43 -265.5 168t-107.5 321q0 254 180.5 426t428.5 172q313 0 436 -260l-254 -108q-92 84 -193 84q-119 0 -201.5 -85t-82.5 -227q0 -109 64.5 -168t160.5 -59z" glyph-name="ccedilla" horiz-adv-x="1157" unicode="ç"/><glyph d="M231 1516h396l153 -326h-248zM631 1085q115 0 218 -46t180 -157.5t77 -271.5q0 -100 -23 -196h-751q49 -166 250 -166q33 0 63.5 3t48 6t44 13.5t32.5 12.5t36 16t32 16l155 -174q-168 -162 -436 -161q-211 0 -374 133t-163 366q0 252 183.5 429t427.5 177zM625 809 q-182 0 -263 -168h465q-34 168 -202 168z" glyph-name="egrave" horiz-adv-x="1226" unicode="è"/><glyph d="M1067 1516l-301 -326h-248l154 326h395zM631 1085q115 0 218 -46t180 -157.5t77 -271.5q0 -100 -23 -196h-751q49 -166 250 -166q33 0 63.5 3t48 6t44 13.5t32.5 12.5t36 16t32 16l155 -174q-168 -162 -436 -161q-211 0 -374 133t-163 366q0 252 183.5 429t427.5 177z M625 809q-182 0 -263 -168h465q-34 168 -202 168z" glyph-name="eacute" horiz-adv-x="1226" unicode="é"/><glyph d="M743 1567l238 -318l-109 -92l-208 207l-248 -207l-84 92l295 318h116zM631 1085q115 0 218 -46t180 -157.5t77 -271.5q0 -100 -23 -196h-751q49 -166 250 -166q33 0 63.5 3t48 6t44 13.5t32.5 12.5t36 16t32 16l155 -174q-168 -162 -436 -161q-211 0 -374 133t-163 366 q0 252 183.5 429t427.5 177zM625 809q-182 0 -263 -168h465q-34 168 -202 168z" glyph-name="ecircumflex" horiz-adv-x="1226" unicode="ê"/><glyph d="M573 1436l-28 -279h-297l28 279h297zM1079 1436l-30 -279h-297l28 279h299zM631 1085q115 0 218 -46t180 -157.5t77 -271.5q0 -100 -23 -196h-751q49 -166 250 -166q33 0 63.5 3t48 6t44 13.5t32.5 12.5t36 16t32 16l155 -174q-168 -162 -436 -161q-211 0 -374 133 t-163 366q0 252 183.5 429t427.5 177zM625 809q-182 0 -263 -168h465q-34 168 -202 168z" glyph-name="edieresis" horiz-adv-x="1226" unicode="ë"/><glyph d="M-139 1516h395l154 -326h-248zM424 1065l-113 -1065h-323l112 1065h324z" glyph-name="igrave" horiz-adv-x="522" unicode="ì"/><glyph d="M696 1516l-301 -326h-248l154 326h395zM424 1065l-113 -1065h-323l112 1065h324z" glyph-name="iacute" horiz-adv-x="522" unicode="í"/><glyph d="M373 1567l237 -318l-108 -92l-209 207l-248 -207l-84 92l295 318h117zM424 1065l-113 -1065h-323l112 1065h324z" glyph-name="icircumflex" horiz-adv-x="522" unicode="î"/><glyph d="M203 1436l-29 -279h-297l29 279h297zM709 1436l-31 -279h-297l29 279h299zM424 1065l-113 -1065h-323l112 1065h324z" glyph-name="idieresis" horiz-adv-x="522" unicode="ï"/><glyph d="M979 1176q96 -166 119.5 -332t-4.5 -344q-27 -254 -198 -387t-396 -133q-217 0 -360.5 143t-116.5 409q29 260 185.5 396.5t385.5 136.5q25 0 47.5 -2t28.5 -4t14 0l-27 69l-184 -30l16 151l82 13l-104 172h356l72 -119l209 35l-14 -150zM508 262q102 0 174 64.5 t84 205.5q14 131 -41 190.5t-139 59.5q-82 0 -151.5 -67.5t-86.5 -214.5q-12 -121 40 -179.5t120 -58.5z" glyph-name="eth" horiz-adv-x="1249" unicode="ð"/><glyph d="M487 1542q82 0 205 -71.5t166 -71.5q31 0 63.5 12t34.5 29l117 -13q-12 -119 -82.5 -200.5t-189.5 -81.5q-82 0 -209 84t-172 84q-27 0 -60.5 -18.5t-35.5 -43.5l-115 13q14 121 82.5 199.5t195.5 78.5zM752 1085q168 0 275.5 -119.5t80.5 -359.5l-66 -606h-323l63 592 q25 211 -149 211q-98 0 -168 -68.5t-82 -120.5l-72 -614h-323l112 1065h324l-21 -178q27 61 121.5 129.5t227.5 68.5z" glyph-name="ntilde" horiz-adv-x="1255" unicode="ñ"/><glyph d="M242 1516h395l154 -326h-248zM631 1085q92 0 181 -31.5t166 -93t124 -162t47 -223.5q0 -254 -179 -424.5t-431 -170.5q-199 0 -359 135t-160 372q0 254 179.5 426t431.5 172zM555 264q119 0 200 82t81 219q0 113 -68 174.5t-154 61.5q-119 0 -199.5 -82t-80.5 -221 q0 -111 67.5 -172.5t153.5 -61.5z" glyph-name="ograve" horiz-adv-x="1269" unicode="ò"/><glyph d="M1077 1516l-301 -326h-248l154 326h395zM631 1085q92 0 181 -31.5t166 -93t124 -162t47 -223.5q0 -254 -179 -424.5t-431 -170.5q-199 0 -359 135t-160 372q0 254 179.5 426t431.5 172zM555 264q119 0 200 82t81 219q0 113 -68 174.5t-154 61.5q-119 0 -199.5 -82 t-80.5 -221q0 -111 67.5 -172.5t153.5 -61.5z" glyph-name="oacute" horiz-adv-x="1269" unicode="ó"/><glyph d="M754 1567l237 -318l-108 -92l-209 207l-248 -207l-84 92l295 318h117zM631 1085q92 0 181 -31.5t166 -93t124 -162t47 -223.5q0 -254 -179 -424.5t-431 -170.5q-199 0 -359 135t-160 372q0 254 179.5 426t431.5 172zM555 264q119 0 200 82t81 219q0 113 -68 174.5 t-154 61.5q-119 0 -199.5 -82t-80.5 -221q0 -111 67.5 -172.5t153.5 -61.5z" glyph-name="ocircumflex" horiz-adv-x="1269" unicode="ô"/><glyph d="M514 1542q82 0 205 -71.5t166 -71.5q31 0 63.5 12t34.5 29l117 -13q-12 -119 -83 -200.5t-190 -81.5q-82 0 -208.5 84t-172.5 84q-27 0 -60.5 -18.5t-35.5 -43.5l-114 13q14 121 82.5 199.5t195.5 78.5zM631 1085q92 0 181 -31.5t166 -93t124 -162t47 -223.5 q0 -254 -179 -424.5t-431 -170.5q-199 0 -359 135t-160 372q0 254 179.5 426t431.5 172zM555 264q119 0 200 82t81 219q0 113 -68 174.5t-154 61.5q-119 0 -199.5 -82t-80.5 -221q0 -111 67.5 -172.5t153.5 -61.5z" glyph-name="otilde" horiz-adv-x="1269" unicode="õ"/><glyph d="M584 1436l-29 -279h-297l29 279h297zM1090 1436l-31 -279h-297l29 279h299zM631 1085q92 0 181 -31.5t166 -93t124 -162t47 -223.5q0 -254 -179 -424.5t-431 -170.5q-199 0 -359 135t-160 372q0 254 179.5 426t431.5 172zM555 264q119 0 200 82t81 219q0 113 -68 174.5 t-154 61.5q-119 0 -199.5 -82t-80.5 -221q0 -111 67.5 -172.5t153.5 -61.5z" glyph-name="odieresis" horiz-adv-x="1269" unicode="ö"/><glyph d="M412 756q-80 0 -132.5 58t-43.5 138q10 68 65 118t125 50q80 0 132 -59.5t42 -138.5q-10 -68 -65 -117t-123 -49zM737 694l-28 -270h-686l28 270h686zM342 -2q-78 0 -130 58.5t-44 140.5q4 68 60.5 118t127.5 50q80 0 132.5 -59.5t41.5 -139.5q-8 -68 -64 -118t-124 -50z " glyph-name="divide" horiz-adv-x="813" unicode="÷"/><glyph d="M975 961q193 -172 166 -447q-18 -172 -123 -298t-232 -181t-251 -55q-20 0 -113 10l-60 -92h-311l131 204q-190 164 -162 443q18 170 123 298t232 184t252 56q55 0 110 -10l66 111h311zM328 373l260 424q-96 -12 -170 -87t-86 -196q-14 -80 -4 -141zM831 545 q12 92 -8 151l-252 -430q96 12 172 86t88 193z" glyph-name="oslash" horiz-adv-x="1267" unicode="ø"/><glyph d="M227 1516h396l153 -326h-248zM395 -20q-168 0 -276.5 120.5t-83.5 358.5l61 606h324l-62 -592q-23 -211 158 -211q100 0 160.5 67.5t83.5 145.5l67 590h324l-113 -1065h-323l24 184q-33 -68 -122 -136t-222 -68z" glyph-name="ugrave" horiz-adv-x="1249" unicode="ù"/><glyph d="M1063 1516l-301 -326h-248l154 326h395zM395 -20q-168 0 -276.5 120.5t-83.5 358.5l61 606h324l-62 -592q-23 -211 158 -211q100 0 160.5 67.5t83.5 145.5l67 590h324l-113 -1065h-323l24 184q-33 -68 -122 -136t-222 -68z" glyph-name="uacute" horiz-adv-x="1249" unicode="ú"/><glyph d="M739 1567l238 -318l-109 -92l-209 207l-247 -207l-84 92l295 318h116zM395 -20q-168 0 -276.5 120.5t-83.5 358.5l61 606h324l-62 -592q-23 -211 158 -211q100 0 160.5 67.5t83.5 145.5l67 590h324l-113 -1065h-323l24 184q-33 -68 -122 -136t-222 -68z" glyph-name="ucircumflex" horiz-adv-x="1249" unicode="û"/><glyph d="M569 1436l-28 -279h-297l28 279h297zM1075 1436l-31 -279h-296l28 279h299zM395 -20q-168 0 -276.5 120.5t-83.5 358.5l61 606h324l-62 -592q-23 -211 158 -211q100 0 160.5 67.5t83.5 145.5l67 590h324l-113 -1065h-323l24 184q-33 -68 -122 -136t-222 -68z" glyph-name="udieresis" horiz-adv-x="1249" unicode="ü"/><glyph d="M1102 1516l-301 -326h-248l154 326h395zM967 1069h327l-805 -1458h-329l246 430l-351 1028h316l229 -684z" glyph-name="yacute" horiz-adv-x="1341" unicode="ý"/><glyph d="M688 1083q207 0 355.5 -150.5t121.5 -414.5q-18 -174 -112.5 -301t-213 -182t-243.5 -55q-115 0 -186.5 46t-81.5 87l-58 -502h-323l194 1837h324l-55 -475q16 16 44.5 37.5t95 47t138.5 25.5zM854 549q14 117 -49.5 183.5t-169.5 66.5q-109 0 -189.5 -75t-95.5 -206 q-12 -121 46.5 -187.5t156.5 -66.5q115 0 202 76t99 209z" glyph-name="thorn" horiz-adv-x="1292" unicode="þ"/><glyph d="M608 1436l-28 -279h-297l28 279h297zM1114 1436l-31 -279h-297l29 279h299zM967 1069h327l-805 -1458h-329l246 430l-351 1028h316l229 -684z" glyph-name="ydieresis" horiz-adv-x="1341" unicode="ÿ"/><glyph d="M1284 1802l-31 -266h-778l29 266h780zM1128 0l-73 238h-649l-125 -238h-357l774 1434h301l474 -1434h-345zM549 506h416l-152 528z" glyph-name="Amacron" horiz-adv-x="1619" unicode="Ā"/><glyph d="M1081 1434l-30 -267h-779l29 267h780zM879 1065h323l-112 -1065h-324l12 98q-20 -39 -97 -78.5t-181 -39.5q-188 0 -334 129t-146 364q0 254 168 432t406 178q78 0 141.5 -26.5t91 -51t35.5 -42.5zM573 264q37 0 78 13.5t85 44t73 94t29 151.5q0 109 -68 170.5t-164 61.5 q-117 0 -191.5 -83t-74.5 -214q0 -115 64.5 -176.5t168.5 -61.5z" glyph-name="amacron" unicode="ā"/><glyph d="M1227 1864q-14 -147 -115.5 -245.5t-267.5 -98.5q-168 0 -246 101t-59 243h196q-4 -61 29 -96t100 -35q145 0 166 131h197zM1128 0l-73 238h-649l-125 -238h-357l774 1434h301l474 -1434h-345zM549 506h416l-152 528z" glyph-name="Abreve" horiz-adv-x="1619" unicode="Ă"/><glyph d="M641 1151q-168 0 -246 101.5t-59 242.5h196q-4 -61 29 -96t101 -35q145 0 165 131h197q-14 -147 -115.5 -245.5t-267.5 -98.5zM879 1065h323l-112 -1065h-324l12 98q-20 -39 -97 -78.5t-181 -39.5q-188 0 -334 129t-146 364q0 254 168 432t406 178q78 0 141.5 -26.5 t91 -51t35.5 -42.5zM573 264q37 0 78 13.5t85 44t73 94t29 151.5q0 109 -68 170.5t-164 61.5q-117 0 -191.5 -83t-74.5 -214q0 -115 64.5 -176.5t168.5 -61.5z" glyph-name="abreve" unicode="ă"/><glyph d="M1153 -225q-6 -47 48 -57.5t102 18.5l65 -146q-78 -43 -206 -47t-231.5 53.5t-90.5 174.5q8 82 83.5 137t227.5 96l-68 234h-675l-125 -238h-359l789 1434h301l495 -1438q-172 -45 -262 -104.5t-94 -116.5zM551 506h440l-164 528z" glyph-name="Aogonek" horiz-adv-x="1656" unicode="Ą"/><glyph d="M1096 -4q-207 -70 -252 -96q-76 -43 -76 -105q0 -53 53 -71.5t94 10.5l70 -144q-55 -31 -143 -40t-174 3.5t-148.5 62.5t-62.5 128q0 166 301 254l18 98q-25 -39 -99.5 -77.5t-176.5 -38.5q-209 0 -355.5 148t-119.5 421q18 170 112 296t213 182t244 56q78 0 141.5 -26.5 t91 -51t35.5 -42.5l17 102h323zM553 264q111 0 191.5 76t93.5 209q14 117 -44.5 183.5t-158.5 66.5q-115 0 -200 -75t-101 -206q-12 -119 51.5 -186.5t167.5 -67.5z" glyph-name="aogonek" horiz-adv-x="1304" unicode="ą"/><glyph d="M1270 1884l-301 -325h-248l153 325h396zM1235 147q-207 -168 -504 -167q-293 0 -488.5 185t-195.5 478q0 340 240.5 575.5t576.5 235.5q289 0 471 -176l-223 -215q-109 82 -248 82q-195 0 -336 -135.5t-143 -360.5q0 -160 109.5 -260t279.5 -100q156 0 287 102z" glyph-name="Cacute" horiz-adv-x="1388" unicode="Ć"/><glyph d="M1034 1516l-301 -326h-248l154 326h395zM629 1085q313 0 436 -260l-254 -108q-92 84 -193 84q-119 0 -201.5 -85t-82.5 -227q0 -109 64.5 -168t160.5 -59q16 0 31.5 1t30 5t24.5 7.5t24.5 10.5t21.5 10t21.5 13t18.5 13.5t19.5 15.5t19.5 14l244 -127 q-178 -246 -479 -245q-90 0 -178.5 30.5t-165 90t-124 160.5t-47.5 226q0 254 180.5 426t428.5 172z" glyph-name="cacute" horiz-adv-x="1157" unicode="ć"/><glyph d="M1020 1804l-29 -278h-297l29 278h297zM1235 147q-207 -168 -504 -167q-293 0 -488.5 185t-195.5 478q0 340 240.5 575.5t576.5 235.5q289 0 471 -176l-223 -215q-109 82 -248 82q-195 0 -336 -135.5t-143 -360.5q0 -160 109.5 -260t279.5 -100q156 0 287 102z" glyph-name="Cdotaccent" horiz-adv-x="1388" unicode="Ċ"/><glyph d="M784 1436l-28 -279h-297l28 279h297zM629 1085q313 0 436 -260l-254 -108q-92 84 -193 84q-119 0 -201.5 -85t-82.5 -227q0 -109 64.5 -168t160.5 -59q16 0 31.5 1t30 5t24.5 7.5t24.5 10.5t21.5 10t21.5 13t18.5 13.5t19.5 15.5t19.5 14l244 -127q-178 -246 -479 -245 q-90 0 -178.5 30.5t-165 90t-124 160.5t-47.5 226q0 254 180.5 426t428.5 172z" glyph-name="cdotaccent" horiz-adv-x="1157" unicode="ċ"/><glyph d="M791 1526l-238 317l109 92l208 -206l248 206l84 -92l-295 -317h-116zM1235 147q-207 -168 -504 -167q-293 0 -488.5 185t-195.5 478q0 340 240.5 575.5t576.5 235.5q289 0 471 -176l-223 -215q-109 82 -248 82q-195 0 -336 -135.5t-143 -360.5q0 -160 109.5 -260 t279.5 -100q156 0 287 102z" glyph-name="Ccaron" horiz-adv-x="1388" unicode="Č"/><glyph d="M555 1157l-238 318l109 92l209 -207l248 207l84 -92l-295 -318h-117zM629 1085q313 0 436 -260l-254 -108q-92 84 -193 84q-119 0 -201.5 -85t-82.5 -227q0 -109 64.5 -168t160.5 -59q16 0 31.5 1t30 5t24.5 7.5t24.5 10.5t21.5 10t21.5 13t18.5 13.5t19.5 15.5t19.5 14 l244 -127q-178 -246 -479 -245q-90 0 -178.5 30.5t-165 90t-124 160.5t-47.5 226q0 254 180.5 426t428.5 172z" glyph-name="ccaron" horiz-adv-x="1157" unicode="č"/><glyph d="M680 1526l-238 317l109 92l209 -206l248 206l84 -92l-295 -317h-117zM684 1434q303 0 494.5 -212t162.5 -509q-33 -299 -263 -506t-533 -207h-539l152 1434h526zM563 311q188 0 307 123t138 309q18 158 -72 268.5t-274 110.5h-207l-86 -811h194z" glyph-name="Dcaron" horiz-adv-x="1460" unicode="Ď"/><glyph d="M862 965l58 483h323l-153 -1448h-324l12 98q-20 -39 -97 -78.5t-181 -39.5q-188 0 -334 129t-146 364q0 254 168 433t406 179q109 0 180.5 -43.5t87.5 -76.5zM1466 1434h396l-301 -265h-254zM573 264q37 0 78 13.5t85 44t73 94t29 151.5q0 111 -68 172.5t-164 61.5 q-117 0 -191.5 -84t-74.5 -215q0 -115 64.5 -176.5t168.5 -61.5z" glyph-name="dcaron" horiz-adv-x="1777" unicode="ď"/><glyph d="M895 1434q301 0 493.5 -212t161.5 -509q-33 -299 -263 -506t-533 -207h-537l59 561h-118l26 273h119l66 600h526zM774 311q186 0 305 123t140 309q16 158 -74 268.5t-275 110.5h-206l-31 -288h186l-26 -273h-187l-26 -250h194z" glyph-name="Dcroat" horiz-adv-x="1669" unicode="Đ"/><glyph d="M1413 1378l-29 -266h-176l-118 -1112h-324l12 98q-20 -39 -97 -78.5t-181 -39.5q-188 0 -334 129t-146 364q0 254 168 433t406 179q109 0 180.5 -44t87.5 -76l19 147h-275l27 266h278l9 70h323l-8 -70h178zM573 264q37 0 78 13.5t85 44t73 94t29 151.5q0 111 -68 172.5 t-164 61.5q-117 0 -191.5 -84t-74.5 -215q0 -115 64.5 -176.5t168.5 -61.5z" glyph-name="dcroat" horiz-adv-x="1355" unicode="đ"/><glyph d="M1059 1802l-31 -266h-778l29 266h780zM369 303h587l-32 -303h-918l152 1434h899l-33 -304h-569l-25 -260h426l-33 -297h-428z" glyph-name="Emacron" horiz-adv-x="1126" unicode="Ē"/><glyph d="M1061 1434l-31 -267h-778l29 267h780zM631 1085q115 0 218 -46t180 -157.5t77 -271.5q0 -100 -23 -196h-751q49 -166 250 -166q33 0 63.5 3t48 6t44 13.5t32.5 12.5t36 16t32 16l155 -174q-168 -162 -436 -161q-211 0 -374 133t-163 366q0 252 183.5 429t427.5 177z M625 809q-182 0 -263 -168h465q-34 168 -202 168z" glyph-name="emacron" horiz-adv-x="1226" unicode="ē"/><glyph d="M815 1804l-29 -278h-297l29 278h297zM369 303h587l-32 -303h-918l152 1434h899l-33 -304h-569l-25 -260h426l-33 -297h-428z" glyph-name="Edotaccent" horiz-adv-x="1126" unicode="Ė"/><glyph d="M817 1436l-29 -279h-296l28 279h297zM631 1085q115 0 218 -46t180 -157.5t77 -271.5q0 -100 -23 -196h-751q49 -166 250 -166q33 0 63.5 3t48 6t44 13.5t32.5 12.5t36 16t32 16l155 -174q-168 -162 -436 -161q-211 0 -374 133t-163 366q0 252 183.5 429t427.5 177z M625 809q-182 0 -263 -168h465q-34 168 -202 168z" glyph-name="edotaccent" horiz-adv-x="1226" unicode="ė"/><glyph d="M930 -4q-162 -45 -241 -104.5t-85 -116.5q-6 -47 48.5 -57.5t101.5 18.5l65 -146q-78 -43 -206 -47t-231 53.5t-91 174.5q8 80 87 136t234 97l-317 -4h-289l152 1434h899l-33 -304h-569l-25 -260h426l-33 -297h-428l-26 -270h587z" glyph-name="Eogonek" horiz-adv-x="1128" unicode="Ę"/><glyph d="M627 1083q98 0 191 -36.5t172 -117.5t103.5 -208t-14.5 -307h-749q49 -162 239 -162q49 0 90 7t59.5 13.5t58.5 23.5t52 21l168 -184q-100 -90 -260 -135q-207 -61 -252 -86q-82 -43 -82 -109q0 -59 54.5 -78.5t95.5 9.5l70 -144q-55 -31 -143.5 -40t-174.5 3.5 t-148.5 61.5t-62.5 127q0 164 289 252q-170 51 -277.5 193.5t-85.5 357.5q18 170 123 298t232 184t252 56zM623 807q-80 0 -151 -43t-114 -123l465 12q-16 76 -72 115t-128 39z" glyph-name="eogonek" horiz-adv-x="1222" unicode="ę"/><glyph d="M586 1526l-238 317l109 92l209 -206l247 206l84 -92l-295 -317h-116zM369 303h587l-32 -303h-918l152 1434h899l-33 -304h-569l-25 -260h426l-33 -297h-428z" glyph-name="Ecaron" horiz-adv-x="1126" unicode="Ě"/><glyph d="M588 1157l-238 318l109 92l209 -207l247 207l84 -92l-294 -318h-117zM631 1085q115 0 218 -46t180 -157.5t77 -271.5q0 -100 -23 -196h-751q49 -166 250 -166q33 0 63.5 3t48 6t44 13.5t32.5 12.5t36 16t32 16l155 -174q-168 -162 -436 -161q-211 0 -374 133t-163 366 q0 252 183.5 429t427.5 177zM625 809q-182 0 -263 -168h465q-34 168 -202 168z" glyph-name="ecaron" horiz-adv-x="1226" unicode="ě"/><glyph d="M1194 1864q-14 -147 -115.5 -245.5t-267.5 -98.5q-168 0 -246 101t-59 243h196q-4 -61 29 -96t100 -35q145 0 166 131h197zM797 784h633q16 -365 -188 -584.5t-507 -219.5q-295 0 -491.5 185t-196.5 478q0 340 240.5 575.5t576.5 235.5q289 0 471 -176l-223 -215 q-109 82 -248 82q-195 0 -336 -135.5t-143 -360.5q0 -156 105.5 -258t271.5 -102q272 0 338 227h-332z" glyph-name="Gbreve" horiz-adv-x="1556" unicode="Ğ"/><glyph d="M664 1151q-168 0 -246 101.5t-60 242.5h197q-4 -61 28.5 -96t100.5 -35q145 0 166 131h197q-14 -147 -115.5 -245.5t-267.5 -98.5zM879 1065h323l-112 -1065q-12 -117 -74 -204t-152 -132t-183 -65.5t-187 -20.5q-180 0 -285 55l20 261q84 -47 269 -48q129 0 193.5 48.5 t74.5 105.5l12 98q-20 -39 -97 -78.5t-181 -39.5q-188 0 -334 129t-146 364q0 254 168 433t406 179q78 0 141.5 -26.5t91 -52t35.5 -43.5zM573 264q37 0 78 13.5t85 44t73 94t29 151.5q0 111 -68 172.5t-164 61.5q-117 0 -191.5 -84t-74.5 -215q0 -115 64.5 -176.5 t168.5 -61.5z" glyph-name="gbreve" unicode="ğ"/><glyph d="M1008 1804l-29 -278h-297l29 278h297zM797 784h633q16 -365 -188 -584.5t-507 -219.5q-295 0 -491.5 185t-196.5 478q0 340 240.5 575.5t576.5 235.5q289 0 471 -176l-223 -215q-109 82 -248 82q-195 0 -336 -135.5t-143 -360.5q0 -156 105.5 -258t271.5 -102 q272 0 338 227h-332z" glyph-name="Gdotaccent" horiz-adv-x="1556" unicode="Ġ"/><glyph d="M860 1436l-29 -279h-296l28 279h297zM879 1065h323l-112 -1065q-12 -117 -74 -204t-152 -132t-183 -65.5t-187 -20.5q-180 0 -285 55l20 261q84 -47 269 -48q129 0 193.5 48.5t74.5 105.5l12 98q-20 -39 -97 -78.5t-181 -39.5q-188 0 -334 129t-146 364q0 254 168 433 t406 179q78 0 141.5 -26.5t91 -52t35.5 -43.5zM573 264q37 0 78 13.5t85 44t73 94t29 151.5q0 111 -68 172.5t-164 61.5q-117 0 -191.5 -84t-74.5 -215q0 -115 64.5 -176.5t168.5 -61.5z" glyph-name="gdotaccent" unicode="ġ"/><glyph d="M797 784h633q16 -365 -188 -584.5t-507 -219.5q-295 0 -491.5 185t-196.5 478q0 340 240.5 575.5t576.5 235.5q289 0 471 -176l-223 -215q-109 82 -248 82q-195 0 -336 -135.5t-143 -360.5q0 -156 105.5 -258t271.5 -102q272 0 338 227h-332zM330 -555l149 504h428 l-278 -504h-299z" glyph-name="Gcommaaccent" horiz-adv-x="1556" unicode="Ģ"/><glyph d="M1032 1620l-149 -504h-428l278 504h299zM879 1065h323l-112 -1065q-12 -117 -74 -204t-152 -132t-183 -65.5t-187 -20.5q-180 0 -285 55l20 261q84 -47 269 -48q129 0 193.5 48.5t74.5 105.5l12 98q-20 -39 -97 -78.5t-181 -39.5q-188 0 -334 129t-146 364q0 254 168 433 t406 179q78 0 141.5 -26.5t91 -52t35.5 -43.5zM573 264q37 0 78 13.5t85 44t73 94t29 151.5q0 111 -68 172.5t-164 61.5q-117 0 -191.5 -84t-74.5 -215q0 -115 64.5 -176.5t168.5 -61.5z" glyph-name="gcommaaccent" unicode="ģ"/><glyph d="M1030 1434h330l-152 -1434h-329l57 567h-543l-57 -567h-330l152 1434h329l-16 -138h543zM428 870h541l16 123h-543z" glyph-name="Hbar" horiz-adv-x="1439" unicode="Ħ"/><glyph d="M780 1085q168 0 275.5 -119.5t81.5 -359.5l-66 -606h-323l63 592q25 211 -149 211q-98 0 -168 -68.5t-82 -120.5l-72 -614h-324l119 1126h-125l17 170h127l16 152h324l-17 -152h268l-16 -170h-270l-27 -239q27 61 121 129.5t227 68.5z" glyph-name="hbar" horiz-adv-x="1284" unicode="ħ"/><glyph d="M197 1911q82 0 204.5 -72t165.5 -72q31 0 64 12.5t35 28.5l116 -12q-12 -119 -82.5 -201t-189.5 -82q-82 0 -209 84t-172 84q-27 0 -60.5 -18t-35.5 -43l-115 12q14 121 83 200t196 79zM487 1434l-151 -1434h-330l152 1434h329z" glyph-name="Itilde" horiz-adv-x="567" unicode="Ĩ"/><glyph d="M133 1542q82 0 205 -71.5t166 -71.5q29 0 62.5 12t35.5 29l117 -13q-12 -119 -83 -200.5t-190 -81.5q-82 0 -208.5 84t-171.5 84q-27 0 -61 -18.5t-36 -43.5l-114 13q14 121 82.5 199.5t195.5 78.5zM424 1065l-113 -1065h-323l112 1065h324z" glyph-name="itilde" horiz-adv-x="522" unicode="ĩ"/><glyph d="M754 1802l-31 -266h-778l28 266h781zM487 1434l-151 -1434h-330l152 1434h329z" glyph-name="Imacron" horiz-adv-x="567" unicode="Ī"/><glyph d="M690 1434l-31 -267h-778l29 267h780zM424 1065l-113 -1065h-323l112 1065h324z" glyph-name="imacron" horiz-adv-x="522" unicode="ī"/><glyph d="M358 -4q-170 -45 -255 -104.5t-89 -116.5q-6 -47 48.5 -57.5t101.5 18.5l65 -146q-78 -43 -205.5 -47t-231 53.5t-91.5 174.5q16 154 317 233l156 1430h330z" glyph-name="Iogonek" horiz-adv-x="587" unicode="Į"/><glyph d="M137 1434h336l-29 -267h-335zM-14 4l118 1061h324l-106 -1069q-330 -80 -345 -221q-6 -47 48.5 -57.5t99.5 18.5l65 -146q-78 -43 -205.5 -47t-231 53.5t-91.5 174.5q19 155 324 233z" glyph-name="iogonek" horiz-adv-x="532" unicode="į"/><glyph d="M510 1804l-29 -278h-297l29 278h297zM487 1434l-151 -1434h-330l152 1434h329z" glyph-name="Idotaccent" horiz-adv-x="567" unicode="İ"/><glyph d="M424 1065l-113 -1065h-323l112 1065h324z" glyph-name="dotlessi" horiz-adv-x="522" unicode="ı"/><glyph d="M487 1434l-151 -1434h-330l152 1434h329zM1649 1434l-101 -955q-14 -135 -75.5 -237.5t-148.5 -157.5t-172 -82t-165 -27q-293 0 -448 205l217 232q100 -119 221 -119q31 0 63.5 9t73.5 31.5t72 75t39 128.5l94 897h330z" glyph-name="IJ" horiz-adv-x="1728" unicode="Ĳ"/><glyph d="M465 1448l-29 -272h-323l28 272h324zM1032 1448l-28 -272h-324l29 272h323zM424 1065l-113 -1065h-323l112 1065h324zM991 1065l-123 -1165q-16 -158 -111 -240t-245 -82q-137 0 -240 55l19 310q68 -33 145 -33q63 0 90 35t31 75l111 1045h323z" glyph-name="ij" horiz-adv-x="1089" unicode="ĳ"/><glyph d="M926 0l-353 602l-192 -196l-45 -406h-330l152 1434h329l-65 -588l553 588h411l-589 -605l499 -829h-370zM313 -555l150 504h428l-279 -504h-299z" glyph-name="Kcommaaccent" horiz-adv-x="1464" unicode="Ķ"/><glyph d="M729 0l-297 414l-80 -70l-41 -344h-323l153 1448h324l-80 -713l336 330h395l-471 -438l445 -627h-361zM158 -555l149 504h428l-278 -504h-299z" glyph-name="kcommaaccent" horiz-adv-x="1226" unicode="ķ"/><glyph d="M752 1884l-301 -325h-248l153 325h396zM369 303h544l-32 -303h-875l152 1434h329z" glyph-name="Lacute" horiz-adv-x="1060" unicode="Ĺ"/><glyph d="M739 1817l-301 -265h-256l162 265h395zM465 1448l-154 -1448h-323l153 1448h324z" glyph-name="lacute" horiz-adv-x="528" unicode="ĺ"/><glyph d="M369 303h544l-32 -303h-875l152 1434h329zM74 -555l149 504h428l-278 -504h-299z" glyph-name="Lcommaaccent" horiz-adv-x="1060" unicode="Ļ"/><glyph d="M469 1448l-154 -1448h-323l153 1448h324zM-205 -555l148 504h430l-279 -504h-299z" glyph-name="lcommaaccent" horiz-adv-x="585" unicode="ļ"/><glyph d="M369 303h544l-32 -303h-875l152 1434h329zM1092 1430l-271 -570h-278l262 570h287z" glyph-name="Lcaron" horiz-adv-x="1060" unicode="Ľ"/><glyph d="M465 1448l-154 -1448h-323l153 1448h324zM502 862l262 572h276l-249 -572h-289z" glyph-name="lcaron" horiz-adv-x="1030" unicode="ľ"/><glyph d="M369 303h544l-32 -303h-875l152 1434h329zM844 565q-78 0 -131.5 58.5t-44.5 138.5q10 68 65 118t123 50q80 0 132 -58.5t44 -140.5q-10 -68 -65 -117t-123 -49z" glyph-name="Ldot" horiz-adv-x="1060" unicode="Ŀ"/><glyph d="M465 1448l-154 -1448h-323l153 1448h324zM694 559q-78 0 -130 59.5t-44 139.5q8 68 63.5 118t125.5 50q78 0 130 -58.5t44 -140.5q-8 -68 -64.5 -118t-124.5 -50z" glyph-name="ldot" horiz-adv-x="970" unicode="ŀ"/><glyph d="M487 303h545l-33 -303h-874l45 387l-139 -133l26 326l140 131l79 723h330l-43 -375l158 149h6l-31 -321l-161 -154z" glyph-name="Lslash" horiz-adv-x="1179" unicode="Ł"/><glyph d="M608 1180l-30 -324l-113 -108l-84 -748h-326l49 406l-120 -113l26 325l121 111l78 719h326l-43 -375l110 107h6z" glyph-name="lslash" horiz-adv-x="657" unicode="ł"/><glyph d="M1223 1884l-301 -325h-248l153 325h396zM1081 1434h330l-151 -1434h-248l-584 836l-92 -836h-330l152 1434h252l579 -836z" glyph-name="Nacute" horiz-adv-x="1490" unicode="Ń"/><glyph d="M1051 1516l-301 -326h-248l153 326h396zM752 1085q168 0 275.5 -119.5t80.5 -359.5l-66 -606h-323l63 592q25 211 -149 211q-98 0 -168 -68.5t-82 -120.5l-72 -614h-323l112 1065h324l-21 -178q27 61 121.5 129.5t227.5 68.5z" glyph-name="nacute" horiz-adv-x="1255" unicode="ń"/><glyph d="M1081 1434h330l-151 -1434h-248l-584 836l-92 -836h-330l152 1434h252l579 -836zM276 -555l150 504h428l-279 -504h-299z" glyph-name="Ncommaaccent" horiz-adv-x="1490" unicode="Ņ"/><glyph d="M752 1085q168 0 275.5 -119.5t80.5 -359.5l-66 -606h-323l63 592q25 211 -149 211q-98 0 -168 -68.5t-82 -120.5l-72 -614h-323l112 1065h324l-21 -178q27 61 121.5 129.5t227.5 68.5zM143 -555l150 504h428l-279 -504h-299z" glyph-name="ncommaaccent" horiz-adv-x="1255" unicode="ņ"/><glyph d="M743 1526l-237 317l108 92l209 -206l248 206l84 -92l-295 -317h-117zM1081 1434h330l-151 -1434h-248l-584 836l-92 -836h-330l152 1434h252l579 -836z" glyph-name="Ncaron" horiz-adv-x="1490" unicode="Ň"/><glyph d="M571 1157l-237 318l108 92l209 -207l248 207l84 -92l-295 -318h-117zM752 1085q168 0 275.5 -119.5t80.5 -359.5l-66 -606h-323l63 592q25 211 -149 211q-98 0 -168 -68.5t-82 -120.5l-72 -614h-323l112 1065h324l-21 -178q27 61 121.5 129.5t227.5 68.5z" glyph-name="ncaron" horiz-adv-x="1255" unicode="ň"/><glyph d="M1075 1434h336l-137 -1313l-6 -47q-14 -135 -76 -237.5t-149 -158t-172 -82t-164 -26.5q-289 0 -445 205l213 231q111 -119 223 -119q43 0 85 12.5t94.5 65.5t68.5 141l-518 730l-92 -836h-330l152 1434h252l579 -836z" glyph-name="Eng" horiz-adv-x="1490" unicode="Ŋ"/><glyph d="M743 1081q172 0 281 -119.5t84 -355.5l-66 -606l-10 -100q-16 -158 -111.5 -240t-244.5 -82q-137 0 -240 55l19 310q68 -33 147 -33q61 0 88 35t31 75v3l61 569q12 117 -17.5 163t-105.5 46q-100 0 -175.5 -71t-104.5 -138l-68 -592h-323l112 1065h324l-21 -178 q29 59 121 126.5t219 67.5z" glyph-name="eng" horiz-adv-x="1255" unicode="ŋ"/><glyph d="M1296 1802l-30 -266h-779l29 266h780zM860 1454q293 0 488.5 -186.5t195.5 -481.5q0 -223 -111.5 -409.5t-299 -291.5t-406.5 -105q-293 0 -486.5 184t-193.5 479q0 340 239.5 575.5t573.5 235.5zM748 289q174 0 313 128t139 343q0 170 -101.5 277.5t-258.5 107.5 q-176 0 -312.5 -129t-136.5 -348q0 -166 99.5 -272.5t257.5 -106.5z" glyph-name="Omacron" horiz-adv-x="1665" unicode="Ō"/><glyph d="M1071 1434l-31 -267h-778l29 267h780zM631 1085q92 0 181 -31.5t166 -93t124 -162t47 -223.5q0 -254 -179 -424.5t-431 -170.5q-199 0 -359 135t-160 372q0 254 179.5 426t431.5 172zM555 264q119 0 200 82t81 219q0 113 -68 174.5t-154 61.5q-119 0 -199.5 -82 t-80.5 -221q0 -111 67.5 -172.5t153.5 -61.5z" glyph-name="omacron" horiz-adv-x="1269" unicode="ō"/><glyph d="M1049 1839l-261 -280h-247l153 325h770l-301 -325h-248zM860 1454q293 0 488.5 -186.5t195.5 -481.5q0 -223 -111.5 -409.5t-299 -291.5t-406.5 -105q-293 0 -486.5 184t-193.5 479q0 340 239.5 575.5t573.5 235.5zM748 289q174 0 313 128t139 343q0 170 -101.5 277.5 t-258.5 107.5q-176 0 -312.5 -129t-136.5 -348q0 -166 99.5 -272.5t257.5 -106.5z" glyph-name="Ohungarumlaut" horiz-adv-x="1665" unicode="Ő"/><glyph d="M823 1470l-260 -280h-248l154 326h770l-301 -326h-248zM631 1085q92 0 181 -31.5t166 -93t124 -162t47 -223.5q0 -254 -179 -424.5t-431 -170.5q-199 0 -359 135t-160 372q0 254 179.5 426t431.5 172zM555 264q119 0 200 82t81 219q0 113 -68 174.5t-154 61.5 q-119 0 -199.5 -82t-80.5 -221q0 -111 67.5 -172.5t153.5 -61.5z" glyph-name="ohungarumlaut" horiz-adv-x="1269" unicode="ő"/><glyph d="M1497 303h590l-33 -303h-919l12 47q-184 -68 -420 -67q-315 0 -514 213t-162 540q33 313 267.5 517t541.5 204q217 0 412 -80l14 60h901l-33 -304h-571l-24 -260h426l-33 -297h-426zM737 289q152 0 299.5 130t167.5 314q14 168 -97.5 290t-256.5 122q-178 0 -308 -126 t-151 -319q-20 -178 78 -294.5t268 -116.5z" glyph-name="OE" horiz-adv-x="2254" unicode="Œ"/><glyph d="M1917 610q0 -100 -23 -196h-751q49 -166 250 -166q33 0 63.5 3t48 6t44 13.5t32.5 12.5t36 16t32 16l155 -174q-168 -162 -436 -161q-248 0 -405 163q-180 -164 -424 -163q-199 0 -359 135t-160 372q0 254 179.5 426t431.5 172q238 0 393 -170q176 170 418 170 q115 0 218 -46t180 -157.5t77 -271.5zM1174 641h464q-35 168 -202 168q-182 0 -262 -168zM555 264q106 0 185 68.5t94 185.5q0 16 2 25v22q0 113 -68 174.5t-154 61.5q-119 0 -199.5 -82t-80.5 -221q0 -111 67.5 -172.5t153.5 -61.5z" glyph-name="oe" horiz-adv-x="2037" unicode="œ"/><glyph d="M1071 1884l-301 -325h-248l154 325h395zM1149 0h-340l-240 469h-184l-49 -469h-330l152 1434h504q242 0 377 -139.5t108 -370.5q-29 -276 -275 -402zM416 750h151q236 0 254 204q12 94 -42 135t-161 41h-163z" glyph-name="Racute" horiz-adv-x="1337" unicode="Ŕ"/><glyph d="M899 1516l-301 -326h-248l154 326h395zM774 1083q45 0 96 -10l-32 -305q-27 6 -70 6q-152 0 -267.5 -99.5t-142.5 -246.5l-47 -428h-323l112 1065h324l-31 -250q53 125 152.5 196.5t228.5 71.5z" glyph-name="racute" horiz-adv-x="905" unicode="ŕ"/><glyph d="M1149 0h-340l-240 469h-184l-49 -469h-330l152 1434h504q242 0 377 -139.5t108 -370.5q-29 -276 -275 -402zM416 750h151q236 0 254 204q12 94 -42 135t-161 41h-163zM182 -555l150 504h428l-279 -504h-299z" glyph-name="Rcommaaccent" horiz-adv-x="1337" unicode="Ŗ"/><glyph d="M774 1083q45 0 96 -10l-32 -305q-27 6 -70 6q-152 0 -267.5 -99.5t-142.5 -246.5l-47 -428h-323l112 1065h324l-31 -250q53 125 152.5 196.5t228.5 71.5zM-213 -555l147 504h431l-281 -504h-297z" glyph-name="rcommaaccent" horiz-adv-x="905" unicode="ŗ"/><glyph d="M592 1526l-238 317l109 92l209 -206l248 206l84 -92l-295 -317h-117zM1149 0h-340l-240 469h-184l-49 -469h-330l152 1434h504q242 0 377 -139.5t108 -370.5q-29 -276 -275 -402zM416 750h151q236 0 254 204q12 94 -42 135t-161 41h-163z" glyph-name="Rcaron" horiz-adv-x="1337" unicode="Ř"/><glyph d="M420 1157l-238 318l109 92l209 -207l248 207l83 -92l-294 -318h-117zM774 1083q45 0 96 -10l-32 -305q-27 6 -70 6q-152 0 -267.5 -99.5t-142.5 -246.5l-47 -428h-323l112 1065h324l-31 -250q53 125 152.5 196.5t228.5 71.5z" glyph-name="rcaron" horiz-adv-x="905" unicode="ř"/><glyph d="M1071 1884l-301 -325h-248l154 325h395zM625 1458q319 0 475 -301l-256 -135q-53 78 -108.5 111.5t-135.5 33.5q-70 0 -119 -35.5t-49 -97.5q0 -55 28.5 -83.5t100.5 -55.5l92 -33q215 -80 311.5 -182t96.5 -238q0 -219 -174 -346t-393 -127q-190 0 -327.5 102.5 t-178.5 258.5l262 125q78 -188 254 -189q94 0 155.5 43t61.5 129q0 51 -38 84t-140 72l-80 31q-166 59 -259 148t-93 249q0 135 78.5 237.5t193.5 150.5t242 48z" glyph-name="Sacute" horiz-adv-x="1185" unicode="Ś"/><glyph d="M901 1516l-301 -326h-248l154 326h395zM580 737q-37 92 -115 92q-43 0 -68.5 -23.5t-25.5 -53.5q0 -45 61 -72l129 -47q53 -20 81 -32.5t72 -38t66.5 -53.5t40 -71t17.5 -96q0 -170 -135.5 -266t-321.5 -96q-160 0 -277.5 82.5t-138.5 222.5l260 67q39 -119 160 -119 q61 0 96 27t35 62q0 49 -53 67l-121 45q-287 104 -287 318q0 145 118 239t288 94q156 0 254 -77.5t133 -210.5z" glyph-name="sacute" horiz-adv-x="972" unicode="ś"/><glyph d="M653 862q215 -80 311.5 -182t96.5 -238q0 -186 -128 -307t-315 -153l-90 -66q178 -53 179 -180q0 -84 -74 -135.5t-179.5 -56.5t-222.5 22l29 72q100 -20 159.5 8t59.5 84q0 53 -44 74.5t-95 -11.5l-98 90l96 107q-133 37 -225.5 128t-124.5 212l262 125 q78 -188 254 -189q94 0 155.5 43t61.5 129q0 51 -38 84t-140 72l-80 31q-166 59 -259 148t-93 249q0 135 78.5 237.5t193.5 150.5t242 48q319 0 475 -301l-256 -135q-53 78 -108.5 111.5t-135.5 33.5q-70 0 -119 -35.5t-49 -97.5q0 -55 28.5 -83.5t100.5 -55.5z" glyph-name="Scedilla" horiz-adv-x="1185" unicode="Ş"/><glyph d="M561 633q53 -20 81 -32.5t72 -38t66.5 -53.5t40 -71t17.5 -96q0 -129 -83 -217t-214 -125h18l-117 -84q178 -53 179 -180q0 -84 -74 -135.5t-179.5 -56.5t-222.5 22l29 72q100 -20 159.5 8t59.5 84q0 53 -44 74.5t-95 -11.5l-98 90l100 111q-117 29 -196.5 105.5 t-94.5 185.5l260 67q39 -119 160 -119q61 0 96 27t35 62q0 49 -53 67l-121 45q-287 104 -287 318q0 145 118 239t288 94q156 0 254 -77.5t133 -210.5l-268 -60q-37 92 -115 92q-43 0 -68.5 -23.5t-25.5 -53.5q0 -45 61 -72z" glyph-name="scedilla" horiz-adv-x="972" unicode="ş"/><glyph d="M592 1526l-238 317l109 92l209 -206l248 206l84 -92l-295 -317h-117zM625 1458q319 0 475 -301l-256 -135q-53 78 -108.5 111.5t-135.5 33.5q-70 0 -119 -35.5t-49 -97.5q0 -55 28.5 -83.5t100.5 -55.5l92 -33q215 -80 311.5 -182t96.5 -238q0 -219 -174 -346t-393 -127 q-190 0 -327.5 102.5t-178.5 258.5l262 125q78 -188 254 -189q94 0 155.5 43t61.5 129q0 51 -38 84t-140 72l-80 31q-166 59 -259 148t-93 249q0 135 78.5 237.5t193.5 150.5t242 48z" glyph-name="Scaron" horiz-adv-x="1185" unicode="Š"/><glyph d="M422 1157l-238 318l109 92l209 -207l248 207l84 -92l-295 -318h-117zM580 737q-37 92 -115 92q-43 0 -68.5 -23.5t-25.5 -53.5q0 -45 61 -72l129 -47q53 -20 81 -32.5t72 -38t66.5 -53.5t40 -71t17.5 -96q0 -170 -135.5 -266t-321.5 -96q-160 0 -277.5 82.5t-138.5 222.5 l260 67q39 -119 160 -119q61 0 96 27t35 62q0 49 -53 67l-121 45q-287 104 -287 318q0 145 118 239t288 94q156 0 254 -77.5t133 -210.5z" glyph-name="scaron" horiz-adv-x="972" unicode="š"/><glyph d="M129 1434h1006l-33 -304h-338l-119 -1130h10l-116 -84q178 -53 178 -180q0 -84 -74 -135.5t-179.5 -56.5t-221.5 22l28 72q100 -20 159.5 8t59.5 84q0 53 -44 74.5t-95 -11.5l-98 90l106 117h-43l119 1130h-338z" glyph-name="Tcommaaccent" horiz-adv-x="1173" unicode="Ţ"/><glyph d="M494 799l-43 -422q-10 -106 71 -107q53 0 154 15l-21 -262q-25 -10 -77 -23l-117 -84q178 -53 178 -180q0 -84 -73.5 -135.5t-179 -56.5t-222.5 22l29 72q100 -20 159.5 8t59.5 84q0 53 -44 74.5t-96 -11.5l-98 90l107 117h30q-219 53 -184 389l41 410h-148l25 266h150 l26 250h324l-27 -250h227l-26 -266h-225z" glyph-name="tcommaaccent" horiz-adv-x="811" unicode="ţ"/><glyph d="M590 1526l-238 317l109 92l209 -206l248 206l83 -92l-294 -317h-117zM1135 1434l-33 -304h-338l-119 -1130h-330l119 1130h-338l33 304h1006z" glyph-name="Tcaron" horiz-adv-x="1173" unicode="Ť"/><glyph d="M1348 1657l-443 -490l-217 -102h57l-26 -266h-225l-43 -422q-10 -106 71 -107q53 0 154 15l-21 -262q-86 -35 -229 -35q-158 0 -241 87t-58 314l41 410h-148l25 266h150l26 250h324l-17 -162l123 279z" glyph-name="tcaron" horiz-adv-x="1169" unicode="ť"/><glyph d="M1102 1130h-338l-10 -104h225l-35 -301h-223l-76 -725h-330l76 725h-229l37 301h225l10 104h-338l33 304h1006z" glyph-name="Tbar" horiz-adv-x="1173" unicode="Ŧ"/><glyph d="M719 799h-225l-17 -144h219l-30 -266h-220v-20q-12 -98 66 -99q63 0 150 23l-17 -273q-78 -33 -223 -32q-160 0 -241 84t-58 309v8h-150l31 266h148l16 144h-148l25 266h150l26 250h324l-27 -250h227z" glyph-name="tbar" horiz-adv-x="811" unicode="ŧ"/><glyph d="M586 1911q82 0 204.5 -72t165.5 -72q31 0 64 12.5t35 28.5l116 -12q-12 -119 -82.5 -201t-189.5 -82q-82 0 -209 84t-172 84q-27 0 -60.5 -18t-35.5 -43l-115 12q14 121 83 200t196 79zM944 1434h330l-96 -920q-27 -252 -201 -398.5t-408 -146.5q-242 0 -392 152.5 t-124 404.5l97 908h329l-96 -922q-14 -131 46 -182t151 -51q98 0 177 56t91 189z" glyph-name="Utilde" horiz-adv-x="1353" unicode="Ũ"/><glyph d="M500 1542q82 0 204.5 -71.5t165.5 -71.5q31 0 64 12t35 29l116 -13q-12 -119 -82.5 -200.5t-189.5 -81.5q-82 0 -209 84t-172 84q-27 0 -60.5 -18.5t-35.5 -43.5l-115 13q14 121 83 199.5t196 78.5zM395 -20q-168 0 -276.5 120.5t-83.5 358.5l61 606h324l-62 -592 q-23 -211 158 -211q100 0 160.5 67.5t83.5 145.5l67 590h324l-113 -1065h-323l24 184q-33 -68 -122 -136t-222 -68z" glyph-name="utilde" horiz-adv-x="1249" unicode="ũ"/><glyph d="M1143 1802l-31 -266h-778l28 266h781zM944 1434h330l-96 -920q-27 -252 -201 -398.5t-408 -146.5q-242 0 -392 152.5t-124 404.5l97 908h329l-96 -922q-14 -131 46 -182t151 -51q98 0 177 56t91 189z" glyph-name="Umacron" horiz-adv-x="1353" unicode="Ū"/><glyph d="M1057 1434l-31 -267h-778l28 267h781zM395 -20q-168 0 -276.5 120.5t-83.5 358.5l61 606h324l-62 -592q-23 -211 158 -211q100 0 160.5 67.5t83.5 145.5l67 590h324l-113 -1065h-323l24 184q-33 -68 -122 -136t-222 -68z" glyph-name="umacron" horiz-adv-x="1249" unicode="ū"/><glyph d="M999 1495q-14 -147 -115.5 -245.5t-267.5 -98.5q-168 0 -245.5 101.5t-59.5 242.5h197q-4 -61 28.5 -96t100.5 -35q145 0 166 131h196zM395 -20q-168 0 -276.5 120.5t-83.5 358.5l61 606h324l-62 -592q-23 -211 158 -211q100 0 160.5 67.5t83.5 145.5l67 590h324 l-113 -1065h-323l24 184q-33 -68 -122 -136t-222 -68z" glyph-name="ubreve" horiz-adv-x="1249" unicode="ŭ"/><glyph d="M764 2040q94 0 161.5 -66.5t67.5 -161.5q0 -102 -77.5 -180t-182.5 -78q-98 0 -164.5 67t-66.5 163q0 102 78 179t184 77zM752 1847q-49 0 -50 -55q0 -12 12.5 -24.5t28.5 -12.5q23 0 37.5 16.5t14.5 38.5q0 14 -14.5 25.5t-28.5 11.5zM944 1434h330l-96 -920 q-27 -252 -201 -398.5t-408 -146.5q-242 0 -392 152.5t-124 404.5l97 908h329l-96 -922q-14 -131 46 -182t151 -51q98 0 177 56t91 189z" glyph-name="Uring" horiz-adv-x="1353" unicode="Ů"/><glyph d="M678 1671q94 0 161.5 -66.5t67.5 -160.5q0 -102 -77.5 -180t-182.5 -78q-98 0 -164.5 66.5t-66.5 162.5q0 102 78 179t184 77zM666 1479q-49 0 -50 -56q0 -12 12.5 -24.5t28.5 -12.5q23 0 37.5 16.5t14.5 39.5q0 14 -14.5 25.5t-28.5 11.5zM395 -20q-168 0 -276.5 120.5 t-83.5 358.5l61 606h324l-62 -592q-23 -211 158 -211q100 0 160.5 67.5t83.5 145.5l67 590h324l-113 -1065h-323l24 184q-33 -68 -122 -136t-222 -68z" glyph-name="uring" horiz-adv-x="1249" unicode="ů"/><glyph d="M895 1839l-260 -280h-248l154 325h770l-301 -325h-248zM848 524l96 910h330l-96 -920q-27 -252 -201 -398.5t-408 -146.5q-242 0 -392 152.5t-124 404.5l97 908h329l-96 -922q-14 -131 46 -182t151 -51q98 0 177 56t91 189z" glyph-name="Uhungarumlaut" horiz-adv-x="1353" unicode="Ű"/><glyph d="M809 1470l-260 -280h-248l154 326h770l-301 -326h-248zM760 475l67 590h324l-113 -1065h-323l24 184q-33 -68 -122 -136t-222 -68q-168 0 -276.5 120.5t-83.5 358.5l61 606h324l-62 -592q-23 -211 158 -211q100 0 160.5 67.5t83.5 145.5z" glyph-name="uhungarumlaut" horiz-adv-x="1249" unicode="ű"/><glyph d="M944 1434h330l-96 -920q-23 -197 -134.5 -331t-277.5 -189q-205 -72 -217 -182q-6 -45 48 -55.5t99 16.5l68 -144q-55 -31 -147.5 -41t-181.5 5.5t-149.5 71.5t-49.5 145q8 104 163 174q-168 49 -267 193.5t-79 348.5l97 908h329l-96 -922q-14 -131 46 -182t151 -51 q98 0 177 56t91 189z" glyph-name="Uogonek" horiz-adv-x="1353" unicode="Ų"/><glyph d="M776 -195q0 -53 52.5 -71.5t93.5 6.5l65 -150q-68 -29 -158 -34t-172 14.5t-139 73t-57 129.5q0 90 72.5 155.5t175.5 71.5l30 178q-35 -61 -125 -127.5t-217 -66.5q-170 0 -278.5 119.5t-83.5 355.5l61 606h324l-62 -592q-12 -117 16.5 -162t104.5 -45q100 0 177 71 t104 136l67 592h324l-107 -1069q-109 -23 -188.5 -76.5t-79.5 -114.5z" glyph-name="uogonek" horiz-adv-x="1253" unicode="ų"/><glyph d="M1223 1935l237 -317l-108 -92l-209 207l-248 -207l-84 92l295 317h117zM2146 1434l-624 -1434h-240l-235 862l-402 -862h-239l-322 1434h342l172 -805l377 805h262l213 -805l342 805h354z" glyph-name="Wcircumflex" horiz-adv-x="2144" unicode="Ŵ"/><glyph d="M1065 1567l238 -318l-109 -92l-209 207l-248 -207l-84 92l295 318h117zM1552 1069h330l-485 -1069h-314l-155 690l-299 -690h-312l-262 1069h316l143 -684l307 684h281l170 -684z" glyph-name="wcircumflex" horiz-adv-x="1929" unicode="ŵ"/><glyph d="M926 1935l237 -317l-108 -92l-209 207l-248 -207l-84 92l295 317h117zM1530 1434l-637 -836l-68 -598h-329l67 598l-459 836h365l283 -537l397 537h381z" glyph-name="Ycircumflex" horiz-adv-x="1548" unicode="Ŷ"/><glyph d="M698 1364l-247 -207l-84 92l295 318h116l238 -318l-109 -92zM967 1069h327l-805 -1458h-329l246 430l-351 1028h316l229 -684z" glyph-name="ycircumflex" horiz-adv-x="1341" unicode="ŷ"/><glyph d="M756 1804l-29 -278h-297l29 278h297zM1262 1804l-31 -278h-297l29 278h299zM1530 1434l-637 -836l-68 -598h-329l67 598l-459 836h365l283 -537l397 537h381z" glyph-name="Ydieresis" horiz-adv-x="1548" unicode="Ÿ"/><glyph d="M1079 1884l-301 -325h-248l154 325h395zM1264 1434l-752 -1151h633l-29 -283h-1161l750 1151h-590l30 283h1119z" glyph-name="Zacute" horiz-adv-x="1292" unicode="Ź"/><glyph d="M1026 1516l-301 -326h-248l154 326h395zM1083 1065l-596 -782h476l-31 -283h-998l596 782h-462l30 283h985z" glyph-name="zacute" horiz-adv-x="1130" unicode="ź"/><glyph d="M829 1804l-28 -278h-297l28 278h297zM1264 1434l-752 -1151h633l-29 -283h-1161l750 1151h-590l30 283h1119z" glyph-name="Zdotaccent" horiz-adv-x="1292" unicode="Ż"/><glyph d="M776 1436l-28 -279h-297l28 279h297zM1083 1065l-596 -782h476l-31 -283h-998l596 782h-462l30 283h985z" glyph-name="zdotaccent" horiz-adv-x="1130" unicode="ż"/><glyph d="M600 1526l-238 317l109 92l209 -206l248 206l84 -92l-295 -317h-117zM1264 1434l-752 -1151h633l-29 -283h-1161l750 1151h-590l30 283h1119z" glyph-name="Zcaron" horiz-adv-x="1292" unicode="Ž"/><glyph d="M547 1157l-238 318l109 92l209 -207l247 207l84 -92l-294 -318h-117zM1083 1065l-596 -782h476l-31 -283h-998l596 782h-462l30 283h985z" glyph-name="zcaron" horiz-adv-x="1130" unicode="ž"/><glyph d="M643 1217q-45 0 -73.5 -11.5t-43 -43.5t-18.5 -52t-8 -70q-2 -12 -2 -18l6 43h119l-31 -274h-119l-84 -830q-23 -197 -126 -273.5t-355 -76.5l16 283q47 0 74 6t41 28.5t17 39t7 61.5l3 18l77 744h-133l29 274h135l6 45q18 203 126 295t356 92z" glyph-name="florin" horiz-adv-x="675" unicode="ƒ"/><glyph d="M811 1526l-238 317l109 92l209 -206l248 206l84 -92l-295 -317h-117zM1128 0l-73 238h-649l-125 -238h-357l774 1434h301l474 -1434h-345zM549 506h416l-152 528z" glyph-name="uni01CD" horiz-adv-x="1619" unicode="Ǎ"/><glyph d="M725 1157h-117l-237 318l108 92l209 -207l248 207l84 -92zM879 1065h323l-112 -1065h-324l12 98q-20 -39 -97 -78.5t-181 -39.5q-188 0 -334 129t-146 364q0 254 168 432t406 178q78 0 141.5 -26.5t91 -51t35.5 -42.5zM573 264q37 0 78 13.5t85 44t73 94t29 151.5 q0 109 -68 170.5t-164 61.5q-117 0 -191.5 -83t-74.5 -214q0 -115 64.5 -176.5t168.5 -61.5z" glyph-name="uni01CE" unicode="ǎ"/><glyph d="M281 1526l-238 317l109 92l208 -206l248 206l84 -92l-295 -317h-116zM487 1434l-151 -1434h-330l152 1434h329z" glyph-name="uni01CF" horiz-adv-x="567" unicode="Ǐ"/><glyph d="M217 1157l-237 318l108 92l209 -207l248 207l84 -92l-295 -318h-117zM424 1065l-113 -1065h-323l112 1065h324z" glyph-name="uni01D0" horiz-adv-x="522" unicode="ǐ"/><glyph d="M823 1526l-237 317l108 92l209 -206l248 206l84 -92l-295 -317h-117zM860 1454q293 0 488.5 -186.5t195.5 -481.5q0 -223 -111.5 -409.5t-299 -291.5t-406.5 -105q-293 0 -486.5 184t-193.5 479q0 340 239.5 575.5t573.5 235.5zM748 289q174 0 313 128t139 343 q0 170 -101.5 277.5t-258.5 107.5q-176 0 -312.5 -129t-136.5 -348q0 -166 99.5 -272.5t257.5 -106.5z" glyph-name="uni01D1" horiz-adv-x="1665" unicode="Ǒ"/><glyph d="M598 1157l-238 318l109 92l209 -207l248 207l84 -92l-295 -318h-117zM631 1085q92 0 181 -31.5t166 -93t124 -162t47 -223.5q0 -254 -179 -424.5t-431 -170.5q-199 0 -359 135t-160 372q0 254 179.5 426t431.5 172zM555 264q119 0 200 82t81 219q0 113 -68 174.5 t-154 61.5q-119 0 -199.5 -82t-80.5 -221q0 -111 67.5 -172.5t153.5 -61.5z" glyph-name="uni01D2" horiz-adv-x="1269" unicode="ǒ"/><glyph d="M670 1526l-238 317l109 92l209 -206l247 206l84 -92l-295 -317h-116zM944 1434h330l-96 -920q-27 -252 -201 -398.5t-408 -146.5q-242 0 -392 152.5t-124 404.5l97 908h329l-96 -922q-14 -131 46 -182t151 -51q98 0 177 56t91 189z" glyph-name="uni01D3" horiz-adv-x="1353" unicode="Ǔ"/><glyph d="M584 1157l-238 318l109 92l209 -207l247 207l84 -92l-295 -318h-116zM395 -20q-168 0 -276.5 120.5t-83.5 358.5l61 606h324l-62 -592q-23 -211 158 -211q100 0 160.5 67.5t83.5 145.5l67 590h324l-113 -1065h-323l24 184q-33 -68 -122 -136t-222 -68z" glyph-name="uni01D4" horiz-adv-x="1249" unicode="ǔ"/><glyph d="M907 -2q-164 -45 -242.5 -105.5t-84.5 -117.5q-6 -47 48 -57.5t99 18.5l66 -146q-78 -43 -206 -47t-231.5 53.5t-91.5 174.5q16 145 293 223q-250 57 -393.5 257t-112.5 482q33 313 267.5 517t541.5 204q315 0 514 -213t166 -541q-29 -264 -206 -455.5t-427 -246.5z M391 700q-20 -178 78 -294.5t268 -116.5q178 0 310.5 126t152.5 318q16 178 -83 295t-267 117q-178 0 -308.5 -126t-150.5 -319z" glyph-name="uni01EA" horiz-adv-x="1665" unicode="Ǫ"/><glyph d="M668 -4q-160 -47 -236 -106.5t-82 -114.5q-6 -47 48.5 -57.5t99.5 18.5l67 -146q-57 -31 -148 -40t-180.5 5.5t-149.5 71t-50 144.5q18 158 311 231q-158 59 -253 198.5t-75 344.5q18 170 123 298t232 184t252 56q96 0 190 -36.5t173 -104.5t122 -179.5t29 -248.5 q-23 -209 -160 -344t-313 -174zM332 514q-14 -115 50 -182.5t159 -67.5q102 0 190 76t100 205q12 119 -51 186.5t-157 67.5q-104 0 -190.5 -76t-100.5 -209z" glyph-name="uni01EB" horiz-adv-x="1267" unicode="ǫ"/><glyph d="M625 1458q319 0 475 -301l-256 -135q-53 78 -108.5 111.5t-135.5 33.5q-70 0 -119 -35.5t-49 -97.5q0 -55 28.5 -83.5t100.5 -55.5l92 -33q215 -80 311.5 -182t96.5 -238q0 -219 -174 -346t-393 -127q-190 0 -327.5 102.5t-178.5 258.5l262 125q78 -188 254 -189 q94 0 155.5 43t61.5 129q0 51 -38 84t-140 72l-80 31q-166 59 -259 148t-93 249q0 135 78.5 237.5t193.5 150.5t242 48zM115 -555l149 504h428l-278 -504h-299z" glyph-name="Scommaaccent" horiz-adv-x="1185" unicode="Ș"/><glyph d="M580 737q-37 92 -115 92q-43 0 -68.5 -23.5t-25.5 -53.5q0 -45 61 -72l129 -47q53 -20 81 -32.5t72 -38t66.5 -53.5t40 -71t17.5 -96q0 -170 -135.5 -266t-321.5 -96q-160 0 -277.5 82.5t-138.5 222.5l260 67q39 -119 160 -119q61 0 96 27t35 62q0 49 -53 67l-121 45 q-287 104 -287 318q0 145 118 239t288 94q156 0 254 -77.5t133 -210.5zM29 -555l149 504h428l-278 -504h-299z" glyph-name="scommaaccent" horiz-adv-x="972" unicode="ș"/><glyph d="M1135 1434l-33 -304h-338l-119 -1130h-330l119 1130h-338l33 304h1006zM125 -555l149 504h428l-278 -504h-299z" glyph-name="uni021A" horiz-adv-x="1173" unicode="Ț"/><glyph d="M719 799h-225l-43 -422q-10 -106 71 -107q53 0 154 15l-21 -262q-86 -35 -229 -35q-158 0 -241 87t-58 314l41 410h-148l25 266h150l26 250h324l-27 -250h227zM47 -555l150 504h428l-279 -504h-299z" glyph-name="uni021B" horiz-adv-x="811" unicode="ț"/><glyph d="M465 1065l-123 -1165q-16 -158 -111.5 -240t-244.5 -82q-137 0 -240 55l18 310q68 -33 148 -33q61 0 88 35t31 75l110 1045h324z" glyph-name="uni0237" horiz-adv-x="563" unicode="ȷ"/><glyph d="M487 1567l238 -318l-109 -92l-208 207l-248 -207l-84 92l295 318h116z" glyph-name="circumflex" horiz-adv-x="649" unicode="ˆ"/><glyph d="M338 1157l-238 318l109 92l209 -207l248 207l84 -92l-295 -318h-117z" glyph-name="caron" horiz-adv-x="649" unicode="ˇ"/><glyph d="M788 1495q-14 -147 -115.5 -245.5t-266.5 -98.5q-168 0 -246 101.5t-60 242.5h197q-4 -61 28.5 -96t100.5 -35q145 0 166 131h196z" glyph-name="breve" horiz-adv-x="688" unicode="˘"/><glyph d="M391 1436l-29 -279h-296l28 279h297z" glyph-name="dotaccent" horiz-adv-x="296" unicode="˙"/><glyph d="M356 1671q94 0 162 -66.5t68 -160.5q0 -102 -78 -180t-182 -78q-98 0 -165 66.5t-67 162.5q0 102 78 179t184 77zM344 1479q-49 0 -49 -56q0 -12 12 -24.5t29 -12.5q23 0 37 16.5t14 39.5q0 14 -14.5 25.5t-28.5 11.5z" glyph-name="ring" horiz-adv-x="493" unicode="˚"/><glyph d="M561 0q-326 -100 -325 -221q0 -49 55 -61.5t94 18.5l66 -146q-102 -47 -225.5 -49t-214.5 52.5t-91 152.5q0 176 324 254h317z" glyph-name="ogonek" horiz-adv-x="616" unicode="˛"/><glyph d="M354 1542q82 0 205 -71.5t166 -71.5q29 0 62.5 12t35.5 29l117 -13q-12 -119 -83 -200.5t-189 -81.5q-82 0 -209 84t-172 84q-27 0 -60.5 -18.5t-36.5 -43.5l-114 13q14 121 82.5 199.5t195.5 78.5z" glyph-name="tilde" horiz-adv-x="845" unicode="˜"/><glyph d="M993 1516l-301 -326h-248l134 280l-261 -280h-247l153 326h770z" glyph-name="hungarumlaut" horiz-adv-x="890" unicode="˝"/><glyph d="M-733 -440l149 503h428l-278 -503h-299z" glyph-name="uni0326" horiz-adv-x="0" unicode="̦"/><glyph d="M821 1434l461 -1434h-1296l766 1434h69zM737 909l-305 -626h479z" glyph-name="Delta" horiz-adv-x="1501" unicode="Δ"/><glyph d="M825 1448q133 0 257 -54.5t217.5 -149.5t141.5 -234.5t32 -296.5q-27 -248 -168 -432l47 32h28l-32 -313h-498l31 358l63 50q76 57 129 147t66 188q20 180 -73 277.5t-249 97.5q-166 0 -285.5 -106.5t-138.5 -298.5q-8 -88 21.5 -172t89.5 -142l53 -41l-31 -358h-497 l32 313h41l39 -20q-113 207 -86 450q16 152 91 285t182.5 224t238.5 143.5t258 52.5z" glyph-name="Omega" horiz-adv-x="1595" unicode="Ω"/><glyph d="M829 1065h324l-113 -1065h-323l24 178q-35 -61 -126 -127.5t-218 -66.5q-29 0 -86 -37l-43 -336h-323l153 1454h324l-62 -592q-12 -117 17 -162t104 -45q100 0 177 71t104 136z" glyph-name="mu" horiz-adv-x="1251" unicode="μ"/><glyph d="M1219 270q68 0 149 39l-18 -289q-72 -33 -252 -32q-111 0 -207 53t-86 158l63 583h-260l-84 -782h-329l84 782h-205l28 283h1328l-29 -283h-203l-45 -405q-8 -68 7.5 -87.5t58.5 -19.5z" glyph-name="pi" horiz-adv-x="1544" unicode="π"/><glyph d="M563 1802l-28 -266h-336l30 266h334zM1106 1802l-29 -266h-336l29 266h336zM369 303h587l-32 -303h-918l152 1434h899l-33 -304h-569l-25 -260h426l-33 -297h-428z" glyph-name="afii10023" horiz-adv-x="1126" unicode="Ё"/><glyph d="M1096 1802l-301 -264h-256l161 264h396zM1094 1434l-35 -304h-604l-119 -1130h-330l152 1434h936z" glyph-name="afii10052" horiz-adv-x="1122" unicode="Ѓ"/><glyph d="M1049 391l186 -244q-201 -168 -500 -167q-315 0 -518 213t-166 540q33 313 269.5 517t543.5 204q289 0 471 -176l-209 -215q-113 82 -254 82q-154 0 -272.5 -80t-179.5 -213l317 6l-28 -280l-320 -7q33 -133 130 -207.5t245 -74.5q154 0 285 102z" glyph-name="afii10053" horiz-adv-x="1386" unicode="Є"/><glyph d="M487 1434l-151 -1434h-330l152 1434h329z" glyph-name="afii10055" horiz-adv-x="567" unicode="І"/><glyph d="M272 1802l-28 -266h-336l29 266h335zM815 1802l-29 -266h-335l28 266h336zM502 1434l-152 -1434h-330l152 1434h330z" glyph-name="afii10056" horiz-adv-x="598" unicode="Ї"/><glyph d="M1128 0l-73 238h-649l-125 -238h-357l774 1434h301l474 -1434h-345zM549 506h416l-152 528z" glyph-name="afii10017" horiz-adv-x="1619" unicode="А"/><glyph d="M610 965q246 0 382 -131.5t110 -354.5q-23 -217 -181.5 -348t-400.5 -131h-514l152 1434h901l-35 -304h-569l-17 -165h172zM522 303q236 0 252 207q10 94 -42 134t-159 40h-165l-39 -381h153z" glyph-name="afii10018" horiz-adv-x="1234" unicode="Б"/><glyph d="M907 795q102 -35 176 -124t74 -218q0 -221 -150.5 -337t-410.5 -116h-590l152 1434h538q203 0 311.5 -96.5t108.5 -243.5q0 -213 -209 -299zM649 1147h-190l-31 -256h178q88 0 133 43t45 113q0 100 -135 100zM598 287q113 0 175.5 55t62.5 143q0 141 -209 142h-226 l-32 -340h229z" glyph-name="afii10019" horiz-adv-x="1292" unicode="В"/><glyph d="M1094 1434l-35 -304h-604l-119 -1130h-330l152 1434h936z" glyph-name="afii10020" horiz-adv-x="1122" unicode="Г"/><glyph d="M1456 303h268l-47 -444h-329l14 141h-1063l-14 -141h-330l47 444l252 6q35 92 64.5 242.5t44 267.5t38.5 334l31 281h1143zM1126 303l86 827h-483q-20 -217 -33.5 -329.5t-42 -262t-65.5 -241.5z" glyph-name="afii10021" horiz-adv-x="1886" unicode="Д"/><glyph d="M369 303h587l-32 -303h-918l152 1434h899l-33 -304h-569l-25 -260h426l-33 -297h-428z" glyph-name="afii10022" horiz-adv-x="1126" unicode="Е"/><glyph d="M1833 0l-354 602l-191 -196l-45 -406h-340l45 406l-145 196l-481 -602h-388l680 829l-450 605h395l430 -588l66 588h340l-66 -588l553 588h410l-590 -605l502 -829h-371z" glyph-name="afii10024" horiz-adv-x="2371" unicode="Ж"/><glyph d="M850 750q82 12 181 -88.5t83 -255.5q-23 -205 -191.5 -315.5t-398.5 -110.5q-238 0 -384 128t-126 322l344 -10q-6 -51 32 -83t75 -39t67 -7q47 0 93.5 10t96.5 49t56 105q8 68 -51 115.5t-203 47.5l15 242q74 4 123 22.5t69.5 50.5t26.5 50t10 49q4 51 -34 78t-87 27 q-61 0 -120.5 -33t-65.5 -100l-340 10q23 207 175.5 320.5t358.5 113.5q203 0 338 -120t115 -302q-10 -104 -92 -183t-166 -93z" glyph-name="afii10025" horiz-adv-x="1265" unicode="З"/><glyph d="M487 1434l-92 -834l756 834h260l-151 -1434h-330l94 834l-762 -834h-256l152 1434h329z" glyph-name="afii10026" horiz-adv-x="1490" unicode="И"/><glyph d="M1208 1796q-12 -123 -102 -210t-254 -87q-152 0 -240 96.5t-75 212.5l196 -12q4 -35 36 -58.5t83 -23.5q59 0 104 30t56 64zM487 1434l-92 -834l756 834h260l-151 -1434h-330l94 834l-762 -834h-256l152 1434h329z" glyph-name="afii10027" horiz-adv-x="1490" unicode="Й"/><glyph d="M926 0l-353 602l-192 -196l-45 -406h-330l152 1434h329l-65 -588l553 588h411l-589 -605l499 -829h-370z" glyph-name="afii10028" horiz-adv-x="1464" unicode="К"/><glyph d="M1481 1434l-152 -1434h-330l119 1130h-506l-80 -757q-12 -121 -43.5 -201t-84 -118t-106.5 -52t-132 -14q-135 0 -217 41l14 274q63 -33 133 -33q47 0 78 42t31 71l110 1051h1166z" glyph-name="afii10029" horiz-adv-x="1560" unicode="Л"/><glyph d="M1686 1434l-152 -1434h-330l78 680l-362 -680h-273l-233 676l-78 -676h-330l152 1434h315l346 -975l539 975h328z" glyph-name="afii10030" horiz-adv-x="1765" unicode="М"/><glyph d="M1030 1434h330l-152 -1434h-329l57 567h-543l-57 -567h-330l152 1434h329l-59 -564h541z" glyph-name="afii10031" horiz-adv-x="1439" unicode="Н"/><glyph d="M860 1454q293 0 488.5 -186.5t195.5 -481.5q0 -223 -111.5 -409.5t-299 -291.5t-406.5 -105q-293 0 -486.5 184t-193.5 479q0 340 239.5 575.5t573.5 235.5zM748 289q174 0 313 128t139 343q0 170 -101.5 277.5t-258.5 107.5q-176 0 -312.5 -129t-136.5 -348 q0 -166 99.5 -272.5t257.5 -106.5z" glyph-name="afii10032" horiz-adv-x="1665" unicode="О"/><glyph d="M1376 1434l-151 -1434h-330l119 1130h-559l-119 -1130h-330l152 1434h1218z" glyph-name="afii10033" horiz-adv-x="1456" unicode="П"/><glyph d="M662 1434q242 0 377 -139.5t108 -370.5q-20 -211 -176 -333t-400 -122h-186l-49 -469h-330l152 1434h504zM567 750q236 0 254 204q12 94 -42 135t-161 41h-163l-39 -380h151z" glyph-name="afii10034" horiz-adv-x="1230" unicode="Р"/><glyph d="M1235 147q-207 -168 -504 -167q-293 0 -488.5 185t-195.5 478q0 340 240.5 575.5t576.5 235.5q289 0 471 -176l-223 -215q-109 82 -248 82q-195 0 -336 -135.5t-143 -360.5q0 -160 109.5 -260t279.5 -100q156 0 287 102z" glyph-name="afii10035" horiz-adv-x="1388" unicode="С"/><glyph d="M1135 1434l-33 -304h-338l-119 -1130h-330l119 1130h-338l33 304h1006z" glyph-name="afii10036" horiz-adv-x="1173" unicode="Т"/><glyph d="M1128 1434h371l-930 -1434h-366l315 479l-414 955h355l270 -619z" glyph-name="afii10037" horiz-adv-x="1517" unicode="У"/><glyph d="M1128 1300q291 -14 481.5 -184t164.5 -416q-27 -231 -246 -392t-512 -175l-19 -133h-331l20 133q-291 16 -478.5 186t-158.5 414q20 229 237.5 390t512.5 177l20 134h330zM705 416l75 602q-115 -8 -198.5 -44t-124.5 -87t-59.5 -96.5t-22.5 -90.5q-6 -37 2 -76.5 t37.5 -87t104.5 -80t186 -40.5zM1034 416q115 6 199 41t127 86t62.5 97t25.5 93q4 41 -5 80t-39 86t-105.5 80t-188.5 39z" glyph-name="afii10038" horiz-adv-x="1892" unicode="Ф"/><glyph d="M1309 0h-381l-238 436l-332 -436h-393l557 723l-397 711h381l233 -424l322 424h393l-545 -711z" glyph-name="afii10039" horiz-adv-x="1486" unicode="Х"/><glyph d="M1589 303l-47 -444h-332l15 141h-1219l152 1434h329l-118 -1131h559l119 1131h329l-119 -1131h332z" glyph-name="afii10040" horiz-adv-x="1701" unicode="Ц"/><glyph d="M942 1434h330l-152 -1434h-329l61 553q-37 -57 -123 -108.5t-199 -51.5q-215 0 -337.5 120t-100.5 357l60 564h329l-63 -574q-6 -102 47 -137t129 -35q70 0 132 34t90 63.5t63 78.5z" glyph-name="afii10041" horiz-adv-x="1351" unicode="Ч"/><glyph d="M1935 1434h330l-151 -1434h-2108l152 1434h329l-118 -1131h559l119 1131h329l-119 -1131h560z" glyph-name="afii10042" horiz-adv-x="2344" unicode="Ш"/><glyph d="M2474 303l-47 -444h-328l15 141h-2108l152 1434h329l-118 -1131h559l119 1131h329l-119 -1131h560l118 1131h330l-119 -1131h328z" glyph-name="afii10043" horiz-adv-x="2586" unicode="Щ"/><glyph d="M840 965q244 0 380 -130t109 -356q-20 -217 -179 -348t-400 -131h-514l116 1130h-284l32 304h617l-51 -469h174zM750 303q236 0 251 207q12 94 -41 134t-159 40h-164l-39 -381h152z" glyph-name="afii10044" horiz-adv-x="1460" unicode="Ъ"/><glyph d="M610 965q246 0 382 -131.5t110 -354.5q-23 -217 -181.5 -348t-400.5 -131h-514l152 1434h329l-49 -469h172zM1442 1434h330l-152 -1434h-330zM522 303q236 0 252 207q10 94 -42 134t-159 40h-165l-39 -381h153z" glyph-name="afii10045" horiz-adv-x="1851" unicode="Ы"/><glyph d="M610 965q246 0 382 -131.5t110 -354.5q-23 -217 -181.5 -348t-400.5 -131h-514l152 1434h329l-49 -469h172zM522 303q236 0 252 207q10 94 -42 134t-159 40h-165l-39 -381h153z" glyph-name="afii10046" horiz-adv-x="1230" unicode="Ь"/><glyph d="M604 1454q315 0 516 -213t164 -541q-33 -313 -269.5 -516.5t-543.5 -203.5q-299 0 -479 180l211 219q100 -90 258 -90q154 0 273.5 80t180.5 215l-315 -6l29 280l315 6q-33 131 -128 206t-241 75q-147 0 -276 -86l-190 231q204 164 495 164z" glyph-name="afii10047" horiz-adv-x="1378" unicode="Э"/><glyph d="M1360 1454q293 0 488.5 -186.5t195.5 -481.5q0 -223 -111.5 -409.5t-299 -291.5t-406.5 -105q-276 0 -467 165.5t-211 436.5h-154l-59 -582h-330l152 1434h329l-61 -572l149 -2q72 262 290.5 428t494.5 166zM1247 289q174 0 313.5 128t139.5 343q0 170 -101.5 277.5 t-259.5 107.5q-176 0 -312 -129t-136 -348q0 -166 99 -272.5t257 -106.5z" glyph-name="afii10048" horiz-adv-x="2164" unicode="Ю"/><glyph d="M741 1434h516l-151 -1434h-330l49 469h-174l-340 -469h-356l403 530q-223 133 -196 424q23 219 180 349.5t399 130.5zM690 750h164l41 380h-154q-229 0 -254 -206q-10 -94 43.5 -134t159.5 -40z" glyph-name="afii10049" horiz-adv-x="1337" unicode="Я"/><glyph d="M879 1065h323l-112 -1065h-324l12 98q-20 -39 -97 -78.5t-181 -39.5q-188 0 -334 129t-146 364q0 254 168 432t406 178q78 0 141.5 -26.5t91 -51t35.5 -42.5zM573 264q37 0 78 13.5t85 44t73 94t29 151.5q0 109 -68 170.5t-164 61.5q-117 0 -191.5 -83t-74.5 -214 q0 -115 64.5 -176.5t168.5 -61.5z" glyph-name="afii10065" unicode="а"/><glyph d="M688 1083q207 0 355.5 -150.5t121.5 -414.5q-18 -174 -112.5 -301t-213 -182t-243.5 -55q-115 0 -186.5 47t-81.5 88l-17 -115h-323l112 1071q20 188 122 275.5t310 87.5h152q113 0 160 47l321 -13q-74 -156 -186.5 -228.5t-284.5 -72.5h-141q-45 0 -86 -31.5t-43 -76.5 l-14 -86q27 33 101.5 71.5t176.5 38.5zM854 549q14 117 -49.5 183.5t-169.5 66.5q-109 0 -189.5 -75t-95.5 -206q-12 -121 46.5 -187.5t156.5 -66.5q115 0 202 76t99 209z" glyph-name="afii10066" horiz-adv-x="1292" unicode="б"/><glyph d="M899 586q184 -80 184 -246q0 -172 -145 -256t-369 -84h-581l112 1065h570q164 0 270.5 -68.5t106.5 -187.5q0 -47 -7.5 -79t-42.5 -72.5t-98 -71.5zM653 801h-254l-14 -125h238q84 10 92 74q0 10 -1 18t-16.5 20.5t-44.5 12.5zM588 264q168 0 168 84v8v9.5t-1 11.5 t-6.5 12t-11.5 11.5t-17 12.5t-25.5 9t-35 6t-47.5 2h-256l-16 -166h248z" glyph-name="afii10067" horiz-adv-x="1228" unicode="в"/><glyph d="M961 1065l-29 -283h-537l-84 -782h-323l112 1065h861z" glyph-name="afii10068" horiz-adv-x="1042" unicode="г"/><glyph d="M1245 283h170l-41 -387h-323l10 104h-780l-11 -104h-323l39 387l145 4q45 57 75 156.5t42 181.5t28 241l21 199h1032zM451 276l471 7l53 499h-383l6 72q-12 -123 -19.5 -183.5t-23.5 -147.5t-41.5 -145.5t-62.5 -101.5z" glyph-name="afii10069" horiz-adv-x="1554" unicode="д"/><glyph d="M631 1085q115 0 218 -46t180 -157.5t77 -271.5q0 -100 -23 -196h-751q49 -166 250 -166q33 0 63.5 3t48 6t44 13.5t32.5 12.5t36 16t32 16l155 -174q-168 -162 -436 -161q-211 0 -374 133t-163 366q0 252 183.5 429t427.5 177zM625 809q-182 0 -263 -168h465 q-34 168 -202 168z" glyph-name="afii10070" horiz-adv-x="1226" unicode="е"/><glyph d="M1415 0l-299 342l-31 -27l-38 -315h-324l39 315l-23 27l-379 -342h-436l617 561l-432 504h405l285 -309l37 309h323l-37 -309l351 309h419l-549 -504l492 -561h-420z" glyph-name="afii10072" horiz-adv-x="1972" unicode="ж"/><glyph d="M535 1083q190 0 306.5 -95t100.5 -226q-4 -41 -18.5 -74t-41 -54.5t-43 -31.5t-46 -23.5t-31.5 -13.5q14 -2 43 -13t66.5 -38t61 -81t17.5 -124q-18 -156 -164.5 -242.5t-339.5 -86.5q-215 0 -335.5 105t-100.5 282l303 -13q-4 -49 38 -80.5t104 -31.5q72 0 127 30.5 t59 87.5q6 45 -39 71t-145 28l12 209q90 2 122 25.5t38 66.5q4 23 -20.5 40t-71.5 17q-53 0 -92 -23.5t-44 -56.5l-307 13q18 152 131 242.5t310 90.5z" glyph-name="afii10073" horiz-adv-x="1112" unicode="з"/><glyph d="M1135 1065l-113 -1065h-324l56 496l-717 -496h-49l112 1065h324l-55 -496l714 496h52z" glyph-name="afii10074" horiz-adv-x="1232" unicode="и"/><glyph d="M993 1427q-12 -123 -102 -210t-254 -87q-152 0 -241 96.5t-77 213.5l197 -13q4 -35 37 -58t84 -23q59 0 103 29.5t57 64.5zM1135 1065l-113 -1065h-324l56 496l-717 -496h-49l112 1065h324l-55 -496l714 496h52z" glyph-name="afii10075" horiz-adv-x="1232" unicode="й"/><glyph d="M680 0l-299 342l-31 -27l-39 -315h-323l112 1065h324l-37 -309l350 309h422l-551 -504l494 -561h-422z" glyph-name="afii10076" horiz-adv-x="1239" unicode="к"/><glyph d="M1307 1065l-113 -1065h-324l82 782h-401l-43 -409q-12 -121 -45 -201t-84 -118t-105.5 -52t-128.5 -14q-125 0 -211 39l27 252q29 -10 105 -11q106 0 120 97l70 700h1051z" glyph-name="afii10077" horiz-adv-x="1404" unicode="л"/><glyph d="M1411 1065l-113 -1065h-323l39 326l-365 -326l-299 326l-39 -326h-323l112 1065h56l528 -623l664 623h63z" glyph-name="afii10078" horiz-adv-x="1509" unicode="м"/><glyph d="M788 1065h324l-113 -1065h-323l41 369h-367l-39 -369h-323l112 1065h324l-43 -414h364z" glyph-name="afii10079" horiz-adv-x="1210" unicode="н"/><glyph d="M631 1085q92 0 181 -31.5t166 -93t124 -162t47 -223.5q0 -254 -179 -424.5t-431 -170.5q-199 0 -359 135t-160 372q0 254 179.5 426t431.5 172zM555 264q119 0 200 82t81 219q0 113 -68 174.5t-154 61.5q-119 0 -199.5 -82t-80.5 -221q0 -111 67.5 -172.5t153.5 -61.5z " glyph-name="afii10080" horiz-adv-x="1269" unicode="о"/><glyph d="M1163 1065l-112 -1065h-324l82 782h-414l-84 -782h-323l112 1065h1063z" glyph-name="afii10081" horiz-adv-x="1261" unicode="п"/><glyph d="M688 1085q207 0 355.5 -150.5t121.5 -416.5q-14 -133 -71.5 -238.5t-139.5 -169t-174 -97t-184 -33.5q-115 0 -186.5 46t-81.5 87l-58 -502h-323l65 616l88 838h324l-14 -90q14 18 44.5 40.5t96 46t137.5 23.5zM854 549q14 119 -49.5 185.5t-169.5 66.5 q-109 0 -189.5 -75t-95.5 -208q-12 -121 46.5 -187.5t156.5 -66.5q115 0 201 76t100 209z" glyph-name="afii10082" horiz-adv-x="1292" unicode="р"/><glyph d="M629 1085q313 0 436 -260l-254 -108q-92 84 -193 84q-119 0 -201.5 -85t-82.5 -227q0 -109 64.5 -168t160.5 -59q16 0 31.5 1t30 5t24.5 7.5t24.5 10.5t21.5 10t21.5 13t18.5 13.5t19.5 15.5t19.5 14l244 -127q-178 -246 -479 -245q-90 0 -178.5 30.5t-165 90t-124 160.5 t-47.5 226q0 254 180.5 426t428.5 172z" glyph-name="afii10083" horiz-adv-x="1157" unicode="с"/><glyph d="M930 1065l-31 -283h-272l-84 -782h-324l84 782h-270l28 283h869z" glyph-name="afii10084" horiz-adv-x="991" unicode="т"/><glyph d="M967 1069h327l-805 -1458h-329l246 430l-351 1028h316l229 -684z" glyph-name="afii10085" horiz-adv-x="1341" unicode="у"/><glyph d="M1466 1083q207 0 355.5 -150.5t122.5 -414.5q-18 -174 -112.5 -301t-213.5 -182t-244 -55q-113 0 -184.5 45t-83.5 86l-57 -500h-324l55 483q-25 -31 -100.5 -71.5t-179.5 -40.5q-207 0 -354.5 150.5t-120.5 414.5q14 133 71.5 238.5t139 169t174 97t184.5 33.5 q113 0 184.5 -45t83.5 -86l58 500h323l-55 -481q14 16 44 38.5t96 47t138 24.5zM811 416l23 241q-47 143 -199 144q-115 0 -201 -76t-100 -209q-12 -117 51.5 -183.5t167.5 -66.5q166 0 258 150zM1632 549q12 117 -51 183.5t-168 66.5q-80 0 -146.5 -40t-107.5 -110 l-29 -241q53 -143 201 -144q115 0 202 76t99 209z" glyph-name="afii10086" horiz-adv-x="2068" unicode="ф"/><glyph d="M762 0l-182 311l-256 -311h-379l465 547l-304 518h359l153 -285l213 285h373l-422 -518l344 -547h-364z" glyph-name="afii10087" horiz-adv-x="1304" unicode="х"/><glyph d="M14 1065l496 827l-514 -1132zM1245 479l23 -620l-422 -121l110 262h-260l58 1065l495 827l-256 -1609zM-221 283l217 477l-41 -641zM-109 -905l64 1024l201 -187zM156 -68l20 68h520l-28 -545z" glyph-name="afii10088" horiz-adv-x="1343" unicode="ц"/><glyph d="M844 1065h323l-112 -1065h-324l49 418l-12 -17q-12 -14 -23.5 -24t-32 -28.5t-46 -32t-58.5 -25.5t-77 -19.5t-93 -7.5q-78 0 -147.5 22.5t-127 72t-86 137.5t-16.5 204l39 365h324l-41 -379q-10 -137 127 -137q186 0 299 217z" glyph-name="afii10089" horiz-adv-x="1265" unicode="ч"/><glyph d="M1616 1065l-113 -1065h-1515l112 1065h324l-84 -782h272l84 782h324l-84 -782h272l84 782h324z" glyph-name="afii10090" horiz-adv-x="1714" unicode="ш"/><glyph d="M1679 283l-45 -424h-323l14 141h-1337l112 1065h324l-84 -782h272l84 782h324l-84 -782h272l84 782h324l-84 -782h147z" glyph-name="afii10091" horiz-adv-x="1796" unicode="щ"/><glyph d="M815 680q164 0 273.5 -88t109.5 -234q0 -162 -129 -260t-315 -98h-656l84 782h-170l29 283h494l-39 -385h319zM768 283q63 0 91 23.5t28 47.5q0 43 -92 43h-328l-14 -114h315z" glyph-name="afii10092" horiz-adv-x="1341" unicode="ъ"/><glyph d="M702 680q166 0 275.5 -88t109.5 -234q0 -162 -130 -260t-316 -98h-653l112 1065h324l-39 -385h317zM1317 1065h325l-112 -1065h-326zM655 283q63 0 91 19.5t28 43.5q0 51 -92 51h-328l-14 -114h315z" glyph-name="afii10093" horiz-adv-x="1740" unicode="ы"/><glyph d="M702 680q166 0 275.5 -88t109.5 -234q0 -162 -130 -260t-316 -98h-653l112 1065h324l-39 -385h317zM655 283q63 0 91 19.5t28 43.5q0 51 -92 51h-328l-14 -114h315z" glyph-name="afii10094" horiz-adv-x="1228" unicode="ь"/><glyph d="M528 1083q94 0 188.5 -36.5t173.5 -104.5t121 -180.5t25 -247.5q-16 -172 -118.5 -297t-229.5 -179t-252 -54q-313 0 -442 256l252 104q43 -41 82 -58.5t112.5 -17.5t145 41t116.5 109l-233 -6l25 221l235 4q-20 78 -78.5 120t-132.5 42q-55 0 -99 -15.5t-65.5 -30 t-58.5 -46.5l-244 129q174 247 477 247z" glyph-name="afii10095" horiz-adv-x="1163" unicode="э"/><glyph d="M1083 1085q92 0 181.5 -31.5t166 -93t124 -162t47.5 -223.5q0 -254 -179.5 -424.5t-431.5 -170.5q-172 0 -320.5 103t-187.5 292h-133l-39 -375h-323l112 1065h324l-41 -389h121q59 182 219.5 295.5t359.5 113.5zM1008 264q119 0 199.5 82t80.5 219q0 113 -67.5 174.5 t-153.5 61.5q-119 0 -200 -82t-81 -221q0 -111 68 -172.5t154 -61.5z" glyph-name="afii10096" horiz-adv-x="1722" unicode="ю"/><glyph d="M1180 1065l-113 -1065h-324l29 268h-151l-287 -268h-379l328 303q-199 127 -199 338q0 188 152.5 306t355.5 118h588zM801 549l26 233h-249q-74 0 -128.5 -34.5t-54.5 -92.5q0 -106 146 -106h260z" glyph-name="afii10097" horiz-adv-x="1277" unicode="я"/><glyph d="M549 1434l-29 -267h-336l31 267h334zM1092 1434l-29 -267h-336l31 267h334zM631 1085q115 0 218 -46t180 -157.5t77 -271.5q0 -100 -23 -196h-751q49 -166 250 -166q33 0 63.5 3t48 6t44 13.5t32.5 12.5t36 16t32 16l155 -174q-168 -162 -436 -161q-211 0 -374 133 t-163 366q0 252 183.5 429t427.5 177zM625 809q-182 0 -263 -168h465q-34 168 -202 168z" glyph-name="afii10071" horiz-adv-x="1226" unicode="ё"/><glyph d="M958 1434l-303 -265h-254l160 265h397zM961 1065l-29 -283h-537l-84 -782h-323l112 1065h861z" glyph-name="afii10100" horiz-adv-x="1042" unicode="ѓ"/><glyph d="M541 268q55 0 99 14.5t65.5 29t60.5 44.5l244 -129q-174 -244 -480 -243q-96 0 -189 34.5t-171 100t-121 177.5t-29 251q14 129 78 234.5t153 170t186.5 98t187.5 33.5q313 0 436 -260l-246 -104q-37 31 -52 42t-53 24.5t-87 13.5q-82 0 -156 -46t-117 -126l238 6 l-25 -221l-231 -6q64 -138 209 -138z" glyph-name="afii10101" horiz-adv-x="1153" unicode="є"/><glyph d="M109 1143l32 305h324l-33 -305h-323zM-12 0l112 1065h324l-113 -1065h-323z" glyph-name="afii10103" horiz-adv-x="522" unicode="і"/><glyph d="M233 1434l-28 -267h-336l29 267h335zM776 1434l-28 -267h-336l28 267h336zM461 1065l-113 -1065h-323l112 1065h324z" glyph-name="afii10104" horiz-adv-x="598" unicode="ї"/><glyph d="M774 1530h330l-25 -244l-20 -156h-604l-119 -1130h-330l152 1434h606z" glyph-name="afii10050" horiz-adv-x="1122" unicode="Ґ"/><glyph d="M647 1159h324l-39 -377h-537l-84 -782h-323l112 1065h537z" glyph-name="afii10098" horiz-adv-x="1042" unicode="ґ"/><glyph d="M711 1884h395l154 -325h-248zM2146 1434l-624 -1434h-240l-235 862l-402 -862h-239l-322 1434h342l172 -805l377 805h262l213 -805l342 805h354z" glyph-name="Wgrave" horiz-adv-x="2144" unicode="Ẁ"/><glyph d="M553 1516h395l154 -326h-248zM1552 1069h330l-485 -1069h-314l-155 690l-299 -690h-312l-262 1069h316l143 -684l307 684h281l170 -684z" glyph-name="wgrave" horiz-adv-x="1929" unicode="ẁ"/><glyph d="M1546 1884l-301 -325h-248l154 325h395zM2146 1434l-624 -1434h-240l-235 862l-402 -862h-239l-322 1434h342l172 -805l377 805h262l213 -805l342 805h354z" glyph-name="Wacute" horiz-adv-x="2144" unicode="Ẃ"/><glyph d="M1389 1516l-302 -326h-247l153 326h396zM1552 1069h330l-485 -1069h-314l-155 690l-299 -690h-312l-262 1069h316l143 -684l307 684h281l170 -684z" glyph-name="wacute" horiz-adv-x="1929" unicode="ẃ"/><glyph d="M1053 1804l-29 -278h-297l29 278h297zM1559 1804l-31 -278h-297l29 278h299zM2146 1434l-624 -1434h-240l-235 862l-402 -862h-239l-322 1434h342l172 -805l377 805h262l213 -805l342 805h354z" glyph-name="Wdieresis" horiz-adv-x="2144" unicode="Ẅ"/><glyph d="M895 1436l-29 -279h-297l29 279h297zM1401 1436l-31 -279h-297l29 279h299zM1552 1069h330l-485 -1069h-314l-155 690l-299 -690h-312l-262 1069h316l143 -684l307 684h281l170 -684z" glyph-name="wdieresis" horiz-adv-x="1929" unicode="ẅ"/><glyph d="M414 1884h395l154 -325h-248zM1530 1434l-637 -836l-68 -598h-329l67 598l-459 836h365l283 -537l397 537h381z" glyph-name="Ygrave" horiz-adv-x="1548" unicode="Ỳ"/><glyph d="M815 1190h-248l-301 326h396zM967 1069h327l-805 -1458h-329l246 430l-351 1028h316l229 -684z" glyph-name="ygrave" horiz-adv-x="1341" unicode="ỳ"/><glyph d="M1106 694l-29 -270h-1044l28 270h1045z" glyph-name="endash" horiz-adv-x="1232" unicode="–"/><glyph d="M1229 694l-29 -270h-1167l28 270h1168z" glyph-name="emdash" horiz-adv-x="1355" unicode="—"/><glyph d="M569 1434l-262 -572h-270l252 572h280z" glyph-name="quoteleft" horiz-adv-x="557" unicode="‘"/><glyph d="M37 862l262 572h270l-252 -572h-280z" glyph-name="quoteright" horiz-adv-x="557" unicode="’"/><glyph d="M-119 -223l262 571h277l-252 -571h-287z" glyph-name="quotesinglbase" horiz-adv-x="563" unicode="‚"/><glyph d="M569 1434l-262 -572h-270l252 572h280zM954 1434l-262 -572h-270l252 572h280z" glyph-name="quotedblleft" horiz-adv-x="942" unicode="“"/><glyph d="M37 862l262 572h270l-252 -572h-280zM422 862l262 572h270l-252 -572h-280z" glyph-name="quotedblright" horiz-adv-x="942" unicode="”"/><glyph d="M-119 -223l262 571h271l-252 -571h-281zM266 -223l262 571h271l-252 -571h-281z" glyph-name="quotedblbase" horiz-adv-x="942" unicode="„"/><glyph d="M750 1171l-25 -208h-217l-70 -324h-125l-2 324h-221l25 208h202l2 263h281l-51 -263h201z" glyph-name="dagger" horiz-adv-x="839" unicode="†"/><glyph d="M541 1171h207l-23 -208h-227l-47 -197h-125l-9 197h-227l23 208h209l-5 263h281zM440 668l6 -197h228l-21 -209h-207v-262h-280l61 262h-209l21 209h227l49 197h125z" glyph-name="daggerdbl" horiz-adv-x="837" unicode="‡"/><glyph d="M233.5 451q-73.5 0 -128 55t-54.5 129t54.5 128t128 54t129 -54t55.5 -128t-55.5 -129t-129 -55z" glyph-name="bullet" horiz-adv-x="491" unicode="•"/><glyph d="M154 -10q-78 0 -130.5 58t-43.5 140q8 68 63 118t125 50q78 0 130 -58t44 -140q-8 -68 -63 -118t-125 -50zM659 -10q-78 0 -130 58t-44 140q8 68 63.5 118t125.5 50q78 0 130 -58t44 -140q-8 -68 -63.5 -118t-125.5 -50zM1165 -10q-78 0 -130 58t-44 140q8 68 63.5 118 t125.5 50q78 0 130 -58t44 -140q-8 -68 -63.5 -118t-125.5 -50z" glyph-name="ellipsis" horiz-adv-x="1521" unicode="…"/><glyph d="M352 1444q113 0 182.5 -78t57.5 -190q-10 -98 -87 -167t-179 -69q-113 0 -182.5 78t-57.5 190q10 98 87 167t179 69zM1032 1440l246 -164l-987 -1276l-250 164zM342 1237q-23 0 -37 -17.5t-10 -43.5q8 -29 41 -29q25 0 39 18.5t8 42.5q-8 29 -41 29zM1028 494 q113 0 183.5 -78t56.5 -191q-10 -98 -86 -166.5t-178 -68.5q-113 0 -183.5 77.5t-56.5 190.5q10 98 86 167t178 69zM1694 494q113 0 183.5 -78t55.5 -191q-10 -98 -85.5 -166.5t-178.5 -68.5q-113 0 -183.5 77.5t-55.5 190.5q10 98 86 167t178 69zM1018 287q-23 0 -36 -17.5 t-11 -44.5q12 -29 43 -28q23 0 37 17t10 44q-8 29 -43 29zM1683 287q-23 0 -36 -17.5t-11 -44.5q12 -29 43 -28q23 0 37.5 17t9.5 44q-8 29 -43 29z" glyph-name="perthousand" horiz-adv-x="2095" unicode="‰"/><glyph d="M84 520l8 119l342 309l86 -102l-217 -266l164 -267l-111 -102z" glyph-name="guilsinglleft" horiz-adv-x="536" unicode="‹"/><glyph d="M465 639l-8 -119l-342 -309l-86 102l217 267l-164 266l111 102z" glyph-name="guilsinglright" horiz-adv-x="536" unicode="›"/><glyph d="M633 1434l-1032 -1434h-107l1045 1434h94z" glyph-name="fraction" horiz-adv-x="221" unicode="⁄"/><glyph d="M891 289q156 0 287 102l174 -244q-207 -168 -504 -167q-246 0 -428 133t-236 358h-159l24 203h115q0 6 1 19.5t2 23.5t3 18h-121l25 201h145q90 231 299 374.5t463 143.5q289 0 471 -176l-223 -215q-109 82 -248 82q-119 0 -225.5 -54.5t-171.5 -154.5h411l-22 -201h-465 l-6 -61h469l-23 -203h-401q47 -86 138 -134t206 -48z" glyph-name="Euro" horiz-adv-x="1503" unicode="€"/><glyph d="M522 1434l-10 -101h-119l-28 -268h-113l29 268h-119l10 101h350zM1094 1434l-39 -369h-113l23 182l-113 -182h-86l-76 182l-22 -182h-113l39 369h108l109 -250l166 250h117z" glyph-name="trademark" horiz-adv-x="1187" unicode="™"/><glyph d="M246 1436l-56 -535h-75l47 453l-35 -23l-33 64l76 41h76zM1071 1434l-1032 -1434h-98l1044 1434h86zM842 539q76 0 115.5 -43t35.5 -99q-8 -70 -73 -106q84 -41 73 -137q-8 -68 -66.5 -113t-133.5 -45q-78 0 -129.5 47t-42.5 119q10 90 100 133q-55 43 -49 111 q6 53 53 93t117 40zM844 475q-41 0 -66.5 -22.5t-29.5 -55.5q-4 -29 18 -52t53 -23q37 0 64.5 25.5t31.5 58.5q4 31 -12 50t-59 19zM821 258q-47 0 -85 -29.5t-42 -74.5q-4 -41 25 -68t72 -27q51 0 85.5 29t41.5 74q4 43 -23 69.5t-74 26.5z" glyph-name="oneeighth" horiz-adv-x="1138" unicode="⅛"/><glyph d="M274 1440q68 0 113 -43t39 -101q-6 -66 -72 -106q80 -35 72 -137q-8 -68 -67.5 -114t-135.5 -46q-84 0 -132 56.5t-38 131.5l78 -4q-4 -49 20.5 -84t71.5 -35t84 29t41 74q6 53 -29.5 73.5t-109.5 20.5l2 59q131 0 141 91q2 31 -20.5 51t-57.5 20q-45 0 -75.5 -29.5 t-36.5 -84.5l-74 4q6 78 59 126t127 48zM1110 1434l-1030 -1434h-98l1042 1434h86zM877 539q76 0 116.5 -43t34.5 -99q-8 -70 -72 -106q84 -43 74 -137q-8 -68 -67.5 -113t-135.5 -45q-78 0 -129 47t-43 119q10 90 103 133q-57 41 -51 111q6 53 53 93t117 40zM879 475 q-43 0 -68 -22.5t-29 -55.5q-4 -29 18.5 -52t53.5 -23q37 0 64.5 25.5t31.5 58.5q4 31 -12 50t-59 19zM856 258q-45 0 -83 -29.5t-42 -74.5q-4 -41 24.5 -68t71.5 -27q51 0 86 29t39 74q4 43 -22.5 69.5t-73.5 26.5z" glyph-name="threeeighths" horiz-adv-x="1175" unicode="⅜"/><glyph d="M420 1436l-6 -66h-213l-31 -119q45 20 92 21q74 0 126 -56.5t44 -136.5q-8 -78 -70.5 -132t-140.5 -54q-70 0 -118 39t-56 90l72 35q-2 -41 26.5 -70t75.5 -29q49 0 88 37t45 92q6 49 -22.5 84t-69.5 35q-72 0 -125 -61l-65 18l65 273h283zM1110 1434l-1032 -1434h-98 l1044 1434h86zM881 539q76 0 115.5 -43t35.5 -99q-8 -70 -74 -106q84 -41 74 -137q-8 -68 -66.5 -113t-134.5 -45q-78 0 -129 47t-43 119q10 90 101 133q-55 43 -49 111q6 53 53 93t117 40zM883 475q-43 0 -67.5 -22.5t-29.5 -55.5q-4 -29 18.5 -52t53.5 -23q37 0 64.5 25.5 t31.5 58.5q4 31 -12 50t-59 19zM860 258q-47 0 -85 -29.5t-42 -74.5q-4 -41 24.5 -68t71.5 -27q51 0 86 29t41 74q4 43 -22.5 69.5t-73.5 26.5z" glyph-name="fiveeighths" horiz-adv-x="1179" unicode="⅝"/><glyph d="M449 1436l-265 -535h-80l232 469h-248l6 66h355zM1069 1434l-1032 -1434h-98l1044 1434h86zM840 539q76 0 115.5 -43t35.5 -99q-8 -70 -73 -106q84 -41 73 -137q-8 -68 -66.5 -113t-133.5 -45q-78 0 -129.5 47t-43.5 119q10 90 101 133q-55 43 -49 111q6 53 53 93t117 40 zM842 475q-43 0 -67.5 -22.5t-29.5 -55.5q-4 -29 18.5 -52t53.5 -23q37 0 64.5 25.5t31.5 58.5q4 31 -12 50t-59 19zM819 258q-47 0 -85 -29.5t-42 -74.5q-4 -41 24.5 -68t71.5 -27q51 0 86 29t41 74q4 43 -22.5 69.5t-73.5 26.5z" glyph-name="seveneighths" horiz-adv-x="1136" unicode="⅞"/><glyph d="M190 1434h326l307 -471q106 -170 138 -250q51 -137 34 -285q-18 -193 -179 -320.5t-349 -127.5q-201 0 -339 135t-118 338q20 176 170 312t324 136l33 2zM535 621q-90 0 -151.5 -58.5t-68.5 -136.5q-10 -74 34 -121t124 -47q88 0 149.5 55.5t69.5 143.5q6 57 -33.5 110.5 t-123.5 53.5z" glyph-name="partialdiff" horiz-adv-x="1128" unicode="∂"/><glyph d="M152 1638h1370l-213 -2027h-320l185 1735h-732l-184 -1735h-319z" glyph-name="product" horiz-adv-x="1554" unicode="∏"/><glyph d="M1409 1638l-31 -290h-743l323 -723l-466 -723h735l-33 -291h-1260l674 1014l-452 1013h1253z" glyph-name="summation" horiz-adv-x="1441" unicode="∑"/><glyph d="M739 694l-28 -270h-686l28 270h686z" glyph-name="minus" horiz-adv-x="870" unicode="−"/><glyph d="M1769 1638l-788 -2027h-385l-303 854h-264l37 366h473l268 -800l629 1607h333z" glyph-name="radical" horiz-adv-x="1798" unicode="√"/><glyph d="M1223 895q168 0 261 -103.5t77 -254.5q-16 -156 -131 -260.5t-283 -104.5q-182 0 -371 193q-223 -193 -407 -193q-170 0 -262.5 104.5t-75.5 260.5q16 152 130.5 255t284.5 103q180 0 365 -193q228 193 412 193zM399 422q96 0 156 41q41 27 80 74q-29 43 -58.5 68.5 t-61.5 34.5t-47 11t-42 2q-57 0 -98 -34.5t-45 -81.5q-4 -49 28.5 -82t87.5 -33zM1309 537q4 47 -29 81.5t-88 34.5q-143 0 -242 -116q29 -43 58.5 -70t65.5 -35t47.5 -9t43.5 -1q55 0 96.5 33t47.5 82z" glyph-name="infinity" horiz-adv-x="1703" unicode="∞"/><glyph d="M676 1638l-21 -282q-25 0 -44 -5t-32.5 -10.5t-23.5 -19.5t-16.5 -21.5t-10.5 -30t-6 -31.5t-4 -38t-4 -37l-125 -1202q-23 -197 -126 -273.5t-355 -76.5l16 283q47 0 74 6t41 28.5t17 39t7 61.5l3 18l127 1204q23 203 130 295t353 92z" glyph-name="integral" horiz-adv-x="671" unicode="∫"/><glyph d="M346 928q88 0 231.5 -73t208.5 -73q25 0 58 14.5t35 30.5l116 -12q-14 -121 -89 -202t-208 -81q-88 0 -230 86.5t-216 86.5q-23 0 -55.5 -19.5t-34.5 -46.5l-113 12q14 121 87 199t210 78zM311 584q88 0 229.5 -73t207.5 -73q23 0 57.5 15.5t36.5 31.5l119 -12 q-14 -121 -91 -202t-211 -81q-88 0 -229 86t-215 86q-23 0 -54.5 -20t-33.5 -45l-113 12q12 119 85 197t212 78z" glyph-name="approxequal" horiz-adv-x="1011" unicode="≈"/><glyph d="M723 588h-197l-24 -58h217l-31 -272h-323l-127 -258h-285l127 258h-78l31 272h182l27 58h-205l33 270h309l141 291h285l-141 -291h92z" glyph-name="notequal" horiz-adv-x="811" unicode="≠"/><glyph d="M805 1214l-29 -274l-340 -172l303 -170l-28 -276l-662 399l12 92zM705 274l-29 -270h-686l28 270h687z" glyph-name="lessequal" horiz-adv-x="882" unicode="≤"/><glyph d="M104 1214l662 -401l-12 -92l-744 -399l29 276l340 170l-303 172zM4 274h686l-28 -270h-687z" glyph-name="greaterequal" horiz-adv-x="827" unicode="≥"/><glyph d="M913 1434l246 -717l-391 -717h-467l-246 717l389 717h469zM555 225l270 492l-166 491l-270 -491z" glyph-name="lozenge" horiz-adv-x="1288" unicode="◊"/><glyph d="M1704 1434l-29 -1434h-340l23 827l-377 -827h-281l-198 827l-156 -827h-340l275 1434h323l283 -996l493 996h324z" glyph-name="M.aalt" horiz-adv-x="1884"/><glyph d="M446 1436l-28 -279h-297l29 279h296zM424 1065l-113 -1065h-323l112 1065h324z" glyph-name="i.aalt" horiz-adv-x="522"/><glyph d="M1241 799l-43 -422q-10 -106 72 -107q53 0 153 15l-20 -262q-86 -35 -229 -35q-158 0 -241 87t-59 314l41 410h-428l-86 -799h-323l86 799h-146l25 266h147l3 39q10 94 44.5 163.5t76.5 107.5t98.5 59.5t98.5 27.5t87 6q170 0 276 -73l-120 -219q-43 23 -107 22 q-20 0 -36.5 -3t-29 -8t-21.5 -11.5t-16 -15.5t-11.5 -15t-7.5 -16.5t-5 -14.5t-4 -12v-8l-2 -29h428l27 250h323l-26 -250h227l-27 -266h-225z" glyph-name="f_t.dlig" horiz-adv-x="1558"/><glyph d="M1319 799l-43 -422q-10 -106 72 -107q53 0 153 15l-20 -262q-86 -35 -230 -35q-158 0 -240.5 87t-58.5 314l41 410h-499l-43 -422q-10 -106 71 -107q53 0 154 15l-21 -262q-86 -35 -229 -35q-158 0 -241 87t-58 314l41 410h-148l25 266h150l26 250h324l-27 -250h502 l27 250h323l-27 -250h228l-27 -266h-225z" glyph-name="t_t.dlig" horiz-adv-x="1632"/><glyph d="M711 1454q236 0 386 -160.5t150 -462.5q0 -365 -180 -608t-485 -243q-231 0 -383 162.5t-152 465.5q0 231 78 422t231.5 307.5t354.5 116.5zM696 1171q-115 0 -193.5 -87t-111.5 -211.5t-33 -274.5q0 -86 17.5 -155.5t74 -125t146.5 -55.5q168 0 253 167t85 400 q0 342 -238 342z" glyph-name="zero.salt" horiz-adv-x="1366"/><glyph d="M801 1454q233 0 383.5 -160.5t150.5 -462.5q0 -365 -179 -608t-484 -243q-231 0 -383 162.5t-152 465.5q0 231 78 422t231.5 307.5t354.5 116.5zM786 1171q-115 0 -193.5 -87t-111 -211.5t-32.5 -274.5q0 -86 17 -155.5t73.5 -125t146.5 -55.5q115 0 193.5 86t111.5 210 t33 271q0 342 -238 342z" glyph-name="zero.tnum" horiz-adv-x="1433"/><glyph d="M979 1434l-152 -1434h-329l123 1155h-252l28 279h582z" glyph-name="one.tnum" horiz-adv-x="1433"/><glyph d="M815 1456q221 0 344 -121t123 -297q0 -82 -14.5 -139t-61.5 -127t-104.5 -133.5t-175.5 -187.5q-37 -37 -56 -58l-98 -106h434l-30 -285h-1018v43l413 449q27 29 100.5 107.5t107.5 118.5t81 102.5t67.5 112.5t20.5 95q0 55 -28.5 88t-57 40t-61.5 7q-59 0 -114.5 -45 t-76.5 -151l-6 -35h-336l4 47q14 201 155.5 338t387.5 137z" glyph-name="two.tnum" horiz-adv-x="1433"/><glyph d="M446 440q76 -178 246 -178q111 0 181.5 69.5t70.5 178.5q0 88 -60.5 144.5t-176.5 56.5q-66 0 -179 -25l312 465h-500l29 283h970l-378 -521q135 -23 222 -134t87 -261q0 -231 -168 -384.5t-422 -153.5q-188 0 -315 87t-183 230z" glyph-name="three.tnum" horiz-adv-x="1433"/><glyph d="M1307 586l-29 -281h-154l-32 -305h-330l33 305h-611l27 281l698 848h334l-90 -848h154zM551 586h272l47 413z" glyph-name="four.tnum" horiz-adv-x="1433"/><glyph d="M1176 1434l-29 -283h-498l-57 -201q-4 -6 4 -4q100 37 182 37q186 0 327.5 -127t141.5 -328q0 -250 -172 -399t-405 -149q-188 0 -327.5 85t-182.5 220l266 129q63 -147 233 -148q37 0 78 11.5t84 37t71 78.5t28 127q0 102 -61.5 146.5t-141.5 44.5q-113 0 -207 -86 l-266 92l172 717h760z" glyph-name="five.tnum" horiz-adv-x="1433"/><glyph d="M1231 1434l-473 -527q-6 -2 4 -4q6 -2 16 -2q170 0 297 -130t127 -304q0 -223 -152.5 -355t-381.5 -132q-184 0 -321.5 122.5t-137.5 311.5q0 145 67.5 265t210.5 294l402 461h342zM715 621q-90 0 -145.5 -58.5t-55.5 -134.5q0 -78 52 -124t128 -46q100 0 150.5 57.5 t50.5 133.5q0 74 -48 123t-132 49z" glyph-name="six.tnum" horiz-adv-x="1433"/><glyph d="M1364 1434l-754 -1434h-325l616 1151h-536l28 283h971z" glyph-name="seven.tnum" horiz-adv-x="1433"/><glyph d="M1053 817q80 -41 132 -130t52 -200q0 -154 -89 -273.5t-217 -176.5t-263 -57q-199 0 -346.5 119.5t-147.5 322.5q0 135 74 244.5t190 162.5q-94 90 -94 220q0 160 125 282.5t330 122.5q184 0 292.5 -101.5t108.5 -252.5q0 -168 -147 -283zM645 1049q0 -109 109 -109 q63 0 100 38t37 87q0 51 -33 77.5t-80 26.5q-55 0 -94 -33.5t-39 -86.5zM684 268q92 0 152.5 63.5t60.5 155.5q0 80 -50 123t-118 43q-100 0 -158.5 -69.5t-58.5 -143.5q0 -82 47 -127t125 -45z" glyph-name="eight.tnum" horiz-adv-x="1433"/><glyph d="M254 0l473 526q6 2 -4 4q-6 2 -16 2q-170 0 -297 130.5t-127 304.5q0 223 152.5 355t381.5 132q184 0 321.5 -123t137.5 -311q0 -147 -68.5 -270t-210.5 -289l-401 -461h-342zM770 813q90 0 145.5 58.5t55.5 134.5q0 78 -52.5 124t-127.5 46q-100 0 -150.5 -57.5 t-50.5 -133.5q0 -74 49 -123t131 -49z" glyph-name="nine.tnum" horiz-adv-x="1433"/><glyph d="M207 539q96 0 150.5 -73t41.5 -187l-4 -27q-12 -115 -77.5 -185.5t-160 -70.5t-148.5 72.5t-44 187.5l4 27q12 115 79 185.5t159 70.5zM208.5 475q-61.5 0 -108.5 -53t-55 -143l-4 -27q-8 -90 23.5 -141.5t91.5 -51.5q66 0 110.5 52.5t52.5 144.5l5 27q8 92 -23 142 t-92.5 50z" glyph-name="zero.dnom" horiz-adv-x="532"/><glyph d="M143 535l-57 -535h-76l51 453l-38 -23l-31 64l76 41h75z" glyph-name="one.dnom" horiz-adv-x="249"/><glyph d="M164 541q72 0 119 -48.5t41 -109.5q-6 -53 -40 -96t-120 -123l-109 -98h242l-8 -66h-344l8 66l151 143q109 102 125 133q14 23 17 49q4 37 -19.5 61.5t-60.5 24.5q-41 0 -74 -27.5t-39 -76.5l-2 -27h-76l5 31q8 72 61 118t123 46z" glyph-name="two.dnom" horiz-adv-x="452"/><glyph d="M178 539q68 0 114 -43t40 -101q-6 -66 -74 -106q35 -14 56.5 -50t15.5 -87q-8 -68 -66.5 -114t-134.5 -46q-84 0 -132 56t-38 132l76 -4q-4 -49 20.5 -84t71.5 -35t84 29t43 74q4 53 -32 73.5t-109 20.5l2 59q131 0 141 90q2 31 -19.5 51.5t-56.5 20.5q-45 0 -75.5 -29.5 t-36.5 -85.5l-76 5q6 78 59 126t127 48z" glyph-name="three.dnom" horiz-adv-x="477"/><glyph d="M342 535l-33 -316h56l-9 -63h-55l-16 -156h-76l16 156h-270l311 379h76zM254 414l-154 -195h133z" glyph-name="four.dnom" horiz-adv-x="503"/><glyph d="M326 535l-9 -66h-213l-30 -119q47 20 92 21q74 0 126 -56.5t44 -136.5q-8 -78 -69.5 -132t-139.5 -54q-70 0 -119 39t-55 90l70 35q0 -41 27.5 -70t74.5 -29q49 0 89 37t46 92q4 49 -24.5 84t-67.5 35q-72 0 -125 -61l-66 18l66 273h283z" glyph-name="five.dnom" horiz-adv-x="481"/><glyph d="M301 535l-160 -197h11q70 0 117.5 -53.5t41.5 -122.5q-8 -70 -65.5 -120t-124.5 -50q-72 0 -122 53t-42 125q2 27 10 48.5t22.5 45t25 35.5t34 39t31.5 37l135 160h86zM150 272q-47 0 -80 -30.5t-37 -79.5q-6 -45 21.5 -75t64.5 -30q39 0 75.5 32t41.5 81 q4 45 -22.5 73.5t-63.5 28.5z" glyph-name="six.dnom" horiz-adv-x="456"/><glyph d="M350 535l-266 -535h-80l232 469h-248l8 66h354z" glyph-name="seven.dnom" horiz-adv-x="456"/><glyph d="M178 539q76 0 116 -43t36 -99q-8 -70 -74 -106q84 -41 74 -137q-8 -68 -66.5 -113t-134.5 -45q-78 0 -129 47t-43 119q10 90 100 133q-55 43 -49 111q6 53 53 93t117 40zM180 475q-41 0 -66.5 -22.5t-29.5 -55.5q-4 -29 18.5 -52t53.5 -23q37 0 64.5 25.5t31.5 58.5 q4 31 -12.5 50t-59.5 19zM158 258q-47 0 -85 -29.5t-42 -74.5q-4 -41 24.5 -68t71.5 -27q51 0 86 29t41 74q4 43 -22.5 69.5t-73.5 26.5z" glyph-name="eight.dnom" horiz-adv-x="477"/><glyph d="M170 541q72 0 122 -52.5t42 -123.5q-2 -23 -9.5 -43.5t-14.5 -35t-22.5 -36t-22.5 -29.5t-28.5 -31.5t-27.5 -31.5l-133 -158h-88l159 195h-8q-70 0 -119 53t-43 125q8 70 65.5 119t127.5 49zM172 475q-41 0 -78 -31.5t-41 -78.5q-4 -45 23.5 -75t64.5 -30q47 0 79 31 t36 82q6 43 -20.5 72.5t-63.5 29.5z" glyph-name="nine.dnom" horiz-adv-x="458"/><glyph d="M299 1440q96 0 150.5 -73t42.5 -187l-3 -27q-12 -115 -77.5 -185.5t-159.5 -70.5t-149.5 72.5t-43.5 187.5l2 27q12 115 79 185.5t159 70.5zM301 1376q-61 0 -108.5 -53t-55.5 -143l-2 -27q-10 -90 22.5 -141t92.5 -51q66 0 111 52t53 144l2 27q10 90 -21 141t-94 51z " glyph-name="zero.numr" horiz-adv-x="530"/><glyph d="M238 1436l-56 -535h-76l50 453l-37 -23l-33 64l76 41h76z" glyph-name="one.numr" horiz-adv-x="249"/><glyph d="M260 1442q72 0 119 -48t41 -110q-6 -53 -40 -96t-120 -123l-108 -98h241l-6 -66h-344l6 66l152 143q10 8 28.5 25.5t24.5 23.5t20.5 19.5t18.5 19.5t14 16.5t13.5 15.5t8.5 14t7 15.5t5 15.5t3 17q2 37 -21.5 61.5t-60.5 24.5q-41 0 -73.5 -27.5t-36.5 -76.5l-5 -27h-75 l4 31q8 72 61 118t123 46z" glyph-name="two.numr" horiz-adv-x="454"/><glyph d="M272 1440q68 0 114 -43t40 -101q-6 -66 -74 -106q35 -14 56.5 -50t15.5 -87q-6 -68 -65.5 -114t-135.5 -46q-84 0 -132 56.5t-38 131.5l78 -4q-6 -49 19.5 -84t72.5 -35t84 29t41 74q6 53 -29.5 73.5t-109.5 20.5l2 59q131 0 139 91q2 31 -19.5 51t-56.5 20 q-45 0 -75.5 -29.5t-36.5 -84.5l-76 4q8 78 60 126t126 48z" glyph-name="three.numr" horiz-adv-x="475"/><glyph d="M434 1436l-33 -316h56l-6 -63h-56l-16 -156h-76l16 156h-270l309 379h76zM346 1315l-153 -195h133z" glyph-name="four.numr" horiz-adv-x="501"/><glyph d="M420 1436l-6 -66h-213l-31 -119q45 20 92 21q74 0 126 -56.5t44 -136.5q-8 -78 -70.5 -132t-140.5 -54q-70 0 -118 39t-56 90l72 35q-2 -41 26.5 -70t75.5 -29q49 0 88 37t45 92q6 49 -22.5 84t-69.5 35q-72 0 -125 -61l-65 18l65 273h283z" glyph-name="five.numr" horiz-adv-x="483"/><glyph d="M397 1436l-159 -197h10q70 0 119 -53t40.5 -123t-65.5 -120t-125 -50q-72 0 -122 53t-42 125q2 27 10.5 48.5t22.5 45t24.5 35.5t34 39t31.5 37l135 160h86zM248 1174q-47 0 -81 -31t-38 -80q-4 -45 23.5 -75t64.5 -30q39 0 75 32t40 81q6 45 -20.5 74t-63.5 29z" glyph-name="six.numr" horiz-adv-x="458"/><glyph d="M442 1436l-264 -535h-80l232 469h-248l6 66h354z" glyph-name="seven.numr" horiz-adv-x="454"/><glyph d="M272 1440q76 0 117 -43t35 -99q-8 -70 -72 -106q84 -43 72 -137q-6 -68 -64.5 -113t-136.5 -45t-129 47t-43 119q10 90 103 133q-57 41 -52 111q6 53 53 93t117 40zM274 1376q-41 0 -66.5 -22.5t-29.5 -55.5q-4 -29 18.5 -52t53.5 -23q37 0 64.5 25.5t31.5 58.5 q4 31 -12.5 50t-59.5 19zM252 1159q-45 0 -83 -29.5t-44 -74.5q-2 -41 26.5 -67.5t71.5 -26.5q51 0 86 28.5t39 73.5q4 43 -22.5 69.5t-73.5 26.5z" glyph-name="eight.numr" horiz-adv-x="477"/><glyph d="M262 1442q72 0 122 -52.5t42 -123.5q-2 -27 -9 -49.5t-22.5 -45t-26 -36t-34 -40t-31.5 -36.5l-133 -158h-88l160 195h-9q-72 0 -121 54t-40.5 123.5t64.5 119t126 49.5zM264 1376q-41 0 -76.5 -31.5t-42.5 -78.5q-4 -45 24 -75t64 -30q47 0 79 31t38 82q4 43 -22.5 72.5 t-63.5 29.5z" glyph-name="nine.numr" horiz-adv-x="454"/></font>
</defs>
</svg>
